<svg width="54" height="54" viewBox="0 0 54 54" fill="none" xmlns="http://www.w3.org/2000/svg">
<g clip-path="url(#clip0_1297_1657)">
<path d="M53.2464 33.3365C56.7477 18.8417 47.8357 4.25302 33.3409 0.751711C18.8461 -2.7496 4.25736 6.1624 0.756058 20.6572C-2.74525 35.152 6.16674 49.7407 20.6615 53.242C35.1563 56.7433 49.7451 47.8314 53.2464 33.3365Z" fill="url(#paint0_linear_1297_1657)"/>
<path d="M2.10999 16.5254C4.69222 11.9491 8.46079 8.15383 13.0188 5.53942C17.5768 2.925 22.7554 1.58817 28.0094 1.66972C46.5964 1.66972 52.8726 19.3279 52.8726 19.3279C52.8726 19.3279 45.8232 0 28.0631 0C10.3029 0 2.10999 16.5254 2.10999 16.5254Z" fill="#FFE58C"/>
<g style="mix-blend-mode:multiply" opacity="0.5">
<path d="M6.8775 28.455C7.44117 29.6017 8.10028 30.699 8.84787 31.7353C9.58326 32.7778 10.3944 33.7648 11.2746 34.6882C13.0018 36.5532 15.0378 38.1061 17.2931 39.2786C19.5516 40.4268 22.0111 41.1269 24.5357 41.3402C27.0806 41.5345 29.6403 41.3536 32.1326 40.8033C29.6588 41.5123 27.0838 41.8026 24.5142 41.6624C21.9283 41.4934 19.403 40.805 17.0891 39.6383C14.8017 38.4303 12.7475 36.825 11.0223 34.8976C9.30283 32.9872 7.90322 30.8116 6.8775 28.455Z" fill="#CA6D92"/>
<path d="M10.6733 38.4196C11.5716 39.4569 12.5617 40.411 13.6315 41.2704C14.6838 42.1367 15.8312 42.8806 17.0515 43.4878C18.2742 44.0937 19.5868 44.498 20.9385 44.685L21.9533 44.7924C22.2915 44.7924 22.6297 44.7924 22.9733 44.7924H23.4834L23.9881 44.7119L24.9867 44.5615C23.6606 44.9893 22.2617 45.1446 20.8741 45.0179C19.484 44.8715 18.1302 44.4826 16.8743 43.869C14.3907 42.602 12.2601 40.7389 10.6733 38.4464V38.4196Z" fill="#CA6D92"/>
<path d="M26.9355 17.6045C29.1211 17.0137 31.3541 16.6149 33.609 16.4126C35.8737 16.1835 38.1586 16.2503 40.406 16.6113C41.5376 16.8135 42.6348 17.175 43.6649 17.685C44.7119 18.1823 45.6194 18.9312 46.3064 19.8648C46.963 20.8217 47.364 21.9306 47.4714 23.0861C47.5552 24.2193 47.4738 25.3587 47.2298 26.4685C47.552 24.2619 47.4178 21.8405 46.0541 20.0634C44.6904 18.2863 42.5052 17.4112 40.3309 17.0354C38.1178 16.664 35.8671 16.5684 33.6305 16.7508C32.5084 16.8153 31.3863 16.9334 30.2696 17.0837C29.1529 17.234 28.0415 17.3736 26.9355 17.6045Z" fill="#CA6D92"/>
</g>
<g style="mix-blend-mode:soft-light">
<path d="M6.54462 28.7395C7.10824 29.888 7.76735 30.9871 8.51499 32.0253C9.24311 33.069 10.047 34.0577 10.9202 34.9835C12.6459 36.8516 14.6822 38.4065 16.9387 39.5792C19.202 40.7365 21.6696 41.4405 24.2028 41.6516C26.7496 41.8336 29.3093 41.6401 31.7997 41.0772C29.3201 41.7951 26.738 42.0945 24.1599 41.963C21.574 41.7941 19.0486 41.1057 16.7347 39.939C14.446 38.7308 12.3915 37.1235 10.6679 35.1929C8.95284 33.2794 7.56025 31.0999 6.54462 28.7395Z" fill="#FFF9C7"/>
<path d="M10.3404 38.7202C11.2401 39.7562 12.2301 40.7102 13.2986 41.5711C14.3514 42.4338 15.4987 43.1741 16.7186 43.7777C17.9324 44.3844 19.2357 44.7922 20.5788 44.9857L21.5935 45.0931C21.9318 45.0931 22.27 45.0931 22.6136 45.0931H23.1505L23.6552 45.0125L24.6806 44.8622C23.3545 45.29 21.9557 45.4452 20.5681 45.3186C19.1779 45.1721 17.8242 44.7833 16.5683 44.1696C15.3276 43.5359 14.17 42.7515 13.1215 41.8342C12.0666 40.9179 11.1321 39.8715 10.3404 38.7202Z" fill="#FFF9C7"/>
<path d="M26.6027 17.9052C28.7917 17.3137 31.0283 16.9149 33.2869 16.7133C35.5497 16.4814 37.8331 16.5482 40.0785 16.9119C41.212 17.1134 42.311 17.4749 43.3428 17.9857C44.3911 18.4858 45.2988 19.2385 45.9842 20.1762C46.6408 21.1331 47.0419 22.242 47.1493 23.3975C47.2335 24.5307 47.1521 25.6701 46.9077 26.7799C47.2298 24.5786 47.0956 22.1573 45.7319 20.3802C44.3682 18.6031 42.1831 17.6958 40.0087 17.3522C37.7907 16.962 35.5324 16.8519 33.2869 17.0247C32.1648 17.0891 31.0427 17.2072 29.926 17.3575C28.8093 17.5079 27.7086 17.6743 26.6027 17.9052Z" fill="#FFF9C7"/>
</g>
<g style="mix-blend-mode:soft-light" opacity="0.8">
<path d="M5.7608 43.5683C5.7608 43.5683 14.0074 52.792 27 52.792C39.9927 52.792 48.2392 43.5683 48.2392 43.5683C48.2392 43.5683 40.7604 54 27 54C13.2396 54 5.7608 43.5683 5.7608 43.5683Z" fill="white"/>
</g>
<path d="M27 3.9998C22.451 3.9998 18.0042 5.34874 14.2218 7.87603C10.4394 10.4033 7.49144 13.9955 5.75061 18.1982C4.00978 22.4009 3.5543 27.0255 4.44177 31.4871C5.32924 35.9487 7.51979 40.047 10.7364 43.2636C13.9531 46.4802 18.0513 48.6708 22.5129 49.5583C26.9745 50.4457 31.5991 49.9902 35.8018 48.2494C40.0046 46.5086 43.5967 43.5606 46.124 39.7782C48.6513 35.9959 50.0002 31.549 50.0002 27C50.0002 20.9 47.577 15.0498 43.2636 10.7364C38.9502 6.42303 33.1001 3.9998 27 3.9998ZM27 48.8566C22.6757 48.8577 18.4481 47.5763 14.8521 45.1745C11.2561 42.7726 8.45318 39.3583 6.79783 35.3633C5.14248 31.3684 4.70909 26.9722 5.55247 22.7309C6.39585 18.4896 8.47811 14.5936 11.5359 11.5359C14.5937 8.47808 18.4896 6.39582 22.7309 5.55244C26.9722 4.70906 31.3684 5.14246 35.3634 6.79781C39.3583 8.45315 42.7727 11.2561 45.1745 14.8521C47.5763 18.4481 48.8577 22.6756 48.8567 27C48.8552 32.7963 46.552 38.3548 42.4534 42.4534C38.3548 46.552 32.7963 48.8552 27 48.8566Z" fill="url(#paint1_linear_1297_1657)"/>
<g style="mix-blend-mode:color">
<circle cx="27" cy="27" r="27" fill="#B4320A"/>
</g>
<g clip-path="url(#clip1_1297_1657)">
<path d="M23.3793 15.316L26.5902 35.6486C26.5636 35.6646 26.5361 35.6791 26.5078 35.6919L17.4258 39.7618C17.3008 39.818 17.1625 39.8379 17.0267 39.8192C16.8909 39.8005 16.7631 39.7441 16.6578 39.6563L16.6464 39.647L10.9821 34.7209C10.9818 34.7203 10.9809 34.7199 10.9806 34.7192C10.9036 34.652 10.8416 34.5693 10.7986 34.4765C10.7557 34.3838 10.7327 34.283 10.7313 34.1808L10.4928 19.7543C10.4925 19.7536 10.4929 19.7526 10.4926 19.752C10.4914 19.6557 10.5094 19.5602 10.5455 19.471L23.3793 15.316Z" fill="#9DB5CA"/>
<path d="M22.3792 11.9441L23.3793 15.3161L21.524 17.7426L10.5454 19.471C10.5735 19.3994 10.6129 19.3327 10.6621 19.2736L10.6652 19.2698L14.3339 14.9233C14.4167 14.8253 14.5237 14.7508 14.6443 14.7072L22.1628 11.9873L22.1648 11.9864C22.234 11.9618 22.3063 11.9479 22.3792 11.9441Z" fill="#E4ECF4"/>
<path d="M35.2606 28.7519C35.26 28.7522 26.6473 35.6101 26.6456 35.6116C26.6275 35.6246 26.609 35.6369 26.59 35.6486L21.5239 17.7425L22.379 11.9441C22.457 11.9407 22.535 11.9499 22.61 11.9712L26.9871 13.2092C27.1675 13.2606 27.3214 13.3788 27.4175 13.5398C27.4184 13.5418 27.4203 13.5442 27.4212 13.5462C27.4224 13.5489 27.424 13.5506 27.4252 13.5533L27.4261 13.5553L35.4259 27.8362C35.5978 28.143 35.5269 28.5251 35.2606 28.7519Z" fill="#32424F"/>
<path d="M35.2607 28.752C35.2601 28.7523 34.4218 29.4201 33.268 30.3386C33.3032 30.2406 33.3169 30.1361 33.3082 30.0322C33.2995 29.9284 33.2686 29.8276 33.2175 29.7367L25.2177 15.4563L25.2165 15.4538C25.2154 15.4513 25.2139 15.4496 25.2128 15.4471C25.212 15.4452 25.2099 15.4424 25.2091 15.4405C25.1127 15.2797 24.9588 15.1615 24.7786 15.1098L22.0265 14.3314L22.3788 11.944C22.4568 11.9408 22.5349 11.9498 22.6101 11.9709L26.9874 13.2094C27.1675 13.2607 27.3214 13.3787 27.4176 13.5394C27.4187 13.5419 27.4204 13.5442 27.4213 13.5461C27.4224 13.5486 27.4239 13.5502 27.4253 13.5534L27.4262 13.5553L35.4254 27.8361C35.598 28.1433 35.527 28.5249 35.2607 28.752Z" fill="#C7D0D7"/>
<path d="M27.543 38.8523C27.4269 38.8813 27.3055 38.8814 27.1894 38.8525C27.0733 38.8236 26.966 38.7666 26.8771 38.6866L25.5711 37.513L34.7235 29.4677L38.123 36.2002C38.0933 36.2132 38.0626 36.2237 38.0312 36.2317L38.0299 36.2323L27.543 38.8523Z" fill="#9DB5CA"/>
<path d="M45.7097 28.3791L45.7049 31.1679C45.7044 31.1705 45.7049 31.1735 45.7046 31.1761C45.703 31.2998 45.6701 31.421 45.6089 31.5285C45.5477 31.636 45.4602 31.7262 45.3546 31.7906L38.2228 36.1498C38.2208 36.1507 38.2185 36.1526 38.2165 36.1535L38.2158 36.1538C38.1862 36.1718 38.1551 36.1874 38.1228 36.2002L34.0706 30.0415L41.9352 22.9582C42.0219 23.0093 42.0968 23.0782 42.1549 23.1604L45.5732 27.9528C45.6624 28.077 45.7102 28.2262 45.7097 28.3791Z" fill="#32424F"/>
<path d="M45.5734 27.9529L42.1551 23.1604C42.0969 23.0783 42.0221 23.0094 41.9354 22.9582L39.6616 25.0062L40.4858 25.2004L43.5768 29.4441L43.2453 32.918C43.2402 32.9714 43.2227 33.0229 43.1943 33.0684C43.1658 33.114 43.1272 33.1522 43.0814 33.1802L45.3548 31.7906C45.4604 31.7261 45.5479 31.6359 45.6091 31.5285C45.6703 31.421 45.7032 31.2997 45.7048 31.1761C45.7052 31.1734 45.7047 31.1705 45.7051 31.1679L45.7099 28.3791C45.7104 28.2262 45.6626 28.0771 45.5734 27.9529Z" fill="#C7D0D7"/>
<path d="M41.9354 22.9582L35.6751 32.6412L25.5712 37.513L24.3381 36.4054C24.2284 36.3069 24.1511 36.1776 24.1163 36.0344C24.0814 35.8912 24.0907 35.7409 24.1428 35.603L25.943 30.8329L26.528 29.2833L26.5295 29.2794C26.5801 29.1485 26.6671 29.0347 26.7801 28.9515C26.7818 28.9499 26.7845 28.9487 26.7862 28.9471L36.0505 22.3C36.0548 22.2972 36.0589 22.2938 36.0633 22.2911C36.2121 22.189 36.3935 22.1456 36.5724 22.1695C36.573 22.1692 36.5747 22.1693 36.5757 22.1696L41.6584 22.8605C41.7565 22.8734 41.8509 22.9067 41.9354 22.9582Z" fill="#C7D0D7"/>
<path d="M31.5865 24.3893L32.5658 26.0805L32.9815 28.1855C32.8771 28.2168 32.7683 28.2307 32.6594 28.2267L30.7726 28.1463C30.5908 28.1385 30.4149 28.0803 30.2643 27.9781C30.1138 27.8759 29.9947 27.7339 29.9204 27.5679L28.0865 23.098L31.5865 24.3893Z" fill="#E4ECF4"/>
<path d="M35.948 19.2707L38.1323 23.5258C38.3211 23.9471 38.1895 24.4444 37.8168 24.7178L33.2796 28.0379C33.189 28.1042 33.0882 28.1548 32.9815 28.1854L31.5865 24.3893L35.948 19.2707Z" fill="#32424F"/>
<path d="M28.0143 22.8294L27.664 19.9359C27.6356 19.7015 27.6928 19.4647 27.8251 19.2691C27.9573 19.0735 28.1558 18.9322 28.3839 18.8712L33.6326 17.4672C33.8059 17.4208 33.9885 17.4229 34.1607 17.4732C34.3329 17.5234 34.4879 17.62 34.609 17.7523L35.7935 19.0464C36.1536 19.4399 36.1331 20.0491 35.7473 20.4173L31.5864 24.3891L28.7443 23.6613C28.553 23.6123 28.3809 23.5066 28.2507 23.3582C28.1204 23.2098 28.038 23.0255 28.0143 22.8294Z" fill="#9DB5CA"/>
<path d="M15.2153 23.3998L14.7682 23.6001C14.706 23.628 14.6388 23.6434 14.5707 23.6454C14.5025 23.6473 14.4346 23.6358 14.3709 23.6115C14.3071 23.5873 14.2488 23.5506 14.1992 23.5038C14.1496 23.457 14.1098 23.4008 14.0819 23.3386C14.054 23.2764 14.0386 23.2092 14.0367 23.1411C14.0347 23.0729 14.0462 23.005 14.0705 22.9413C14.0948 22.8775 14.1314 22.8192 14.1782 22.7696C14.225 22.72 14.2812 22.6802 14.3434 22.6523L14.7905 22.4519C15.0523 22.3346 15.3595 22.4517 15.4768 22.7135C15.5941 22.9752 15.4771 23.2825 15.2153 23.3998ZM14.6697 33.3201L14.2226 33.5205C14.0969 33.5768 13.954 33.5809 13.8253 33.5318C13.6966 33.4828 13.5926 33.3846 13.5363 33.2589C13.48 33.1332 13.4759 32.9903 13.5249 32.8616C13.574 32.7329 13.6721 32.6289 13.7978 32.5726L14.2449 32.3723C14.3706 32.3159 14.5135 32.3119 14.6422 32.3609C14.7709 32.41 14.8749 32.5081 14.9312 32.6338C14.9875 32.7595 14.9916 32.9024 14.9426 33.0311C14.8935 33.1598 14.7954 33.2638 14.6697 33.3201ZM21.0676 34.5753L20.6205 34.7756C20.5583 34.8035 20.4911 34.8189 20.423 34.8208C20.3548 34.8228 20.2869 34.8113 20.2232 34.787C20.1594 34.7627 20.1011 34.7261 20.0515 34.6793C20.0019 34.6324 19.9621 34.5763 19.9342 34.514C19.9063 34.4518 19.8909 34.3847 19.889 34.3165C19.887 34.2483 19.8985 34.1804 19.9228 34.1167C19.9471 34.053 19.9837 33.9947 20.0305 33.9451C20.0774 33.8955 20.1335 33.8556 20.1957 33.8277L20.6428 33.6274C20.7685 33.5711 20.9114 33.567 21.0401 33.616C21.1688 33.6651 21.2728 33.7632 21.3291 33.8889C21.3854 34.0146 21.3895 34.1576 21.3405 34.2863C21.2914 34.415 21.1933 34.5189 21.0676 34.5753ZM32.3555 20.3784L31.9084 20.5787C31.8462 20.6066 31.7791 20.622 31.7109 20.6239C31.6427 20.6259 31.5748 20.6144 31.5111 20.5901C31.4474 20.5658 31.389 20.5292 31.3395 20.4824C31.2899 20.4355 31.25 20.3794 31.2221 20.3172C31.1942 20.2549 31.1789 20.1878 31.1769 20.1196C31.1749 20.0515 31.1864 19.9836 31.2107 19.9198C31.235 19.8561 31.2716 19.7978 31.3185 19.7482C31.3653 19.6986 31.4214 19.6587 31.4837 19.6309L31.9307 19.4305C32.0564 19.3742 32.1993 19.3701 32.3281 19.4191C32.4568 19.4682 32.5607 19.5664 32.617 19.6921C32.6734 19.8178 32.6775 19.9607 32.6284 20.0894C32.5794 20.2181 32.4812 20.322 32.3555 20.3784ZM30.2833 31.5583L29.8362 31.7586C29.7105 31.8149 29.5676 31.819 29.4389 31.77C29.3102 31.7209 29.2062 31.6228 29.1499 31.4971C29.0936 31.3714 29.0895 31.2284 29.1385 31.0997C29.1876 30.971 29.2858 30.8671 29.4114 30.8108L29.8585 30.6104C29.9842 30.5541 30.1271 30.55 30.2558 30.599C30.3845 30.6481 30.4885 30.7463 30.5448 30.872C30.6011 30.9977 30.6052 31.1406 30.5562 31.2693C30.5071 31.398 30.409 31.5019 30.2833 31.5583ZM33.0285 31.8396L32.5814 32.0399C32.4557 32.0963 32.3128 32.1004 32.1841 32.0513C32.0553 32.0023 31.9514 31.9041 31.8951 31.7784C31.8387 31.6527 31.8346 31.5098 31.8837 31.3811C31.9327 31.2524 32.0309 31.1484 32.1566 31.0921L32.6037 30.8917C32.8655 30.7744 33.1728 30.8915 33.2901 31.1533C33.4073 31.415 33.2903 31.7222 33.0285 31.8396ZM20.1759 30.0715L19.7289 30.2718C19.6032 30.3282 19.4603 30.3323 19.3315 30.2832C19.2028 30.2342 19.0989 30.136 19.0426 30.0103C18.9862 29.8846 18.9821 29.7417 19.0312 29.613C19.0802 29.4843 19.1784 29.3803 19.3041 29.324L19.7512 29.1236C19.8769 29.0673 20.0198 29.0632 20.1485 29.1123C20.2772 29.1613 20.3812 29.2595 20.4375 29.3852C20.4938 29.5109 20.4979 29.6538 20.4488 29.7825C20.3998 29.9112 20.3016 30.0152 20.1759 30.0715ZM22.3178 31.4522L21.8708 31.6525C21.8085 31.6804 21.7414 31.6958 21.6732 31.6977C21.605 31.6997 21.5372 31.6882 21.4734 31.6639C21.4097 31.6396 21.3514 31.603 21.3018 31.5562C21.2522 31.5093 21.2123 31.4532 21.1844 31.391C21.1565 31.3287 21.1412 31.2616 21.1392 31.1934C21.1373 31.1252 21.1488 31.0573 21.173 30.9936C21.1973 30.9299 21.2339 30.8716 21.2808 30.822C21.3276 30.7724 21.3837 30.7325 21.446 30.7046L21.893 30.5043C22.0187 30.448 22.1617 30.4439 22.2904 30.4929C22.4191 30.542 22.523 30.6401 22.5794 30.7658C22.6357 30.8915 22.6398 31.0345 22.5907 31.1632C22.5417 31.2919 22.4435 31.3958 22.3178 31.4522Z" fill="#32424F"/>
</g>
</g>
<defs>
<linearGradient id="paint0_linear_1297_1657" x1="27.0017" y1="54.0002" x2="27.0017" y2="0.00019297" gradientUnits="userSpaceOnUse">
<stop stop-color="#2C6618"/>
<stop offset="0.15" stop-color="#36851A"/>
<stop offset="0.19" stop-color="#208D2B"/>
<stop offset="0.32" stop-color="#1AB617"/>
<stop offset="0.46" stop-color="#15BE3B"/>
<stop offset="0.6" stop-color="#0BD037"/>
<stop offset="0.77" stop-color="#47D815"/>
<stop offset="1" stop-color="#00FF0A"/>
</linearGradient>
<linearGradient id="paint1_linear_1297_1657" x1="27" y1="50.0002" x2="27" y2="3.9998" gradientUnits="userSpaceOnUse">
<stop stop-color="#FFC200"/>
<stop offset="0.11" stop-color="#FFA200"/>
<stop offset="0.16" stop-color="#ED8C00"/>
<stop offset="0.26" stop-color="#CB6300"/>
<stop offset="0.35" stop-color="#B04200"/>
<stop offset="0.45" stop-color="#9D2B00"/>
<stop offset="0.54" stop-color="#911D00"/>
<stop offset="0.61" stop-color="#8D1800"/>
<stop offset="0.65" stop-color="#952000"/>
<stop offset="0.74" stop-color="#A42E00"/>
<stop offset="0.84" stop-color="#AD3600"/>
<stop offset="1" stop-color="#B03900"/>
</linearGradient>
<clipPath id="clip0_1297_1657">
<rect width="54" height="54" fill="white"/>
</clipPath>
<clipPath id="clip1_1297_1657">
<rect width="34.4167" height="34.4167" fill="white" transform="translate(3 17.0746) rotate(-24.1387)"/>
</clipPath>
</defs>
</svg>
