<svg width="213" height="170" viewBox="0 0 213 170" fill="none" xmlns="http://www.w3.org/2000/svg">
<g clip-path="url(#clip0_1506_1036)">
<path d="M24.7535 75.2105C26.1449 54.8395 35.2055 35.753 50.1097 21.7967C65.014 7.84047 84.6539 0.0518572 105.072 0.000257719C125.491 -0.0513418 145.17 7.63791 160.144 21.5187C175.119 35.3994 184.276 54.4399 185.77 74.8036L184.367 74.9065C182.899 54.8977 173.902 36.189 159.188 22.5502C144.475 8.91135 125.138 1.3561 105.076 1.4068C85.0133 1.4575 65.7156 9.11038 51.0711 22.8234C36.4267 36.5365 27.5239 55.2904 26.1568 75.3063L24.7535 75.2105Z" fill="url(#paint0_linear_1506_1036)"/>
<path opacity="0.5" d="M28.0973 70.8177C30.4309 52.6128 39.1247 35.8188 52.6423 23.4036C66.1599 10.9883 83.6311 3.75105 101.968 2.97074C120.306 2.19044 138.328 7.91733 152.852 19.1394C167.375 30.3614 177.464 46.3561 181.336 64.297L180.461 64.4858C176.634 46.7513 166.661 30.9406 152.305 19.8476C137.948 8.75469 120.133 3.09368 102.006 3.86501C83.88 4.63633 66.6099 11.7903 53.2478 24.0628C39.8857 36.3352 31.2919 52.936 28.9851 70.9315L28.0973 70.8177Z" fill="url(#paint1_linear_1506_1036)"/>
<path opacity="0.1" d="M30.4192 68.3128C33.2635 51.1402 41.9257 35.4676 54.9532 23.9231C67.9807 12.3786 84.5813 5.66429 101.971 4.90601C119.361 4.14774 136.484 9.39162 150.466 19.7583C164.449 30.1251 174.443 44.9842 178.771 61.8441L177.926 62.0612C173.647 45.3952 163.769 30.707 149.947 20.4595C136.125 10.212 119.199 5.02847 102.009 5.77803C84.8194 6.52758 68.4097 13.1647 55.532 24.5763C42.6544 35.988 34.0919 51.4803 31.2803 68.4555L30.4192 68.3128Z" fill="url(#paint2_linear_1506_1036)"/>
<path opacity="0.45" d="M173.421 81.6779C173.421 90.6267 171.658 99.488 168.233 107.756C164.809 116.023 159.789 123.536 153.462 129.863C147.134 136.191 139.622 141.211 131.354 144.635C123.086 148.06 114.225 149.823 105.276 149.823C96.3271 149.823 87.4659 148.06 79.1982 144.635C70.9305 141.211 63.4183 136.191 57.0905 129.863C50.7626 123.536 45.7431 116.023 42.3185 107.756C38.894 99.488 37.1313 90.6267 37.1313 81.6779L45.7526 81.6779C45.7526 89.4946 47.2922 97.2348 50.2836 104.456C53.2749 111.678 57.6593 118.24 63.1866 123.767C68.7139 129.295 75.2757 133.679 82.4974 136.67C89.7191 139.662 97.4593 141.201 105.276 141.201C113.093 141.201 120.833 139.662 128.055 136.67C135.276 133.679 141.838 129.295 147.365 123.767C152.893 118.24 157.277 111.678 160.268 104.456C163.26 97.2348 164.799 89.4946 164.799 81.6779H173.421Z" fill="url(#paint3_radial_1506_1036)"/>
<path d="M173.421 81.6779C173.421 90.6267 171.658 99.488 168.233 107.756C164.809 116.023 159.789 123.536 153.462 129.863C147.134 136.191 139.622 141.211 131.354 144.635C123.086 148.06 114.225 149.823 105.276 149.823C96.3271 149.823 87.4659 148.06 79.1982 144.635C70.9305 141.211 63.4183 136.191 57.0905 129.863C50.7626 123.536 45.7431 116.023 42.3185 107.756C38.894 99.488 37.1313 90.6267 37.1313 81.6779L37.8475 81.6779C37.8475 90.5327 39.5916 99.3008 42.9802 107.482C46.3688 115.662 51.3356 123.096 57.5969 129.357C63.8582 135.618 71.2914 140.585 79.4722 143.974C87.653 147.362 96.4212 149.106 105.276 149.106C114.131 149.106 122.899 147.362 131.08 143.974C139.261 140.585 146.694 135.618 152.955 129.357C159.216 123.096 164.183 115.662 167.572 107.482C170.96 99.3008 172.704 90.5327 172.704 81.6779H173.421Z" fill="url(#paint4_linear_1506_1036)"/>
<path d="M46.712 92.6797C49.1064 106.202 56.2594 118.464 66.9187 127.32C77.578 136.177 91.0643 141.062 105.017 141.122C118.969 141.182 132.498 136.412 143.235 127.647C153.972 118.883 161.234 106.682 163.748 93.1809L163.133 93.0702C160.646 106.429 153.461 118.502 142.836 127.174C132.212 135.847 118.825 140.566 105.019 140.507C91.2137 140.448 77.8691 135.614 67.3219 126.851C56.7746 118.088 49.6967 105.954 47.3275 92.5742L46.712 92.6797Z" fill="url(#paint5_linear_1506_1036)"/>
<path fill-rule="evenodd" clip-rule="evenodd" d="M-9.49626 85.9921C-4.91434 85.9712 2.74623 86.6406 10.0656 90.0431C17.3472 93.428 24.3629 99.2939 28.1241 109.041C28.1273 109.054 28.1304 109.065 28.1332 109.075C28.1462 109.122 28.1622 109.173 28.1793 109.225C28.2141 109.33 28.2633 109.468 28.3259 109.635C28.4517 109.971 28.6387 110.441 28.8898 111.029C29.3922 112.204 30.1549 113.858 31.2035 115.854C33.3002 119.844 36.5453 125.208 41.1461 130.843C50.3454 142.109 64.9929 154.486 86.731 159.055C87.7339 159.301 88.9707 159.549 90.3012 159.816C90.9187 159.94 91.5562 160.068 92.1999 160.201C94.2653 160.63 96.4395 161.126 98.4077 161.761C100.39 162.402 102.083 163.159 103.237 164.075C104.292 164.913 104.74 166.04 104.797 167.018C104.795 167.085 104.794 167.152 104.794 167.221H104.803H106.718H106.727C106.727 167.152 106.726 167.085 106.724 167.018C106.781 166.04 107.229 164.913 108.284 164.075C109.438 163.159 111.131 162.402 113.113 161.761C115.081 161.126 117.255 160.63 119.321 160.201C119.965 160.068 120.602 159.94 121.22 159.816C122.55 159.549 123.787 159.301 124.79 159.055C146.528 154.486 161.175 142.109 170.375 130.843C174.975 125.208 178.221 119.844 180.317 115.854C181.366 113.858 182.129 112.204 182.631 111.029C182.882 110.441 183.069 109.971 183.195 109.635C183.258 109.468 183.307 109.33 183.341 109.225C183.349 109.202 183.356 109.18 183.363 109.158C183.372 109.13 183.38 109.102 183.388 109.075L183.39 109.066C183.392 109.059 183.394 109.05 183.397 109.041C187.158 99.2939 194.174 93.428 201.455 90.0431C208.775 86.6406 216.435 85.9712 221.017 85.9921L221.041 85.9933H421.836V84.095L221.089 84.095C215.952 84.0594 208.255 84.7823 200.631 88.3268C192.973 91.8867 185.53 98.1036 181.565 108.438L181.503 108.6V108.647C181.478 108.721 181.439 108.832 181.384 108.979C181.27 109.284 181.094 109.727 180.852 110.293C180.369 111.424 179.627 113.032 178.603 114.982C176.553 118.882 173.376 124.136 168.87 129.654C159.859 140.691 145.563 152.752 124.371 157.202L124.354 157.206L124.338 157.21C123.375 157.447 122.202 157.682 120.892 157.944L120.89 157.945L120.884 157.946C120.259 158.071 119.602 158.203 118.923 158.344C116.842 158.776 114.583 159.288 112.511 159.958C110.453 160.622 108.497 161.466 107.072 162.598C106.552 163.01 106.112 163.469 105.76 163.978C105.409 163.469 104.969 163.01 104.449 162.598C103.024 161.466 101.068 160.622 99.0098 159.958C96.9375 159.288 94.6789 158.776 92.5981 158.344C91.9185 158.203 91.2621 158.071 90.6372 157.946L90.6306 157.945L90.6292 157.944C89.319 157.682 88.1462 157.447 87.1827 157.21L87.1665 157.206L87.1501 157.202C65.9577 152.752 51.6623 140.691 42.6507 129.654C38.145 124.136 34.9673 118.882 32.9179 114.982C31.8934 113.032 31.1521 111.424 30.6688 110.293C30.427 109.727 30.2509 109.284 30.1366 108.979C30.0815 108.832 30.0424 108.721 30.0177 108.647V108.6L29.9556 108.438C25.9909 98.1036 18.5482 91.8867 10.8902 88.3268C3.26553 84.7823 -4.43103 84.0594 -9.56836 84.095L-210.315 84.095V85.9933H-9.52036L-9.49626 85.9921Z" fill="url(#paint6_radial_1506_1036)"/>
<path opacity="0.2" fill-rule="evenodd" clip-rule="evenodd" d="M223.512 92.643C219.137 92.623 211.821 93.2622 204.832 96.5114C197.878 99.7439 191.178 105.346 187.587 114.654C187.584 114.666 187.581 114.677 187.578 114.686C187.566 114.731 187.55 114.78 187.534 114.829C187.501 114.929 187.454 115.062 187.394 115.221C187.274 115.542 187.095 115.991 186.856 116.552C186.376 117.674 185.647 119.254 184.646 121.159C182.644 124.97 179.545 130.093 175.151 135.473C166.366 146.232 152.379 158.051 131.62 162.415C130.662 162.65 129.481 162.887 128.211 163.141L128.21 163.142C127.621 163.26 127.012 163.382 126.397 163.509C124.425 163.919 122.349 164.392 120.469 164.999C118.576 165.611 116.959 166.334 115.858 167.208C114.779 168.065 114.365 169.236 114.362 170.212H112.525C112.522 168.33 113.317 166.896 114.7 165.798C116.061 164.717 117.929 163.912 119.894 163.277C121.873 162.637 124.03 162.148 126.017 161.736C126.667 161.601 127.294 161.475 127.891 161.355L127.896 161.354C129.148 161.103 130.268 160.879 131.188 160.653L131.204 160.649L131.22 160.645C151.457 156.396 165.109 144.878 173.714 134.338C178.017 129.069 181.052 124.051 183.009 120.327C183.987 118.465 184.695 116.929 185.157 115.849C185.388 115.309 185.556 114.885 185.665 114.594C185.717 114.454 185.755 114.348 185.778 114.277V114.233L185.838 114.078C189.624 104.209 196.731 98.272 204.044 94.8724C211.326 91.4876 218.675 90.7973 223.581 90.8312L422.317 90.8312V92.6441H223.535L223.512 92.643ZM-11.5126 92.6431C-7.13705 92.6231 0.178436 93.2624 7.16809 96.5116C14.1217 99.7441 20.8214 105.346 24.4131 114.654C24.4162 114.666 24.4192 114.677 24.4219 114.687C24.4304 114.717 24.4402 114.749 24.4509 114.783C24.4557 114.798 24.4608 114.814 24.4659 114.829C24.4991 114.93 24.5461 115.062 24.6059 115.221C24.726 115.542 24.9046 115.991 25.1443 116.552C25.6241 117.674 26.3525 119.254 27.3539 121.159C29.3561 124.97 32.455 130.093 36.8486 135.474C45.6335 146.232 59.6212 158.052 80.3802 162.415C81.3377 162.65 82.5188 162.887 83.7891 163.142L83.7894 163.142C84.3791 163.26 84.988 163.382 85.6027 163.51C87.575 163.919 89.6512 164.392 91.5309 164.999C93.424 165.611 95.0408 166.334 96.1421 167.209C97.2205 168.065 97.635 169.237 97.6378 170.213H99.4753C99.478 168.33 98.6831 166.896 97.2995 165.798C95.9388 164.718 94.0712 163.912 92.1058 163.277C90.1268 162.638 87.97 162.148 85.983 161.736C85.3316 161.601 84.7028 161.475 84.104 161.355C82.8522 161.104 81.7319 160.879 80.8114 160.653L80.796 160.649L80.7803 160.646C60.5425 156.396 46.8911 144.878 38.2855 134.338C33.9827 129.069 30.9482 124.051 28.991 120.327C28.0126 118.465 27.3047 116.929 26.8433 115.849C26.6124 115.309 26.4442 114.885 26.335 114.594C26.2824 114.454 26.2451 114.348 26.2215 114.278V114.233L26.1621 114.078C22.376 104.209 15.2686 98.2722 7.95554 94.8726C0.674347 91.4878 -6.67551 90.7975 -11.5814 90.8314L-210.317 90.8314V92.6442H-11.5356L-11.5126 92.6431Z" fill="url(#paint7_radial_1506_1036)"/>
</g>
<defs>
<linearGradient id="paint0_linear_1506_1036" x1="105.276" y1="0" x2="105.114" y2="73.9609" gradientUnits="userSpaceOnUse">
<stop stop-color="#4FF4FF"/>
<stop offset="1" stop-color="#41FFC6"/>
</linearGradient>
<linearGradient id="paint1_linear_1506_1036" x1="105.276" y1="2.90039" x2="105.12" y2="74.204" gradientUnits="userSpaceOnUse">
<stop stop-color="#4FF4FF"/>
<stop offset="1" stop-color="#41FFC6"/>
</linearGradient>
<linearGradient id="paint2_linear_1506_1036" x1="105.277" y1="4.83398" x2="105.125" y2="74.3661" gradientUnits="userSpaceOnUse">
<stop stop-color="#4FF4FF"/>
<stop offset="1" stop-color="#41FFC6"/>
</linearGradient>
<radialGradient id="paint3_radial_1506_1036" cx="0" cy="0" r="1" gradientUnits="userSpaceOnUse" gradientTransform="translate(110.109 149.823) rotate(-91.0768) scale(68.1051)">
<stop stop-color="#34EBFF"/>
<stop offset="1" stop-color="#34EBFF" stop-opacity="0"/>
</radialGradient>
<linearGradient id="paint4_linear_1506_1036" x1="105.276" y1="13.5332" x2="105.139" y2="75.9792" gradientUnits="userSpaceOnUse">
<stop stop-color="#4FF4FF"/>
<stop offset="1" stop-color="#41FFC6"/>
</linearGradient>
<linearGradient id="paint5_linear_1506_1036" x1="105.275" y1="24.165" x2="105.391" y2="77.7535" gradientUnits="userSpaceOnUse">
<stop stop-color="#4FF4FF"/>
<stop offset="1" stop-color="#41FFC6"/>
</linearGradient>
<radialGradient id="paint6_radial_1506_1036" cx="0" cy="0" r="1" gradientUnits="userSpaceOnUse" gradientTransform="translate(107.21 172.537) rotate(-90) scale(181.719 343.466)">
<stop stop-color="#4AFFF4"/>
<stop offset="0.455612" stop-color="#63FFDA"/>
<stop offset="0.655655" stop-color="#6CFFFF" stop-opacity="0.24"/>
<stop offset="1" stop-color="#72A2FF" stop-opacity="0"/>
</radialGradient>
<radialGradient id="paint7_radial_1506_1036" cx="0" cy="0" r="1" gradientUnits="userSpaceOnUse" gradientTransform="translate(104.549 175.289) rotate(-90) scale(173.534 343.729)">
<stop stop-color="#4AFFF4"/>
<stop offset="0.455612" stop-color="#63FFDA"/>
<stop offset="0.655655" stop-color="#6CFFFF" stop-opacity="0.24"/>
<stop offset="1" stop-color="#72A2FF" stop-opacity="0"/>
</radialGradient>
<clipPath id="clip0_1506_1036">
<rect width="213" height="170" fill="white"/>
</clipPath>
</defs>
</svg>
