<svg width="42" height="42" viewBox="0 0 42 42" fill="none" xmlns="http://www.w3.org/2000/svg">
<g clip-path="url(#clip0_1297_1924)">
<path d="M41.4139 25.9284C44.1371 14.6547 37.2056 3.30787 25.9318 0.584636C14.6581 -2.1386 3.31129 4.79294 0.588055 16.0667C-2.13518 27.3404 4.79636 38.6872 16.0701 41.4104C27.3438 44.1337 38.6906 37.2021 41.4139 25.9284Z" fill="url(#paint0_linear_1297_1924)"/>
<path d="M1.64108 12.853C3.64948 9.29368 6.5806 6.34184 10.1257 4.3084C13.6708 2.27497 17.6987 1.23521 21.785 1.29864C36.2416 1.29864 41.1231 15.0328 41.1231 15.0328C41.1231 15.0328 35.6403 -3.05176e-05 21.8268 -3.05176e-05C8.01332 -3.05176e-05 1.64108 12.853 1.64108 12.853Z" fill="#FFE58C"/>
<g style="mix-blend-mode:multiply" opacity="0.5">
<path d="M5.34918 22.1316C5.78759 23.0235 6.30024 23.877 6.88169 24.683C7.45366 25.4938 8.08452 26.2615 8.76915 26.9797C10.1125 28.4302 11.6961 29.638 13.4502 30.55C15.2068 31.443 17.1197 31.9875 19.0833 32.1535C21.0627 32.3046 23.0536 32.1639 24.9921 31.7359C23.068 32.2873 21.0652 32.5131 19.0666 32.404C17.0554 32.2726 15.0912 31.7372 13.2915 30.8298C11.5125 29.8902 9.9147 28.6417 8.57288 27.1425C7.23555 25.6567 6.14696 23.9646 5.34918 22.1316Z" fill="#CA6D92"/>
<path d="M8.30145 29.8819C9.00017 30.6886 9.77024 31.4308 10.6023 32.0992C11.4208 32.773 12.3132 33.3515 13.2623 33.8238C14.2133 34.295 15.2342 34.6095 16.2855 34.755L17.0748 34.8385C17.3378 34.8385 17.6009 34.8385 17.8682 34.8385H18.2649L18.6574 34.7759L19.4341 34.6589C18.4027 34.9917 17.3147 35.1124 16.2354 35.0139C15.1542 34.9 14.1013 34.5975 13.1245 34.1203C11.1928 33.1349 9.53564 31.6858 8.30145 29.9027V29.8819Z" fill="#CA6D92"/>
<path d="M20.9499 13.6924C22.6498 13.2328 24.3865 12.9227 26.1404 12.7653C27.9018 12.5872 29.6789 12.6391 31.4269 12.9198C32.307 13.0771 33.1604 13.3583 33.9616 13.755C34.776 14.1418 35.4818 14.7242 36.0161 15.4504C36.5268 16.1946 36.8387 17.0571 36.9223 17.9558C36.9874 18.8372 36.9241 19.7234 36.7343 20.5866C36.9849 18.8703 36.8805 16.987 35.8198 15.6049C34.7592 14.2227 33.0597 13.542 31.3685 13.2497C29.6472 12.9609 27.8967 12.8865 26.1571 13.0284C25.2844 13.0785 24.4116 13.1704 23.5431 13.2873C22.6745 13.4042 21.8101 13.5128 20.9499 13.6924Z" fill="#CA6D92"/>
</g>
<g style="mix-blend-mode:soft-light">
<path d="M5.09027 22.3529C5.52865 23.2462 6.04129 24.1011 6.62278 24.9085C7.1891 25.7203 7.81437 26.4893 8.49353 27.2094C9.83568 28.6623 11.4195 29.8717 13.1746 30.7838C14.9349 31.6839 16.8541 32.2315 18.8244 32.3957C20.8052 32.5373 22.7961 32.3867 24.7331 31.9489C22.8045 32.5073 20.7962 32.7401 18.791 32.6379C16.7798 32.5065 14.8156 31.9711 13.0159 31.0636C11.2358 30.1239 9.63781 28.8738 8.29727 27.3722C6.96334 25.884 5.88021 24.1888 5.09027 22.3529Z" fill="#FFF9C7"/>
<path d="M8.04254 30.1157C8.74235 30.9215 9.51232 31.6635 10.3434 32.333C11.1622 33.004 12.0546 33.5798 13.0034 34.0493C13.9474 34.5212 14.9611 34.8384 16.0058 34.9888L16.795 35.0724C17.0581 35.0724 17.3211 35.0724 17.5884 35.0724H18.006L18.3985 35.0097L19.1961 34.8928C18.1647 35.2255 17.0766 35.3463 15.9974 35.2477C14.9162 35.1338 13.8633 34.8314 12.8864 34.3541C11.9215 33.8612 11.0211 33.2511 10.2056 32.5377C9.38515 31.825 8.65834 31.0112 8.04254 30.1157Z" fill="#FFF9C7"/>
<path d="M20.691 13.9262C22.3936 13.4662 24.1332 13.156 25.8898 12.9992C27.6498 12.8188 29.4258 12.8708 31.1722 13.1537C32.0538 13.3104 32.9086 13.5916 33.7111 13.9888C34.5264 14.3778 35.2324 14.9633 35.7655 15.6926C36.2762 16.4368 36.5881 17.2993 36.6717 18.198C36.7372 19.0794 36.6739 19.9656 36.4838 20.8288C36.7343 19.1167 36.6299 17.2334 35.5693 15.8512C34.5086 14.4691 32.8091 13.7633 31.1179 13.4961C29.3927 13.1926 27.6363 13.107 25.8898 13.2414C25.0171 13.2915 24.1444 13.3834 23.2758 13.5003C22.4072 13.6172 21.5512 13.7466 20.691 13.9262Z" fill="#FFF9C7"/>
</g>
<g style="mix-blend-mode:soft-light" opacity="0.8">
<path d="M4.48062 33.8864C4.48062 33.8864 10.8946 41.0604 21 41.0604C31.1054 41.0604 37.5194 33.8864 37.5194 33.8864C37.5194 33.8864 31.7025 42 21 42C10.2975 42 4.48062 33.8864 4.48062 33.8864Z" fill="white"/>
</g>
<path d="M21 3.11093C17.4619 3.11093 14.0032 4.16011 11.0614 6.12578C8.11955 8.09145 5.82667 10.8853 4.47269 14.1541C3.11871 17.4229 2.76445 21.0198 3.4547 24.49C4.14496 27.9601 5.84872 31.1476 8.35055 33.6494C10.8524 36.1513 14.0399 37.855 17.51 38.5453C20.9802 39.2355 24.5771 38.8813 27.8459 37.5273C31.1147 36.1733 33.9085 33.8804 35.8742 30.9386C37.8399 27.9968 38.8891 24.5381 38.8891 21C38.8891 16.2555 37.0043 11.7054 33.6495 8.35051C30.2946 4.99566 25.7445 3.11093 21 3.11093ZM21 37.9996C17.6366 38.0004 14.3485 37.0037 11.5517 35.1357C8.75475 33.2676 6.57469 30.612 5.28719 27.5048C3.9997 24.3976 3.66262 20.9783 4.31858 17.6796C4.97454 14.3808 6.59408 11.3506 8.97235 8.97231C11.3506 6.59404 14.3808 4.9745 17.6796 4.31854C20.9784 3.66258 24.3976 3.99966 27.5048 5.28716C30.612 6.57465 33.2676 8.75471 35.1357 11.5516C37.0038 14.3485 38.0004 17.6366 37.9996 21C37.9985 25.5082 36.2071 29.8315 33.0193 33.0193C29.8315 36.2071 25.5082 37.9985 21 37.9996Z" fill="url(#paint1_linear_1297_1924)"/>
<path d="M19.712 24.488C19.584 24.488 19.472 24.448 19.376 24.368C19.28 24.272 19.232 24.152 19.232 24.008C19.232 23.88 19.232 23.752 19.232 23.624C19.232 23.496 19.232 23.368 19.232 23.24C19.296 22.616 19.464 22.064 19.736 21.584C20.024 21.088 20.352 20.64 20.72 20.24C21.104 19.824 21.48 19.432 21.848 19.064C22.232 18.696 22.552 18.336 22.808 17.984C23.08 17.616 23.24 17.24 23.288 16.856C23.336 16.392 23.24 16 23 15.68C22.776 15.36 22.464 15.12 22.064 14.96C21.68 14.784 21.272 14.696 20.84 14.696C20.088 14.696 19.472 14.88 18.992 15.248C18.512 15.616 18.184 16.208 18.008 17.024C17.96 17.216 17.88 17.36 17.768 17.456C17.656 17.536 17.504 17.576 17.312 17.576H15.272C15.128 17.576 15 17.528 14.888 17.432C14.792 17.32 14.744 17.176 14.744 17C14.76 16.36 14.904 15.744 15.176 15.152C15.464 14.544 15.872 14 16.4 13.52C16.944 13.04 17.6 12.664 18.368 12.392C19.136 12.104 20.016 11.96 21.008 11.96C22.096 11.96 23.008 12.104 23.744 12.392C24.496 12.664 25.088 13.024 25.52 13.472C25.968 13.92 26.288 14.408 26.48 14.936C26.672 15.448 26.76 15.952 26.744 16.448C26.712 17.056 26.576 17.6 26.336 18.08C26.096 18.56 25.8 19.008 25.448 19.424C25.096 19.824 24.736 20.224 24.368 20.624C24 21.008 23.672 21.4 23.384 21.8C23.112 22.2 22.928 22.624 22.832 23.072C22.8 23.216 22.776 23.36 22.76 23.504C22.744 23.632 22.728 23.76 22.712 23.888C22.648 24.08 22.568 24.232 22.472 24.344C22.376 24.44 22.24 24.488 22.064 24.488H19.712ZM19.64 29C19.48 29 19.344 28.944 19.232 28.832C19.12 28.72 19.064 28.584 19.064 28.424V26.336C19.064 26.16 19.12 26.016 19.232 25.904C19.344 25.792 19.48 25.736 19.64 25.736H21.968C22.144 25.736 22.288 25.792 22.4 25.904C22.512 26.016 22.568 26.16 22.568 26.336V28.424C22.568 28.584 22.512 28.72 22.4 28.832C22.288 28.944 22.144 29 21.968 29H19.64Z" fill="black" fill-opacity="0.4"/>
<g style="mix-blend-mode:color">
<circle cx="21" cy="21" r="21" fill="#314A82"/>
</g>
</g>
<defs>
<linearGradient id="paint0_linear_1297_1924" x1="21.0013" y1="42.0001" x2="21.0013" y2="0.000121266" gradientUnits="userSpaceOnUse">
<stop stop-color="#2C6618"/>
<stop offset="0.15" stop-color="#36851A"/>
<stop offset="0.19" stop-color="#208D2B"/>
<stop offset="0.32" stop-color="#1AB617"/>
<stop offset="0.46" stop-color="#15BE3B"/>
<stop offset="0.6" stop-color="#0BD037"/>
<stop offset="0.77" stop-color="#47D815"/>
<stop offset="1" stop-color="#00FF0A"/>
</linearGradient>
<linearGradient id="paint1_linear_1297_1924" x1="21" y1="38.889" x2="21" y2="3.11093" gradientUnits="userSpaceOnUse">
<stop stop-color="#FFC200"/>
<stop offset="0.11" stop-color="#FFA200"/>
<stop offset="0.16" stop-color="#ED8C00"/>
<stop offset="0.26" stop-color="#CB6300"/>
<stop offset="0.35" stop-color="#B04200"/>
<stop offset="0.45" stop-color="#9D2B00"/>
<stop offset="0.54" stop-color="#911D00"/>
<stop offset="0.61" stop-color="#8D1800"/>
<stop offset="0.65" stop-color="#952000"/>
<stop offset="0.74" stop-color="#A42E00"/>
<stop offset="0.84" stop-color="#AD3600"/>
<stop offset="1" stop-color="#B03900"/>
</linearGradient>
<clipPath id="clip0_1297_1924">
<rect width="42" height="42" fill="white"/>
</clipPath>
</defs>
</svg>
