<svg width="328" height="91" viewBox="0 0 328 91" fill="none" xmlns="http://www.w3.org/2000/svg">
<path opacity="0.5" d="M159.566 81C159.446 81 159.344 80.958 159.26 80.874C159.176 80.79 159.134 80.682 159.134 80.55V72.09C159.134 71.958 159.176 71.85 159.26 71.766C159.344 71.682 159.446 71.64 159.566 71.64H163.67C165.014 71.64 165.998 71.88 166.622 72.36C167.258 72.828 167.576 73.464 167.576 74.268C167.576 74.748 167.486 75.132 167.306 75.42C167.126 75.696 166.874 75.936 166.55 76.14C166.958 76.332 167.276 76.62 167.504 77.004C167.744 77.376 167.864 77.796 167.864 78.264C167.864 79.116 167.534 79.788 166.874 80.28C166.214 80.76 165.224 81 163.904 81H159.566ZM161.726 79.236H163.742C164.162 79.236 164.498 79.158 164.75 79.002C165.014 78.834 165.146 78.576 165.146 78.228C165.146 77.868 165.026 77.61 164.786 77.454C164.546 77.298 164.198 77.22 163.742 77.22H161.726V79.236ZM161.726 75.384H163.67C164.102 75.384 164.444 75.294 164.696 75.114C164.948 74.934 165.074 74.676 165.074 74.34C165.074 73.992 164.948 73.752 164.696 73.62C164.444 73.476 164.102 73.404 163.67 73.404H161.726V75.384ZM173.998 81.18C172.618 81.18 171.52 80.796 170.704 80.028C169.9 79.26 169.474 78.144 169.426 76.68C169.426 76.584 169.426 76.458 169.426 76.302C169.426 76.134 169.426 76.002 169.426 75.906C169.474 74.982 169.684 74.19 170.056 73.53C170.428 72.858 170.95 72.348 171.622 72C172.294 71.64 173.08 71.46 173.979 71.46C174.988 71.46 175.828 71.67 176.5 72.09C177.184 72.498 177.694 73.062 178.03 73.782C178.378 74.49 178.552 75.306 178.552 76.23V76.644C178.552 76.764 178.504 76.866 178.408 76.95C178.324 77.034 178.222 77.076 178.102 77.076H172.216C172.216 77.088 172.216 77.112 172.216 77.148C172.216 77.172 172.216 77.196 172.216 77.22C172.228 77.604 172.3 77.958 172.432 78.282C172.576 78.594 172.774 78.846 173.026 79.038C173.29 79.23 173.602 79.326 173.962 79.326C174.262 79.326 174.508 79.284 174.7 79.2C174.892 79.116 175.048 79.014 175.168 78.894C175.3 78.774 175.396 78.672 175.456 78.588C175.564 78.468 175.648 78.396 175.708 78.372C175.78 78.336 175.888 78.318 176.032 78.318H177.904C178.024 78.318 178.12 78.354 178.191 78.426C178.276 78.486 178.312 78.576 178.3 78.696C178.288 78.888 178.186 79.128 177.994 79.416C177.814 79.692 177.544 79.968 177.184 80.244C176.824 80.508 176.374 80.73 175.834 80.91C175.306 81.09 174.694 81.18 173.998 81.18ZM172.216 75.438H175.744V75.402C175.744 74.97 175.672 74.598 175.528 74.286C175.396 73.962 175.198 73.71 174.934 73.53C174.67 73.35 174.352 73.26 173.979 73.26C173.608 73.26 173.29 73.35 173.026 73.53C172.762 73.71 172.558 73.962 172.414 74.286C172.282 74.598 172.216 74.97 172.216 75.402V75.438ZM180.801 84.42C180.669 84.42 180.561 84.378 180.477 84.294C180.393 84.21 180.351 84.102 180.351 83.97V72.09C180.351 71.958 180.393 71.85 180.477 71.766C180.561 71.682 180.669 71.64 180.801 71.64H182.511C182.643 71.64 182.751 71.682 182.835 71.766C182.919 71.85 182.961 71.958 182.961 72.09V72.774C183.249 72.39 183.621 72.078 184.077 71.838C184.533 71.586 185.103 71.46 185.787 71.46C186.411 71.46 186.951 71.562 187.407 71.766C187.875 71.958 188.265 72.24 188.577 72.612C188.901 72.972 189.147 73.41 189.315 73.926C189.495 74.442 189.597 75.024 189.621 75.672C189.633 75.9 189.639 76.116 189.639 76.32C189.639 76.524 189.633 76.746 189.621 76.986C189.609 77.598 189.513 78.162 189.333 78.678C189.165 79.194 188.919 79.638 188.595 80.01C188.271 80.382 187.875 80.67 187.407 80.874C186.951 81.078 186.411 81.18 185.787 81.18C185.175 81.18 184.641 81.072 184.185 80.856C183.741 80.628 183.375 80.322 183.087 79.938V83.97C183.087 84.102 183.045 84.21 182.961 84.294C182.877 84.378 182.775 84.42 182.655 84.42H180.801ZM184.977 79.02C185.433 79.02 185.793 78.924 186.057 78.732C186.321 78.528 186.507 78.264 186.615 77.94C186.735 77.616 186.807 77.262 186.831 76.878C186.855 76.506 186.855 76.134 186.831 75.762C186.807 75.378 186.735 75.024 186.615 74.7C186.507 74.376 186.321 74.118 186.057 73.926C185.793 73.722 185.433 73.62 184.977 73.62C184.533 73.62 184.173 73.722 183.897 73.926C183.621 74.13 183.423 74.388 183.303 74.7C183.183 75.012 183.111 75.348 183.087 75.708C183.075 75.924 183.069 76.146 183.069 76.374C183.069 76.602 183.075 76.83 183.087 77.058C183.099 77.394 183.171 77.712 183.303 78.012C183.447 78.3 183.651 78.54 183.915 78.732C184.191 78.924 184.545 79.02 184.977 79.02ZM195.832 81.18C194.836 81.18 194.002 81.018 193.33 80.694C192.658 80.358 192.142 79.884 191.782 79.272C191.434 78.66 191.242 77.946 191.206 77.13C191.194 76.89 191.188 76.62 191.188 76.32C191.188 76.008 191.194 75.738 191.206 75.51C191.242 74.682 191.446 73.968 191.818 73.368C192.19 72.756 192.712 72.288 193.384 71.964C194.056 71.628 194.872 71.46 195.832 71.46C196.78 71.46 197.59 71.628 198.262 71.964C198.934 72.288 199.456 72.756 199.828 73.368C200.2 73.968 200.404 74.682 200.44 75.51C200.464 75.738 200.476 76.008 200.476 76.32C200.476 76.62 200.464 76.89 200.44 77.13C200.404 77.946 200.206 78.66 199.846 79.272C199.498 79.884 198.988 80.358 198.316 80.694C197.644 81.018 196.816 81.18 195.832 81.18ZM195.832 79.2C196.42 79.2 196.864 79.02 197.164 78.66C197.464 78.288 197.626 77.748 197.65 77.04C197.662 76.86 197.668 76.62 197.668 76.32C197.668 76.02 197.662 75.78 197.65 75.6C197.626 74.904 197.464 74.37 197.164 73.998C196.864 73.626 196.42 73.44 195.832 73.44C195.244 73.44 194.794 73.626 194.482 73.998C194.182 74.37 194.02 74.904 193.996 75.6C193.984 75.78 193.978 76.02 193.978 76.32C193.978 76.62 193.984 76.86 193.996 77.04C194.02 77.748 194.182 78.288 194.482 78.66C194.794 79.02 195.244 79.2 195.832 79.2ZM208.335 81C208.203 81 208.095 80.958 208.011 80.874C207.927 80.79 207.885 80.682 207.885 80.55V77.904H206.247V77.814C204.999 77.814 204.057 77.538 203.421 76.986C202.785 76.422 202.467 75.672 202.467 74.736C202.467 73.716 202.791 72.948 203.439 72.432C204.099 71.904 205.029 71.64 206.229 71.64H210.189C210.321 71.64 210.429 71.682 210.513 71.766C210.597 71.85 210.639 71.958 210.639 72.09V80.55C210.639 80.682 210.597 80.79 210.513 80.874C210.429 80.958 210.321 81 210.189 81H208.335ZM202.539 81C202.431 81 202.341 80.964 202.269 80.892C202.197 80.82 202.161 80.736 202.161 80.64C202.161 80.604 202.167 80.562 202.179 80.514C202.203 80.466 202.233 80.418 202.269 80.37L204.231 77.202L206.643 77.58L204.807 80.73C204.759 80.802 204.693 80.868 204.609 80.928C204.537 80.976 204.453 81 204.357 81H202.539ZM206.247 76.014H207.939V73.53H206.337C205.845 73.53 205.479 73.62 205.239 73.8C204.999 73.98 204.879 74.292 204.879 74.736C204.879 75.108 204.987 75.414 205.203 75.654C205.431 75.894 205.779 76.014 206.247 76.014ZM215.802 81C215.67 81 215.562 80.958 215.478 80.874C215.394 80.79 215.352 80.682 215.352 80.55V73.764H212.526C212.394 73.764 212.286 73.722 212.202 73.638C212.118 73.554 212.076 73.446 212.076 73.314V72.09C212.076 71.958 212.118 71.85 212.202 71.766C212.286 71.682 212.394 71.64 212.526 71.64H220.824C220.956 71.64 221.064 71.682 221.148 71.766C221.232 71.85 221.274 71.958 221.274 72.09V73.314C221.274 73.446 221.232 73.554 221.148 73.638C221.064 73.722 220.956 73.764 220.824 73.764H217.998V80.55C217.998 80.682 217.956 80.79 217.872 80.874C217.788 80.958 217.686 81 217.566 81H215.802ZM223.093 81C222.973 81 222.871 80.958 222.787 80.874C222.703 80.79 222.661 80.682 222.661 80.55V72.09C222.661 71.958 222.703 71.85 222.787 71.766C222.871 71.682 222.973 71.64 223.093 71.64H224.893C225.025 71.64 225.133 71.682 225.217 71.766C225.301 71.85 225.343 71.958 225.343 72.09V75.186H228.997V72.09C228.997 71.958 229.039 71.85 229.123 71.766C229.207 71.682 229.315 71.64 229.447 71.64H231.247C231.367 71.64 231.469 71.682 231.553 71.766C231.637 71.85 231.679 71.958 231.679 72.09V80.55C231.679 80.682 231.637 80.79 231.553 80.874C231.469 80.958 231.367 81 231.247 81H229.447C229.315 81 229.207 80.958 229.123 80.874C229.039 80.79 228.997 80.682 228.997 80.55V77.31H225.343V80.55C225.343 80.682 225.301 80.79 225.217 80.874C225.133 80.958 225.025 81 224.893 81H223.093ZM238.283 81.18C237.287 81.18 236.453 81.018 235.781 80.694C235.109 80.358 234.593 79.884 234.233 79.272C233.885 78.66 233.693 77.946 233.657 77.13C233.645 76.89 233.639 76.62 233.639 76.32C233.639 76.008 233.645 75.738 233.657 75.51C233.693 74.682 233.897 73.968 234.269 73.368C234.641 72.756 235.163 72.288 235.835 71.964C236.507 71.628 237.323 71.46 238.283 71.46C239.231 71.46 240.041 71.628 240.713 71.964C241.385 72.288 241.907 72.756 242.279 73.368C242.651 73.968 242.855 74.682 242.891 75.51C242.915 75.738 242.927 76.008 242.927 76.32C242.927 76.62 242.915 76.89 242.891 77.13C242.855 77.946 242.657 78.66 242.297 79.272C241.949 79.884 241.439 80.358 240.767 80.694C240.095 81.018 239.267 81.18 238.283 81.18ZM238.283 79.2C238.871 79.2 239.315 79.02 239.615 78.66C239.915 78.288 240.077 77.748 240.101 77.04C240.113 76.86 240.119 76.62 240.119 76.32C240.119 76.02 240.113 75.78 240.101 75.6C240.077 74.904 239.915 74.37 239.615 73.998C239.315 73.626 238.871 73.44 238.283 73.44C237.695 73.44 237.245 73.626 236.933 73.998C236.633 74.37 236.471 74.904 236.447 75.6C236.435 75.78 236.429 76.02 236.429 76.32C236.429 76.62 236.435 76.86 236.447 77.04C236.471 77.748 236.633 78.288 236.933 78.66C237.245 79.02 237.695 79.2 238.283 79.2ZM248.968 81.18C248.092 81.18 247.318 81.018 246.646 80.694C245.986 80.37 245.464 79.902 245.08 79.29C244.696 78.666 244.486 77.922 244.45 77.058C244.438 76.866 244.432 76.626 244.432 76.338C244.432 76.038 244.438 75.792 244.45 75.6C244.486 74.724 244.69 73.98 245.062 73.368C245.446 72.744 245.974 72.27 246.646 71.946C247.318 71.622 248.092 71.46 248.968 71.46C249.772 71.46 250.456 71.574 251.02 71.802C251.584 72.018 252.046 72.294 252.406 72.63C252.766 72.966 253.03 73.32 253.198 73.692C253.378 74.052 253.474 74.37 253.486 74.646C253.498 74.766 253.456 74.874 253.36 74.97C253.276 75.054 253.174 75.096 253.054 75.096H251.128C251.008 75.096 250.912 75.066 250.84 75.006C250.78 74.934 250.72 74.838 250.66 74.718C250.492 74.298 250.276 73.998 250.012 73.818C249.748 73.638 249.418 73.548 249.022 73.548C248.482 73.548 248.056 73.722 247.744 74.07C247.432 74.418 247.264 74.958 247.24 75.69C247.228 76.158 247.228 76.584 247.24 76.968C247.276 77.712 247.444 78.252 247.744 78.588C248.056 78.924 248.482 79.092 249.022 79.092C249.442 79.092 249.778 79.002 250.03 78.822C250.282 78.642 250.492 78.342 250.66 77.922C250.708 77.802 250.768 77.712 250.84 77.652C250.912 77.58 251.008 77.544 251.128 77.544H253.054C253.174 77.544 253.276 77.592 253.36 77.688C253.456 77.772 253.498 77.874 253.486 77.994C253.474 78.198 253.414 78.438 253.306 78.714C253.21 78.99 253.048 79.272 252.82 79.56C252.604 79.848 252.322 80.118 251.974 80.37C251.626 80.61 251.2 80.808 250.696 80.964C250.204 81.108 249.628 81.18 248.968 81.18ZM258.095 81C257.963 81 257.855 80.958 257.771 80.874C257.687 80.79 257.645 80.682 257.645 80.55V73.764H254.819C254.687 73.764 254.579 73.722 254.495 73.638C254.411 73.554 254.369 73.446 254.369 73.314V72.09C254.369 71.958 254.411 71.85 254.495 71.766C254.579 71.682 254.687 71.64 254.819 71.64H263.117C263.249 71.64 263.357 71.682 263.441 71.766C263.525 71.85 263.567 71.958 263.567 72.09V73.314C263.567 73.446 263.525 73.554 263.441 73.638C263.357 73.722 263.249 73.764 263.117 73.764H260.291V80.55C260.291 80.682 260.249 80.79 260.165 80.874C260.081 80.958 259.979 81 259.859 81H258.095ZM265.386 81C265.266 81 265.164 80.958 265.08 80.874C264.996 80.79 264.954 80.682 264.954 80.55V72.09C264.954 71.958 264.996 71.85 265.08 71.766C265.164 71.682 265.266 71.64 265.386 71.64H267.204C267.324 71.64 267.426 71.682 267.51 71.766C267.594 71.85 267.636 71.958 267.636 72.09V74.556H269.436C270.648 74.556 271.572 74.85 272.208 75.438C272.844 76.014 273.162 76.806 273.162 77.814C273.162 78.87 272.826 79.668 272.154 80.208C271.482 80.736 270.528 81 269.292 81H265.386ZM267.6 79.11H269.202C269.73 79.11 270.114 79.014 270.354 78.822C270.606 78.618 270.732 78.282 270.732 77.814C270.732 77.358 270.612 77.016 270.372 76.788C270.132 76.56 269.742 76.446 269.202 76.446H267.6V79.11ZM279.096 76.752C278.976 76.752 278.874 76.71 278.79 76.626C278.706 76.542 278.664 76.44 278.664 76.32V74.88C278.664 74.76 278.706 74.658 278.79 74.574C278.874 74.49 278.976 74.448 279.096 74.448H284.694C284.814 74.448 284.916 74.49 285 74.574C285.084 74.658 285.126 74.76 285.126 74.88V76.32C285.126 76.44 285.084 76.542 285 76.626C284.916 76.71 284.814 76.752 284.694 76.752H279.096ZM291.394 81C291.262 81 291.154 80.958 291.07 80.874C290.986 80.79 290.944 80.682 290.944 80.55V79.47C290.944 79.374 290.968 79.248 291.016 79.092C291.076 78.924 291.202 78.762 291.394 78.606L293.77 76.248C294.646 75.576 295.354 75.006 295.894 74.538C296.446 74.07 296.854 73.644 297.118 73.26C297.382 72.876 297.514 72.504 297.514 72.144C297.514 71.676 297.382 71.292 297.118 70.992C296.866 70.68 296.452 70.524 295.876 70.524C295.492 70.524 295.168 70.608 294.904 70.776C294.652 70.932 294.454 71.142 294.31 71.406C294.166 71.67 294.07 71.958 294.022 72.27C293.986 72.426 293.908 72.534 293.788 72.594C293.68 72.654 293.566 72.684 293.446 72.684H291.538C291.418 72.684 291.322 72.648 291.25 72.576C291.178 72.492 291.142 72.402 291.142 72.306C291.154 71.754 291.268 71.232 291.484 70.74C291.712 70.248 292.03 69.81 292.438 69.426C292.846 69.042 293.338 68.742 293.914 68.526C294.49 68.298 295.144 68.184 295.876 68.184C296.884 68.184 297.73 68.352 298.414 68.688C299.098 69.012 299.614 69.462 299.962 70.038C300.31 70.614 300.484 71.28 300.484 72.036C300.484 72.612 300.364 73.146 300.124 73.638C299.896 74.13 299.56 74.604 299.116 75.06C298.672 75.504 298.144 75.966 297.532 76.446L295.408 78.57H300.304C300.436 78.57 300.544 78.612 300.628 78.696C300.712 78.78 300.754 78.888 300.754 79.02V80.55C300.754 80.682 300.712 80.79 300.628 80.874C300.544 80.958 300.436 81 300.304 81H291.394ZM307.212 81.198C306.132 81.198 305.226 81.024 304.494 80.676C303.762 80.328 303.204 79.872 302.82 79.308C302.448 78.744 302.25 78.144 302.226 77.508C302.226 77.4 302.262 77.31 302.334 77.238C302.406 77.166 302.496 77.13 302.604 77.13H304.638C304.782 77.13 304.896 77.166 304.98 77.238C305.076 77.298 305.148 77.382 305.196 77.49C305.316 77.814 305.472 78.078 305.664 78.282C305.868 78.486 306.102 78.636 306.366 78.732C306.63 78.828 306.912 78.876 307.212 78.876C307.596 78.876 307.95 78.798 308.274 78.642C308.598 78.474 308.856 78.234 309.048 77.922C309.24 77.61 309.336 77.226 309.336 76.77C309.336 76.374 309.246 76.026 309.066 75.726C308.886 75.426 308.634 75.192 308.31 75.024C307.986 74.856 307.62 74.772 307.212 74.772C306.9 74.772 306.642 74.808 306.438 74.88C306.246 74.952 306.084 75.042 305.952 75.15C305.82 75.246 305.7 75.336 305.592 75.42C305.484 75.492 305.364 75.528 305.232 75.528H303.234C303.126 75.528 303.03 75.492 302.946 75.42C302.874 75.336 302.838 75.24 302.838 75.132L303.468 68.922C303.492 68.754 303.552 68.628 303.648 68.544C303.756 68.448 303.882 68.4 304.026 68.4H311.01C311.142 68.4 311.25 68.442 311.334 68.526C311.418 68.61 311.46 68.718 311.46 68.85V70.29C311.46 70.41 311.418 70.512 311.334 70.596C311.25 70.68 311.142 70.722 311.01 70.722H305.808L305.538 73.368C305.778 73.212 306.072 73.074 306.42 72.954C306.78 72.822 307.278 72.756 307.914 72.756C308.49 72.756 309.036 72.852 309.552 73.044C310.08 73.224 310.548 73.494 310.956 73.854C311.364 74.214 311.682 74.646 311.91 75.15C312.15 75.642 312.27 76.206 312.27 76.842C312.27 77.706 312.066 78.468 311.658 79.128C311.25 79.776 310.668 80.286 309.912 80.658C309.156 81.018 308.256 81.198 307.212 81.198ZM314.949 81C314.685 81 314.553 80.88 314.553 80.64C314.553 80.568 314.577 80.502 314.625 80.442L323.517 68.742C323.601 68.634 323.685 68.55 323.769 68.49C323.853 68.43 323.973 68.4 324.129 68.4H325.245C325.509 68.4 325.641 68.52 325.641 68.76C325.641 68.832 325.617 68.898 325.569 68.958L316.677 80.658C316.593 80.766 316.509 80.85 316.425 80.91C316.353 80.97 316.233 81 316.065 81H314.949ZM323.805 81.09C322.989 81.09 322.341 80.874 321.861 80.442C321.393 80.01 321.135 79.434 321.087 78.714C321.063 78.402 321.051 78.126 321.051 77.886C321.063 77.646 321.075 77.358 321.087 77.022C321.123 76.302 321.369 75.72 321.825 75.276C322.293 74.832 322.953 74.61 323.805 74.61C324.657 74.61 325.311 74.832 325.767 75.276C326.235 75.72 326.487 76.302 326.523 77.022C326.547 77.358 326.559 77.646 326.559 77.886C326.559 78.126 326.547 78.402 326.523 78.714C326.487 79.434 326.223 80.01 325.731 80.442C325.251 80.874 324.609 81.09 323.805 81.09ZM323.805 79.614C324.033 79.614 324.213 79.566 324.345 79.47C324.477 79.374 324.573 79.248 324.633 79.092C324.705 78.936 324.747 78.774 324.759 78.606C324.783 78.33 324.795 78.084 324.795 77.868C324.795 77.64 324.783 77.388 324.759 77.112C324.747 76.86 324.669 76.632 324.525 76.428C324.381 76.224 324.141 76.122 323.805 76.122C323.469 76.122 323.229 76.224 323.085 76.428C322.953 76.632 322.875 76.86 322.851 77.112C322.839 77.388 322.833 77.64 322.833 77.868C322.833 78.084 322.839 78.33 322.851 78.606C322.875 78.774 322.911 78.936 322.959 79.092C323.019 79.248 323.115 79.374 323.247 79.47C323.391 79.566 323.577 79.614 323.805 79.614ZM316.407 74.754C315.591 74.754 314.943 74.544 314.463 74.124C313.995 73.692 313.737 73.116 313.689 72.396C313.665 72.084 313.653 71.814 313.653 71.586C313.665 71.346 313.677 71.058 313.689 70.722C313.725 69.99 313.971 69.408 314.427 68.976C314.895 68.532 315.555 68.31 316.407 68.31C317.271 68.31 317.931 68.532 318.387 68.976C318.843 69.408 319.089 69.99 319.125 70.722C319.149 71.058 319.161 71.346 319.161 71.586C319.161 71.814 319.149 72.084 319.125 72.396C319.089 73.116 318.831 73.692 318.351 74.124C317.871 74.544 317.223 74.754 316.407 74.754ZM316.407 73.296C316.635 73.296 316.815 73.248 316.947 73.152C317.079 73.056 317.175 72.93 317.235 72.774C317.307 72.618 317.349 72.462 317.361 72.306C317.385 72.018 317.397 71.766 317.397 71.55C317.397 71.322 317.385 71.076 317.361 70.812C317.349 70.56 317.271 70.332 317.127 70.128C316.983 69.912 316.743 69.804 316.407 69.804C316.071 69.804 315.831 69.912 315.687 70.128C315.555 70.332 315.477 70.56 315.453 70.812C315.441 71.076 315.435 71.322 315.435 71.55C315.435 71.766 315.441 72.018 315.453 72.306C315.477 72.462 315.519 72.618 315.579 72.774C315.639 72.93 315.735 73.056 315.867 73.152C315.999 73.248 316.179 73.296 316.407 73.296Z" fill="white"/>
<path d="M77.8435 38.75C77.677 38.75 77.5408 38.6975 77.4348 38.5925C77.3289 38.4875 77.2759 38.3525 77.2759 38.1875V23.5625C77.2759 23.3975 77.3289 23.2625 77.4348 23.1575C77.5408 23.0525 77.677 23 77.8435 23H90.4453C90.6118 23 90.748 23.0525 90.854 23.1575C90.96 23.2625 91.0129 23.3975 91.0129 23.5625V38.1875C91.0129 38.3525 90.96 38.4875 90.854 38.5925C90.748 38.6975 90.6118 38.75 90.4453 38.75H87.5162C87.3497 38.75 87.2135 38.6975 87.1075 38.5925C87.0016 38.4875 86.9486 38.3525 86.9486 38.1875V26.6H81.3402V38.1875C81.3402 38.3525 81.2873 38.4875 81.1813 38.5925C81.0753 38.6975 80.9391 38.75 80.7726 38.75H77.8435ZM97.4868 38.975C96.6693 38.975 95.9352 38.825 95.2843 38.525C94.6485 38.21 94.1414 37.79 93.763 37.265C93.3846 36.74 93.1953 36.1475 93.1953 35.4875C93.1953 34.4225 93.6343 33.5825 94.5123 32.9675C95.3903 32.3375 96.5558 31.91 98.009 31.685L100.847 31.2575V30.9425C100.847 30.4025 100.734 29.99 100.507 29.705C100.28 29.42 99.8633 29.2775 99.2578 29.2775C98.834 29.2775 98.4858 29.36 98.2134 29.525C97.956 29.69 97.7517 29.915 97.6003 30.2C97.4641 30.395 97.2748 30.4925 97.0326 30.4925H94.4896C94.3231 30.4925 94.1944 30.4475 94.1036 30.3575C94.0128 30.2525 93.9749 30.1325 93.9901 29.9975C93.9901 29.7275 94.0885 29.42 94.2852 29.075C94.4972 28.715 94.815 28.3625 95.2389 28.0175C95.6627 27.6725 96.2077 27.3875 96.8737 27.1625C97.5397 26.9375 98.342 26.825 99.2805 26.825C100.264 26.825 101.105 26.9375 101.801 27.1625C102.497 27.3875 103.057 27.7025 103.481 28.1075C103.92 28.5125 104.246 28.9925 104.457 29.5475C104.669 30.0875 104.775 30.6875 104.775 31.3475V38.1875C104.775 38.3525 104.715 38.4875 104.594 38.5925C104.488 38.6975 104.359 38.75 104.208 38.75H101.574C101.407 38.75 101.271 38.6975 101.165 38.5925C101.059 38.4875 101.006 38.3525 101.006 38.1875V37.4C100.809 37.685 100.544 37.9475 100.211 38.1875C99.8785 38.4275 99.4849 38.615 99.0308 38.75C98.5918 38.9 98.0771 38.975 97.4868 38.975ZM98.5539 36.41C98.9929 36.41 99.3865 36.32 99.7347 36.14C100.098 35.945 100.378 35.6525 100.575 35.2625C100.787 34.8575 100.893 34.355 100.893 33.755V33.44L98.9627 33.7775C98.2512 33.8975 97.729 34.085 97.3959 34.34C97.0781 34.58 96.9191 34.865 96.9191 35.195C96.9191 35.45 96.9948 35.6675 97.1462 35.8475C97.2975 36.0275 97.4943 36.17 97.7365 36.275C97.9787 36.365 98.2512 36.41 98.5539 36.41ZM112.764 38.975C111.644 38.975 110.653 38.7725 109.79 38.3675C108.927 37.9625 108.238 37.3775 107.724 36.6125C107.224 35.8325 106.952 34.9025 106.906 33.8225C106.891 33.5825 106.883 33.2825 106.883 32.9225C106.883 32.5475 106.891 32.24 106.906 32C106.952 30.905 107.224 29.975 107.724 29.21C108.223 28.43 108.904 27.8375 109.767 27.4325C110.645 27.0275 111.644 26.825 112.764 26.825C113.809 26.825 114.702 26.975 115.444 27.275C116.185 27.56 116.791 27.92 117.26 28.355C117.729 28.79 118.077 29.24 118.305 29.705C118.547 30.155 118.675 30.5525 118.691 30.8975C118.706 31.0475 118.653 31.1825 118.532 31.3025C118.41 31.4075 118.274 31.46 118.123 31.46H115.239C115.073 31.46 114.944 31.4225 114.853 31.3475C114.762 31.2725 114.679 31.16 114.603 31.01C114.422 30.545 114.187 30.215 113.9 30.02C113.627 29.825 113.271 29.7275 112.832 29.7275C112.227 29.7275 111.758 29.9225 111.425 30.3125C111.107 30.7025 110.933 31.3025 110.902 32.1125C110.887 32.7125 110.887 33.245 110.902 33.71C110.933 34.535 111.107 35.135 111.425 35.51C111.758 35.885 112.227 36.0725 112.832 36.0725C113.302 36.0725 113.673 35.975 113.945 35.78C114.217 35.585 114.437 35.255 114.603 34.79C114.679 34.64 114.762 34.5275 114.853 34.4525C114.944 34.3775 115.073 34.34 115.239 34.34H118.123C118.274 34.34 118.41 34.4 118.532 34.52C118.653 34.625 118.706 34.7525 118.691 34.9025C118.675 35.1575 118.6 35.4575 118.463 35.8025C118.327 36.1325 118.115 36.485 117.828 36.86C117.54 37.235 117.162 37.5875 116.692 37.9175C116.238 38.2325 115.686 38.4875 115.035 38.6825C114.384 38.8775 113.627 38.975 112.764 38.975ZM121.185 38.75C121.064 38.75 120.958 38.705 120.867 38.615C120.776 38.525 120.731 38.4125 120.731 38.2775V27.5C120.731 27.38 120.776 27.275 120.867 27.185C120.958 27.095 121.064 27.05 121.185 27.05H123.796C124.068 27.05 124.288 27.185 124.454 27.455L127.542 32.9225L130.652 27.455C130.819 27.185 131.038 27.05 131.311 27.05H133.922C134.058 27.05 134.172 27.095 134.263 27.185C134.353 27.275 134.399 27.38 134.399 27.5V38.2775C134.399 38.4125 134.353 38.525 134.263 38.615C134.172 38.705 134.058 38.75 133.922 38.75H131.106C130.97 38.75 130.857 38.705 130.766 38.615C130.675 38.525 130.63 38.4125 130.63 38.2775V30.9425L131.742 31.19L128.677 36.5C128.601 36.635 128.51 36.755 128.404 36.86C128.314 36.95 128.177 36.995 127.996 36.995H127.088C126.936 36.995 126.808 36.95 126.702 36.86C126.596 36.77 126.497 36.65 126.406 36.5L123.433 31.325L124.477 31.1V38.2775C124.477 38.4125 124.432 38.525 124.341 38.615C124.25 38.705 124.136 38.75 124 38.75H121.185ZM138.297 43.0475C138.13 43.0475 137.986 42.9875 137.865 42.8675C137.759 42.7625 137.706 42.635 137.706 42.485V40.6625C137.706 40.4975 137.759 40.3625 137.865 40.2575C137.986 40.1525 138.13 40.1 138.297 40.1H139.069C139.356 40.1 139.591 40.0475 139.773 39.9425C139.954 39.8375 140.113 39.665 140.249 39.425C140.401 39.2 140.56 38.885 140.726 38.48L145.267 27.5225C145.313 27.3875 145.388 27.275 145.494 27.185C145.6 27.095 145.752 27.05 145.949 27.05H148.378C148.514 27.05 148.628 27.1025 148.719 27.2075C148.825 27.2975 148.878 27.4025 148.878 27.5225C148.878 27.5525 148.87 27.5975 148.855 27.6575C148.855 27.7025 148.84 27.755 148.81 27.815L144.495 38.12C144.193 38.855 143.875 39.5225 143.542 40.1225C143.224 40.7225 142.876 41.24 142.497 41.675C142.119 42.125 141.672 42.4625 141.158 42.6875C140.658 42.9275 140.075 43.0475 139.409 43.0475H138.297ZM140.976 38.5025L136.321 27.815C136.276 27.71 136.253 27.62 136.253 27.545C136.283 27.41 136.344 27.2975 136.435 27.2075C136.526 27.1025 136.647 27.05 136.798 27.05H139.341C139.538 27.05 139.682 27.1025 139.773 27.2075C139.879 27.2975 139.954 27.4025 140 27.5225L143.247 35.7575L140.976 38.5025ZM151.189 43.025C151.022 43.025 150.886 42.9725 150.78 42.8675C150.674 42.7625 150.621 42.6275 150.621 42.4625V27.6125C150.621 27.4475 150.674 27.3125 150.78 27.2075C150.886 27.1025 151.022 27.05 151.189 27.05H153.754C153.906 27.05 154.034 27.1025 154.14 27.2075C154.261 27.3125 154.322 27.4475 154.322 27.6125V28.445C154.67 27.98 155.132 27.5975 155.707 27.2975C156.282 26.9825 156.994 26.825 157.841 26.825C158.598 26.825 159.264 26.945 159.84 27.185C160.415 27.41 160.907 27.7475 161.315 28.1975C161.724 28.6475 162.042 29.195 162.269 29.84C162.511 30.485 162.647 31.2275 162.678 32.0675C162.693 32.3675 162.7 32.645 162.7 32.9C162.7 33.155 162.693 33.4325 162.678 33.7325C162.647 34.5425 162.519 35.27 162.292 35.915C162.065 36.56 161.747 37.1075 161.338 37.5575C160.929 38.0075 160.43 38.36 159.84 38.615C159.264 38.855 158.598 38.975 157.841 38.975C157.1 38.975 156.449 38.8475 155.889 38.5925C155.344 38.3225 154.89 37.9475 154.526 37.4675V42.4625C154.526 42.6275 154.473 42.7625 154.367 42.8675C154.261 42.9725 154.125 43.025 153.959 43.025H151.189ZM156.615 35.96C157.13 35.96 157.531 35.855 157.819 35.645C158.106 35.435 158.311 35.15 158.432 34.79C158.568 34.43 158.651 34.0325 158.682 33.5975C158.712 33.1325 158.712 32.6675 158.682 32.2025C158.651 31.7675 158.568 31.37 158.432 31.01C158.311 30.65 158.106 30.365 157.819 30.155C157.531 29.945 157.13 29.84 156.615 29.84C156.116 29.84 155.715 29.9525 155.412 30.1775C155.109 30.3875 154.89 30.665 154.753 31.01C154.617 31.355 154.541 31.73 154.526 32.135C154.511 32.42 154.504 32.6975 154.504 32.9675C154.504 33.2375 154.511 33.5225 154.526 33.8225C154.541 34.1975 154.625 34.55 154.776 34.88C154.927 35.195 155.155 35.4575 155.457 35.6675C155.76 35.8625 156.146 35.96 156.615 35.96ZM165.512 38.75C165.346 38.75 165.209 38.6975 165.103 38.5925C164.998 38.4875 164.945 38.3525 164.945 38.1875V27.6125C164.945 27.4475 164.998 27.3125 165.103 27.2075C165.209 27.1025 165.346 27.05 165.512 27.05H168.191C168.343 27.05 168.472 27.1025 168.578 27.2075C168.699 27.3125 168.759 27.4475 168.759 27.6125V31.3475H172.846V27.6125C172.846 27.4475 172.899 27.3125 173.005 27.2075C173.111 27.1025 173.247 27.05 173.414 27.05H176.093C176.245 27.05 176.373 27.1025 176.479 27.2075C176.6 27.3125 176.661 27.4475 176.661 27.6125V38.1875C176.661 38.3525 176.6 38.4875 176.479 38.5925C176.373 38.6975 176.245 38.75 176.093 38.75H173.414C173.247 38.75 173.111 38.6975 173.005 38.5925C172.899 38.4875 172.846 38.3525 172.846 38.1875V34.295H168.759V38.1875C168.759 38.3525 168.699 38.4875 168.578 38.5925C168.472 38.6975 168.343 38.75 168.191 38.75H165.512ZM185.01 38.975C183.739 38.975 182.664 38.7725 181.786 38.3675C180.923 37.9625 180.257 37.385 179.788 36.635C179.334 35.87 179.076 34.9625 179.016 33.9125C179.001 33.6125 178.993 33.275 178.993 32.9C178.993 32.51 179.001 32.1725 179.016 31.8875C179.076 30.8225 179.349 29.915 179.833 29.165C180.318 28.415 180.991 27.8375 181.854 27.4325C182.732 27.0275 183.784 26.825 185.01 26.825C186.252 26.825 187.304 27.0275 188.166 27.4325C189.044 27.8375 189.725 28.415 190.21 29.165C190.694 29.915 190.967 30.8225 191.027 31.8875C191.042 32.1725 191.05 32.51 191.05 32.9C191.05 33.275 191.042 33.6125 191.027 33.9125C190.967 34.9625 190.702 35.87 190.233 36.635C189.778 37.385 189.112 37.9625 188.234 38.3675C187.372 38.7725 186.297 38.975 185.01 38.975ZM185.01 36.23C185.691 36.23 186.183 36.0275 186.486 35.6225C186.804 35.2175 186.986 34.61 187.031 33.8C187.046 33.575 187.054 33.275 187.054 32.9C187.054 32.525 187.046 32.225 187.031 32C186.986 31.205 186.804 30.605 186.486 30.2C186.183 29.78 185.691 29.57 185.01 29.57C184.344 29.57 183.852 29.78 183.534 30.2C183.216 30.605 183.042 31.205 183.012 32C182.997 32.225 182.989 32.525 182.989 32.9C182.989 33.275 182.997 33.575 183.012 33.8C183.042 34.61 183.216 35.2175 183.534 35.6225C183.852 36.0275 184.344 36.23 185.01 36.23Z" fill="white"/>
<path d="M30.2747 59.375C46.6465 59.375 59.9184 46.2234 59.9184 30C59.9184 13.7766 46.6465 0.625 30.2747 0.625C13.9028 0.625 0.630859 13.7766 0.630859 30C0.630859 46.2234 13.9028 59.375 30.2747 59.375Z" fill="#67BFFF" fill-opacity="0.26" stroke="#67BFFF"/>
<path d="M25.9679 21.4517C26.4777 21.4517 26.9706 21.518 27.4386 21.634C27.2883 21.0046 27.2046 20.3421 27.2046 19.6631C27.2046 15.0178 31.0069 11.25 35.6948 11.25C40.1822 11.25 43.859 14.703 44.1599 19.0835C44.7616 18.9261 45.3883 18.8351 46.0401 18.8351C50.0177 18.8351 53.2434 22.0398 53.2434 25.9814C53.2434 29.9229 50.0177 33.1192 46.0401 33.1192H25.9679C22.7172 33.1192 20.085 30.5109 20.085 27.2896C20.085 24.0685 22.7172 21.4517 25.9679 21.4517Z" fill="url(#paint0_linear_1497_1035)"/>
<path d="M25.9684 33.1192C22.7193 33.1192 20.0854 30.5092 20.0854 27.2896C20.0854 24.07 22.7193 21.46 25.9684 21.46C29.2175 21.46 31.8514 24.07 31.8514 27.2896C31.8514 30.5092 29.2175 33.1192 25.9684 33.1192Z" fill="url(#paint1_linear_1497_1035)"/>
<path d="M46.0401 33.1186C42.0619 33.1186 38.8369 29.9229 38.8369 25.9806C38.8369 22.0385 42.0619 18.8428 46.0401 18.8428C50.0184 18.8428 53.2434 22.0385 53.2434 25.9806C53.2434 29.9229 50.0184 33.1186 46.0401 33.1186Z" fill="url(#paint2_linear_1497_1035)"/>
<path d="M27.2051 19.6631C27.2051 20.3421 27.2886 21.0046 27.4389 21.634C29.9459 22.2716 31.801 24.4991 31.8512 27.1655C33.0044 27.7451 34.308 28.0764 35.6952 28.0764C40.3831 28.0764 44.1853 24.3086 44.1853 19.6631C44.1853 15.0178 40.3831 11.25 35.6952 11.25C31.0072 11.25 27.2051 15.0178 27.2051 19.6631Z" fill="url(#paint3_linear_1497_1035)"/>
<path d="M41.6754 29.9505C40.9908 29.9505 40.3287 30.0394 39.7002 30.1951C39.9022 29.35 40.0145 28.4603 40.0145 27.5484C40.0145 21.3099 34.9083 16.25 28.6127 16.25C22.5863 16.25 17.6485 20.8873 17.2445 26.77C16.4366 26.5588 15.5948 26.4364 14.7195 26.4364C9.37769 26.4364 5.0459 30.74 5.0459 36.0334C5.0459 41.3268 9.37769 45.6192 14.7195 45.6192H41.6754C46.0409 45.6192 49.5758 42.1162 49.5758 37.7904C49.5758 33.4645 46.0409 29.9505 41.6754 29.9505Z" fill="url(#paint4_linear_1497_1035)"/>
<path d="M41.6744 45.6186C46.0378 45.6186 49.5748 42.1134 49.5748 37.7897C49.5748 33.4659 46.0378 29.9609 41.6744 29.9609C37.3111 29.9609 33.7739 33.4659 33.7739 37.7897C33.7739 42.1134 37.3111 45.6186 41.6744 45.6186Z" fill="url(#paint5_linear_1497_1035)"/>
<path d="M14.7195 45.619C20.0621 45.619 24.3931 41.3273 24.3931 36.0331C24.3931 30.739 20.0621 26.4473 14.7195 26.4473C9.37691 26.4473 5.0459 30.739 5.0459 36.0331C5.0459 41.3273 9.37691 45.619 14.7195 45.619Z" fill="url(#paint6_linear_1497_1035)"/>
<path d="M40.0136 27.5484C40.0136 28.4604 39.9013 29.35 39.6994 30.1951C36.3327 31.0514 33.8414 34.0427 33.774 37.6236C32.2254 38.402 30.4747 38.8469 28.6118 38.8469C22.3161 38.8469 17.21 33.787 17.21 27.5484C17.21 21.3099 22.3161 16.25 28.6118 16.25C34.9074 16.25 40.0136 21.3099 40.0136 27.5484Z" fill="url(#paint7_linear_1497_1035)"/>
<rect x="76" y="59" width="69" height="32" rx="16" fill="#7DC9FF" fill-opacity="0.24"/>
<rect x="76.5" y="59.5" width="68" height="31" rx="15.5" stroke="#7DC9FF" stroke-opacity="0.37"/>
<path d="M82.76 82C82.64 82 82.5333 81.96 82.44 81.88C82.36 81.7867 82.32 81.68 82.32 81.56C82.32 81.52 82.3267 81.4733 82.34 81.42C82.3533 81.3533 82.38 81.2933 82.42 81.24L85.76 76.66L82.72 72.36C82.68 72.3067 82.6467 72.2533 82.62 72.2C82.6067 72.1467 82.6 72.0933 82.6 72.04C82.6 71.92 82.6467 71.82 82.74 71.74C82.8333 71.6467 82.94 71.6 83.06 71.6H85.5C85.6733 71.6 85.8 71.64 85.88 71.72C85.9733 71.8 86.04 71.8733 86.08 71.94L87.94 74.52L89.78 71.96C89.8333 71.8933 89.9 71.82 89.98 71.74C90.0733 71.6467 90.2067 71.6 90.38 71.6H92.72C92.84 71.6 92.94 71.6467 93.02 71.74C93.1133 71.82 93.16 71.92 93.16 72.04C93.16 72.0933 93.1533 72.1467 93.14 72.2C93.1267 72.2533 93.1 72.3067 93.06 72.36L89.94 76.66L93.32 81.24C93.3733 81.2933 93.4067 81.3467 93.42 81.4C93.4333 81.4533 93.44 81.5067 93.44 81.56C93.44 81.68 93.3933 81.7867 93.3 81.88C93.22 81.96 93.1133 82 92.98 82H90.44C90.28 82 90.16 81.9667 90.08 81.9C90 81.82 89.9333 81.7467 89.88 81.68L87.86 78.94L85.82 81.68C85.7667 81.7333 85.7 81.8 85.62 81.88C85.54 81.96 85.4133 82 85.24 82H82.76ZM101.538 82C101.404 82 101.284 81.9533 101.178 81.86C101.084 81.7667 101.038 81.6467 101.038 81.5V79.24H94.8178C94.6845 79.24 94.5645 79.1933 94.4578 79.1C94.3645 79.0067 94.3178 78.8867 94.3178 78.74V76.84C94.3178 76.72 94.3378 76.6133 94.3778 76.52C94.4311 76.4133 94.4845 76.3133 94.5378 76.22L100.358 68.34C100.531 68.1133 100.778 68 101.098 68H103.998C104.144 68 104.264 68.0467 104.358 68.14C104.464 68.2333 104.518 68.3533 104.518 68.5V76.26H106.278C106.438 76.26 106.564 76.3133 106.658 76.42C106.751 76.5133 106.798 76.6267 106.798 76.76V78.74C106.798 78.8867 106.744 79.0067 106.638 79.1C106.544 79.1933 106.431 79.24 106.298 79.24H104.518V81.5C104.518 81.6467 104.464 81.7667 104.358 81.86C104.264 81.9533 104.144 82 103.998 82H101.538ZM97.7578 76.4H101.118V71.68L97.7578 76.4ZM108.834 82C108.687 82 108.567 81.9533 108.474 81.86C108.381 81.7667 108.334 81.6467 108.334 81.5V78.96C108.334 78.8267 108.381 78.7133 108.474 78.62C108.567 78.5133 108.687 78.46 108.834 78.46H111.354C111.501 78.46 111.621 78.5133 111.714 78.62C111.821 78.7133 111.874 78.8267 111.874 78.96V81.5C111.874 81.6467 111.821 81.7667 111.714 81.86C111.621 81.9533 111.501 82 111.354 82H108.834ZM119.338 82.22C118.084 82.22 117.038 82.0267 116.198 81.64C115.358 81.24 114.718 80.7267 114.278 80.1C113.851 79.46 113.624 78.7733 113.597 78.04C113.597 77.92 113.638 77.82 113.718 77.74C113.798 77.66 113.898 77.62 114.018 77.62H116.698C116.871 77.62 117.004 77.66 117.098 77.74C117.204 77.8067 117.284 77.8933 117.338 78C117.458 78.3067 117.611 78.56 117.798 78.76C117.998 78.96 118.224 79.1067 118.478 79.2C118.744 79.2933 119.038 79.34 119.358 79.34C119.731 79.34 120.078 79.26 120.398 79.1C120.718 78.94 120.971 78.7067 121.158 78.4C121.358 78.08 121.458 77.7 121.458 77.26C121.458 76.86 121.364 76.5133 121.178 76.22C121.004 75.9267 120.758 75.6933 120.438 75.52C120.118 75.3467 119.758 75.26 119.358 75.26C119.038 75.26 118.778 75.3 118.578 75.38C118.378 75.4467 118.211 75.5333 118.077 75.64C117.944 75.7467 117.824 75.84 117.718 75.92C117.611 75.9867 117.491 76.02 117.358 76.02H114.738C114.618 76.02 114.511 75.98 114.418 75.9C114.338 75.8067 114.298 75.7 114.298 75.58L115.018 68.6C115.044 68.4 115.118 68.2533 115.238 68.16C115.358 68.0533 115.504 68 115.678 68H123.698C123.844 68 123.964 68.0467 124.058 68.14C124.151 68.2333 124.198 68.3533 124.198 68.5V70.38C124.198 70.5267 124.151 70.6467 124.058 70.74C123.964 70.8333 123.844 70.88 123.698 70.88H117.898L117.638 73.48C117.931 73.28 118.271 73.12 118.658 73C119.058 72.8667 119.598 72.8 120.278 72.8C120.918 72.8 121.524 72.9067 122.098 73.12C122.684 73.3333 123.204 73.64 123.658 74.04C124.124 74.44 124.484 74.92 124.738 75.48C125.004 76.0267 125.138 76.6467 125.138 77.34C125.138 78.2867 124.904 79.1267 124.438 79.86C123.984 80.5933 123.324 81.1733 122.458 81.6C121.591 82.0133 120.551 82.22 119.338 82.22ZM132.267 82.22C131.014 82.22 129.967 82.0267 129.127 81.64C128.287 81.24 127.647 80.7267 127.207 80.1C126.781 79.46 126.554 78.7733 126.527 78.04C126.527 77.92 126.567 77.82 126.647 77.74C126.727 77.66 126.827 77.62 126.947 77.62H129.627C129.801 77.62 129.934 77.66 130.027 77.74C130.134 77.8067 130.214 77.8933 130.267 78C130.387 78.3067 130.541 78.56 130.727 78.76C130.927 78.96 131.154 79.1067 131.407 79.2C131.674 79.2933 131.967 79.34 132.287 79.34C132.661 79.34 133.007 79.26 133.327 79.1C133.647 78.94 133.901 78.7067 134.087 78.4C134.287 78.08 134.387 77.7 134.387 77.26C134.387 76.86 134.294 76.5133 134.107 76.22C133.934 75.9267 133.687 75.6933 133.367 75.52C133.047 75.3467 132.687 75.26 132.287 75.26C131.967 75.26 131.707 75.3 131.507 75.38C131.307 75.4467 131.141 75.5333 131.007 75.64C130.874 75.7467 130.754 75.84 130.647 75.92C130.541 75.9867 130.421 76.02 130.287 76.02H127.667C127.547 76.02 127.441 75.98 127.347 75.9C127.267 75.8067 127.227 75.7 127.227 75.58L127.947 68.6C127.974 68.4 128.047 68.2533 128.167 68.16C128.287 68.0533 128.434 68 128.607 68H136.627C136.774 68 136.894 68.0467 136.987 68.14C137.081 68.2333 137.127 68.3533 137.127 68.5V70.38C137.127 70.5267 137.081 70.6467 136.987 70.74C136.894 70.8333 136.774 70.88 136.627 70.88H130.827L130.567 73.48C130.861 73.28 131.201 73.12 131.587 73C131.987 72.8667 132.527 72.8 133.207 72.8C133.847 72.8 134.454 72.9067 135.027 73.12C135.614 73.3333 136.134 73.64 136.587 74.04C137.054 74.44 137.414 74.92 137.667 75.48C137.934 76.0267 138.067 76.6467 138.067 77.34C138.067 78.2867 137.834 79.1267 137.367 79.86C136.914 80.5933 136.254 81.1733 135.387 81.6C134.521 82.0133 133.481 82.22 132.267 82.22Z" fill="white"/>
<defs>
<linearGradient id="paint0_linear_1497_1035" x1="42.3183" y1="17.221" x2="32.4207" y2="34.3118" gradientUnits="userSpaceOnUse">
<stop stop-color="#EAF6FF"/>
<stop offset="0.265" stop-color="#E5F3FE"/>
<stop offset="0.54" stop-color="#D9EDFE"/>
<stop offset="0.818" stop-color="#C4E3FE"/>
<stop offset="1" stop-color="#B3DAFE"/>
</linearGradient>
<linearGradient id="paint1_linear_1497_1035" x1="25.9007" y1="27.2865" x2="19.7329" y2="27.2865" gradientUnits="userSpaceOnUse">
<stop stop-color="#8AC9FE" stop-opacity="0"/>
<stop offset="0.129" stop-color="#89C8FD" stop-opacity="0.019"/>
<stop offset="0.263" stop-color="#88C6FB" stop-opacity="0.075"/>
<stop offset="0.399" stop-color="#87C4F8" stop-opacity="0.168"/>
<stop offset="0.536" stop-color="#85C0F4" stop-opacity="0.298"/>
<stop offset="0.675" stop-color="#83BBEF" stop-opacity="0.466"/>
<stop offset="0.815" stop-color="#7FB5E9" stop-opacity="0.672"/>
<stop offset="0.953" stop-color="#7CAEE1" stop-opacity="0.911"/>
<stop offset="1" stop-color="#7BACDF"/>
</linearGradient>
<linearGradient id="paint2_linear_1497_1035" x1="44.6654" y1="23.6809" x2="41.4759" y2="18.2424" gradientUnits="userSpaceOnUse">
<stop stop-color="#8AC9FE" stop-opacity="0"/>
<stop offset="0.129" stop-color="#89C8FD" stop-opacity="0.019"/>
<stop offset="0.263" stop-color="#88C6FB" stop-opacity="0.075"/>
<stop offset="0.399" stop-color="#87C4F8" stop-opacity="0.168"/>
<stop offset="0.536" stop-color="#85C0F4" stop-opacity="0.298"/>
<stop offset="0.675" stop-color="#83BBEF" stop-opacity="0.466"/>
<stop offset="0.815" stop-color="#7FB5E9" stop-opacity="0.672"/>
<stop offset="0.953" stop-color="#7CAEE1" stop-opacity="0.911"/>
<stop offset="1" stop-color="#7BACDF"/>
</linearGradient>
<linearGradient id="paint3_linear_1497_1035" x1="32.7003" y1="18.4024" x2="26.6974" y2="15.8222" gradientUnits="userSpaceOnUse">
<stop stop-color="#8AC9FE" stop-opacity="0"/>
<stop offset="0.129" stop-color="#89C8FD" stop-opacity="0.019"/>
<stop offset="0.263" stop-color="#88C6FB" stop-opacity="0.075"/>
<stop offset="0.399" stop-color="#87C4F8" stop-opacity="0.168"/>
<stop offset="0.536" stop-color="#85C0F4" stop-opacity="0.298"/>
<stop offset="0.675" stop-color="#83BBEF" stop-opacity="0.466"/>
<stop offset="0.815" stop-color="#7FB5E9" stop-opacity="0.672"/>
<stop offset="0.953" stop-color="#7CAEE1" stop-opacity="0.911"/>
<stop offset="1" stop-color="#7BACDF"/>
</linearGradient>
<linearGradient id="paint4_linear_1497_1035" x1="19.7177" y1="24.2687" x2="33.0095" y2="47.2207" gradientUnits="userSpaceOnUse">
<stop stop-color="#EAF6FF"/>
<stop offset="0.265" stop-color="#E5F3FE"/>
<stop offset="0.54" stop-color="#D9EDFE"/>
<stop offset="0.818" stop-color="#C4E3FE"/>
<stop offset="1" stop-color="#B3DAFE"/>
</linearGradient>
<linearGradient id="paint5_linear_1497_1035" x1="41.7653" y1="37.7856" x2="50.0484" y2="37.7856" gradientUnits="userSpaceOnUse">
<stop stop-color="#8AC9FE" stop-opacity="0"/>
<stop offset="0.129" stop-color="#89C8FD" stop-opacity="0.019"/>
<stop offset="0.263" stop-color="#88C6FB" stop-opacity="0.075"/>
<stop offset="0.399" stop-color="#87C4F8" stop-opacity="0.168"/>
<stop offset="0.536" stop-color="#85C0F4" stop-opacity="0.298"/>
<stop offset="0.675" stop-color="#83BBEF" stop-opacity="0.466"/>
<stop offset="0.815" stop-color="#7FB5E9" stop-opacity="0.672"/>
<stop offset="0.953" stop-color="#7CAEE1" stop-opacity="0.911"/>
<stop offset="1" stop-color="#7BACDF"/>
</linearGradient>
<linearGradient id="paint6_linear_1497_1035" x1="16.5657" y1="32.9446" x2="20.8492" y2="25.6411" gradientUnits="userSpaceOnUse">
<stop stop-color="#8AC9FE" stop-opacity="0"/>
<stop offset="0.129" stop-color="#89C8FD" stop-opacity="0.019"/>
<stop offset="0.263" stop-color="#88C6FB" stop-opacity="0.075"/>
<stop offset="0.399" stop-color="#87C4F8" stop-opacity="0.168"/>
<stop offset="0.536" stop-color="#85C0F4" stop-opacity="0.298"/>
<stop offset="0.675" stop-color="#83BBEF" stop-opacity="0.466"/>
<stop offset="0.815" stop-color="#7FB5E9" stop-opacity="0.672"/>
<stop offset="0.953" stop-color="#7CAEE1" stop-opacity="0.911"/>
<stop offset="1" stop-color="#7BACDF"/>
</linearGradient>
<linearGradient id="paint7_linear_1497_1035" x1="32.6337" y1="25.8554" x2="40.6954" y2="22.3903" gradientUnits="userSpaceOnUse">
<stop stop-color="#8AC9FE" stop-opacity="0"/>
<stop offset="0.129" stop-color="#89C8FD" stop-opacity="0.019"/>
<stop offset="0.263" stop-color="#88C6FB" stop-opacity="0.075"/>
<stop offset="0.399" stop-color="#87C4F8" stop-opacity="0.168"/>
<stop offset="0.536" stop-color="#85C0F4" stop-opacity="0.298"/>
<stop offset="0.675" stop-color="#83BBEF" stop-opacity="0.466"/>
<stop offset="0.815" stop-color="#7FB5E9" stop-opacity="0.672"/>
<stop offset="0.953" stop-color="#7CAEE1" stop-opacity="0.911"/>
<stop offset="1" stop-color="#7BACDF"/>
</linearGradient>
</defs>
</svg>
