<svg width="100" height="100" viewBox="0 0 100 100" fill="none" xmlns="http://www.w3.org/2000/svg">
<g clip-path="url(#clip0_1255_437)">
<mask id="mask0_1255_437" style="mask-type:luminance" maskUnits="userSpaceOnUse" x="17" y="0" width="486" height="100">
<path d="M503 0H17V100H503V0Z" fill="white"/>
</mask>
<g mask="url(#mask0_1255_437)">
<path d="M81.5975 100.004V86.3519H17V100.004H81.5975ZM198.103 17.8878C188.878 19.1619 182.578 22.9618 179.203 29.2871C175.018 36.7046 174.028 43.9628 176.233 51.0618C180.058 62.4839 187.348 68.3768 198.103 68.7409V86.4202H210.05V68.7409C220.761 68.3315 228.027 62.4383 231.854 51.0618C234.057 43.9628 233.068 36.7046 228.882 29.2871C225.509 22.9618 219.23 19.1619 210.05 17.8878V0.345127H198.103V17.8878ZM198.103 29.7648V57.1369C193.603 56.1357 190.453 52.973 188.653 47.6489C187.438 43.6897 188 39.6626 190.34 35.567C191.825 32.7001 194.413 30.766 198.103 29.7648ZM210.05 29.7648C213.74 30.766 216.35 32.7001 217.88 35.567C220.219 39.6626 220.783 43.6897 219.567 47.6489C217.723 52.973 214.55 56.1357 210.05 57.1369V29.7648ZM144.44 19.7308H132.29V67.3758H157.873C164.308 66.5112 168.358 63.2347 170.023 57.5465L170.158 44.9867C168.853 38.2064 164.69 34.4519 157.67 33.724H144.44V19.7308ZM144.305 44.5772H154.565C159.605 48.1722 159.605 51.9264 154.565 55.8399H144.305V44.5772ZM99.755 30.4475H110.96V67.4441H123.718V18.9799H88.145V51.9491C87.0201 54.8616 84.86 55.9311 81.6651 55.1574V67.3076L89.36 66.4202C93.9501 65.2825 96.7851 62.7341 97.865 58.775C98.9 54.816 99.26 52.4724 98.945 51.7443L99.755 30.4475ZM55.4074 1.57379C51.7175 -0.382976 47.8476 -0.496741 43.7976 1.23249C39.4324 7.10279 30.9275 28.8775 18.2825 66.5568H31.2425L36.2375 54.1335H61.1451L65.6 67.3758H79.1C73.205 45.2142 65.3076 23.2803 55.4074 1.57379ZM48.6576 15.6352L56.96 41.2325H39.95L48.6576 15.6352ZM469.791 19.8673H457.775V66.8979H469.52V47.8536L487.004 66.5568H503L481.333 41.6421L500.841 19.9356H485.585L469.791 37.6148V19.8673ZM419.975 19.8673H407.961V66.8979H419.706V48.5363H437.121V66.8979H448.866V19.8673H436.85V36.9321H436.648H420.178L419.975 19.8673ZM365.841 37.41C360.531 39.4578 357.762 42.9389 357.537 47.8536C356.233 58.1381 359.562 64.3268 367.528 66.4202C374.638 69.378 381.073 67.9901 386.834 62.2564C390.434 67.0345 395.294 68.559 401.414 66.8297V56.5226L397.565 53.6558V30.857C396.53 24.9867 392.436 20.914 385.281 18.6386C380.196 17.0459 375.358 17.0459 370.767 18.6386C363.342 21.6875 359.247 26.4202 358.482 32.8365H370.903C371.262 30.8343 372.342 29.7648 374.142 29.6285H381.906C384.289 30.9026 385.259 32.973 384.807 35.8399C377.383 35.1574 371.06 35.6807 365.841 37.41ZM372.454 46.9662H385.483V52.154C384.313 54.2473 382.985 55.6353 381.5 56.3178C378.215 58.1835 375.199 58.1835 372.454 56.3178C368.81 52.8594 368.81 49.7421 372.454 46.9662ZM317.038 13.2461H348.357V0.345127H303.066V66.8297H336.478C344.938 65.1915 349.91 60.7775 351.395 53.5875L351.261 38.8433C350.269 32.8365 345.568 28.9457 337.152 27.171C330.898 26.3064 324.194 25.8969 317.038 25.9423V13.2461ZM316.43 38.0925L332.226 38.0242C341.631 43.758 341.631 49.3098 332.226 54.6795H316.43V38.0925ZM277.684 30.857C276.651 24.9867 272.556 20.914 265.4 18.6386C260.315 17.0459 255.477 17.0459 250.888 18.6386C243.462 21.6875 239.368 26.4202 238.602 32.8365H251.023C251.382 30.8343 252.463 29.7648 254.263 29.6285H262.025C264.411 30.9026 265.378 32.973 264.928 35.8399C257.502 35.1574 251.181 35.6807 245.96 37.41C240.651 39.4578 237.883 42.9389 237.659 47.8536C236.352 58.1381 239.683 64.3268 247.648 66.4202C254.757 69.378 261.192 67.9901 266.953 62.2564C270.553 67.0345 275.413 68.559 281.533 66.8297V56.5226L277.684 53.6558V30.857ZM265.603 52.154C264.433 54.2473 263.104 55.6353 261.62 56.3178C258.335 58.1835 255.321 58.1835 252.576 56.3178C248.93 52.8594 248.93 49.7421 252.576 46.9662H265.603V52.154Z" fill="#F03024"/>
<path fill-rule="evenodd" clip-rule="evenodd" d="M44.2332 1.78591C42.1153 4.71837 38.9645 11.4918 34.7766 22.2138C30.5974 32.9134 25.4141 47.4668 19.226 65.878H30.7837L35.6076 53.8802C35.711 53.6232 35.9601 53.4547 36.2371 53.4547H61.1445C61.4359 53.4547 61.6947 53.6409 61.7876 53.9172L66.0872 66.6971H78.2159C72.3753 44.9365 64.5993 23.3937 54.8867 2.06865C51.5016 0.341491 47.9691 0.238178 44.2332 1.78591ZM43.5307 0.608238C47.7574 -1.1964 51.8429 -1.0845 55.7249 0.974096C55.8569 1.04418 55.9622 1.15599 56.0244 1.29215C65.9395 23.0318 73.8501 45.0017 79.7554 67.2015C79.8096 67.4051 79.766 67.6226 79.6376 67.7899C79.5092 67.9571 79.3103 68.0551 79.0996 68.0551H65.5996C65.3082 68.0551 65.0496 67.869 64.9565 67.5927L60.6571 54.8128H36.6955L31.8716 66.8104C31.7682 67.0676 31.519 67.2361 31.2421 67.2361H18.2821C18.0637 67.2361 17.8586 67.1308 17.7312 66.9533C17.6037 66.776 17.5693 66.5479 17.6388 66.3409C23.9628 47.4969 29.2543 32.6216 33.5126 21.7194C37.7577 10.8509 41.0058 3.84913 43.2528 0.827435C43.3244 0.731033 43.4204 0.655393 43.5307 0.608238ZM302.385 0.345423C302.385 -0.029593 302.69 -0.333603 303.066 -0.333603H348.357C348.732 -0.333603 349.037 -0.029593 349.037 0.345423V13.2464C349.037 13.6215 348.732 13.9255 348.357 13.9255H317.716V25.2608C324.645 25.2445 331.154 25.6567 337.246 26.4987C337.26 26.5009 337.276 26.5035 337.292 26.5069C341.566 27.4081 344.959 28.859 347.424 30.8971C349.9 32.9467 351.407 35.5676 351.928 38.7332C351.934 38.7676 351.938 38.8025 351.938 38.8375L352.073 53.5814C352.073 53.6298 352.069 53.6778 352.059 53.7252C351.29 57.4479 349.609 60.4845 347.002 62.7987C344.402 65.1071 340.92 66.6612 336.606 67.4967C336.564 67.5049 336.52 67.509 336.478 67.509H303.066C302.69 67.509 302.385 67.2051 302.385 66.83V0.345423ZM303.744 1.02445V66.1509H336.411C340.527 65.3455 343.741 63.8778 346.101 61.7828C348.451 59.6973 349.994 56.9549 350.716 53.5208L350.582 38.9031C350.106 36.0851 348.77 33.774 346.559 31.9439C344.323 30.0947 341.165 28.7144 337.035 27.8407C330.823 26.9832 324.159 26.5764 317.042 26.6216C316.861 26.6228 316.686 26.5517 316.56 26.4244C316.432 26.2969 316.359 26.1234 316.359 25.9427V13.2464C316.359 12.8714 316.662 12.5674 317.038 12.5674H347.678V1.02445H303.744ZM48.662 14.9565C48.9542 14.9586 49.2122 15.1477 49.3025 15.4259L57.6051 41.0232C57.6721 41.2298 57.6362 41.4561 57.5085 41.632C57.3809 41.8077 57.1768 41.9118 56.9595 41.9118H39.9495C39.7308 41.9118 39.5253 41.8061 39.3979 41.628C39.2705 41.4499 39.2368 41.2212 39.3072 41.014L48.0147 15.4167C48.109 15.1398 48.3696 14.9544 48.662 14.9565ZM40.8974 40.5537H56.0261L48.6417 17.7877L40.8974 40.5537ZM250.665 17.9974C255.407 16.3524 260.393 16.3592 265.602 17.9909L265.606 17.9918C272.926 20.32 277.263 24.5519 278.352 30.7393C278.36 30.7782 278.364 30.8178 278.364 30.8573V53.315L281.938 55.9782C282.109 56.1063 282.211 56.3083 282.211 56.5228V66.83C282.211 67.134 282.008 67.4009 281.717 67.4834C278.561 68.375 275.677 68.4421 273.095 67.6316C270.721 66.8875 268.652 65.4196 266.884 63.2676C264.091 65.8995 261.113 67.5792 257.949 68.2618C254.588 68.9867 251.074 68.5736 247.43 67.0654C243.323 65.976 240.341 63.8077 238.579 60.5308C236.825 57.271 236.324 53.0023 236.98 47.7955C237.102 45.2228 237.893 42.9919 239.37 41.1343C240.849 39.276 242.98 37.832 245.717 36.7766C245.723 36.774 245.729 36.7716 245.735 36.7694C245.739 36.768 245.743 36.7668 245.747 36.7656C250.924 35.0505 257.126 34.5075 264.332 35.1065C264.418 34.0521 264.27 33.1656 263.925 32.4248C263.531 31.5857 262.857 30.8758 261.852 30.3077H254.289C253.53 30.3696 252.981 30.6192 252.579 31.0158C252.168 31.4238 251.853 32.0477 251.69 32.9571C251.632 33.2806 251.351 33.516 251.022 33.516H238.601C238.409 33.516 238.224 33.4328 238.096 33.2877C237.965 33.1425 237.905 32.9491 237.929 32.7563C238.73 26.0328 243.042 21.1264 250.629 18.0107C250.637 18.0077 250.645 18.0049 250.651 18.0021C250.657 18.0005 250.661 17.9989 250.665 17.9974ZM251.127 19.2744C244.18 22.1316 240.335 26.4339 239.384 32.1577H250.478C250.701 31.3112 251.074 30.5955 251.624 30.0505C252.3 29.3818 253.181 29.0296 254.211 28.9515C254.229 28.9503 254.245 28.9497 254.263 28.9497H262.024C262.137 28.9497 262.245 28.9772 262.344 29.0296C263.642 29.7228 264.597 30.6581 265.155 31.8495C265.709 33.0367 265.837 34.4146 265.598 35.9457C265.542 36.2993 265.221 36.5493 264.866 36.5164C257.51 35.8403 251.291 36.3624 246.188 38.0497C243.624 39.0415 241.72 40.36 240.433 41.9798C239.147 43.5967 238.441 45.5545 238.334 47.8851C238.334 47.8953 238.334 47.9057 238.332 47.916C238.332 47.9238 238.33 47.9316 238.33 47.9395C237.688 53.0047 238.2 56.9636 239.773 59.8869C241.334 62.7869 243.985 64.7559 247.82 65.7638C247.838 65.7684 247.856 65.7736 247.872 65.7798C247.884 65.7841 247.896 65.7885 247.908 65.7935C251.357 67.2286 254.602 67.5943 257.662 66.9341C260.726 66.2734 263.664 64.572 266.473 61.7752C266.614 61.6369 266.804 61.5654 267.001 61.5792C267.195 61.5933 267.376 61.6911 267.494 61.8479C269.224 64.1441 271.227 65.6228 273.5 66.3357C275.649 67.0098 278.093 67.0158 280.854 66.3096V56.8638L277.279 54.2005C277.108 54.0724 277.006 53.8706 277.006 53.6559V30.9176C276.01 25.3953 272.16 21.5011 265.195 19.2865C260.243 17.7353 255.561 17.7402 251.127 19.2744ZM370.546 17.9974C375.285 16.3524 380.274 16.3592 385.483 17.9909L385.485 17.9918C392.807 20.32 397.141 24.5519 398.233 30.7393C398.241 30.7782 398.243 30.8178 398.243 30.8573V53.315L401.817 55.9782C401.989 56.1063 402.092 56.3083 402.092 56.5228V66.83C402.092 67.134 401.889 67.4009 401.596 67.4834C398.442 68.375 395.558 68.4421 392.974 67.6316C390.602 66.8875 388.533 65.4194 386.765 63.2676C383.972 65.8995 380.994 67.5792 377.83 68.2618C374.469 68.9867 370.955 68.5736 367.309 67.0654C363.204 65.976 360.222 63.8077 358.458 60.5308C356.704 57.2708 356.204 53.0021 356.861 47.7951C356.983 45.2226 357.774 42.9919 359.251 41.1343C360.727 39.276 362.858 37.832 365.595 36.7766C365.605 36.7728 365.615 36.769 365.628 36.7656C370.805 35.0505 377.007 34.5075 384.213 35.1065C384.297 34.0521 384.151 33.1656 383.805 32.4248C383.412 31.5857 382.738 30.8758 381.731 30.3077H374.17C373.411 30.3696 372.859 30.6192 372.46 31.0158C372.047 31.4238 371.734 32.0477 371.571 32.9571C371.513 33.2806 371.23 33.516 370.903 33.516H358.482C358.289 33.516 358.103 33.4328 357.974 33.2877C357.846 33.1425 357.786 32.9491 357.808 32.7563C358.61 26.0328 362.923 21.1264 370.51 18.0107C370.522 18.0059 370.534 18.0015 370.546 17.9974ZM371.007 19.2743C364.06 22.1314 360.214 26.4339 359.265 32.1577H370.357C370.582 31.3112 370.955 30.5955 371.505 30.0505C372.181 29.3818 373.062 29.0296 374.091 28.9515C374.107 28.9503 374.125 28.9497 374.142 28.9497H381.905C382.015 28.9497 382.126 28.9772 382.224 29.0296C383.522 29.7228 384.478 30.6581 385.033 31.8495C385.589 33.0367 385.718 34.4146 385.477 35.9457C385.423 36.2993 385.102 36.5493 384.744 36.5164C377.39 35.8403 371.172 36.3624 366.069 38.0497C363.503 39.0415 361.6 40.36 360.312 41.9798C359.028 43.5967 358.321 45.5545 358.215 47.8851C358.215 47.9031 358.213 47.9214 358.211 47.9395C357.567 53.0047 358.081 56.9636 359.654 59.8869C361.213 62.7869 363.866 64.7559 367.7 65.7638C367.716 65.7682 367.734 65.7734 367.751 65.7792C367.763 65.7836 367.777 65.7883 367.789 65.7935C371.238 67.2286 374.483 67.5943 377.543 66.9341C380.607 66.2734 383.544 64.572 386.354 61.7752C386.492 61.6369 386.685 61.5654 386.881 61.5792C387.076 61.5933 387.257 61.6911 387.375 61.8479C389.105 64.1441 391.107 65.6228 393.381 66.3357C395.53 67.0098 397.972 67.0158 400.733 66.3096V56.8638L397.159 54.2005C396.987 54.0724 396.886 53.8706 396.886 53.6559V30.9174C395.891 25.3953 392.038 21.5011 385.076 19.2865C380.123 17.7353 375.442 17.7402 371.007 19.2743ZM209.378 17.7948C209.429 17.4233 209.772 17.164 210.143 17.2155C219.464 18.5094 225.97 22.3931 229.477 28.9604C233.735 36.5124 234.769 43.9616 232.499 51.2636C232.499 51.2686 232.497 51.2736 232.495 51.2786C230.553 57.0549 227.717 61.4943 223.959 64.5419C220.197 67.5939 215.555 69.2104 210.076 69.4198C209.701 69.4341 209.386 69.1419 209.372 68.7672C209.357 68.3925 209.649 68.077 210.024 68.0628C215.255 67.8628 219.603 66.3278 223.106 63.4867C226.614 60.6427 229.323 56.4497 231.207 50.8531C233.344 43.962 232.397 36.8993 228.291 29.6212C228.289 29.6166 228.285 29.612 228.283 29.6071C225.041 23.5282 218.991 19.8146 209.956 18.5607C209.585 18.5091 209.326 18.1662 209.378 17.7948ZM198.774 17.7952C198.826 18.1667 198.566 18.5095 198.195 18.5607C189.114 19.815 183.044 23.5292 179.801 29.6071C179.798 29.612 179.796 29.6166 179.793 29.6212C175.687 36.8993 174.74 43.962 176.878 50.8531C178.761 56.4726 181.477 60.6764 184.995 63.5202C188.509 66.3608 192.872 67.8849 198.125 68.0626C198.5 68.0752 198.793 68.3895 198.78 68.7642C198.768 69.1391 198.454 69.4326 198.079 69.42C192.577 69.2337 187.918 67.6292 184.142 64.5766C180.371 61.5286 177.531 57.077 175.589 51.2778C175.588 51.2752 175.587 51.2726 175.586 51.27L175.584 51.2636C173.316 43.9616 174.348 36.5124 178.607 28.9604C182.115 22.3919 188.644 18.5091 198.009 17.2154C198.381 17.1642 198.723 17.4237 198.774 17.7952ZM87.4662 18.9802C87.4662 18.6052 87.77 18.3012 88.1446 18.3012H123.717C124.092 18.3012 124.396 18.6052 124.396 18.9802V67.4443C124.396 67.8194 124.092 68.1234 123.717 68.1234H110.96C110.585 68.1234 110.281 67.8194 110.281 67.4443V31.1268H100.408L99.6276 51.6401C99.7153 51.9276 99.7378 52.2644 99.7327 52.6037C99.7265 53.0308 99.6739 53.5495 99.5816 54.1517C99.3964 55.3571 99.0409 56.9588 98.5212 58.9473L98.5191 58.9543C97.3633 63.1915 94.3075 65.8937 89.5227 67.0796C89.4946 67.0865 89.4661 67.0917 89.4372 67.0951L81.7423 67.9824C81.5501 68.0045 81.3577 67.9435 81.2132 67.8148C81.0687 67.6859 80.986 67.5015 80.986 67.3077V55.1577C80.986 54.9495 81.0815 54.7527 81.2451 54.624C81.4084 54.4953 81.6219 54.4487 81.8242 54.4977C83.3231 54.8606 84.4872 54.7692 85.3799 54.3272C86.2413 53.9007 86.9499 53.0985 87.4662 51.8202V18.9802ZM88.8232 19.6593V51.9495C88.8232 52.0332 88.8078 52.1162 88.7775 52.1943C88.1723 53.761 87.2547 54.9142 85.9817 55.5445C84.9272 56.0666 83.7022 56.1933 82.3431 55.9845V66.5461L89.2384 65.7509C93.607 64.6571 96.2075 62.2674 97.209 58.6001C97.7237 56.6312 98.0655 55.0826 98.2402 53.9453C98.3277 53.3756 98.3709 52.9246 98.3759 52.5836C98.3811 52.2226 98.3414 52.0594 98.3219 52.0146C98.2816 51.9214 98.2627 51.8204 98.2665 51.7188L99.0766 30.422C99.0904 30.0573 99.39 29.7688 99.7546 29.7688H110.96C111.334 29.7688 111.638 30.0728 111.638 30.4477V66.7654H123.039V19.6593H88.8232ZM131.611 19.7311C131.611 19.3561 131.915 19.052 132.29 19.052H144.44C144.814 19.052 145.118 19.3561 145.118 19.7311V33.0453H157.67C157.693 33.0453 157.716 33.0465 157.74 33.0489C161.355 33.4238 164.298 34.5857 166.511 36.5816C168.725 38.5786 170.15 41.3575 170.824 44.8586C170.832 44.9033 170.836 44.9487 170.836 44.9943L170.701 57.5541C170.7 57.6162 170.691 57.678 170.673 57.7377C169.808 60.6955 168.309 63.0616 166.162 64.7983C164.02 66.532 161.273 67.6043 157.962 68.0491C157.933 68.0531 157.902 68.0551 157.872 68.0551H132.29C131.915 68.0551 131.611 67.7511 131.611 67.376V19.7311ZM132.968 20.4102V66.6971H157.826C160.93 66.2738 163.411 65.2776 165.309 63.7423C167.192 62.2192 168.542 60.1322 169.345 57.4449L169.478 45.0487C168.842 41.8023 167.537 39.3357 165.602 37.5905C163.659 35.8381 161.022 34.7602 157.634 34.4033H144.44C144.065 34.4033 143.761 34.0993 143.761 33.7242V20.4102H132.968ZM407.281 19.8676C407.281 19.4926 407.586 19.1886 407.961 19.1886H419.974C420.346 19.1886 420.649 19.4877 420.653 19.8595L420.847 36.2533H435.969V19.8676C435.969 19.4926 436.272 19.1886 436.647 19.1886H448.866C449.239 19.1886 449.544 19.4926 449.544 19.8676V66.8983C449.544 67.2732 449.239 67.5772 448.866 67.5772H437.121C436.746 67.5772 436.441 67.2732 436.441 66.8983V49.2156H420.384V66.8983C420.384 67.2732 420.079 67.5772 419.706 67.5772H407.961C407.586 67.5772 407.281 67.2732 407.281 66.8983V19.8676ZM437.528 20.5467V36.9324C437.528 37.3073 437.225 37.6114 436.85 37.6114H420.177C419.806 37.6114 419.503 37.3124 419.499 36.9405L419.304 20.5467H408.639V66.2192H419.027V48.5365C419.027 48.1616 419.33 47.8575 419.706 47.8575H437.121C437.494 47.8575 437.799 48.1616 437.799 48.5365V66.2192H448.187V20.5467H437.528ZM457.097 19.8676C457.097 19.4926 457.4 19.1886 457.775 19.1886H469.79C470.166 19.1886 470.469 19.4926 470.469 19.8676V35.8369L485.079 19.4833C485.207 19.3392 485.392 19.2568 485.584 19.2568H500.841C501.108 19.2568 501.35 19.4146 501.461 19.6595C501.569 19.9044 501.523 20.1905 501.344 20.3899L482.237 41.6497L503.511 66.1112C503.686 66.312 503.728 66.5963 503.618 66.8385C503.507 67.0806 503.267 67.2361 503 67.2361H487.003C486.815 67.2361 486.636 67.1581 486.507 67.0208L470.198 49.5738V66.8983C470.198 67.2732 469.895 67.5772 469.52 67.5772H457.775C457.4 67.5772 457.097 67.2732 457.097 66.8983V19.8676ZM458.453 20.5467V66.2192H468.841V47.8539C468.841 47.5752 469.012 47.3246 469.271 47.2224C469.53 47.12 469.825 47.1865 470.015 47.3901L487.296 65.878H501.511L480.821 42.0881C480.596 41.8294 480.598 41.4433 480.829 41.1883L499.318 20.615H485.889L470.296 38.0676C470.107 38.2774 469.811 38.3497 469.548 38.2493C469.285 38.1489 469.112 37.8965 469.112 37.615V20.5467H458.453ZM201.474 29.122C201.527 29.4933 201.27 29.8377 200.899 29.8913C199.979 30.0242 199.105 30.2009 198.278 30.4212C194.735 31.3826 192.323 33.2134 190.942 35.8796C190.938 35.8881 190.933 35.8961 190.929 35.9043C188.67 39.8587 188.15 43.6897 189.298 47.4407C191.042 52.5905 194.036 55.5359 198.247 56.4738C199.062 56.6471 199.925 56.7563 200.835 56.8003C201.209 56.8182 201.498 57.1365 201.48 57.5112C201.462 57.8857 201.144 58.1748 200.77 58.1567C199.791 58.1096 198.855 57.9917 197.961 57.8013L197.955 57.8001C193.17 56.7355 189.866 53.3588 188.01 47.8668C188.007 47.8608 188.006 47.8545 188.004 47.8485C186.727 43.6883 187.331 39.4718 189.744 35.2423C191.334 32.1822 194.093 30.1493 197.925 29.1098L197.928 29.109C198.81 28.8742 199.736 28.6871 200.705 28.5471C201.076 28.4935 201.42 28.7509 201.474 29.122ZM206.746 29.122C206.799 28.7509 207.143 28.4935 207.514 28.5471C208.484 28.6871 209.389 28.8746 210.23 29.1106C214.061 30.1505 216.84 32.183 218.473 35.2387C220.889 39.4694 221.493 43.6873 220.217 47.8485C220.213 47.8563 220.211 47.864 220.209 47.8716C218.307 53.3608 214.981 56.7353 210.198 57.7997C209.345 57.9915 208.429 58.1096 207.45 58.1567C207.076 58.1748 206.757 57.8857 206.739 57.5112C206.721 57.1365 207.01 56.8182 207.385 56.8003C208.296 56.7563 209.134 56.6471 209.901 56.4746L209.902 56.4744C214.116 55.5369 217.134 52.5899 218.923 47.4381C220.07 43.6877 219.549 39.8577 217.291 35.9043C217.287 35.8985 217.284 35.8929 217.281 35.8871C215.855 33.2146 213.416 31.3822 209.872 30.4206L209.866 30.419C209.088 30.2003 208.24 30.024 207.32 29.8913C206.949 29.8377 206.692 29.4933 206.746 29.122ZM332.222 37.3455C332.348 37.3451 332.47 37.3792 332.579 37.4447C334.965 38.8995 336.795 40.367 338.037 41.8559C339.281 43.3487 339.957 44.8967 339.957 46.4887C339.957 49.6704 337.282 52.5746 332.561 55.2696C332.458 55.3282 332.342 55.359 332.226 55.359H316.43C316.054 55.359 315.751 55.0549 315.751 54.6798V38.0929C315.751 37.719 316.052 37.4154 316.428 37.4138L332.222 37.3455ZM317.108 38.769V54.0009H332.045C336.618 51.3584 338.601 48.8324 338.601 46.4887C338.601 45.3049 338.101 44.0541 336.993 42.7256C335.91 41.4246 334.268 40.0814 332.035 38.7043L317.108 38.769ZM143.626 44.5774C143.626 44.2025 143.93 43.8985 144.305 43.8985H154.565C154.706 43.8985 154.844 43.9425 154.959 44.0246C157.541 45.8664 159.023 47.8806 159.023 50.0895C159.023 52.2871 157.553 54.3792 154.981 56.3768C154.862 56.4692 154.715 56.5192 154.565 56.5192H144.305C143.93 56.5192 143.626 56.2154 143.626 55.8403V44.5774ZM144.983 45.2565V55.1612H154.33C156.668 53.3013 157.666 51.6073 157.666 50.0895C157.666 48.581 156.678 46.9634 154.345 45.2565H144.983ZM252.164 46.4262C252.282 46.3363 252.427 46.2875 252.575 46.2875H265.602C265.977 46.2875 266.28 46.5915 266.28 46.9666V52.1543C266.28 52.2704 266.25 52.3845 266.194 52.4857C264.992 54.6369 263.582 56.1539 261.93 56.9228C260.218 57.8899 258.537 58.3965 256.896 58.3965C255.238 58.3965 253.667 57.881 252.194 56.8798C252.18 56.8708 252.168 56.8612 252.154 56.8511C252.138 56.8385 252.122 56.825 252.108 56.8108C250.23 55.0292 249.162 53.2186 249.162 51.3863C249.162 49.5298 250.256 47.8796 252.164 46.4262ZM252.808 47.6455C251.199 48.92 250.521 50.1698 250.521 51.3863C250.521 52.6616 251.263 54.1258 253.001 55.7871C254.259 56.6306 255.553 57.0385 256.896 57.0385C258.258 57.0385 259.719 56.6168 261.284 55.7276C261.302 55.718 261.318 55.7092 261.336 55.7011C262.61 55.116 263.816 53.9098 264.924 51.9754V47.6455H252.808ZM372.045 46.4262C372.163 46.3363 372.306 46.2875 372.454 46.2875H385.483C385.858 46.2875 386.161 46.5915 386.161 46.9666V52.1543C386.161 52.2704 386.131 52.3845 386.075 52.4857C384.873 54.6369 383.462 56.1539 381.811 56.9228C380.099 57.8899 378.418 58.3965 376.774 58.3965C375.119 58.3965 373.548 57.881 372.073 56.8798C372.043 56.8591 372.015 56.8361 371.988 56.8108C370.11 55.0292 369.043 53.2186 369.043 51.3863C369.043 49.5298 370.136 47.8796 372.045 46.4262ZM372.687 47.6455C371.079 48.92 370.399 50.1698 370.399 51.3863C370.399 52.6616 371.144 54.1258 372.881 55.7871C374.14 56.6306 375.434 57.0385 376.774 57.0385C378.139 57.0385 379.6 56.6168 381.165 55.7276C381.183 55.718 381.199 55.7092 381.217 55.7011C382.489 55.1158 383.697 53.9098 384.805 51.9754V47.6455H372.687Z" fill="#F03024"/>
</g>
</g>
<defs>
<clipPath id="clip0_1255_437">
<rect width="64" height="100" fill="white" transform="translate(17)"/>
</clipPath>
</defs>
</svg>
