<svg width="185" height="35" viewBox="0 0 185 35" fill="none" xmlns="http://www.w3.org/2000/svg">
<path d="M99.9633 17.3262V22.3075C99.9633 22.4925 99.8121 22.6525 99.6171 22.6525H95.6846C92.5083 22.6013 91.2333 21.1362 91.1846 17.9512C91.2333 14.865 92.3708 13.325 95.7033 13.2787V13.2857H103.992V9.87571H95.7033C89.7983 9.90571 87.3658 12.417 87.2483 17.7545L87.2433 18.1732L87.2483 18.1802C87.3746 23.3602 89.8021 25.904 95.5371 25.989V25.993H101.606C103.007 25.993 104.012 24.823 104.012 23.5892V17.3255L99.9633 17.3262ZM132.457 25.9847V19.3485H142.543V16.056H132.457V11.0835C132.457 10.8935 132.611 10.736 132.805 10.736H142.777V7.32721H130.816C129.416 7.32721 128.408 8.49471 128.408 9.73096V25.9847H132.457ZM74.6132 22.5935C74.4157 22.5935 74.2657 22.4347 74.2657 22.2472V19.3672H84.3482V16.0772H74.2657V13.6235C74.2657 13.436 74.4157 13.276 74.6132 13.276H84.587V9.86596H72.6245C71.222 9.86596 70.2145 11.0385 70.2145 12.2722V23.5972C70.2145 24.8347 71.222 26.0047 72.6245 26.0047H84.587V22.5935H74.6132ZM63.6124 6.94421C61.7187 6.94421 60.51 7.95421 59.6137 9.98546L54.3412 22.1305L49.0649 9.98546C48.1674 7.95421 46.9587 6.94421 45.0637 6.94421C43.2912 6.94421 41.46 8.21296 41.46 10.9692V26.0055H45.5012V11.3805L50.8087 23.423C51.5225 25.1055 52.6687 26.1617 54.3375 26.1642H54.3415C56.009 26.1612 57.1577 25.1055 57.8702 23.423L63.1765 11.3805V26.0055H67.2177V10.9692C67.2177 8.21296 65.3837 6.94421 63.6124 6.94421ZM113.221 19.3675L115.709 13.5087C115.788 13.325 115.931 13.2762 116.038 13.2762H116.04C116.148 13.2762 116.293 13.325 116.369 13.5087L118.861 19.3675H113.221ZM119.364 11.6675C118.686 10.1975 117.337 9.48121 116.041 9.48121H116.039C114.741 9.48121 113.392 10.1975 112.719 11.6675L106.105 26.005H110.407L111.849 22.5975H120.232L121.675 26.005H125.977L119.364 11.6675ZM179.004 9.86633V20.6526L172.055 11.1713C171.469 10.4338 170.816 9.86633 169.475 9.86633C168.244 9.86633 166.722 10.8401 166.722 12.6888V26.0151H170.77V15.2313L177.687 24.7438C178.29 25.5638 178.912 26.0151 180.297 26.0151C181.53 26.0151 183.05 25.1313 183.05 23.1913V9.86633H179.004ZM154.752 22.8211C150.619 22.8211 149.431 21.3036 149.431 17.9248V17.9073C149.431 14.6286 150.564 13.0173 154.752 13.0173C158.944 13.0173 160.076 14.6286 160.076 17.9073V17.9248C160.076 21.3036 158.884 22.8211 154.752 22.8211ZM164.016 17.9073C164.015 12.2573 161.759 9.62233 154.752 9.62233C147.749 9.62233 145.493 12.2573 145.489 17.9073V17.9186C145.489 23.4811 147.808 26.1636 154.752 26.1636C161.698 26.1636 164.016 23.4811 164.016 17.9186V17.9073Z" fill="#00B956"/>
<path d="M14.0579 14.3214C12.9404 14.3214 12.0329 13.4152 12.0329 12.2989C12.0329 11.1802 12.9404 10.2739 14.0579 10.2739C15.1754 10.2739 16.0804 11.1802 16.0804 12.2989C16.0804 13.4152 15.1754 14.3214 14.0579 14.3214ZM17.1617 0.971436C8.21793 0.971436 0.97168 8.21894 0.97168 17.1614C0.97168 24.9214 6.43293 31.4064 13.7192 32.9852V18.4564L13.7202 18.4554C13.7365 17.7542 14.2952 17.1892 14.9902 17.1629L15.6639 17.1619H17.0352C17.1302 17.1619 17.2077 17.0869 17.2127 16.9932L17.2137 0.974336M28.3184 25.9935C27.2022 25.9935 26.2947 25.0872 26.2947 23.9685C26.2947 22.8535 27.2022 21.9472 28.3184 21.9472C29.4347 21.9472 30.3422 22.8535 30.3422 23.9685C30.3422 25.0872 29.4347 25.9935 28.3184 25.9935ZM23.5747 25.9935C22.4584 25.9935 21.5522 25.0872 21.5522 23.9685C21.5522 22.8535 22.4584 21.9472 23.5747 21.9472C24.6922 21.9472 25.5984 22.8535 25.5984 23.9685C25.5984 25.0872 24.6922 25.9935 23.5747 25.9935ZM18.8284 25.9935C17.7122 25.9935 16.8034 25.0872 16.8034 23.9685C16.8034 22.8535 17.7122 21.9472 18.8284 21.9472C19.9472 21.9472 20.8534 22.8535 20.8534 23.9685C20.8534 25.0872 19.9472 25.9935 18.8284 25.9935ZM19.1597 1.09346V17.161V17.786V17.7973L19.1557 17.8013C19.1497 18.5238 18.5607 19.1075 17.8357 19.1075H17.2132H15.8432C15.7432 19.1075 15.6632 19.1875 15.6632 19.2863V33.2838C16.1569 33.3288 16.6544 33.3538 17.1607 33.3538C26.1032 33.3538 33.3507 26.1038 33.3507 17.1613C33.3507 8.8975 27.1584 2.07846 19.1597 1.09346Z" fill="#00B956"/>
</svg>
