<svg width="394" height="98" viewBox="0 0 394 98" fill="none" xmlns="http://www.w3.org/2000/svg">
<g clip-path="url(#clip0_233_67)">
<path fill-rule="evenodd" clip-rule="evenodd" d="M35.0087 0.00305176C27.7037 0.00305176 19.0427 7.02604 11.8987 18.833C4.45274 31.061 0.0107422 46.199 0.0107422 59.345C0.0107422 78.59 10.8107 97.998 35.0107 97.998C59.1817 97.998 70.0107 78.59 70.0107 59.345C70.0107 46.199 65.5708 31.061 58.1608 18.833C50.9498 7.02604 42.2897 0.00305176 35.0087 0.00305176ZM224 28.877H248.5V92.75H274.75V28.877H299.24V5.25005H224V28.874V28.877ZM355.24 28.877H393.74V5.25005H355.24C319.87 5.25005 300.98 22.836 300.98 48.997C300.98 75.158 319.87 92.75 355.24 92.75H393.74V69.124H355.24C338.87 69.124 328.11 63.273 328.11 49C328.11 34.727 338.87 28.877 355.24 28.877ZM170.61 5.25005L156.62 57.4751L142.63 5.25005H96.2598V92.75H122.5V21.58L141.57 92.75H171.67L190.75 21.537V92.75H217V5.25005H170.61Z" fill="#E30613"/>
</g>
<defs>
<clipPath id="clip0_233_67">
<rect width="393.75" height="98" fill="white"/>
</clipPath>
</defs>
</svg>
