<svg width="130" height="65" viewBox="0 0 130 65" fill="none" xmlns="http://www.w3.org/2000/svg">
<path d="M0 14.1484L7.87149 28.2182V36.8004L0.00920833 50.8425L0 14.1484Z" fill="#5B57A2"/>
<path d="M30.2231 23.0993L37.599 18.5785L52.6942 18.5645L30.2231 32.3304V23.0993Z" fill="#D90751"/>
<path d="M30.1817 14.0654L30.2234 32.6933L22.3335 27.8454V0L30.1817 14.0654Z" fill="#FAB718"/>
<path d="M52.6944 18.5634L37.5987 18.5775L30.1817 14.0654L22.3335 0L52.6944 18.5634Z" fill="#ED6F26"/>
<path d="M30.2234 50.9205V41.8828L22.3335 37.127L22.3378 65L30.2234 50.9205Z" fill="#63B22F"/>
<path d="M37.5808 46.4409L7.87095 28.2182L0 14.1484L52.6624 46.4225L37.5808 46.4409Z" fill="#1487C9"/>
<path d="M22.3384 64.9994L30.2229 50.9199L37.5803 46.4403L52.6619 46.4219L22.3384 64.9994Z" fill="#017F36"/>
<path d="M0.00927734 50.843L22.398 37.128L14.871 32.5098L7.87156 36.8008L0.00927734 50.843Z" fill="#984995"/>
<path fill-rule="evenodd" clip-rule="evenodd" d="M86.0626 34.7088C91.1423 34.7088 94.9144 31.5942 94.9144 26.8726C94.9144 22.3023 92.1315 19.3353 87.48 19.3353C85.3334 19.3353 83.5621 20.0906 82.2281 21.3946C82.5465 18.7 84.8253 16.7322 87.3342 16.7322C87.9134 16.7322 92.2727 16.7232 92.2727 16.7232L94.738 12.0059C94.738 12.0059 89.265 12.1307 86.7206 12.1307C80.9075 12.2317 76.9809 17.5156 76.9809 23.9331C76.9809 31.4101 80.8104 34.7088 86.0626 34.7088ZM86.0935 23.5136C87.9796 23.5136 89.2869 24.753 89.2869 26.8721C89.2869 28.779 88.1253 30.3506 86.0935 30.3548C84.1498 30.3548 82.8422 28.8985 82.8422 26.9043C82.8422 24.7847 84.1498 23.5136 86.0935 23.5136ZM114.529 18.2493V34.1406H108.855V22.9931H103.391V34.1406H97.7163V18.2482L114.529 18.2493ZM69.0205 29.7391C71.0221 29.5931 72.362 28.8203 72.362 28.8203L74.462 32.7055C73.1171 33.5694 70.9105 34.1311 69.3109 34.1904C63.5882 34.2956 59.6074 30.8134 59.6074 25.7401C59.6074 20.7307 63.8426 17.1654 69.3109 17.1654C71.4775 17.1654 73.3403 17.7468 74.7389 18.8068C74.4445 19.3284 74.0444 20.051 73.664 20.7423L73.0549 21.8521L72.5008 22.8656C72.5008 22.8656 70.4857 21.8098 68.9625 21.8098C66.4785 21.8098 64.6694 23.2534 64.6694 25.7718C64.6694 28.3542 66.7194 29.8073 69.0205 29.7391ZM64.671 44.8354C64.4978 45.0565 64.2698 45.2236 63.9963 45.3363C63.7154 45.4506 63.4152 45.5088 63.1121 45.5072C62.8109 45.5114 62.5112 45.4611 62.2277 45.3591C61.973 45.2665 61.7402 45.1221 61.544 44.9353C61.3504 44.7481 61.1983 44.5222 61.0978 44.272C60.9888 43.9985 60.9346 43.706 60.938 43.4114C60.938 43.1189 60.9883 42.848 61.0928 42.5915C61.193 42.3344 61.3387 42.1138 61.5212 41.9287C61.604 41.843 61.6942 41.7663 61.791 41.6975L61.8503 41.6573C61.9124 41.6166 61.9772 41.5785 62.0444 41.5436L62.1166 41.5076L62.1687 41.4828C62.4194 41.3743 62.6929 41.3156 62.9936 41.3156C63.3174 41.3156 63.6181 41.3563 63.8916 41.4373C64.0643 41.488 64.2203 41.5605 64.36 41.6547C64.442 41.7102 64.5181 41.7732 64.5887 41.8435L64.2563 42.4069C64.0952 42.2609 63.9058 42.1503 63.6998 42.0816C63.5041 42.0186 63.2994 41.9869 63.0939 41.9874C62.9116 41.9874 62.7384 42.0234 62.5699 42.0911C62.4041 42.1577 62.2523 42.2556 62.1232 42.3799C61.991 42.5068 61.887 42.6608 61.8175 42.8306C61.7402 43.0057 61.7037 43.1998 61.7037 43.4161C61.7037 43.6367 61.7445 43.8351 61.822 44.0065C61.9 44.1821 62.0045 44.3313 62.1367 44.4572C62.2687 44.5836 62.4237 44.6777 62.6014 44.7412C62.6739 44.7687 62.7479 44.7904 62.8236 44.8063C62.9339 44.8296 63.0481 44.8407 63.1669 44.8407C63.4128 44.8407 63.6366 44.7904 63.8278 44.6957C63.9281 44.6471 64.023 44.5889 64.1113 44.5217C64.1896 44.4619 64.2626 44.3953 64.3293 44.3223L64.671 44.8354ZM65.6099 45.4125V41.4013H66.3301V44.39L68.6729 41.4013H69.3934V45.413H68.6729V42.4249L66.3301 45.413L65.6099 45.4125ZM74.1655 44.8354C73.9883 45.0586 73.7558 45.231 73.4911 45.3363C73.3302 45.4014 73.1628 45.4485 72.9922 45.4765C72.865 45.4971 72.7359 45.5077 72.6066 45.5072C72.4857 45.5088 72.3651 45.5019 72.2459 45.486C72.0676 45.4627 71.8922 45.4204 71.7224 45.3591C71.6643 45.3379 71.6071 45.3141 71.5513 45.2876C71.4839 45.2554 71.4183 45.2194 71.3548 45.1803C71.2416 45.1099 71.1355 45.0279 71.0385 44.9353C70.8446 44.7481 70.6925 44.5222 70.592 44.272C70.4833 43.9985 70.4288 43.706 70.4323 43.4114C70.4323 43.1189 70.4825 42.848 70.5873 42.5915C70.688 42.3344 70.8335 42.1138 71.0157 41.9287C71.1982 41.7393 71.417 41.5954 71.6629 41.4828C71.9227 41.3685 72.2041 41.3114 72.4879 41.3156C72.6762 41.3156 72.8563 41.3294 73.0279 41.3569L73.1287 41.3743C73.1668 41.3817 73.2046 41.3902 73.2419 41.3992L73.3083 41.4156L73.3861 41.4373C73.6595 41.5182 73.8918 41.6536 74.0835 41.8435L73.7505 42.4069C73.59 42.2609 73.4006 42.1503 73.1948 42.0816C73.1454 42.0657 73.0954 42.0514 73.0449 42.0392C73.0102 42.0313 72.9753 42.0244 72.9401 42.0181C72.9071 42.0123 72.8737 42.007 72.8404 42.0027L72.7669 41.9948C72.7076 41.9895 72.6481 41.9869 72.5886 41.9874C72.2266 41.9885 71.8788 42.1292 71.6174 42.3799C71.5836 42.4132 71.5516 42.4476 71.5214 42.4841C71.4857 42.5269 71.4527 42.5724 71.4225 42.6195C71.3797 42.6867 71.3426 42.757 71.312 42.8306C71.295 42.8687 71.2802 42.9078 71.2673 42.948C71.2522 42.994 71.2398 43.0411 71.2297 43.0892C71.2085 43.1924 71.1982 43.3008 71.1982 43.4161C71.1982 43.5204 71.2072 43.6193 71.2249 43.7129C71.2355 43.7684 71.249 43.8213 71.2654 43.8726C71.2802 43.9192 71.2974 43.9636 71.3167 44.0065C71.3657 44.1176 71.4254 44.2181 71.496 44.3085C71.5373 44.3614 71.5823 44.4106 71.6309 44.4572C71.7632 44.5836 71.9187 44.6777 72.0962 44.7412C72.2739 44.8042 72.4609 44.8407 72.6611 44.8407C72.7452 44.8407 72.8261 44.8348 72.9042 44.8232C73.0544 44.8015 73.1932 44.7581 73.322 44.6957C73.5114 44.6042 73.6817 44.4773 73.8235 44.3223L74.1655 44.8354ZM74.5392 41.4013H78.2312V42.1138H76.7453V45.4125H76.0251V42.1138H74.5392V41.4013ZM82.3016 44.9756C82.1011 45.1554 81.8689 45.2866 81.5952 45.3723C81.3315 45.4574 81.0564 45.5013 80.7795 45.5029C80.6684 45.5045 80.5576 45.4987 80.4476 45.486C80.2547 45.4633 80.0648 45.4194 79.8816 45.3543C79.6123 45.2554 79.3848 45.1152 79.1979 44.9306C79.0069 44.7433 78.8577 44.5175 78.7601 44.2683C78.6599 44.0112 78.6051 43.7229 78.6051 43.4072C78.6025 43.1273 78.6504 42.8496 78.7466 42.5872C78.8342 42.3402 78.9723 42.1149 79.1518 41.9244C79.2375 41.8361 79.3312 41.7557 79.4314 41.6848C79.5475 41.6028 79.6723 41.5335 79.8041 41.478C79.9543 41.4156 80.1169 41.3696 80.2928 41.3421C80.4206 41.3219 80.5552 41.3114 80.6972 41.3114C80.7808 41.3108 80.8641 41.3156 80.9464 41.3257C81.021 41.3346 81.095 41.3479 81.168 41.3648C81.2571 41.386 81.3452 41.4135 81.4312 41.4468C81.6547 41.5298 81.8594 41.6568 82.0329 41.8208C82.0773 41.8636 82.1191 41.908 82.1585 41.9551C82.191 41.9937 82.222 42.0334 82.2511 42.0747C82.2958 42.1376 82.3365 42.2043 82.3725 42.2725C82.3947 42.3148 82.4151 42.3582 82.4338 42.4021C82.4751 42.4952 82.5079 42.592 82.5322 42.693C82.5669 42.8364 82.5843 42.9887 82.5843 43.1506C82.5843 43.3352 82.5708 43.4928 82.5388 43.6325H79.4211C79.4531 44.0118 79.5943 44.3085 79.8538 44.5206C80.1138 44.7328 80.442 44.8359 80.8385 44.8359C80.9736 44.8359 81.1029 44.8253 81.2254 44.8042C81.3426 44.7841 81.4539 44.7544 81.5589 44.7148C81.7729 44.6333 81.9506 44.5344 82.0829 44.417L82.3016 44.9756ZM80.6652 41.9832C80.2915 41.9832 79.9953 42.0821 79.7721 42.2847C79.5512 42.4841 79.4105 42.7565 79.3756 43.0512H81.8369C81.8184 42.7179 81.7097 42.4566 81.5042 42.2672C81.4701 42.2355 81.4338 42.2069 81.3957 42.181C81.3598 42.1561 81.3219 42.1339 81.2823 42.1138C81.2524 42.0985 81.2212 42.0847 81.1889 42.072C81.0368 42.0128 80.8617 41.9832 80.6652 41.9832ZM83.5642 41.4013H84.2207L85.7796 43.3892L87.2562 41.4013H87.8944V45.413H87.1745V42.4878L85.7703 44.3492H85.7428L84.2847 42.4873V45.4125H83.5642V41.4013ZM89.5392 41.5224C89.6413 41.4791 89.7466 41.4431 89.854 41.415C90.0865 41.3521 90.3279 41.3161 90.5837 41.3161C90.8326 41.3161 91.0497 41.3431 91.2346 41.3971C91.3581 41.433 91.4673 41.4812 91.5618 41.5409C91.6519 41.5975 91.7286 41.6653 91.7916 41.7441C91.8932 41.8684 91.972 42.016 92.0286 42.1863C92.1016 42.4058 92.1375 42.6629 92.1375 42.957V45.4178H91.4634V44.8994C91.3446 45.0528 91.1806 45.1877 90.9751 45.3051C90.7704 45.422 90.5012 45.4807 90.164 45.4807C89.9196 45.4807 89.7067 45.4347 89.525 45.3427C89.4853 45.3226 89.4472 45.3003 89.4104 45.276C89.3856 45.2591 89.3612 45.2411 89.3377 45.2226C89.3115 45.202 89.2861 45.1797 89.2615 45.1565C89.0338 44.9401 88.9195 44.6333 88.9195 44.2413C88.9174 44.0525 88.9579 43.8663 89.0383 43.6954C89.1134 43.5399 89.2224 43.4029 89.3573 43.295C89.4895 43.1866 89.6535 43.1051 89.8447 43.0512C89.8825 43.0406 89.9209 43.0305 89.9595 43.0215L90.0177 43.0088L90.083 42.9972C90.2015 42.9766 90.324 42.9655 90.4514 42.9655C90.626 42.9676 90.7998 42.9856 90.9709 43.0199C91.1478 43.0506 91.3158 43.1199 91.4634 43.2231C91.4634 43.1432 91.4615 43.066 91.4578 42.9914L91.4507 42.8819C91.4459 42.8226 91.4396 42.765 91.4314 42.7089C91.4086 42.5513 91.3674 42.4164 91.3036 42.308C91.2735 42.2572 91.2375 42.2101 91.1952 42.1688C91.1753 42.1493 91.1542 42.1307 91.1314 42.1138C91.1161 42.1027 91.1 42.0916 91.083 42.0816C91.0648 42.0704 91.0457 42.0604 91.0256 42.0509C90.9027 41.9879 90.7429 41.9557 90.5424 41.9557C90.2917 41.9557 90.082 41.9832 89.918 42.0419L89.8307 42.0741L89.7569 42.1022L89.6704 42.1376C89.5887 42.172 89.5072 42.209 89.4255 42.2492L89.2343 41.6806C89.3319 41.6203 89.434 41.5674 89.5392 41.5224ZM90.4152 44.8359C90.6794 44.8359 90.8939 44.7825 91.0582 44.665C91.206 44.5667 91.3409 44.4498 91.4589 44.3175V43.8081C91.3793 43.751 91.2944 43.7034 91.2042 43.6648C91.1537 43.6431 91.1016 43.6246 91.0479 43.6092C91.0106 43.5986 90.9725 43.5891 90.9336 43.5807C90.8892 43.5711 90.8437 43.5637 90.7971 43.5579C90.717 43.5479 90.6337 43.5426 90.5475 43.5426C90.438 43.5426 90.3335 43.5558 90.2282 43.5828C90.1761 43.5955 90.1253 43.6129 90.0767 43.6351C90.033 43.6547 89.9907 43.678 89.9505 43.705C89.873 43.7589 89.8048 43.8266 89.7543 43.9123L89.7439 43.9308C89.7363 43.9451 89.7294 43.9594 89.7233 43.9742C89.7164 43.9906 89.7106 44.0075 89.7056 44.025C89.7008 44.0409 89.6969 44.0573 89.6934 44.0742C89.6852 44.1149 89.6813 44.1583 89.6813 44.2048C89.6813 44.3942 89.745 44.5476 89.873 44.6645C89.9465 44.7296 90.0383 44.7767 90.1476 44.8047C90.2274 44.8253 90.3168 44.8359 90.4152 44.8359ZM98.9068 39.6441C98.779 39.8107 98.6426 39.9234 98.4968 39.9905C98.3506 40.0582 98.1913 40.1037 98.0181 40.1397C97.888 40.1667 97.752 40.1915 97.6095 40.2175L97.4667 40.2439C97.2506 40.2836 97.0406 40.3518 96.8419 40.4465C96.7666 40.4788 96.6944 40.5179 96.6264 40.5629C96.5777 40.5951 96.5312 40.6301 96.487 40.6681L96.4338 40.7163L96.4016 40.7485L96.368 40.784C96.3434 40.8131 96.3196 40.8427 96.2968 40.8729C96.2513 40.9326 96.2096 40.9945 96.1715 41.0591C96.1331 41.1241 96.0985 41.1918 96.0675 41.2622C95.9895 41.4373 95.9305 41.6229 95.8893 41.8165C95.8485 42.0107 95.8258 42.1995 95.8118 42.3841H95.8303C95.894 42.2402 95.985 42.1138 96.0945 42.0006C96.2064 41.8864 96.3336 41.788 96.4727 41.7081C96.5031 41.6906 96.5338 41.6737 96.565 41.6573C96.6002 41.6393 96.6359 41.6224 96.6721 41.6065C96.7552 41.57 96.8409 41.5394 96.9287 41.5145C97.0929 41.4695 97.2614 41.4468 97.4347 41.4468C97.6039 41.4447 97.7724 41.4632 97.9364 41.5018C98.0321 41.5245 98.1263 41.5542 98.2183 41.5907C98.445 41.6806 98.6489 41.8197 98.8158 41.9969C98.9824 42.1778 99.1099 42.391 99.1895 42.6232C99.2763 42.8671 99.3218 43.1416 99.3218 43.4431C99.3218 43.7229 99.2715 43.9885 99.1668 44.2366C99.1237 44.3434 99.0718 44.4455 99.012 44.5418C98.9335 44.6687 98.8417 44.7851 98.7383 44.8904C98.551 45.0808 98.3278 45.2321 98.0819 45.3363C97.8269 45.4447 97.5442 45.5035 97.2387 45.5035C96.9059 45.5035 96.6097 45.4447 96.3452 45.3278C96.081 45.2109 95.8573 45.048 95.6705 44.8317C95.4835 44.6196 95.3428 44.3588 95.2421 44.0472C95.1418 43.7362 95.0918 43.3897 95.0918 43.0062C95.0918 42.7089 95.1098 42.3984 95.1466 42.0736C95.1823 41.7552 95.2542 41.4426 95.3606 41.1405C95.4656 40.8427 95.6206 40.5724 95.8168 40.3338C96.0128 40.0947 96.2722 39.9059 96.5962 39.7657L96.6669 39.735C96.7015 39.7208 96.7364 39.707 96.7716 39.6943C96.8356 39.671 96.9001 39.6499 96.9655 39.6308C97.0046 39.6197 97.044 39.6091 97.0837 39.5996C97.1334 39.5875 97.1837 39.5769 97.2342 39.5679L97.4836 39.525L97.6172 39.5018L97.7536 39.4774C97.8338 39.4637 97.9131 39.4452 97.9911 39.4219C98.0525 39.4039 98.1131 39.3833 98.1728 39.36C98.2059 39.3473 98.2382 39.3309 98.2694 39.3124L98.3101 39.2859C98.3836 39.2346 98.4519 39.1659 98.5148 39.0807L98.9068 39.6441ZM95.8623 43.1416C95.8581 43.3796 95.8919 43.6172 95.9623 43.8446C96.0226 44.0372 96.1167 44.217 96.2402 44.3768C96.3582 44.5196 96.506 44.6349 96.6735 44.7148C96.8419 44.7957 97.0247 44.8364 97.2249 44.8364C97.3765 44.8364 97.5156 44.8158 97.6452 44.774L97.6923 44.7581C97.7177 44.7492 97.7428 44.7391 97.7676 44.728C97.9253 44.6613 98.0678 44.563 98.1869 44.4402C98.3059 44.317 98.399 44.171 98.4606 44.0112C98.5238 43.8494 98.5608 43.6732 98.5608 43.4796C98.5608 43.0877 98.4513 42.7629 98.2276 42.5021C98.1527 42.4153 98.067 42.3434 97.97 42.2857C97.8904 42.2381 97.8031 42.2006 97.7081 42.1725C97.5746 42.1334 97.4259 42.1138 97.2614 42.1138C96.9213 42.1112 96.5902 42.2238 96.3225 42.4338C96.204 42.5291 96.1038 42.637 96.0263 42.7586C95.9993 42.7988 95.975 42.8406 95.9535 42.884C95.9363 42.9189 95.9207 42.9544 95.9073 42.9903C95.8887 43.0395 95.8737 43.0903 95.8623 43.1416ZM104.126 41.4018H104.846V45.4135H104.126V41.4018ZM101.081 41.4018H100.361H100.356V45.4178H101.665C101.73 45.4178 101.793 45.4157 101.854 45.412C101.892 45.4098 101.93 45.4067 101.966 45.403C101.999 45.3998 102.031 45.3961 102.063 45.3913C102.212 45.3702 102.346 45.3363 102.467 45.2919C102.518 45.2728 102.566 45.2527 102.612 45.231L102.671 45.2014L102.717 45.1766C102.75 45.1575 102.782 45.1374 102.812 45.1163C102.831 45.103 102.849 45.0893 102.867 45.0755C102.889 45.0581 102.911 45.0401 102.931 45.0216C102.95 45.0041 102.969 44.9856 102.986 44.9671C103.114 44.8317 103.21 44.683 103.265 44.5122C103.3 44.4106 103.324 44.309 103.337 44.2059C103.347 44.1345 103.351 44.062 103.351 43.9885C103.351 43.9499 103.35 43.9118 103.347 43.8737C103.345 43.8404 103.342 43.8076 103.338 43.7748C103.325 43.6711 103.304 43.5701 103.274 43.4701C103.223 43.304 103.137 43.1554 103.014 43.0289C102.891 42.9025 102.727 42.7994 102.522 42.7221C102.316 42.646 102.061 42.6052 101.747 42.6052H101.081V41.4018ZM101.605 44.746H101.081V43.2765V43.267H101.615C101.682 43.267 101.745 43.2691 101.805 43.2739C101.897 43.2813 101.981 43.2945 102.055 43.313C102.112 43.3267 102.163 43.3442 102.21 43.3643C102.269 43.3902 102.319 43.4209 102.362 43.4569C102.411 43.4992 102.451 43.5473 102.484 43.6023C102.52 43.6626 102.547 43.7309 102.564 43.8065C102.578 43.8695 102.585 43.9377 102.585 44.0112C102.585 44.2503 102.513 44.4302 102.367 44.5566C102.303 44.6116 102.218 44.655 102.113 44.6862C101.978 44.7259 101.808 44.746 101.605 44.746ZM109.61 44.8354C109.436 45.0565 109.208 45.2236 108.935 45.3363C108.654 45.45 108.354 45.5082 108.051 45.5072C107.75 45.5114 107.45 45.4611 107.166 45.3591C106.912 45.2665 106.679 45.1221 106.483 44.9353C106.408 44.8634 106.34 44.7857 106.279 44.7031L106.229 44.6328C106.211 44.6063 106.193 44.5794 106.177 44.5518L106.154 44.5132C106.139 44.4873 106.124 44.4609 106.111 44.4339C106.092 44.3984 106.075 44.3625 106.058 44.3254L106.036 44.272C105.928 43.9985 105.873 43.706 105.877 43.4114C105.877 43.1189 105.926 42.848 106.031 42.5915C106.132 42.3344 106.277 42.1138 106.46 41.9287C106.642 41.7393 106.861 41.5954 107.107 41.4828C107.367 41.3685 107.649 41.3114 107.932 41.3156C108.256 41.3156 108.557 41.3563 108.83 41.4373C109.104 41.5182 109.336 41.6536 109.527 41.8435L109.195 42.4069C109.128 42.3455 109.055 42.2905 108.978 42.2424C108.941 42.2186 108.902 42.1963 108.862 42.1757C108.831 42.1598 108.799 42.145 108.766 42.1307L108.705 42.1059L108.639 42.0816C108.443 42.0186 108.238 41.9869 108.033 41.9874C107.959 41.9874 107.887 41.9932 107.817 42.0043C107.712 42.0212 107.609 42.0509 107.508 42.0911C107.342 42.1577 107.191 42.2561 107.062 42.3799C107.02 42.4212 106.98 42.4651 106.944 42.5111L106.912 42.5529C106.85 42.6391 106.797 42.7322 106.756 42.8306C106.679 43.0057 106.642 43.1998 106.642 43.4161C106.642 43.6367 106.683 43.8351 106.761 44.0065C106.838 44.1821 106.943 44.3313 107.075 44.4572C107.207 44.5836 107.362 44.6777 107.54 44.7412C107.718 44.8042 107.905 44.8407 108.106 44.8407C108.254 44.8407 108.392 44.8227 108.521 44.7872C108.554 44.7782 108.586 44.7682 108.617 44.7571C108.668 44.7396 108.718 44.719 108.767 44.6957C108.956 44.6042 109.126 44.4773 109.268 44.3223L109.61 44.8354ZM109.983 41.4013H113.676V42.1138H112.189V45.4125H111.469V42.1138H109.983V41.4013ZM114.459 41.4024H115.18V41.8753C115.316 41.7123 115.512 41.5827 115.763 41.4743C116.014 41.3659 116.278 41.3119 116.56 41.3119C116.606 41.3108 116.652 41.3119 116.697 41.3145C116.789 41.3198 116.88 41.3315 116.97 41.3495C117.096 41.3748 117.22 41.4135 117.34 41.4648C117.565 41.5589 117.766 41.7023 117.928 41.8842C118.093 42.071 118.22 42.2884 118.302 42.5238C118.344 42.6444 118.376 42.7708 118.399 42.9036C118.422 43.0443 118.434 43.1913 118.434 43.3447C118.434 43.6462 118.384 43.9308 118.284 44.1958C118.183 44.4619 118.042 44.6873 117.855 44.8819C117.665 45.0755 117.439 45.23 117.19 45.3368C116.93 45.4447 116.643 45.5029 116.324 45.5029C116.109 45.5029 115.9 45.4807 115.699 45.4358C115.499 45.3908 115.326 45.3231 115.18 45.2284V47.1978H114.459V41.4024ZM116.351 41.9832C116.11 41.9832 115.886 42.0376 115.681 42.1461C115.477 42.254 115.308 42.3847 115.18 42.5375V44.5254C115.343 44.6349 115.524 44.7174 115.713 44.7693C115.886 44.8142 116.069 44.8364 116.265 44.8364C116.466 44.8401 116.667 44.8015 116.853 44.7238C117.02 44.6555 117.171 44.5524 117.295 44.4217C117.419 44.2895 117.514 44.1329 117.573 43.962C117.637 43.7817 117.674 43.5881 117.674 43.3717C117.674 43.3262 117.672 43.2813 117.669 43.2374L117.663 43.1659L117.657 43.1152L117.65 43.0628L117.64 43.0125L117.628 42.9538C117.616 42.9057 117.603 42.8586 117.587 42.8126C117.532 42.6417 117.446 42.4973 117.332 42.3709C117.217 42.245 117.081 42.1503 116.917 42.0826C116.748 42.0149 116.561 41.9832 116.351 41.9832ZM123.238 41.4018H123.959V45.413H123.238V41.4018ZM120.189 41.4018H119.469H119.464V45.4172H120.772C121.092 45.4172 121.356 45.3723 121.575 45.2919C121.793 45.2104 121.967 45.1025 122.094 44.9671C122.222 44.8317 122.318 44.683 122.372 44.5116C122.431 44.3408 122.459 44.1689 122.459 43.9885C122.459 43.8081 122.431 43.6373 122.381 43.4701C122.331 43.304 122.245 43.1548 122.122 43.0289C121.999 42.9025 121.835 42.7988 121.629 42.7221C121.424 42.646 121.169 42.6052 120.854 42.6052H120.189V41.4018ZM120.718 44.746H120.194V43.2765V43.267H120.727C121.074 43.267 121.324 43.3305 121.475 43.4569C121.621 43.5833 121.698 43.7674 121.698 44.0112C121.698 44.2503 121.625 44.4302 121.479 44.5561C121.334 44.683 121.078 44.746 120.718 44.746ZM127.414 43.3352L128.954 45.413H128.07L126.88 43.7901L125.672 45.413H124.834L126.365 43.3707L124.925 41.4013H125.809L126.908 42.9157L128.024 41.4013H128.863L127.414 43.3352ZM64.1381 50.3705H61.9275V53.7152H61.207V49.704H64.858V53.7152H64.1381V50.3705ZM68.9464 50.4155H67.5245L67.4785 51.0915C67.447 51.4517 67.4084 51.767 67.3603 52.0389C67.3317 52.1992 67.3 52.3446 67.2645 52.4753C67.1685 52.8271 67.05 53.0974 66.9136 53.2867C66.7771 53.4761 66.6171 53.6068 66.4346 53.6702C66.2463 53.7385 66.0471 53.7718 65.8469 53.7692L65.7921 53.0746C65.8696 53.0789 65.9606 53.0614 66.0609 53.0164C66.1616 52.9715 66.2619 52.872 66.3571 52.7239C66.4531 52.57 66.5398 52.3536 66.6171 52.0743C66.6946 51.7903 66.7451 51.4211 66.7721 50.9561L66.8453 49.7077H69.6669V53.7194H68.9464V50.4155ZM70.9882 49.9786C71.166 49.8659 71.3757 49.776 71.6084 49.713C71.846 49.6474 72.0911 49.6141 72.3376 49.6141C72.9118 49.6141 73.3176 49.7574 73.5455 50.042C73.7778 50.3261 73.8923 50.7318 73.8923 51.2544V53.7152H73.2173V53.1968C73.0986 53.3502 72.9346 53.4856 72.7299 53.6025C72.5244 53.72 72.2559 53.7787 71.9184 53.7787C71.5447 53.7787 71.2435 53.6702 71.016 53.4539C70.8909 53.3359 70.8004 53.1905 70.7438 53.0186C70.6973 52.8763 70.674 52.7165 70.674 52.5393C70.6738 52.5107 70.6743 52.4822 70.6759 52.4536C70.6793 52.3907 70.6875 52.3288 70.7005 52.2679C70.7203 52.1733 70.751 52.0812 70.7922 51.9934C70.8674 51.8379 70.9763 51.7009 71.1112 51.593C71.1832 51.5337 71.2644 51.4829 71.3543 51.4401C71.4299 51.4041 71.5116 51.374 71.5992 51.3491C71.7904 51.2946 71.9914 51.2634 72.2054 51.2634C72.38 51.2655 72.5537 51.2835 72.7248 51.3174C72.7904 51.329 72.8547 51.3459 72.9171 51.3676C73.0234 51.4047 73.1245 51.456 73.2173 51.52C73.2173 51.3354 73.2081 51.1645 73.1853 51.0063C73.1731 50.9228 73.156 50.8455 73.1329 50.7752C73.121 50.7392 73.1078 50.7048 73.093 50.6726C73.0822 50.6493 73.0705 50.6265 73.0581 50.6054C72.9941 50.4969 72.9031 50.407 72.7796 50.3483C72.6995 50.3076 72.6042 50.2795 72.4918 50.2653L72.4368 50.2594C72.3924 50.2557 72.3456 50.2536 72.2964 50.2536C72.0462 50.2536 71.8359 50.2811 71.6719 50.3393C71.6243 50.3562 71.5767 50.3742 71.5291 50.3927C71.413 50.4382 71.2966 50.489 71.18 50.5467L70.9882 49.9786ZM72.1739 53.1339C72.3392 53.1339 72.485 53.1127 72.6108 53.0683C72.6865 53.0413 72.755 53.0064 72.8164 52.962C72.9645 52.8641 73.0994 52.7472 73.2178 52.6149V52.1055C72.9671 51.9257 72.6614 51.8405 72.3062 51.8405C72.2646 51.8405 72.2231 51.8421 72.1819 51.8458C72.1163 51.8522 72.0512 51.8638 71.9872 51.8802C71.8819 51.9077 71.7867 51.9479 71.7092 52.0024C71.6317 52.0564 71.563 52.1241 71.5132 52.2098C71.4627 52.2954 71.44 52.3901 71.44 52.5028C71.44 52.6916 71.504 52.845 71.6317 52.962C71.7592 53.0752 71.9367 53.1339 72.1739 53.1339ZM74.603 49.704H78.2952V50.416H76.8088V53.7152H76.0888V50.4165H74.603V49.704ZM81.9845 53.5412C81.8829 53.5941 81.7747 53.6385 81.6592 53.6745C81.3857 53.7602 81.1122 53.8057 80.843 53.8057C80.5372 53.8094 80.2333 53.7591 79.9453 53.6565C79.6763 53.5576 79.4481 53.4174 79.2613 53.2328C79.0743 53.0482 78.9244 52.8271 78.8236 52.5705C78.7234 52.3129 78.6686 52.0251 78.6686 51.7093C78.6662 51.4295 78.7141 51.1518 78.8101 50.8889C78.8511 50.7741 78.903 50.6641 78.9648 50.5599C79.0357 50.4403 79.1198 50.3282 79.2158 50.2266C79.4007 50.0352 79.6226 49.8833 79.8681 49.7802C80.1275 49.6718 80.4237 49.6136 80.7612 49.6136C81.0122 49.612 81.2611 49.658 81.4952 49.749C81.7187 49.832 81.9231 49.9595 82.0964 50.123C82.268 50.288 82.4045 50.4858 82.4978 50.7043C82.5981 50.9296 82.6483 51.1777 82.6483 51.4523C82.6483 51.6374 82.6343 51.7956 82.6028 51.9347H79.4851C79.5171 52.3134 79.6578 52.6112 79.9178 52.8228C80.1778 53.0344 80.506 53.1381 80.9025 53.1381C81.167 53.1381 81.4084 53.0979 81.6224 53.017C81.8369 52.9355 82.0146 52.8366 82.1469 52.7186L82.3656 53.2777C82.2498 53.3814 82.1233 53.4692 81.9845 53.5412ZM80.725 50.2806C80.351 50.2806 80.0548 50.38 79.8316 50.5826C79.611 50.7815 79.47 51.054 79.4351 51.3491H81.8964C81.8782 51.0153 81.7687 50.754 81.5639 50.5647C81.3587 50.38 81.0807 50.2806 80.725 50.2806ZM83.911 49.704H82.9993L84.4894 51.6374L82.9311 53.7152H83.815L85.3009 51.6379L83.911 49.704ZM86.1991 49.704H85.4786V53.7152H86.1991V49.704ZM87.188 51.6374L88.7741 53.7152H87.8809L86.3765 51.6374L87.7756 49.7035H88.6696L87.188 51.6374ZM92.7715 53.2777C92.571 53.4576 92.3388 53.5888 92.0651 53.6745C91.8014 53.7591 91.5263 53.8035 91.2494 53.8057C90.9437 53.8094 90.6395 53.7591 90.3515 53.6565C90.0822 53.5576 89.8548 53.4174 89.6678 53.2328C89.4808 53.0482 89.3303 52.8271 89.2301 52.5705C89.1298 52.3129 89.0753 52.0251 89.0753 51.7093C89.0724 51.4295 89.1203 51.1518 89.2166 50.8889C89.3041 50.6424 89.4424 50.4165 89.6223 50.2266C89.8069 50.0352 90.0288 49.8833 90.274 49.7802C90.534 49.6718 90.8302 49.6136 91.1671 49.6136C91.4181 49.612 91.667 49.658 91.9011 49.749C92.1248 49.832 92.3293 49.9595 92.5028 50.123C92.6742 50.288 92.8104 50.4858 92.9038 50.7043C93.0045 50.9296 93.0542 51.1777 93.0542 51.4523C93.0542 51.6374 93.0408 51.7956 93.0088 51.9347H89.891C89.923 52.3134 90.0642 52.6112 90.3237 52.8228C90.5837 53.0344 90.9119 53.1381 91.3084 53.1381C91.5729 53.1381 91.8143 53.0979 92.0288 53.017C92.2428 52.9355 92.4205 52.8366 92.5528 52.7186L92.7715 53.2777ZM91.1314 50.2806C90.7577 50.2806 90.4612 50.38 90.2377 50.5826C90.0169 50.7815 89.8759 51.054 89.841 51.3491H92.3026C92.2846 51.0153 92.1751 50.754 91.9699 50.5647C91.7646 50.38 91.4824 50.2806 91.1314 50.2806ZM95.4769 48.1721C95.5928 48.2948 95.7597 48.3562 95.9765 48.3562C96.3775 48.3562 96.601 48.1219 96.633 47.6532H97.3074C97.3074 47.8331 97.2754 47.9954 97.2117 48.1488C97.1482 48.3022 97.0567 48.4329 96.943 48.5408C96.8919 48.5874 96.8374 48.6307 96.779 48.6699C96.7018 48.7217 96.6171 48.7662 96.5238 48.8021C96.4309 48.8402 96.3323 48.8667 96.2268 48.8831C96.1458 48.8952 96.0609 48.901 95.9718 48.901C95.8858 48.901 95.8038 48.8963 95.7261 48.8868C95.6018 48.8714 95.4878 48.8439 95.3841 48.8021C95.2156 48.7349 95.0694 48.6493 94.9556 48.5408C94.8869 48.4758 94.8279 48.4017 94.779 48.3197C94.747 48.2663 94.7192 48.2091 94.6956 48.1488C94.6626 48.0637 94.6383 47.9753 94.6232 47.8828C94.611 47.8092 94.6047 47.7331 94.6047 47.6532H95.2839C95.3016 47.8822 95.3661 48.0552 95.4769 48.1721ZM94.7501 53.7152H94.0299V49.7035H94.7501V52.6916L97.0929 49.7035H97.8134V53.7152H97.0929V50.7265L94.7501 53.7152Z" fill="white"/>
</svg>
