<svg width="35" height="35" viewBox="0 0 35 35" fill="none" xmlns="http://www.w3.org/2000/svg">
<g clip-path="url(#clip0_695_1895)">
<path d="M17.5 35C12.8336 35 8.44657 33.1797 5.14686 29.8744C1.84716 26.569 0.0300293 22.1745 0.0300293 17.5C0.0300293 12.8255 1.84716 8.43104 5.14686 5.12559C8.44657 1.82034 12.8336 0 17.5 0C22.1664 0 26.5535 1.82034 29.8532 5.12559C33.1528 8.43104 34.97 12.8255 34.97 17.5C34.97 22.1745 33.1528 26.569 29.8532 29.8744C26.5535 33.1797 22.1664 35 17.5 35Z" fill="#FECF05"/>
<path d="M17.5 32.1016C25.5507 32.1016 32.077 25.5642 32.077 17.5C32.077 9.43578 25.5507 2.89844 17.5 2.89844C9.44942 2.89844 2.9231 9.43578 2.9231 17.5C2.9231 25.5642 9.44942 32.1016 17.5 32.1016Z" fill="#EE3835"/>
<path d="M31.8398 20.1339C31.9978 19.2649 32.0771 18.3834 32.0769 17.5001C32.0769 16.6008 31.9952 15.7206 31.8399 14.8663L17.7225 17.5001L31.8398 20.1339ZM25.7797 5.48197L17.6573 17.3425L29.4976 9.20626C28.4929 7.75088 27.2333 6.48916 25.7797 5.48197ZM17.5 17.2771L20.1294 3.13567C19.2619 2.9775 18.3818 2.89802 17.5 2.89819C16.6182 2.89796 15.7382 2.97742 14.8707 3.13561L17.5 17.2771ZM5.5025 9.20619L17.3426 17.3425L9.22043 5.48184C7.76675 6.48903 6.50718 7.75078 5.5025 9.20619ZM3.16017 14.8661C3.00223 15.7352 2.92288 16.6168 2.9231 17.5001C2.9231 18.3994 3.00479 19.2796 3.1601 20.1339L17.2775 17.5001L3.16017 14.8661ZM9.22036 29.5183L17.3426 17.6577L5.50236 25.7939C6.50707 27.2493 7.76666 28.5111 9.22036 29.5183ZM17.5 32.1019C18.3977 32.1019 19.2764 32.0202 20.1293 31.8645L17.5 17.7231L14.8707 31.8646C15.7382 32.0227 16.6182 32.1022 17.5 32.1019ZM29.4976 25.7939L17.6573 17.6577L25.7796 29.5183C27.2332 28.511 28.4928 27.2493 29.4976 25.7939Z" fill="#C0272D"/>
<path d="M17.6113 33.6133C17.6001 33.3218 17.8268 33.0761 18.1184 33.0648C18.2583 33.0594 18.3947 33.1097 18.4976 33.2048C18.6004 33.2999 18.6614 33.4319 18.667 33.5718C18.6782 33.8634 18.4507 34.1091 18.1599 34.1204H18.1388C18.0024 34.1204 17.8713 34.0676 17.773 33.9731C17.6746 33.8786 17.6167 33.7496 17.6113 33.6133ZM15.6198 34.0274C15.5509 34.0197 15.4841 33.9986 15.4234 33.9651C15.3626 33.9316 15.3091 33.8864 15.2659 33.8322C15.2226 33.7779 15.1905 33.7157 15.1714 33.649C15.1522 33.5823 15.1465 33.5125 15.1544 33.4436C15.1868 33.1535 15.4487 32.945 15.7382 32.9781C15.8071 32.9858 15.8738 33.0071 15.9345 33.0406C15.9953 33.0741 16.0488 33.1193 16.092 33.1735C16.1352 33.2277 16.1674 33.2899 16.1865 33.3566C16.2057 33.4232 16.2115 33.493 16.2037 33.5619C16.1734 33.8316 15.9445 34.0309 15.6797 34.0309C15.6597 34.0313 15.6397 34.0301 15.6198 34.0274ZM20.0656 33.4098C20.0523 33.3418 20.0526 33.2717 20.0664 33.2038C20.0802 33.1358 20.1072 33.0712 20.146 33.0137C20.1848 32.9562 20.2346 32.907 20.2924 32.8687C20.3503 32.8305 20.4151 32.804 20.4832 32.7908V32.7901C20.7698 32.7344 21.0466 32.9218 21.1029 33.2084C21.1585 33.4943 20.9712 33.7717 20.6853 33.8274C20.6517 33.8338 20.6175 33.8371 20.5832 33.8373C20.4608 33.837 20.3423 33.7942 20.2479 33.7162C20.1535 33.6383 20.089 33.53 20.0656 33.4098ZM13.1227 33.5486C12.841 33.4718 12.6748 33.1817 12.7522 32.9C12.7705 32.8331 12.8017 32.7705 12.8442 32.7157C12.8867 32.6609 12.9396 32.615 12.9999 32.5806C13.0601 32.5463 13.1265 32.5242 13.1953 32.5156C13.2641 32.5069 13.334 32.5119 13.4008 32.5303C13.5359 32.5673 13.6508 32.6563 13.7203 32.7779C13.7897 32.8996 13.8081 33.0438 13.7713 33.1789C13.7407 33.2905 13.6743 33.3891 13.5824 33.4593C13.4904 33.5296 13.3779 33.5677 13.2621 33.5677C13.215 33.5676 13.1681 33.5611 13.1227 33.5486ZM22.4599 32.8331C22.4125 32.7013 22.4193 32.5561 22.4788 32.4293C22.5384 32.3025 22.6458 32.2046 22.7775 32.157C23.0515 32.0577 23.3543 32.2 23.4536 32.4739C23.5012 32.6057 23.4946 32.751 23.4352 32.8779C23.3758 33.0048 23.2684 33.1029 23.1367 33.1507L23.136 33.1499C23.0787 33.171 23.0182 33.1818 22.9571 33.1816C22.8485 33.1815 22.7426 33.148 22.6536 33.0857C22.5647 33.0233 22.4971 32.9351 22.4599 32.8331ZM10.7269 32.6909C10.4607 32.5718 10.3417 32.2592 10.4607 31.9929C10.5797 31.7267 10.8924 31.6077 11.1586 31.7267C11.4248 31.8458 11.5438 32.1584 11.4248 32.4246C11.3831 32.5177 11.3154 32.5968 11.2298 32.6523C11.1442 32.7077 11.0444 32.7373 10.9424 32.7373C10.8681 32.7374 10.7946 32.7216 10.7269 32.6909ZM24.736 31.8951C24.5959 31.6394 24.6895 31.3182 24.9451 31.1782C25.2015 31.038 25.5226 31.1324 25.662 31.388C25.6954 31.4488 25.7164 31.5156 25.7239 31.5845C25.7315 31.6535 25.7253 31.7232 25.7059 31.7898C25.6865 31.8563 25.6542 31.9184 25.6107 31.9725C25.5673 32.0265 25.5137 32.0715 25.4529 32.1048C25.3752 32.1475 25.288 32.1698 25.1994 32.1696C25.1046 32.1698 25.0115 32.1443 24.93 32.096C24.8485 32.0477 24.7815 31.9783 24.736 31.8951ZM8.49234 31.4754C8.43412 31.4377 8.38389 31.3889 8.34452 31.3318C8.30515 31.2747 8.27741 31.2105 8.26289 31.1426C8.24838 31.0748 8.24736 31.0048 8.2599 30.9366C8.27245 30.8684 8.29831 30.8033 8.336 30.7451C8.37367 30.6869 8.42244 30.6366 8.47954 30.5972C8.53663 30.5579 8.60092 30.5301 8.66874 30.5156C8.73656 30.5011 8.80657 30.5 8.87479 30.5126C8.943 30.5251 9.00807 30.551 9.06629 30.5887C9.31136 30.7472 9.38108 31.0746 9.22263 31.3197C9.17461 31.3937 9.10886 31.4545 9.03136 31.4965C8.95386 31.5386 8.86708 31.5606 8.77891 31.5605C8.67715 31.5606 8.57757 31.531 8.49234 31.4754ZM26.8416 30.6197C26.7564 30.5085 26.7188 30.3679 26.7372 30.229C26.7555 30.09 26.8283 29.9641 26.9395 29.8788C27.1712 29.7014 27.5029 29.7458 27.6803 29.9768C27.8578 30.2085 27.8134 30.5402 27.5824 30.7176C27.4902 30.7882 27.3774 30.8266 27.2613 30.8268C27.1801 30.8269 27.1 30.8083 27.0272 30.7724C26.9544 30.7365 26.8909 30.6842 26.8416 30.6197ZM6.46986 29.9338C6.41806 29.8877 6.37586 29.8318 6.34567 29.7693C6.31548 29.7069 6.29789 29.6391 6.2939 29.5698C6.28991 29.5006 6.29961 29.4312 6.32244 29.3657C6.34526 29.3002 6.38077 29.2398 6.42693 29.188C6.62059 28.9704 6.95508 28.9507 7.17267 29.145C7.22447 29.1912 7.26668 29.2471 7.29688 29.3095C7.32708 29.372 7.34468 29.4398 7.34867 29.509C7.35266 29.5783 7.34297 29.6477 7.32015 29.7132C7.29733 29.7787 7.26182 29.8391 7.21566 29.8909C7.16612 29.9465 7.10537 29.991 7.0374 30.0215C6.96943 30.0519 6.89578 30.0676 6.8213 30.0676C6.69169 30.0677 6.56659 30.0201 6.46986 29.9338ZM28.7297 29.0373C28.5191 28.8359 28.512 28.5013 28.7141 28.2908C28.9155 28.0803 29.25 28.0731 29.4606 28.2753C29.5107 28.3233 29.5508 28.3806 29.5787 28.4441C29.6066 28.5076 29.6217 28.576 29.6231 28.6453C29.6245 28.7146 29.6123 28.7835 29.5871 28.8481C29.5619 28.9127 29.5242 28.9717 29.4761 29.0217C29.427 29.0733 29.3679 29.1143 29.3024 29.1423C29.2369 29.1702 29.1663 29.1846 29.0951 29.1845C28.9588 29.1849 28.8277 29.1321 28.7297 29.0373ZM4.70571 28.1034C4.51977 27.8789 4.55149 27.5458 4.77612 27.3598C5.00075 27.1739 5.33387 27.2055 5.5198 27.4302C5.70574 27.6549 5.67402 27.988 5.44939 28.1738C5.35484 28.2524 5.23572 28.2953 5.11279 28.295C5.03501 28.295 4.95819 28.2779 4.88781 28.2448C4.81743 28.2117 4.75525 28.1634 4.70571 28.1034ZM30.3558 27.1873C30.2411 27.1068 30.1631 26.984 30.1389 26.846C30.1148 26.708 30.1464 26.566 30.2269 26.4513C30.3074 26.3367 30.4302 26.2587 30.5682 26.2345C30.7062 26.2103 30.8481 26.242 30.9628 26.3225C31.0549 26.387 31.1239 26.4792 31.16 26.5856C31.196 26.6921 31.1972 26.8073 31.1632 26.9144C31.1293 27.0216 31.0621 27.1151 30.9713 27.1814C30.8806 27.2477 30.771 27.2833 30.6586 27.2831C30.5502 27.2832 30.4444 27.2498 30.3558 27.1873ZM3.24022 26.0274C3.20456 25.9679 3.18099 25.9019 3.17086 25.8332C3.16073 25.7646 3.16423 25.6946 3.18117 25.6273C3.19811 25.56 3.22815 25.4967 3.26958 25.441C3.31101 25.3853 3.36301 25.3383 3.42261 25.3027C3.48216 25.2672 3.54813 25.2438 3.61675 25.2338C3.68536 25.2238 3.75528 25.2274 3.8225 25.2444C3.88972 25.2614 3.95294 25.2915 4.00853 25.3329C4.06413 25.3743 4.11102 25.4263 4.14653 25.4859C4.18219 25.5454 4.20576 25.6113 4.2159 25.6799C4.22603 25.7485 4.22252 25.8184 4.20558 25.8857C4.18864 25.9529 4.15859 26.0162 4.11716 26.0718C4.07573 26.1274 4.02373 26.1743 3.96415 26.2098C3.88247 26.2588 3.78898 26.2846 3.69372 26.2845C3.60232 26.2847 3.51246 26.2611 3.43295 26.216C3.35345 26.1709 3.28703 26.1059 3.24022 26.0274ZM31.6825 25.1113C31.4212 24.9817 31.3135 24.6648 31.443 24.4035C31.5719 24.1416 31.8888 24.0345 32.1508 24.1642C32.412 24.293 32.5191 24.6099 32.3895 24.8719C32.2979 25.0578 32.1106 25.1655 31.9162 25.1655C31.8352 25.1654 31.7553 25.1468 31.6825 25.1113ZM2.10785 23.7521C1.998 23.4817 2.12904 23.1739 2.39872 23.0647C2.46299 23.0386 2.53177 23.0254 2.60114 23.0259C2.6705 23.0264 2.73909 23.0406 2.80298 23.0676C2.86687 23.0946 2.92481 23.1339 2.97349 23.1834C3.02217 23.2328 3.06064 23.2913 3.08669 23.3556C3.1128 23.4199 3.126 23.4886 3.12552 23.558C3.12503 23.6274 3.11089 23.696 3.08388 23.7599C3.05687 23.8238 3.01754 23.8817 2.96812 23.9304C2.91871 23.9791 2.86018 24.0176 2.79589 24.0436C2.73157 24.0697 2.66275 24.0829 2.59334 24.0824C2.52394 24.0818 2.45532 24.0676 2.39141 24.0405C2.32751 24.0134 2.26957 23.974 2.22091 23.9245C2.17225 23.875 2.13383 23.8164 2.10785 23.7521ZM32.6762 22.8556C32.398 22.7683 32.2438 22.4718 32.3311 22.1936C32.4191 21.9155 32.7156 21.7606 32.9938 21.8485C33.2719 21.9359 33.4262 22.2324 33.3389 22.5105C33.3052 22.6178 33.2383 22.7114 33.1477 22.7779C33.0571 22.8444 32.9477 22.8803 32.8353 22.8802C32.7813 22.8803 32.7276 22.872 32.6762 22.8556ZM1.33676 21.3296C1.32082 21.2621 1.31835 21.1921 1.32948 21.1236C1.34061 21.0552 1.36512 20.9896 1.40162 20.9306C1.43811 20.8716 1.48588 20.8203 1.54218 20.7798C1.59849 20.7393 1.66222 20.7103 1.72975 20.6944C1.79726 20.6784 1.86724 20.676 1.9357 20.6871C2.00416 20.6983 2.06976 20.7228 2.12874 20.7593C2.18773 20.7957 2.23895 20.8435 2.27948 20.8998C2.32001 20.9561 2.34905 21.0198 2.36495 21.0873C2.39702 21.2236 2.37365 21.3671 2.29997 21.4863C2.22629 21.6054 2.10833 21.6904 1.97202 21.7226C1.93228 21.7317 1.89166 21.7364 1.85089 21.7366C1.61067 21.7366 1.39377 21.5725 1.33676 21.3296ZM33.3121 20.4767C33.1736 20.4554 33.0493 20.38 32.9664 20.2671C32.8835 20.1542 32.8488 20.0131 32.8698 19.8746C32.9142 19.5866 33.1832 19.388 33.472 19.4323C33.7599 19.476 33.9586 19.7457 33.9142 20.0337C33.8951 20.1585 33.832 20.2723 33.7363 20.3546C33.6406 20.4369 33.5186 20.4822 33.3924 20.4824C33.3663 20.4824 33.3395 20.4809 33.3121 20.4767ZM0.945877 18.8169C0.922635 18.5268 1.14029 18.2725 1.43109 18.2493C1.72189 18.2267 1.97619 18.4444 1.99868 18.7345C2.02192 19.0254 1.80433 19.2796 1.51347 19.3028C1.37378 19.3136 1.23554 19.2685 1.12912 19.1774C1.02269 19.0862 0.956787 18.9566 0.945877 18.8169ZM33.0494 17.5C33.0494 17.4852 33.0502 17.4711 33.0509 17.457C33.0502 17.4429 33.0494 17.4289 33.0494 17.414C33.0473 17.1225 33.2832 16.8845 33.5748 16.8831C33.8663 16.8816 34.1037 17.1168 34.1058 17.4085C34.1058 17.424 34.1051 17.4394 34.1037 17.4549C34.1051 17.4697 34.1058 17.4845 34.1058 17.5C34.1057 17.6401 34.0501 17.7744 33.951 17.8734C33.852 17.9725 33.7176 18.0282 33.5776 18.0282C33.4375 18.0281 33.3032 17.9725 33.2042 17.8734C33.1051 17.7744 33.0495 17.6401 33.0494 17.5ZM1.42761 16.8415C1.35839 16.8365 1.29083 16.8179 1.2288 16.7867C1.16678 16.7556 1.11149 16.7126 1.06611 16.6601C1.02072 16.6075 0.986129 16.5466 0.964303 16.4807C0.942477 16.4149 0.933847 16.3453 0.938905 16.2761C0.960028 15.9852 1.21282 15.7662 1.50369 15.788C1.79456 15.8091 2.01351 16.062 1.99246 16.3529C1.9828 16.4859 1.9232 16.6103 1.82563 16.7012C1.72806 16.7921 1.59972 16.8428 1.46637 16.843C1.4529 16.843 1.44025 16.8422 1.42761 16.8415ZM32.8565 15.0402C32.8348 14.9018 32.8689 14.7604 32.9513 14.6472C33.0336 14.5339 33.1576 14.4579 33.2959 14.4359C33.4343 14.4143 33.5756 14.4484 33.6889 14.5307C33.8021 14.6131 33.8781 14.737 33.9002 14.8753C33.946 15.1634 33.7494 15.4338 33.4607 15.4796C33.3224 15.5013 33.181 15.4673 33.0677 15.3849C32.9544 15.3025 32.8785 15.1785 32.8565 15.0402ZM1.71212 14.3951C1.42829 14.3296 1.25015 14.0465 1.31563 13.762C1.38044 13.4775 1.66427 13.2999 1.94871 13.3654C2.23247 13.4302 2.41068 13.7141 2.34519 13.9978C2.31855 14.1143 2.25321 14.2183 2.15985 14.2929C2.06649 14.3674 1.95061 14.4081 1.83113 14.4084C1.79109 14.4084 1.75117 14.404 1.71212 14.3951ZM32.3051 12.7246C32.2156 12.4472 32.3691 12.1493 32.6466 12.0606C32.7127 12.0393 32.7823 12.0313 32.8515 12.0369C32.9207 12.0426 32.988 12.0618 33.0498 12.0936C33.1115 12.1253 33.1664 12.1688 33.2113 12.2218C33.2562 12.2747 33.2902 12.336 33.3114 12.4021C33.4002 12.6796 33.2473 12.9767 32.9698 13.0662C32.9174 13.0828 32.8628 13.0913 32.8078 13.0915C32.696 13.0914 32.5871 13.0558 32.4967 12.9899C32.4064 12.924 32.3393 12.8311 32.3051 12.7246ZM2.36844 12.019C2.09732 11.9112 1.96559 11.6035 2.0734 11.3331C2.18182 11.062 2.48889 10.9296 2.76 11.0381C3.03043 11.1458 3.16284 11.4535 3.05435 11.7239C3.01534 11.8221 2.94778 11.9063 2.86041 11.9657C2.77304 12.0251 2.66986 12.0569 2.56422 12.057C2.49711 12.0572 2.43062 12.0442 2.36844 12.019ZM31.405 10.5211C31.374 10.459 31.3554 10.3914 31.3505 10.3222C31.3455 10.253 31.3542 10.1835 31.3761 10.1177C31.398 10.0518 31.4327 9.99092 31.4781 9.93847C31.5236 9.88602 31.5789 9.84303 31.6409 9.81196C31.7029 9.78082 31.7704 9.76221 31.8396 9.75721C31.9088 9.75222 31.9783 9.76093 32.0441 9.78284C32.1099 9.80476 32.1708 9.83945 32.2232 9.88493C32.2755 9.93041 32.3184 9.98578 32.3494 10.0479C32.4803 10.3085 32.3747 10.6253 32.1142 10.7563C32.041 10.7931 31.9602 10.8124 31.8783 10.8126C31.7801 10.8126 31.6839 10.7854 31.6004 10.7339C31.5168 10.6824 31.4492 10.6087 31.405 10.5211ZM3.38111 9.77252C3.32131 9.73735 3.26903 9.69072 3.22727 9.63531C3.18551 9.5799 3.15509 9.5168 3.13776 9.44962C3.12042 9.38243 3.11651 9.31249 3.12625 9.2438C3.13598 9.1751 3.15917 9.109 3.19449 9.04928C3.34242 8.79785 3.66631 8.71473 3.91773 8.86273C4.16909 9.01134 4.25222 9.33523 4.10429 9.58597C4.05753 9.66519 3.9909 9.73083 3.91099 9.7764C3.83108 9.82198 3.74066 9.8459 3.64867 9.8458C3.55451 9.84593 3.46207 9.82061 3.38111 9.77252ZM30.179 8.48094C30.0107 8.24291 30.0664 7.91335 30.3044 7.74437C30.5424 7.57531 30.872 7.63171 31.041 7.86905H31.0403C31.0805 7.92559 31.1092 7.98949 31.1247 8.05712C31.1402 8.12474 31.1422 8.19476 31.1306 8.26317C31.1191 8.33158 31.0941 8.39703 31.0572 8.4558C31.0203 8.51456 30.9722 8.56547 30.9157 8.60563C30.8265 8.6692 30.7196 8.70318 30.61 8.70276C30.5257 8.70294 30.4425 8.68289 30.3675 8.64429C30.2925 8.60569 30.2279 8.54968 30.179 8.48094ZM4.72403 7.70697C4.67037 7.66306 4.62589 7.60901 4.59313 7.5479C4.56037 7.48679 4.53997 7.41983 4.5331 7.35084C4.52623 7.28184 4.53303 7.21217 4.5531 7.1458C4.57317 7.07943 4.60612 7.01767 4.65007 6.96404C4.69397 6.91037 4.74802 6.86589 4.80913 6.83312C4.87024 6.80036 4.93721 6.77996 5.00621 6.7731C5.07521 6.76623 5.14489 6.77304 5.21126 6.79312C5.27762 6.81321 5.33938 6.84618 5.393 6.89015C5.61913 7.07465 5.65222 7.40708 5.46765 7.63308C5.41805 7.69365 5.35562 7.74244 5.28487 7.77594C5.21411 7.80943 5.1368 7.82678 5.05851 7.82674C4.94094 7.82674 4.82267 7.78805 4.72403 7.70697ZM28.6571 6.64993C28.4536 6.44014 28.4592 6.10634 28.6684 5.90277C28.7182 5.85448 28.7771 5.81649 28.8416 5.79096C28.9062 5.76544 28.9751 5.75287 29.0445 5.75399C29.1139 5.75511 29.1824 5.76988 29.246 5.79748C29.3097 5.82507 29.3673 5.86493 29.4156 5.9148C29.6184 6.12391 29.6135 6.45839 29.4036 6.66196C29.3051 6.75753 29.1733 6.81086 29.036 6.81058C28.9653 6.81066 28.8953 6.79647 28.8302 6.76887C28.7651 6.74127 28.7062 6.70081 28.6571 6.64993ZM6.36561 5.87036C6.27198 5.76628 6.22347 5.62929 6.23074 5.48948C6.23801 5.34966 6.30045 5.21845 6.40437 5.12463C6.62128 4.9296 6.95576 4.94717 7.15086 5.16407C7.34596 5.38023 7.32832 5.71478 7.11141 5.90987C7.01435 5.99713 6.88838 6.0453 6.75786 6.04509C6.68385 6.04528 6.61064 6.02981 6.54304 5.9997C6.47544 5.96958 6.41497 5.92551 6.36561 5.87036ZM26.874 5.07117C26.6417 4.8944 26.5958 4.5634 26.7727 4.33105C26.8145 4.27579 26.8668 4.22931 26.9266 4.19427C26.9864 4.15923 27.0526 4.13631 27.1212 4.12683C27.1899 4.11734 27.2598 4.12148 27.3268 4.139C27.3939 4.15651 27.4569 4.18707 27.5121 4.22892C27.6237 4.31357 27.6972 4.43908 27.7163 4.57786C27.7355 4.71664 27.6987 4.85734 27.6142 4.96905C27.5649 5.03418 27.5011 5.08697 27.4279 5.12326C27.3547 5.15955 27.2741 5.17834 27.1924 5.17816C27.0775 5.17787 26.9658 5.14033 26.874 5.07117ZM8.26559 4.30425C8.1057 4.06062 8.17406 3.73242 8.41769 3.57253C8.66208 3.41271 8.98952 3.481 9.14941 3.7247C9.30931 3.96902 9.24095 4.29653 8.99731 4.45635C8.91132 4.51278 8.81073 4.5429 8.70788 4.54303C8.62015 4.54298 8.5338 4.52113 8.4566 4.47945C8.3794 4.43778 8.31377 4.37757 8.26559 4.30425ZM24.8719 3.78096V3.78178C24.7487 3.71502 24.657 3.60207 24.617 3.46776C24.577 3.33344 24.592 3.18874 24.6586 3.06544C24.7966 2.80916 25.1178 2.71339 25.3741 2.85216C25.6304 2.99086 25.7262 3.31126 25.5874 3.56768C25.5422 3.65151 25.4751 3.72155 25.3933 3.77039C25.3114 3.81923 25.218 3.84506 25.1227 3.84515C25.035 3.84525 24.9488 3.82317 24.8719 3.78096ZM10.3818 3.04582C10.353 2.98271 10.3369 2.91455 10.3345 2.84523C10.3321 2.77591 10.3434 2.70679 10.3677 2.64184C10.3921 2.57688 10.429 2.51736 10.4763 2.46669C10.5237 2.41601 10.5806 2.37517 10.6437 2.34651C10.9093 2.22606 11.2226 2.34295 11.3431 2.60853C11.3718 2.67163 11.3879 2.7398 11.3903 2.80911C11.3927 2.87843 11.3814 2.94754 11.3571 3.01249C11.3327 3.07744 11.2958 3.13695 11.2485 3.18762C11.2011 3.23829 11.1442 3.27912 11.081 3.30778V3.30846C11.0124 3.33938 10.938 3.35545 10.8628 3.35563C10.6621 3.35563 10.4698 3.24078 10.3818 3.04582ZM22.6958 2.81408V2.8134C22.6304 2.79032 22.5702 2.75456 22.5187 2.70818C22.4671 2.66179 22.4252 2.60568 22.3954 2.54307C22.3656 2.48047 22.3484 2.41259 22.3448 2.34332C22.3413 2.27406 22.3514 2.20478 22.3747 2.13945C22.4727 1.86478 22.7747 1.72109 23.0494 1.81829C23.1813 1.86531 23.2893 1.96274 23.3495 2.08921C23.4097 2.21568 23.4173 2.36087 23.3706 2.49293C23.3338 2.59563 23.2663 2.6845 23.1772 2.7474C23.0881 2.8103 22.9818 2.84416 22.8727 2.84437C22.8125 2.8443 22.7527 2.83406 22.6958 2.81408ZM12.6663 2.12605C12.6288 1.99111 12.6464 1.8468 12.7151 1.7248C12.7839 1.6028 12.8983 1.51308 13.0332 1.47533C13.3142 1.39713 13.6058 1.56126 13.684 1.84222C13.7628 2.12318 13.5987 2.4148 13.3178 2.49293C13.2712 2.50601 13.2231 2.51266 13.1748 2.51269C13.0595 2.51251 12.9474 2.47463 12.8556 2.40483C12.7638 2.33503 12.6973 2.23713 12.6663 2.12605ZM20.398 2.19297C20.1114 2.13876 19.9234 1.86266 19.9769 1.5761C19.9898 1.50788 20.016 1.44288 20.054 1.3848C20.0921 1.32672 20.1411 1.27669 20.1985 1.23758C20.2559 1.19847 20.3203 1.17105 20.3883 1.15686C20.4563 1.14268 20.5263 1.14203 20.5945 1.15493C20.6627 1.16782 20.7276 1.194 20.7856 1.23198C20.8436 1.26996 20.8935 1.319 20.9326 1.3763C20.9716 1.43359 20.999 1.49801 21.0131 1.56589C21.0273 1.63377 21.0279 1.70376 21.015 1.77188C20.9922 1.89273 20.928 2.00184 20.8333 2.08038C20.7387 2.15892 20.6196 2.20196 20.4967 2.20206C20.4642 2.20206 20.4311 2.19926 20.398 2.19297ZM15.0656 1.56974C15.0311 1.2803 15.2381 1.01685 15.5283 0.983078C15.8177 0.948556 16.0804 1.15562 16.1149 1.44505C16.1311 1.58415 16.0915 1.724 16.0048 1.83396C15.918 1.94392 15.7913 2.01503 15.6522 2.03171C15.6315 2.03452 15.6105 2.03595 15.5895 2.03602C15.4603 2.03577 15.3356 1.98819 15.2391 1.90228C15.1426 1.81637 15.0808 1.69807 15.0656 1.56974ZM18.0318 1.93238C17.9625 1.93004 17.8943 1.91406 17.8312 1.88535C17.7681 1.85665 17.7112 1.81579 17.6638 1.76511C17.6165 1.71443 17.5796 1.65491 17.5553 1.58997C17.5309 1.52502 17.5196 1.45592 17.522 1.3866C17.5242 1.31727 17.5401 1.24906 17.5687 1.18586C17.5973 1.12266 17.6381 1.06573 17.6887 1.01831C17.7393 0.970884 17.7988 0.933909 17.8637 0.909496C17.9287 0.885083 17.9978 0.873709 18.0671 0.876027V0.876847C18.1364 0.879046 18.2046 0.894896 18.2678 0.923489C18.331 0.952082 18.388 0.992857 18.4354 1.04348C18.4828 1.0941 18.5198 1.15358 18.5442 1.21851C18.5686 1.28344 18.58 1.35255 18.5777 1.42188C18.5729 1.55881 18.5151 1.68855 18.4166 1.78378C18.3181 1.87901 18.1865 1.93231 18.0495 1.93245L18.0318 1.93238ZM30.1854 17.5C30.1854 19.7982 28.3255 21.6613 26.0311 21.6613H8.96915C6.6748 21.6613 4.81495 19.7982 4.81495 17.5C4.81495 15.2018 6.6748 13.3387 8.96915 13.3387H26.0312C28.3254 13.3387 30.1854 15.2018 30.1854 17.5Z" fill="white"/>
<path d="M6.21412 17.4999C6.21412 15.2018 8.07404 13.3386 10.3684 13.3386H8.96914C6.67479 13.3386 4.81494 15.2018 4.81494 17.4999C4.81494 19.7981 6.67479 21.6612 8.96914 21.6612H10.3684C8.07404 21.6612 6.21412 19.7981 6.21412 17.4999Z" fill="black"/>
<path d="M26.0311 22.1739H8.96914C6.39582 22.1739 4.30225 20.0771 4.30225 17.4999C4.30225 14.9227 6.39582 12.8259 8.96914 12.8259H26.0312C28.6046 12.8259 30.6981 14.9227 30.6981 17.4999C30.6981 20.0771 28.6045 22.1739 26.0311 22.1739ZM8.96914 13.8513C6.96122 13.8513 5.32764 15.488 5.32764 17.4999C5.32764 19.5118 6.96122 21.1485 8.96914 21.1485H26.0312C28.0392 21.1485 29.6727 19.5118 29.6727 17.4999C29.6727 15.488 28.0392 13.8513 26.0312 13.8513H8.96914Z" fill="#FECF05"/>
<path d="M9.68281 14.8921H8.07568C7.93971 14.8921 7.8093 14.9461 7.71315 15.0423C7.617 15.1384 7.56299 15.2688 7.56299 15.4048V19.5952C7.56299 19.7312 7.617 19.8616 7.71315 19.9577C7.8093 20.0539 7.93971 20.1079 8.07568 20.1079H9.68281C10.5398 20.1079 11.237 19.406 11.237 18.5432C11.2374 18.158 11.0957 17.7863 10.839 17.4991C11.0858 17.2221 11.237 16.8572 11.237 16.4567C11.237 15.594 10.5398 14.8921 9.68281 14.8921ZM9.68281 19.0824H8.58838V18.0038H9.68281C9.97443 18.0038 10.2116 18.2458 10.2116 18.5432C10.2116 18.8405 9.97443 19.0824 9.68281 19.0824ZM9.68281 16.996H8.58838V15.9175H9.68281C9.97443 15.9175 10.2116 16.1594 10.2116 16.4567C10.2116 16.7541 9.97443 16.996 9.68281 16.996ZM13.4084 14.8918C12.4108 14.8918 11.5993 15.7068 11.5993 16.7084V18.2915C11.5993 19.293 12.4108 20.1078 13.4084 20.1078C14.4061 20.1078 15.2178 19.293 15.2178 18.2915V16.7084C15.2178 15.7068 14.4061 14.8918 13.4084 14.8918ZM14.1924 18.2915C14.1924 18.7276 13.8407 19.0824 13.4084 19.0824C12.9762 19.0824 12.6247 18.7276 12.6247 18.2915V16.7084C12.6247 16.2722 12.9762 15.9172 13.4084 15.9172C13.8407 15.9172 14.1924 16.2722 14.1924 16.7084V18.2915ZM26.0703 16.9872H25.2602C25.0752 16.9872 24.9189 16.7879 24.9189 16.5521V16.3525C24.9189 16.1166 25.0752 15.9172 25.2602 15.9172H26.49C26.7731 15.9172 27.0027 15.6878 27.0027 15.4045C27.0027 15.1213 26.7731 14.8918 26.49 14.8918H25.2602C24.5066 14.8918 23.8935 15.5471 23.8935 16.3525V16.5521C23.8935 17.3574 24.5066 18.0126 25.2602 18.0126H26.0703C26.2553 18.0126 26.4116 18.2119 26.4116 18.4477V18.6473C26.4116 18.8831 26.2553 19.0824 26.0703 19.0824H24.6668C24.3837 19.0824 24.1542 19.3119 24.1542 19.5951C24.1542 19.8783 24.3837 20.1078 24.6668 20.1078H26.0703C26.8239 20.1078 27.437 19.4526 27.437 18.6473V18.4477C27.437 17.6424 26.8239 16.9872 26.0703 16.9872ZM17.4741 14.8918C16.4766 14.8918 15.6649 15.7068 15.6649 16.7084V19.5951C15.6649 19.8783 15.8945 20.1078 16.1776 20.1078C16.4608 20.1078 16.6903 19.8783 16.6903 19.5951V16.7084C16.6903 16.2722 17.042 15.9172 17.4741 15.9172C17.9065 15.9172 18.2582 16.2722 18.2582 16.7084V19.5951C18.2582 19.8783 18.4878 20.1078 18.7709 20.1078C19.0541 20.1078 19.2836 19.8783 19.2836 19.5951V16.7084C19.2836 15.7068 18.4719 14.8918 17.4741 14.8918ZM22.9918 14.8918C22.8558 14.8918 22.7254 14.9459 22.6292 15.042C22.5331 15.1382 22.4791 15.2686 22.4791 15.4045V18.2915C22.4791 18.7276 22.1275 19.0824 21.6953 19.0824C21.263 19.0824 20.9113 18.7276 20.9113 18.2915V15.4045C20.9113 15.1213 20.6817 14.8918 20.3986 14.8918C20.1154 14.8918 19.8859 15.1213 19.8859 15.4045V18.2915C19.8859 19.293 20.6976 20.1078 21.6953 20.1078C22.6929 20.1078 23.5045 19.293 23.5045 18.2915V15.4045C23.5045 15.2686 23.4504 15.1382 23.3543 15.042C23.2581 14.9459 23.1277 14.8918 22.9918 14.8918Z" fill="#EE3835"/>
<path d="M13.1138 27.9037C13.0719 27.9037 13.0303 27.8961 12.9911 27.8813L11.9694 27.499L10.9477 27.8813C10.8936 27.9015 10.8353 27.9081 10.7781 27.9004C10.7208 27.8927 10.6664 27.8709 10.6195 27.8371C10.5728 27.8033 10.5353 27.7584 10.5102 27.7065C10.4851 27.6546 10.4733 27.5973 10.4759 27.5397L10.5249 26.4529L9.84442 25.6026C9.80841 25.5575 9.78416 25.5043 9.77385 25.4476C9.76354 25.3908 9.76749 25.3324 9.78536 25.2776C9.80328 25.2228 9.83451 25.1733 9.87627 25.1335C9.91802 25.0937 9.96899 25.0649 10.0246 25.0497L11.0766 24.7604L11.6778 23.8525C11.7424 23.7548 11.852 23.6961 11.9694 23.6961C12.0867 23.6961 12.1963 23.7548 12.2609 23.8525L12.8621 24.7604L13.9142 25.0497C13.9698 25.0648 14.0209 25.0936 14.0626 25.1333C14.1044 25.1731 14.1357 25.2226 14.1535 25.2774C14.1714 25.3323 14.1754 25.3907 14.1651 25.4475C14.1548 25.5042 14.1305 25.5575 14.0945 25.6026L13.414 26.4529L13.463 27.5398C13.4655 27.5974 13.4537 27.6547 13.4286 27.7065C13.4036 27.7584 13.366 27.8033 13.3193 27.8371C13.2596 27.8804 13.1876 27.9037 13.1138 27.9037ZM18.6443 27.9037C18.6024 27.9036 18.5608 27.8961 18.5215 27.8813L17.4998 27.499L16.4782 27.8813C16.4241 27.9016 16.3658 27.9081 16.3086 27.9004C16.2513 27.8927 16.1968 27.8709 16.15 27.8371C16.1033 27.8033 16.0658 27.7584 16.0407 27.7065C16.0157 27.6546 16.0039 27.5973 16.0065 27.5397L16.0555 26.4529L15.3749 25.6026C15.3389 25.5575 15.3146 25.5043 15.3043 25.4476C15.294 25.3908 15.298 25.3324 15.3158 25.2776C15.3338 25.2228 15.365 25.1733 15.4068 25.1335C15.4486 25.0937 15.4995 25.0649 15.5552 25.0497L16.6071 24.7604L17.2084 23.8525C17.273 23.7548 17.3825 23.6961 17.4999 23.6961C17.6173 23.6961 17.7269 23.7548 17.7914 23.8525L18.3926 24.7604L19.4447 25.0497C19.5003 25.0648 19.5514 25.0935 19.5932 25.1333C19.635 25.1731 19.6662 25.2226 19.6841 25.2774C19.702 25.3323 19.7059 25.3907 19.6956 25.4475C19.6853 25.5042 19.661 25.5575 19.6249 25.6026L18.9445 26.4529L18.9935 27.5398C18.996 27.5974 18.9842 27.6547 18.9592 27.7066C18.9341 27.7585 18.8965 27.8033 18.8498 27.8371C18.79 27.8804 18.7181 27.9037 18.6443 27.9037ZM24.1749 27.9037C24.1329 27.9037 24.0913 27.8961 24.052 27.8813L23.0304 27.499L22.0087 27.8813C21.9546 27.9015 21.8963 27.9081 21.8391 27.9004C21.7818 27.8926 21.7273 27.8709 21.6805 27.8371C21.6338 27.8033 21.5963 27.7584 21.5712 27.7065C21.5461 27.6546 21.5343 27.5973 21.5368 27.5397L21.5859 26.4529L20.9053 25.6026C20.8693 25.5575 20.845 25.5043 20.8347 25.4476C20.8244 25.3908 20.8284 25.3324 20.8462 25.2776C20.8642 25.2228 20.8954 25.1733 20.9372 25.1335C20.979 25.0937 21.0299 25.0649 21.0856 25.0497L22.1376 24.7604L22.7387 23.8525C22.7706 23.8044 22.814 23.7649 22.8649 23.7376C22.9158 23.7103 22.9726 23.696 23.0304 23.6961C23.0881 23.696 23.145 23.7103 23.1958 23.7376C23.2467 23.7649 23.29 23.8044 23.3219 23.8525L23.9232 24.7604L24.9752 25.0497C25.0308 25.0649 25.0818 25.0937 25.1236 25.1335C25.1653 25.1733 25.1966 25.2228 25.2145 25.2776C25.2324 25.3324 25.2364 25.3908 25.2261 25.4476C25.2158 25.5043 25.1915 25.5575 25.1555 25.6026L24.475 26.4529L24.5239 27.5398C24.5259 27.5868 24.5183 27.6338 24.5016 27.6779C24.485 27.7219 24.4596 27.7621 24.427 27.7961C24.3944 27.8301 24.3552 27.8572 24.3119 27.8757C24.2686 27.8941 24.222 27.9037 24.1749 27.9037ZM12.9568 10.933C12.9148 10.933 12.8732 10.9254 12.834 10.9106L11.8123 10.5284L10.7906 10.9106C10.7365 10.9308 10.6782 10.9374 10.621 10.9297C10.5637 10.922 10.5093 10.9003 10.4625 10.8665C10.4157 10.8327 10.3782 10.7878 10.3531 10.7359C10.328 10.684 10.3162 10.6266 10.3188 10.569L10.3678 9.48225L9.68726 8.63192C9.65125 8.58692 9.627 8.53367 9.61669 8.47696C9.60638 8.42026 9.61033 8.36188 9.6282 8.30708C9.64612 8.25225 9.67735 8.20273 9.71911 8.16293C9.76086 8.12313 9.81183 8.09431 9.86746 8.07903L10.9194 7.78987L11.5207 6.88186C11.5853 6.78417 11.6948 6.72552 11.8122 6.72552C11.9296 6.72552 12.0392 6.78417 12.1038 6.88186L12.7049 7.78987L13.757 8.07903C13.8127 8.0943 13.8636 8.12312 13.9054 8.16292C13.9472 8.20272 13.9784 8.25225 13.9964 8.30708C14.0142 8.36188 14.0182 8.42026 14.0079 8.47696C13.9976 8.53367 13.9733 8.58692 13.9373 8.63192L13.2568 9.48225L13.3058 10.5691C13.3083 10.6267 13.2965 10.684 13.2714 10.7359C13.2464 10.7878 13.2088 10.8327 13.1621 10.8665C13.1024 10.9097 13.0305 10.933 12.9568 10.933ZM24.332 10.933C24.29 10.933 24.2484 10.9254 24.2091 10.9106L23.1875 10.5284L22.1658 10.9106C22.1265 10.9254 22.0849 10.9329 22.043 10.9329C21.9959 10.933 21.9492 10.9236 21.9058 10.9052C21.8624 10.8867 21.8232 10.8597 21.7906 10.8257C21.7579 10.7917 21.7326 10.7514 21.7159 10.7073C21.6993 10.6631 21.6918 10.6161 21.6939 10.569L21.743 9.48225L21.0624 8.63192C21.0264 8.58692 21.0021 8.53367 20.9918 8.47696C20.9815 8.42026 20.9855 8.36188 21.0033 8.30708C21.0213 8.25225 21.0525 8.20273 21.0943 8.16293C21.1361 8.12314 21.187 8.09431 21.2427 8.07903L22.2947 7.78987L22.8958 6.88186C22.9277 6.83374 22.9711 6.79427 23.022 6.76699C23.0729 6.73971 23.1297 6.72546 23.1875 6.72552C23.2452 6.72547 23.302 6.73972 23.3529 6.767C23.4038 6.79428 23.4471 6.83374 23.479 6.88186L24.0803 7.78987L25.1323 8.07903C25.1879 8.09432 25.2389 8.12315 25.2807 8.16295C25.3224 8.20274 25.3537 8.25226 25.3716 8.30708C25.3895 8.36188 25.3935 8.42026 25.3832 8.47697C25.3729 8.53368 25.3486 8.58693 25.3126 8.63192L24.6321 9.48225L24.681 10.5691C24.6836 10.6267 24.6718 10.684 24.6467 10.7359C24.6216 10.7878 24.584 10.8327 24.5372 10.8665C24.4775 10.9097 24.4057 10.933 24.332 10.933ZM19.4577 11.3733C19.3859 11.3733 19.3147 11.3604 19.2475 11.3351L17.4998 10.6812L15.7521 11.3351C15.685 11.3604 15.6138 11.3733 15.5421 11.3732C15.4159 11.3732 15.293 11.3334 15.1907 11.2595C15.1108 11.2017 15.0465 11.125 15.0037 11.0362C14.9608 10.9474 14.9407 10.8494 14.9451 10.7509L15.0289 8.89176L13.8646 7.43714C13.8029 7.36014 13.7615 7.26902 13.7438 7.17199C13.7262 7.07496 13.733 6.97507 13.7635 6.88131C13.7942 6.78755 13.8477 6.70286 13.9192 6.63482C13.9906 6.56677 14.0778 6.51749 14.1729 6.49139L15.9726 5.99653L17.001 4.4432C17.0556 4.36091 17.1297 4.29342 17.2168 4.24676C17.3038 4.2001 17.401 4.17571 17.4998 4.17578C17.5985 4.1757 17.6957 4.20009 17.7827 4.24675C17.8697 4.29342 17.9438 4.36091 17.9984 4.4432L19.0269 5.99653L20.8266 6.49139C20.9218 6.51747 21.009 6.56674 21.0805 6.63478C21.152 6.70283 21.2054 6.78753 21.2362 6.88131C21.2667 6.97508 21.2735 7.07497 21.2558 7.17199C21.2382 7.26902 21.1967 7.36013 21.1351 7.43714L19.971 8.89176L20.0548 10.7511C20.0592 10.8496 20.039 10.9476 19.9961 11.0363C19.9532 11.1251 19.8889 11.2018 19.809 11.2596C19.7068 11.3336 19.5838 11.3733 19.4577 11.3733Z" fill="#FECF05"/>
<path d="M6.40926 29.8744C3.10955 26.569 1.29235 22.1745 1.29235 17.5C1.29235 12.8255 3.10955 8.43104 6.40926 5.12559C9.55967 1.96984 13.7016 0.169053 18.1312 0.0124414C17.9209 0.00455833 17.7105 0.000410543 17.5 0C12.8336 0 8.44657 1.82034 5.14686 5.12559C1.84716 8.43104 0.0300293 12.8255 0.0300293 17.5C0.0300293 22.1745 1.84723 26.569 5.14693 29.8744C8.44657 33.1797 12.8336 35 17.5 35C17.711 35 17.9214 34.995 18.1312 34.9876C13.7016 34.8309 9.55967 33.0302 6.40926 29.8744Z" fill="black"/>
</g>
<defs>
<clipPath id="clip0_695_1895">
<rect width="35" height="35" fill="white"/>
</clipPath>
</defs>
</svg>
