<svg width="35" height="27" viewBox="0 0 35 27" fill="none" xmlns="http://www.w3.org/2000/svg">
<g clip-path="url(#clip0_695_1861)">
<path d="M32.2454 5.0166H33.2035V14.6624H32.2454V5.0166Z" fill="#1D2943"/>
<path d="M33.0225 13.0703L29.9824 12.6875V18.5992L33.023 18.2164C33.3017 18.1812 33.5579 18.0456 33.7437 17.835C33.9294 17.6244 34.032 17.3532 34.032 17.0723V14.2144C34.032 13.633 33.5995 13.1425 33.0225 13.0703Z" fill="#1D2943"/>
<path d="M30.2421 11.854L29.1921 11.364V19.9226L30.2421 19.4326C30.5664 19.2811 30.7737 18.9557 30.7737 18.5975V12.6891C30.7737 12.3309 30.5664 12.0055 30.2421 11.854Z" fill="#4C5C75"/>
<path d="M25.9848 5.40479H3.28125C2.41101 5.40479 1.57641 5.75049 0.961055 6.36584C0.345702 6.98119 0 7.81579 0 8.68603V22.9578C0 23.8281 0.345702 24.6627 0.961055 25.278C1.57641 25.8934 2.41101 26.2391 3.28125 26.2391H25.9848C26.855 26.2391 27.6896 25.8934 28.3049 25.278C28.9203 24.6627 29.266 23.8281 29.266 22.9578V8.68603C29.266 7.81579 28.9203 6.98119 28.3049 6.36584C27.6896 5.75049 26.855 5.40479 25.9848 5.40479Z" fill="#FFD06C"/>
<path d="M19.5945 6.96226C21.175 6.615 23.9996 6.6068 25.6046 6.96226C23.8929 7.3418 21.071 7.28711 19.5945 6.96226Z" fill="white"/>
<path d="M3.2812 26.239H25.9847C26.8549 26.239 27.6895 25.8933 28.3049 25.2779C28.9203 24.6626 29.266 23.828 29.266 22.9577V8.68594C29.266 7.70703 28.8356 6.83203 28.1563 6.23047C25.4745 10.6749 17.7925 20.4169 0.39917 24.5273C0.681244 25.0454 1.09782 25.4778 1.60502 25.7791C2.11223 26.0803 2.69128 26.2392 3.2812 26.239Z" fill="#FEBC1F"/>
<path d="M3.07178 25.27C4.53193 24.949 7.37021 24.891 9.08193 25.27C7.35764 25.6523 4.52318 25.5894 3.07178 25.27Z" fill="white"/>
<path d="M26.4129 9.85567C26.2087 9.41247 25.8817 9.03705 25.4708 8.77382C25.0599 8.5106 24.5822 8.37059 24.0942 8.37036H5.1723C4.68462 8.37077 4.20724 8.51074 3.79656 8.77374C3.38587 9.03675 3.05903 9.41179 2.85465 9.85458C2.31324 11.0249 1.75488 13.0051 1.75488 16.1956C1.75488 19.385 2.31269 21.3652 2.8541 22.5355C3.05831 22.9786 3.38515 23.354 3.79597 23.6172C4.20679 23.8804 4.68439 24.0205 5.1723 24.0208H24.0942C24.5821 24.0206 25.0598 23.8807 25.4707 23.6176C25.8816 23.3545 26.2086 22.9792 26.4129 22.5361C26.9543 21.3657 27.5121 19.3855 27.5121 16.1956C27.5121 13.0057 26.9543 11.026 26.4135 9.85513L26.4129 9.85567Z" fill="#F3A250"/>
<path d="M24.0938 24.0216C24.5817 24.0214 25.0594 23.8815 25.4703 23.6184C25.8812 23.3552 26.2082 22.9799 26.4125 22.5368C26.9539 21.3665 27.5117 19.3863 27.5117 16.1964C27.5117 13.0064 26.9539 11.0267 26.4131 9.85589C26.2832 9.57469 26.1035 9.31937 25.8826 9.10229C22.5663 13.5035 15.8639 19.9764 3.59253 23.472C4.04212 23.8277 4.59859 24.0214 5.1719 24.0216H24.0938Z" fill="#EF7B56"/>
<path d="M14.6333 0C11.6484 0 9.22852 2.41992 9.22852 5.40476C12.7083 6.56359 16.3073 6.60461 20.0375 5.40476C20.0375 2.41992 17.6181 0 14.6333 0Z" fill="#FFD06C"/>
<path d="M32.7238 6.68879C33.9805 6.68879 34.9993 5.66999 34.9993 4.41324C34.9993 3.15649 33.9805 2.1377 32.7238 2.1377C31.467 2.1377 30.4482 3.15649 30.4482 4.41324C30.4482 5.66999 31.467 6.68879 32.7238 6.68879Z" fill="#F34B58"/>
<path d="M35.0001 4.41382C35.0025 5.00436 34.7753 5.57272 34.3663 5.99874C33.9573 6.42476 33.3987 6.67506 32.8086 6.69672C32.2184 6.71838 31.643 6.5097 31.2039 6.11481C30.7648 5.71992 30.4964 5.16975 30.4556 4.58061C30.606 4.9867 30.8771 5.33702 31.2325 5.58454C31.5878 5.83206 32.0104 5.96493 32.4435 5.9653C32.8237 5.96571 33.197 5.86368 33.5242 5.66993C33.8513 5.47618 34.1203 5.19788 34.3027 4.86426C34.4851 4.53065 34.5743 4.15405 34.5608 3.77406C34.5474 3.39407 34.4318 3.02472 34.2263 2.70483C34.4697 2.91792 34.6646 3.18062 34.7981 3.47529C34.9316 3.76996 35.0005 4.09033 35.0001 4.41382Z" fill="#E11226"/>
<path d="M32.724 4.19119C33.4129 4.19119 33.9714 3.81315 33.9714 3.34682C33.9714 2.88048 33.4129 2.50244 32.724 2.50244C32.0351 2.50244 31.4766 2.88048 31.4766 3.34682C31.4766 3.81315 32.0351 4.19119 32.724 4.19119Z" fill="#FA5F7F"/>
<path d="M26.3221 16.1963C26.3221 19.2544 25.7829 21.0607 25.3322 22.0369C25.2227 22.2734 25.048 22.4738 24.8286 22.6146C24.6092 22.7553 24.3542 22.8306 24.0936 22.8315H5.1717C4.64232 22.8315 4.15615 22.5198 3.93303 22.0369C3.4824 21.0607 2.94482 19.256 2.94482 16.1963C2.94482 13.1365 3.4824 11.3318 3.93467 10.3556C4.04403 10.119 4.2187 9.91849 4.43813 9.77772C4.65757 9.63695 4.91264 9.56178 5.17334 9.56104H24.0936C24.6224 9.56104 25.1091 9.87275 25.3317 10.3556C25.7845 11.3318 26.3221 13.1381 26.3221 16.1963Z" fill="#E3E7F0"/>
<path d="M25.3319 22.0369C25.783 21.0607 26.3217 19.2544 26.3217 16.1963C26.3217 13.1381 25.7847 11.3318 25.3319 10.3556C25.2802 10.2466 25.2141 10.1449 25.1355 10.0532C21.8231 14.122 15.819 19.4961 5.67773 22.8315H24.0937C24.6226 22.8315 25.1076 22.5198 25.3319 22.0369Z" fill="#C9CEE2"/>
<path d="M9.74977 10.7515H5.17243C5.13912 10.7522 5.10669 10.7623 5.07891 10.7807C5.05112 10.7991 5.02913 10.825 5.01548 10.8554C4.61407 11.7227 4.13501 13.3535 4.13501 16.1956C4.13501 19.0383 4.61353 20.669 5.01493 21.5369C5.02847 21.5674 5.05044 21.5934 5.07825 21.6118C5.10605 21.6302 5.13854 21.6403 5.17188 21.6408H9.74923C9.79792 21.641 9.84609 21.6307 9.89044 21.6106C9.9348 21.5905 9.9743 21.5611 10.0063 21.5243C10.0382 21.4876 10.0619 21.4444 10.0757 21.3977C10.0895 21.351 10.093 21.3019 10.0861 21.2537C9.93845 20.2244 9.79626 18.6095 9.79626 16.1956C9.79626 13.7833 9.93845 12.1679 10.0861 11.1381C10.0929 11.09 10.0893 11.041 10.0755 10.9944C10.0617 10.9478 10.0381 10.9047 10.0062 10.868C9.97432 10.8313 9.93491 10.802 9.89067 10.7818C9.84642 10.7617 9.79837 10.7514 9.74977 10.7515ZM24.2518 10.8554C24.2382 10.8249 24.2161 10.7989 24.1882 10.7805C24.1603 10.7621 24.1277 10.752 24.0943 10.7515H19.517C19.4683 10.7513 19.4202 10.7616 19.3759 10.7817C19.3316 10.8017 19.2921 10.8311 19.2601 10.8678C19.2282 10.9045 19.2045 10.9476 19.1907 10.9942C19.1769 11.0409 19.1733 11.0899 19.1801 11.1381C19.3277 12.1673 19.4699 13.7833 19.4699 16.1956C19.4699 18.6073 19.3277 20.2239 19.1801 21.2537C19.1733 21.3018 19.1769 21.3508 19.1906 21.3974C19.2044 21.444 19.2281 21.4871 19.26 21.5238C19.2919 21.5604 19.3313 21.5898 19.3755 21.6099C19.4198 21.63 19.4678 21.6404 19.5164 21.6403H24.0938C24.1272 21.6397 24.1597 21.6296 24.1876 21.6112C24.2155 21.5928 24.2376 21.5669 24.2513 21.5364C24.6527 20.669 25.1312 19.0383 25.1312 16.1956C25.1312 13.3535 24.6527 11.7227 24.2518 10.8554ZM17.4525 10.7515H11.8142C11.7338 10.7511 11.6559 10.7794 11.5944 10.8312C11.5329 10.883 11.4918 10.9549 11.4784 11.0342C11.3204 11.9951 11.1574 13.6122 11.1574 16.1956C11.1574 18.7807 11.3204 20.3972 11.4784 21.3581C11.5058 21.5211 11.648 21.6403 11.8137 21.6403H17.452C17.5324 21.6406 17.6103 21.6124 17.6718 21.5606C17.7333 21.5088 17.7744 21.4368 17.7877 21.3576C17.9463 20.3962 18.1093 18.779 18.1093 16.1956C18.1093 13.6122 17.9458 11.9945 17.7883 11.0342C17.7749 10.9549 17.7338 10.883 17.6723 10.8312C17.6108 10.7794 17.5329 10.7511 17.4525 10.7515Z" fill="white"/>
<path d="M10.0859 21.2537L10.0723 21.1487C9.69055 21.3149 9.30555 21.4801 8.91016 21.6408H9.74961C9.79826 21.6409 9.84636 21.6306 9.89065 21.6104C9.93494 21.5903 9.97438 21.5609 10.0063 21.5241C10.0382 21.4874 10.0618 21.4442 10.0756 21.3976C10.0893 21.3509 10.0928 21.3018 10.0859 21.2537ZM19.1799 21.2537C19.1731 21.3018 19.1767 21.3508 19.1905 21.3974C19.2043 21.444 19.2279 21.4871 19.2598 21.5238C19.2917 21.5604 19.3311 21.5898 19.3754 21.6099C19.4196 21.63 19.4676 21.6404 19.5162 21.6403H24.0936C24.127 21.6397 24.1595 21.6296 24.1874 21.6112C24.2153 21.5928 24.2374 21.5669 24.2511 21.5364C24.6525 20.669 25.131 19.0383 25.131 16.1956C25.131 13.5094 24.7044 11.9136 24.3189 11.0134C23.0463 12.4616 21.4456 14.0289 19.4654 15.5886C19.467 15.7876 19.4698 15.9845 19.4698 16.1956C19.4698 18.6073 19.3276 20.2239 19.1799 21.2537ZM11.8135 21.6403H17.4518C17.5322 21.6406 17.6101 21.6124 17.6716 21.5606C17.7331 21.5088 17.7742 21.4369 17.7876 21.3576C17.9369 20.4508 18.0884 18.9491 18.1059 16.6145C16.1885 17.9937 13.9529 19.339 11.3684 20.5624C11.4034 20.8654 11.4411 21.1312 11.4777 21.3576C11.5051 21.5216 11.6473 21.6403 11.8135 21.6403Z" fill="#F8F9FE"/>
<path d="M14.2789 15.1944C14.309 14.863 14.3752 14.3533 14.4298 14.0848C15.0369 14.0761 15.5444 14.1384 16.0202 14.0668C16.2493 14.0312 16.3685 13.1458 15.8331 13.1633C15.3076 13.1814 14.8411 13.1726 14.1258 13.1726C13.5707 13.1726 13.347 13.3515 13.3033 13.7272C13.2185 14.4162 13.1217 15.3459 13.078 15.7222C13.0189 16.2144 13.7342 16.2144 13.9513 16.1422C15.0943 15.7577 15.26 16.6256 15.1895 17.3683C15.1375 17.9315 14.9199 18.3608 14.4271 18.3526C13.9874 18.3433 13.7315 18.0119 13.7632 17.5115C13.7867 17.1085 12.7444 16.9745 12.693 17.359C12.5699 18.2985 13.1808 19.238 14.5042 19.2293C15.6669 19.2293 16.4609 18.3882 16.5698 17.3951C16.7131 16.1154 16.0262 14.7646 14.2784 15.1944H14.2789ZM22.0063 15.1944C22.0369 14.8636 22.103 14.3533 22.1572 14.0848C22.7648 14.0761 23.2723 14.139 23.7486 14.0668C23.9772 14.0312 24.0959 13.1458 23.561 13.1633C23.0349 13.1814 22.569 13.1726 21.8537 13.1726C21.2986 13.1726 21.0744 13.3515 21.0312 13.7272C20.9464 14.4162 20.8496 15.3459 20.8059 15.7222C20.7468 16.2144 21.4621 16.2144 21.6787 16.1427C22.8216 15.7577 22.9873 16.6256 22.9173 17.3677C22.8648 17.9321 22.6477 18.3614 22.155 18.3521C21.7153 18.3433 21.4594 18.0119 21.4911 17.5115C21.5141 17.1085 20.4723 16.9745 20.4203 17.3595C20.2973 18.2985 20.9087 19.238 22.2316 19.2287C23.3948 19.2287 24.1888 18.3882 24.2977 17.3951C24.4404 16.1154 23.7541 14.7646 22.0063 15.1944Z" fill="#5094FF"/>
<path d="M23.3006 15.2419C23.6353 15.6838 23.7589 16.3083 23.6905 16.9192C23.5817 17.9118 22.7876 18.7529 21.6244 18.7529C21.3194 18.7596 21.0166 18.7006 20.7363 18.5801C21.0338 18.9678 21.5293 19.2336 22.2315 19.2287C23.3947 19.2287 24.1887 18.3881 24.2976 17.395C24.3976 16.5008 24.0903 15.5739 23.3006 15.2419ZM15.5738 15.2419C15.9085 15.6838 16.0321 16.3083 15.9637 16.9192C15.8549 17.9118 15.0608 18.7529 13.8976 18.7529C13.5926 18.7596 13.2898 18.7006 13.0095 18.5801C13.307 18.9678 13.8025 19.2336 14.5047 19.2287C15.6673 19.2287 16.4619 18.3881 16.5702 17.395C16.6703 16.5008 16.3635 15.5739 15.5738 15.2419Z" fill="#497BFE"/>
<path d="M6.55168 15.1944C6.58121 14.8636 6.64793 14.3533 6.70207 14.0848C7.3091 14.0761 7.8166 14.139 8.29292 14.0668C8.52152 14.0312 8.64074 13.1458 8.10589 13.1633C7.5798 13.1814 7.11386 13.1726 6.398 13.1726C5.84347 13.1726 5.61925 13.3515 5.5755 13.7272C5.49129 14.4162 5.39394 15.3459 5.35074 15.7222C5.29113 16.2144 6.00699 16.2144 6.22355 16.1427C7.36652 15.7577 7.53222 16.6256 7.46167 17.3677C7.40972 17.9321 7.19207 18.3614 6.69933 18.3521C6.26019 18.3433 6.00425 18.0119 6.03597 17.5115C6.05894 17.1085 5.01715 16.9745 4.96519 17.3595C4.84215 18.2985 5.453 19.238 6.77644 19.2287C7.9391 19.2287 8.73371 18.3882 8.84199 17.3951C8.98527 16.1154 8.29894 14.7646 6.55168 15.1944Z" fill="#5094FF"/>
<path d="M7.84756 15.2419C8.1817 15.6838 8.30529 16.3083 8.23693 16.9192C8.1281 17.9118 7.33404 18.7529 6.17084 18.7529C5.86584 18.7596 5.56296 18.7006 5.28271 18.5801C5.58021 18.9678 6.07568 19.2336 6.77787 19.2287C7.94053 19.2287 8.73514 18.3881 8.84342 17.395C8.94349 16.5008 8.63724 15.5739 7.84756 15.2419Z" fill="#497BFE"/>
<path d="M17.3158 3.80084C17.351 3.76686 17.376 3.7237 17.388 3.67625C17.4 3.6288 17.3985 3.57893 17.3837 3.53229C17.3688 3.48565 17.3412 3.44409 17.304 3.4123C17.2668 3.38052 17.2214 3.35977 17.1731 3.3524L15.7195 3.13201C15.6774 3.12569 15.6375 3.10925 15.6032 3.0841C15.5689 3.05895 15.5413 3.02585 15.5226 2.98763L14.8795 1.66529C14.858 1.62137 14.8247 1.58431 14.7833 1.5583C14.7419 1.53229 14.694 1.51836 14.6452 1.51807C14.5963 1.51779 14.5483 1.53116 14.5066 1.55669C14.4649 1.58222 14.4311 1.61888 14.4092 1.66256L13.7507 2.97724C13.7317 3.01519 13.7037 3.04794 13.6692 3.07271C13.6348 3.09747 13.5948 3.11351 13.5527 3.11943L12.0964 3.32232C12.0481 3.32924 12.0026 3.34951 11.9652 3.38084C11.9277 3.41218 11.8997 3.45335 11.8844 3.49972C11.869 3.54608 11.8669 3.59581 11.8783 3.64331C11.8897 3.6908 11.9141 3.73418 11.9488 3.76857L12.9955 4.80107C13.0257 4.83095 13.0482 4.86771 13.061 4.90819C13.0739 4.94867 13.0767 4.99167 13.0693 5.03349L12.8123 6.48162C12.8038 6.52981 12.8089 6.57942 12.8271 6.62485C12.8452 6.67028 12.8758 6.70972 12.9152 6.73873C12.9546 6.76774 13.0013 6.78515 13.0501 6.789C13.0989 6.79285 13.1478 6.78299 13.1913 6.76052L14.4967 6.08349C14.5344 6.06401 14.5763 6.05398 14.6188 6.05426C14.6613 6.05455 14.7031 6.06514 14.7406 6.08513L16.0377 6.77693C16.081 6.79992 16.1297 6.81036 16.1786 6.80709C16.2274 6.80381 16.2744 6.78694 16.3141 6.75839C16.3539 6.72983 16.3849 6.69073 16.4036 6.6455C16.4223 6.60026 16.428 6.5507 16.42 6.5024L16.1799 5.05209C16.173 5.01013 16.1763 4.9671 16.1896 4.9267C16.2029 4.88631 16.2259 4.84977 16.2565 4.82021L17.3158 3.80084Z" fill="#F34B58"/>
<path d="M14.4073 3.10618C14.4866 3.08978 14.4642 3.72689 13.9042 3.92704C13.3453 4.12829 12.9253 3.64978 12.9964 3.6115C13.0347 3.56775 13.3923 3.72525 13.7943 3.56501C14.2066 3.43376 14.3494 3.09689 14.4068 3.10564L14.4073 3.10618Z" fill="#FE90A9"/>
<path d="M4.54847 16.2838L1.65004 14.985C1.61705 14.9696 1.5808 14.9627 1.54448 14.9647C1.50817 14.9667 1.47292 14.9777 1.44186 14.9967C1.41081 15.0156 1.38491 15.0419 1.36647 15.0733C1.34802 15.1046 1.3376 15.14 1.33613 15.1764C1.32629 15.4875 1.32082 15.8096 1.32082 16.1443C1.32018 16.7429 1.33897 17.3413 1.37714 17.9386C1.37962 17.9743 1.39072 18.0088 1.40949 18.0393C1.42826 18.0697 1.45414 18.0952 1.48491 18.1134C1.51567 18.1316 1.55041 18.1421 1.58612 18.144C1.62184 18.1458 1.65747 18.139 1.68996 18.124L4.54847 16.8432C4.60253 16.8191 4.64845 16.7799 4.68068 16.7303C4.7129 16.6806 4.73005 16.6227 4.73005 16.5635C4.73005 16.5043 4.7129 16.4464 4.68068 16.3968C4.64845 16.3471 4.60253 16.3079 4.54847 16.2838Z" fill="#F34B58"/>
<path d="M1.6899 18.1235L4.54842 16.8433C4.60248 16.8192 4.6484 16.7799 4.68062 16.7303C4.71285 16.6807 4.73 16.6227 4.73 16.5636C4.73 16.5044 4.71285 16.4465 4.68062 16.3968C4.6484 16.3472 4.60248 16.3079 4.54842 16.2838L4.25037 16.1504C3.85279 16.4419 2.3199 17.4935 1.33936 17.1588C1.3492 17.4263 1.36123 17.6877 1.37764 17.9387C1.38015 17.9743 1.39125 18.0087 1.40999 18.0391C1.42872 18.0695 1.45455 18.0949 1.48524 18.1131C1.51593 18.1313 1.55058 18.1418 1.58622 18.1438C1.62187 18.1457 1.65744 18.1384 1.6899 18.1235Z" fill="#E11226"/>
</g>
<defs>
<clipPath id="clip0_695_1861">
<rect width="35" height="26.2391" fill="white"/>
</clipPath>
</defs>
</svg>
