<svg width="82" height="82" viewBox="0 0 82 82" fill="none" xmlns="http://www.w3.org/2000/svg">
<path d="M50.0747 66.1576H32.0376L34.9209 56.7891H47.1915L50.0747 66.1576Z" fill="url(#paint0_linear_923_90)"/>
<path d="M27.813 66.1572H54.2987C56.1427 66.1572 57.6514 67.6629 57.6514 69.5031V74.087H24.4603V69.5031C24.4603 67.6461 25.9522 66.1572 27.813 66.1572Z" fill="url(#paint1_linear_923_90)"/>
<path d="M22.649 74.0698H59.4609C61.6569 74.0698 63.4338 75.8431 63.4338 78.0347C63.4338 80.2263 61.6569 81.9996 59.4609 81.9996H22.649C20.453 81.9996 18.6761 80.2263 18.6761 78.0347C18.6761 75.8431 20.453 74.0698 22.649 74.0698Z" fill="url(#paint2_linear_923_90)"/>
<path d="M52.672 48.8422C51.9512 48.8422 51.75 48.6415 51.6327 48.5243C51.4818 48.3738 51.398 48.2399 51.3645 48.0225C51.3142 47.7715 51.2471 47.2027 51.4818 46.2491C52.0182 43.9572 53.7281 41.2638 56.142 38.838C59.7125 35.2746 63.0316 34.0199 64.8085 34.0199C65.5293 34.0199 65.7305 34.2207 65.8478 34.3378C65.9987 34.4883 66.0825 34.6222 66.116 34.8397C66.1663 35.0906 66.2334 35.6594 65.9987 36.613C65.4623 38.9049 63.7524 41.5984 61.3385 44.0241C57.7847 47.5708 54.4489 48.8422 52.672 48.8422ZM52.672 56.772C57.198 56.772 62.4449 54.1287 66.9542 49.6285C73.9779 42.6189 76.5092 33.769 71.4635 28.7334C69.6531 26.9266 67.3397 26.0901 64.8085 26.0901C60.2825 26.0901 55.0356 28.7334 50.5263 33.2336C43.5025 40.2433 40.9713 49.0932 46.017 54.1287C47.8274 55.9355 50.1407 56.772 52.672 56.772Z" fill="url(#paint3_linear_923_90)"/>
<path d="M17.3025 34.0196C19.0794 34.0196 22.3985 35.291 25.969 38.8377C28.3997 41.2635 30.0927 43.9569 30.6292 46.2488C30.8638 47.2191 30.7968 47.7712 30.7465 48.0222C30.6962 48.2396 30.6292 48.3735 30.4783 48.524C30.3442 48.6579 30.1598 48.8419 29.439 48.8419C27.6621 48.8419 24.343 47.5872 20.7724 44.0238C18.3418 41.5981 16.6487 38.9046 16.1123 36.6127C15.8776 35.6424 15.9446 35.0903 15.9949 34.8394C16.0452 34.6219 16.1123 34.488 16.2631 34.3375C16.3973 34.2204 16.5816 34.0196 17.3025 34.0196ZM17.3025 26.0898C14.7712 26.0898 12.4579 26.9263 10.6475 28.7331C5.60178 33.7687 8.13302 42.6185 15.1568 49.6282C19.6493 54.1284 24.9129 56.7717 29.439 56.7717C31.9702 56.7717 34.2835 55.9352 36.094 54.1284C41.1397 49.0928 38.6252 40.243 31.5847 33.2333C27.0921 28.7498 21.8285 26.0898 17.3025 26.0898Z" fill="url(#paint4_linear_923_90)"/>
<path d="M22.2975 24.4507H59.8302V42.1003C59.8302 52.4391 51.4151 60.8205 41.0722 60.8205C30.7126 60.8205 22.2975 52.4223 22.2975 42.0835V24.4507Z" fill="url(#paint5_linear_923_90)"/>
<path d="M21.929 15.0825H60.1825C62.7808 15.0825 64.8762 17.1737 64.8762 19.7668C64.8762 22.3598 62.7808 24.451 60.1825 24.451H21.929C19.3307 24.451 17.2354 22.3598 17.2354 19.7668C17.2354 17.1737 19.3307 15.0825 21.929 15.0825Z" fill="url(#paint6_linear_923_90)"/>
<path d="M41.0554 49.8461C46.638 49.8461 51.1636 45.3296 51.1636 39.7583C51.1636 34.1869 46.638 29.6704 41.0554 29.6704C35.4729 29.6704 30.9473 34.1869 30.9473 39.7583C30.9473 45.3296 35.4729 49.8461 41.0554 49.8461Z" fill="url(#paint7_linear_923_90)"/>
<path d="M46.0566 41.5449V44.4363H36.0011V43.5221C36.0011 43.3749 36.0028 43.2483 36.0062 43.1421C36.0131 43.036 36.0302 42.899 36.0576 42.7313C36.0884 42.5601 36.1295 42.4077 36.1808 42.2742C36.2322 42.1407 36.3075 41.9883 36.4068 41.8171C36.5095 41.6425 36.6294 41.4867 36.7663 41.3498C36.9067 41.2094 37.0847 41.0605 37.3004 40.903C37.5161 40.7455 37.7575 40.6034 38.0245 40.4767C38.2916 40.3501 38.61 40.2251 38.9798 40.1018C39.3495 39.9786 39.7552 39.8707 40.1969 39.7783C41.0563 39.6003 41.5613 39.4975 41.7119 39.4702C42.0337 39.4051 42.2751 39.3418 42.436 39.2801C42.5969 39.2185 42.6979 39.1603 42.739 39.1055C42.7835 39.0473 42.8058 38.9737 42.8058 38.8847C42.8058 38.8094 42.7852 38.7443 42.7442 38.6895C42.7031 38.6313 42.626 38.5766 42.5131 38.5252C42.4001 38.4738 42.2237 38.4345 41.9841 38.4071C41.7478 38.3797 41.45 38.366 41.0905 38.366C40.844 38.366 40.6214 38.3797 40.4229 38.4071C40.2243 38.4345 40.0599 38.4704 39.9298 38.5149C39.8032 38.556 39.6919 38.6091 39.596 38.6741C39.5002 38.7358 39.4266 38.7957 39.3752 38.8539C39.3273 38.9087 39.2879 38.9737 39.2571 39.049C39.2263 39.1244 39.2057 39.186 39.1954 39.2339C39.1886 39.2784 39.1835 39.3298 39.18 39.388H36.1295V39.3161C36.1295 39.1483 36.1398 38.9908 36.1603 38.8436C36.1808 38.693 36.2288 38.5184 36.3041 38.3198C36.3828 38.1212 36.4856 37.9397 36.6122 37.7754C36.7423 37.6111 36.9255 37.445 37.1617 37.2772C37.398 37.1095 37.6736 36.9691 37.9886 36.8561C38.307 36.7397 38.7041 36.6456 39.18 36.5737C39.6594 36.5018 40.1918 36.4658 40.7772 36.4658H41.2291C41.7804 36.4658 42.2802 36.4898 42.7287 36.5377C43.1807 36.5822 43.5676 36.6439 43.8894 36.7226C44.2112 36.8013 44.4937 36.9006 44.7368 37.0205C44.9799 37.1403 45.1767 37.267 45.3274 37.4005C45.478 37.534 45.5996 37.6864 45.692 37.8576C45.7844 38.0253 45.8478 38.1914 45.882 38.3557C45.9197 38.5201 45.9385 38.6998 45.9385 38.895V38.936C45.9385 39.2716 45.8854 39.5575 45.7793 39.7937C45.6732 40.0299 45.4849 40.2456 45.2144 40.4408C44.9439 40.6325 44.5793 40.7969 44.1205 40.9338C43.6651 41.0708 43.0831 41.194 42.3744 41.3036L40.6899 41.586C39.2964 41.8223 38.5997 42.1167 38.5997 42.4693H43.2885V41.5449H46.0566Z" fill="black" fill-opacity="0.51"/>
<path d="M50.3646 0.777794L51.5548 3.03627L54.0693 3.45451C55.2259 3.65526 55.6785 5.06054 54.8739 5.89701L53.097 7.72052L53.4658 10.2299C53.6334 11.3843 52.4265 12.2542 51.3872 11.7356L49.0739 10.6147L46.7941 11.7523C45.738 12.2709 44.5478 11.401 44.7154 10.2467L45.0842 7.73725L43.3073 5.91374C42.4859 5.07726 42.9553 3.67199 44.112 3.47124L46.6264 3.053L47.8166 0.794523C48.3363 -0.259432 49.8282 -0.259432 50.3646 0.777794Z" fill="url(#paint8_linear_923_90)"/>
<path d="M35.6412 0.77792L36.8314 3.0364L39.3459 3.45463C40.5025 3.65539 40.9551 5.06066 40.1505 5.89713L38.3736 7.72064L38.7424 10.2301C38.91 11.3844 37.7031 12.2543 36.6638 11.7357L34.384 10.5981L32.1042 11.7357C31.0481 12.2543 29.8579 11.3844 30.0256 10.2301L30.3943 7.72064L28.6175 5.89713C27.7961 5.06066 28.2487 3.65539 29.4221 3.45463L31.9366 3.0364L33.1267 0.77792C33.6129 -0.259307 35.1048 -0.259307 35.6412 0.77792Z" fill="url(#paint9_linear_923_90)"/>
<defs>
<linearGradient id="paint0_linear_923_90" x1="41.057" y1="56.7891" x2="41.057" y2="66.1525" gradientUnits="userSpaceOnUse">
<stop stop-color="#76798C"/>
<stop offset="0.8" stop-color="#30313C"/>
</linearGradient>
<linearGradient id="paint1_linear_923_90" x1="41.0567" y1="74.0753" x2="41.0567" y2="66.1522" gradientUnits="userSpaceOnUse">
<stop stop-color="#76798B"/>
<stop offset="1" stop-color="#DFEFF7"/>
</linearGradient>
<linearGradient id="paint2_linear_923_90" x1="41.055" y1="81.9996" x2="41.055" y2="74.0765" gradientUnits="userSpaceOnUse">
<stop stop-color="#545869"/>
<stop offset="1" stop-color="#989BAF"/>
</linearGradient>
<linearGradient id="paint3_linear_923_90" x1="42.6294" y1="35.5677" x2="74.8394" y2="47.3132" gradientUnits="userSpaceOnUse">
<stop stop-color="#494C5B"/>
<stop offset="0.21" stop-color="#383A47"/>
<stop offset="0.64" stop-color="#30323F"/>
<stop offset="0.8" stop-color="#6A6E83"/>
</linearGradient>
<linearGradient id="paint4_linear_923_90" x1="39.4858" y1="47.2941" x2="7.2725" y2="35.5458" gradientUnits="userSpaceOnUse">
<stop stop-color="#494C5B"/>
<stop offset="0.21" stop-color="#383A47"/>
<stop offset="0.64" stop-color="#30323F"/>
<stop offset="0.8" stop-color="#6A6E83"/>
</linearGradient>
<linearGradient id="paint5_linear_923_90" x1="41.0563" y1="24.4457" x2="41.0563" y2="60.8222" gradientUnits="userSpaceOnUse">
<stop stop-color="#333642"/>
<stop offset="0.11" stop-color="#707282"/>
<stop offset="0.37" stop-color="#525564"/>
<stop offset="0.65" stop-color="#444655"/>
<stop offset="1" stop-color="#7C7F92"/>
</linearGradient>
<linearGradient id="paint6_linear_923_90" x1="41.0566" y1="24.446" x2="41.0566" y2="15.0825" gradientUnits="userSpaceOnUse">
<stop stop-color="#494C5B"/>
<stop offset="1" stop-color="#9397AC"/>
</linearGradient>
<linearGradient id="paint7_linear_923_90" x1="41.0563" y1="49.8378" x2="41.0563" y2="29.6687" gradientUnits="userSpaceOnUse">
<stop stop-color="#383B4A"/>
<stop offset="1" stop-color="#8A8C9A"/>
</linearGradient>
<linearGradient id="paint8_linear_923_90" x1="49.0758" y1="11.9029" x2="49.0758" y2="0.00144805" gradientUnits="userSpaceOnUse">
<stop stop-color="#4A4C59"/>
<stop offset="0.71" stop-color="#9FA3B9"/>
</linearGradient>
<linearGradient id="paint9_linear_923_90" x1="34.3672" y1="11.8863" x2="34.3672" y2="-0.000504457" gradientUnits="userSpaceOnUse">
<stop stop-color="#4A4C59"/>
<stop offset="0.71" stop-color="#9FA3B9"/>
</linearGradient>
</defs>
</svg>
