<svg width="82" height="82" viewBox="0 0 82 82" fill="none" xmlns="http://www.w3.org/2000/svg">
<path d="M49.1695 67.2514H32.3778L35.062 58.5298H46.4853L49.1695 67.2514Z" fill="url(#paint0_linear_923_90)"/>
<path d="M28.4457 67.252H53.1026C54.8192 67.252 56.2237 68.6536 56.2237 70.3668V74.6342H25.3246V70.3668C25.3246 68.6381 26.7135 67.252 28.4457 67.252Z" fill="url(#paint1_linear_923_90)"/>
<path d="M23.6387 74.6177H57.9087C59.953 74.6177 61.6072 76.2685 61.6072 78.3088C61.6072 80.349 59.953 81.9999 57.9087 81.9999H23.6387C21.5944 81.9999 19.9402 80.349 19.9402 78.3088C19.9402 76.2685 21.5944 74.6177 23.6387 74.6177Z" fill="url(#paint2_linear_923_90)"/>
<path d="M51.5887 51.132C50.9176 51.132 50.7303 50.9451 50.6211 50.8361C50.4807 50.6959 50.4026 50.5713 50.3714 50.3688C50.3246 50.1352 50.2622 49.6057 50.4807 48.718C50.98 46.5843 52.5718 44.0768 54.819 41.8186C58.143 38.5012 61.2329 37.3332 62.8871 37.3332C63.5582 37.3332 63.7454 37.5201 63.8547 37.6291C63.9951 37.7693 64.0732 37.8938 64.1044 38.0963C64.1512 38.3299 64.2136 38.8594 63.9951 39.7472C63.4957 41.8809 61.904 44.3883 59.6568 46.6466C56.3484 49.9483 53.2428 51.132 51.5887 51.132ZM51.5887 58.5142C55.8022 58.5142 60.6867 56.0534 64.8846 51.864C71.4234 45.3383 73.7799 37.0996 69.0826 32.4117C67.3971 30.7297 65.2436 29.951 62.8871 29.951C58.6736 29.951 53.789 32.4117 49.5911 36.6012C43.0524 43.1268 40.6959 51.3656 45.3932 56.0534C47.0786 57.7354 49.2322 58.5142 51.5887 58.5142Z" fill="url(#paint3_linear_923_90)"/>
<path d="M29.9623 51.132C28.3081 51.132 25.2182 49.9483 21.8942 46.6466C19.6314 44.3883 18.0552 41.8809 17.5558 39.7472C17.3374 38.8439 17.3998 38.3299 17.4466 38.0963C17.4934 37.8938 17.5558 37.7693 17.6963 37.6291C17.8211 37.5045 17.9928 37.3332 18.6638 37.3332C20.318 37.3332 23.408 38.5012 26.732 41.8186C28.9948 44.0768 30.5709 46.5843 31.0703 48.718C31.2888 49.6213 31.2264 50.1352 31.1796 50.3688C31.1327 50.5713 31.0703 50.6959 30.9299 50.8361C30.805 50.9451 30.6334 51.132 29.9623 51.132ZM29.9623 58.5142C32.3188 58.5142 34.4723 57.7354 36.1578 56.0534C40.855 51.3656 38.4986 43.1268 31.9598 36.6012C27.7775 32.4117 22.8774 29.951 18.6638 29.951C16.3074 29.951 14.1538 30.7297 12.4684 32.4117C7.77112 37.0996 10.112 45.3383 16.6663 51.864C20.8486 56.0379 25.7488 58.5142 29.9623 58.5142Z" fill="url(#paint4_linear_923_90)"/>
<path d="M23.3103 28.4248H58.2513V44.8556C58.2513 54.4805 50.4173 62.2832 40.7886 62.2832C31.1443 62.2832 23.3103 54.465 23.3103 44.8401V28.4248Z" fill="url(#paint5_linear_923_90)"/>
<path d="M22.9672 19.7036H58.5793C60.9981 19.7036 62.9488 21.6504 62.9488 24.0644C62.9488 26.4784 60.9981 28.4252 58.5793 28.4252H22.9672C20.5484 28.4252 18.5977 26.4784 18.5977 24.0644C18.5977 21.6504 20.5484 19.7036 22.9672 19.7036Z" fill="url(#paint6_linear_923_90)"/>
<path d="M40.7742 52.0667C45.9713 52.0667 50.1844 47.8621 50.1844 42.6755C50.1844 37.4888 45.9713 33.2842 40.7742 33.2842C35.5771 33.2842 31.364 37.4888 31.364 42.6755C31.364 47.8621 35.5771 52.0667 40.7742 52.0667Z" fill="url(#paint7_linear_923_90)"/>
<path d="M45.6556 44.6404C45.6556 46.3265 44.0827 47.1696 40.9368 47.1696H40.4683C39.8945 47.1696 39.3718 47.1329 38.9001 47.0596C38.4316 46.9863 38.0411 46.8907 37.7288 46.7728C37.4164 46.6548 37.1407 46.513 36.9017 46.3473C36.6658 46.1815 36.4825 46.019 36.3518 45.8596C36.2243 45.697 36.1208 45.5217 36.0411 45.3337C35.9614 45.1424 35.9104 44.9783 35.8881 44.8412C35.8658 44.7042 35.8546 44.5655 35.8546 44.4253V44.3392H38.7232C38.7264 44.3775 38.7312 44.4141 38.7375 44.4492C38.7471 44.4843 38.7678 44.5384 38.7997 44.6118C38.8316 44.6819 38.873 44.7456 38.924 44.803C38.975 44.8604 39.0499 44.9241 39.1487 44.9942C39.2475 45.0644 39.3623 45.1233 39.4929 45.1711C39.6236 45.2189 39.791 45.2588 39.9949 45.2907C40.1989 45.3225 40.4252 45.3385 40.6738 45.3385C41.0245 45.3385 41.3273 45.3225 41.5822 45.2907C41.8372 45.2588 42.0316 45.2205 42.1655 45.1759C42.3026 45.1281 42.4093 45.0691 42.4858 44.999C42.5655 44.9289 42.6149 44.8667 42.6341 44.8126C42.6532 44.7584 42.6627 44.6978 42.6627 44.6309C42.6627 44.293 42.3615 44.1241 41.7591 44.1241H39.3208V42.379H41.6922C42.0014 42.379 42.2149 42.3424 42.3329 42.2691C42.454 42.1926 42.5145 42.089 42.5145 41.9583V41.9487C42.5145 41.8882 42.505 41.8356 42.4858 41.791C42.4699 41.7463 42.4253 41.6969 42.352 41.6428C42.2787 41.5886 42.1767 41.5455 42.046 41.5137C41.9153 41.4786 41.7257 41.4499 41.4771 41.4276C41.2284 41.4021 40.932 41.3894 40.5878 41.3894C40.3519 41.3894 40.1384 41.4005 39.9471 41.4228C39.7559 41.4451 39.5997 41.4722 39.4786 41.5041C39.3575 41.5328 39.2491 41.5742 39.1535 41.6284C39.0611 41.6794 38.9909 41.724 38.9431 41.7623C38.8985 41.8005 38.8603 41.8499 38.8284 41.9105C38.7965 41.9679 38.7774 42.0077 38.771 42.03C38.7646 42.0523 38.7583 42.0858 38.7519 42.1304C38.7487 42.1432 38.7471 42.1511 38.7471 42.1543H35.8976V42.0587C35.8976 41.9631 35.9024 41.8707 35.912 41.7814C35.9247 41.689 35.9502 41.5806 35.9885 41.4563C36.0267 41.3288 36.0777 41.2093 36.1415 41.0977C36.2052 40.983 36.2945 40.8619 36.4092 40.7344C36.524 40.6069 36.6562 40.4921 36.806 40.3901C36.959 40.285 37.1503 40.183 37.3797 40.0842C37.6092 39.9854 37.8626 39.9025 38.1399 39.8355C38.4204 39.7654 38.7503 39.7112 39.1296 39.673C39.5089 39.6316 39.92 39.6108 40.3631 39.6108H40.7838C41.3639 39.6108 41.8882 39.6332 42.3568 39.6778C42.8253 39.7192 43.2173 39.775 43.5329 39.8451C43.8484 39.912 44.1225 39.9981 44.3552 40.1033C44.5879 40.2053 44.7696 40.3089 44.9002 40.414C45.0309 40.516 45.1345 40.634 45.211 40.7678C45.2875 40.9017 45.3369 41.0228 45.3592 41.1312C45.3815 41.2396 45.3927 41.3591 45.3927 41.4898V41.5471C45.3927 41.7224 45.3544 41.885 45.2779 42.0348C45.2014 42.1814 45.0979 42.3041 44.9672 42.4029C44.8397 42.5017 44.7042 42.583 44.5608 42.6468C44.4174 42.7105 44.2676 42.7583 44.1114 42.7902C44.3026 42.8316 44.4827 42.8938 44.6516 42.9767C44.8237 43.0595 44.9879 43.1695 45.1441 43.3065C45.3003 43.4436 45.4246 43.6221 45.517 43.842C45.6094 44.0588 45.6556 44.3026 45.6556 44.5735V44.6404Z" fill="black" fill-opacity="0.51"/>
<path d="M54.7229 7.18858L55.8309 9.2911L58.1717 9.68046C59.2485 9.86735 59.6699 11.1756 58.9208 11.9543L57.2666 13.6519L57.6099 15.988C57.766 17.0627 56.6424 17.8725 55.6748 17.3897L53.5212 16.3462L51.3989 17.4053C50.4157 17.8881 49.3077 17.0782 49.4638 16.0036L49.8071 13.6675L48.1529 11.9699C47.3882 11.1912 47.8252 9.88292 48.902 9.69603L51.2428 9.30668L52.3508 7.20415C52.8346 6.22297 54.2235 6.22297 54.7229 7.18858Z" fill="url(#paint8_linear_923_90)"/>
<path d="M29.5171 7.19051L30.6251 9.29304L32.966 9.68239C34.0428 9.86928 34.4641 11.1775 33.715 11.9562L32.0608 13.6538L32.4042 15.99C32.5602 17.0646 31.4366 17.8745 30.4691 17.3916L28.3467 16.3326L26.2243 17.3916C25.2412 17.8745 24.1332 17.0646 24.2892 15.99L24.6326 13.6538L22.9784 11.9562C22.2137 11.1775 22.635 9.86928 23.7274 9.68239L26.0683 9.29304L27.1763 7.19051C27.6288 6.22491 29.0177 6.22491 29.5171 7.19051Z" fill="url(#paint9_linear_923_90)"/>
<path d="M42.095 0.725288L43.1626 2.83096L45.4181 3.2209C46.4556 3.40807 46.8616 4.71827 46.1398 5.49815L44.546 7.19828L44.8768 9.53792C45.0271 10.6142 43.9445 11.4252 43.0122 10.9417L40.9673 9.88107L38.9223 10.9417C37.975 11.4252 36.9074 10.6142 37.0578 9.53792L37.3886 7.19828L35.7947 5.49815C35.058 4.71827 35.4639 3.40807 36.5165 3.2209L38.772 2.83096L39.8395 0.725288C40.2756 -0.241763 41.6138 -0.241763 42.095 0.725288Z" fill="url(#paint10_linear_923_90)"/>
<defs>
<linearGradient id="paint0_linear_923_90" x1="40.7744" y1="58.5298" x2="40.7744" y2="67.2467" gradientUnits="userSpaceOnUse">
<stop stop-color="#CC6E46"/>
<stop offset="0.8" stop-color="#D57751"/>
</linearGradient>
<linearGradient id="paint1_linear_923_90" x1="40.7749" y1="74.6233" x2="40.7749" y2="67.2473" gradientUnits="userSpaceOnUse">
<stop stop-color="#D0734B"/>
<stop offset="1" stop-color="#AE5530"/>
</linearGradient>
<linearGradient id="paint2_linear_923_90" x1="40.7737" y1="81.9999" x2="40.7737" y2="74.6239" gradientUnits="userSpaceOnUse">
<stop stop-color="#AD5530"/>
<stop offset="1" stop-color="#ED8D65"/>
</linearGradient>
<linearGradient id="paint3_linear_923_90" x1="42.2395" y1="38.7741" x2="72.2254" y2="49.7085" gradientUnits="userSpaceOnUse">
<stop stop-color="#EB7342"/>
<stop offset="0.21" stop-color="#EE8B62"/>
<stop offset="0.64" stop-color="#A34F2B"/>
<stop offset="0.8" stop-color="#EE7442"/>
</linearGradient>
<linearGradient id="paint4_linear_923_90" x1="9.31077" y1="38.7741" x2="39.2997" y2="49.7111" gradientUnits="userSpaceOnUse">
<stop stop-color="#EB7342"/>
<stop offset="0.21" stop-color="#EE8B62"/>
<stop offset="0.64" stop-color="#A34F2B"/>
<stop offset="0.8" stop-color="#EE7442"/>
</linearGradient>
<linearGradient id="paint5_linear_923_90" x1="40.7738" y1="28.4201" x2="40.7738" y2="62.2848" gradientUnits="userSpaceOnUse">
<stop stop-color="#AA5C3A"/>
<stop offset="0.11" stop-color="#F18455"/>
<stop offset="0.37" stop-color="#EA926E"/>
<stop offset="0.65" stop-color="#A95532"/>
<stop offset="1" stop-color="#AE552E"/>
</linearGradient>
<linearGradient id="paint6_linear_923_90" x1="40.774" y1="28.4205" x2="40.774" y2="19.7036" gradientUnits="userSpaceOnUse">
<stop stop-color="#AD5530"/>
<stop offset="1" stop-color="#EC8F69"/>
</linearGradient>
<linearGradient id="paint7_linear_923_90" x1="40.775" y1="52.0589" x2="40.775" y2="33.2826" gradientUnits="userSpaceOnUse">
<stop stop-color="#E2835C"/>
<stop offset="1" stop-color="#AC5631"/>
</linearGradient>
<linearGradient id="paint8_linear_923_90" x1="53.523" y1="17.5454" x2="53.523" y2="6.46584" gradientUnits="userSpaceOnUse">
<stop stop-color="#FF993A"/>
<stop offset="0.71" stop-color="#FF8E5E"/>
</linearGradient>
<linearGradient id="paint9_linear_923_90" x1="28.331" y1="17.5318" x2="28.331" y2="6.46584" gradientUnits="userSpaceOnUse">
<stop stop-color="#FF993A"/>
<stop offset="0.71" stop-color="#FF8E5E"/>
</linearGradient>
<linearGradient id="paint10_linear_923_90" x1="40.9522" y1="11.0821" x2="40.9522" y2="-0.000470326" gradientUnits="userSpaceOnUse">
<stop stop-color="#FF993A"/>
<stop offset="0.71" stop-color="#FF8E5E"/>
</linearGradient>
</defs>
</svg>
