<svg width="82" height="82" viewBox="0 0 82 82" fill="none" xmlns="http://www.w3.org/2000/svg">
<path d="M49.5023 66.8312H32.1389L34.9145 57.8613H46.7267L49.5023 66.8312Z" fill="url(#paint0_linear_923_78)"/>
<path d="M28.0733 66.8315H53.5697C55.3448 66.8315 56.7971 68.2731 56.7971 70.0351V74.4239H24.8459V70.0351C24.8459 68.2571 26.2821 66.8315 28.0733 66.8315Z" fill="url(#paint1_linear_923_78)"/>
<path d="M23.1014 74.4072H58.5382C60.6521 74.4072 62.3626 76.1051 62.3626 78.2034C62.3626 80.3017 60.6521 81.9996 58.5382 81.9996H23.1014C20.9875 81.9996 19.277 80.3017 19.277 78.2034C19.277 76.1051 20.9875 74.4072 23.1014 74.4072Z" fill="url(#paint2_linear_923_78)"/>
<path d="M63.686 36.0616C64.3798 36.0616 64.5735 36.2538 64.6864 36.3659C64.8317 36.5101 64.9124 36.6382 64.9446 36.8464C64.993 37.0867 65.0576 37.6313 64.8317 38.5443C64.3153 40.7387 62.6693 43.3175 60.3456 45.6401C56.9084 49.0518 53.7133 50.2531 52.0028 50.2531C51.3089 50.2531 51.1153 50.0609 51.0023 49.9488C50.8571 49.8046 50.7764 49.6765 50.7441 49.4683C50.6957 49.228 50.6312 48.6834 50.8571 47.7704C51.3735 45.576 53.0194 42.9972 55.3432 40.6746C58.7642 37.2789 61.9754 36.0616 63.686 36.0616ZM63.686 28.4692C59.329 28.4692 54.2781 31 49.9373 35.3087C43.1759 42.0201 40.7392 50.4934 45.5964 55.3147C47.3392 57.0446 49.5661 57.8455 52.0028 57.8455C56.3598 57.8455 61.4106 55.3147 65.7515 51.006C72.5129 44.2946 74.9495 35.8213 70.0923 31C68.3495 29.2701 66.1226 28.4692 63.686 28.4692Z" fill="url(#paint3_linear_923_78)"/>
<path d="M17.9548 36.0616C19.6654 36.0616 22.8605 37.2789 26.2976 40.6746C28.6375 42.9972 30.2673 45.576 30.7837 47.7704C31.0096 48.6994 30.9451 49.228 30.8967 49.4683C30.8483 49.6765 30.7837 49.8046 30.6385 49.9488C30.5094 50.0769 30.3319 50.2531 29.638 50.2531C27.9275 50.2531 24.7324 49.0518 21.2952 45.6401C18.9553 43.3175 17.3255 40.7387 16.8091 38.5443C16.5832 37.6153 16.6477 37.0867 16.6962 36.8464C16.7446 36.6382 16.8091 36.5101 16.9543 36.3659C17.0834 36.2538 17.2609 36.0616 17.9548 36.0616ZM17.9548 28.4692C15.5182 28.4692 13.2913 29.2701 11.5485 31C6.69125 35.8213 9.12793 44.2946 15.8893 51.006C20.214 55.3147 25.281 57.8455 29.638 57.8455C32.0747 57.8455 34.3016 57.0446 36.0443 55.3147C40.9016 50.4934 38.481 42.0201 31.7035 35.3087C27.3788 31.016 22.3118 28.4692 17.9548 28.4692Z" fill="url(#paint4_linear_923_78)"/>
<path d="M22.7635 26.8999H58.8942V43.7984C58.8942 53.6973 50.7934 61.7221 40.8369 61.7221C30.8643 61.7221 22.7635 53.6813 22.7635 43.7824V26.8999Z" fill="url(#paint5_linear_923_78)"/>
<path d="M22.4088 17.9297H59.2333C61.7346 17.9297 63.7517 19.9319 63.7517 22.4146C63.7517 24.8973 61.7346 26.8995 59.2333 26.8995H22.4088C19.9076 26.8995 17.8905 24.8973 17.8905 22.4146C17.8905 19.9319 19.9076 17.9297 22.4088 17.9297Z" fill="url(#paint6_linear_923_78)"/>
<path d="M40.8214 51.2142C46.1954 51.2142 50.552 46.8899 50.552 41.5556C50.552 36.2213 46.1954 31.897 40.8214 31.897C35.4473 31.897 31.0908 36.2213 31.0908 41.5556C31.0908 46.8899 35.4473 51.2142 40.8214 51.2142Z" fill="url(#paint7_linear_923_78)"/>
<path d="M39.9904 41.1229H37.7913V39.2226C38.5721 39.1827 39.1916 39.0074 39.6498 38.6967C40.1079 38.3859 40.4506 37.9537 40.6777 37.3999H43.4445V46.5073H39.9904V41.1229Z" fill="#59421D"/>
<path d="M41.5845 0.880879L42.8811 3.43827L45.6204 3.91186C46.8805 4.13919 47.3736 5.73045 46.497 6.67763L44.5612 8.74249L44.963 11.584C45.1456 12.8911 43.8308 13.8762 42.6985 13.289L40.2148 12.0008L37.7312 13.289C36.5807 13.8762 35.2841 12.8911 35.4667 11.584L35.8685 8.74249L33.9327 6.67763C33.0378 5.73045 33.5309 4.13919 34.8092 3.91186L37.5486 3.43827L38.8452 0.880879C39.3748 -0.293626 41.0001 -0.293626 41.5845 0.880879Z" fill="url(#paint8_linear_923_78)"/>
<defs>
<linearGradient id="paint0_linear_923_78" x1="40.8214" y1="57.8613" x2="40.8214" y2="66.8264" gradientUnits="userSpaceOnUse">
<stop stop-color="#DE5709"/>
<stop offset="0.8" stop-color="#FDAC33"/>
</linearGradient>
<linearGradient id="paint1_linear_923_78" x1="40.8223" y1="74.4127" x2="40.8223" y2="66.8267" gradientUnits="userSpaceOnUse">
<stop stop-color="#3D5969"/>
<stop offset="1" stop-color="#698999"/>
</linearGradient>
<linearGradient id="paint2_linear_923_78" x1="40.8198" y1="81.9996" x2="40.8198" y2="74.4136" gradientUnits="userSpaceOnUse">
<stop stop-color="#FF9900"/>
<stop offset="1" stop-color="#FCD34F"/>
</linearGradient>
<linearGradient id="paint3_linear_923_78" x1="42.3313" y1="48.7712" x2="73.3017" y2="37.4149" gradientUnits="userSpaceOnUse">
<stop stop-color="#DE5709"/>
<stop offset="0.21" stop-color="#E46912"/>
<stop offset="0.64" stop-color="#F69929"/>
<stop offset="0.8" stop-color="#FDAC33"/>
</linearGradient>
<linearGradient id="paint4_linear_923_78" x1="39.3095" y1="48.7712" x2="8.33913" y2="37.4149" gradientUnits="userSpaceOnUse">
<stop stop-color="#DE5709"/>
<stop offset="0.21" stop-color="#E46912"/>
<stop offset="0.64" stop-color="#F69929"/>
<stop offset="0.8" stop-color="#FDAC33"/>
</linearGradient>
<linearGradient id="paint5_linear_923_78" x1="40.8216" y1="26.8951" x2="40.8216" y2="61.7237" gradientUnits="userSpaceOnUse">
<stop stop-color="#FF9900"/>
<stop offset="0.11" stop-color="#FFA200"/>
<stop offset="0.37" stop-color="#FFB300"/>
<stop offset="0.65" stop-color="#FFBD00"/>
<stop offset="1" stop-color="#FFC100"/>
</linearGradient>
<linearGradient id="paint6_linear_923_78" x1="40.8219" y1="26.8947" x2="40.8219" y2="17.9297" gradientUnits="userSpaceOnUse">
<stop stop-color="#FFB300"/>
<stop offset="1" stop-color="#FFDF3D"/>
</linearGradient>
<linearGradient id="paint7_linear_923_78" x1="40.8222" y1="51.2062" x2="40.8222" y2="31.8954" gradientUnits="userSpaceOnUse">
<stop stop-color="#FFE187"/>
<stop offset="1" stop-color="#FFF8E0"/>
</linearGradient>
<linearGradient id="paint8_linear_923_78" x1="40.1865" y1="13.4682" x2="40.1865" y2="-0.00757755" gradientUnits="userSpaceOnUse">
<stop stop-color="#FD7600"/>
<stop offset="0.71" stop-color="#FDBF30"/>
</linearGradient>
</defs>
</svg>
