<?xml version="1.0" encoding="utf-8"?>
<!-- Generator: Adobe Illustrator 26.3.1, SVG Export Plug-In . SVG Version: 6.00 Build 0)  -->
<svg version="1.1" id="Layer_1" xmlns="http://www.w3.org/2000/svg" xmlns:xlink="http://www.w3.org/1999/xlink" x="0px" y="0px"
	 viewBox="0 0 256 256" style="enable-background:new 0 0 256 256;" xml:space="preserve">
<style type="text/css">
	.st0{fill-rule:evenodd;clip-rule:evenodd;fill:#A6CE39;}
	.st1{fill:#A6CE39;}
</style>
<g>
	<g>
		<path class="st0" d="M14.63,128.52c0.05-6.03,5.75-13.79,15.46-18.03c17.09-7.47,26.87-0.58,29.41,5.92
			c2.36,6.07-2.31,16.71-10.4,24.65c5.77-4.14,10.49-8.58,13.76-12.9c4.34-5.73,6.14-11.23,4.49-15.51
			c-2.44-6.31-11.96-8.35-24.03-6.64s-21.34,4.66-28.79,8.45c-8.28,4.21-12.56,9.21-13.17,14.91c-0.89,8.28,7.99,19.42,28.3,20.79
			c10.67,0.72,20.91,0.96,40.72-3.85C68.02,146.39,14.41,153.05,14.63,128.52z"/>
		<path class="st0" d="M34.35,138.16c6.36,0,11.55-5.19,11.55-11.55s-5.19-11.55-11.55-11.55s-11.55,5.19-11.55,11.55
			S27.99,138.16,34.35,138.16L34.35,138.16z"/>
	</g>
	<g>
		<g>
			<path class="st1" d="M76.45,135.77h2.69v15.95h-2.69V135.77z"/>
			<path class="st1" d="M97.81,135.77h2.69v15.95h-2.92l-9.04-11.64v11.64h-2.69v-15.95h2.69l9.27,11.91V135.77z"/>
			<path class="st1" d="M113.24,138.23v13.49h-2.69v-13.49h-4.84v-2.47h12.37v2.47H113.24z"/>
			<path class="st1" d="M134.49,135.77v2.53h-8.51v4.22h7.64v2.4h-7.64v4.27h8.79v2.53h-11.48v-15.95H134.49z"/>
			<path class="st1" d="M153.22,140.95c0,2.63-1.15,4.29-3.45,4.97l4.18,5.8h-3.42l-3.81-5.36h-3.54v5.36h-2.69v-15.95h5.93
				c2.43,0,4.18,0.41,5.23,1.23C152.7,137.82,153.22,139.14,153.22,140.95z M149.64,143.21c0.55-0.47,0.82-1.23,0.82-2.27
				c0-1.04-0.28-1.76-0.84-2.14c-0.56-0.39-1.57-0.58-3.01-0.58h-3.42v5.7h3.35C148.06,143.92,149.09,143.68,149.64,143.21z"/>
			<path class="st1" d="M161.64,148.09l-1.6,3.63h-2.88l7.03-15.95h2.87l7.03,15.95h-2.88l-1.6-3.63H161.64z M168.53,145.6
				l-2.9-6.57l-2.9,6.57H168.53z"/>
			<path class="st1" d="M185.88,149.28c0.93,0,1.73-0.16,2.4-0.47c0.67-0.31,1.37-0.81,2.1-1.49l1.73,1.78
				c-1.69,1.87-3.74,2.81-6.15,2.81s-4.41-0.78-6-2.33c-1.59-1.55-2.39-3.51-2.39-5.89s0.81-4.35,2.43-5.93
				c1.62-1.58,3.67-2.37,6.14-2.37c2.47,0,4.54,0.91,6.2,2.74l-1.71,1.87c-0.76-0.73-1.48-1.24-2.16-1.53
				c-0.68-0.29-1.47-0.43-2.39-0.43c-1.61,0-2.97,0.52-4.06,1.56c-1.1,1.04-1.64,2.37-1.64,3.99s0.54,2.97,1.63,4.06
				C183.1,148.73,184.39,149.28,185.88,149.28z"/>
			<path class="st1" d="M203.7,138.23v13.49h-2.69v-13.49h-4.84v-2.47h12.37v2.47H203.7z"/>
			<path class="st1" d="M213.74,135.77h2.69v15.95h-2.69V135.77z"/>
			<path class="st1" d="M230.42,151.72h-3.01L221,135.77h3.01l4.91,11.91l4.91-11.91h3.01L230.42,151.72z"/>
			<path class="st1" d="M252.6,135.77v2.53h-8.51v4.22h7.64v2.4h-7.64v4.27h8.79v2.53H241.4v-15.95H252.6z"/>
		</g>
		<g>
			<path class="st1" d="M92.8,121.87h-9.1l-1.69,4.18h-6.21l9.5-21.53h6l9.53,21.53h-6.33L92.8,121.87z M91.01,117.38l-2.77-6.89
				l-2.77,6.89H91.01z"/>
			<path class="st1" d="M124.66,126.05l-0.06-11.41l-5.53,9.29h-2.71l-5.5-8.98v11.1h-5.63v-21.53h5.01l7.56,12.42l7.38-12.42h5.01
				l0.06,21.53H124.66z"/>
			<path class="st1" d="M139.71,123.87c-1.77-1.74-2.66-4.21-2.66-7.41v-11.93h6.09v11.75c0,3.44,1.36,5.17,4.09,5.17
				c2.71,0,4.06-1.72,4.06-5.17v-11.75h6v11.93c0,3.2-0.89,5.67-2.66,7.41c-1.77,1.74-4.26,2.61-7.46,2.61
				C143.97,126.48,141.48,125.61,139.71,123.87z"/>
			<path class="st1" d="M166.57,125.84c-1.64-0.43-2.97-1-4-1.72l2-4.49c0.96,0.64,2.08,1.15,3.35,1.54
				c1.27,0.39,2.52,0.58,3.75,0.58c2.34,0,3.51-0.58,3.51-1.75c0-0.61-0.33-1.07-1-1.37c-0.67-0.3-1.74-0.61-3.21-0.94
				c-1.62-0.35-2.97-0.72-4.06-1.12c-1.09-0.4-2.02-1.04-2.8-1.92c-0.78-0.88-1.17-2.07-1.17-3.57c0-1.31,0.36-2.5,1.08-3.55
				c0.72-1.06,1.79-1.89,3.21-2.51c1.42-0.62,3.17-0.92,5.24-0.92c1.41,0,2.81,0.16,4.18,0.48c1.37,0.32,2.58,0.78,3.63,1.4
				l-1.88,4.52c-2.05-1.11-4.04-1.66-5.97-1.66c-1.21,0-2.09,0.18-2.64,0.54c-0.55,0.36-0.83,0.83-0.83,1.4c0,0.57,0.33,1,0.98,1.29
				c0.66,0.29,1.71,0.58,3.17,0.89c1.64,0.35,3,0.72,4.07,1.12s2.01,1.04,2.8,1.91c0.79,0.87,1.18,2.06,1.18,3.55
				c0,1.29-0.36,2.46-1.08,3.51c-0.72,1.05-1.79,1.88-3.23,2.51c-1.44,0.63-3.18,0.94-5.23,0.94
				C169.9,126.48,168.21,126.27,166.57,125.84z"/>
			<path class="st1" d="M207.13,104.53v21.53h-5.01l-9.5-11.47v11.47h-5.97v-21.53h5.01l9.5,11.47v-11.47H207.13z"/>
			<path class="st1" d="M231.39,121.35v4.7h-17.28v-21.53h16.88v4.7h-10.86v3.63h9.56v4.55h-9.56v3.94H231.39z"/>
			<path class="st1" d="M242.03,109.35h-6.61v-4.83h19.28v4.83h-6.58v16.7h-6.09V109.35z"/>
		</g>
	</g>
</g>
</svg>
