<svg width="600" height="69" viewBox="0 0 600 69" fill="none" xmlns="http://www.w3.org/2000/svg">
<path d="M42.7518 36.2207V47.055C42.7518 51.4048 41.8646 55.2445 40.0901 58.574C38.3429 61.8766 35.8586 64.4409 32.6372 66.2667C29.4431 68.0657 25.7303 68.9652 21.4988 68.9652C17.24 68.9652 13.4862 68.1194 10.2375 66.4278C6.98881 64.7094 4.46355 62.2928 2.66175 59.1781C0.887251 56.0634 0 52.452 0 48.3438V31.0654C0 26.7156 0.873601 22.8893 2.6208 19.5867C4.3953 16.284 6.87961 13.7332 10.0737 11.9342C13.2951 10.1084 17.0216 9.19543 21.2531 9.19543C24.7202 9.19543 27.9279 9.92041 30.8763 11.3703C33.8247 12.7934 36.2817 14.8207 38.2473 17.452C40.2129 20.0834 41.5506 23.131 42.2604 26.5947H31.6953C31.2312 24.9837 30.4668 23.6009 29.4021 22.4463C28.3647 21.2917 27.1226 20.4191 25.6757 19.8283C24.2561 19.2108 22.7819 18.902 21.2531 18.902C19.0145 18.902 17.0489 19.4122 15.3563 20.4325C13.691 21.426 12.3942 22.849 11.466 24.7018C10.5378 26.5276 10.0737 28.6488 10.0737 31.0654V48.3438C10.0737 50.5188 10.5378 52.4386 11.466 54.1033C12.4215 55.7412 13.7592 57.0166 15.4791 57.9296C17.2263 58.8156 19.2329 59.2587 21.4988 59.2587C23.7374 59.2587 25.703 58.7888 27.3956 57.849C29.0882 56.8824 30.3849 55.4996 31.2858 53.7006C32.214 51.8747 32.6781 49.7132 32.6781 47.2161V45.444H22.113V36.2207H42.7518Z" fill="url(#paint0_linear_11974_490686)"/>
<path d="M72.1046 68.9652C67.8731 68.9652 64.1466 68.0792 60.9252 66.307C57.7038 64.508 55.2058 61.984 53.4313 58.7351C51.6568 55.4593 50.7696 51.6733 50.7696 47.3772V30.7834C50.7696 26.4873 51.6568 22.7148 53.4313 19.4659C55.2058 16.1901 57.7038 13.6661 60.9252 11.8939C64.1466 10.0949 67.8731 9.19543 72.1046 9.19543C76.3361 9.19543 80.0625 10.0949 83.2839 11.8939C86.5053 13.6661 89.0033 16.1901 90.7778 19.4659C92.5523 22.7148 93.4395 26.4873 93.4395 30.7834V47.3772C93.4395 51.6733 92.5523 55.4593 90.7778 58.7351C89.0033 61.984 86.5053 64.508 83.2839 66.307C80.0625 68.0792 76.3361 68.9652 72.1046 68.9652ZM72.1046 59.4198C74.3432 59.4198 76.3088 58.9365 78.0014 57.9698C79.7213 57.0032 81.0453 55.6338 81.9735 53.8617C82.9017 52.0627 83.3658 49.9952 83.3658 47.6592V30.5015C83.3658 28.1655 82.9017 26.1114 81.9735 24.3393C81.0453 22.5403 79.7213 21.1575 78.0014 20.1908C76.3088 19.2242 74.3432 18.7409 72.1046 18.7409C69.866 18.7409 67.8867 19.2242 66.1668 20.1908C64.4742 21.1575 63.1638 22.5403 62.2356 24.3393C61.3074 26.1114 60.8433 28.1655 60.8433 30.5015V47.6592C60.8433 49.9952 61.3074 52.0627 62.2356 53.8617C63.1638 55.6338 64.4742 57.0032 66.1668 57.9698C67.8867 58.9365 69.866 59.4198 72.1046 59.4198Z" fill="url(#paint1_linear_11974_490686)"/>
<path d="M102.686 9.79958H112.473V68.3611H102.686V9.79958ZM107.272 59.1379H141.752V68.3611H107.272V59.1379Z" fill="url(#paint2_linear_11974_490686)"/>
<path d="M156.412 59.1379H170.294C174.335 59.1379 177.461 58.1444 179.672 56.1574C181.91 54.1705 183.03 51.3511 183.03 47.6994V30.4612C183.03 26.8095 181.91 23.9902 179.672 22.0032C177.461 20.0163 174.335 19.0228 170.294 19.0228H156.412V9.79958H170.049C174.908 9.79958 179.058 10.6185 182.497 12.2564C185.965 13.8943 188.599 16.284 190.401 19.4256C192.203 22.5671 193.103 26.3531 193.103 30.7834V47.3772C193.103 51.7002 192.216 55.4325 190.442 58.574C188.667 61.7155 186.046 64.1321 182.579 65.8237C179.139 67.5153 174.949 68.3611 170.008 68.3611H156.412V59.1379ZM150.761 9.79958H160.548V68.3611H150.761V9.79958Z" fill="url(#paint3_linear_11974_490686)"/>
<path d="M72.1046 68.9652C67.8731 68.9652 64.1466 68.0792 60.9252 66.307C57.7038 64.508 55.2058 61.984 53.4313 58.7351C51.6568 55.4593 50.7696 51.6733 50.7696 47.3772V30.7834C50.7696 26.4873 51.6568 22.7148 53.4313 19.4659C55.2058 16.1901 57.7038 13.6661 60.9252 11.8939C64.1466 10.0949 67.8731 9.19543 72.1046 9.19543C76.3361 9.19543 80.0625 10.0949 83.2839 11.8939C86.5053 13.6661 89.0033 16.1901 90.7778 19.4659C92.5523 22.7148 93.4395 26.4873 93.4395 30.7834V47.3772C93.4395 51.6733 92.5523 55.4593 90.7778 58.7351C89.0033 61.984 86.5053 64.508 83.2839 66.307C80.0625 68.0792 76.3361 68.9652 72.1046 68.9652ZM72.1046 59.4198C74.3432 59.4198 76.3088 58.9365 78.0014 57.9698C79.7213 57.0032 81.0453 55.6338 81.9735 53.8617C82.9017 52.0627 83.3658 49.9952 83.3658 47.6592V30.5015C83.3658 28.1655 82.9017 26.1114 81.9735 24.3393C81.0453 22.5403 79.7213 21.1575 78.0014 20.1908C76.3088 19.2242 74.3432 18.7409 72.1046 18.7409C69.866 18.7409 67.8867 19.2242 66.1668 20.1908C64.4742 21.1575 63.1638 22.5403 62.2356 24.3393C61.3074 26.1114 60.8433 28.1655 60.8433 30.5015V47.6592C60.8433 49.9952 61.3074 52.0627 62.2356 53.8617C63.1638 55.6338 64.4742 57.0032 66.1668 57.9698C67.8867 58.9365 69.866 59.4198 72.1046 59.4198Z" fill="url(#paint4_linear_11974_490686)"/>
<path fill-rule="evenodd" clip-rule="evenodd" d="M268.643 68.9403L213.771 23.6287C214.58 22.8706 215.086 21.8092 215.086 20.6467C215.086 18.3975 213.266 16.5527 210.991 16.5527C208.716 16.5527 206.896 18.3723 206.896 20.6467C206.896 22.8959 208.716 24.7407 210.991 24.7407C211.421 24.7407 211.85 24.6649 212.229 24.5385L216.575 65.3888C216.792 67.4226 218.508 68.9656 220.553 68.9656H268.643V68.9403Z" fill="url(#paint5_linear_11974_490686)"/>
<path fill-rule="evenodd" clip-rule="evenodd" d="M303.598 18.069C305.848 18.069 307.693 19.8885 307.693 22.1629C307.693 24.4121 305.873 26.2569 303.598 26.2569C303.194 26.2569 302.815 26.2064 302.461 26.1053L297.027 68.3338L284.086 36.6434L300.186 24.3868C299.756 23.755 299.529 22.9716 299.529 22.1377C299.529 19.8885 301.349 18.069 303.598 18.069Z" fill="url(#paint6_linear_11974_490686)"/>
<path fill-rule="evenodd" clip-rule="evenodd" d="M239.652 32.7012L255.601 7.85941C254.135 7.25289 253.099 5.78715 253.099 4.09397C253.124 1.81954 254.944 0 257.193 0C259.442 0 261.288 1.81954 261.288 4.09397C261.288 5.83769 260.201 7.32871 258.659 7.90995L294.322 68.9404H272.434L239.652 32.7012Z" fill="url(#paint7_linear_11974_490686)"/>
<path fill-rule="evenodd" clip-rule="evenodd" d="M333.078 24.4661C333.881 22.6852 335.231 21.1919 336.941 20.1928C338.728 19.1482 340.783 18.6249 342.865 18.6846C344.507 18.6551 346.131 19.0297 347.586 19.7738C349.135 20.529 350.463 21.6529 351.449 23.0416C352.594 24.4974 353.387 26.1876 353.767 27.9852H363.982C363.448 24.2715 362.07 20.7215 359.948 17.5953C358.13 14.8631 355.616 12.6396 352.651 11.1435C349.6 9.72776 346.239 9.06594 342.865 9.21638C338.908 9.08531 334.989 10.0125 331.533 11.8976C328.341 13.6168 325.765 16.2483 324.15 19.4387C322.332 23.0309 321.419 26.9954 321.489 31.0016V47.0054C321.419 51.0117 322.332 54.9761 324.15 58.5683C325.765 61.7587 328.341 64.3903 331.533 66.1094C335.013 67.927 338.92 68.8226 342.865 68.7069C346.257 68.7396 349.609 67.9934 352.651 66.5283C355.604 64.9783 358.112 62.7315 359.948 59.9928C361.991 56.9803 363.365 53.5838 363.982 50.0218H353.767C353.378 51.8276 352.619 53.5378 351.535 55.0492C350.502 56.3525 349.182 57.4121 347.672 58.1494C346.186 58.8938 344.534 59.268 342.865 59.2387C340.791 59.3284 338.735 58.8339 336.941 57.8142C335.231 56.8151 333.881 55.3218 333.078 53.541C332.106 51.4963 331.636 49.2585 331.705 47.0054V31.0016C331.636 28.7485 332.106 26.5107 333.078 24.4661ZM389.392 9.80341L366.901 67.8695H377.46L381.409 56.8093H404.587L408.536 67.8695H419.181L396.603 9.21689L389.392 9.80341ZM384.757 47.8438L393.341 24.7179L401.926 47.8438H384.757ZM446.654 34.3536C449.946 35.0328 453.166 36.0147 456.269 37.2862C458.758 38.2197 460.929 39.8164 462.535 41.8947C464.383 44.6184 465.286 47.8493 465.111 51.1115C465.306 54.4585 464.469 57.7858 462.707 60.6635C460.796 63.3334 458.103 65.3777 454.981 66.5287C451.118 67.959 447.007 68.642 442.877 68.5397C439.997 68.5662 437.121 68.3136 434.292 67.7856C431.727 67.2162 429.226 66.4023 426.824 65.3557C424.519 64.2744 422.357 62.9238 420.385 61.3338L425.622 53.709C427.942 55.5795 430.588 57.027 433.434 57.9822C436.383 58.9981 439.491 59.5084 442.619 59.4904C445.884 59.6178 449.122 58.864 451.976 57.3119C453.026 56.7009 453.89 55.8274 454.479 54.7816C455.067 53.7357 455.359 52.5556 455.324 51.3629C455.398 49.7966 454.843 48.2639 453.779 47.0896C452.749 45.9621 451.408 45.1477 449.916 44.7435C447.89 44.1581 445.825 43.7102 443.735 43.4029H443.306H442.533C439.148 42.9599 435.813 42.2023 432.575 41.1406C429.952 40.2357 427.655 38.6053 425.965 36.4483C424.013 33.5795 423.079 30.1655 423.304 26.7288C423.215 23.4081 424.077 20.129 425.793 17.2606C427.595 14.5537 430.201 12.4488 433.262 11.2277C437.007 9.80277 441.005 9.11919 445.023 9.21679C447.158 9.23786 449.285 9.46236 451.375 9.8871C453.558 10.3814 455.685 11.083 457.728 11.9818C459.874 12.8871 461.917 14.0105 463.823 15.3334L458.844 23.1258C456.679 21.5923 454.311 20.3521 451.805 19.4391C449.534 18.6981 447.159 18.3025 444.765 18.266C441.767 18.1401 438.793 18.8368 436.181 20.277C435.199 20.8788 434.397 21.722 433.854 22.7221C433.312 23.7221 433.048 24.8438 433.09 25.9747C432.894 27.5505 433.324 29.14 434.292 30.4155C435.43 31.4952 436.812 32.2989 438.327 32.7616C439.958 33.2643 442.19 33.7671 445.109 34.3536H446.654ZM534.384 52.9545L509.489 9.80298H498.759V68.1204H508.287V25.6392L533.097 68.1204H543.913V9.80298H534.384V52.9545ZM589.583 11.8978C592.806 13.6318 595.434 16.2548 597.137 19.4388C598.932 22.9438 599.789 26.8352 599.627 30.7504V47.5083C599.724 51.4368 598.809 55.3264 596.966 58.8199C595.211 61.9676 592.596 64.5782 589.411 66.3609C585.925 68.1605 582.023 69.0549 578.08 68.9584C574.164 69.0556 570.29 68.1607 566.834 66.3609C563.649 64.5782 561.034 61.9676 559.28 58.8199C557.41 55.3327 556.465 51.4436 556.533 47.5083V30.7504C556.454 26.8139 557.399 22.9222 559.28 19.4388C560.983 16.2548 563.611 13.6318 566.834 11.8978C570.334 10.0441 574.271 9.11958 578.251 9.21652C582.201 9.14949 586.103 10.0727 589.583 11.8978ZM588.209 53.7087C589.195 51.785 589.696 49.6591 589.669 47.5083L589.583 30.7504C589.62 28.6253 589.119 26.5242 588.124 24.6338C587.283 22.8934 585.901 21.4565 584.175 20.5281C582.35 19.5376 580.296 19.0178 578.209 19.0178C576.121 19.0178 574.067 19.5376 572.242 20.5281C570.495 21.4562 569.085 22.8907 568.208 24.6338C567.242 26.5316 566.77 28.6324 566.834 30.7504V47.5083C566.727 49.6388 567.139 51.7637 568.036 53.7087C568.959 55.4196 570.358 56.8424 572.071 57.8144C573.914 58.7473 575.96 59.2342 578.037 59.2342C580.113 59.2342 582.16 58.7473 584.003 57.8144C585.785 56.8754 587.247 55.4483 588.209 53.7087ZM485.109 9.80298H474.98V24.131L485.109 14.3276V9.80298ZM474.98 68.1204V33.8695L485.109 23.9824V68.1204H474.98Z" fill="white"/>
<defs>
<linearGradient id="paint0_linear_11974_490686" x1="1.4828" y1="91.3625" x2="218.914" y2="-16.5252" gradientUnits="userSpaceOnUse">
<stop stop-color="#C68C2F"/>
<stop offset="0.5221" stop-color="#FDECAF"/>
<stop offset="1" stop-color="#FDBA6D"/>
</linearGradient>
<linearGradient id="paint1_linear_11974_490686" x1="1.4828" y1="91.3625" x2="218.914" y2="-16.5252" gradientUnits="userSpaceOnUse">
<stop stop-color="#C68C2F"/>
<stop offset="0.5221" stop-color="#FDECAF"/>
<stop offset="1" stop-color="#FDBA6D"/>
</linearGradient>
<linearGradient id="paint2_linear_11974_490686" x1="1.4828" y1="91.3625" x2="218.914" y2="-16.5252" gradientUnits="userSpaceOnUse">
<stop stop-color="#C68C2F"/>
<stop offset="0.5221" stop-color="#FDECAF"/>
<stop offset="1" stop-color="#FDBA6D"/>
</linearGradient>
<linearGradient id="paint3_linear_11974_490686" x1="1.4828" y1="91.3625" x2="218.914" y2="-16.5252" gradientUnits="userSpaceOnUse">
<stop stop-color="#C68C2F"/>
<stop offset="0.5221" stop-color="#FDECAF"/>
<stop offset="1" stop-color="#FDBA6D"/>
</linearGradient>
<linearGradient id="paint4_linear_11974_490686" x1="1.4828" y1="91.3625" x2="218.914" y2="-16.5252" gradientUnits="userSpaceOnUse">
<stop stop-color="#C68C2F"/>
<stop offset="0.5221" stop-color="#FDECAF"/>
<stop offset="1" stop-color="#FDBA6D"/>
</linearGradient>
<linearGradient id="paint5_linear_11974_490686" x1="207.371" y1="88.6061" x2="291.267" y2="73.4265" gradientUnits="userSpaceOnUse">
<stop offset="0.0989583" stop-color="#C68C2F"/>
<stop offset="0.744792" stop-color="#FDECAF"/>
<stop offset="1" stop-color="#FDBA6D"/>
</linearGradient>
<linearGradient id="paint6_linear_11974_490686" x1="284.267" y1="87.1693" x2="317.221" y2="84.7923" gradientUnits="userSpaceOnUse">
<stop offset="0.0989583" stop-color="#C68C2F"/>
<stop offset="0.744792" stop-color="#FDECAF"/>
<stop offset="1" stop-color="#FDBA6D"/>
</linearGradient>
<linearGradient id="paint7_linear_11974_490686" x1="240.072" y1="94.7741" x2="315.663" y2="85.5678" gradientUnits="userSpaceOnUse">
<stop offset="0.0989583" stop-color="#C68C2F"/>
<stop offset="0.744792" stop-color="#FDECAF"/>
<stop offset="1" stop-color="#FDBA6D"/>
</linearGradient>
</defs>
</svg>
