<svg width="1487" height="401" viewBox="0 0 1487 401" fill="none" xmlns="http://www.w3.org/2000/svg">
<path d="M552.421 177.132C555.69 129.26 576.983 84.4061 612.008 51.6087C647.033 18.8112 693.188 0.507852 741.171 0.386592C789.155 0.265332 835.401 18.3352 870.591 50.9552C905.782 83.5752 927.301 128.321 930.813 176.176L927.516 176.418C924.066 129.397 902.922 85.4309 868.344 53.3793C833.767 21.3278 788.327 3.57284 741.18 3.69199C694.032 3.81113 648.682 21.7955 614.267 54.0214C579.853 86.2473 558.931 130.319 555.718 177.357L552.421 177.132Z" fill="url(#paint0_linear_1307_501)"/>
<path opacity="0.5" d="M560.279 166.807C565.763 124.026 586.193 84.5595 617.96 55.3834C649.726 26.2073 690.784 9.19961 733.877 7.36589C776.97 5.53217 819.324 18.9905 853.454 45.3624C887.584 71.7344 911.294 109.322 920.392 151.484L918.336 151.927C909.342 110.251 885.906 73.0955 852.168 47.0269C818.43 20.9583 776.563 7.6548 733.966 9.46743C691.369 11.2801 650.784 28.0921 619.383 56.9326C587.981 85.773 567.786 124.785 562.365 167.075L560.279 166.807Z" fill="url(#paint1_linear_1307_501)"/>
<path opacity="0.1" d="M565.734 160.92C572.418 120.564 592.775 83.733 623.389 56.6033C654.004 29.4735 693.016 13.6948 733.883 11.9128C774.75 10.1308 814.987 22.4541 847.847 46.816C880.707 71.178 904.192 106.097 914.364 145.718L912.377 146.228C902.322 107.063 879.108 72.5455 846.626 48.4638C814.144 24.3821 774.369 12.2006 733.972 13.962C693.576 15.7235 655.012 31.3208 624.75 58.1384C594.487 84.9561 574.365 121.363 567.758 161.255L565.734 160.92Z" fill="url(#paint2_linear_1307_501)"/>
<path opacity="0.45" d="M901.791 192.328C901.791 213.359 897.649 234.183 889.601 253.612C881.554 273.041 869.758 290.695 854.887 305.565C840.017 320.436 822.363 332.232 802.934 340.28C783.504 348.327 762.68 352.47 741.65 352.47C720.62 352.47 699.796 348.327 680.367 340.28C660.938 332.232 643.284 320.436 628.413 305.565C613.543 290.695 601.747 273.041 593.699 253.612C585.651 234.183 581.509 213.358 581.509 192.328L601.769 192.328C601.769 210.698 605.387 228.887 612.417 245.859C619.447 262.83 629.75 278.25 642.739 291.239C655.729 304.228 671.149 314.532 688.12 321.562C705.091 328.591 723.281 332.21 741.65 332.21C760.02 332.21 778.209 328.591 795.18 321.562C812.152 314.532 827.572 304.228 840.561 291.239C853.55 278.25 863.854 262.83 870.883 245.859C877.913 228.887 881.531 210.698 881.531 192.328H901.791Z" fill="url(#paint3_radial_1307_501)"/>
<path d="M901.791 192.328C901.791 213.359 897.649 234.183 889.601 253.612C881.554 273.041 869.758 290.695 854.887 305.565C840.017 320.436 822.363 332.232 802.934 340.28C783.504 348.327 762.68 352.47 741.65 352.47C720.62 352.47 699.796 348.327 680.367 340.28C660.938 332.232 643.284 320.436 628.413 305.565C613.543 290.695 601.747 273.041 593.699 253.612C585.651 234.183 581.509 213.358 581.509 192.328L583.192 192.328C583.192 213.137 587.291 233.743 595.254 252.968C603.217 272.193 614.889 289.661 629.603 304.375C644.318 319.089 661.786 330.761 681.011 338.725C700.236 346.688 720.841 350.787 741.65 350.787C762.459 350.787 783.064 346.688 802.29 338.725C821.515 330.761 838.983 319.089 853.697 304.375C868.411 289.661 880.083 272.193 888.046 252.968C896.01 233.743 900.108 213.137 900.108 192.328H901.791Z" fill="url(#paint4_linear_1307_501)"/>
<path d="M604.024 218.184C609.651 249.961 626.461 278.778 651.51 299.59C676.56 320.403 708.253 331.884 741.041 332.024C773.829 332.165 805.622 320.955 830.855 300.358C856.088 279.761 873.152 251.089 879.06 219.362L877.616 219.102C871.77 250.496 854.885 278.866 829.918 299.247C804.95 319.627 773.491 330.719 741.047 330.58C708.604 330.441 677.244 319.08 652.458 298.487C627.671 277.893 611.038 249.379 605.471 217.936L604.024 218.184Z" fill="url(#paint5_linear_1307_501)"/>
<path fill-rule="evenodd" clip-rule="evenodd" d="M471.932 202.468C482.699 202.419 500.702 203.992 517.903 211.988C535.014 219.943 551.502 233.728 560.34 256.634C560.348 256.663 560.355 256.69 560.362 256.714C560.392 256.823 560.43 256.943 560.47 257.065C560.552 257.312 560.667 257.637 560.815 258.03C561.11 258.819 561.55 259.924 562.14 261.304C563.32 264.067 565.113 267.954 567.577 272.643C572.504 282.02 580.13 294.627 590.942 307.868C612.561 334.344 646.983 363.43 698.068 374.168C700.424 374.746 703.331 375.329 706.458 375.956C707.909 376.247 709.407 376.547 710.92 376.861C715.773 377.868 720.883 379.033 725.508 380.527C730.167 382.032 734.146 383.812 736.856 385.964C739.337 387.933 740.39 390.582 740.522 392.881C740.518 393.038 740.516 393.197 740.516 393.357H745.038L745.058 393.356C745.059 393.197 745.056 393.038 745.052 392.881C745.184 390.582 746.237 387.934 748.718 385.964C751.429 383.813 755.407 382.032 760.066 380.527C764.692 379.033 769.801 377.868 774.655 376.861C776.167 376.547 777.666 376.247 779.117 375.956C782.243 375.329 785.15 374.747 787.506 374.168C838.591 363.43 873.013 334.345 894.632 307.869C905.444 294.627 913.07 282.02 917.997 272.643C920.461 267.954 922.254 264.067 923.434 261.305C924.024 259.924 924.464 258.819 924.76 258.03C924.907 257.638 925.022 257.313 925.104 257.065C925.144 256.944 925.182 256.823 925.212 256.714C925.219 256.691 925.226 256.664 925.234 256.634C934.073 233.728 950.56 219.943 967.672 211.988C984.872 203.992 1002.87 202.419 1013.64 202.468L1013.7 202.471H1485.57V198.01L1013.81 198.01C1001.74 197.926 983.652 199.625 965.734 207.955C947.737 216.321 930.247 230.93 920.93 255.217L920.784 255.598V255.708C920.726 255.882 920.634 256.142 920.504 256.487C920.236 257.204 919.822 258.246 919.254 259.576C918.118 262.233 916.376 266.013 913.968 270.595C909.152 279.76 901.685 292.107 891.096 305.075C869.919 331.011 836.324 359.355 786.522 369.814L786.483 369.822L786.445 369.831C784.181 370.388 781.424 370.94 778.345 371.558L778.343 371.558C776.869 371.853 775.322 372.164 773.719 372.496C768.829 373.511 763.521 374.716 758.651 376.289C753.815 377.851 749.219 379.834 745.87 382.493C744.648 383.463 743.612 384.54 742.787 385.736C741.962 384.539 740.926 383.463 739.704 382.492C736.355 379.834 731.76 377.851 726.923 376.288C722.053 374.715 716.745 373.51 711.856 372.496C710.253 372.163 708.705 371.853 707.232 371.558L707.23 371.557C704.15 370.94 701.394 370.388 699.129 369.831L699.091 369.821L699.053 369.813C649.25 359.355 615.656 331.011 594.478 305.075C583.89 292.107 576.422 279.76 571.606 270.595C569.198 266.013 567.456 262.232 566.32 259.575C565.752 258.246 565.338 257.203 565.07 256.487C564.94 256.141 564.848 255.882 564.79 255.708V255.598L564.644 255.217C555.327 230.93 537.837 216.32 519.84 207.954C501.922 199.625 483.835 197.926 471.762 198.01L0.00445557 198.01V202.471H471.875L471.932 202.468Z" fill="url(#paint6_radial_1307_501)"/>
<path opacity="0.2" fill-rule="evenodd" clip-rule="evenodd" d="M467.194 218.096C477.477 218.049 494.668 219.551 511.094 227.187C527.435 234.784 543.18 247.948 551.62 269.822C551.627 269.85 551.634 269.876 551.641 269.899C551.67 270.003 551.706 270.118 551.744 270.234C551.822 270.47 551.933 270.78 552.073 271.155C552.355 271.908 552.775 272.964 553.339 274.282C554.466 276.92 556.178 280.632 558.531 285.11C563.236 294.064 570.519 306.104 580.844 318.749C601.488 344.032 634.36 371.807 683.144 382.062C685.394 382.614 688.17 383.171 691.156 383.769C692.541 384.047 693.972 384.334 695.417 384.634C700.052 385.595 704.931 386.708 709.348 388.134C713.797 389.571 717.596 391.272 720.184 393.326C722.719 395.338 723.693 398.092 723.699 400.386H728.018C728.024 395.962 726.156 392.592 722.904 390.011C719.707 387.473 715.318 385.579 710.699 384.087C706.048 382.585 700.98 381.434 696.31 380.465C694.783 380.148 693.308 379.852 691.903 379.571L691.895 379.569L691.894 379.569C688.952 378.979 686.32 378.452 684.157 377.92L684.121 377.911L684.084 377.903C636.525 367.916 604.444 340.849 584.22 316.081C574.109 303.697 566.977 291.906 562.378 283.154C560.079 278.779 558.415 275.169 557.331 272.631C556.788 271.362 556.393 270.366 556.137 269.682C556.013 269.352 555.925 269.104 555.87 268.937V268.833L555.73 268.469C546.833 245.276 530.13 231.325 512.944 223.335C495.833 215.381 478.561 213.759 467.032 213.839L0 213.839V218.099H467.14L467.194 218.096ZM1019.51 218.096C1009.22 218.049 992.033 219.552 975.607 227.187C959.266 234.784 943.522 247.948 935.081 269.822C935.074 269.85 935.067 269.876 935.06 269.899C935.031 270.003 934.995 270.118 934.957 270.234C934.879 270.47 934.769 270.78 934.628 271.155C934.346 271.909 933.926 272.964 933.363 274.282C932.235 276.92 930.523 280.632 928.17 285.11C923.465 294.064 916.182 306.104 905.857 318.749C885.213 344.032 852.341 371.807 803.558 382.062C801.307 382.614 798.531 383.171 795.546 383.769L795.538 383.771C794.155 384.048 792.726 384.334 791.285 384.634C786.649 385.595 781.77 386.708 777.353 388.134C772.904 389.571 769.105 391.272 766.517 393.327C763.982 395.338 763.008 398.092 763.002 400.386H758.684C758.677 395.962 760.545 392.592 763.797 390.011C766.995 387.473 771.383 385.579 776.002 384.087C780.653 382.585 785.721 381.434 790.391 380.465C791.919 380.148 793.393 379.853 794.798 379.571L794.806 379.569L794.808 379.569C797.749 378.98 800.381 378.452 802.544 377.92L802.58 377.911L802.617 377.903C850.176 367.916 882.258 340.849 902.481 316.081C912.592 303.697 919.724 291.906 924.323 283.154C926.622 278.779 928.286 275.169 929.37 272.631C929.913 271.362 930.308 270.366 930.565 269.682C930.688 269.352 930.776 269.104 930.831 268.938V268.833L930.971 268.469C939.868 245.276 956.571 231.325 973.757 223.336C990.868 215.381 1008.14 213.759 1019.67 213.839L1486.7 213.839V218.099H1019.56L1019.51 218.096Z" fill="url(#paint7_radial_1307_501)"/>
<defs>
<linearGradient id="paint0_linear_1307_501" x1="741.65" y1="0.385986" x2="741.27" y2="174.195" gradientUnits="userSpaceOnUse">
<stop stop-color="#4FF4FF"/>
<stop offset="1" stop-color="#41FFC6"/>
</linearGradient>
<linearGradient id="paint1_linear_1307_501" x1="741.651" y1="7.20056" x2="741.284" y2="174.765" gradientUnits="userSpaceOnUse">
<stop stop-color="#4FF4FF"/>
<stop offset="1" stop-color="#41FFC6"/>
</linearGradient>
<linearGradient id="paint2_linear_1307_501" x1="741.651" y1="11.7435" x2="741.293" y2="175.145" gradientUnits="userSpaceOnUse">
<stop stop-color="#4FF4FF"/>
<stop offset="1" stop-color="#41FFC6"/>
</linearGradient>
<radialGradient id="paint3_radial_1307_501" cx="0" cy="0" r="1" gradientUnits="userSpaceOnUse" gradientTransform="translate(753.008 352.47) rotate(-91.0768) scale(160.048 160.048)">
<stop stop-color="#34EBFF"/>
<stop offset="1" stop-color="#34EBFF" stop-opacity="0"/>
</radialGradient>
<linearGradient id="paint4_linear_1307_501" x1="741.65" y1="32.1873" x2="741.329" y2="178.937" gradientUnits="userSpaceOnUse">
<stop stop-color="#4FF4FF"/>
<stop offset="1" stop-color="#41FFC6"/>
</linearGradient>
<linearGradient id="paint5_linear_1307_501" x1="741.649" y1="57.1736" x2="741.92" y2="183.107" gradientUnits="userSpaceOnUse">
<stop stop-color="#4FF4FF"/>
<stop offset="1" stop-color="#41FFC6"/>
</linearGradient>
<radialGradient id="paint6_radial_1307_501" cx="0" cy="0" r="1" gradientUnits="userSpaceOnUse" gradientTransform="translate(746.194 405.85) rotate(-90) scale(427.044 807.152)">
<stop stop-color="#4AFFF4"/>
<stop offset="0.455612" stop-color="#63FFDA"/>
<stop offset="0.655655" stop-color="#6CFFFF" stop-opacity="0.24"/>
<stop offset="1" stop-color="#72A2FF" stop-opacity="0"/>
</radialGradient>
<radialGradient id="paint7_radial_1307_501" cx="0" cy="0" r="1" gradientUnits="userSpaceOnUse" gradientTransform="translate(739.941 412.316) rotate(-90) scale(407.807 807.769)">
<stop stop-color="#4AFFF4"/>
<stop offset="0.455612" stop-color="#63FFDA"/>
<stop offset="0.655655" stop-color="#6CFFFF" stop-opacity="0.24"/>
<stop offset="1" stop-color="#72A2FF" stop-opacity="0"/>
</radialGradient>
</defs>
</svg>
