<svg width="54" height="54" viewBox="0 0 54 54" fill="none" xmlns="http://www.w3.org/2000/svg">
<g clip-path="url(#clip0_1297_1604)">
<path d="M53.2464 33.3366C56.7477 18.8418 47.8357 4.25302 33.3409 0.751719C18.8461 -2.74959 4.25736 6.1624 0.756058 20.6572C-2.74525 35.152 6.16674 49.7407 20.6615 53.242C35.1563 56.7433 49.7451 47.8314 53.2464 33.3366Z" fill="url(#paint0_linear_1297_1604)"/>
<path d="M2.10999 16.5254C4.69222 11.9491 8.46079 8.15383 13.0188 5.53942C17.5768 2.925 22.7554 1.58817 28.0094 1.66972C46.5964 1.66972 52.8726 19.3279 52.8726 19.3279C52.8726 19.3279 45.8232 0 28.0631 0C10.3029 0 2.10999 16.5254 2.10999 16.5254Z" fill="#63C7FF"/>
<g style="mix-blend-mode:multiply" opacity="0.5">
<path d="M6.8775 28.455C7.44117 29.6017 8.10028 30.699 8.84787 31.7353C9.58326 32.7778 10.3944 33.7648 11.2746 34.6882C13.0018 36.5532 15.0378 38.1061 17.2931 39.2786C19.5516 40.4268 22.0111 41.1269 24.5357 41.3402C27.0806 41.5345 29.6403 41.3536 32.1326 40.8033C29.6588 41.5123 27.0838 41.8026 24.5142 41.6624C21.9283 41.4934 19.403 40.805 17.0891 39.6383C14.8017 38.4303 12.7475 36.825 11.0223 34.8976C9.30283 32.9872 7.90322 30.8116 6.8775 28.455Z" fill="#CA6D92"/>
<path d="M10.6733 38.4196C11.5716 39.4569 12.5617 40.411 13.6315 41.2704C14.6838 42.1367 15.8312 42.8806 17.0515 43.4878C18.2742 44.0937 19.5868 44.498 20.9385 44.685L21.9533 44.7924C22.2915 44.7924 22.6297 44.7924 22.9733 44.7924H23.4834L23.9881 44.7119L24.9867 44.5615C23.6606 44.9893 22.2617 45.1446 20.8741 45.0179C19.484 44.8715 18.1302 44.4826 16.8743 43.869C14.3907 42.602 12.2601 40.7389 10.6733 38.4464V38.4196Z" fill="#CA6D92"/>
<path d="M26.9355 17.6045C29.1211 17.0137 31.3541 16.6149 33.609 16.4126C35.8737 16.1835 38.1586 16.2503 40.406 16.6113C41.5376 16.8135 42.6348 17.175 43.6649 17.685C44.7119 18.1823 45.6194 18.9312 46.3064 19.8648C46.963 20.8217 47.364 21.9306 47.4714 23.0861C47.5552 24.2193 47.4738 25.3587 47.2298 26.4685C47.552 24.2619 47.4178 21.8405 46.0541 20.0634C44.6904 18.2863 42.5052 17.4112 40.3309 17.0354C38.1178 16.664 35.8671 16.5684 33.6305 16.7508C32.5084 16.8153 31.3863 16.9334 30.2696 17.0837C29.1529 17.234 28.0415 17.3736 26.9355 17.6045Z" fill="#CA6D92"/>
</g>
<g style="mix-blend-mode:soft-light">
<path d="M6.54462 28.7395C7.10824 29.888 7.76735 30.9871 8.51499 32.0253C9.24311 33.069 10.047 34.0577 10.9202 34.9835C12.6459 36.8516 14.6822 38.4065 16.9387 39.5792C19.202 40.7365 21.6696 41.4405 24.2028 41.6516C26.7496 41.8336 29.3093 41.6401 31.7997 41.0772C29.3201 41.7951 26.738 42.0945 24.1599 41.963C21.574 41.7941 19.0486 41.1057 16.7347 39.939C14.446 38.7308 12.3915 37.1235 10.6679 35.1929C8.95284 33.2794 7.56025 31.0999 6.54462 28.7395Z" fill="#FFF9C7"/>
<path d="M10.3404 38.7202C11.2401 39.7562 12.2301 40.7102 13.2986 41.5711C14.3514 42.4338 15.4987 43.1741 16.7186 43.7777C17.9324 44.3844 19.2357 44.7922 20.5788 44.9857L21.5935 45.0931C21.9318 45.0931 22.27 45.0931 22.6136 45.0931H23.1505L23.6552 45.0125L24.6806 44.8622C23.3545 45.29 21.9557 45.4452 20.5681 45.3186C19.1779 45.1721 17.8242 44.7833 16.5683 44.1696C15.3276 43.5359 14.17 42.7515 13.1215 41.8342C12.0666 40.9179 11.1321 39.8715 10.3404 38.7202Z" fill="#FFF9C7"/>
<path d="M26.6027 17.9051C28.7917 17.3137 31.0283 16.9149 33.2869 16.7133C35.5497 16.4814 37.8331 16.5482 40.0785 16.9119C41.212 17.1134 42.311 17.4749 43.3428 17.9857C44.3911 18.4858 45.2988 19.2385 45.9842 20.1762C46.6408 21.1331 47.0419 22.242 47.1493 23.3975C47.2335 24.5307 47.1521 25.6701 46.9077 26.7799C47.2298 24.5786 47.0956 22.1573 45.7319 20.3802C44.3682 18.6031 42.1831 17.6958 40.0087 17.3522C37.7907 16.962 35.5324 16.8519 33.2869 17.0247C32.1648 17.0891 31.0427 17.2072 29.926 17.3575C28.8093 17.5079 27.7086 17.6743 26.6027 17.9051Z" fill="#FFF9C7"/>
</g>
<g style="mix-blend-mode:soft-light" opacity="0.8">
<path d="M5.7608 43.5683C5.7608 43.5683 14.0074 52.792 27 52.792C39.9927 52.792 48.2392 43.5683 48.2392 43.5683C48.2392 43.5683 40.7604 54 27 54C13.2396 54 5.7608 43.5683 5.7608 43.5683Z" fill="white"/>
</g>
<path d="M27 3.9998C22.451 3.9998 18.0042 5.34874 14.2218 7.87603C10.4394 10.4033 7.49144 13.9955 5.75061 18.1982C4.00978 22.4009 3.5543 27.0255 4.44177 31.4871C5.32924 35.9487 7.51979 40.047 10.7364 43.2636C13.9531 46.4802 18.0513 48.6708 22.5129 49.5583C26.9745 50.4457 31.5991 49.9902 35.8018 48.2494C40.0046 46.5086 43.5967 43.5606 46.124 39.7782C48.6513 35.9959 50.0002 31.549 50.0002 27C50.0002 20.9 47.577 15.0498 43.2636 10.7364C38.9502 6.42303 33.1001 3.9998 27 3.9998V3.9998ZM27 48.8566C22.6757 48.8577 18.4481 47.5763 14.8521 45.1745C11.2561 42.7726 8.45318 39.3583 6.79783 35.3633C5.14248 31.3684 4.70909 26.9722 5.55247 22.7309C6.39585 18.4896 8.47811 14.5936 11.5359 11.5359C14.5937 8.47808 18.4896 6.39582 22.7309 5.55244C26.9722 4.70906 31.3684 5.14246 35.3634 6.79781C39.3583 8.45315 42.7727 11.2561 45.1745 14.8521C47.5763 18.4481 48.8577 22.6756 48.8567 27C48.8552 32.7963 46.552 38.3548 42.4534 42.4534C38.3548 46.552 32.7963 48.8552 27 48.8566V48.8566Z" fill="url(#paint1_linear_1297_1604)"/>
<g clip-path="url(#clip1_1297_1604)">
<mask id="mask0_1297_1604" style="mask-type:luminance" maskUnits="userSpaceOnUse" x="9" y="10" width="35" height="35">
<path d="M9.98633 10.7261H43.6438V44.3836H9.98633V10.7261Z" fill="white"/>
</mask>
<g mask="url(#mask0_1297_1604)">
<path d="M26.7797 10.7919C19.6956 10.7929 13.6362 15.1796 11.1689 21.3848L11.1461 21.4424C9.88557 24.6472 11.0414 28.2983 13.8978 30.2219L23.5246 37.8056C27.6783 41.0776 33.374 41.6785 38.0689 39.2461C39.0481 38.7388 39.858 38.1626 40.3482 37.4924C42.3893 34.7016 43.59 31.2573 43.5779 27.532C43.548 18.3082 36.0035 10.7906 26.7797 10.7919Z" fill="#00B7F0"/>
<path d="M30.5366 37.8419C30.5366 38.2068 30.8324 38.5026 31.1973 38.5026C31.5622 38.5026 31.858 38.2068 31.858 37.8419C31.858 37.477 31.5622 37.1813 31.1973 37.1813C30.8324 37.1813 30.5366 37.477 30.5366 37.8419Z" fill="#0091C8"/>
<path d="M31.3594 31.0711C31.477 31.189 34.1158 33.8352 34.2355 33.9266C35.274 34.7425 36.8576 34.251 37.2115 32.9267L38.857 26.7694C40.2349 25.2834 41.5116 23.5407 42.5434 21.7719C41.2349 18.2269 38.7644 15.2453 35.5942 13.2876C34.2607 13.9921 32.9252 14.8471 31.6908 15.7822C30.5288 16.6623 29.8099 17.3432 29.735 17.4079L23.3887 19.1039C21.9826 19.4797 21.5223 21.2338 22.5434 22.255L23.9369 23.6486L25.3085 25.0201C25.3062 25.4513 25.3518 25.8553 25.4447 26.2593L23.4127 28.2913C22.0728 28.2122 20.7065 28.6836 19.6827 29.7073C19.2041 30.186 18.4018 30.0239 18.1298 29.404C18.1124 29.3644 18.0943 29.3251 18.0757 29.2861C18.07 29.2745 18.0638 29.2631 18.0572 29.252C17.7954 28.7188 17.4162 28.2519 16.9481 27.8863C16.4918 27.5305 16.3046 26.9188 16.5014 26.3747C16.6553 25.9486 16.726 25.4827 16.6931 24.9964C16.4827 21.8778 12.3448 20.6402 10.5248 23.3544C7.75479 34.5572 24.1694 46.8039 33.1042 43.1624C35.6897 42.1087 38.0815 40.3656 39.9391 38.0184C41.1857 36.4433 39.0033 34.4603 37.5533 35.8503C36.8307 36.5428 36.0478 37.1696 35.2139 37.7232C34.8743 37.9487 34.4461 37.9496 34.0819 37.7663C33.7815 37.6152 33.43 37.8209 33.3983 38.1416C33.3583 38.5496 33.1202 38.9128 32.7454 39.0792C32.0646 39.3815 31.3641 39.6376 30.6489 39.8457C30.2507 39.9617 29.8247 39.8278 29.5611 39.5076L29.5567 39.5022C28.9276 38.7421 28.0263 38.2019 27.0236 38.0196C26.3484 37.8969 26.0805 37.0758 26.5659 36.5904C27.5896 35.5667 28.061 34.2003 27.9819 32.8604L29.9496 30.8927C30.3989 31.0118 30.8691 31.0737 31.3594 31.0711Z" fill="#0091C8"/>
<path d="M19.3118 27.3262C19.7827 27.3262 20.1645 26.9444 20.1645 26.4735C20.1645 26.0026 19.7827 25.6208 19.3118 25.6208C18.8408 25.6208 18.459 26.0026 18.459 26.4735C18.459 26.9444 18.8408 27.3262 19.3118 27.3262Z" fill="#0091C8"/>
<path d="M18.8855 23.7211C18.9986 23.7211 19.107 23.6761 19.187 23.5962C19.2669 23.5162 19.3118 23.4078 19.3118 23.2947C19.3118 23.1816 19.2669 23.0732 19.187 22.9932C19.107 22.9132 18.9986 22.8683 18.8855 22.8683C18.7724 22.8683 18.6639 22.9132 18.584 22.9932C18.504 23.0732 18.4591 23.1816 18.4591 23.2947C18.4591 23.4078 18.504 23.5162 18.584 23.5962C18.6639 23.6761 18.7724 23.7211 18.8855 23.7211Z" fill="#0091C8"/>
<path d="M29.3628 39.907C28.7561 40.0206 28.1423 39.7588 27.7729 39.2644C27.1226 38.394 26.1648 37.8079 25.1094 37.6161C24.434 37.4933 24.1663 36.6723 24.6516 36.1869C26.5524 34.2862 26.5524 31.2045 24.6516 29.3038C22.7508 27.4031 19.6692 27.4031 17.7684 29.3038C17.2898 29.7824 16.4875 29.6203 16.2155 29.0005C15.9507 28.3983 15.5389 27.8722 15.0179 27.4704C14.5603 27.1174 14.3916 26.5129 14.5878 25.9693C14.7413 25.5437 14.8116 25.0785 14.7789 24.5929C14.6668 22.9316 13.3302 21.5852 11.6697 21.4626C11.4926 21.4495 11.3148 21.4502 11.1378 21.4646C10.3947 23.3618 9.98633 25.427 9.98633 27.5877C9.98633 36.8638 17.5061 44.3836 26.7822 44.3836C29.0173 44.3836 31.15 43.9459 33.1005 43.1533C33.1082 42.9945 33.104 42.8353 33.0878 42.6771C32.8931 40.7981 31.1036 39.5807 29.3628 39.907Z" fill="white"/>
<path d="M16.1614 28.8826C15.9536 28.4493 15.2903 28.7451 15.4736 29.1893C15.5265 29.3177 15.596 29.4253 15.6866 29.4953C16.2076 29.897 16.6194 30.4231 16.8842 31.0253C17.1562 31.6451 17.9586 31.8072 18.4372 31.3286C20.3379 29.4278 23.4196 29.4278 25.3203 31.3286C25.6022 31.6104 25.8484 31.9257 26.0536 32.2674C25.9475 31.1856 25.4803 30.1325 24.6516 29.3038C22.7509 27.4031 19.6692 27.4031 17.7685 29.3038C17.2899 29.7824 16.4876 29.6203 16.2156 29.0005C16.1982 28.9608 16.1801 28.9215 16.1614 28.8826Z" fill="#F5F0F0"/>
<path d="M25.3203 38.2117C24.8349 38.697 25.1027 39.5181 25.7781 39.6409C26.8418 39.8342 27.8064 40.428 28.4569 41.3098C28.8186 41.8 29.4328 42.0439 30.0315 41.9317C30.7865 41.7903 31.5503 41.9394 32.1892 42.3067C32.5745 42.5283 33.0163 42.133 32.8349 41.7273C32.2548 40.4301 30.821 39.6398 29.3754 39.9046C28.7702 40.0155 28.1535 39.7799 27.7882 39.2849C27.4067 38.7685 26.9139 38.3447 26.3462 38.0449C26.0093 37.8667 25.5943 37.9373 25.325 38.207L25.3203 38.2117Z" fill="#F5F0F0"/>
<path d="M11.4512 21.454C11.4155 21.4536 11.38 21.454 11.3445 21.4546C11.3235 21.4551 11.3023 21.4554 11.2814 21.4561C11.2335 21.458 11.1856 21.4608 11.1378 21.4646C10.8236 22.2676 10.5721 23.0938 10.3857 23.9358C10.9522 23.6054 11.6235 23.4346 12.3384 23.4874C12.6242 23.5084 12.9061 23.5664 13.1769 23.6599C13.8381 23.888 14.3688 23.071 13.9028 22.5536C13.8827 22.5316 13.8619 22.5102 13.8411 22.4887C13.8274 22.4744 13.8139 22.4598 13.7999 22.4458C13.7796 22.4255 13.7587 22.4059 13.7379 22.3861C13.7218 22.3707 13.7058 22.355 13.6893 22.34C13.6695 22.3218 13.6491 22.3042 13.6288 22.2865C13.6106 22.2705 13.5925 22.2545 13.5739 22.2389C13.5545 22.2226 13.5346 22.2069 13.5147 22.191C13.4945 22.1748 13.4741 22.1585 13.4535 22.1428C13.4345 22.1282 13.4151 22.1142 13.3959 22.1001C13.3736 22.0839 13.3512 22.0676 13.3286 22.052C13.3099 22.039 13.2911 22.0265 13.2722 22.0139C13.2481 21.9979 13.2238 21.9821 13.1993 21.9667C13.1811 21.9552 13.1627 21.944 13.1442 21.9329C13.1008 21.9066 13.0567 21.8814 13.012 21.8573C12.967 21.833 12.9216 21.8097 12.8756 21.7873C12.8466 21.7733 12.8172 21.7597 12.7877 21.7465C12.7704 21.7387 12.753 21.7309 12.7355 21.7234C12.7051 21.7103 12.6743 21.6979 12.6435 21.6858C12.6263 21.679 12.6091 21.6721 12.5918 21.6656C12.5602 21.6538 12.5283 21.6427 12.4964 21.6318C12.4791 21.6259 12.462 21.6198 12.4446 21.6142C12.4122 21.6038 12.3794 21.5942 12.3466 21.5847C12.3292 21.5797 12.3119 21.5743 12.2944 21.5696C12.2612 21.5606 12.2276 21.5526 12.194 21.5446C12.1764 21.5404 12.1591 21.5358 12.1415 21.5319C12.1072 21.5244 12.0725 21.5179 12.0378 21.5114C12.0206 21.5081 12.0035 21.5044 11.9862 21.5014C11.9493 21.4951 11.912 21.49 11.8748 21.4849C11.8594 21.4828 11.8443 21.4801 11.8288 21.4782C11.7761 21.4719 11.7231 21.4665 11.6697 21.4626C11.6152 21.4585 11.5609 21.4563 11.5068 21.4549C11.4882 21.4544 11.4698 21.4542 11.4512 21.454Z" fill="#F5F0F0"/>
<path d="M37.2408 25.251L34.4544 22.4647L30.5367 29.3142L32.1461 33.3685C33.1717 34.394 34.9228 33.9242 35.2972 32.5231L37.2408 25.251Z" fill="#8757F3"/>
<path d="M32.305 33.511C32.9429 34.0233 33.7114 33.0877 33.107 32.5362C33.0846 32.5158 33.0627 32.4949 33.0413 32.4734C32.5863 32.0185 32.694 31.2583 33.2537 30.9409L33.2951 30.9173C35.1434 29.8597 36.481 28.0938 37.0309 26.0363L37.2408 25.251L34.4544 22.4647L28.7435 28.1757L27.8484 29.0707L30.7526 31.9749L32.1462 33.3685C32.1965 33.4189 32.2495 33.4664 32.305 33.511Z" fill="#6A2BC2"/>
<path d="M28.7466 16.7569L31.5329 19.5432L24.2053 22.4647L20.6291 21.8514C19.6036 20.8259 20.0734 19.0748 21.4745 18.7003L28.7466 16.7569Z" fill="#8757F3"/>
<path d="M20.4865 21.6927C19.9742 21.0548 20.9098 20.2863 21.4613 20.8907C21.4816 20.9129 21.5025 20.9349 21.5241 20.9564C21.9791 21.4114 22.7392 21.3036 23.0567 20.7439C23.0645 20.7301 23.0723 20.7164 23.0802 20.7026C24.1379 18.8542 25.9038 17.5166 27.9612 16.9668L28.7465 16.7569L31.5329 19.5432L25.8219 25.2542L24.9268 26.1493L22.0226 23.2451L20.629 21.8515C20.5787 21.8012 20.5311 21.7481 20.4865 21.6927Z" fill="#6A2BC2"/>
<path d="M36.3207 27.0126C31.6113 31.722 27.8066 31.3757 25.2464 28.8154C22.6861 26.2552 23.139 23.8755 27.8483 19.1661C32.5577 14.4568 39.7402 9.20102 42.3005 11.7614C44.8607 14.3216 41.03 22.3033 36.3207 27.0126Z" fill="#FEC502"/>
<path d="M36.5796 18.9175C36.3723 18.5742 36.1289 18.2758 35.8588 18.0222C35.1431 17.3503 35.8137 16.1581 36.7495 16.4544C37.3401 16.6414 37.8771 16.9678 38.3152 17.4059L38.3878 17.4786C39.8357 18.9264 42.3178 18.2566 42.8247 16.2728C43.2129 14.7535 43.2952 13.2399 42.6394 12.1894C41.0935 9.71818 36.4985 11.4303 33.9099 12.7632C33.8577 12.7901 33.8056 12.8171 33.7536 12.8444C31.3665 14.0956 28.9432 15.8471 27.0491 17.7411C22.3397 22.4505 22.686 26.2552 25.2464 28.8154C25.668 29.2371 26.1236 29.5982 26.6113 29.8871C25.6953 28.3408 25.5108 26.4704 26.4623 24.3244C27.1218 22.837 29.1018 22.4837 30.2165 23.669C30.2449 23.6992 30.2738 23.7289 30.3033 23.7585C32.0657 25.5209 35.0658 25.2914 36.506 23.0701C37.3184 21.8172 37.3517 20.1956 36.5796 18.9175Z" fill="#FFA50A"/>
<path d="M41.7788 19.1661C43.2132 16.035 43.6661 13.1269 42.3005 11.7613C40.9349 10.3957 38.9402 11.7621 35.8091 13.1964L41.7788 19.1661Z" fill="#8757F3"/>
<path d="M40.7232 16.8803L39.8211 15.9783C39.0419 15.1991 39.3689 13.8695 40.4212 13.5424C40.9163 13.3884 41.3962 13.2679 41.8548 13.1844C42.5149 13.0644 42.7822 12.249 42.3106 11.7716L42.3004 11.7614C40.9348 10.3957 38.0268 10.8487 34.8956 12.283L40.7232 18.1105C41.0628 17.7709 41.0628 17.22 40.7232 16.8803Z" fill="#6A2BC2"/>
<path d="M36.5971 23.1121C35.0376 24.6715 32.5093 24.6715 30.9498 23.1121C29.3904 21.5526 29.3904 19.0243 30.9498 17.4648C32.5093 15.9054 35.0376 15.9054 36.5971 17.4648C38.1565 19.0243 38.1565 21.5526 36.5971 23.1121Z" fill="white"/>
<path d="M19.2196 37.9565L17.5784 38.1673C17.2617 38.2079 16.992 37.9383 17.0327 37.6216L17.2435 35.9803C17.4539 34.3407 18.2022 32.8171 19.3712 31.6482C20.5256 30.4938 22.3973 30.4938 23.5518 31.6482C24.7062 32.8026 24.7062 34.6743 23.5518 35.8287C22.3829 36.9976 20.8593 37.746 19.2196 37.9565Z" fill="#F5F0F0"/>
<path d="M19.4451 36.4866L17.1777 36.7776C17.1777 36.7776 18.9074 31.9513 20.0763 30.7823C20.0763 30.7823 21.9019 29.0701 23.0089 29.6236C23.2932 29.7659 23.5526 29.9532 23.7772 30.1782C24.9316 31.3326 24.9316 33.2044 23.7772 34.3588C22.6083 35.5277 21.0847 36.276 19.4451 36.4866Z" fill="#FEC502"/>
<path d="M35.77 22.285C34.6673 23.3876 32.8795 23.3876 31.7768 22.285C30.6741 21.1823 31.1656 20.0298 32.2683 18.927C33.2332 17.9622 34.231 17.2063 35.3271 17.9299C35.4865 18.0353 35.6349 18.1565 35.77 18.2918C36.8727 19.3944 36.8727 21.1823 35.77 22.285Z" fill="#00B7F0"/>
<path d="M24.4346 30.8357L21.4926 27.8937L23.5305 25.8557L26.4725 28.7977L24.4346 30.8357Z" fill="#6A2BC2"/>
<path d="M26.0617 32.4628L23.8264 30.2275C23.2637 29.6647 23.2637 28.7523 23.8264 28.1896C24.3892 27.6268 25.3016 27.6268 25.8644 28.1896L28.0996 30.4249L26.0617 32.4628Z" fill="#8757F3"/>
<path d="M33.843 21.8533C33.9557 21.7405 34.019 21.5876 34.019 21.4282C34.019 21.2688 33.9557 21.116 33.843 21.0032L32.9871 20.1474C32.7989 19.9592 32.7887 19.6535 32.9706 19.4592L32.9861 19.4427C33.1762 19.2428 33.4971 19.2465 33.6922 19.4416L33.9511 19.7006C34.1774 19.927 34.546 19.9538 34.7865 19.7425C34.8484 19.6883 34.8986 19.6219 34.9338 19.5476C34.969 19.4732 34.9886 19.3924 34.9914 19.3101C34.9941 19.2278 34.9799 19.1459 34.9497 19.0693C34.9195 18.9928 34.8739 18.9233 34.8157 18.865C34.7074 18.7568 34.7818 18.573 34.9348 18.5678L34.9513 18.5673C35.3599 18.5557 35.4957 18.0125 35.1371 17.8163C34.1087 17.254 32.7801 17.3687 31.8682 18.2045C30.675 19.2979 30.6445 21.1527 31.7768 22.285C31.8535 22.3616 31.9344 22.4338 32.0193 22.5012C32.1836 22.6315 32.4153 22.471 32.3499 22.2718L32.3442 22.2541C32.2178 21.8607 32.7008 21.5611 32.993 21.8533C33.0488 21.9091 33.1151 21.9534 33.188 21.9836C33.2609 22.0138 33.3391 22.0293 33.418 22.0293C33.4969 22.0293 33.5751 22.0138 33.648 21.9836C33.721 21.9534 33.7872 21.9091 33.843 21.8533Z" fill="#0091C8"/>
<path d="M19.5966 30.1782C18.4277 31.3471 17.6794 32.8707 17.4688 34.5103L17.1777 36.7776C17.3995 36.7491 17.6057 36.6483 17.7643 36.4907C17.9229 36.3331 18.0251 36.1275 18.055 35.906C18.094 35.6182 18.1454 35.3183 18.2451 34.945C18.3744 34.4609 18.9779 34.2966 19.3322 34.6509L19.684 35.0027C19.9628 35.2815 20.4147 35.2815 20.6935 35.0027C20.9722 34.7239 20.9722 34.2721 20.6935 33.9933L19.7316 33.0313C19.6138 32.9136 19.544 32.7562 19.5357 32.5899C19.5274 32.4235 19.5812 32.26 19.6867 32.1311L19.6916 32.1252C19.9411 31.8204 20.3992 31.7976 20.6778 32.0762L21.008 32.4064C21.2867 32.6851 21.7386 32.6851 22.0174 32.4064C22.2962 32.1277 22.2962 31.6757 22.0174 31.397C21.7669 31.1465 21.9443 30.7147 22.2985 30.7177C22.3102 30.7178 22.3219 30.718 22.3335 30.7182C23.0886 30.7336 23.2765 29.6738 22.5551 29.4502C21.5742 29.1461 20.4386 29.3361 19.5966 30.1782Z" fill="#FFA50A"/>
<path d="M29.9438 37.4384C29.9438 37.8033 29.6479 38.099 29.2831 38.099C28.9182 38.099 28.6224 37.8033 28.6224 37.4384C28.6224 37.0735 28.9182 36.7777 29.2831 36.7777C29.6479 36.7777 29.9438 37.0735 29.9438 37.4384Z" fill="white"/>
<path d="M31.4818 37.7057C31.4818 37.6014 31.5232 37.5014 31.5969 37.4276C31.6707 37.3539 31.7707 37.3124 31.875 37.3124C31.9793 37.3124 32.0794 37.3539 32.1531 37.4276C32.2269 37.5014 32.2683 37.6014 32.2683 37.7057C32.2683 37.81 32.2269 37.9101 32.1531 37.9838C32.0794 38.0576 31.9793 38.099 31.875 38.099C31.7707 38.099 31.6707 38.0576 31.5969 37.9838C31.5232 37.9101 31.4818 37.81 31.4818 37.7057Z" fill="white"/>
<path d="M18.2503 26.0699C18.2503 26.5409 17.8685 26.9227 17.3976 26.9227C16.9267 26.9227 16.5449 26.5409 16.5449 26.0699C16.5449 25.599 16.9267 25.2172 17.3976 25.2172C17.8685 25.2172 18.2503 25.599 18.2503 26.0699Z" fill="white"/>
<path d="M17.3976 22.8911C17.3976 22.947 17.3866 23.0025 17.3652 23.0542C17.3437 23.1059 17.3123 23.1529 17.2727 23.1925C17.2332 23.2321 17.1862 23.2635 17.1344 23.2849C17.0827 23.3063 17.0272 23.3174 16.9713 23.3174C16.9153 23.3174 16.8598 23.3063 16.8081 23.2849C16.7564 23.2635 16.7094 23.2321 16.6698 23.1925C16.6302 23.1529 16.5988 23.1059 16.5774 23.0542C16.5559 23.0024 16.5449 22.947 16.5449 22.891C16.5449 22.835 16.5559 22.7796 16.5774 22.7279C16.5988 22.6761 16.6302 22.6291 16.6698 22.5896C16.7094 22.55 16.7564 22.5186 16.8081 22.4971C16.8598 22.4757 16.9153 22.4647 16.9713 22.4647C17.0843 22.4647 17.1928 22.5096 17.2728 22.5896C17.3527 22.6695 17.3976 22.778 17.3976 22.8911Z" fill="white"/>
</g>
</g>
</g>
<defs>
<linearGradient id="paint0_linear_1297_1604" x1="27.0017" y1="54.0002" x2="27.0017" y2="0.000200599" gradientUnits="userSpaceOnUse">
<stop stop-color="#2C80FF"/>
<stop offset="0.15" stop-color="#1862D0"/>
<stop offset="0.19" stop-color="#2161C4"/>
<stop offset="0.32" stop-color="#448EFD"/>
<stop offset="0.46" stop-color="#6BA6FF"/>
<stop offset="0.6" stop-color="#0045F5"/>
<stop offset="0.77" stop-color="#000AF2"/>
<stop offset="1" stop-color="#5200FF"/>
</linearGradient>
<linearGradient id="paint1_linear_1297_1604" x1="27" y1="50.0002" x2="27" y2="3.9998" gradientUnits="userSpaceOnUse">
<stop stop-color="#093A84"/>
<stop offset="0.48" stop-color="#2E00D1"/>
</linearGradient>
<clipPath id="clip0_1297_1604">
<rect width="54" height="54" fill="white"/>
</clipPath>
<clipPath id="clip1_1297_1604">
<rect width="33.6575" height="33.6575" fill="white" transform="translate(9.98633 10.726)"/>
</clipPath>
</defs>
</svg>
