<svg width="717" height="625" viewBox="0 0 717 625" fill="none" xmlns="http://www.w3.org/2000/svg">
<g filter="url(#filter0_f_756_55)">
<path fill-rule="evenodd" clip-rule="evenodd" d="M355.375 130.513C362.56 130.252 368.303 127.793 368.202 125.02C368.136 123.197 365.56 121.693 361.761 120.95C359.782 120.563 357.471 120.383 355.01 120.473C353.214 120.538 351.507 120.741 349.96 121.051C345.318 121.983 342.107 123.886 342.182 125.966C342.208 126.659 342.596 127.306 343.276 127.883C345.316 129.613 349.986 130.709 355.375 130.513ZM224.475 135.378C230.308 135.166 235.262 133.616 237.329 131.589C238.018 130.913 238.386 130.184 238.358 129.433C238.256 126.62 232.631 124.508 225.521 124.487C225.047 124.486 224.566 124.494 224.08 124.512C216.304 124.794 210.088 127.456 210.197 130.456C210.306 133.457 216.699 135.661 224.475 135.378ZM121.173 142.194C119.543 144.547 114.319 146.374 108.079 146.544C100.472 146.752 94.2368 144.42 94.1526 141.337V141.336C94.1499 141.24 94.1533 141.144 94.1626 141.049C94.4509 138.088 100.404 135.578 107.773 135.376C115.38 135.168 121.615 137.5 121.699 140.584V140.584C121.715 141.138 121.53 141.679 121.173 142.194ZM90.5402 173.142C97.8043 172.878 103.606 170.277 103.499 167.332C103.399 164.571 98.141 162.489 91.4986 162.456C91.0558 162.454 90.6068 162.461 90.1528 162.478C84.7048 162.676 80.0791 164.188 78.1519 166.175C77.5095 166.837 77.1669 167.552 77.1937 168.288C77.2018 168.511 77.2437 168.73 77.3172 168.944C78.2142 171.548 83.8269 173.386 90.5402 173.142ZM190.764 178.336C190.871 181.283 185.233 183.88 178.173 184.136C177.731 184.152 177.295 184.159 176.864 184.156C170.408 184.117 165.294 182.027 165.194 179.265C165.167 178.528 165.499 177.813 166.123 177.151C167.994 175.166 172.489 173.657 177.785 173.465C184.846 173.208 190.656 175.389 190.764 178.336ZM488.022 134.257C495.214 134.796 501.183 133.379 501.354 131.092L501.354 131.092C501.525 128.805 495.834 126.515 488.642 125.976C483.249 125.572 478.543 126.268 476.454 127.605C475.758 128.051 475.353 128.569 475.31 129.14C475.15 131.284 480.142 133.431 486.692 134.136C487.129 134.182 487.572 134.223 488.022 134.257ZM543.198 178.378C543.152 180.482 537.271 182.06 530.062 181.903C522.853 181.746 517.046 179.913 517.092 177.809C517.103 177.283 517.479 176.79 518.15 176.349C520.161 175.025 524.821 174.167 530.228 174.284C530.678 174.294 531.124 174.311 531.562 174.333C538.14 174.672 543.24 176.406 543.198 178.378V178.378ZM602.081 144.286C609.304 144.444 615.199 142.78 615.247 140.571V140.57C615.291 138.499 610.182 136.683 603.592 136.335C603.152 136.312 602.706 136.295 602.255 136.285C596.837 136.167 592.167 137.073 590.15 138.466C589.478 138.93 589.101 139.448 589.089 140.001C589.043 142.072 594.153 143.888 600.744 144.237C601.183 144.26 601.629 144.276 602.081 144.286ZM639.68 167.964C639.68 167.964 639.68 167.964 639.68 167.964C632.681 167.812 627.042 166.092 627.084 164.122C627.084 164.122 627.084 164.121 627.084 164.121C627.127 162.151 632.836 160.678 639.835 160.83C640.273 160.84 640.705 160.855 641.131 160.877C647.518 161.199 652.472 162.827 652.431 164.673C652.421 165.166 652.056 165.627 651.405 166.04C649.453 167.279 644.93 168.079 639.68 167.964Z" fill="#5AE1FF"/>
</g>
<g filter="url(#filter1_f_756_55)">
<path fill-rule="evenodd" clip-rule="evenodd" d="M355.375 130.513C362.56 130.252 368.303 127.793 368.202 125.02C368.136 123.197 365.56 121.693 361.761 120.95C359.782 120.563 357.471 120.383 355.01 120.473C353.214 120.538 351.507 120.741 349.96 121.051C345.318 121.983 342.107 123.886 342.182 125.966C342.208 126.659 342.596 127.306 343.276 127.883C345.316 129.613 349.986 130.709 355.375 130.513ZM224.475 135.378C230.308 135.166 235.262 133.616 237.329 131.589C238.018 130.913 238.386 130.184 238.358 129.433C238.256 126.62 232.631 124.508 225.521 124.487C225.047 124.486 224.566 124.494 224.08 124.512C216.304 124.794 210.088 127.456 210.197 130.456C210.306 133.457 216.699 135.661 224.475 135.378ZM121.173 142.194C119.543 144.547 114.319 146.374 108.079 146.544C100.472 146.752 94.2368 144.42 94.1526 141.337V141.336C94.1499 141.24 94.1533 141.144 94.1626 141.049C94.4509 138.088 100.404 135.578 107.773 135.376C115.38 135.168 121.615 137.5 121.699 140.584V140.584C121.715 141.138 121.53 141.679 121.173 142.194ZM90.5402 173.142C97.8043 172.878 103.606 170.277 103.499 167.332C103.399 164.571 98.141 162.489 91.4986 162.456C91.0558 162.454 90.6068 162.461 90.1528 162.478C84.7048 162.676 80.0791 164.188 78.1519 166.175C77.5095 166.837 77.1669 167.552 77.1937 168.288C77.2018 168.511 77.2437 168.73 77.3172 168.944C78.2142 171.548 83.8269 173.386 90.5402 173.142ZM190.764 178.336C190.871 181.283 185.233 183.88 178.173 184.136C177.731 184.152 177.295 184.159 176.864 184.156C170.408 184.117 165.294 182.027 165.194 179.265C165.167 178.528 165.499 177.813 166.123 177.151C167.994 175.166 172.489 173.657 177.785 173.465C184.846 173.208 190.656 175.389 190.764 178.336ZM488.022 134.257C495.214 134.796 501.183 133.379 501.354 131.092L501.354 131.092C501.525 128.805 495.834 126.515 488.642 125.976C483.249 125.572 478.543 126.268 476.454 127.605C475.758 128.051 475.353 128.569 475.31 129.14C475.15 131.284 480.142 133.431 486.692 134.136C487.129 134.182 487.572 134.223 488.022 134.257ZM543.198 178.378C543.152 180.482 537.271 182.06 530.062 181.903C522.853 181.746 517.046 179.913 517.092 177.809C517.103 177.283 517.479 176.79 518.15 176.349C520.161 175.025 524.821 174.167 530.228 174.284C530.678 174.294 531.124 174.311 531.562 174.333C538.14 174.672 543.24 176.406 543.198 178.378V178.378ZM602.081 144.286C609.304 144.444 615.199 142.78 615.247 140.571V140.57C615.291 138.499 610.182 136.683 603.592 136.335C603.152 136.312 602.706 136.295 602.255 136.285C596.837 136.167 592.167 137.073 590.15 138.466C589.478 138.93 589.101 139.448 589.089 140.001C589.043 142.072 594.153 143.888 600.744 144.237C601.183 144.26 601.629 144.276 602.081 144.286ZM639.68 167.964C639.68 167.964 639.68 167.964 639.68 167.964C632.681 167.812 627.042 166.092 627.084 164.122C627.084 164.122 627.084 164.121 627.084 164.121C627.127 162.151 632.836 160.678 639.835 160.83C640.273 160.84 640.705 160.855 641.131 160.877C647.518 161.199 652.472 162.827 652.431 164.673C652.421 165.166 652.056 165.627 651.405 166.04C649.453 167.279 644.93 168.079 639.68 167.964Z" fill="#5AE1FF"/>
</g>
<defs>
<filter id="filter0_f_756_55" x="65.7922" y="109.05" width="598.039" height="86.5063" filterUnits="userSpaceOnUse" color-interpolation-filters="sRGB">
<feFlood flood-opacity="0" result="BackgroundImageFix"/>
<feBlend mode="normal" in="SourceGraphic" in2="BackgroundImageFix" result="shape"/>
<feGaussianBlur stdDeviation="5.7" result="effect1_foregroundBlur_756_55"/>
</filter>
<filter id="filter1_f_756_55" x="52.9922" y="96.2502" width="623.639" height="112.106" filterUnits="userSpaceOnUse" color-interpolation-filters="sRGB">
<feFlood flood-opacity="0" result="BackgroundImageFix"/>
<feBlend mode="normal" in="SourceGraphic" in2="BackgroundImageFix" result="shape"/>
<feGaussianBlur stdDeviation="12.1" result="effect1_foregroundBlur_756_55"/>
</filter>
</defs>
</svg>
