<svg width="46" height="46" viewBox="0 0 46 46" fill="none" xmlns="http://www.w3.org/2000/svg">
<circle cx="23" cy="23" r="23" fill="#0083E1"/>
<path d="M28.7843 16.7988C20.1962 13.3829 14.5198 16.1629 9.22706 30.3051L9.225 30.3106C9.18784 30.4079 6.22106 38.1581 9.65761 21.917C12.8645 6.76157 27.9665 7.93931 32.2127 10.6561C32.7489 10.9992 32.8453 11.6849 32.5991 12.2719L31.0892 15.872C30.7163 16.761 29.68 17.1551 28.7843 16.7988Z" fill="white"/>
<path d="M28.0795 28.7924C23.2424 30.5737 18.0239 27.7435 18.8712 21.9489C19.0828 20.5016 17.8525 19.1764 16.7126 20.0931C13.9093 22.3475 12.4063 26.1614 13.9257 29.7423C13.9611 29.8255 14.0061 29.9077 14.0561 29.9831C18.7974 37.126 26.3631 37.0074 31.5728 34.2593C32.3915 33.8274 32.5952 32.7812 32.0895 32.0059L30.4258 29.456C29.9307 28.6971 28.9299 28.4793 28.0795 28.7924Z" fill="white"/>
</svg>
