<svg width="83" height="83" viewBox="0 0 83 83" fill="none" xmlns="http://www.w3.org/2000/svg">
<g clip-path="url(#clip0_694_1793)">
<path d="M46.2045 16.2149L33.3748 63.551C33.3014 63.56 33.2275 63.5646 33.1535 63.5649H9.44157C9.115 63.5652 8.79492 63.4737 8.51785 63.3008C8.24079 63.1279 8.0179 62.8806 7.8746 62.5872L7.85891 62.5558L0.343095 46.3265C0.343095 46.3247 0.341334 46.323 0.341334 46.3212C0.239466 46.1 0.185269 45.8598 0.182261 45.6163C0.179254 45.3728 0.227503 45.1313 0.323877 44.9077L13.8619 13.3089C13.8619 13.3071 13.8636 13.3053 13.8636 13.3036C13.9547 13.0931 14.0869 12.9029 14.2523 12.7441L46.2045 16.2149Z" fill="#8E99A3"/>
<path d="M47.3153 7.90901L46.2043 16.215L39.8064 19.6831L14.2522 12.7441C14.3831 12.6158 14.5337 12.5092 14.6984 12.4286L14.7088 12.4233L26.9204 6.54768C27.1958 6.41531 27.5011 6.3576 27.8057 6.38032L46.8028 7.7921H46.8081C46.9825 7.80619 47.1533 7.84623 47.3153 7.90901Z" fill="#798795"/>
<path d="M58.9462 57.0042C58.9444 57.0042 33.5366 63.523 33.5315 63.5248C33.4795 63.5354 33.4271 63.5441 33.3745 63.5509L39.8062 19.683L47.3152 7.90894C47.4879 7.97756 47.6486 8.07349 47.791 8.19305L56.1016 15.1494C56.4436 15.437 56.663 15.844 56.7152 16.2877C56.7152 16.293 56.717 16.2998 56.717 16.3051C56.717 16.3122 56.7187 16.3173 56.7187 16.3243V16.3296L60.1978 55.1742C60.2726 56.0088 59.7462 56.7705 58.9462 57.0042Z" fill="#616D77"/>
<path d="M58.9461 57.0043C58.9445 57.0043 56.4712 57.6395 53.0676 58.5124C53.2397 58.3334 53.3713 58.1195 53.4535 57.8853C53.5358 57.651 53.5668 57.4018 53.5444 57.1546L50.0648 18.3109V18.3043C50.0648 18.2978 50.0632 18.2928 50.0632 18.2863C50.0632 18.2813 50.0616 18.2731 50.0616 18.2682C50.0086 17.8247 49.7893 17.4178 49.4479 17.1298L44.2227 12.7559L47.3146 7.90845C47.4875 7.97738 47.6484 8.07315 47.7914 8.19224L56.1019 15.1499C56.4437 15.437 56.6631 15.8435 56.7156 16.2867C56.7156 16.2933 56.7172 16.2998 56.7172 16.3048C56.7172 16.3114 56.7188 16.3163 56.7188 16.3247V16.3296L60.1968 55.1733C60.2727 56.0095 59.7464 56.77 58.9461 57.0043Z" fill="#51606C"/>
<path d="M32.3248 71.445C32.0442 71.3949 31.7801 71.2767 31.5558 71.1008C31.3315 70.9248 31.1539 70.6965 31.0384 70.4358L29.3425 66.6116L57.0806 58.0369L57.9122 75.9872C57.835 75.9864 57.758 75.9794 57.682 75.9662H57.6785L32.3248 71.445Z" fill="#8E99A3"/>
<path d="M82.028 66.3744L79.3002 72.4332C79.2967 72.4384 79.2949 72.4453 79.2916 72.4506C79.1677 72.718 78.978 72.9496 78.7402 73.1236C78.5024 73.2977 78.2243 73.4085 77.932 73.4458L58.1785 75.9749C58.1732 75.9749 58.1663 75.9766 58.161 75.9766H58.1593C58.0772 75.9871 57.9945 75.9906 57.9118 75.987L55.1021 58.6482L79.1032 50.9104C79.2419 51.106 79.3375 51.3288 79.3838 51.564L82.1465 65.3145C82.2195 65.6715 82.1781 66.0424 82.028 66.3744Z" fill="#616D77"/>
<path d="M82.1469 65.315L79.3842 51.5645C79.3379 51.3292 79.2422 51.1065 79.1036 50.9109L72.1643 53.1481L73.7672 54.3735L76.3529 66.612L72.2475 73.8419C72.1843 73.9531 72.0961 74.0481 71.9899 74.1194C71.8837 74.1906 71.7624 74.2361 71.6355 74.2524L77.9325 73.4462C78.2248 73.4089 78.5029 73.298 78.7407 73.1239C78.9785 72.9499 79.1682 72.7183 79.2921 72.4509C79.2956 72.4457 79.2974 72.4388 79.3007 72.4335L82.0285 66.3748C82.1784 66.0428 82.2198 65.6719 82.1469 65.315Z" fill="#51606C"/>
<path d="M79.1037 50.9109L56.0577 65.8642L29.3427 66.612L27.7408 63.0022C27.5984 62.6813 27.5563 62.3249 27.62 61.9796C27.6838 61.6343 27.8504 61.3164 28.0981 61.0675L36.6597 52.4502L39.4415 49.651L39.4485 49.6439C39.6862 49.4086 39.9861 49.2459 40.3131 49.1751C40.3183 49.1734 40.3252 49.1734 40.3305 49.1716L66.9498 43.7457C66.9619 43.7439 66.9741 43.7404 66.9863 43.7388C67.4093 43.6618 67.8459 43.7443 68.2116 43.9705C68.2134 43.9705 68.2169 43.9723 68.2187 43.9741L78.5965 50.4284C78.7973 50.5521 78.9701 50.7165 79.1037 50.9109Z" fill="#51606C"/>
<path d="M55.2084 43.9389L55.6898 48.5702L54.5428 53.5518C54.2853 53.5182 54.0352 53.4425 53.8024 53.3276L49.7783 51.3145C49.3907 51.1204 49.0648 50.8223 48.8371 50.4536C48.6094 50.0848 48.4889 49.6599 48.489 49.2265L48.8569 37.7212L55.2084 43.9389Z" fill="#798795"/>
<path d="M69.6785 37.0593L70.2818 48.4392C70.2818 49.5392 69.5111 50.4921 68.4344 50.7234L55.3345 53.5213C55.073 53.5774 54.8044 53.5891 54.5427 53.5517L55.2083 43.9388L69.6785 37.0593Z" fill="#616D77"/>
<path d="M48.9613 37.0668L51.019 30.4344C51.1857 29.8971 51.5408 29.438 52.0189 29.1416C52.4971 28.8451 53.0661 28.7312 53.6215 28.8208L66.4015 30.8822C66.8234 30.9503 67.2185 31.1327 67.5439 31.4098C67.8692 31.6869 68.1123 32.0479 68.2467 32.4535L69.5611 36.4214C69.9607 37.6277 69.3225 38.9321 68.1248 39.3569L55.2082 43.9383L49.7379 39.5867C49.3697 39.2938 49.0986 38.8964 48.96 38.4468C48.8215 37.9972 48.8219 37.5162 48.9613 37.0668Z" fill="#8E99A3"/>
<path d="M20.5774 25.8363H19.4102C19.2477 25.8363 19.0868 25.8043 18.9367 25.7422C18.7865 25.68 18.6501 25.5888 18.5352 25.4739C18.4203 25.359 18.3291 25.2226 18.267 25.0725C18.2048 24.9224 18.1728 24.7614 18.1728 24.5989C18.1728 24.4364 18.2048 24.2755 18.267 24.1254C18.3291 23.9753 18.4203 23.8388 18.5352 23.7239C18.6501 23.609 18.7865 23.5179 18.9367 23.4557C19.0868 23.3935 19.2477 23.3616 19.4102 23.3616H20.5774C21.261 23.3616 21.8148 23.9156 21.8148 24.5989C21.8148 25.2823 21.261 25.8363 20.5774 25.8363ZM9.72539 46.8738H8.55817C8.23 46.8738 7.91527 46.7434 7.68322 46.5114C7.45117 46.2793 7.3208 45.9646 7.3208 45.6364C7.3208 45.3083 7.45117 44.9935 7.68322 44.7615C7.91527 44.5294 8.23 44.3991 8.55817 44.3991H9.72539C10.0536 44.3991 10.3683 44.5294 10.6003 44.7615C10.8324 44.9935 10.9628 45.3083 10.9628 45.6364C10.9628 45.9646 10.8324 46.2793 10.6003 46.5114C10.3683 46.7434 10.0536 46.8738 9.72539 46.8738ZM22.413 55.8365H21.2457C21.0832 55.8365 20.9223 55.8045 20.7722 55.7423C20.6221 55.6801 20.4857 55.589 20.3707 55.4741C20.2558 55.3592 20.1647 55.2228 20.1025 55.0726C20.0403 54.9225 20.0084 54.7616 20.0084 54.5991C20.0084 54.4366 20.0403 54.2757 20.1025 54.1255C20.1647 53.9754 20.2558 53.839 20.3707 53.7241C20.4857 53.6092 20.6221 53.518 20.7722 53.4559C20.9223 53.3937 21.0832 53.3617 21.2457 53.3617H22.413C22.7411 53.3617 23.0559 53.4921 23.2879 53.7241C23.52 53.9562 23.6503 54.2709 23.6503 54.5991C23.6503 54.9273 23.52 55.242 23.2879 55.474C23.0559 55.7061 22.7411 55.8365 22.413 55.8365ZM60.7882 35.9675H59.6209C59.4584 35.9675 59.2975 35.9355 59.1474 35.8733C58.9973 35.8111 58.8609 35.72 58.7459 35.6051C58.631 35.4902 58.5399 35.3538 58.4777 35.2036C58.4156 35.0535 58.3836 34.8926 58.3836 34.7301C58.3836 34.5676 58.4156 34.4067 58.4777 34.2566C58.5399 34.1064 58.631 33.97 58.7459 33.8551C58.8609 33.7402 58.9973 33.6491 59.1474 33.5869C59.2975 33.5247 59.4584 33.4927 59.6209 33.4927H60.7882C61.1163 33.4927 61.4311 33.6231 61.6631 33.8552C61.8952 34.0872 62.0255 34.4019 62.0255 34.7301C62.0255 35.0583 61.8952 35.373 61.6631 35.6051C61.4311 35.8371 61.1163 35.9675 60.7882 35.9675ZM45.3896 58.2561H44.2224C43.8942 58.2561 43.5795 58.1257 43.3475 57.8937C43.1154 57.6616 42.985 57.3469 42.985 57.0187C42.985 56.6906 43.1154 56.3758 43.3475 56.1438C43.5795 55.9117 43.8942 55.7814 44.2224 55.7814H45.3896C45.7178 55.7814 46.0325 55.9117 46.2646 56.1438C46.4966 56.3758 46.627 56.6906 46.627 57.0187C46.627 57.3469 46.4966 57.6616 46.2646 57.8937C46.0325 58.1257 45.7178 58.2561 45.3896 58.2561ZM51.0843 61.5425H49.9169C49.5887 61.5425 49.274 61.4121 49.042 61.1801C48.8099 60.948 48.6796 60.6333 48.6796 60.3051C48.6796 59.977 48.8099 59.6622 49.042 59.4302C49.274 59.1981 49.5887 59.0678 49.9169 59.0678H51.0843C51.7678 59.0678 52.3217 59.6217 52.3217 60.3051C52.3217 60.9885 51.7678 61.5425 51.0843 61.5425ZM24.8626 45.1755H23.6953C23.3672 45.1755 23.0524 45.0451 22.8204 44.8131C22.5883 44.581 22.458 44.2663 22.458 43.9381C22.458 43.61 22.5883 43.2952 22.8204 43.0632C23.0524 42.8311 23.3672 42.7008 23.6953 42.7008H24.8626C25.1907 42.7008 25.5055 42.8311 25.7375 43.0632C25.9696 43.2952 26.0999 43.61 26.0999 43.9381C26.0999 44.2663 25.9696 44.581 25.7375 44.8131C25.5055 45.0451 25.1907 45.1755 24.8626 45.1755ZM28.1743 50.2643H27.007C26.8445 50.2643 26.6836 50.2323 26.5335 50.1702C26.3834 50.108 26.247 50.0168 26.132 49.9019C26.0171 49.787 25.926 49.6506 25.8638 49.5005C25.8016 49.3503 25.7697 49.1894 25.7697 49.0269C25.7697 48.8644 25.8016 48.7035 25.8638 48.5534C25.926 48.4033 26.0171 48.2668 26.132 48.1519C26.247 48.037 26.3834 47.9459 26.5335 47.8837C26.6836 47.8215 26.8445 47.7895 27.007 47.7896H28.1743C28.5024 47.7896 28.8172 47.9199 29.0492 48.152C29.2813 48.384 29.4116 48.6988 29.4116 49.0269C29.4116 49.3551 29.2813 49.6698 29.0492 49.9019C28.8172 50.1339 28.5024 50.2643 28.1743 50.2643Z" fill="#616D77"/>
</g>
<defs>
<clipPath id="clip0_694_1793">
<rect width="82" height="82" fill="white" transform="translate(0.181641 0.181885)"/>
</clipPath>
</defs>
</svg>
