<svg width="53" height="53" viewBox="0 0 53 53" fill="none" xmlns="http://www.w3.org/2000/svg">
<g clip-path="url(#clip0_1297_1552)">
<path d="M46.7122 24.4417C46.5153 18.5552 41.3981 14.3801 36.2031 15.5807C33.3101 16.2494 30.0079 16.6287 26.5 16.6287C22.9921 16.6287 19.6899 16.2494 16.7968 15.5807C11.6019 14.3801 6.48469 18.5552 6.28776 24.4417C6.27849 24.7192 6.27769 24.9969 6.28537 25.2744C6.46671 31.8496 11.5472 36.9615 17.4729 36.9615H35.527C41.4526 36.9615 46.5332 31.8494 46.7146 25.2744C46.7223 24.9947 46.7214 24.717 46.7122 24.4417Z" fill="url(#paint0_linear_1297_1552)"/>
<path d="M46.7122 24.4417C46.611 21.415 45.2088 18.8411 43.1642 17.2174C43.2578 17.9955 43.2394 18.7918 43.1004 19.5828C42.4732 23.1576 41.2786 26.6092 39.5618 29.807L35.7245 36.9589C41.5651 36.8468 46.5353 31.7764 46.7147 25.2744C46.7223 24.9969 46.7214 24.7192 46.7122 24.4417Z" fill="url(#paint1_linear_1297_1552)"/>
<path d="M26.1189 16.6261V36.9614H35.527C35.737 36.9614 35.9459 36.9543 36.1538 36.9416V15.5917C33.2724 16.2533 29.9881 16.6287 26.5 16.6287C26.3725 16.6287 26.2459 16.6271 26.1189 16.6261Z" fill="url(#paint2_linear_1297_1552)"/>
<path d="M31.1746 8.1173C31.1291 6.75583 29.9456 5.79029 28.7441 6.06797C28.075 6.22261 27.3113 6.31032 26.4999 6.31032C25.6886 6.31032 24.9249 6.22261 24.2558 6.06797C23.0542 5.79029 21.8708 6.75593 21.8252 8.1173C21.8231 8.18147 21.8229 8.24569 21.8247 8.30987C21.8667 9.83056 23.0417 11.0129 24.4122 11.0129H28.5877C29.9582 11.0129 31.1333 9.83056 31.1752 8.30987C31.177 8.24523 31.1768 8.18101 31.1746 8.1173Z" fill="url(#paint3_linear_1297_1552)"/>
<path d="M32.9208 11.3971C32.8582 9.52711 31.2327 8.20076 29.5824 8.58215C28.6633 8.79456 27.6143 8.91501 26.5 8.91501C25.3856 8.91501 24.3367 8.79446 23.4176 8.58215C21.7673 8.20076 20.1418 9.527 20.0792 11.3971C20.0762 11.4852 20.076 11.5735 20.0785 11.6617C20.136 13.7504 21.75 15.3744 23.6325 15.3744H29.3677C31.2501 15.3744 32.864 13.7504 32.9217 11.6617C32.924 11.5727 32.9238 11.4845 32.9208 11.3971Z" fill="url(#paint4_linear_1297_1552)"/>
<path d="M6.28776 24.4417C6.27849 24.7192 6.27769 24.9969 6.28537 25.2744C6.46671 31.8496 11.5472 36.9615 17.4729 36.9615H35.527C41.4526 36.9615 46.5332 31.8495 46.7146 25.2744C46.7223 24.9947 46.7215 24.717 46.7122 24.4417C46.6897 23.7571 46.5979 23.0765 46.4382 22.4105H6.56191C6.40207 23.0765 6.31022 23.7571 6.28776 24.4417Z" fill="url(#paint5_linear_1297_1552)"/>
<path d="M23.3413 36.9615C26.8395 35.5124 27.5437 28.4392 24.8921 20.9975C24.3106 19.3653 23.615 17.8493 22.8454 16.488C20.6959 16.3215 18.6611 16.0116 16.7968 15.5807C14.3913 15.0247 12.0028 15.6221 10.1114 17.0076C10.0983 19.59 10.6206 22.6089 11.7189 25.6911C13.7966 31.5224 17.3275 35.8745 20.5031 36.9614L23.3413 36.9615Z" fill="url(#paint6_linear_1297_1552)"/>
<path d="M4.18301 15.6187C3.84734 16.158 3.48985 17.0455 3.69562 18.2146C4.20574 21.1242 5.17828 23.9334 6.57632 26.5356L10.4225 33.7052C10.8974 34.5895 10.5648 35.6922 9.67942 36.1671C9.41583 36.3098 9.12078 36.3845 8.82103 36.3843C8.17256 36.3843 7.54487 36.0361 7.21752 35.4251L3.37034 28.2555C1.79006 25.3121 0.690547 22.135 0.11344 18.8444C-0.202482 17.0486 0.146695 15.2196 1.0955 13.6961C2.16693 11.9762 3.93464 10.7822 5.94448 10.4205C7.99589 10.0516 10.118 10.5712 11.7662 11.8442L13.723 13.3573L11.1302 15.9502L9.54224 14.7229C9.12762 14.403 8.65063 14.1735 8.14197 14.0491C7.6333 13.9247 7.10423 13.9082 6.58879 14.0006C5.57348 14.1835 4.71914 14.7582 4.18301 15.6187Z" fill="url(#paint7_linear_1297_1552)"/>
<path d="M17.3057 36.3839C16.6573 36.3839 16.0297 36.0361 15.7015 35.4248L11.8549 28.2557C10.2746 25.3124 9.17501 22.1353 8.59774 18.8447C8.28202 17.0484 8.63089 15.2198 9.58021 13.6957C10.6511 11.9762 12.4184 10.7825 14.429 10.4208C16.4803 10.052 18.602 10.5709 20.2506 11.8448L24.5012 15.1292C25.2959 15.7433 25.4424 16.8855 24.8282 17.6803C24.2143 18.475 23.072 18.6217 22.2771 18.0073L18.0265 14.7229C17.6119 14.403 17.1349 14.1735 16.6262 14.0491C16.1175 13.9247 15.5884 13.9082 15.0729 14.0006C14.0578 14.1832 13.2036 14.7578 12.6676 15.6185C12.3317 16.1577 11.9745 17.0459 12.18 18.2151C12.6905 21.1244 13.6627 23.9335 15.06 26.5359L18.9065 33.705C19.3814 34.5901 19.0488 35.6925 18.1638 36.1673C17.9001 36.3094 17.6053 36.3839 17.3057 36.3839Z" fill="url(#paint8_linear_1297_1552)"/>
<path d="M48.8169 15.6187C49.1525 16.158 49.51 17.0455 49.3042 18.2146C48.7941 21.1242 47.8216 23.9334 46.4235 26.5356L42.5774 33.7052C42.1025 34.5895 42.435 35.6922 43.3204 36.1671C43.5938 36.3146 43.8879 36.3843 44.1788 36.3843C44.8273 36.3843 45.455 36.0361 45.7823 35.4251L49.6295 28.2555C51.2098 25.3121 52.3093 22.135 52.8864 18.8444C53.2023 17.0486 52.8532 15.2196 51.9044 13.6961C50.8329 11.9762 49.0652 10.7822 47.0554 10.4205C45.004 10.0516 42.8819 10.5712 41.2337 11.8442L39.2769 13.3573L41.8697 15.9502L43.4576 14.7229C43.8722 14.403 44.3492 14.1735 44.8579 14.0491C45.3666 13.9247 45.8956 13.9082 46.4111 14.0006C47.4264 14.1835 48.2807 14.7582 48.8169 15.6187Z" fill="url(#paint9_linear_1297_1552)"/>
<path d="M35.6942 36.3839C36.3427 36.3839 36.9703 36.0361 37.2985 35.4248L41.145 28.2557C42.7254 25.3124 43.825 22.1353 44.4022 18.8447C44.718 17.0484 44.3691 15.2198 43.4198 13.6957C42.3489 11.9762 40.5816 10.7825 38.571 10.4208C36.5197 10.052 34.398 10.5709 32.7494 11.8448L28.4988 15.1292C27.7041 15.7433 27.5576 16.8855 28.1718 17.6803C28.7856 18.475 29.9279 18.6217 30.7228 18.0073L34.9734 14.7229C35.3881 14.403 35.8651 14.1735 36.3738 14.0491C36.8825 13.9247 37.4116 13.9082 37.9271 14.0006C38.9422 14.1832 39.7963 14.7578 40.3324 15.6185C40.6682 16.1577 41.0255 17.0459 40.82 18.2151C40.3095 21.1244 39.3372 23.9335 37.94 26.5359L34.0934 33.705C33.6186 34.5901 33.9512 35.6925 34.8362 36.1673C35.0998 36.3094 35.3947 36.3839 35.6942 36.3839Z" fill="url(#paint10_linear_1297_1552)"/>
<path d="M29.7967 37.2903H23.2031V14.4719C23.2031 12.6511 24.6791 11.1751 26.4999 11.1751C28.3207 11.1751 29.7967 12.6511 29.7967 14.4719V37.2903Z" fill="url(#paint11_linear_1297_1552)"/>
<path d="M11.8551 28.2558L15.7016 35.4248C16.0297 36.0363 16.6573 36.3839 17.3059 36.3839C17.596 36.3839 17.8904 36.3142 18.164 36.1674C19.0491 35.6926 19.3817 34.5901 18.9068 33.7051L15.0602 26.5361C14.9946 26.414 14.931 26.2909 14.8674 26.168H10.8336C11.1482 26.8763 11.4889 27.5727 11.8551 28.2558Z" fill="url(#paint12_linear_1297_1552)"/>
<path d="M34.8361 36.1674C35.0998 36.3095 35.3947 36.3838 35.6942 36.3839C36.3427 36.3839 36.9703 36.0362 37.2985 35.4248L41.145 28.2558C41.5111 27.5726 41.8519 26.8762 42.1666 26.168H38.1328C38.0694 26.2911 38.0052 26.4138 37.94 26.5361L34.0934 33.7051C33.6185 34.5901 33.9511 35.6926 34.8361 36.1674Z" fill="url(#paint13_linear_1297_1552)"/>
<path d="M23.2031 22.0172H29.7967V37.2903H23.2031V22.0172Z" fill="url(#paint14_linear_1297_1552)"/>
<path d="M3.37022 28.2555L7.21739 35.4251C7.54475 36.0361 8.17243 36.3843 8.8209 36.3843C9.11188 36.3843 9.40598 36.3146 9.6793 36.1671C10.5647 35.6922 10.8973 34.5895 10.4223 33.7052L6.5762 26.5356C6.51097 26.4135 6.44671 26.2909 6.38342 26.1678H2.34888C2.66356 26.8761 3.00424 27.5724 3.37022 28.2555Z" fill="url(#paint15_linear_1297_1552)"/>
<path d="M46.6165 26.168C46.5528 26.2908 46.4892 26.4137 46.4237 26.5357L42.5776 33.7053C42.1026 34.5897 42.4352 35.6923 43.3206 36.1672C43.5939 36.3148 43.888 36.3844 44.179 36.3844C44.8275 36.3844 45.4551 36.0363 45.7825 35.4252L49.6297 28.2557C49.9957 27.5726 50.3364 26.8762 50.651 26.168H46.6165Z" fill="url(#paint16_linear_1297_1552)"/>
<path d="M4.98816 39.9613V40.2348C4.98816 41.2295 5.74014 42.0823 6.77041 42.2502C19.8032 44.3728 33.1316 44.4688 46.1979 42.5338C47.2427 42.379 48.0118 41.5198 48.0118 40.5135V40.2449C48.0118 38.9969 46.8467 38.0389 45.5498 38.2237C32.9288 40.0217 20.073 39.9276 7.48363 37.9451C6.17629 37.7392 4.98816 38.7003 4.98816 39.9613Z" fill="url(#paint17_linear_1297_1552)"/>
<path d="M4.98816 34.6998V36.6432C4.98816 37.638 5.74014 38.4907 6.77041 38.6586C19.8032 40.7812 33.1316 40.8772 46.1979 38.9422C47.2427 38.7874 48.0118 37.9282 48.0118 36.9219V34.9835C48.0118 33.7355 46.8467 32.7776 45.5498 32.9623C32.9288 34.7603 20.073 34.6662 7.48363 32.6837C6.17629 32.4777 4.98816 33.4388 4.98816 34.6998Z" fill="url(#paint18_linear_1297_1552)"/>
<path d="M26.5 34.2406V43.9136C30.3452 43.9401 34.1896 43.794 38.0217 43.4758V33.8073C34.1895 34.1239 30.3451 34.2685 26.5 34.2406Z" fill="url(#paint19_linear_1297_1552)"/>
<path d="M26.4999 46.9798C29.3387 46.9798 31.6401 42.9224 31.6401 37.9173C31.6401 32.9121 29.3387 28.8547 26.4999 28.8547C23.6611 28.8547 21.3597 32.9121 21.3597 37.9173C21.3597 42.9224 23.6611 46.9798 26.4999 46.9798Z" fill="url(#paint20_linear_1297_1552)"/>
<path d="M26.4999 45.6207C28.6064 45.6207 30.314 42.1717 30.314 37.9173C30.314 33.6628 28.6064 30.2139 26.4999 30.2139C24.3935 30.2139 22.6859 33.6628 22.6859 37.9173C22.6859 42.1717 24.3935 45.6207 26.4999 45.6207Z" fill="url(#paint21_linear_1297_1552)"/>
<path d="M31.5157 35.9285L28.0082 32.421L25.1251 43.5549L28.1011 46.5308C30.156 45.3443 31.6403 41.9366 31.6403 37.9171C31.6406 37.2523 31.5989 36.5881 31.5157 35.9285Z" fill="url(#paint22_linear_1297_1552)"/>
<path d="M26.4999 44.2004C28.218 44.2004 29.6107 41.3874 29.6107 37.9172C29.6107 34.4471 28.218 31.634 26.4999 31.634C24.7819 31.634 23.3892 34.4471 23.3892 37.9172C23.3892 41.3874 24.7819 44.2004 26.4999 44.2004Z" fill="url(#paint23_linear_1297_1552)"/>
</g>
<defs>
<linearGradient id="paint0_linear_1297_1552" x1="26.5" y1="18.5964" x2="26.5" y2="34.7752" gradientUnits="userSpaceOnUse">
<stop stop-color="#FD3581"/>
<stop offset="1" stop-color="#972437"/>
</linearGradient>
<linearGradient id="paint1_linear_1297_1552" x1="45.6967" y1="28.5536" x2="41.2627" y2="27.5144" gradientUnits="userSpaceOnUse">
<stop stop-color="#972437" stop-opacity="0"/>
<stop offset="1" stop-color="#42210B"/>
</linearGradient>
<linearGradient id="paint2_linear_1297_1552" x1="33.7399" y1="26.2766" x2="29.1589" y2="26.2766" gradientUnits="userSpaceOnUse">
<stop stop-color="#972437" stop-opacity="0"/>
<stop offset="1" stop-color="#42210B"/>
</linearGradient>
<linearGradient id="paint3_linear_1297_1552" x1="26.4999" y1="6.56357" x2="26.4999" y2="9.6912" gradientUnits="userSpaceOnUse">
<stop stop-color="#FDB97E"/>
<stop offset="1" stop-color="#FE7701"/>
</linearGradient>
<linearGradient id="paint4_linear_1297_1552" x1="26.5" y1="9.26283" x2="26.5" y2="13.5588" gradientUnits="userSpaceOnUse">
<stop stop-color="#FDB97E"/>
<stop offset="1" stop-color="#FE7701"/>
</linearGradient>
<linearGradient id="paint5_linear_1297_1552" x1="26.5" y1="28.038" x2="26.5" y2="36.2837" gradientUnits="userSpaceOnUse">
<stop stop-color="#972437" stop-opacity="0"/>
<stop offset="1" stop-color="#42210B"/>
</linearGradient>
<linearGradient id="paint6_linear_1297_1552" x1="18.8019" y1="26.0956" x2="14.0908" y2="27.5505" gradientUnits="userSpaceOnUse">
<stop stop-color="#972437" stop-opacity="0"/>
<stop offset="1" stop-color="#42210B"/>
</linearGradient>
<linearGradient id="paint7_linear_1297_1552" x1="-0.951237" y1="17.1981" x2="7.98602" y2="22.8098" gradientUnits="userSpaceOnUse">
<stop stop-color="#FEE45A"/>
<stop offset="1" stop-color="#FEA613"/>
</linearGradient>
<linearGradient id="paint8_linear_1297_1552" x1="8.87292" y1="15.5779" x2="17.7063" y2="23.2681" gradientUnits="userSpaceOnUse">
<stop stop-color="#FEE45A"/>
<stop offset="1" stop-color="#FEA613"/>
</linearGradient>
<linearGradient id="paint9_linear_1297_1552" x1="53.9512" y1="17.1981" x2="45.0139" y2="22.8098" gradientUnits="userSpaceOnUse">
<stop stop-color="#FEE45A"/>
<stop offset="1" stop-color="#FEA613"/>
</linearGradient>
<linearGradient id="paint10_linear_1297_1552" x1="44.1272" y1="15.5779" x2="35.2938" y2="23.2681" gradientUnits="userSpaceOnUse">
<stop stop-color="#FEE45A"/>
<stop offset="1" stop-color="#FEA613"/>
</linearGradient>
<linearGradient id="paint11_linear_1297_1552" x1="24.2145" y1="24.2328" x2="28.7456" y2="24.2328" gradientUnits="userSpaceOnUse">
<stop stop-color="#FEE45A"/>
<stop offset="1" stop-color="#FEA613"/>
</linearGradient>
<linearGradient id="paint12_linear_1297_1552" x1="14.9783" y1="29.4236" x2="14.9783" y2="34.204" gradientUnits="userSpaceOnUse">
<stop stop-color="#FEA613" stop-opacity="0"/>
<stop offset="1" stop-color="#E94444"/>
</linearGradient>
<linearGradient id="paint13_linear_1297_1552" x1="38.0217" y1="29.4236" x2="38.0217" y2="34.204" gradientUnits="userSpaceOnUse">
<stop stop-color="#FEA613" stop-opacity="0"/>
<stop offset="1" stop-color="#E94444"/>
</linearGradient>
<linearGradient id="paint14_linear_1297_1552" x1="26.4999" y1="24.5393" x2="26.4999" y2="30.6848" gradientUnits="userSpaceOnUse">
<stop stop-color="#FEA613" stop-opacity="0"/>
<stop offset="1" stop-color="#E94444"/>
</linearGradient>
<linearGradient id="paint15_linear_1297_1552" x1="6.49389" y1="29.4236" x2="6.49389" y2="34.204" gradientUnits="userSpaceOnUse">
<stop stop-color="#FEA613" stop-opacity="0"/>
<stop offset="1" stop-color="#E94444"/>
</linearGradient>
<linearGradient id="paint16_linear_1297_1552" x1="46.506" y1="29.4236" x2="46.506" y2="34.204" gradientUnits="userSpaceOnUse">
<stop stop-color="#FEA613" stop-opacity="0"/>
<stop offset="1" stop-color="#E94444"/>
</linearGradient>
<linearGradient id="paint17_linear_1297_1552" x1="26.4997" y1="39.3318" x2="26.5008" y2="44.383" gradientUnits="userSpaceOnUse">
<stop stop-color="#FEE45A"/>
<stop offset="1" stop-color="#FEA613"/>
</linearGradient>
<linearGradient id="paint18_linear_1297_1552" x1="26.4996" y1="34.4648" x2="26.501" y2="40.9211" gradientUnits="userSpaceOnUse">
<stop stop-color="#FEE45A"/>
<stop offset="1" stop-color="#FEA613"/>
</linearGradient>
<linearGradient id="paint19_linear_1297_1552" x1="35.4892" y1="38.8619" x2="30.6046" y2="38.8619" gradientUnits="userSpaceOnUse">
<stop stop-color="#FEA613" stop-opacity="0"/>
<stop offset="1" stop-color="#E94444"/>
</linearGradient>
<linearGradient id="paint20_linear_1297_1552" x1="22.3517" y1="33.769" x2="29.7403" y2="41.1576" gradientUnits="userSpaceOnUse">
<stop stop-color="#FEE45A"/>
<stop offset="1" stop-color="#FEA613"/>
</linearGradient>
<linearGradient id="paint21_linear_1297_1552" x1="31.4989" y1="37.9173" x2="21.2103" y2="37.9173" gradientUnits="userSpaceOnUse">
<stop stop-color="#FEE45A"/>
<stop offset="1" stop-color="#FEA613"/>
</linearGradient>
<linearGradient id="paint22_linear_1297_1552" x1="32.6765" y1="40.6203" x2="27.2206" y2="39.2693" gradientUnits="userSpaceOnUse">
<stop stop-color="#FEA613" stop-opacity="0"/>
<stop offset="1" stop-color="#E94444"/>
</linearGradient>
<linearGradient id="paint23_linear_1297_1552" x1="24.0103" y1="36.6529" x2="28.4443" y2="38.9046" gradientUnits="userSpaceOnUse">
<stop stop-color="#FD3581"/>
<stop offset="1" stop-color="#972437"/>
</linearGradient>
<clipPath id="clip0_1297_1552">
<rect width="53" height="53" fill="white"/>
</clipPath>
</defs>
</svg>
