<svg width="61" height="61" viewBox="0 0 61 61" fill="none" xmlns="http://www.w3.org/2000/svg">
<path d="M10.9271 16.7417C9.62037 16.7417 8.36714 17.2594 7.44312 18.1809C6.51911 19.1024 6 20.3523 6 21.6555V45.2417C6 46.5449 6.51911 47.7948 7.44312 48.7163C8.36714 49.6378 9.62037 50.1555 10.9271 50.1555H13.8834C14.1447 50.1555 14.3954 50.2591 14.5802 50.4434C14.765 50.6277 14.8688 50.8776 14.8688 51.1383V58.0471C14.8704 58.2254 14.9216 58.3998 15.0169 58.5507C15.1121 58.7017 15.2476 58.8232 15.4082 58.9017C15.5687 58.9802 15.748 59.0127 15.926 58.9954C16.104 58.9781 16.2736 58.9118 16.4159 58.8038L27.4133 50.3599C27.5855 50.2275 27.7969 50.1556 28.0144 50.1555H50.3441C51.6508 50.1555 52.9041 49.6378 53.8281 48.7163C54.7521 47.7948 55.2712 46.5449 55.2712 45.2417V21.6555C55.2712 20.3523 54.7521 19.1024 53.8281 18.1809C52.9041 17.2594 51.6508 16.7417 50.3441 16.7417H10.9271Z" fill="#FBD8D8"/>
<path d="M34.6061 4.1792L48.6258 26.2746C49.0746 26.9823 49.3247 27.7972 49.3497 28.6342C49.3748 29.4712 49.1739 30.2996 48.7682 31.0327C48.3625 31.7659 47.7668 32.3769 47.0433 32.8019C46.3198 33.2269 45.4951 33.4503 44.6555 33.4487H16.6162C15.7766 33.4503 14.9519 33.2269 14.2284 32.8019C13.505 32.3769 12.9092 31.7659 12.5035 31.0327C12.0978 30.2996 11.897 29.4712 11.922 28.6342C11.9471 27.7972 12.1971 26.9823 12.646 26.2746L26.6656 4.1792C27.0895 3.51163 27.6758 2.96178 28.3699 2.58079C29.0641 2.19979 29.8435 2 30.6359 2C31.4282 2 32.2076 2.19979 32.9018 2.58079C33.5959 2.96178 34.1822 3.51163 34.6061 4.1792Z" fill="#FB4C4C"/>
<path d="M30.6354 29.5177C31.7239 29.5177 32.6062 28.6377 32.6062 27.5522C32.6062 26.4667 31.7239 25.5867 30.6354 25.5867C29.5469 25.5867 28.6646 26.4667 28.6646 27.5522C28.6646 28.6377 29.5469 29.5177 30.6354 29.5177Z" fill="white"/>
<path d="M30.6355 21.6554C30.099 21.6555 29.5821 21.4545 29.1873 21.0923C28.7924 20.73 28.5486 20.2329 28.5041 19.6997L27.9276 12.7998C27.8964 12.4261 27.9432 12.05 28.0651 11.6953C28.187 11.3406 28.3813 11.015 28.6358 10.7389C28.8903 10.4629 29.1993 10.2425 29.5435 10.0916C29.8877 9.94072 30.2596 9.86264 30.6355 9.8623C31.0118 9.86223 31.3839 9.94001 31.7285 10.0907C32.073 10.2414 32.3825 10.4618 32.6372 10.7379C32.892 11.0139 33.0866 11.3397 33.2087 11.6946C33.3307 12.0495 33.3777 12.4259 33.3464 12.7998L32.77 19.6997C32.7254 20.2334 32.4811 20.7309 32.0857 21.0933C31.6902 21.4556 31.1726 21.6563 30.6355 21.6554Z" fill="white"/>
<path d="M15.8543 39.3452H12.898C12.6367 39.3452 12.386 39.2416 12.2012 39.0573C12.0164 38.873 11.9126 38.623 11.9126 38.3624C11.9126 38.1018 12.0164 37.8518 12.2012 37.6675C12.386 37.4832 12.6367 37.3796 12.898 37.3796H15.8543C16.1156 37.3796 16.3663 37.4832 16.5511 37.6675C16.7359 37.8518 16.8397 38.1018 16.8397 38.3624C16.8397 38.623 16.7359 38.873 16.5511 39.0573C16.3663 39.2416 16.1156 39.3452 15.8543 39.3452ZM39.5045 44.259H36.5482C36.2868 44.259 36.0362 44.1554 35.8514 43.9711C35.6666 43.7868 35.5628 43.5368 35.5628 43.2762C35.5628 43.0155 35.6666 42.7656 35.8514 42.5813C36.0362 42.397 36.2868 42.2934 36.5482 42.2934H39.5045C39.7658 42.2934 40.0165 42.397 40.2013 42.5813C40.3861 42.7656 40.4899 43.0155 40.4899 43.2762C40.4899 43.5368 40.3861 43.7868 40.2013 43.9711C40.0165 44.1554 39.7658 44.259 39.5045 44.259ZM43.4462 39.3452H19.796C19.5346 39.3452 19.284 39.2416 19.0992 39.0573C18.9144 38.873 18.8106 38.623 18.8106 38.3624C18.8106 38.1018 18.9144 37.8518 19.0992 37.6675C19.284 37.4832 19.5346 37.3796 19.796 37.3796H43.4462C43.7075 37.3796 43.9582 37.4832 44.143 37.6675C44.3278 37.8518 44.4316 38.1018 44.4316 38.3624C44.4316 38.623 44.3278 38.873 44.143 39.0573C43.9582 39.2416 43.7075 39.3452 43.4462 39.3452ZM32.6065 44.259H12.898C12.6367 44.259 12.386 44.1554 12.2012 43.9711C12.0164 43.7868 11.9126 43.5368 11.9126 43.2762C11.9126 43.0155 12.0164 42.7656 12.2012 42.5813C12.386 42.397 12.6367 42.2934 12.898 42.2934H32.6065C32.8679 42.2934 33.1185 42.397 33.3033 42.5813C33.4881 42.7656 33.5919 43.0155 33.5919 43.2762C33.5919 43.5368 33.4881 43.7868 33.3033 43.9711C33.1185 44.1554 32.8679 44.259 32.6065 44.259ZM48.3733 39.3452H47.3879C47.1265 39.3452 46.8759 39.2416 46.6911 39.0573C46.5063 38.873 46.4024 38.623 46.4024 38.3624C46.4024 38.1018 46.5063 37.8518 46.6911 37.6675C46.8759 37.4832 47.1265 37.3796 47.3879 37.3796H48.3733C48.6346 37.3796 48.8853 37.4832 49.0701 37.6675C49.2549 37.8518 49.3587 38.1018 49.3587 38.3624C49.3587 38.623 49.2549 38.873 49.0701 39.0573C48.8853 39.2416 48.6346 39.3452 48.3733 39.3452Z" fill="#FB4C4C"/>
</svg>
