<svg width="258" height="228" viewBox="0 0 258 228" fill="none" xmlns="http://www.w3.org/2000/svg">
<path fill-rule="evenodd" clip-rule="evenodd" d="M120.294 1.43933C146.293 -1.24135 174.042 -1.52441 195.945 12.7597C218.367 27.3832 233.011 52.3459 238.553 78.5643C243.77 103.251 239.336 130.303 225.203 151.192C212.678 169.702 186.045 169.651 168.008 182.828C149.915 196.045 142.616 226.017 120.294 227.831C98.1438 229.632 82.993 206.101 66.6015 191.07C52.1736 177.841 39.4945 163.778 31.126 146.069C21.6352 125.985 11.1003 104.726 15.5085 82.9488C20.1447 60.0444 36.7439 41.609 55.1721 27.2742C74.075 12.5705 96.4864 3.89408 120.294 1.43933Z" fill="#2A2D3A"/>
<path fill-rule="evenodd" clip-rule="evenodd" d="M63.5144 60.6471C64.9001 63.0383 65.0776 65.7559 64.0103 68.2466C66.7957 68.5229 69.3424 69.6257 71.1324 71.3303C72.0805 72.233 72.7784 73.2688 73.1992 74.3713H8.56738C8.58622 74.1831 8.61202 73.9952 8.64401 73.8078C8.8953 72.3408 9.54185 70.9332 10.5403 69.6795C11.5383 68.4257 12.8649 67.355 14.4315 66.5387C15.998 65.7226 17.7677 65.18 19.6222 64.9473C21.4762 64.7147 23.3561 64.7969 25.1828 65.1903C25.5962 64.0356 26.3369 62.9698 27.349 62.0738C28.3611 61.1778 29.6184 60.4747 31.0255 60.0177C32.4329 59.5606 33.9533 59.3616 35.4724 59.4358C36.9915 59.5097 38.4693 59.8548 39.7947 60.445C41.2454 58.0781 43.7864 56.236 46.9 55.2946C50.0133 54.3528 53.4651 54.382 56.5518 55.3768C59.6387 56.3712 62.1287 58.256 63.5144 60.6471Z" fill="#B1B6D1"/>
<path fill-rule="evenodd" clip-rule="evenodd" d="M163.82 100.695C165.206 103.086 165.383 105.804 164.316 108.294C167.101 108.571 169.648 109.673 171.438 111.378C172.386 112.281 173.084 113.317 173.505 114.419H108.873C108.892 114.231 108.918 114.043 108.95 113.856C109.201 112.389 109.848 110.981 110.846 109.728C111.844 108.474 113.171 107.403 114.737 106.587C116.304 105.77 118.074 105.228 119.928 104.995C121.782 104.763 123.678 104.845 125.489 105.238C125.902 104.083 126.643 103.018 127.655 102.122C128.667 101.226 129.924 100.522 131.331 100.065C132.739 99.6084 134.259 99.4096 135.778 99.4835C137.297 99.5577 138.775 99.9028 140.1 100.493C141.551 98.1259 144.092 96.284 147.206 95.3423C150.319 94.4006 153.771 94.4301 156.858 95.4245C159.944 96.419 162.434 98.3037 163.82 100.695Z" fill="#869AB7"/>
<path fill-rule="evenodd" clip-rule="evenodd" d="M225.59 41.0475C226.65 42.8821 226.785 44.9669 225.969 46.8777C228.099 47.0897 230.046 47.9358 231.415 49.2436C232.14 49.9361 232.674 50.7307 232.995 51.5768H183.577C183.592 51.432 183.611 51.2878 183.636 51.1443C183.828 50.0188 184.322 48.9391 185.085 47.9772C185.849 47.0153 186.863 46.1937 188.061 45.5677C189.259 44.9413 190.612 44.5251 192.03 44.3467C193.447 44.1682 194.885 44.2311 196.282 44.5329C196.598 43.647 197.164 42.8296 197.938 42.142C198.712 41.4546 199.673 40.9151 200.749 40.5646C201.825 40.214 202.988 40.0613 204.149 40.1181C205.311 40.175 206.441 40.4397 207.454 40.8926C208.563 39.0766 210.506 37.6634 212.886 36.9409C215.267 36.2186 217.906 36.2411 220.267 37.004C222.627 37.7671 224.531 39.2129 225.59 41.0475Z" fill="#494F6D"/>
<path d="M30.7484 129.407C35.2747 128.21 38.7513 123.582 37.2048 117.773C35.8991 112.868 30.8322 109.936 25.9114 111.237L8.92594 115.728C4.36837 116.933 0.930007 121.58 2.46949 127.363C3.6501 131.798 7.90478 134.619 12.3475 134.158L13.9213 140.069C14.2573 141.332 15.9931 141.521 16.5883 140.347L20.8087 132.035L30.7484 129.407ZM27.8371 118.62C28.7865 118.369 29.76 118.932 30.0118 119.878C30.2633 120.823 29.6983 121.793 28.7486 122.044C27.7999 122.295 26.8265 121.732 26.575 120.786C26.3231 119.841 26.8884 118.871 27.8371 118.62ZM11.8362 126.516C10.8875 126.767 9.91408 126.203 9.66253 125.258C9.41073 124.313 9.976 123.342 10.9247 123.092C11.8741 122.841 12.8475 123.404 13.0994 124.349C13.3509 125.295 12.7859 126.265 11.8362 126.516ZM19.3814 120.856C20.3301 120.605 21.3035 121.168 21.555 122.113C21.8066 123.059 21.2416 124.029 20.2929 124.28C19.3442 124.531 18.3708 123.967 18.1193 123.022C17.8674 122.076 18.4327 121.107 19.3814 120.856Z" fill="#616783"/>
<path d="M232.529 109.667C229.13 108.178 226.974 104.129 228.898 99.7674C230.522 96.0843 234.85 94.4053 238.545 96.0235L251.299 101.609C254.721 103.108 256.844 107.167 254.93 111.508C253.461 114.839 249.783 116.531 246.36 115.628L244.402 120.067C243.984 121.015 242.601 120.952 242.279 119.96L239.992 112.935L232.529 109.667ZM236.131 101.572C235.419 101.259 234.587 101.582 234.274 102.292C233.961 103.002 234.285 103.831 234.998 104.143C235.71 104.455 236.542 104.132 236.855 103.422C237.168 102.712 236.844 101.884 236.131 101.572ZM247.697 109.705C248.409 110.017 249.241 109.694 249.554 108.984C249.867 108.274 249.543 107.445 248.831 107.133C248.118 106.821 247.286 107.144 246.973 107.854C246.66 108.564 246.984 109.392 247.697 109.705ZM242.481 104.352C241.768 104.04 240.937 104.363 240.624 105.073C240.311 105.783 240.635 106.612 241.347 106.924C242.059 107.235 242.891 106.913 243.204 106.203C243.517 105.493 243.193 104.664 242.481 104.352Z" fill="#4F546C"/>
<path d="M133.796 100.468L115.326 105.957C109.975 107.547 106.918 113.181 108.514 118.515C110.378 124.745 116.235 127.203 121.238 125.716L132.047 122.504L140.769 127.873C141.99 128.626 143.518 127.472 143.104 126.09L141.181 119.662C145.603 117.559 147.963 112.493 146.52 107.67C144.66 101.453 138.811 98.9782 133.796 100.468ZM118.879 117.687C117.846 117.994 116.76 117.409 116.452 116.38C116.145 115.352 116.732 114.269 117.765 113.962C118.796 113.656 119.882 114.241 120.19 115.269C120.498 116.298 119.911 117.381 118.879 117.687ZM128.074 114.954C127.042 115.261 125.956 114.676 125.649 113.647C125.341 112.619 125.928 111.537 126.96 111.23C127.991 110.923 129.077 111.509 129.385 112.537C129.693 113.566 129.106 114.648 128.074 114.954ZM137.27 112.222C136.237 112.529 135.152 111.944 134.844 110.915C134.536 109.887 135.123 108.804 136.156 108.497C137.187 108.191 138.273 108.776 138.581 109.804C138.889 110.833 138.302 111.915 137.27 112.222Z" fill="#EBF2FD"/>
<path d="M55.7824 62.339C54.4223 53.9472 60.4976 46.1699 68.9946 45.4259C77.4913 44.6817 84.8353 51.2836 84.9653 59.7832L86.0719 132.097C86.1472 137.017 82.3972 141.16 77.4782 141.591C72.5594 142.022 68.1414 138.594 67.354 133.736L55.7824 62.339ZM92.928 167.086C93.5614 174.267 88.2337 180.6 81.028 181.231C73.8223 181.862 67.4675 176.552 66.8339 169.371C66.2005 162.19 71.5282 155.857 78.7339 155.226C85.9395 154.595 92.2943 159.905 92.928 167.086Z" fill="url(#paint0_linear_772_3199)"/>
<path d="M169.346 138.353L168.651 141.084C168.106 141.851 166.942 142.308 165.16 142.454C163.378 142.601 162.254 142.635 161.786 142.557L160.503 142.194C160.15 142.095 159.762 141.931 159.337 141.702C158.402 141.167 157.754 140.387 157.392 139.364C156.701 136.854 156.146 134.308 155.728 131.738C155.364 129.196 155.567 126.57 156.338 123.861C157.123 121.102 158.322 118.894 159.937 117.236C161.55 115.578 163.434 114.214 165.588 113.143C167.742 112.072 170.112 111.197 172.698 110.519L180.51 108.581C187.342 106.935 192.151 105.233 194.936 103.472C200.506 99.9524 204.148 95.1822 205.861 89.1622C207.66 82.841 206.99 76.8792 203.853 71.2764C200.643 65.5446 195.616 61.711 188.77 59.775C176.035 56.1741 167.222 59.0481 162.331 68.3977C160.348 72.1191 159.177 74.6067 158.821 75.8609L158.114 78.3441C157.686 79.8491 157.461 80.924 157.441 81.5687C154.452 82.133 151.976 82.1376 150.013 81.5824C148.05 81.0274 146.539 80.2206 145.481 79.1625C144.473 78.1187 143.705 76.8988 143.177 75.5029C142.086 72.6469 141.991 69.6385 142.89 66.478C143.804 63.2674 145.229 60.5534 147.165 58.3365C149.115 56.0694 151.422 54.1743 154.086 52.6507C156.814 51.0914 159.797 49.8754 163.037 49.0027C166.327 48.1442 169.69 47.6044 173.125 47.3832C180.239 46.8473 186.791 47.4261 192.781 49.12C198.821 50.828 204.083 52.8849 208.565 55.2905C213.098 57.7104 216.787 60.7049 219.633 64.274C225.692 71.8414 227.016 81.6201 223.604 93.61C220.62 104.095 213.473 111.533 202.162 115.923C199.052 117.103 196.05 118.097 193.155 118.905L185.203 121.047C181.029 122.143 178.164 123.42 176.607 124.877C175.115 126.298 173.975 127.629 173.187 128.869C171.783 131.128 170.502 134.29 169.346 138.353ZM144.125 163.337C145.139 159.776 147.171 157.125 150.222 155.386C153.223 153.633 156.51 153.261 160.084 154.272C165.823 155.895 169.06 159.52 169.797 165.149C170.009 166.889 169.858 168.663 169.344 170.468C168.345 173.98 166.287 176.623 163.172 178.399C160.084 180.073 156.678 180.384 152.953 179.331C149.379 178.32 146.77 176.308 145.126 173.296C143.459 170.169 143.126 166.849 144.125 163.337Z" fill="url(#paint1_linear_772_3199)"/>
<defs>
<linearGradient id="paint0_linear_772_3199" x1="74.2854" y1="45.3687" x2="49.2011" y2="139.684" gradientUnits="userSpaceOnUse">
<stop stop-color="#EBF2FD"/>
<stop offset="1" stop-color="#97ADD0"/>
</linearGradient>
<linearGradient id="paint1_linear_772_3199" x1="183.864" y1="47.1899" x2="172.5" y2="144.5" gradientUnits="userSpaceOnUse">
<stop stop-color="#EBF2FD"/>
<stop offset="1" stop-color="#97ADD0"/>
</linearGradient>
</defs>
</svg>
