<svg width="48" height="48" viewBox="0 0 48 48" fill="none" xmlns="http://www.w3.org/2000/svg">
<path d="M43.0664 20.6665L42.7997 24.3998L42.1331 35.5998C41.9997 37.4665 40.7997 39.1998 39.0664 39.8665C25.3331 45.1998 25.7331 45.1998 25.1997 45.3332C24.5331 45.4665 23.7331 45.4665 22.9331 45.3332C22.2664 45.1998 22.7997 45.3332 9.06641 39.8665C7.33307 39.1998 6.13307 37.4665 5.99974 35.5998L5.33307 24.3998L5.06641 20.6665L23.9997 26.6665L43.0664 20.6665Z" fill="#5175F4"/>
<path d="M25.0665 29.0667V45.2C24.3998 45.3333 23.5998 45.3333 22.7998 45.2V29.0667C23.5998 29.4667 24.3998 29.4667 25.0665 29.0667Z" fill="#5F9DFA"/>
<path d="M4.93311 20.6665L5.19977 24.3998L22.9331 31.9998C23.5998 32.2665 24.3998 32.2665 25.1998 31.9998L42.9331 24.3998L43.1998 20.6665L23.9998 26.6665L4.93311 20.6665Z" fill="#1039CC"/>
<path d="M22.9331 29.0667V31.8667C23.5998 32.1333 24.3998 32.1333 25.1998 31.8667V29.0667C24.3998 29.4667 23.5998 29.4667 22.9331 29.0667Z" fill="#072E93" fill-opacity="0.313726"/>
<path d="M44 21.3333L25.2 29.3333C24.9333 29.4666 24.5333 29.5999 24.1333 29.5999C23.7333 29.5999 23.4666 29.4666 23.0666 29.3333L3.99998 21.3333C2.66665 20.7999 2.39998 16.9333 2.93331 14.3999C3.06665 13.8666 3.19998 13.4666 3.33331 13.0666C3.59998 12.6666 3.73331 12.3999 3.99998 12.2666H44C44.2666 12.3999 44.4 12.5333 44.5333 12.7999C44.8 13.1999 44.9333 13.7333 45.0666 14.2666C45.6 16.9333 45.2 20.7999 44 21.3333Z" fill="#355DE9"/>
<path d="M45.0665 14.4C44.7998 13.6 43.5998 14 43.5998 14L25.9998 21.4667C25.4665 21.7333 25.0665 22.2667 25.0665 22.9333V29.3333C24.7998 29.4667 24.3998 29.6 23.9998 29.6C23.5998 29.6 23.3331 29.4667 22.9331 29.3333V22.8C22.9331 22.1333 22.5331 21.6 21.9998 21.3333L4.26647 13.8666C3.86647 13.7333 3.06647 13.6 2.7998 14.2667C2.93314 13.7333 3.06647 13.3333 3.1998 12.9333C3.46647 12.6667 3.73314 12.4 3.9998 12.2667L22.7998 4.26665C23.4665 3.99998 24.2665 3.99998 25.0665 4.26665L43.8665 12.2667C44.1331 12.4 44.2665 12.5333 44.3998 12.8C44.7998 13.2 44.9331 13.7333 45.0665 14.4Z" fill="#5F9DFA"/>
<path d="M24.5332 20.6667L42.1332 13.3334C42.3998 13.2 42.3998 12.8 42.1332 12.6667L24.5332 5.4667C24.1332 5.33337 23.7332 5.33337 23.3332 5.4667L5.8665 12.6667C5.59984 12.8 5.59984 13.2 5.8665 13.3334L23.3332 20.5334C23.7332 20.8 24.2665 20.8 24.5332 20.6667Z" fill="#355DE9"/>
<path d="M33.3332 18.2666L31.7332 18.9333C31.4665 18.6666 31.1998 18.5333 30.3998 18.1333L32.2665 17.3333C32.6665 17.7333 33.0665 17.9999 33.3332 18.2666ZM16.2665 19.0666L14.6665 18.2666C14.9332 17.8666 15.3332 17.5999 15.7332 17.3333L17.5998 18.1333C16.9332 18.5333 16.5332 18.7999 16.2665 19.0666Z" fill="#328CDF"/>
<path d="M24.0001 12.9333C25.8667 13.8667 29.8667 16 32.2667 17.4667L30.4001 18.2667C28.5334 17.2 26.0001 16 24.0001 15.2C21.6001 16.2667 19.4667 17.2 17.6001 18.2667L15.7334 17.4667C17.8667 16.1334 21.7334 14 24.0001 12.9333Z" fill="#1039CC"/>
<path d="M17.6002 9.59985C14.6668 11.1999 11.8668 12.6665 9.3335 14.1332C7.86683 15.0665 6.9335 16.6665 7.06683 18.3999L8.66683 39.3332C8.80017 40.3999 9.3335 41.4665 10.1335 41.9999C12.1335 43.4665 15.4668 45.4665 17.0668 44.1332L15.3335 42.9332L14.9335 17.8665L24.0002 12.7999V9.59985H17.6002Z" fill="#FFD475"/>
<path d="M15.7333 21.4666L15.8667 41.9999L14.9333 40.3999C14.1333 20.9333 13.6 19.8666 14.6667 18.2666L16.2667 18.9333C15.7333 19.5999 15.7333 20.5333 15.7333 21.4666Z" fill="#072E93" fill-opacity="0.313726"/>
<path d="M13.4668 20.6667L14.4001 42.8C14.4001 43.8667 15.4668 44.8 16.5334 44.5333C17.0668 44.4 17.6001 44 18.0001 43.4667L16.2668 42.6667C16.0001 42.5333 15.8668 42.2667 15.8668 42L15.2001 20.4C15.2001 19.3333 15.7334 18.1333 16.6668 17.6C18.9334 16.2667 21.2001 15.2 23.8668 14V12C21.3334 13.2 18.0001 15.0667 15.6001 16.5333C14.2668 17.3333 13.3334 18.9333 13.4668 20.6667Z" fill="#F3A250"/>
<path d="M30.4 9.59985C33.3333 11.0665 36.1333 12.6665 38.6667 14.1332C40.1333 15.0665 41.0667 16.6665 40.9333 18.3999L39.3333 39.3332C39.2 40.3999 38.6667 41.4665 37.8667 41.9999C35.8667 43.4665 32.5333 45.4665 30.9333 44.1332L32.6667 42.9332L33.0667 17.8665L24 12.7999V9.59985H30.4Z" fill="#FFD475"/>
<path d="M32.2667 21.4666L32.1334 42.1332L33.2001 40.3999C33.7334 20.9332 34.4001 19.9999 33.3334 18.3999L31.7334 19.0666C32.2667 19.5999 32.2667 20.5332 32.2667 21.4666Z" fill="#072E93" fill-opacity="0.313726"/>
<path d="M34.5333 20.6667L33.6 42.8C33.6 43.8667 32.5333 44.8 31.4666 44.5333C30.9333 44.4 30.4 44 30 43.4667L31.7333 42.8C32 42.6667 32.1333 42.5333 32.1333 42.2667L32.8 20.6667C32.8 19.6 32.2666 18.4 31.3333 17.8667C30.6666 17.4667 29.8666 17.0667 29.2 16.6667C27.7333 15.8667 26.1333 15.2 24.6666 14.5333C24.4 14.4 24.2666 14.4 24.1333 14.2667V12C24.8 12.4 25.4666 12.6667 26.1333 13.0667C28.2666 14.1333 30.1333 15.2 32.4 16.5333C32.5333 16.6667 32.6666 16.8 32.8 16.8C33.8666 17.7333 34.6666 19.2 34.5333 20.6667Z" fill="#F3A250"/>
<path d="M21.8669 10.2665C21.8669 10.3998 21.7336 10.6665 21.7336 10.7998C21.0669 12.7998 20.1336 13.8665 18.0002 13.3332C16.6669 12.9332 11.3336 14.1332 10.9336 13.9998C9.73355 13.4665 9.33355 12.1332 9.46688 10.6665C9.46688 8.79984 10.2669 6.6665 10.9336 5.33317C11.6002 3.99984 12.6669 2.93317 13.8669 2.6665H14.4002C16.2669 2.6665 19.4669 5.73317 20.5336 7.0665C21.6002 8.39984 20.6669 7.19984 20.6669 7.19984C21.3336 7.99984 21.7336 8.79984 21.8669 9.4665V10.2665Z" fill="#FFD475"/>
<path d="M21.8668 10.2665C21.8668 10.3998 21.7335 10.6665 21.7335 10.7998C21.4668 9.99984 20.6668 8.79984 20.4001 8.53317C19.2001 7.0665 16.1335 4.13317 14.2668 4.13317C11.6001 4.13317 9.8668 7.99984 9.4668 10.6665C9.4668 8.79984 10.2668 6.6665 10.9335 5.33317C11.4668 4.13317 12.8001 2.93317 13.8668 2.6665H14.4001C16.2668 2.6665 19.4668 5.73317 20.5335 7.0665C21.6001 8.39984 20.6668 7.19984 20.6668 7.19984C21.4668 8.2665 21.7335 8.93317 21.8668 9.4665V10.2665Z" fill="#FFDE9B"/>
<path d="M23.3334 14.3998C22.9334 14.5332 22.4001 14.7998 22.0001 14.9332C20.4001 14.7998 20.1334 14.7998 19.7334 14.5332C19.8667 14.5332 20.0001 14.3998 20.0001 14.2665C20.5334 13.7332 20.2667 13.1998 19.8667 12.6665H21.6001L21.8667 12.9332L23.3334 14.3998Z" fill="#DD8536" fill-opacity="0.313726"/>
<path d="M9.4668 11.8666C9.4668 12.6666 9.4668 15.1999 12.4001 15.5999C13.4668 15.7333 15.6001 15.7333 16.8001 15.7333C18.5335 15.5999 21.0668 15.3333 21.0668 13.5999C21.0668 13.3333 20.9335 12.9333 20.8001 12.6666C20.5335 12.1333 19.6001 11.3333 19.4668 11.3333C17.3335 9.73327 14.0001 8.39993 12.5335 8.2666C10.6668 8.2666 9.4668 9.99993 9.4668 11.8666Z" fill="#FFB961"/>
<path d="M15.4667 15.1998C26.9333 15.1998 15.6 8.93314 12.5333 8.7998C11.0667 8.7998 10 10.1331 10 11.8665C10 15.3331 12 15.1998 15.4667 15.1998Z" fill="#F3A250"/>
<path d="M20.1333 14.4C20.2666 14.4 20.2666 14.2667 20.1333 14.4Z" fill="#F3A250"/>
<path d="M10 11.8665C10 12.5331 10.1333 13.4665 10.5333 13.9998C10.6667 12.5331 11.7333 11.1998 13.0667 11.1998C14.4 11.1998 17.8667 12.5331 20 14.3998C22.1333 16.2665 20 14.3998 20.1333 14.2665C21.8667 12.5331 14.9333 8.93314 12.4 8.7998C11.0667 8.93314 10 10.1331 10 11.8665Z" fill="#DD8536"/>
<path d="M26.1333 10.2666C26.6667 12.4 27.7333 14 30 13.2C31.3333 12.8 36.6667 14 37.0667 13.8666C38 13.4666 38.4 12.5333 38.5333 11.4666C38.8 8.5333 36.6667 1.86664 32.8 2.79997C31.4667 3.19997 28.9333 5.19997 27.3333 7.19997C25.7333 9.19997 27.2 7.3333 27.2 7.3333C26.4 8.39997 25.8667 9.46664 26.1333 10.2666Z" fill="#FFD475"/>
<path d="M38.5335 10.6666C38.0001 7.59992 36.0001 3.46658 32.9335 4.13325C30.9335 4.79992 26.8001 8.53325 26.2668 10.6666C26.0001 9.86658 25.7335 9.06658 27.2001 7.19992L27.3335 7.06658C28.9335 5.06658 31.4668 3.19992 32.8001 2.66658C36.5335 1.86658 38.5335 7.99992 38.5335 10.6666Z" fill="#FFDE9B"/>
<path d="M39.0665 14.3998C37.9999 16.6665 35.4665 16.7998 32.7999 16.7998H30.9332C29.8665 16.7998 29.4665 16.6665 29.0665 16.5332C27.5999 15.7332 25.9999 15.0665 24.5332 14.3998L25.8665 12.9332L26.1332 12.6665H35.9999C36.9332 13.1998 38.6665 14.1332 39.0665 14.3998Z" fill="#DD8536" fill-opacity="0.313726"/>
<path d="M26.9331 13.7332C26.9331 15.4666 29.4664 15.7332 31.1998 15.8666C35.5998 15.9999 38.5331 16.1332 38.5331 11.9999C38.5331 10.1332 37.3331 8.3999 35.4664 8.3999C33.1998 8.3999 26.9331 11.3332 26.9331 13.7332Z" fill="#FFB961"/>
<path d="M32.5335 15.1998C21.0669 15.1998 32.5335 8.93314 35.4669 8.7998C36.9335 8.7998 38.0002 10.1331 38.0002 11.8665C38.0002 15.3331 35.8669 15.1998 32.5335 15.1998Z" fill="#F3A250"/>
<path d="M38 11.8665C38 12.5331 37.8667 13.3331 37.4667 13.9998C37.3334 12.3998 36.2667 11.1998 34.9334 11.1998C33.6 11.1998 30.1334 12.5331 28 14.3998C25.8667 16.2665 28 14.3998 27.8667 14.2665C26.1334 12.5331 33.0667 8.93314 35.6 8.7998C36.9334 8.93314 38 10.1331 38 11.8665Z" fill="#DD8536"/>
<path d="M28.6668 11.9999C28.2668 12.2666 27.7335 12.9333 27.6002 13.4666C27.6002 13.7333 27.6002 13.9999 27.8668 14.2666C27.8668 14.2666 27.8668 14.3999 28.0002 14.3999L28.2668 14.6666C28.0002 14.9333 27.6002 14.9333 26.0002 15.0666C25.3335 14.6666 24.6668 14.3999 24.0002 14.1333C23.7335 14.2666 23.6002 14.2666 23.4668 14.3999C23.0668 14.5333 22.5335 14.7999 22.1335 14.9333C20.5335 14.7999 20.2668 14.7999 19.8668 14.5333C20.4002 14.2666 20.8002 13.5999 20.0002 12.6666C19.7335 12.3999 19.6002 12.1333 19.3335 11.9999C19.3335 11.7333 20.0002 8.13326 20.0002 7.99993C20.1335 7.59993 20.2668 7.33326 20.5335 7.19993C20.8002 7.0666 20.6668 7.33326 20.6668 7.33326C21.4668 8.39993 22.0002 9.4666 21.7335 10.2666C21.4668 11.1999 21.2002 12.1333 20.5335 12.6666C20.6668 12.9333 20.8002 13.1999 20.8002 13.4666C21.0668 13.3333 21.4668 13.0666 21.8668 12.9333C22.6668 12.6666 23.3335 12.2666 24.0002 11.9999C25.0668 12.5333 26.0002 13.0666 27.0668 13.5999C27.0668 13.3333 27.2002 13.0666 27.3335 12.7999C26.8002 12.1333 26.4002 11.3333 26.1335 10.3999C25.8668 9.59993 26.4002 8.53326 27.3335 7.4666C27.3335 7.4666 27.3335 7.33326 27.4668 7.33326C27.7335 7.33326 27.8668 7.59993 28.0002 7.99993C28.0002 8.2666 28.6668 11.8666 28.6668 11.9999Z" fill="#111D33" fill-opacity="0.0627451"/>
<path d="M19.7332 13.1999C19.5999 13.7332 19.9999 14.1332 20.3999 14.1332C23.4665 14.5332 24.2665 14.5332 27.4665 14.1332C27.9999 14.1332 28.2665 13.5999 28.1332 13.1999L27.4665 9.9999C27.4665 9.5999 27.0665 9.46657 26.6665 9.46657C24.9332 9.86657 22.6665 9.86657 20.9332 9.46657C20.5332 9.33324 20.2665 9.5999 20.1332 9.9999L19.7332 13.1999Z" fill="#FFB961"/>
<path d="M20.1331 11.0666C19.9998 11.4666 20.3998 11.9999 20.7998 11.9999C23.4664 12.3999 24.5331 12.3999 27.1998 11.9999C27.5998 11.9999 27.9998 11.5999 27.8664 11.0666L27.3331 8.13322C27.3331 7.86655 26.9331 7.59989 26.6664 7.73322C25.1998 8.13322 22.9331 8.13322 21.4664 7.73322C21.1998 7.59989 20.7998 7.86655 20.7998 8.13322L20.1331 11.0666Z" fill="#FFD475"/>
</svg>
