<svg width="189" height="48" viewBox="0 0 189 48" fill="none" xmlns="http://www.w3.org/2000/svg">
<path d="M4.2429 28.7812C4.04722 28.7399 3.88555 28.6342 3.75791 28.4642C3.63027 28.2942 3.59123 28.0918 3.64079 27.8569L7.65521 8.83594C7.70064 8.62068 7.81609 8.46108 8.00155 8.35714C8.19114 8.23363 8.38378 8.19253 8.57947 8.23383L25.6631 11.8394C25.8784 11.8848 26.038 12.0002 26.1419 12.1857C26.2696 12.3557 26.3107 12.5484 26.2653 12.7636L22.2508 31.7846C22.2054 31.9999 22.0879 32.1693 21.8983 32.2928C21.7324 32.4008 21.5418 32.4322 21.3266 32.3867L16.542 31.3769C16.3267 31.3315 16.1553 31.2238 16.0276 31.0538C15.9237 30.8683 15.8944 30.6679 15.9399 30.4527L18.9383 16.2456L12.9502 14.9818L9.95177 29.1889C9.90633 29.4041 9.78882 29.5735 9.59923 29.697C9.43334 29.8051 9.24276 29.8364 9.02751 29.791L4.2429 28.7812Z" fill="white"/>
<path d="M26.9537 33.4421C26.7561 33.4113 26.589 33.3144 26.4525 33.1514C26.3191 32.9687 26.2693 32.7686 26.3032 32.5512L29.3 13.3436C29.334 13.1262 29.4408 12.9607 29.6204 12.8471C29.8032 12.7136 29.9934 12.6623 30.191 12.6932L38.8463 14.0436C40.5655 14.3118 42.0173 14.8015 43.2019 15.5126C44.4062 16.2268 45.2823 17.163 45.8303 18.3214C46.3783 19.4797 46.5289 20.8493 46.2823 22.4302C46.0356 24.011 45.4765 25.2598 44.6047 26.1763C43.7361 27.0731 42.6226 27.6585 41.2641 27.9323C39.9254 28.2093 38.3965 28.2136 36.6773 27.9454L33.8613 27.5061L32.9133 33.5825C32.8793 33.7999 32.771 33.9753 32.5883 34.1087C32.4284 34.2255 32.2397 34.2669 32.0223 34.233L26.9537 33.4421ZM34.4873 22.7153L37.2736 23.15C37.8467 23.2394 38.357 23.147 38.8047 22.8727C39.2752 22.5818 39.5674 22.0707 39.6815 21.3396C39.7678 20.7863 39.6884 20.2577 39.4431 19.7539C39.1978 19.25 38.6998 18.9395 37.9488 18.8224L35.1626 18.3876L34.4873 22.7153Z" fill="white"/>
<path d="M57.6117 37.8686C55.7005 37.6858 54.0666 37.2283 52.7101 36.4959C51.3736 35.7653 50.3543 34.7638 49.6522 33.4912C48.9719 32.2006 48.6876 30.6565 48.7992 28.859C48.8592 28.0209 48.9311 27.1639 49.0148 26.2879C49.1005 25.3919 49.1951 24.5069 49.2988 23.6328C49.5279 21.8666 50.0987 20.4143 51.0112 19.276C51.9436 18.1396 53.1461 17.3304 54.6186 16.8483C56.0931 16.3464 57.776 16.1858 59.6674 16.3666C61.5388 16.5455 63.1509 17.0211 64.5036 17.7933C65.8581 18.5457 66.8855 19.5681 67.5856 20.8606C68.2858 22.1531 68.5711 23.6872 68.4415 25.4629C68.3976 26.3427 68.3328 27.2306 68.2472 28.1265C68.1634 29.0025 68.0617 29.8567 67.9419 30.6891C67.7109 32.4752 67.1292 33.9365 66.1968 35.0729C65.2862 36.1913 64.0956 36.9816 62.6249 37.4437C61.1742 37.9078 59.5031 38.0494 57.6117 37.8686ZM58.0971 32.7917C58.9333 32.8717 59.644 32.6885 60.2291 32.2421C60.8161 31.7759 61.1729 30.9862 61.2994 29.8732C61.4211 29.0209 61.5199 28.1966 61.5961 27.4002C61.6741 26.584 61.7332 25.7558 61.7733 24.9158C61.8238 24.1773 61.7425 23.5567 61.5294 23.0542C61.3362 22.5535 61.031 22.1727 60.6139 21.9119C60.2168 21.6529 59.7395 21.4967 59.182 21.4435C58.6246 21.3902 58.1164 21.4521 57.6574 21.6292C57.1985 21.8063 56.8168 22.1214 56.5123 22.5745C56.2277 23.0295 56.0402 23.6244 55.9499 24.3591C55.85 25.1934 55.7611 26.0187 55.683 26.8349C55.6069 27.6313 55.5379 28.4585 55.4759 29.3165C55.4092 30.4352 55.6099 31.2781 56.078 31.8453C56.568 32.3944 57.241 32.7099 58.0971 32.7917Z" fill="white"/>
<path d="M70.6236 38.7609C70.4037 38.7546 70.2158 38.6793 70.0598 38.5348C69.9044 38.3703 69.8299 38.1781 69.8361 37.9582L70.3897 18.526C70.3959 18.3061 70.481 18.1285 70.645 17.9931C70.8094 17.8377 71.0016 17.7631 71.2216 17.7694L75.2099 17.883C75.5698 17.8933 75.8368 18.0009 76.0111 18.206C76.1853 18.411 76.3013 18.5544 76.359 18.636L80.9195 27.1093L85.9551 18.9094C86.0173 18.8311 86.1413 18.6946 86.3269 18.4998C86.5125 18.305 86.7852 18.2127 87.1451 18.223L91.1335 18.3366C91.3534 18.3429 91.531 18.428 91.6664 18.5919C91.8224 18.7364 91.8972 18.9186 91.891 19.1385L91.3374 38.5706C91.3312 38.7905 91.2458 38.9782 91.0813 39.1336C90.9374 39.2695 90.7554 39.3344 90.5355 39.3281L86.0374 39.2C85.8174 39.1937 85.6295 39.1183 85.4736 38.9738C85.3382 38.8099 85.2736 38.618 85.2799 38.3981L85.5566 28.682L82.7228 33.3432C82.6183 33.5003 82.4838 33.6565 82.3193 33.8119C82.1548 33.9673 81.9226 34.0407 81.6227 34.0322L79.7935 33.9801C79.5136 33.9721 79.2959 33.8859 79.1406 33.7214C78.9852 33.5569 78.8598 33.3932 78.7644 33.2305L76.2004 28.4155L75.9237 38.1316C75.9174 38.3515 75.832 38.5391 75.6675 38.6945C75.5236 38.8304 75.3417 38.8953 75.1218 38.889L70.6236 38.7609Z" fill="white"/>
<path d="M105.586 39.2558C103.667 39.3349 101.987 39.104 100.543 38.563C99.1195 38.0211 97.9734 37.1676 97.1046 36.0024C96.255 34.8164 95.7632 33.3254 95.6291 31.5294C95.5745 30.691 95.5291 29.8321 95.4928 28.9528C95.4558 28.0536 95.4291 27.164 95.4128 26.2839C95.3994 24.5029 95.7673 22.9865 96.5163 21.7346C97.2854 20.4818 98.3665 19.5165 99.7598 18.8385C101.152 18.1405 102.798 17.7524 104.696 17.6741C106.574 17.5967 108.236 17.8485 109.681 18.4294C111.126 18.9904 112.283 19.8635 113.152 21.0487C114.022 22.2338 114.513 23.7149 114.626 25.4917C114.703 26.3693 114.759 27.2577 114.796 28.157C114.833 29.0362 114.848 29.8963 114.843 30.7372C114.857 32.5382 114.48 34.065 113.711 35.3178C112.961 36.5497 111.889 37.4947 110.495 38.1527C109.12 38.8098 107.484 39.1775 105.586 39.2558ZM105.376 34.1601C106.215 34.1255 106.894 33.8473 107.413 33.3255C107.931 32.7837 108.177 31.9529 108.151 30.833C108.156 29.9721 108.141 29.1419 108.108 28.3426C108.075 27.5233 108.02 26.6949 107.946 25.8572C107.895 25.1187 107.73 24.5149 107.451 24.0461C107.191 23.5764 106.837 23.2407 106.388 23.039C105.96 22.8365 105.466 22.7467 104.906 22.7698C104.347 22.7929 103.852 22.9234 103.421 23.1613C102.99 23.3993 102.655 23.7634 102.415 24.2537C102.195 24.7432 102.09 25.358 102.101 26.0982C102.115 26.9383 102.14 27.768 102.173 28.5873C102.206 29.3866 102.251 30.2155 102.306 31.074C102.392 32.1914 102.706 32.9991 103.247 33.4973C103.807 33.9746 104.516 34.1956 105.376 34.1601Z" fill="white"/>
<path d="M121.009 38.1246C120.81 38.1454 120.624 38.0945 120.45 37.9718C120.276 37.8492 120.177 37.6685 120.152 37.4298L118.133 18.0949C118.111 17.8761 118.171 17.6888 118.316 17.5329C118.459 17.3572 118.629 17.2589 118.828 17.2381L123.692 16.7304C123.911 16.7075 124.098 16.7684 124.254 16.913C124.427 17.0356 124.526 17.2064 124.549 17.4252L125.253 24.1685L126.416 24.047L129.695 16.7371C129.778 16.5676 129.902 16.4138 130.069 16.2757C130.253 16.1157 130.495 16.0202 130.793 15.989L136.253 15.4189C136.432 15.4003 136.589 15.4543 136.723 15.5811C136.855 15.688 136.93 15.8309 136.949 16.01C136.959 16.1094 136.941 16.2219 136.893 16.3475L132.377 25.9584L139.405 35.2086C139.451 35.2642 139.483 35.3715 139.499 35.5306C139.518 35.7097 139.465 35.8761 139.34 36.0298C139.233 36.1616 139.09 36.2369 138.911 36.2556L133.302 36.8412C132.944 36.8786 132.667 36.8271 132.471 36.6866C132.294 36.5242 132.171 36.4063 132.103 36.333L127.217 29.6944L125.844 29.8377L126.567 36.7601C126.59 36.9789 126.53 37.1762 126.388 37.3519C126.263 37.5057 126.091 37.594 125.872 37.6169L121.009 38.1246Z" fill="white"/>
<path d="M152.023 34.5378C150.128 34.8449 148.432 34.8159 146.934 34.4508C145.456 34.0825 144.216 33.3717 143.215 32.3183C142.23 31.242 141.564 29.8203 141.217 28.053C141.063 27.2271 140.915 26.3797 140.775 25.5111C140.631 24.6227 140.498 23.7425 140.377 22.8707C140.151 21.104 140.336 19.5545 140.931 18.2222C141.545 16.8868 142.503 15.7995 143.806 14.9603C145.105 14.1014 146.692 13.5199 148.568 13.216C150.424 12.9152 152.104 12.9671 153.608 13.3717C155.109 13.7566 156.361 14.4855 157.366 15.5587C158.371 16.6318 159.035 18.0437 159.359 19.7943C159.54 20.6566 159.702 21.5319 159.846 22.4203C159.986 23.289 160.104 24.1411 160.199 24.9767C160.428 26.7631 160.235 28.3241 159.621 29.6595C159.023 30.9721 158.071 32.038 156.766 32.8575C155.48 33.6737 153.899 34.2338 152.023 34.5378ZM151.208 29.5035C152.037 29.3691 152.678 29.0119 153.131 28.432C153.581 27.8323 153.726 26.978 153.567 25.8693C153.468 25.0139 153.355 24.1914 153.227 23.4017C153.096 22.5923 152.944 21.7762 152.77 20.9534C152.632 20.2261 152.396 19.6464 152.063 19.2142C151.749 18.7787 151.357 18.4876 150.888 18.3409C150.438 18.1909 149.937 18.1607 149.384 18.2503C148.831 18.3399 148.355 18.5284 147.956 18.816C147.557 19.1035 147.267 19.505 147.087 20.0204C146.927 20.5327 146.897 21.1556 146.995 21.8893C147.11 22.7216 147.233 23.5426 147.364 24.352C147.492 25.1417 147.635 25.9594 147.792 26.8051C148.011 27.9043 148.418 28.6689 149.015 29.0991C149.628 29.5062 150.359 29.641 151.208 29.5035Z" fill="white"/>
<path d="M164.85 36.3754C164.635 36.4217 164.433 36.3835 164.243 36.2608C164.076 36.1534 163.97 35.9922 163.924 35.7771L162.168 27.624C162.122 27.409 162.152 27.2183 162.259 27.0519C162.382 26.8618 162.551 26.7436 162.766 26.6973L163.265 26.5899C163.734 26.4889 164.067 26.1819 164.263 25.6691C164.475 25.1325 164.575 24.4563 164.563 23.6405C164.57 22.8206 164.494 21.8959 164.334 20.8666C164.193 19.8331 164.005 18.7688 163.769 17.6739L162.525 11.8964C162.478 11.6813 162.509 11.4906 162.616 11.3243C162.739 11.1342 162.908 11.016 163.123 10.9697L177.904 7.78634C178.119 7.74002 178.312 7.78033 178.482 7.90727C178.668 8.01044 178.784 8.16957 178.831 8.38463L181.888 22.5792L183.237 22.2886C183.452 22.2423 183.645 22.2826 183.815 22.4096C184.001 22.5127 184.117 22.6719 184.164 22.8869L185.919 31.04C185.966 31.2551 185.925 31.4479 185.798 31.6184C185.695 31.8043 185.536 31.9204 185.321 31.9667L180.541 32.9963C180.345 33.0384 180.152 32.9981 179.962 32.8753C179.776 32.7722 179.66 32.613 179.614 32.398L178.894 29.0546L169.509 31.0758L170.229 34.4191C170.275 34.6342 170.235 34.827 170.108 34.9976C170.005 35.1835 169.846 35.2996 169.631 35.3459L164.85 36.3754ZM170.567 25.0172L175.582 23.9372L173.561 14.5523L169.631 15.3987L170.016 17.1877C170.395 18.9473 170.622 20.4739 170.696 21.7673C170.785 23.0369 170.742 24.1202 170.567 25.0172Z" fill="white"/>
</svg>
