<svg width="97" height="97" viewBox="0 0 97 97" fill="none" xmlns="http://www.w3.org/2000/svg">
<path d="M76.4036 19.6125L82.4939 48.75L66.4102 39.952L76.4036 19.6125Z" fill="#616D77"/>
<path d="M82.4947 48.7506L79.2987 75.0881L66.4109 39.9526L82.4947 48.7506Z" fill="#505C63"/>
<path d="M66.4104 39.9521L79.2981 75.0876L43.2161 66.0181L33.762 53.9788L66.4104 39.9521Z" fill="#798795"/>
<path d="M79.2985 75.0881L69.4408 91.2831L42.5415 83.1545L43.2165 66.0186L79.2985 75.0881Z" fill="#616D77"/>
<path d="M76.404 19.6128L66.4106 39.9523L55.5837 19.543L55.6252 2.26758L76.404 19.6128Z" fill="#8E99A3"/>
<path d="M69.441 91.2829L38.5443 94.66L20.6221 85.6847L42.5417 83.1543L69.441 91.2829Z" fill="#505C63"/>
<path d="M55.5833 19.5427L66.4101 39.952L33.7617 53.9786L34.597 37.1953L55.5833 19.5427Z" fill="#616D77"/>
<path d="M55.6248 2.26733L55.5833 19.5428L38.0137 15.3323L55.6248 2.26733Z" fill="#93A1AD"/>
<path d="M55.5839 19.5432L34.5976 37.1958L20.6785 22.6845L38.0143 15.3328L55.5839 19.5432Z" fill="#798795"/>
<path d="M33.7627 53.9792L43.2168 66.0185L42.5418 83.1545L20.6222 85.6849L14.4338 63.3316L33.7627 53.9792Z" fill="#8E99A3"/>
<path d="M20.6781 22.6843L34.5972 37.1956L33.7619 53.9789L14.4331 63.3313L20.6781 22.6843Z" fill="#93A1AD"/>
<path d="M29.4508 84.6658L20.6221 85.6849L38.5443 94.6602L46.1063 93.8337L29.4508 84.6658Z" fill="#414A4F"/>
<path d="M55.6248 2.26733L38.0137 15.3323L45.742 17.1843L55.6059 10.1425L55.6248 2.26733Z" fill="#748089"/>
<path d="M26.0832 28.3195L20.6781 22.6843L14.4331 63.3313L22.4303 59.4617L26.0832 28.3195Z" fill="#79848C"/>
<path d="M45.7426 17.1848L38.0143 15.3328L20.6785 22.6845L26.0836 28.3197L45.7426 17.1848Z" fill="#5E6A75"/>
<path d="M14.4338 63.3317L20.6222 85.685L29.451 84.6658L22.431 59.4622L14.4338 63.3317Z" fill="#747C82"/>
<path d="M23.1146 33.6463C23.052 33.6462 22.9895 33.6411 22.9278 33.6308C22.6319 33.5816 22.3676 33.4169 22.1931 33.1729C22.0187 32.929 21.9482 32.6257 21.9972 32.3298L22.1104 31.651C22.16 31.3554 22.3249 31.0917 22.5688 30.9176C22.8127 30.7435 23.1157 30.6732 23.4113 30.7223C23.707 30.7714 23.971 30.9357 24.1456 31.1793C24.3202 31.4229 24.391 31.7258 24.3425 32.0215L24.2294 32.7003C24.1855 32.9644 24.0494 33.2043 23.8453 33.3775C23.6412 33.5507 23.3823 33.646 23.1146 33.6463ZM20.4215 49.8692C20.359 49.8692 20.2966 49.864 20.235 49.8537C19.9391 49.8046 19.6748 49.6399 19.5003 49.3959C19.3257 49.152 19.2552 48.8487 19.3043 48.5527L21.3991 35.9331C21.4497 35.6384 21.6149 35.3758 21.8585 35.2025C22.1021 35.0292 22.4044 34.9594 22.6993 35.0084C22.9943 35.0573 23.2578 35.221 23.4325 35.4636C23.6071 35.7063 23.6786 36.0082 23.6313 36.3034L21.5362 48.9232C21.4924 49.1873 21.3563 49.4273 21.1522 49.6005C20.9481 49.7737 20.6892 49.8689 20.4215 49.8692Z" fill="#F4F8FC"/>
</svg>
