<svg aria-hidden="true" style="position: absolute; width: 0; height: 0; overflow: hidden;" version="1.1" xmlns="http://www.w3.org/2000/svg" xmlns:xlink="http://www.w3.org/1999/xlink">
    <defs>
        <symbol id="icon-games" viewBox="0 0 24 24">
            <path d="M1.1474 6.17127L9.31916 2.63957C10.0605 2.32115 10.9209 2.62743 11.2977 3.32502V17.6827C11.2977 18.8057 12.2116 19.7196 13.3346 19.7196H16.876C16.8298 19.7463 16.7812 19.7706 16.7301 19.7925L8.56082 23.3242C7.74857 23.6668 6.85063 23.2831 6.51909 22.5149L0.338009 8.21305C0.000133514 7.42546 0.362291 6.51154 1.1474 6.17127ZM9.22438 4.84171L9.0591 6.20043L10.1626 7.00982L10.3279 5.6511L9.22438 4.84171ZM8.65316 21.1221L8.82088 19.7658L7.7174 18.9564L7.55212 20.3127L8.65316 21.1221ZM10.3789 16.3118L10.8918 12.1409L7.49863 9.65188L6.99065 13.8253L10.3789 16.3118Z" fill="currentColor"/>
            <path d="M13.335 0.549316H22.2383C23.0939 0.549316 23.7891 1.24447 23.7891 2.10004V17.6828C23.7891 18.5383 23.0939 19.2335 22.2383 19.2335H13.335C12.4794 19.2335 11.7842 18.5383 11.7842 17.6828V2.10004C11.7842 1.24447 12.4794 0.549316 13.335 0.549316ZM21.2775 4.64619C21.2775 4.64619 22.2863 4.10713 22.2863 3.32432C22.2863 3.02408 22.042 2.77888 21.7409 2.77888C21.5444 2.77888 21.3731 2.88257 21.2775 3.03763C21.182 2.88257 21.0098 2.77888 20.815 2.77888C20.513 2.77888 20.2696 3.02408 20.2696 3.32432C20.2696 4.10713 21.2775 4.64619 21.2775 4.64619ZM17.7855 12.2339C17.7855 12.2339 20.3168 10.8814 20.3168 8.91711C20.3168 8.16383 19.7038 7.5485 18.9482 7.5485C18.4551 7.5485 18.0253 7.80866 17.7855 8.19772C17.5458 7.80866 17.1137 7.5485 16.6251 7.5485C15.8672 7.5485 15.2565 8.16379 15.2565 8.91711C15.2565 10.8813 17.7855 12.2339 17.7855 12.2339ZM14.2948 17.0035C14.2948 17.0035 15.3036 16.4645 15.3036 15.6816C15.3036 15.3815 15.0592 15.1362 14.7581 15.1362C14.5616 15.1362 14.3903 15.2399 14.2948 15.395C14.1992 15.2399 14.027 15.1362 13.8322 15.1362C13.5302 15.1362 13.2868 15.3814 13.2868 15.6816C13.2869 16.4645 14.2948 17.0035 14.2948 17.0035Z" fill="currentColor"/>
        </symbol>
        <symbol id="icon-favorite-stroke" viewBox="0 0 24 24">
            <path fill-rule="evenodd" clip-rule="evenodd" d="M18.6556 22.8958C18.4658 22.8957 18.2789 22.8494 18.1111 22.7608L11.9761 19.5358L5.8411 22.7608C5.64797 22.8617 5.43052 22.9066 5.21325 22.8905C4.99598 22.8744 4.78751 22.798 4.61133 22.6698C4.43514 22.5417 4.29825 22.3669 4.21605 22.1651C4.13385 21.9633 4.10963 21.7426 4.1461 21.5278L5.3161 14.6968L0.352598 9.85934C0.196439 9.70686 0.0860451 9.51373 0.0338926 9.3018C-0.0182599 9.08986 -0.0100914 8.86757 0.0574748 8.66003C0.125041 8.45249 0.249311 8.26799 0.41624 8.12738C0.583168 7.98677 0.786099 7.89566 1.0021 7.86434L7.8601 6.86684L10.9276 0.652338C11.0242 0.45653 11.1737 0.291662 11.3591 0.176379C11.5445 0.0610965 11.7585 0 11.9768 0C12.1952 0 12.4092 0.0610965 12.5946 0.176379C12.78 0.291662 12.9295 0.45653 13.0261 0.652338L16.0936 6.86684L22.9516 7.86434C23.1675 7.89589 23.3702 7.98717 23.537 8.12788C23.7037 8.26858 23.8278 8.4531 23.8952 8.6606C23.9626 8.86809 23.9706 9.0903 23.9184 9.30213C23.8661 9.51395 23.7557 9.70695 23.5996 9.85934L18.6376 14.6968L19.8076 21.5278C19.8364 21.6957 19.8282 21.8678 19.7837 22.0322C19.7391 22.1966 19.6591 22.3492 19.5494 22.4795C19.4397 22.6098 19.3029 22.7145 19.1485 22.7864C18.9941 22.8583 18.8259 22.8957 18.6556 22.8958ZM11.9761 17.0458C12.1636 17.0458 12.3511 17.0908 12.5206 17.1793L17.1031 19.5883L16.2271 14.4868C16.1953 14.2999 16.2093 14.108 16.2681 13.9277C16.3269 13.7474 16.4287 13.5841 16.5646 13.4518L20.2696 9.83684L15.1486 9.09434C14.9609 9.06695 14.7827 8.99433 14.6293 8.88275C14.4759 8.77117 14.352 8.62398 14.2681 8.45384L11.9761 3.81284L9.6856 8.45384C9.60174 8.62398 9.47778 8.77117 9.3244 8.88275C9.17101 8.99433 8.99279 9.06695 8.8051 9.09434L3.6826 9.83834L7.3891 13.4503C7.52502 13.5826 7.62676 13.7459 7.68556 13.9262C7.74435 14.1065 7.75844 14.2984 7.7266 14.4853L6.8506 19.5883L11.4331 17.1793C11.6005 17.0911 11.7868 17.0448 11.9761 17.0443V17.0458Z" fill="currentColor"/>
        </symbol>
        <symbol id="icon-new-games" viewBox="0 0 20 24">
            <path fill-rule="evenodd" clip-rule="evenodd" d="M19.4177 16.1328C19.4177 12.995 17.6011 9.13986 16.378 6.90005L15.2891 5.05763C15.3911 5.76552 15.3507 6.48665 15.1704 7.17874C14.9336 7.78601 14.5713 8.33646 14.1072 8.79408C14.0544 7.19671 13.5827 5.64126 12.7396 4.2835C12.5796 4.0461 12.1719 3.39945 11.7178 2.82298C10.8219 1.68132 9.71447 0.722868 8.4561 0C8.89654 0.910795 9.16094 1.8966 9.23539 2.90556C9.19926 4.09255 8.82252 4.80475 7.04203 7.12713C5.26154 9.44951 5.70021 12.9124 5.70021 12.9124C5.55798 12.4286 5.3642 11.9615 5.12219 11.519C4.65772 10.6159 2.76369 9.55273 2.64499 9.4908C2.6966 9.61982 3.54814 11.7409 2.38695 13.1808C0.910944 15.0232 -0.270891 16.396 0.0542427 19.1519C0.46711 22.6561 4.45645 23.6367 6.28855 23.8999H6.29371C6.84592 23.9825 7.19685 23.9979 7.19685 23.9979C5.99076 23.5851 5.30334 22.0678 5.20838 21.2333C5.13461 20.7579 5.16468 20.2722 5.29653 19.8095C5.42838 19.3469 5.65889 18.9183 5.97219 18.5532C6.21784 18.2168 7.12563 17.3146 7.43116 17.005C8.23226 16.321 8.7903 15.396 9.02173 14.3683C9.14639 13.6498 9.1688 12.9173 9.0883 12.1925C9.93767 12.7313 10.6573 13.4515 11.1955 14.3012C11.6152 14.9671 11.8482 15.7336 11.87 16.5204C12.0985 16.294 12.277 16.0222 12.3938 15.7225C12.4827 15.3794 12.5018 15.0219 12.4501 14.6713C12.4501 14.6713 14.5433 17.5613 14.4845 20.1294C14.4107 23.3477 12.4201 23.9964 12.4171 24C12.4382 23.9948 19.4177 23.1247 19.4177 16.1328Z" fill="currentColor"/>
        </symbol>
        <symbol id="icon-all-games" viewBox="0 0 24 24">
            <path d="M6.16667 2H2.83333C2.61232 2 2.40036 2.0878 2.24408 2.24408C2.0878 2.40036 2 2.61232 2 2.83333V6.16667C2 6.38768 2.0878 6.59964 2.24408 6.75592C2.40036 6.9122 2.61232 7 2.83333 7H6.16667C6.38768 7 6.59964 6.9122 6.75592 6.75592C6.9122 6.59964 7 6.38768 7 6.16667V2.83333C7 2.61232 6.9122 2.40036 6.75592 2.24408C6.59964 2.0878 6.38768 2 6.16667 2ZM6.16667 9.5H2.83333C2.61232 9.5 2.40036 9.5878 2.24408 9.74408C2.0878 9.90036 2 10.1123 2 10.3333V13.6667C2 13.8877 2.0878 14.0996 2.24408 14.2559C2.40036 14.4122 2.61232 14.5 2.83333 14.5H6.16667C6.38768 14.5 6.59964 14.4122 6.75592 14.2559C6.9122 14.0996 7 13.8877 7 13.6667V10.3333C7 10.1123 6.9122 9.90036 6.75592 9.74408C6.59964 9.5878 6.38768 9.5 6.16667 9.5ZM6.16667 17H2.83333C2.61232 17 2.40036 17.0878 2.24408 17.2441C2.0878 17.4004 2 17.6123 2 17.8333V21.1667C2 21.3877 2.0878 21.5996 2.24408 21.7559C2.40036 21.9122 2.61232 22 2.83333 22H6.16667C6.38768 22 6.59964 21.9122 6.75592 21.7559C6.9122 21.5996 7 21.3877 7 21.1667V17.8333C7 17.6123 6.9122 17.4004 6.75592 17.2441C6.59964 17.0878 6.38768 17 6.16667 17ZM13.6667 2H10.3333C10.1123 2 9.90036 2.0878 9.74408 2.24408C9.5878 2.40036 9.5 2.61232 9.5 2.83333V6.16667C9.5 6.38768 9.5878 6.59964 9.74408 6.75592C9.90036 6.9122 10.1123 7 10.3333 7H13.6667C13.8877 7 14.0996 6.9122 14.2559 6.75592C14.4122 6.59964 14.5 6.38768 14.5 6.16667V2.83333C14.5 2.61232 14.4122 2.40036 14.2559 2.24408C14.0996 2.0878 13.8877 2 13.6667 2ZM13.6667 9.5H10.3333C10.1123 9.5 9.90036 9.5878 9.74408 9.74408C9.5878 9.90036 9.5 10.1123 9.5 10.3333V13.6667C9.5 13.8877 9.5878 14.0996 9.74408 14.2559C9.90036 14.4122 10.1123 14.5 10.3333 14.5H13.6667C13.8877 14.5 14.0996 14.4122 14.2559 14.2559C14.4122 14.0996 14.5 13.8877 14.5 13.6667V10.3333C14.5 10.1123 14.4122 9.90036 14.2559 9.74408C14.0996 9.5878 13.8877 9.5 13.6667 9.5ZM13.6667 17H10.3333C10.1123 17 9.90036 17.0878 9.74408 17.2441C9.5878 17.4004 9.5 17.6123 9.5 17.8333V21.1667C9.5 21.3877 9.5878 21.5996 9.74408 21.7559C9.90036 21.9122 10.1123 22 10.3333 22H13.6667C13.8877 22 14.0996 21.9122 14.2559 21.7559C14.4122 21.5996 14.5 21.3877 14.5 21.1667V17.8333C14.5 17.6123 14.4122 17.4004 14.2559 17.2441C14.0996 17.0878 13.8877 17 13.6667 17ZM21.1667 2H17.8333C17.6123 2 17.4004 2.0878 17.2441 2.24408C17.0878 2.40036 17 2.61232 17 2.83333V6.16667C17 6.38768 17.0878 6.59964 17.2441 6.75592C17.4004 6.9122 17.6123 7 17.8333 7H21.1667C21.3877 7 21.5996 6.9122 21.7559 6.75592C21.9122 6.59964 22 6.38768 22 6.16667V2.83333C22 2.61232 21.9122 2.40036 21.7559 2.24408C21.5996 2.0878 21.3877 2 21.1667 2ZM21.1667 9.5H17.8333C17.6123 9.5 17.4004 9.5878 17.2441 9.74408C17.0878 9.90036 17 10.1123 17 10.3333V13.6667C17 13.8877 17.0878 14.0996 17.2441 14.2559C17.4004 14.4122 17.6123 14.5 17.8333 14.5H21.1667C21.3877 14.5 21.5996 14.4122 21.7559 14.2559C21.9122 14.0996 22 13.8877 22 13.6667V10.3333C22 10.1123 21.9122 9.90036 21.7559 9.74408C21.5996 9.5878 21.3877 9.5 21.1667 9.5ZM21.1667 17H17.8333C17.6123 17 17.4004 17.0878 17.2441 17.2441C17.0878 17.4004 17 17.6123 17 17.8333V21.1667C17 21.3877 17.0878 21.5996 17.2441 21.7559C17.4004 21.9122 17.6123 22 17.8333 22H21.1667C21.3877 22 21.5996 21.9122 21.7559 21.7559C21.9122 21.5996 22 21.3877 22 21.1667V17.8333C22 17.6123 21.9122 17.4004 21.7559 17.2441C21.5996 17.0878 21.3877 17 21.1667 17Z" fill="currentColor"/>
        </symbol>
        <symbol id="icon-slots" viewBox="0 0 24 18">
            <path d="M12.2667 4.73541H4.80005V0.46875H18.6667V4.73541C14.4 7.93542 13.4728 12.4469 13.3334 17.5354H8.00006C8.32561 12.6151 9.0007 8.91422 12.2667 4.73541Z" fill="currentColor"/>
            <path d="M24.0002 9.00219L16.5336 7.93555L15.4669 10.6022L18.6669 11.1356C16.5336 13.2689 15.4472 14.8433 14.9336 17.5355H18.6669C19.7696 13.5526 21.0554 11.7632 24.0002 9.00219Z" fill="currentColor"/>
            <path d="M8.53331 6.86865C7.46667 10.602 6.28434 13.0296 6.39998 17.5353H3.2C3.2 15.402 3.2 13.2687 4.26667 10.602L0.533334 11.1354L0 9.00198L8.53331 6.86865Z" fill="currentColor"/>
        </symbol>
        <symbol id="icon-bonus-games" viewBox="0 0 18 24">
            <path d="M1.67027 8.56084C1.45337 8.53504 1.25452 8.42737 1.11437 8.25984C0.974225 8.0923 0.903361 7.87756 0.91627 7.65952C0.92918 7.44148 1.02489 7.2366 1.18383 7.08678C1.34277 6.93695 1.55293 6.8535 1.77136 6.85347H15.4783C15.6967 6.8535 15.9069 6.93695 16.0658 7.08678C16.2248 7.2366 16.3205 7.44148 16.3334 7.65952C16.3463 7.87756 16.2754 8.0923 16.1353 8.25984C15.9951 8.42737 15.7963 8.53504 15.5794 8.56084C15.6616 8.65936 15.7422 8.76216 15.8218 8.87182C16.5569 9.88271 17.1917 11.4085 17.1917 13.7069C17.1917 15.823 17.3904 17.9689 17.052 19.6652C16.783 21.011 16.1945 22.0999 15.0757 22.7989C13.8455 23.5674 11.2394 24 8.62483 24C6.01023 24 3.4042 23.5674 2.174 22.7989C1.05517 22.0999 0.466629 21.011 0.19763 19.6652C-0.14076 17.9689 0.0579906 15.823 0.0579906 13.7069C0.0579906 11.4085 0.692793 9.88271 1.42783 8.87182C1.5075 8.76216 1.58803 8.65936 1.67027 8.56084ZM9.48151 12.0253V12.0167C9.48299 11.7895 9.39415 11.571 9.23453 11.4093C9.07492 11.2476 8.85761 11.1559 8.6304 11.1545C8.40319 11.153 8.1847 11.2418 8.023 11.4014C7.8613 11.561 7.76962 11.7784 7.76815 12.0056C7.23186 12.1384 6.77696 12.4168 6.47027 12.8297C6.21755 13.1698 6.05478 13.6067 6.05478 14.1644C6.05478 15.2687 6.81808 15.8289 7.8778 16.1382C8.2616 16.2496 8.6848 16.3318 9.05317 16.4552C9.16711 16.4937 9.2742 16.5349 9.36758 16.5888C9.42497 16.6222 9.48151 16.6574 9.48151 16.7345C9.48151 17.0754 9.22279 17.2065 8.93838 17.245C8.39596 17.3035 7.84984 17.1751 7.39035 16.881C7.29715 16.8158 7.19192 16.7699 7.08078 16.7459C6.96965 16.7218 6.85484 16.7201 6.74306 16.7409C6.63127 16.7617 6.52473 16.8045 6.42967 16.8669C6.3346 16.9293 6.2529 17.0099 6.18933 17.1042C6.12576 17.1985 6.08159 17.3045 6.05941 17.416C6.03722 17.5275 6.03745 17.6423 6.06009 17.7537C6.08273 17.8652 6.12733 17.971 6.19128 18.065C6.25523 18.159 6.33726 18.2394 6.43258 18.3013C6.80609 18.5532 7.27555 18.7451 7.76815 18.8565V18.8702C7.76644 19.0974 7.85507 19.316 8.01452 19.4778C8.17397 19.6397 8.3912 19.7316 8.61841 19.7333C8.84561 19.735 9.06419 19.6464 9.22605 19.4869C9.38792 19.3275 9.47981 19.1102 9.48151 18.883C9.57107 18.8621 9.65944 18.8364 9.74623 18.8059C10.5875 18.5087 11.1949 17.8601 11.1949 16.7345C11.1949 15.6302 10.4316 15.0699 9.37186 14.7607C8.98806 14.6484 8.56486 14.5662 8.19649 14.4428C8.08761 14.4089 7.98231 14.3644 7.88209 14.31C7.82469 14.2766 7.76815 14.2407 7.76815 14.1644C7.76815 13.8192 8.02772 13.683 8.31471 13.6427C8.85292 13.5808 9.3957 13.711 9.84732 14.0102C10.0336 14.1404 10.264 14.1912 10.4878 14.1516C10.7116 14.1119 10.9105 13.9849 11.0407 13.7986C11.1709 13.6123 11.2217 13.3819 11.182 13.1581C11.1423 12.9343 11.0154 12.7354 10.8291 12.6052C10.4201 12.3294 9.963 12.1327 9.48151 12.0253ZM2.12945 5.1401C1.56747 3.99129 1.0012 2.83305 0.760472 2.33789C0.632537 2.0759 0.606852 1.77563 0.688434 1.49572C0.770015 1.21581 0.953004 0.976359 1.20166 0.82413C1.68312 0.549991 2.89875 0 5.19809 0C6.19956 0 7.03654 0.341817 7.86067 0.774442C8.80131 1.26789 9.7171 1.92069 11.0535 1.92069C12.4079 1.92069 13.962 1.46322 14.8315 1.16852C15.0512 1.09368 15.2881 1.08551 15.5125 1.14504C15.7368 1.20458 15.9385 1.32915 16.0922 1.50307C16.2459 1.677 16.3447 1.89251 16.3761 2.12246C16.4076 2.35242 16.3703 2.58654 16.269 2.79536L15.1211 5.1401H2.12945Z" fill="currentColor"/>
        </symbol>
        <symbol id="icon-live-games" viewBox="0 0 24 24">
            <path d="M12.8203 3.75C12.0449 3.75 11.4141 3.11916 11.4141 2.34375C11.4141 1.56834 12.0449 0.9375 12.8203 0.9375C13.5957 0.9375 14.2266 1.56834 14.2266 2.34375C14.2266 3.11916 13.5957 3.75 12.8203 3.75ZM18.815 4.7925C18.713 4.7295 18.5967 4.6936 18.4769 4.68821C18.3572 4.68282 18.2381 4.70812 18.1309 4.7617L17.0391 5.30761V9.22359L18.1309 9.7695C18.2285 9.81833 18.3361 9.84373 18.4453 9.8437C18.5376 9.84372 18.6291 9.82555 18.7144 9.79022C18.7997 9.75489 18.8772 9.7031 18.9425 9.63781C19.0078 9.57251 19.0596 9.49499 19.0949 9.40968C19.1303 9.32436 19.1484 9.23292 19.1484 9.14058V5.39058C19.1484 5.27073 19.1178 5.15287 19.0594 5.04819C19.0011 4.94352 18.9169 4.8555 18.815 4.7925ZM15.0103 4.10559C14.4944 4.74567 13.7046 5.15625 12.8203 5.15625C11.9108 5.15625 11.1011 4.72186 10.5866 4.05005C9.98508 4.72795 9.10823 5.15625 8.13281 5.15625C7.13119 5.15625 6.23353 4.70461 5.63114 3.99487C5.16375 4.28428 4.85156 4.80159 4.85156 5.39062V9.14062C4.85156 10.0453 5.58755 10.7812 6.49219 10.7812H13.9922C14.8968 10.7812 15.6328 10.0453 15.6328 9.14062V5.39062C15.6328 4.87045 15.3892 4.40639 15.0103 4.10559ZM8.13281 3.75C7.09894 3.75 6.25781 2.90887 6.25781 1.875C6.25781 0.841125 7.09894 0 8.13281 0C9.16669 0 10.0078 0.841125 10.0078 1.875C10.0078 2.90887 9.16669 3.75 8.13281 3.75ZM20.9062 13.6875H3.09375C1.93064 13.6875 0.984375 14.6338 0.984375 15.7969V21.8906C0.984375 23.0537 1.93064 24 3.09375 24H20.9062C22.0694 24 23.0156 23.0537 23.0156 21.8906V15.7969C23.0156 14.6338 22.0694 13.6875 20.9062 13.6875ZM6.30319 21.8867C5.76591 21.8897 5.39944 21.891 5.14692 21.891C4.62323 21.891 4.58958 21.8852 4.53895 21.8766C4.37547 21.8485 4.22717 21.7636 4.12026 21.6368C4.01334 21.51 3.9547 21.3494 3.9547 21.1836V16.5C3.9547 16.1117 4.26952 15.7969 4.65783 15.7969C5.04614 15.7969 5.36095 16.1117 5.36095 16.5V20.4841C5.64216 20.4835 5.97727 20.4822 6.29531 20.4804H6.29934C6.68583 20.4804 7.00022 20.7926 7.00238 21.1796C7.00448 21.568 6.6915 21.8845 6.30319 21.8867ZM9.58073 21.1875C9.58073 21.5758 9.26592 21.8906 8.87761 21.8906C8.4893 21.8906 8.17448 21.5758 8.17448 21.1875V16.5C8.17448 16.1117 8.4893 15.7969 8.87761 15.7969C9.26592 15.7969 9.58073 16.1117 9.58073 16.5V21.1875ZM15.4561 16.7303L13.9257 21.3375L13.924 21.3423C13.8698 21.5013 13.7675 21.6395 13.6312 21.7378C13.4949 21.836 13.3315 21.8895 13.1635 21.8907H13.1582C12.9911 21.8906 12.8282 21.8388 12.6917 21.7424C12.5552 21.646 12.4519 21.5098 12.3959 21.3524L12.3943 21.3477L10.7916 16.7306C10.6643 16.3637 10.8585 15.9631 11.2253 15.8358C11.592 15.7083 11.9928 15.9025 12.1201 16.2694L13.1459 19.2244L14.1216 16.287C14.244 15.9185 14.6419 15.7188 15.0105 15.8414C15.379 15.9637 15.5785 16.3618 15.4561 16.7303ZM19.1966 18.1406C19.5849 18.1406 19.8997 18.4554 19.8997 18.8438C19.8997 19.2321 19.5849 19.5469 19.1966 19.5469H18.0702V20.4844H19.3422C19.7305 20.4844 20.0453 20.7992 20.0453 21.1875C20.0453 21.5758 19.7305 21.8906 19.3422 21.8906H17.3671C16.9788 21.8906 16.664 21.5758 16.664 21.1875V16.5C16.664 16.1117 16.9788 15.7969 17.3671 15.7969H19.3422C19.7305 15.7969 20.0453 16.1117 20.0453 16.5C20.0453 16.8883 19.7305 17.2031 19.3422 17.2031H18.0702V18.1406H19.1966Z" fill="currentColor"/>
        </symbol>
        <symbol id="icon-instant-games" viewBox="0 0 24 24">
            <path d="M17.9601 11.0273C17.9275 10.9593 17.8763 10.9019 17.8125 10.8617C17.7486 10.8215 17.6748 10.8002 17.5993 10.8001H14.1162L16.7862 0.500635C16.8092 0.412167 16.8012 0.318482 16.7635 0.235207C16.7258 0.151932 16.6607 0.0841034 16.579 0.0430372C16.4974 0.00170536 16.404 -0.0103204 16.3146 0.00897495C16.2252 0.0282703 16.1451 0.0777144 16.0878 0.149022L6.08785 12.5489C6.04044 12.6077 6.01062 12.6787 6.00184 12.7538C5.99307 12.8288 6.00569 12.9047 6.03826 12.9729C6.0709 13.0409 6.12208 13.0983 6.18591 13.1385C6.24974 13.1787 6.32363 13.2001 6.39906 13.2001H9.88223L7.21225 23.4996C7.18923 23.5881 7.19724 23.6818 7.23495 23.765C7.27265 23.8483 7.33777 23.9161 7.41944 23.9572C7.50108 23.9984 7.59438 24.0104 7.68377 23.9911C7.77316 23.9718 7.85322 23.9224 7.9106 23.8512L17.9105 11.4513C17.9579 11.3925 17.9878 11.3215 17.9965 11.2465C18.0053 11.1715 17.9927 11.0955 17.9601 11.0273ZM7.16102 6.22937C7.1287 6.1608 7.07753 6.10283 7.01351 6.06225C6.94948 6.02166 6.87523 6.00012 6.79942 6.00015H4.92024L6.38626 0.503447C6.40978 0.41522 6.40241 0.321602 6.36538 0.238141C6.32835 0.15468 6.26388 0.0863968 6.18268 0.044631C6.01548 -0.0417603 5.81068 0.00103687 5.6911 0.145835L0.0910885 6.94576C0.0429286 7.00428 0.0123961 7.07529 0.00305092 7.1505C-0.00629428 7.22571 0.00593288 7.30202 0.0383068 7.37055C0.0706305 7.43912 0.121792 7.49708 0.185819 7.53767C0.249845 7.57826 0.324096 7.59979 0.399903 7.59977H2.27909L0.81311 13.0965C0.797324 13.1558 0.795363 13.2178 0.807376 13.278C0.819389 13.3381 0.845056 13.3946 0.882395 13.4433C0.919735 13.4919 0.967749 13.5313 1.02273 13.5584C1.07771 13.5855 1.13819 13.5997 1.1995 13.5997C1.25854 13.5998 1.31687 13.5868 1.37027 13.5616C1.42367 13.5364 1.47082 13.4997 1.50832 13.4541L7.10824 6.65415C7.15641 6.59564 7.18695 6.52463 7.19629 6.44942C7.20564 6.37421 7.1934 6.29789 7.16102 6.22937ZM23.9609 16.6293C23.9285 16.5607 23.8774 16.5027 23.8134 16.4622C23.7493 16.4216 23.6751 16.4 23.5993 16.4001H21.7201L23.1861 10.9033C23.2096 10.8151 23.2022 10.7215 23.1652 10.638C23.1281 10.5545 23.0637 10.4863 22.9825 10.4445C22.9013 10.4028 22.8083 10.3901 22.7189 10.4085C22.6295 10.4269 22.549 10.4753 22.4909 10.5457L16.8909 17.3457C16.8428 17.4042 16.8122 17.4752 16.8029 17.5504C16.7936 17.6256 16.8058 17.7019 16.8382 17.7705C16.8705 17.839 16.9216 17.897 16.9857 17.9376C17.0497 17.9782 17.1239 17.9997 17.1998 17.9997H19.0789L17.613 23.4964C17.5972 23.5557 17.5952 23.6177 17.6072 23.6779C17.6192 23.738 17.6449 23.7945 17.6822 23.8432C17.7196 23.8918 17.7676 23.9312 17.8226 23.9583C17.8776 23.9855 17.938 23.9996 17.9994 23.9996C18.0584 23.9997 18.1167 23.9867 18.1701 23.9615C18.2235 23.9364 18.2707 23.8996 18.3082 23.854L23.9081 17.0541C23.9563 16.9956 23.9868 16.9246 23.9961 16.8493C24.0055 16.7741 23.9932 16.6978 23.9609 16.6293Z" fill="currentColor"/>
        </symbol>
        <symbol id="icon-roulette-games" viewBox="0 0 24 24">
            <path d="M2.61422 22.402C2.72774 22.8587 2.99092 23.2641 3.36177 23.5538C3.73261 23.8434 4.18977 24.0005 4.66031 24H19.3397C19.8102 24.0005 20.2674 23.8434 20.6382 23.5538C21.0091 23.2641 21.2723 22.8587 21.3858 22.402L22.0411 19.7812H1.95891L2.61422 22.402ZM0 14.1562H24V18.375H0V14.1562ZM6.375 8.4375C7.29164 8.4375 8.07319 7.84959 8.36344 7.03125H10.7491L10.1189 12.75H13.8811L13.2509 7.03125H15.6366C15.9269 7.84959 16.7084 8.4375 17.625 8.4375C18.7882 8.4375 19.7344 7.49123 19.7344 6.32812C19.7344 5.16502 18.7882 4.21875 17.625 4.21875C16.7084 4.21875 15.9269 4.80666 15.6366 5.625H13.0959L12.9178 4.00833C13.6224 3.66642 14.1094 2.94375 14.1094 2.10938C14.1094 0.946266 13.1631 0 12 0C10.8369 0 9.89062 0.946266 9.89062 2.10938C9.89062 2.94375 10.3776 3.66642 11.0822 4.00833L10.9041 5.625H8.36344C8.07319 4.80666 7.29164 4.21875 6.375 4.21875C5.21189 4.21875 4.26562 5.16502 4.26562 6.32812C4.26562 7.49123 5.21189 8.4375 6.375 8.4375Z" fill="currentColor"/>
        </symbol>
        <symbol id="icon-card-games" viewBox="0 0 24 21">
            <path d="M22.2034 1.73292L19.7442 1.38696C19.7981 1.6165 19.8255 1.85144 19.8261 2.08722V17.2194C19.8253 18.0495 19.4952 18.8453 18.9082 19.4323C18.3213 20.0192 17.5254 20.3494 16.6953 20.3502H15.9502L19.5167 20.8516C19.7882 20.8898 20.0645 20.8741 20.3299 20.8055C20.5953 20.7368 20.8445 20.6166 21.0635 20.4516C21.2824 20.2866 21.4667 20.0801 21.6058 19.8439C21.7449 19.6077 21.8361 19.3464 21.8742 19.0749L23.9802 4.08988C24.0571 3.54172 23.9131 2.98546 23.5799 2.54345C23.2467 2.10144 22.7516 1.80988 22.2034 1.73292Z" fill="currentColor"/>
            <path d="M16.6949 0H13.2547C13.5853 0.244781 13.8642 0.552457 14.0756 0.905358C14.2869 1.25826 14.4264 1.64943 14.4861 2.05641L16.5906 17.0414C16.7047 17.8407 16.5035 18.653 16.0296 19.3066H16.6949C17.2485 19.3066 17.7794 19.0867 18.1708 18.6952C18.5622 18.3038 18.7821 17.7729 18.7821 17.2194V2.0872C18.7821 1.53364 18.5622 1.00275 18.1708 0.611326C17.7794 0.2199 17.2485 0 16.6949 0ZM15.5584 17.187L13.4525 2.20199C13.3749 1.65432 13.0831 1.15984 12.6411 0.827186C12.1992 0.494533 11.6433 0.350912 11.0955 0.427875L1.79443 1.73289C1.24675 1.81049 0.752274 2.1023 0.419621 2.54424C0.086968 2.98618 -0.0566525 3.5421 0.0203103 4.08986L2.12368 19.0749C2.16179 19.3464 2.253 19.6077 2.3921 19.8439C2.53121 20.0801 2.71548 20.2866 2.9344 20.4516C3.15332 20.6166 3.4026 20.7368 3.66799 20.8054C3.93339 20.8741 4.20971 20.8898 4.48117 20.8516L13.7822 19.544C14.3303 19.4669 14.8253 19.1753 15.1584 18.7333C15.4915 18.2913 15.6354 17.7351 15.5584 17.187ZM4.14878 5.56186C4.09226 5.60067 4.02865 5.62797 3.96157 5.64219C3.89449 5.6564 3.82527 5.65726 3.75786 5.64471C3.69046 5.63216 3.62618 5.60645 3.56872 5.56904C3.51125 5.53163 3.46172 5.48327 3.42296 5.42671L3.02379 4.84595L2.79889 5.51594C2.77707 5.58104 2.74263 5.6412 2.69756 5.69299C2.65248 5.74478 2.59765 5.78718 2.53618 5.81778C2.47472 5.84838 2.40783 5.86657 2.33934 5.87132C2.27084 5.87607 2.20209 5.86728 2.13699 5.84545C2.07189 5.82363 2.01173 5.7892 1.95994 5.74412C1.90815 5.69905 1.86574 5.64421 1.83515 5.58275C1.80455 5.52128 1.78635 5.4544 1.78161 5.3859C1.77686 5.31741 1.78565 5.24865 1.80747 5.18355L2.36475 3.52475C2.40108 3.43792 2.45937 3.36202 2.53389 3.30452C2.60842 3.24702 2.69662 3.2099 2.78983 3.19679C2.88304 3.18369 2.97806 3.19505 3.06555 3.22977C3.15304 3.26449 3.23 3.32137 3.28886 3.39482L4.28028 4.83603C4.35904 4.94974 4.38942 5.09006 4.36477 5.22616C4.34011 5.36226 4.26243 5.48301 4.14878 5.56186ZM10.4245 10.7574L8.84498 12.8535C8.67836 13.0743 8.43088 13.22 8.15691 13.2585C7.88294 13.2969 7.60491 13.225 7.38394 13.0585L5.28735 11.4796C4.89894 11.1869 4.64269 10.7518 4.57498 10.2702C4.50727 9.78857 4.63362 9.29976 4.92626 8.91128C5.21916 8.52292 5.65431 8.26677 6.13602 8.19915C6.61774 8.13154 7.10658 8.258 7.49508 8.55072C7.6385 8.35435 7.81953 8.18846 8.02764 8.0627C8.23576 7.93694 8.46681 7.85381 8.70734 7.81816C8.94788 7.78251 9.1931 7.79505 9.42875 7.85504C9.6644 7.91503 9.88576 8.02129 10.08 8.16762C10.2742 8.31394 10.4373 8.49743 10.56 8.7074C10.6826 8.91737 10.7623 9.14963 10.7944 9.39067C10.8264 9.63171 10.8102 9.87672 10.7467 10.1115C10.6832 10.3462 10.5737 10.5659 10.4245 10.7579V10.7574ZM13.7687 16.0933L13.2114 17.7526C13.1806 17.8446 13.1248 17.9261 13.0502 17.9881C12.9756 18.0501 12.8853 18.09 12.7893 18.1035C12.6932 18.117 12.5954 18.1035 12.5066 18.0645C12.4178 18.0254 12.3417 17.9625 12.2868 17.8826L11.2953 16.4408C11.2169 16.3268 11.1869 16.1863 11.2121 16.0502C11.2372 15.914 11.3154 15.7935 11.4294 15.715C11.5435 15.6366 11.684 15.6066 11.8201 15.6318C11.9562 15.6569 12.0768 15.7351 12.1553 15.8491L12.556 16.4309L12.7809 15.7609C12.825 15.6295 12.9195 15.5209 13.0436 15.4591C13.1051 15.4285 13.172 15.4103 13.2405 15.4056C13.309 15.4008 13.3777 15.4096 13.4428 15.4314C13.5079 15.4533 13.5681 15.4877 13.6199 15.5328C13.6716 15.5778 13.7141 15.6327 13.7446 15.6941C13.7752 15.7556 13.7934 15.8225 13.7982 15.891C13.8029 15.9595 13.7941 16.0282 13.7723 16.0933H13.7687Z" fill="currentColor"/>
        </symbol>
        <symbol id="icon-tournaments" viewBox="0 0 20 24">
            <path d="M19.9206 1.43573C19.8319 0.926552 19.3899 0.554982 18.8731 0.554982H16.5678C16.3875 0.224393 16.0367 0 15.6336 0H4.36675C3.96369 0 3.6129 0.224393 3.43263 0.555021H1.12756C0.610776 0.555021 0.168814 0.92667 0.0800295 1.43569C0.0674412 1.508 -0.222364 3.22793 0.331913 5.11453C0.732385 6.47775 1.62749 8.12101 3.60953 9.14568C3.28373 9.95878 2.8842 10.855 2.39443 11.8441C2.34498 11.9439 2.32671 12.0563 2.34201 12.1667C2.3573 12.2771 2.40545 12.3803 2.48019 12.4629C3.98483 14.126 5.69173 15.2469 7.50782 15.7809C7.50407 15.821 7.50204 15.8612 7.50174 15.9014V15.9718C7.50174 16.5097 7.80366 16.9767 8.24708 17.2137C8.31472 18.0773 8.11782 19.4906 7.65562 20.6106H5.64515C5.19867 20.6106 4.83679 20.9725 4.83679 21.4189V23.1916C4.83679 23.6381 5.19863 24 5.64515 24H14.3553C14.8018 24 15.1637 23.6381 15.1637 23.1916V21.4189C15.1637 20.9725 14.8018 20.6106 14.3553 20.6106H12.3448C11.8825 19.4906 11.6854 18.0774 11.7527 17.2139C12.1963 16.977 12.4984 16.5099 12.4984 15.9718V15.9014C12.4984 15.8608 12.4957 15.8208 12.4923 15.781C14.3084 15.247 16.0153 14.126 17.5199 12.4629C17.5947 12.3803 17.6428 12.2771 17.6581 12.1667C17.6734 12.0563 17.6551 11.9439 17.6057 11.8441C17.1164 10.856 16.7162 9.96003 16.3893 9.14638C18.3723 8.12179 19.2677 6.47814 19.6684 5.11457C20.2229 3.22801 19.9333 1.50804 19.9206 1.43573ZM2.39114 4.57762C2.17666 3.87805 2.12086 3.19519 2.1196 2.68166H3.43279C3.6131 3.01228 3.96377 3.23652 4.36683 3.23652C4.55306 3.23652 4.72797 3.18836 4.8802 3.10425C4.88126 3.11346 4.88248 3.12236 4.88354 3.13166C4.97405 3.95213 4.90032 5.2188 4.33122 7.10685C3.38192 6.53488 2.73196 5.68947 2.39114 4.57762ZM6.69754 13.2087C5.87091 13.4231 4.9833 12.6827 4.5271 12.0776C4.41538 11.9295 4.31683 11.7811 4.36534 11.586C4.39377 11.4714 4.47581 11.3765 4.53997 11.2798C4.81993 10.8573 5.05197 10.3997 5.25605 9.93635C5.68393 8.96517 6.00813 7.95167 6.24864 6.91834C6.43013 6.13861 6.5468 5.35041 6.69754 4.56472C6.9066 5.86257 6.85421 7.20508 6.5966 8.49156C6.49727 8.98783 6.36232 9.47572 6.19495 9.95313C5.98664 10.5474 5.72871 11.1717 5.37303 11.706C5.74248 12.2651 6.16601 12.8044 6.69754 13.2087ZM17.6093 4.57758C17.268 5.69045 16.6171 6.53657 15.6663 7.10861C15.0991 5.23268 15.0185 3.95629 15.1207 3.10456C15.2777 3.19136 15.4542 3.23679 15.6336 3.23656C16.0367 3.23656 16.3874 3.01225 16.5677 2.6817H17.881C17.8797 3.19562 17.8239 3.87825 17.6093 4.57758Z" fill="currentColor"/>
        </symbol>
        <symbol id="icon-bonus" viewBox="0 0 24 24">
            <path d="M9.5 12V22H4.25C3.42275 22 2.75 21.3272 2.75 20.5V11.9495C2.91454 11.9831 3.08206 12 3.25 12H9.5ZM10.5 12V22H13.5V12H10.5ZM20.75 12H14.5V22H19.75C20.5772 22 21.25 21.3272 21.25 20.5V11.9495C21.0855 11.9831 20.9179 12 20.75 12ZM22.25 7.5V9.5C22.25 10.3272 21.5772 11 20.75 11H3.25C2.42275 11 1.75 10.3272 1.75 9.5V7.5C1.75 6.67275 2.42275 6 3.25 6H8.00475C7.67752 5.56837 7.50028 5.04165 7.5 4.5C7.5 3.1215 8.6215 2 10 2C10.8182 2 11.5437 2.397 12 3.0065C12.4565 2.397 13.1818 2 14 2C15.3785 2 16.5 3.1215 16.5 4.5C16.4997 5.04165 16.3225 5.56837 15.9952 6H20.75C21.5772 6 22.25 6.67275 22.25 7.5ZM12.5 4.5V6H14C14.8272 6 15.5 5.32725 15.5 4.5C15.5 3.67275 14.8272 3 14 3C13.1728 3 12.5 3.67275 12.5 4.5ZM10 6H11.5V4.5C11.5 3.67275 10.8272 3 10 3C9.17275 3 8.5 3.67275 8.5 4.5C8.5 5.32725 9.17275 6 10 6Z" fill="currentColor"/>
        </symbol>
        <symbol id="icon-cashback" viewBox="0 0 24 24">
            <path d="M2.4375 24H0.703125C0.314812 24 0 23.6852 0 23.2969V14.8594C0 14.4711 0.314812 14.1562 0.703125 14.1562H2.4375C2.82581 14.1562 3.14062 14.4711 3.14062 14.8594V23.2969C3.14062 23.6852 2.82581 24 2.4375 24ZM23.1212 16.3506C22.855 16.2041 22.5544 16.1317 22.2508 16.141C21.9471 16.1504 21.6515 16.241 21.3949 16.4036L18.8224 18.0329C18.7446 18.6966 18.4524 19.3125 17.9763 19.8C17.3977 20.3925 16.6237 20.7188 15.7969 20.7188H12.3011C11.9225 20.7188 11.5967 20.4278 11.5789 20.0496C11.5599 19.6458 11.8816 19.3125 12.2812 19.3125H15.7969C16.7146 19.3125 17.4589 18.5549 17.437 17.6323C17.4158 16.7367 16.662 16.0312 15.7661 16.0312H11.8125L11.3539 15.6873C10.4405 15.0022 9.30877 14.625 8.16703 14.625C7.20438 14.6251 6.25983 14.8867 5.43431 15.3819L4.54688 15.9144V23.0625H16.3653C17.0487 23.0625 17.7172 22.8633 18.2892 22.4894L23.2317 19.2577C23.468 19.1038 23.6621 18.8932 23.7962 18.6451C23.9304 18.397 24.0005 18.1193 24 17.8373C24 17.2185 23.6632 16.6489 23.1212 16.3506ZM9.9375 0C6.70664 0 4.07812 2.62852 4.07812 5.85938C4.07812 9.09023 6.70664 11.7188 9.9375 11.7188C13.1684 11.7188 15.7969 9.09023 15.7969 5.85938C15.7969 2.62852 13.1684 0 9.9375 0ZM10.6406 8.76895V8.90625C10.6406 9.29456 10.3258 9.60938 9.9375 9.60938C9.54919 9.60938 9.23438 9.29456 9.23438 8.90625V8.76834C8.66616 8.53697 8.22769 8.03353 8.10019 7.40555C8.02294 7.02502 8.26875 6.65386 8.64933 6.57652C9.02981 6.49936 9.40106 6.74513 9.47836 7.12566C9.52238 7.34255 9.71555 7.49995 9.93755 7.49995C10.196 7.49995 10.4063 7.28967 10.4063 7.0312C10.4063 6.77273 10.196 6.56245 9.93755 6.56245C8.90367 6.56245 8.06255 5.72133 8.06255 4.68745C8.06255 3.9022 8.54803 3.22852 9.23442 2.94975V2.8125C9.23442 2.42419 9.54923 2.10938 9.93755 2.10938C10.3259 2.10938 10.6407 2.42419 10.6407 2.8125V2.95041C11.2089 3.18178 11.6474 3.68522 11.7749 4.3132C11.8521 4.69373 11.6062 5.06489 11.2257 5.14223C10.8452 5.21948 10.474 4.97363 10.3967 4.59309C10.3526 4.37616 10.1595 4.21875 9.9375 4.21875C9.67903 4.21875 9.46875 4.42903 9.46875 4.6875C9.46875 4.94597 9.67903 5.15625 9.9375 5.15625C10.9714 5.15625 11.8125 5.99738 11.8125 7.03125C11.8125 7.8165 11.327 8.49019 10.6406 8.76895Z" fill="currentColor"/>
            <path d="M23.9337 9.45969C23.877 9.33867 23.787 9.2363 23.6742 9.16459C23.5615 9.09287 23.4306 9.05479 23.2969 9.05479H22.2735C21.6521 6.60041 20.251 4.37929 18.2864 2.7523C17.3725 1.99546 16.3544 1.38426 15.2712 0.931396C16.4696 2.2274 17.2032 3.95924 17.2032 5.85941C17.2032 6.44385 17.1333 7.01216 17.0025 7.55699C17.3289 8.0249 17.605 8.52726 17.8221 9.05479H17.2032C17.0696 9.05479 16.9387 9.09288 16.8259 9.16459C16.7131 9.2363 16.6231 9.33866 16.5665 9.45969C16.5098 9.58071 16.4888 9.71538 16.5059 9.84793C16.523 9.98047 16.5775 10.1054 16.6631 10.2081L19.7099 13.8643C19.7759 13.9435 19.8585 14.0072 19.9518 14.0509C20.0452 14.0947 20.147 14.1173 20.2501 14.1173C20.3531 14.1173 20.455 14.0947 20.5483 14.0509C20.6416 14.0072 20.7242 13.9435 20.7902 13.8643L23.8371 10.2081C23.9226 10.1054 23.9772 9.98047 23.9943 9.84793C24.0114 9.71539 23.9904 9.58072 23.9337 9.45969Z" fill="currentColor"/>
        </symbol>
        <symbol id="icon-partners" viewBox="0 0 24 18">
            <path d="M16.5 15V17.25C16.5 17.4489 16.421 17.6397 16.2803 17.7803C16.1397 17.921 15.9489 18 15.75 18H8.25C8.05109 18 7.86032 17.921 7.71967 17.7803C7.57902 17.6397 7.5 17.4489 7.5 17.25V15C7.5 12.5182 9.51825 10.5 12 10.5C14.4818 10.5 16.5 12.5182 16.5 15ZM18.75 7.5C17.0925 7.5 15.645 8.4 14.865 9.735C15.8135 10.2486 16.6056 11.0091 17.1574 11.9359C17.7093 12.8627 18.0004 13.9214 18 15H22.5C22.9125 15 23.25 14.6625 23.25 14.25V12C23.25 9.5175 21.2325 7.5 18.75 7.5ZM12 3C10.3455 3 9 4.3455 9 6C9 7.6545 10.3455 9 12 9C13.6545 9 15 7.6545 15 6C15 4.3455 13.6545 3 12 3ZM18.75 0C17.0955 0 15.75 1.3455 15.75 3C15.75 4.6545 17.0955 6 18.75 6C20.4045 6 21.75 4.6545 21.75 3C21.75 1.3455 20.4045 0 18.75 0ZM5.25 0C3.5955 0 2.25 1.3455 2.25 3C2.25 4.6545 3.5955 6 5.25 6C6.9045 6 8.25 4.6545 8.25 3C8.25 1.3455 6.9045 0 5.25 0ZM5.25 7.5C2.7675 7.5 0.75 9.5175 0.75 12V14.25C0.75 14.6625 1.0875 15 1.5 15H6C5.99961 13.9214 6.29074 12.8627 6.84259 11.9359C7.39444 11.0091 8.1865 10.2486 9.135 9.735C8.73935 9.05533 8.17241 8.49128 7.49072 8.09911C6.80904 7.70694 6.03644 7.50037 5.25 7.5Z" fill="currentColor"/>
        </symbol>
        <symbol id="icon-support" viewBox="0 0 24 24">
            <path d="M2.625 8.25H4.5V15.75H2.625C2.12784 15.7496 1.65116 15.5519 1.29961 15.2004C0.948069 14.8488 0.750397 14.3722 0.75 13.875V10.125C0.75 9.09075 1.59075 8.25 2.625 8.25ZM21.375 8.25H19.5V15.75H21.375C22.4093 15.75 23.25 14.9093 23.25 13.875V10.125C23.25 9.09075 22.4093 8.25 21.375 8.25ZM12 3.75C8.69175 3.75 6 6.44175 6 9.75V14.25C6 17.5583 8.69175 20.25 12 20.25C15.3082 20.25 18 17.5583 18 14.25V9.75C18 6.44175 15.3082 3.75 12 3.75ZM12 0.75C7.8525 0.75 4.2 3.135 2.505 6.7575C2.5425 6.75 2.5875 6.75 2.625 6.75H4.2C5.7675 4.0125 8.7 2.25 12 2.25C15.3 2.25 18.2325 4.0125 19.8 6.75H21.375C21.4125 6.75 21.4575 6.75 21.495 6.7575C19.8 3.135 16.1475 0.75 12 0.75ZM21.375 17.25H19.8C18.2325 19.9875 15.3 21.75 12 21.75H11.25V23.25H12C16.1475 23.25 19.7925 20.865 21.495 17.2425C21.4575 17.25 21.4125 17.25 21.375 17.25Z" fill="currentColor"/>
        </symbol>
        <symbol id="icon-faq" viewBox="0 0 24 24">
            <path d="M24.0004 16.2421C24.0004 13.2638 22.2918 10.6059 19.7329 9.31299C19.6534 15.0233 15.0238 19.653 9.31348 19.7324C10.6064 22.2913 13.2643 23.9999 16.2425 23.9999C17.6389 23.9999 18.9968 23.628 20.1899 22.9214L23.9665 23.966L22.9219 20.1894C23.6284 18.9963 24.0004 17.6384 24.0004 16.2421Z" fill="currentColor"/>
            <path d="M18.3281 9.16406C18.3281 4.11094 14.2172 0 9.16406 0C4.11094 0 0 4.11094 0 9.16406C0 10.8109 0.438375 12.4144 1.27078 13.8221L0.0336563 18.2942L4.506 17.0574C5.91375 17.8897 7.5172 18.3281 9.16406 18.3281C14.2172 18.3281 18.3281 14.2172 18.3281 9.16406ZM7.75781 7.03125H6.35156C6.35156 5.48034 7.61316 4.21875 9.16406 4.21875C10.715 4.21875 11.9766 5.48034 11.9766 7.03125C11.9766 7.81842 11.6433 8.57503 11.0619 9.10673L9.86719 10.2002V11.2969H8.46094V9.58102L10.1125 8.0693C10.4077 7.7992 10.5703 7.43062 10.5703 7.03125C10.5703 6.2558 9.93952 5.625 9.16406 5.625C8.38861 5.625 7.75781 6.2558 7.75781 7.03125ZM8.46094 12.7031H9.86719V14.1094H8.46094V12.7031Z" fill="currentColor"/>
        </symbol>
        <symbol id="icon-user" viewBox="0 0 24 24">
            <path d="M17.5925 12.4965C20.2375 13.544 22 15.3395 22 17.5C22 19.32 20.7715 20.554 18.6735 21.2365C17.037 21.769 14.822 22 12 22C9.178 22 6.963 21.769 5.3265 21.2365C3.2285 20.554 2 19.32 2 17.5C2 15.3395 3.7625 13.544 6.4075 12.4965C7.851 14.125 9.929 15 12 15C14.071 15 16.1145 14.125 17.5925 12.4965ZM12 2C15.0375 2 17.5 4.4625 17.5 7.5C17.5 10.5375 15.0375 13 12 13C8.9625 13 6.5 10.5375 6.5 7.5C6.5 4.4625 8.9625 2 12 2Z" fill="currentColor"/>
        </symbol>
        <symbol id="icon-promocode" viewBox="0.63 5.984 64.74 54.026">
            <path fill="currentColor" d="M40.53 39.05c.44-.59.66-1.35.66-2.28s-.22-1.69-.66-2.28c-.43-.58-1.02-.86-1.8-.86s-1.37.28-1.8.86c-.44.59-.66 1.35-.66 2.28s.22 1.69.66 2.28c.43.58 1.02.86 1.8.86s1.37-.28 1.8-.86zm10.08 5.55c-.78 0-1.37.28-1.8.86-.44.59-.66 1.35-.66 2.28s.22 1.69.66 2.28c.43.58 1.02.86 1.8.86s1.37-.28 1.8-.86c.44-.59.66-1.35.66-2.28s-.22-1.69-.66-2.28c-.43-.58-1.02-.86-1.8-.86zM20.2 21.53c.55 0 1 .45 1 1a2.88 2.88 0 0 0 5.76 0c0-.55.45-1 1-1h33.95c.84 0 1.63.19 2.33.53L60.93 8.62a3.471 3.471 0 0 0-4.18-2.54l-32.1 7.9c.08 2.26-1.43 4.36-3.71 4.91-1.27.31-2.58.11-3.69-.56a4.85 4.85 0 0 1-1.88-2.06L3.26 19.24a3.468 3.468 0 0 0-2.53 4.19l.69 2.8c.37-2.65 2.65-4.7 5.4-4.7z" data-original="#000000"/>
            <path fill="currentColor" d="M61.91 23.53H28.85c-.46 2.21-2.43 3.88-4.78 3.88s-4.31-1.67-4.78-3.88H6.83c-1.91 0-3.46 1.55-3.46 3.46v29.56c0 1.91 1.55 3.46 3.46 3.46H19.3c.46-2.21 2.43-3.88 4.78-3.88s4.31 1.67 4.78 3.88h33.05c1.91 0 3.46-1.55 3.46-3.46V26.99c0-1.9-1.56-3.46-3.46-3.46zM16.24 54.42H9.28c-.55 0-1-.45-1-1s.45-1 1-1h6.96c.55 0 1 .45 1 1s-.45 1-1 1zm0-5.82H9.28c-.55 0-1-.45-1-1s.45-1 1-1h6.96c.55 0 1 .45 1 1s-.45 1-1 1zm0-5.83H9.28c-.55 0-1-.45-1-1s.45-1 1-1h6.96c.55 0 1 .45 1 1s-.45 1-1 1zm0-5.82H9.28c-.55 0-1-.45-1-1s.45-1 1-1h6.96c.55 0 1 .45 1 1s-.45 1-1 1zm0-5.82H9.28c-.55 0-1-.45-1-1s.45-1 1-1h6.96c.55 0 1 .45 1 1s-.45 1-1 1zm8.73 21.08c0 .55-.45 1-1 1s-1-.45-1-1v-2.25c0-.55.45-1 1-1s1 .45 1 1zm0-6.21c0 .55-.45 1-1 1s-1-.45-1-1v-2.25c0-.55.45-1 1-1s1 .45 1 1zm0-6.21c0 .55-.45 1-1 1s-1-.45-1-1v-2.25c0-.55.45-1 1-1s1 .45 1 1zm0-6.21c0 .55-.45 1-1 1s-1-.45-1-1v-2.25c0-.55.45-1 1-1s1 .45 1 1zm8.85 3.19c0-1.56.43-2.87 1.27-3.88.85-1.03 2.08-1.55 3.63-1.55 1.56 0 2.78.52 3.63 1.55.85 1.02 1.27 2.32 1.27 3.88s-.43 2.87-1.27 3.88c-.85 1.03-2.07 1.55-3.63 1.55s-2.78-.52-3.63-1.55c-.84-1.01-1.27-2.32-1.27-3.88zm5.51 15.99a1.134 1.134 0 0 1-1.41-.15c-.24-.22-.35-.5-.35-.83 0-.21.06-.41.18-.6l11.91-19.05c.23-.37.57-.56.99-.56.34 0 .62.09.84.28.23.2.35.46.35.79 0 .25-.08.5-.24.75L39.77 52.32c-.11.18-.26.33-.44.44zm14.91-1.14c-.85 1.03-2.08 1.55-3.63 1.55s-2.78-.52-3.63-1.55c-.85-1.02-1.27-2.32-1.27-3.88s.43-2.87 1.27-3.88c.85-1.03 2.08-1.55 3.63-1.55 1.56 0 2.78.52 3.63 1.55.85 1.02 1.27 2.32 1.27 3.88s-.43 2.87-1.27 3.88z" data-original="#000000"/>
        </symbol>
        <symbol id="icon-logout" viewBox="0 0.003 512.005 512.001">
            <path fill="currentColor" d="M320 277.336c-11.797 0-21.332 9.559-21.332 21.332v85.336c0 11.754-9.559 21.332-21.336 21.332h-64v-320c0-18.219-11.605-34.496-29.055-40.555l-6.316-2.113h99.371c11.777 0 21.336 9.578 21.336 21.336v64c0 11.773 9.535 21.332 21.332 21.332s21.332-9.559 21.332-21.332v-64c0-35.285-28.715-64-64-64H48c-.812 0-1.492.363-2.281.469-1.028-.086-2.008-.47-3.051-.47C19.137.004 0 19.138 0 42.669v384c0 18.219 11.605 34.496 29.055 40.555L157.44 510.02a44.195 44.195 0 0 0 13.227 1.984c23.531 0 42.664-19.137 42.664-42.668v-21.332h64c35.285 0 64-28.715 64-64v-85.336c0-11.773-9.535-21.332-21.332-21.332zm0 0" data-original="#000000"/>
            <path fill="currentColor" d="m505.75 198.254-85.336-85.332a21.33 21.33 0 0 0-23.25-4.633C389.207 111.598 384 119.383 384 128.004v64h-85.332c-11.777 0-21.336 9.555-21.336 21.332 0 11.777 9.559 21.332 21.336 21.332H384v64c0 8.621 5.207 16.406 13.164 19.715a21.335 21.335 0 0 0 23.25-4.63l85.336-85.335c8.34-8.34 8.34-21.824 0-30.164zm0 0" data-original="#000000"/>
        </symbol>
        <symbol id="icon-search" viewBox="0 0.802 118.783 117.178">
            <path fill="currentColor" d="M115.97 101.597 88.661 74.286a47.75 47.75 0 0 0 7.333-25.488c0-26.509-21.49-47.996-47.998-47.996S0 22.289 0 48.798c0 26.51 21.487 47.995 47.996 47.995a47.776 47.776 0 0 0 27.414-8.605l26.984 26.986a9.574 9.574 0 0 0 6.788 2.806 9.58 9.58 0 0 0 6.791-2.806 9.602 9.602 0 0 0-.003-13.577zM47.996 81.243c-17.917 0-32.443-14.525-32.443-32.443s14.526-32.444 32.443-32.444c17.918 0 32.443 14.526 32.443 32.444S65.914 81.243 47.996 81.243z" data-original="#000000"/>
        </symbol>
        <symbol id="icon-close" viewBox="0 0 15 15">
            <path fill-rule="evenodd" clip-rule="evenodd" d="M14.6922 0.312289C14.4912 0.112255 14.2192 0 13.9357 0C13.6522 0 13.3801 0.112255 13.1791 0.312289L7.48063 5.96155L1.80365 0.280103C1.59835 0.104153 1.33427 0.0121749 1.06418 0.0226154C0.794096 0.0330559 0.537917 0.145138 0.346794 0.336412C0.155671 0.527686 0.0437104 0.784101 0.0332781 1.0544C0.0228458 1.3247 0.114686 1.58896 0.290497 1.79442L5.97823 7.49736L0.301239 13.1788C0.103429 13.3839 -0.00486358 13.6592 0.000167799 13.9443C0.00519918 14.2293 0.123136 14.5006 0.328061 14.6986C0.532986 14.8965 0.808096 15.0049 1.09287 14.9998C1.37765 14.9948 1.64877 14.8768 1.84658 14.6717L14.7244 1.78367C14.9072 1.58041 15.0057 1.31504 14.9997 1.04162C14.9938 0.768201 14.8838 0.507341 14.6922 0.312289V0.312289ZM10.9362 9.4198C10.7309 9.24385 10.4668 9.15194 10.1967 9.16238C9.92664 9.17282 9.67042 9.28483 9.4793 9.47611C9.28818 9.66738 9.17622 9.9238 9.16578 10.1941C9.15535 10.4644 9.24723 10.7287 9.42304 10.9342L13.1791 14.6932C13.3844 14.8691 13.6484 14.961 13.9185 14.9506C14.1886 14.9402 14.4448 14.8281 14.636 14.6369C14.8271 14.4456 14.939 14.1892 14.9495 13.9189C14.9599 13.6486 14.868 13.3843 14.6922 13.1788L10.9362 9.4198Z" fill="currentColor"/>
        </symbol>
        <symbol id="icon-warning" viewBox="0 0 54 49">
            <path d="M46.3389 48.4311H7.66001C6.35432 48.4311 5.07031 48.0974 3.92991 47.4615C2.78951 46.8257 1.8306 45.9089 1.14423 44.7981C0.457684 43.6875 0.0664713 42.4198 0.00775043 41.1155C-0.0509705 39.8111 0.22475 38.5134 0.808724 37.3456L20.1483 4.23472C21.4459 1.63993 24.098 0.000488281 26.9994 0.000488281C29.9008 0.000488281 32.5529 1.64004 33.8507 4.23472L53.1902 37.3456C53.7741 38.5134 54.0499 39.8111 53.9911 41.1155C53.9324 42.4198 53.5412 43.6875 52.8547 44.7981C52.1683 45.9089 51.2094 46.8257 50.069 47.4615C48.9287 48.0973 47.6447 48.4311 46.339 48.431L46.3389 48.4311Z" fill="#484B5E"/>
            <path d="M46.3432 48.4309H26.999V0.00014839C28.4244 -0.00876511 29.8234 0.384051 31.0358 1.13358C32.2482 1.88312 33.2249 2.95904 33.854 4.23807L53.1886 37.3477C53.7735 38.5148 54.0501 39.8121 53.9921 41.1163C53.9342 42.4204 53.5436 43.6881 52.8576 44.7988C52.1716 45.9095 51.2129 46.8262 50.0727 47.4619C48.9325 48.0976 47.6486 48.4311 46.3432 48.4306V48.4309Z" fill="#35384B"/>
            <path d="M30.7253 40.0485C30.7253 42.1063 29.0569 43.7742 26.9996 43.7742C24.9422 43.7742 23.2744 42.1062 23.2744 40.0485C23.2744 37.9912 24.9422 36.3232 26.9996 36.3232C29.0569 36.3232 30.7254 37.9912 30.7254 40.0485H30.7253Z" fill="#70879F"/>
            <path d="M30.7247 40.0486C30.7248 41.0368 30.3324 41.9845 29.6338 42.6834C28.9349 43.382 27.9872 43.7744 26.999 43.7743V36.3232C27.4883 36.323 27.9729 36.4193 28.425 36.6065C28.8771 36.7936 29.2879 37.0681 29.6338 37.4142C30.3324 38.1129 30.7248 39.0606 30.7247 40.0486Z" fill="#565B74"/>
            <path d="M26.9996 7.45117C29.0569 7.45117 30.7253 9.1191 30.7253 11.1769V28.8724C30.7253 30.9297 29.0569 32.5977 26.9996 32.5977C24.9422 32.5977 23.2744 30.9297 23.2744 28.8724V11.1769C23.2744 9.1191 24.9422 7.45117 26.9996 7.45117Z" fill="#70879F"/>
            <path d="M30.7247 11.1769V28.8724C30.7248 29.3616 30.6285 29.8461 30.4413 30.2981C30.2541 30.7502 29.9797 31.1609 29.6338 31.5069C29.2878 31.8529 28.8771 32.1273 28.425 32.3145C27.9729 32.5017 27.4883 32.5979 26.999 32.5977V7.45118C27.4885 7.45054 27.9732 7.54645 28.4256 7.73343C28.8779 7.92041 29.2889 8.19478 29.6351 8.54083C29.9811 8.88701 30.2554 9.29802 30.4424 9.75035C30.6294 10.2027 30.7253 10.6874 30.7247 11.1769Z" fill="#565B74"/>
        </symbol>
        <symbol id="icon-play" viewBox="0 0 53 53">
            <path d="M45.2384 7.7616C40.2331 2.75655 33.5784 0 26.5 0C19.4216 0 12.7669 2.75655 7.7616 7.7616C2.75655 12.7669 0 19.4216 0 26.5C0 33.5784 2.75655 40.2331 7.7616 45.2384C12.7669 50.2435 19.4216 53 26.5 53C33.5784 53 40.2331 50.2435 45.2384 45.2384C50.2435 40.2331 53 33.5784 53 26.5C53 19.4216 50.2435 12.7669 45.2384 7.7616ZM26.5 49.7216C13.6955 49.7216 3.27835 39.3045 3.27835 26.5C3.27835 13.6955 13.6955 3.27835 26.5 3.27835C39.3045 3.27835 49.7216 13.6955 49.7216 26.5C49.7216 39.3045 39.3045 49.7216 26.5 49.7216Z" fill="currentColor"/>
            <path d="M19.7861 31.5832C19.7861 33.8929 22.2866 35.3362 24.2866 34.181L33.0873 29.0979C35.0866 27.9431 35.0866 25.0571 33.0873 23.9023L24.2866 18.8191C22.2866 17.664 19.7861 19.1073 19.7861 21.4169V31.5832Z" fill="currentColor"/>
        </symbol>
        <symbol id="icon-favorite-fill" viewBox="0 0 20 20">
            <path fill-rule="evenodd" clip-rule="evenodd" d="M15.5463 19.0799C15.3882 19.0798 15.2325 19.0412 15.0926 18.9674L9.98008 16.2799L4.86758 18.9674C4.70664 19.0514 4.52544 19.0888 4.34438 19.0754C4.16332 19.062 3.98959 18.9983 3.84277 18.8915C3.69595 18.7847 3.58187 18.6391 3.51337 18.4709C3.44488 18.3028 3.42469 18.1189 3.45508 17.9399L4.43008 12.2474L0.293831 8.21611C0.163699 8.08905 0.0717042 7.92811 0.0282438 7.7515C-0.0152166 7.57489 -0.00840953 7.38964 0.0478956 7.21669C0.104201 7.04374 0.207759 6.88999 0.346866 6.77282C0.485973 6.65564 0.655083 6.57972 0.835081 6.55361L6.55008 5.72236L9.10633 0.543615C9.18684 0.380442 9.31139 0.243051 9.46591 0.146983C9.62043 0.0509137 9.79876 0 9.98071 0C10.1627 0 10.341 0.0509137 10.4955 0.146983C10.65 0.243051 10.7746 0.380442 10.8551 0.543615L13.4113 5.72236L19.1263 6.55361C19.3062 6.57991 19.4752 6.65598 19.6141 6.77323C19.7531 6.89048 19.8565 7.04425 19.9126 7.21716C19.9688 7.39008 19.9755 7.57525 19.932 7.75177C19.8885 7.92829 19.7964 8.08913 19.6663 8.21611L15.5313 12.2474L16.5063 17.9399C16.5303 18.0797 16.5235 18.2232 16.4864 18.3602C16.4492 18.4971 16.3826 18.6243 16.2912 18.7329C16.1998 18.8415 16.0857 18.9288 15.9571 18.9887C15.8284 19.0486 15.6883 19.0797 15.5463 19.0799Z" fill="currentColor"/>
        </symbol>
        <symbol id="icon-wallet" viewBox="0 0 15 14">
            <path d="M13.7526 3.84206H2.46924C2.33032 3.84206 2.19709 3.78806 2.09886 3.69194C2.00062 3.59582 1.94544 3.46545 1.94544 3.32952C1.94544 3.19359 2.00062 3.06322 2.09886 2.9671C2.19709 2.87099 2.33032 2.81699 2.46924 2.81699H11.6736V0.894978C11.6736 0.621796 11.5484 0.367066 11.3305 0.196391C11.2235 0.112314 11.0984 0.0529753 10.9646 0.0228017C10.8308 -0.00737181 10.6918 -0.00760175 10.5579 0.0221292L0.713436 2.18503C0.510527 2.22893 0.32909 2.33946 0.199297 2.49826C0.0695029 2.65706 -0.000825263 2.85454 7.30807e-06 3.05788V13.1051C7.30807e-06 13.5982 0.41015 14 0.914054 14H13.7526C14.2565 14 14.6667 13.5987 14.6667 13.1051V4.73643C14.6667 4.24337 14.2565 3.84206 13.7526 3.84206ZM12.1031 9.83462C11.6134 9.83462 11.2153 9.44458 11.2153 8.96536C11.2153 8.48614 11.6139 8.0961 12.1031 8.0961C12.5934 8.0961 12.9915 8.48614 12.9915 8.96536C12.9915 9.44458 12.5934 9.83462 12.1031 9.83462Z" fill="currentColor"/>
        </symbol>
        <symbol id="icon-vk" viewBox="0 0 18 18">
            <path fill-rule="evenodd" clip-rule="evenodd" d="M17.0402 4.64062C17.1654 4.24406 17.0402 3.95578 16.4865 3.95578H14.6454C14.181 3.95578 13.9665 4.2082 13.8414 4.4782C13.8414 4.4782 12.8943 6.78445 11.5717 8.27965C11.1428 8.71207 10.9463 8.85621 10.7139 8.85621C10.5887 8.85621 10.4277 8.71207 10.4277 8.31586V4.62199C10.4277 4.15371 10.285 3.9375 9.89156 3.9375H6.9961C6.70992 3.9375 6.53133 4.15371 6.53133 4.36992C6.53133 4.82027 7.19262 4.92855 7.26399 6.18961V8.92969C7.26399 9.52418 7.15852 9.63281 6.92438 9.63281C6.29895 9.63281 4.77984 7.30863 3.86859 4.66031C3.69141 4.13578 3.51141 3.9375 3.04664 3.9375H1.18793C0.651797 3.9375 0.5625 4.18957 0.5625 4.45992C0.5625 4.94648 1.18793 7.39652 3.47555 10.6393C4.99465 12.8542 7.15711 14.0446 9.10512 14.0446C10.285 14.0446 10.4277 13.7742 10.4277 13.3239V11.6483C10.4277 11.108 10.5349 11.018 10.9104 11.018C11.1783 11.018 11.661 11.1618 12.7512 12.2249C14.002 13.4859 14.2165 14.0625 14.9136 14.0625H16.7544C17.2906 14.0625 17.5409 13.7921 17.3978 13.2697C17.2371 12.7473 16.6293 11.9907 15.8428 11.09C15.4139 10.5859 14.7705 10.0273 14.574 9.75691C14.3061 9.39656 14.3775 9.25242 14.574 8.92828C14.5561 8.92828 16.8082 5.72133 17.0402 4.63922" fill="currentColor"/>
        </symbol>
        <symbol id="icon-telegram" viewBox="0 0 18 18">
            <path d="M15.533 2.74088C15.533 2.74088 16.9899 2.17276 16.868 3.55238C16.8279 4.12051 16.4637 6.10913 16.1802 8.25976L15.209 14.631C15.209 14.631 15.128 15.5644 14.3994 15.7268C13.6711 15.8888 12.5784 15.1586 12.3759 14.9963C12.2139 14.8744 9.34061 13.0481 8.32886 12.1556C8.04536 11.9119 7.72136 11.4251 8.36936 10.857L12.6185 6.79876C13.1041 6.31201 13.5897 5.17576 11.5662 6.55538L5.89999 10.4104C5.89999 10.4104 5.25236 10.8165 4.03849 10.4513L1.40749 9.63938C1.40749 9.63938 0.436235 9.03076 2.09561 8.42213C6.14299 6.51488 11.1211 4.56713 15.5322 2.74088H15.533Z" fill="currentColor"/>
        </symbol>
        <symbol id="icon-youtube" viewBox="0 0 18 18">
            <path d="M9.05737 2.24902H9.1575C10.0823 2.2524 14.7679 2.28615 16.0312 2.6259C16.4132 2.72959 16.7612 2.9317 17.0406 3.21203C17.3199 3.49237 17.5208 3.84111 17.6231 4.2234C17.7367 4.6509 17.8166 5.21677 17.8706 5.80065L17.8819 5.91765L17.9066 6.21015L17.9156 6.32715C17.9888 7.3554 17.9977 8.3184 17.9989 8.52877V8.61315C17.9977 8.8314 17.9876 9.85965 17.9066 10.9306L17.8976 11.0488L17.8875 11.1658C17.8312 11.8093 17.748 12.4483 17.6231 12.9185C17.5211 13.301 17.3203 13.6499 17.0409 13.9303C16.7615 14.2106 16.4133 14.4126 16.0312 14.516C14.7262 14.867 9.76612 14.8918 9.07875 14.8929H8.919C8.57137 14.8929 7.13363 14.8861 5.62612 14.8344L5.43488 14.8276L5.337 14.8231L5.14462 14.8153L4.95225 14.8074C3.7035 14.7523 2.51437 14.6634 1.9665 14.5149C1.58455 14.4116 1.23645 14.2098 0.957065 13.9296C0.677682 13.6494 0.476828 13.3008 0.374625 12.9185C0.24975 12.4494 0.1665 11.8093 0.11025 11.1658L0.10125 11.0476L0.09225 10.9306C0.0367285 10.1683 0.00596235 9.40445 0 8.64015L0 8.50177C0.00225 8.2599 0.01125 7.42402 0.072 6.50152L0.079875 6.38565L0.08325 6.32715L0.09225 6.21015L0.117 5.91765L0.12825 5.80065C0.18225 5.21677 0.262125 4.64977 0.37575 4.2234C0.47778 3.84095 0.678558 3.49205 0.957952 3.21167C1.23735 2.93128 1.58554 2.72928 1.96762 2.6259C2.5155 2.47965 3.70462 2.38965 4.95337 2.3334L5.14462 2.32552L5.33812 2.31877L5.43488 2.3154L5.62725 2.30752C6.69792 2.27307 7.76903 2.25394 8.84025 2.25015H9.05737V2.24902ZM7.2 5.86027V11.2805L11.8766 8.57152L7.2 5.86027Z" fill="currentColor"/>
        </symbol>
        <symbol id="icon-twitch" viewBox="0 0 18 18">
            <path d="M4.33913 0L1.125 3.21413V14.7859H4.98263V18L8.19675 14.7859H10.7662L16.5532 9V0H4.33913ZM15.2674 8.35763L12.6968 10.9282H10.125L7.875 13.1782V10.9282H4.98263V1.28587H15.2674V8.35763Z" fill="currentColor"/>
            <path d="M13.3391 3.53564H12.0532V7.39102H13.3391V3.53564ZM9.80321 3.53564H8.51733V7.39102H9.80321V3.53564Z" fill="currentColor"/>
        </symbol>
        <symbol id="icon-google" viewBox="0 0 20 20">
            <path d="M0 10C0 4.486 4.486 0 10 0C12.227 0 14.3348 0.716476 16.0956 2.072L13.7718 5.09067C12.683 4.25257 11.3788 3.80952 10 3.80952C6.58657 3.80952 3.80952 6.58657 3.80952 10C3.80952 13.4134 6.58657 16.1905 10 16.1905C12.7492 16.1905 15.0855 14.3892 15.8907 11.9048H10V8.09524H20V10C20 15.514 15.514 20 10 20C4.486 20 0 15.514 0 10Z" fill="currentColor"/>
        </symbol>
        <symbol id="icon-ok-ru" viewBox="0 0 20 20">
            <path d="M10.0095 8.28796C10.2356 8.28797 10.4595 8.24318 10.6682 8.15617C10.877 8.06917 11.0664 7.94168 11.2256 7.78106C11.3847 7.62044 11.5105 7.42989 11.5956 7.22039C11.6807 7.01089 11.7235 6.78661 11.7214 6.56049C11.718 5.60315 10.9558 4.84141 10.0005 4.84059C9.77237 4.83965 9.54633 4.88414 9.33558 4.97149C9.12482 5.05883 8.93357 5.18727 8.77297 5.34931C8.61238 5.51135 8.48567 5.70374 8.40022 5.91528C8.31477 6.12681 8.2723 6.35324 8.27529 6.58136C8.28246 7.53481 9.05156 8.29143 10.0095 8.28796Z" fill="currentColor"/>
            <path d="M10 0C4.47714 0 0 4.47734 0 10C0 15.5227 4.47714 20 10 20C15.5229 20 20 15.5227 20 10C20 4.47734 15.5229 0 10 0ZM10.0143 3.04102C11.9621 3.04634 13.5255 4.63959 13.5155 6.6089C13.5057 8.53279 11.9167 10.0921 9.97217 10.0855C8.04747 10.079 6.46895 8.48327 6.48041 6.5555C6.49125 4.60665 8.07059 3.0357 10.0143 3.04102ZM13.9595 11.4695C13.5288 11.9116 13.0103 12.2316 12.4346 12.4548C11.8903 12.6658 11.2939 12.772 10.7034 12.8428C10.7928 12.9397 10.8348 12.9874 10.8904 13.0431C11.6917 13.8486 12.4968 14.65 13.2953 15.4578C13.5675 15.7332 13.6241 16.0745 13.4744 16.3943C13.3109 16.7441 12.944 16.9741 12.5841 16.9494C12.3562 16.9336 12.1784 16.8205 12.0207 16.6615C11.4159 16.053 10.7996 15.4553 10.2075 14.8354C10.0346 14.6549 9.95192 14.6893 9.79949 14.846C9.19009 15.4714 8.57393 16.0902 7.9511 16.7022C7.67182 16.9776 7.33954 17.0275 7.01545 16.87C6.6711 16.7034 6.45217 16.3517 6.46895 15.998C6.48082 15.7594 6.59826 15.5765 6.76235 15.4132C7.5556 14.6216 8.34639 13.8275 9.13739 13.0341C9.18997 12.9815 9.23867 12.9256 9.31499 12.8438C8.23611 12.731 7.26322 12.4655 6.43028 11.8142C6.32675 11.7332 6.22015 11.655 6.12604 11.5642C5.76123 11.2141 5.7246 10.8129 6.01289 10.4C6.25985 10.0464 6.67396 9.95192 7.10465 10.1551C7.18813 10.1942 7.26752 10.2437 7.34363 10.2961C8.89575 11.3627 11.0281 11.3919 12.5864 10.3437C12.7407 10.2259 12.9058 10.1289 13.0971 10.08C13.4686 9.98425 13.8157 10.1211 14.0149 10.4464C14.2431 10.8182 14.2404 11.1808 13.9595 11.4695Z" fill="currentColor"/>
        </symbol>
        <symbol id="icon-steam" viewBox="0 0 20 20">
            <path d="M10 0C4.47716 0 0 4.47716 0 10C0 15.5228 4.47716 20 10 20C15.5228 20 20 15.5228 20 10C20 4.47716 15.5228 0 10 0ZM13.4117 11.0854L10.0307 13.5289C9.908 14.8494 8.77868 15.8828 7.41824 15.8828C6.82061 15.8832 6.24064 15.6801 5.77372 15.3071C5.30679 14.9341 4.98072 14.4133 4.84912 13.8303L3.07024 13.1235V9.83672L6.076 11.0388C6.54508 10.7588 7.072 10.6333 7.68532 10.6871L9.87916 7.57264C9.8936 5.66372 11.4704 4.11724 13.4045 4.11724C15.3494 4.11724 16.9262 5.68168 16.9298 7.59776C16.9298 9.528 15.3493 11.0854 13.4117 11.0854Z" fill="currentColor"/>
            <path d="M7.41833 11.3581C7.27749 11.3576 7.13706 11.3733 6.99977 11.4047L7.80445 11.7276C7.99119 11.8003 8.16165 11.9093 8.30594 12.0483C8.45024 12.1873 8.5655 12.3536 8.64505 12.5375C8.7246 12.7214 8.76685 12.9193 8.76934 13.1196C8.77184 13.32 8.73454 13.5189 8.65961 13.7047C8.58366 13.8917 8.47158 14.0619 8.32977 14.2055C8.18796 14.3492 8.01922 14.4634 7.8332 14.5417C7.64718 14.62 7.44753 14.6609 7.2457 14.662C7.04386 14.663 6.8438 14.6243 6.65697 14.5479C6.34305 14.4259 6.02193 14.2931 5.70801 14.1747C5.86546 14.4792 6.10115 14.7362 6.39085 14.9194C6.68055 15.1026 7.01381 15.2054 7.35638 15.2171C7.69894 15.2288 8.03844 15.1491 8.33999 14.9861C8.64154 14.8232 8.89426 14.5829 9.07216 14.2899C9.25006 13.9969 9.34673 13.6618 9.35223 13.3191C9.35773 12.9764 9.27187 12.6384 9.10346 12.3399C8.93506 12.0413 8.69019 11.793 8.39403 11.6205C8.09786 11.4479 7.76109 11.3573 7.41833 11.3581ZM13.4081 5.26538C12.0983 5.26538 11.041 6.31314 11.041 7.60138C11.041 8.8967 12.1019 9.93738 13.4081 9.93738C14.7035 9.94098 15.7681 8.89682 15.7643 7.60138C15.7644 6.31314 14.7035 5.26538 13.4081 5.26538ZM13.4027 9.00414C13.1259 9.00118 12.8561 8.91639 12.6274 8.76044C12.3986 8.60449 12.2211 8.38435 12.1173 8.12774C12.0134 7.87113 11.9877 7.58952 12.0435 7.31837C12.0994 7.04721 12.2342 6.79864 12.431 6.60393C12.6278 6.40922 12.8778 6.27709 13.1495 6.22417C13.4212 6.17125 13.7026 6.19991 13.958 6.30653C14.2135 6.41316 14.4318 6.59299 14.5852 6.82338C14.7387 7.05377 14.8206 7.32442 14.8206 7.60126C14.82 7.78657 14.7827 7.96992 14.7111 8.14081C14.6394 8.31169 14.5347 8.46674 14.4029 8.59708C14.2712 8.72741 14.1151 8.83046 13.9434 8.90031C13.7718 8.97016 13.588 9.00545 13.4027 9.00414H13.4027Z" fill="currentColor"/>
        </symbol>
        <symbol id="icon-view" viewBox="0 0 23 15">
            <path d="M11.5 0.64502C7.10561 0.64502 3.12054 3.04923 0.179963 6.95432C-0.0599877 7.27425 -0.0599877 7.72122 0.179963 8.04115C3.12054 11.9509 7.10561 14.3552 11.5 14.3552C15.8944 14.3552 19.8795 11.9509 22.82 8.04586C23.06 7.72592 23.06 7.27896 22.82 6.95902C19.8795 3.04923 15.8944 0.64502 11.5 0.64502ZM11.8152 12.3273C8.89818 12.5108 6.48926 10.1066 6.67275 7.18486C6.82331 4.77594 8.77585 2.8234 11.1848 2.67284C14.1018 2.48935 16.5107 4.89356 16.3272 7.81532C16.172 10.2195 14.2194 12.1721 11.8152 12.3273ZM11.6694 10.0972C10.0979 10.196 8.79938 8.90215 8.90288 7.33071C8.98287 6.03215 10.0368 4.98296 11.3353 4.89827C12.9068 4.79946 14.2053 6.09332 14.1018 7.66476C14.0171 8.96802 12.9632 10.0172 11.6694 10.0972Z" fill="currentColor"/>
        </symbol>
        <symbol id="icon-two-arrows" viewBox="0 0 15 14">
            <path d="M7 1L13 7L7 13" fill="none" stroke="currentColor" stroke-width="2"/>
            <path d="M1 2L6 7L1 12"  fill="none" stroke="currentColor" stroke-width="2"/>
        </symbol>
        <symbol id="icon-arrow-x" viewBox="0 0 9 14">
            <path d="M1 13L7 7L1 1" fill="none" stroke="currentColor" stroke-width="2"/>
        </symbol>
        <symbol id="icon-plus" viewBox="0 0 14 14">
            <path d="M12.7695 5.76953H8.23047V1.23047C8.23047 0.550894 7.67957 0 7 0C6.32043 0 5.76953 0.550894 5.76953 1.23047V5.76953H1.23047C0.550894 5.76953 0 6.32043 0 7C0 7.67957 0.550894 8.23047 1.23047 8.23047H5.76953V12.7695C5.76953 13.4491 6.32043 14 7 14C7.67957 14 8.23047 13.4491 8.23047 12.7695V8.23047H12.7695C13.4491 8.23047 14 7.67957 14 7C14 6.32043 13.4491 5.76953 12.7695 5.76953Z" fill="currentColor"/>
        </symbol>
        <symbol id="icon-minus" viewBox="0 0 14 14">
            <path d="M7 0C3.14005 0 0 3.14005 0 7C0 10.86 3.14005 14 7 14C10.86 14 14 10.86 14 7C14 3.14005 10.86 0 7 0ZM10.0625 7.5833H3.9375C3.61547 7.5833 3.3542 7.32203 3.3542 7C3.3542 6.67797 3.61547 6.4167 3.9375 6.4167H10.0625C10.3845 6.4167 10.6458 6.67797 10.6458 7C10.6458 7.32203 10.3845 7.5833 10.0625 7.5833Z" fill="currentColor"/>
        </symbol>
        <symbol id="icon-history" viewBox="0 0 14 14">
            <path d="M7 0C5.61553 0 4.26216 0.410543 3.11101 1.17971C1.95987 1.94888 1.06266 3.04213 0.532846 4.32122C0.00303298 5.6003 -0.13559 7.00776 0.134506 8.36563C0.404603 9.7235 1.07129 10.9708 2.05026 11.9497C3.02922 12.9287 4.2765 13.5954 5.63437 13.8655C6.99224 14.1356 8.3997 13.997 9.67879 13.4672C10.9579 12.9373 12.0511 12.0401 12.8203 10.889C13.5895 9.73785 14 8.38447 14 7C14 5.14348 13.2625 3.36301 11.9497 2.05025C10.637 0.737498 8.85652 0 7 0ZM10 7.5H7C6.86739 7.5 6.74022 7.44732 6.64645 7.35355C6.55268 7.25979 6.5 7.13261 6.5 7V3C6.5 2.86739 6.55268 2.74021 6.64645 2.64645C6.74022 2.55268 6.86739 2.5 7 2.5C7.13261 2.5 7.25979 2.55268 7.35356 2.64645C7.44733 2.74021 7.5 2.86739 7.5 3V6.5H10C10.1326 6.5 10.2598 6.55268 10.3536 6.64645C10.4473 6.74021 10.5 6.86739 10.5 7C10.5 7.13261 10.4473 7.25979 10.3536 7.35355C10.2598 7.44732 10.1326 7.5 10 7.5Z" fill="currentColor"/>
        </symbol>
        <symbol id="icon-ticket" viewBox="0 0 32 28">
            <path d="M31.3041 15.4146C31.652 15.4146 32 15.0649 32 14.7152V10.5203C32 9.33167 31.0957 8.42288 29.913 8.42288H24.3474V27.9993H29.9124C31.0951 27.9993 31.9993 27.0905 31.9993 25.9019V21.707C31.999 21.5216 31.9255 21.3439 31.7951 21.2128C31.6647 21.0817 31.4879 21.008 31.3034 21.0076C30.5729 20.9962 29.8762 20.6966 29.3636 20.1734C28.851 19.6502 28.5637 18.9454 28.5637 18.2111C28.5637 17.4768 28.851 16.772 29.3636 16.2488C29.8762 15.7256 30.5729 15.426 31.3034 15.4146H31.3041Z" fill="currentColor"/>
            <path d="M30.8173 6.3261C31.1653 6.1865 31.3736 5.76701 31.2347 5.41732L29.843 1.43183C29.4951 0.31296 28.2402 -0.246137 27.1998 0.10355L7.4436 6.955H29.7041C30.034 6.67905 30.4113 6.46593 30.8173 6.3261Z" fill="currentColor"/>
            <path d="M0 10.521V14.7159C0 15.1354 0.278481 15.4153 0.69587 15.4153C1.0649 15.4095 1.43138 15.4776 1.77397 15.6156C2.11657 15.7535 2.42844 15.9586 2.69142 16.2189C2.95441 16.4791 3.16326 16.7893 3.30582 17.1315C3.44837 17.4736 3.52179 17.8408 3.52179 18.2118C3.52179 18.5827 3.44837 18.9499 3.30582 19.2921C3.16326 19.6342 2.95441 19.9444 2.69142 20.2047C2.42844 20.4649 2.11657 20.67 1.77397 20.808C1.43138 20.9459 1.0649 21.014 0.69587 21.0083C0.278481 21.0083 0 21.2882 0 21.7076V25.9025C0 27.0912 0.90423 28 2.08694 28H22.9564V8.42355H2.08694C0.906901 8.42355 0 9.33234 0 10.521ZM8.34777 14.0165H12.5216C12.939 14.0165 13.2175 14.2964 13.2175 14.7159C13.2175 15.1354 12.939 15.4153 12.5216 15.4153H8.34777C7.93038 15.4153 7.6519 15.1354 7.6519 14.7159C7.6519 14.2964 7.93038 14.0165 8.34777 14.0165ZM8.34777 17.5121H17.3907C17.8081 17.5121 18.0866 17.792 18.0866 18.2114C18.0866 18.6309 17.8081 18.9108 17.3907 18.9108H8.34777C7.93038 18.9108 7.6519 18.6309 7.6519 18.2114C7.6519 17.792 7.93038 17.5121 8.34777 17.5121ZM8.34777 21.0076H17.3907C17.8081 21.0076 18.0866 21.2875 18.0866 21.707C18.0866 22.1265 17.8081 22.4063 17.3907 22.4063H8.34777C7.93038 22.4063 7.6519 22.1265 7.6519 21.707C7.6519 21.2875 7.93038 21.0083 8.34777 21.0083V21.0076Z" fill="currentColor"/>
        </symbol>
        <symbol id="icon-rub" viewBox="0 0 32 33">
            <path d="M15.5073 32.4332C24.0717 32.4332 31.0145 25.1786 31.0145 16.2296C31.0145 7.28068 24.0717 0.0261209 15.5073 0.0261217C6.94284 0.0261224 6.34214e-07 7.28068 1.41656e-06 16.2296C2.1989e-06 25.1786 6.94284 32.4332 15.5073 32.4332Z" fill="#025EE8"/>
            <path d="M15.5072 30.7242C23.9843 30.7242 30.8563 23.8522 30.8563 15.3752C30.8563 6.89812 23.9843 0.026121 15.5072 0.0261217C7.0302 0.0261224 0.158204 6.89812 0.158204 15.3752C0.158205 23.8522 7.0302 30.7242 15.5072 30.7242Z" fill="#35A9FD"/>
            <path d="M21.6343 1.29834L1.43056 21.4958C0.753305 19.945 0.329228 18.2614 0.202638 16.4955L16.6277 0.0640855C18.3936 0.197005 20.0773 0.621081 21.6343 1.29834ZM28.8816 7.84304L7.97526 28.7494C6.67139 28.0151 5.4941 27.0974 4.46239 26.0277L26.1662 4.33017C27.2296 5.35555 28.1474 6.53916 28.8816 7.84304ZM25.5396 3.75418L3.89274 25.4011C3.55727 25.0086 3.23447 24.5972 2.93698 24.1731L24.3117 2.79843C24.7358 3.09591 25.1472 3.41872 25.5396 3.75418ZM30.3754 11.5458L11.678 30.2431C11.1147 30.0976 10.564 29.9203 10.026 29.7178L29.85 9.89379C30.0526 10.4318 30.2298 10.9825 30.3754 11.5458Z" fill="white" fill-opacity="0.313726"/>
            <path d="M30.8563 15.3752C30.8563 15.4828 30.8563 15.584 30.8499 15.6916C30.6854 7.36201 23.8812 0.659071 15.5072 0.659072C7.13331 0.659072 0.3291 7.36201 0.164534 15.6916C0.164534 15.584 0.158204 15.4828 0.158204 15.3752C0.158204 6.89996 7.03204 0.0261224 15.5072 0.0261217C23.9824 0.026121 30.8563 6.89996 30.8563 15.3752Z" fill="white" fill-opacity="0.313726"/>
            <path d="M27.9765 16.0397C27.9765 22.6794 22.5901 28.0658 15.9505 28.0658C12.2224 28.0658 8.88673 26.3632 6.67774 23.6984C8.87407 26.072 12.0135 27.5594 15.5074 27.5594C22.147 27.5594 27.5334 22.173 27.5334 15.5334C27.5334 12.6218 26.5017 9.9571 24.7801 7.87469C26.7612 10.0204 27.9765 12.8877 27.9765 16.0397Z" fill="white" fill-opacity="0.313726"/>
            <path d="M15.5075 27.5594C22.1493 27.5594 27.5335 22.1752 27.5335 15.5334C27.5335 8.8916 22.1493 3.50735 15.5075 3.50735C8.86569 3.50735 3.48145 8.8916 3.48145 15.5334C3.48145 22.1752 8.86569 27.5594 15.5075 27.5594Z" fill="#2E81FF"/>
            <path d="M24.622 7.68482C22.5142 5.86826 19.7736 4.77325 16.7734 4.77325C10.1337 4.77325 4.74735 10.1597 4.74735 16.7993C4.74735 19.7995 5.84235 22.5402 7.65892 24.6479C5.1018 22.4389 3.48145 19.1792 3.48145 15.5334C3.48145 8.89376 8.86785 3.50735 15.5075 3.50735C19.147 3.50735 22.413 5.1277 24.622 7.68482Z" fill="#025EE8"/>
            <path d="M23.0396 12.856C22.9257 12.1534 22.6852 11.5015 22.3117 10.9065C21.7737 10.0584 21.0205 9.40642 20.0458 8.94437C19.071 8.48232 17.9507 8.25445 16.6911 8.25445L10.1591 8.25446L10.1591 16.0651L7.91211 16.0651L7.91211 19.1285L10.1591 19.1285L10.1591 19.7488L7.91211 19.7488L7.91211 22.7996L10.1591 22.7996L10.1591 24.7112L14.1277 24.7112L14.1277 22.7996L17.6595 22.7996L17.6595 19.7488L14.1213 19.7488L14.1213 19.1285L16.6088 19.1285C18.5963 19.1285 20.1787 18.6475 21.3496 17.6917C22.5206 16.736 23.1092 15.4321 23.1092 13.7801L23.1092 12.8307L23.0396 12.856ZM16.5519 16.0651L14.1213 16.0651L14.1213 11.3306L16.7228 11.3306C17.4507 11.3369 18.0266 11.5711 18.4507 12.0205C18.8748 12.4699 19.0837 13.0712 19.0837 13.8054C19.0837 15.3118 18.2419 16.0651 16.5519 16.0651Z" fill="#0474DB"/>
            <path d="M17.6595 21.8502L14.1213 21.8502L14.1213 23.7617L10.1527 23.7617L10.1527 21.8502L7.90576 21.8502L7.90576 18.7994L10.1527 18.7994L10.1527 18.1791L7.90576 18.1791L7.90576 15.1157L10.1527 15.1157L10.1527 7.30505L16.6848 7.30505C17.9443 7.30505 19.0583 7.53291 20.0394 7.99497C21.0142 8.45702 21.7737 9.10896 22.3054 9.95711C22.8434 10.8053 23.1092 11.761 23.1092 12.8307C23.1092 14.4827 22.5206 15.7866 21.3496 16.7423C20.1787 17.6981 18.5963 18.1791 16.6088 18.1791L14.1213 18.1791L14.1213 18.7994L17.6595 18.7994L17.6595 21.8502ZM14.1213 15.1157L16.5519 15.1157C18.2418 15.1157 19.0837 14.3624 19.0837 12.856C19.0837 12.1155 18.8748 11.5205 18.4507 11.0711C18.0266 10.6217 17.4506 10.3875 16.7228 10.3812L14.1213 10.3812L14.1213 15.1157Z" fill="#35A9FD"/>
            <path d="M15.6209 7.30505L10.1522 12.7737L10.1522 7.30505L15.6209 7.30505ZM23.1087 12.8307C23.1087 13.1219 23.0897 13.4004 23.0518 13.6725L18.7667 17.9576C18.1084 18.1095 17.3869 18.1791 16.6083 18.1791L14.1208 18.1791L14.1208 18.7994L17.659 18.7994L17.659 19.0653L14.8741 21.8502L14.1208 21.8502L14.1208 22.6035L12.9625 23.7617L10.1522 23.7617L10.1522 21.8502L8.6395 21.8502L15.3804 15.1157L16.5577 15.1157C18.2477 15.1157 19.0895 14.3624 19.0895 12.856C19.0895 12.4003 19.0072 11.9952 18.849 11.6534L21.5137 8.9887C21.8175 9.27986 22.0834 9.60266 22.3112 9.95711C22.8429 10.8053 23.1087 11.761 23.1087 12.8307ZM14.1208 15.1157L14.1778 15.1157L7.90527 21.3882L7.90527 19.2045L8.31036 18.7994L10.1522 18.7994L10.1522 18.1791L8.93065 18.1791L14.1208 12.9889L14.1208 15.1157ZM20.8428 8.45069L18.3363 10.9572C17.9312 10.5837 17.3932 10.3875 16.7286 10.3812L19.3807 7.72913C19.6085 7.80508 19.8237 7.8937 20.0389 7.99497C20.3238 8.12789 20.5959 8.2798 20.8428 8.45069Z" fill="white" fill-opacity="0.313726"/>
            <path d="M25.5395 8.89376C17.7542 11.6281 11.5006 17.6348 8.43717 25.2618C8.17133 25.0656 7.91182 24.8631 7.65864 24.6415C5.84207 22.5338 4.74707 19.7932 4.74707 16.7993C4.74707 10.1597 10.1335 4.77325 16.7731 4.77325C19.7733 4.77325 22.514 5.86826 24.6154 7.68482C24.9508 8.07092 25.2546 8.47601 25.5395 8.89376Z" fill="white" fill-opacity="0.145098"/>
        </symbol>
        <symbol id="icon-logotype" viewBox="0 0 26 27">
            <path d="M22.0791 7.89459C12.9191 4.33266 6.89862 7.03297 1.28859 21.3055L1.28668 21.3104C1.25168 21.3977 -1.87078 29.1687 1.74098 12.917C5.13388 -2.34999 21.2048 -1.04246 25.527 1.71633C26.0189 2.03026 26.1105 2.6492 25.8788 3.17523L24.1547 7.08926C23.8137 7.86337 22.883 8.20716 22.0791 7.89459Z" fill="currentColor"/>
            <path d="M21.3258 19.706C16.0571 21.7079 10.2414 18.6948 11.4946 12.5192C11.7523 11.2493 10.6387 10.0521 9.5532 10.8006C6.34992 13.0091 4.55228 17.0113 6.22986 20.756C6.26306 20.8301 6.30513 20.9032 6.3517 20.9701C11.384 28.2026 19.4536 28.0057 24.9328 25.1703C25.6855 24.7808 25.8739 23.8421 25.401 23.152L23.4245 20.2675C22.9745 19.6107 22.0815 19.4189 21.3258 19.706Z" fill="currentColor"/>
        </symbol>
        <symbol id="icon-menu" viewBox="0 0 24 17">
            <path d="M7.31962 2.13138V1.57537C7.31962 0.705317 8.02493 0 8.89499 0H22.4246C23.2947 0 24 0.705317 24 1.57537V2.13138C24 3.00143 23.2947 3.70675 22.4246 3.70675H8.89499C8.02493 3.70675 7.31962 3.00143 7.31962 2.13138Z" fill="currentColor"/>
            <path d="M7.31962 8.6182V8.06219C7.31962 7.19213 8.02493 6.48682 8.89499 6.48682H22.4246C23.2947 6.48682 24 7.19213 24 8.06219V8.6182C24 9.48825 23.2947 10.1936 22.4246 10.1936H8.89499C8.02493 10.1936 7.31962 9.48825 7.31962 8.6182Z" fill="currentColor"/>
            <path d="M7.31962 15.105V14.549C7.31962 13.6789 8.02493 12.9736 8.89499 12.9736H22.4246C23.2947 12.9736 24 13.6789 24 14.549V15.105C24 15.9751 23.2947 16.6804 22.4246 16.6804H8.89499C8.02493 16.6804 7.31962 15.9751 7.31962 15.105Z" fill="currentColor"/>
            <path d="M5.46624 8.10913V10.4246C5.46624 11.5957 4.23381 12.3574 3.18635 11.8337L0.870843 10.6759C-0.290281 10.0954 -0.290281 8.43839 0.870843 7.85783L3.18634 6.70008C4.23381 6.17634 5.46624 6.93803 5.46624 8.10913Z" fill="currentColor"/>
        </symbol>
        <symbol id="icon-jackpot-games" viewBox="0 43.554 496 424.892">
            <path fill="currentColor" d="M352.359 169.863 248.222 468.179l-.222.267-.225-.271L143.66 169.863zm-219.703-31.528 83.291-94.781H99.576zm205.387 7.531L248.109 43.554h-.217l-89.909 102.312zm58.408-102.312H280.06l83.307 94.774zM109.867 145.866 78.318 55.471.38 145.866zm267.908 23.997-85.71 245.53L496 169.863zm8.377-23.997h109.472l-77.916-90.397zm-267.909 23.997H0l203.938 245.534z" data-original="#000000"/>
        </symbol>
        <symbol id="icon-fullscreen" viewBox="0 0 16 16">
            <path d="M5.45454 7.84101e-08H4.72728C4.67951 -3.12964e-05 4.63221 0.00935331 4.58808 0.0276172C4.54394 0.045881 4.50384 0.0726659 4.47007 0.10644C4.4363 0.140214 4.40951 0.180315 4.39125 0.224448C4.37298 0.268582 4.3636 0.315884 4.36363 0.363647V4.36363H0.363647C0.315884 4.3636 0.268582 4.37298 0.224448 4.39125C0.180315 4.40951 0.140214 4.4363 0.10644 4.47007C0.0726659 4.50384 0.045881 4.54395 0.0276172 4.58808C0.0093533 4.63221 -3.12964e-05 4.67951 7.84101e-08 4.72728V5.45454C-3.12964e-05 5.5023 0.0093533 5.5496 0.0276172 5.59374C0.045881 5.63787 0.0726659 5.67797 0.10644 5.71175C0.140214 5.74552 0.180315 5.7723 0.224448 5.79057C0.268582 5.80883 0.315884 5.81822 0.363647 5.81819H5.45454C5.5023 5.81822 5.5496 5.80883 5.59374 5.79057C5.63787 5.7723 5.67797 5.74552 5.71174 5.71175C5.74552 5.67797 5.7723 5.63787 5.79057 5.59374C5.80883 5.5496 5.81822 5.5023 5.81818 5.45454V0.363647C5.81822 0.315884 5.80883 0.268582 5.79057 0.224448C5.7723 0.180315 5.74552 0.140214 5.71174 0.10644C5.67797 0.0726659 5.63787 0.045881 5.59374 0.0276172C5.5496 0.00935331 5.5023 -3.12964e-05 5.45454 7.84101e-08ZM15.6363 4.36363H11.6363V0.363647C11.6364 0.315887 11.627 0.268588 11.6087 0.224456C11.5905 0.180325 11.5637 0.140226 11.5299 0.106452C11.4961 0.0726784 11.456 0.0458929 11.4119 0.027627C11.3678 0.00936109 11.3205 -2.68141e-05 11.2727 7.84101e-08H10.5455C10.4977 -3.12964e-05 10.4504 0.00935331 10.4063 0.0276172C10.3621 0.045881 10.322 0.0726659 10.2883 0.10644C10.2545 0.140214 10.2277 0.180315 10.2094 0.224448C10.1912 0.268582 10.1818 0.315884 10.1818 0.363647V5.45454C10.1818 5.5023 10.1912 5.5496 10.2094 5.59374C10.2277 5.63787 10.2545 5.67797 10.2883 5.71175C10.322 5.74552 10.3621 5.7723 10.4063 5.79057C10.4504 5.80883 10.4977 5.81822 10.5455 5.81819H15.6363C15.6841 5.81822 15.7314 5.80883 15.7755 5.79057C15.8197 5.7723 15.8598 5.74552 15.8936 5.71175C15.9273 5.67797 15.9541 5.63787 15.9724 5.59374C15.9906 5.5496 16 5.5023 16 5.45454V4.72728C16 4.67952 15.9906 4.63222 15.9724 4.58809C15.9541 4.54396 15.9273 4.50386 15.8935 4.47009C15.8598 4.43632 15.8197 4.40953 15.7755 4.39127C15.7314 4.373 15.6841 4.36361 15.6363 4.36363ZM15.6363 10.1818H10.5454C10.4977 10.1818 10.4504 10.1912 10.4062 10.2094C10.3621 10.2277 10.322 10.2545 10.2882 10.2883C10.2544 10.322 10.2277 10.3621 10.2094 10.4063C10.1911 10.4504 10.1817 10.4977 10.1818 10.5455V15.6364C10.1817 15.6841 10.1911 15.7314 10.2094 15.7756C10.2277 15.8197 10.2544 15.8598 10.2882 15.8936C10.322 15.9273 10.3621 15.9541 10.4062 15.9724C10.4504 15.9906 10.4977 16 10.5454 16H11.2727C11.3204 16 11.3678 15.9906 11.4119 15.9724C11.456 15.9541 11.4961 15.9273 11.5299 15.8936C11.5637 15.8598 11.5905 15.8197 11.6087 15.7756C11.627 15.7314 11.6364 15.6841 11.6363 15.6364V11.6363H15.6363C15.6841 11.6364 15.7314 11.627 15.7755 11.6087C15.8196 11.5905 15.8597 11.5637 15.8935 11.5299C15.9273 11.4961 15.9541 11.456 15.9723 11.4119C15.9906 11.3678 16 11.3205 16 11.2727V10.5454C16 10.4977 15.9906 10.4504 15.9723 10.4062C15.9541 10.3621 15.9273 10.322 15.8935 10.2883C15.8598 10.2545 15.8197 10.2277 15.7755 10.2094C15.7314 10.1912 15.6841 10.1818 15.6363 10.1818ZM5.45454 10.1818H0.363647C0.315886 10.1818 0.268588 10.1912 0.224456 10.2094C0.180325 10.2277 0.140226 10.2545 0.106452 10.2882C0.0726784 10.322 0.0458928 10.3621 0.027627 10.4062C0.00936109 10.4504 -2.68141e-05 10.4977 7.84101e-08 10.5454V11.2727C-3.12964e-05 11.3205 0.0093533 11.3678 0.0276172 11.4119C0.045881 11.456 0.0726659 11.4961 0.10644 11.5299C0.140214 11.5637 0.180315 11.5905 0.224448 11.6087C0.268582 11.627 0.315884 11.6364 0.363647 11.6363H4.36363V15.6363C4.3636 15.6841 4.37298 15.7314 4.39125 15.7755C4.40951 15.8197 4.4363 15.8598 4.47007 15.8935C4.50384 15.9273 4.54394 15.9541 4.58808 15.9724C4.63221 15.9906 4.67951 16 4.72728 16H5.45454C5.5023 16 5.5496 15.9906 5.59374 15.9724C5.63787 15.9541 5.67797 15.9273 5.71174 15.8935C5.74552 15.8598 5.7723 15.8197 5.79057 15.7755C5.80883 15.7314 5.81822 15.6841 5.81818 15.6363V10.5454C5.81821 10.4977 5.80882 10.4504 5.79056 10.4062C5.77229 10.3621 5.74551 10.322 5.71173 10.2882C5.67796 10.2545 5.63786 10.2277 5.59373 10.2094C5.5496 10.1912 5.5023 10.1818 5.45454 10.1818Z" fill="currentColor"/>
        </symbol>
        <symbol id="icon-wallet" viewBox="0 0 512 512">
            <path fill="currentColor" d="M57.04 55.01h403.435c10.283 0 15.996 6.845 15.996 17.113 0 10.267-5.713 18.254-15.996 18.254H58.273c-13.252 0-23.995 10.726-23.995 23.958 0 13.232 10.743 23.959 23.995 23.959h418.198c20.568 0 26.281 6.845 26.281 6.845s9.141 5.705 9.141 24.529v49.629h-88.119a75.392 75.392 0 00-50.85 18.202 75.177 75.177 0 00-25.568 47.513 72.899 72.899 0 003.318 30.189 72.978 72.978 0 0015.333 26.23 73.122 73.122 0 0024.693 17.733 73.232 73.232 0 0029.783 6.167h91.41v48.478c0 14.524 1.715 23.957-8.57 34.227-10.286 10.27-18.59 8.566-33.136 8.566H54.846a54.888 54.888 0 01-38.782-16.04A54.72 54.72 0 010 401.839V109.772a54.687 54.687 0 011.097-10.953 56.213 56.213 0 0120.17-31.835A56.363 56.363 0 0157.04 55.009zm198.906 200.795c20.177 0 36.537 16.319 36.564 36.459v.1c-.027 20.14-16.387 36.458-36.564 36.458-20.193 0-36.563-16.345-36.563-36.508 0-20.163 16.37-36.509 36.563-36.509z" clip-rule="evenodd"></path>
            <path fill="currentColor" d="M394.629 318.129a36.479 36.479 0 01-10.71-25.815 36.479 36.479 0 0110.71-25.815 36.59 36.59 0 0125.854-10.694h91.41v73.017h-91.41a36.59 36.59 0 01-25.854-10.693z"></path>
        </symbol>
        <symbol id="icon-lock" viewBox="0 0 17 22">
            <path d="M15.676 9.11197H14.7509V5.99029C14.7509 2.68729 11.9467 0 8.49995 0C5.05335 0 2.24915 2.68729 2.24915 5.99034V9.11202H1.32413C0.592891 9.11202 0 9.6801 0 10.3809V20.7311C0 21.4319 0.592844 22 1.32413 22H15.676C16.4072 22 17 21.4319 17 20.7311V10.3809C17 9.68005 16.4072 9.11197 15.676 9.11197ZM9.90936 18.2012H7.09068L7.59516 15.8976C7.12338 15.6099 6.80825 15.1075 6.80825 14.5319C6.80825 13.6366 7.56573 12.9108 8.5 12.9108C9.43431 12.9108 10.1917 13.6366 10.1917 14.5319C10.1917 15.1075 9.87662 15.6099 9.40489 15.8975L9.90936 18.2012ZM12.5205 9.11197H4.47952V5.99029C4.47952 3.86562 6.28299 2.13738 8.5 2.13738C10.7171 2.13738 12.5205 3.86567 12.5205 5.99029V9.11197Z" fill="currentColor"/>
        </symbol>
        <symbol id="icon-timer" fill="currentColor" viewBox="0 0 18 18">
            <path d="M9 0.75C7.36831 0.75 5.77325 1.23385 4.41655 2.14038C3.05984 3.0469 2.00242 4.33537 1.378 5.84286C0.753575 7.35035 0.590197 9.00915 0.908525 10.6095C1.22685 12.2098 2.01259 13.6798 3.16637 14.8336C4.32016 15.9874 5.79017 16.7732 7.39051 17.0915C8.99085 17.4098 10.6497 17.2464 12.1571 16.622C13.6646 15.9976 14.9531 14.9402 15.8596 13.5835C16.7661 12.2268 17.25 10.6317 17.25 9C17.2474 6.81276 16.3774 4.71584 14.8308 3.16922C13.2842 1.6226 11.1872 0.75258 9 0.75ZM9 15.75C7.66498 15.75 6.35994 15.3541 5.2499 14.6124C4.13987 13.8707 3.27471 12.8165 2.76382 11.5831C2.25293 10.3497 2.11925 8.99251 2.3797 7.68314C2.64015 6.37377 3.28303 5.17103 4.22703 4.22703C5.17104 3.28302 6.37377 2.64015 7.68314 2.3797C8.99252 2.11925 10.3497 2.25292 11.5831 2.76381C12.8165 3.2747 13.8707 4.13987 14.6124 5.2499C15.3541 6.35993 15.75 7.66498 15.75 9C15.7478 10.7895 15.036 12.5052 13.7706 13.7706C12.5052 15.036 10.7895 15.7478 9 15.75Z"/>
            <path d="M9.75 8.6895V4.5C9.75 4.30109 9.67098 4.11032 9.53033 3.96967C9.38968 3.82902 9.19891 3.75 9 3.75C8.80109 3.75 8.61032 3.82902 8.46967 3.96967C8.32902 4.11032 8.25 4.30109 8.25 4.5V9C8.25004 9.1989 8.32909 9.38963 8.46975 9.53025L10.7198 11.7802C10.8612 11.9169 11.0507 11.9925 11.2473 11.9908C11.4439 11.989 11.6321 11.9102 11.7711 11.7711C11.9102 11.6321 11.989 11.4439 11.9908 11.2473C11.9925 11.0507 11.9169 10.8612 11.7802 10.7198L9.75 8.6895Z"/>
        </symbol>
        <symbol id="icon-map" viewBox="0 0 12 18">
            <path d="M6.00001 0C2.69167 0 0 2.69167 0 6.00001C0 6.99318 0.248309 7.9779 0.720351 8.85132L5.6719 17.8066C5.73782 17.926 5.86343 18 6.00001 18C6.13659 18 6.26221 17.926 6.32812 17.8066L11.2815 8.84837C11.7517 7.9779 12 6.99314 12 5.99998C12 2.69167 9.30836 0 6.00001 0ZM6.00001 9C4.34584 9 3.00002 7.65418 3.00002 6.00001C3.00002 4.34584 4.34584 3.00002 6.00001 3.00002C7.65418 3.00002 9 4.34584 9 6.00001C9 7.65418 7.65418 9 6.00001 9Z" fill="currentColor"/>
        </symbol>
        <symbol id="icon-arrow" viewBox="0 0 447.243 447.243">
            <path fill="currentColor" d="M420.361 192.229a32 32 0 0 0-5.535-.41H99.305l6.88-3.2a64 64 0 0 0 18.08-12.8l88.48-88.48c11.653-11.124 13.611-29.019 4.64-42.4-10.441-14.259-30.464-17.355-44.724-6.914a32 32 0 0 0-3.276 2.754l-160 160c-12.504 12.49-12.515 32.751-.025 45.255l.025.025 160 160c12.514 12.479 32.775 12.451 45.255-.063a32 32 0 0 0 2.745-3.137c8.971-13.381 7.013-31.276-4.64-42.4l-88.32-88.64a64 64 0 0 0-16-11.68l-9.6-4.32h314.24c16.347.607 30.689-10.812 33.76-26.88 2.829-17.445-9.019-33.88-26.464-36.71" data-original="#000000"/>
        </symbol>
        <symbol id="icon-mines" viewBox="0 0 512 512" fill="currentColor">
            <path d="M411.313 123.313c6.25-6.25 6.25-16.375 0-22.625s-16.375-6.25-22.625 0l-32 32-9.375 9.375-20.688-20.688c-12.484-12.5-32.766-12.5-45.25 0l-16 16c-1.261 1.261-2.304 2.648-3.31 4.051C240.326 132.865 216.741 128 192 128 86.133 128 0 214.133 0 320s86.133 192 192 192 192-86.133 192-192c0-24.741-4.864-48.327-13.426-70.065 1.402-1.007 2.79-2.049 4.051-3.31l16-16c12.5-12.492 12.5-32.758 0-45.25l-20.688-20.688 9.375-9.375zM192 224c-52.938 0-96 43.063-96 96 0 8.836-7.164 16-16 16s-16-7.164-16-16c0-70.578 57.422-128 128-128 8.836 0 16 7.164 16 16s-7.164 16-16 16m267.02-75.02c-6.25-6.25-16.375-6.25-22.625 0s-6.25 16.375 0 22.625l16 16a15.95 15.95 0 0 0 11.313 4.688 15.95 15.95 0 0 0 11.313-4.688c6.25-6.25 6.25-16.375 0-22.625zM340.395 75.605a15.95 15.95 0 0 0 11.313 4.688 15.95 15.95 0 0 0 11.313-4.688c6.25-6.25 6.25-16.375 0-22.625l-16-16c-6.25-6.25-16.375-6.25-22.625 0s-6.25 16.375 0 22.625zM400 64c8.844 0 16-7.164 16-16V16c0-8.836-7.156-16-16-16s-16 7.164-16 16v32c0 8.836 7.156 16 16 16m96 32.586h-32c-8.844 0-16 7.164-16 16s7.156 16 16 16h32c8.844 0 16-7.164 16-16s-7.156-16-16-16m-59.02-20.981a15.95 15.95 0 0 0 11.313 4.688 15.95 15.95 0 0 0 11.313-4.688l32-32c6.25-6.25 6.25-16.375 0-22.625s-16.375-6.25-22.625 0l-32 32c-6.251 6.25-6.251 16.375-.001 22.625" data-original="#000000"/>
        </symbol>
        <symbol id="icon-dice" viewBox="0 0 591.793 591.793" fill="currentColor">
            <path d="m320.232 288.578 229.47-144.723a100.46 100.46 0 0 0-34.36-32.742L346.187 13.479a100.56 100.56 0 0 0-100.581 0L76.45 111.113a100.45 100.45 0 0 0-31.075 28.02l237.369 149.446a35.29 35.29 0 0 0 37.488-.001m-63.756-156.245c-.007-21.771 17.637-39.426 39.409-39.433s39.426 17.637 39.433 39.409-17.637 39.426-39.409 39.433h-.012c-21.767-.001-39.415-17.643-39.421-39.409m37.186 175.955a49.8 49.8 0 0 1-18.901-7.041L37.501 151.862a100.5 100.5 0 0 0-11.353 46.389v195.328a100.61 100.61 0 0 0 50.302 87.102l169.156 97.658a100.4 100.4 0 0 0 48.068 13.454v-.097zM87.332 446.405c-15.773-11.618-28.152-37.561-28.152-58.129s12.44-28.986 28.213-18.406c16.256 10.87 29.807 37.512 29.807 59.179s-13.612 29.373-29.868 17.356m120.919-57.331c-15.773-11.667-28.213-37.561-28.213-58.129s12.44-28.986 28.213-18.406c16.256 10.87 29.795 37.512 29.795 59.24 0 21.727-13.539 29.312-29.795 17.295m348.517-232.067-228.553 144.24a49.8 49.8 0 0 1-19.577 7.162V591.02a100.4 100.4 0 0 0 37.549-12.669l169.156-97.67a100.6 100.6 0 0 0 50.302-87.114V198.251a100.4 100.4 0 0 0-8.877-41.244M373.602 533.495c-15.773 10.531-28.213 2.162-28.213-18.406s12.44-46.462 28.213-58.128c16.256-12.077 29.795-4.432 29.795 17.295s-13.538 48.382-29.795 59.239m0-143.286c-15.773 10.531-28.213 2.162-28.213-18.406s12.44-46.462 28.213-58.129c16.256-12.029 29.783-4.432 29.783 17.246s-13.526 48.432-29.783 59.289m132.26 57.706c-15.773 10.531-28.213 2.174-28.213-18.406s12.44-46.462 28.213-58.129c16.256-12.017 29.795-4.432 29.795 17.295s-13.539 48.382-29.795 59.24m0-143.286c-15.773 10.592-28.213 2.138-28.213-18.394s12.44-46.462 28.213-58.129c16.256-12.077 29.795-4.42 29.795 17.295s-13.539 48.37-29.795 59.228" data-original="#000000"/>
        </symbol>
        <symbol id="icon-coinflip" viewBox="0 0 24 24" fill="currentColor">
            <path d="M12 6C6.477 6 2 7.343 2 9s4.477 3 10 3 10-1.343 10-3-4.477-3-10-3m0 4c-3.314 0-6-.448-6-1s2.686-1 6-1 6 .448 6 1-2.686 1-6 1m10 2.054V15c0 1.657-4.477 3-10 3S2 16.657 2 15v-2.946c.85.512 1.9.886 3 1.165v2.353c.536.18 1.207.35 2 .5v-2.45a30 30 0 0 0 2 .242v2.487c.617.061 1.289.1 2 .122v-2.49c.42.013.768.017 1 .017s.58-.004 1-.018v2.491a30 30 0 0 0 2-.122v-2.487a31 31 0 0 0 2-.241v2.449a15 15 0 0 0 2-.5V13.22c1.1-.279 2.15-.653 3-1.165z" data-original="#000000"/>
        </symbol>
        <symbol id="icon-weather" fill="currentColor" viewBox="0 0 512 512">
            <path d="M184.543 82.108a10 10 0 0 1-10-10V38.553a10 10 0 0 1 20 0v33.555a10 10 0 0 1-10 10M114.059 101a10 10 0 0 1-8.67-5L88.611 66.937a10 10 0 0 1 17.321-10L122.709 86a10 10 0 0 1-8.65 15m-51.624 51.6a9.96 9.96 0 0 1-4.991-1.342l-29.06-16.778a10 10 0 1 1 10-17.32l29.06 16.778a10 10 0 0 1-5.009 18.662m-18.879 70.5H10a10 10 0 0 1 0-20h33.556a10 10 0 0 1 0 20m-10.162 87.268a10 10 0 0 1-5.01-18.661l29.06-16.778a10 10 0 0 1 10 17.321l-29.06 16.777a9.95 9.95 0 0 1-4.99 1.341M255.027 101a10 10 0 0 1-8.651-15l16.778-29.06a10 10 0 0 1 17.32 10L263.7 96a10 10 0 0 1-8.673 5m190.74 122.331A76.324 76.324 0 0 0 304.736 165.7a58.3 58.3 0 0 0-14.846-5.887 117.36 117.36 0 0 1 12.726 53.287q0 5.934-.581 11.725a96.373 96.373 0 0 1 90.536 106.205 84.2 84.2 0 0 1 29.711 20.323h15.45a64.261 64.261 0 0 0 8.035-128.018zm-246.483 36.898a78.6 78.6 0 0 1 20.609 2.756 96.2 96.2 0 0 1 61.9-37.128 99 99 0 0 0 .825-12.761 98.106 98.106 0 1 0-149.531 83.481 78.85 78.85 0 0 1 66.197-36.348" data-original="#000000"/>
            <path d="M369.088 345.429a76.323 76.323 0 0 0-141.03-57.629 58.515 58.515 0 0 0-85.1 35.055 76.671 76.671 0 1 0-20.342 150.6h238.438a64.261 64.261 0 0 0 8.034-128.018z" data-original="#000000"/>
        </symbol>
        <symbol id="icon-x50" fill="currentColor" viewBox="0 0 510 510">
            <path d="M255 146.459 313.229 30H375V0H135v30h61.77zm-94.164 235.177 56.293-72.377A44.8 44.8 0 0 1 212.58 300h-91.742c3.537 31.849 18.196 60.387 39.998 81.636" data-original="#000000"/>
            <circle cx="255" cy="285" r="15" data-original="#000000"/>
            <path d="m217.129 260.741-56.466-72.6c-21.852 21.282-36.354 49.918-39.841 81.858h91.758a45 45 0 0 1 4.549-9.258m108.376 139.34-56.304-72.391a44.8 44.8 0 0 1-28.402 0l-56.303 72.391c43.216 26.574 97.796 26.57 141.009 0M389.162 300H297.42a45 45 0 0 1-4.549 9.26l56.293 72.377c21.802-21.25 36.461-49.787 39.998-81.637" data-original="#000000"/>
            <path d="m326.029 71.482-27.211 54.422C368.866 145.152 420 209.215 420 285c0 90.982-74.019 165-165 165S90 375.982 90 285c0-75.888 51.233-139.875 121.182-159.096l-27.211-54.422C91.815 102.222 30 188.362 30 285c0 124.35 100.632 225 225 225 124.349 0 225-100.632 225-225 0-96.759-61.931-182.816-153.971-213.518" data-original="#000000"/>
            <path d="m255 213.541-30.09-60.181c-14.609 3.287-28.253 8.882-40.549 16.386l56.438 72.564a44.8 44.8 0 0 1 28.402 0l56.438-72.564c-12.296-7.504-25.939-13.099-40.549-16.386zm94.337-25.4-56.466 72.6a44.8 44.8 0 0 1 4.549 9.26h91.758c-3.487-31.941-17.989-60.577-39.841-81.86" data-original="#000000"/>
        </symbol>
        <symbol id="icon-jackpot" viewBox="0 0 409.6 409.6" fill="currentColor">
            <path d="M204.8 20.48c-11.315 0-20.48 9.165-20.48 20.48s9.165 20.48 20.48 20.48 20.48-9.165 20.48-20.48-9.165-20.48-20.48-20.48M40.96 348.16h327.68v40.96H40.96zm308.122-201.062c12.595 7.168 21.146 20.531 21.146 36.045 0 22.989-18.637 41.626-41.626 41.626-15.462 0-28.518-8.704-35.686-21.248 8.192-2.662 14.234-10.138 14.234-19.2 0-11.315-9.165-20.48-20.48-20.48s-20.48 9.165-20.48 20.48c0 8.653 5.427 15.974 13.056 18.995-4.096 1.382-8.448 2.202-13.056 2.202-22.989 0-41.626-18.637-41.626-41.626 0-19.712 13.722-36.096 32.051-40.448L204.8 61.44l-51.866 61.952c18.381 4.352 32.051 20.736 32.051 40.448 0 22.989-18.637 41.626-41.626 41.626-4.557 0-8.96-.819-13.056-2.202 7.629-2.97 13.056-10.291 13.056-18.995 0-11.315-9.165-20.48-20.48-20.48s-20.48 9.165-20.48 20.48c0 9.114 6.042 16.538 14.234 19.2-7.168 12.544-20.224 21.248-35.686 21.248-22.989 0-41.626-18.637-41.626-41.626 0-15.514 8.602-28.877 21.146-36.045L0 122.88 40.96 307.2h327.68l40.96-184.32zM204.8 286.72l-41.062-41.062 41.062-41.062 41.062 41.062z" data-original="#000000"/>
        </symbol>
        <symbol id="icon-upgrade" fill="currentColor" viewBox="0 0 44 44">
            <path d="M33.73 19.88h-6.64a1.85 1.85 0 0 0-1.6.92 9 9 0 0 1-1.71 2.2.73.73 0 0 0 .48 1.27h9.47a1.1 1.1 0 0 0 1.1-1.1V21a1.1 1.1 0 0 0-1.1-1.12m3.67-8.06H23.05a.73.73 0 0 0-.67.45.72.72 0 0 0 .16.8l2.62 2.61a1.82 1.82 0 0 0 1.3.54H37.4a1.1 1.1 0 0 0 1.1-1.1v-2.2a1.1 1.1 0 0 0-1.1-1.1M30.07 28H20.5a.74.74 0 0 0-.74.73v2.94a.74.74 0 0 0 .74.73h9.57a1.1 1.1 0 0 0 1.1-1.1v-2.2a1.1 1.1 0 0 0-1.1-1.1m-8.86-7.78h-4.89v13.51a1.1 1.1 0 0 1-1.1 1.1h-2.94a1.1 1.1 0 0 1-1.1-1.1V20.17H6.29a1.48 1.48 0 0 1-1-2.51l7-6.95a2.17 2.17 0 0 1 1.56-.65 2.2 2.2 0 0 1 1.56.65l7 7a1.47 1.47 0 0 1-1.06 2.51z" data-original="#000000"/>
        </symbol>
        <symbol id="icon-slot" fill="currentColor" viewBox="0 0 512 512">
            <path d="M120 150c22.91 0 43.09-6.254 59.754-14.234-16.918 31.832-27.055 68.68-29.066 106.68C83.043 249.706 30 306.456 30 376c0 74.441 60.559 136 135 136 22.934 0 44.902-6.46 64.605-17.27C199.04 464.766 180 422.086 180 376s19.04-87.766 49.605-117.73c-15.171-8.325-31.703-13.985-48.964-16.184 6.523-106.023 86.593-193.477 189.832-209.434C344.18 69.566 330 113.613 330 159.86v82.657C262.684 250.09 210 306.69 210 376c0 74.441 60.559 136 135 136s135-61.559 135-136c0-69.309-52.684-125.91-120-133.484v-82.657c0-50.714 19.746-98.394 55.605-134.254L441.211 0H405c-70.453 0-134.305 28.73-180.504 75.074C212.367 63.43 173.476 30 120 30 56.719 30 13.418 77.152 11.324 79.16L0 90l11.324 10.84C13.418 102.848 56.72 150 120 150m225 181c-24.813 0-45 20.188-45 45h-30c0-41.352 33.648-75 75-75zm-180 0c-24.813 0-45 20.188-45 45H90c0-41.352 33.648-75 75-75zm0 0" data-original="#000000"/>
        </symbol>
        <symbol id="" fill="currentColor">
            
        </symbol>
        <symbol id="" fill="currentColor">
            
        </symbol>
        <symbol id="">
            
        </symbol>
        <symbol id="">
            
        </symbol>
        <symbol id="">
            
        </symbol>
        <symbol id="">
            
        </symbol>
        <symbol id="">
            
        </symbol>
        <symbol id="">
            
        </symbol>
        <symbol id="">
            
        </symbol>
        <symbol id="">
            
        </symbol>
        <symbol id="">
            
        </symbol>
        <symbol id="">
            
        </symbol>
        <symbol id="">
            
        </symbol>
        <symbol id="">
            
        </symbol>
        <symbol id="">
            
        </symbol>
        <symbol id="">
            
        </symbol>
        <symbol id="">
            
        </symbol>
    </defs>
</svg>