<svg width="61" height="61" viewBox="0 0 61 61" fill="none" xmlns="http://www.w3.org/2000/svg">
<path d="M17.8642 12.1056L14.3024 8.53643C13.4761 7.70852 12.3771 7.25269 11.2075 7.25269C10.0378 7.25269 8.93878 7.70864 8.11266 8.53643L5.53076 11.1239C3.83122 12.8268 3.83122 15.5978 5.53076 17.3008L9.10009 20.8775C9.26591 21.0441 9.46306 21.1762 9.68017 21.2663C9.89729 21.3563 10.1301 21.4025 10.3651 21.4022C10.8218 21.4022 11.2787 21.2281 11.6275 20.8801C12.3262 20.1829 17.164 15.3292 17.8617 14.633C18.5602 13.9359 18.5614 12.8044 17.8642 12.1056Z" fill="#00D4E1"/>
<path d="M30.5 0.357422C29.513 0.357422 28.7129 1.15757 28.7129 2.14453V7.86328C28.7129 8.85024 29.513 9.65039 30.5 9.65039C31.487 9.65039 32.2871 8.85024 32.2871 7.86328V2.14453C32.2871 1.15757 31.487 0.357422 30.5 0.357422Z" fill="#4A98D0"/>
<path d="M34.9082 0H26.0918C25.1048 0 24.3047 0.800148 24.3047 1.78711C24.3047 2.77407 25.1048 3.57422 26.0918 3.57422H34.9082C35.8952 3.57422 36.6953 2.77407 36.6953 1.78711C36.6953 0.800148 35.8952 0 34.9082 0Z" fill="#3991D0"/>
<path d="M30.5 0H26.0918C25.1048 0 24.3047 0.800148 24.3047 1.78711C24.3047 2.77407 25.1048 3.57422 26.0918 3.57422H30.5V0Z" fill="#64BEFF"/>
<path d="M49.8775 14.1319C44.7018 8.94551 37.82 6.08911 30.4999 6.08911C23.1798 6.08911 16.298 8.94551 11.1223 14.1319C5.9475 19.3174 3.09766 26.2117 3.09766 33.5446C3.09766 40.8775 5.9475 47.7718 11.1223 52.9572C16.298 58.1437 23.1798 61.0001 30.4999 61.0001C37.82 61.0001 44.7018 58.1437 49.8775 52.9572C55.0523 47.7718 57.9021 40.8775 57.9021 33.5446C57.9021 26.2117 55.0523 19.3174 49.8775 14.1319Z" fill="#0083E1"/>
<path d="M30.4999 6.08911C23.1798 6.08911 16.298 8.94551 11.1223 14.1319C5.9475 19.3174 3.09766 26.2117 3.09766 33.5446C3.09766 40.8775 5.9475 47.7718 11.1223 52.9572C16.298 58.1437 23.1798 61.0001 30.4999 61.0001V6.08911Z" fill="#0083E1"/>
<path d="M30.4999 12.9314C19.1556 12.9314 9.92627 22.1784 9.92627 33.5445C9.92627 44.9106 19.1556 54.1577 30.4999 54.1577C41.8443 54.1577 51.0736 44.9106 51.0736 33.5445C51.0736 22.1784 41.8443 12.9314 30.4999 12.9314Z" fill="#9ED6FF"/>
<path d="M30.4999 12.9314C19.1556 12.9314 9.92627 22.1784 9.92627 33.5445C9.92627 44.9106 19.1556 54.1577 30.4999 54.1577V12.9314Z" fill="#F4F2E6"/>
<path d="M30.4999 17.3954C31.4869 17.3954 32.2871 16.5952 32.2871 15.6082V13.01C31.6979 12.959 31.1021 12.9314 30.4999 12.9314C29.8978 12.9314 29.302 12.959 28.7128 13.01V15.6082C28.7128 16.5952 29.513 17.3954 30.4999 17.3954ZM30.4999 49.6937C29.513 49.6937 28.7128 50.4938 28.7128 51.4808V54.079C29.302 54.13 29.8978 54.1576 30.4999 54.1576C31.1021 54.1576 31.6979 54.13 32.2871 54.079V51.4808C32.2871 50.4938 31.4869 49.6937 30.4999 49.6937ZM50.9955 31.7574H48.4362C47.4493 31.7574 46.6491 32.5575 46.6491 33.5445C46.6491 34.5315 47.4493 35.3316 48.4362 35.3316H50.9955C51.0462 34.7425 51.0736 34.1466 51.0736 33.5445C51.0736 32.9424 51.0462 32.3466 50.9955 31.7574ZM14.3508 33.5445C14.3508 32.5575 13.5506 31.7574 12.5637 31.7574H10.0044C9.95367 32.3466 9.92627 32.9424 9.92627 33.5445C9.92627 34.1466 9.95367 34.7425 10.0044 35.3316H12.5637C13.5506 35.3316 14.3508 34.5315 14.3508 33.5445ZM34.9082 32.5131H32.3869V25.2852C32.3869 24.2982 31.5868 23.4981 30.5998 23.4981C29.6128 23.4981 28.8127 24.2982 28.8127 25.2852V34.3002C28.8127 35.2872 29.6128 36.0873 30.5998 36.0873H34.9082C35.8951 36.0873 36.6953 35.2872 36.6953 34.3002C36.6953 33.3133 35.8951 32.5131 34.9082 32.5131Z" fill="#153D59"/>
</svg>
