<svg width="307" height="64" viewBox="0 0 307 64" fill="none" xmlns="http://www.w3.org/2000/svg">
<g clip-path="url(#clip0_233_289)">
<path d="M63.0326 39.7453C58.7586 56.8883 41.3955 67.3212 24.2505 63.0462C7.11254 58.7722 -3.32047 41.4083 0.95553 24.2663C5.22753 7.12125 22.5906 -3.31274 39.7306 0.961258C56.8746 5.23526 67.3066 22.6013 63.0326 39.7453Z" fill="#F7931A"/>
<path d="M46.1024 27.4453C46.7394 23.1873 43.4974 20.8983 39.0644 19.3713L40.5023 13.6033L36.9914 12.7283L35.5914 18.3443C34.6684 18.1143 33.7204 17.8973 32.7784 17.6823L34.1884 12.0293L30.6794 11.1543L29.2404 16.9203C28.4764 16.7463 27.7264 16.5743 26.9984 16.3933L27.0023 16.3753L22.1604 15.1663L21.2264 18.9163C21.2264 18.9163 23.8314 19.5133 23.7764 19.5503C25.1984 19.9053 25.4554 20.8463 25.4124 21.5923L23.7744 28.1633C23.8724 28.1883 23.9994 28.2243 24.1394 28.2803C24.0224 28.2513 23.8974 28.2193 23.7684 28.1883L21.4724 37.3933C21.2984 37.8253 20.8574 38.4733 19.8634 38.2273C19.8984 38.2783 17.3114 37.5903 17.3114 37.5903L15.5684 41.6093L20.1374 42.7483C20.9874 42.9613 21.8204 43.1843 22.6404 43.3943L21.1874 49.2283L24.6944 50.1033L26.1334 44.3313C27.0914 44.5913 28.0214 44.8313 28.9314 45.0573L27.4974 50.8023L31.0084 51.6773L32.4614 45.8543C38.4484 46.9873 42.9504 46.5303 44.8454 41.1153C46.3724 36.7553 44.7694 34.2403 41.6194 32.6003C43.9134 32.0713 45.6414 30.5623 46.1024 27.4453ZM38.0804 38.6943C36.9954 43.0543 29.6544 40.6973 27.2744 40.1063L29.2024 32.3773C31.5824 32.9713 39.2144 34.1473 38.0804 38.6943ZM39.1664 27.3823C38.1764 31.3483 32.0664 29.3333 30.0844 28.8393L31.8324 21.8293C33.8144 22.3233 40.1974 23.2453 39.1664 27.3823Z" fill="white"/>
<path d="M93.7727 19.3653C96.3677 19.3653 98.6097 19.8303 100.494 20.7433C102.387 21.6653 103.949 22.9073 105.202 24.4693C106.438 26.0393 107.358 27.8743 107.952 29.9773C108.542 32.0863 108.838 34.3533 108.838 36.7803C108.838 40.5083 108.155 44.0303 106.776 47.3503C105.397 50.6753 103.526 53.5593 101.146 56.0193C98.7677 58.4763 95.9597 60.4133 92.7217 61.8443C89.4887 63.2763 85.9737 63.9923 82.1997 63.9923C81.7117 63.9923 80.8537 63.9783 79.6417 63.9533C78.4297 63.9283 77.0367 63.8033 75.4767 63.5923C73.9067 63.3733 72.2467 63.0493 70.4937 62.6153C68.7417 62.1893 67.0777 61.5923 65.5107 60.8343L79.5227 1.95831L92.0727 0.0133057L87.0557 20.9063C88.1297 20.4223 89.2117 20.0473 90.2917 19.7743C91.3727 19.5053 92.5327 19.3653 93.7727 19.3653ZM83.2457 54.0363C85.1357 54.0363 86.9167 53.5713 88.5897 52.6583C90.2677 51.7443 91.7157 50.5103 92.9287 48.9733C94.1417 47.4293 95.1017 45.6903 95.8017 43.7473C96.5017 41.8043 96.8557 39.7773 96.8557 37.6683C96.8557 35.0773 96.4227 33.0563 95.5597 31.5953C94.6967 30.1403 93.0997 29.4083 90.7807 29.4083C90.0207 29.4083 89.0417 29.5533 87.8277 29.8123C86.6097 30.0873 85.5197 30.6583 84.5427 31.5173L79.2007 53.7053C79.5227 53.7623 79.8077 53.8163 80.0507 53.8673C80.2887 53.9223 80.5517 53.9613 80.8137 53.9883C81.0907 54.0193 81.4077 54.0353 81.7907 54.0353C82.1737 54.0353 82.6527 54.0363 83.2457 54.0363Z" fill="white"/>
<path d="M121.852 62.8652H109.865L119.988 20.2682H132.057L121.852 62.8652ZM127.685 15.0782C126.012 15.0782 124.495 14.5802 123.149 13.5822C121.792 12.5902 121.12 11.0632 121.12 9.00525C121.12 7.87325 121.35 6.81123 121.806 5.80923C122.269 4.80923 122.874 3.94825 123.632 3.21625C124.389 2.49025 125.266 1.91024 126.262 1.47324C127.264 1.04324 128.33 0.828247 129.466 0.828247C131.138 0.828247 132.647 1.32625 133.998 2.32425C135.344 3.32725 136.021 4.85425 136.021 6.90125C136.021 8.03725 135.792 9.10324 135.332 10.1032C134.875 11.1032 134.27 11.9642 133.512 12.6962C132.761 13.4232 131.876 14.0012 130.882 14.4342C129.879 14.8712 128.817 15.0782 127.685 15.0782Z" fill="white"/>
<path d="M142.562 9.65521L155.117 7.71021L152.034 20.2662H165.48L163.052 30.1442H149.687L146.127 45.0442C145.799 46.2862 145.613 47.4462 145.561 48.5242C145.502 49.6072 145.639 50.5372 145.963 51.3202C146.285 52.1052 146.864 52.7102 147.704 53.1382C148.54 53.5732 149.737 53.7922 151.307 53.7922C152.6 53.7922 153.86 53.6692 155.078 53.4252C156.289 53.1852 157.516 52.8512 158.758 52.4142L159.652 61.6502C158.032 62.2442 156.278 62.7552 154.388 63.1852C152.495 63.6212 150.254 63.8312 147.664 63.8312C143.94 63.8312 141.053 63.2782 138.996 62.1772C136.942 61.0682 135.49 59.5532 134.621 57.6352C133.764 55.7242 133.381 53.5212 133.488 51.0392C133.599 48.5512 133.974 45.9362 134.621 43.1822L142.562 9.65521Z" fill="white"/>
<path d="M164.952 45.8553C164.952 42.1863 165.546 38.7263 166.733 35.4873C167.918 32.2453 169.625 29.4103 171.84 26.9773C174.047 24.5563 176.736 22.6383 179.901 21.2303C183.051 19.8303 186.578 19.1243 190.465 19.1243C192.898 19.1243 195.071 19.3543 196.983 19.8153C198.903 20.2803 200.64 20.8813 202.211 21.6353L198.077 31.0353C196.997 30.5973 195.876 30.2113 194.717 29.8613C193.557 29.5043 192.141 29.3323 190.466 29.3323C186.465 29.3323 183.302 30.7113 180.948 33.4603C178.603 36.2113 177.422 39.9143 177.422 44.5593C177.422 47.3123 178.016 49.5383 179.208 51.2413C180.394 52.9443 182.585 53.7913 185.766 53.7913C187.336 53.7913 188.851 53.6273 190.302 53.3073C191.764 52.9833 193.055 52.5753 194.192 52.0933L195.087 61.7293C193.571 62.3173 191.899 62.8483 190.065 63.3133C188.227 63.7623 186.039 63.9953 183.502 63.9953C180.153 63.9953 177.318 63.5053 174.999 62.5403C172.679 61.5603 170.762 60.2593 169.252 58.6113C167.734 56.9593 166.644 55.0303 165.97 52.8163C165.296 50.6043 164.952 48.2803 164.952 45.8553Z" fill="white"/>
<path d="M218.202 63.9953C215.341 63.9953 212.856 63.5593 210.748 62.6963C208.646 61.8333 206.905 60.6223 205.528 59.0523C204.149 57.4903 203.117 55.6393 202.41 53.5063C201.703 51.3743 201.363 49.0133 201.363 46.4263C201.363 43.1813 201.884 39.9373 202.937 36.7023C203.985 33.4603 205.54 30.5473 207.598 27.9583C209.64 25.3653 212.159 23.2453 215.125 21.5923C218.088 19.9503 221.496 19.1243 225.324 19.1243C228.133 19.1243 230.605 19.5613 232.742 20.4243C234.869 21.2853 236.621 22.5063 238.006 24.0683C239.376 25.6383 240.417 27.4813 241.117 29.6173C241.822 31.7453 242.17 34.1123 242.17 36.7013C242.17 39.9363 241.656 43.1803 240.636 46.4253C239.615 49.6543 238.1 52.5743 236.1 55.1693C234.104 57.7583 231.608 59.8773 228.61 61.5233C225.616 63.1693 222.144 63.9953 218.202 63.9953ZM224.193 29.3333C222.416 29.3333 220.845 29.8493 219.5 30.8683C218.15 31.8993 217.016 33.1953 216.102 34.7583C215.178 36.3283 214.493 38.0403 214.03 39.9013C213.571 41.7663 213.346 43.5293 213.346 45.2043C213.346 47.9073 213.782 50.0123 214.639 51.5273C215.508 53.0343 217.069 53.7923 219.338 53.7923C221.121 53.7923 222.684 53.2803 224.037 52.2503C225.379 51.2273 226.514 49.9303 227.435 48.3643C228.353 46.8023 229.044 45.0853 229.507 43.2213C229.96 41.3623 230.191 39.5893 230.191 37.9173C230.191 35.2213 229.757 33.1113 228.892 31.5983C228.028 30.0913 226.46 29.3333 224.193 29.3333Z" fill="white"/>
<path d="M255.232 62.8652H243.235L253.358 20.2682H265.433L255.232 62.8652ZM261.056 15.0782C259.384 15.0782 257.868 14.5802 256.524 13.5822C255.174 12.5902 254.496 11.0632 254.496 9.00525C254.496 7.87325 254.729 6.81123 255.186 5.80923C255.643 4.80923 256.252 3.94825 257.01 3.21625C257.763 2.49025 258.648 1.91024 259.642 1.47324C260.638 1.04324 261.704 0.828247 262.836 0.828247C264.512 0.828247 266.026 1.32625 267.374 2.32425C268.723 3.32725 269.404 4.85425 269.404 6.90125C269.404 8.03725 269.162 9.10324 268.709 10.1032C268.256 11.1032 267.647 11.9642 266.892 12.6962C266.132 13.4232 265.258 14.0012 264.262 14.4342C263.258 14.8712 262.194 15.0782 261.056 15.0782Z" fill="white"/>
<path d="M274.073 22.2053C274.983 21.9393 275.999 21.6193 277.104 21.2713C278.213 20.9233 279.452 20.5993 280.836 20.3073C282.205 20.0063 283.75 19.7623 285.449 19.5733C287.148 19.3803 289.084 19.2863 291.235 19.2863C297.557 19.2863 301.915 21.1273 304.321 24.7983C306.725 28.4693 307.141 33.4933 305.581 39.8613L300.067 62.8613H288.001L293.345 40.3453C293.671 38.9393 293.927 37.5803 294.116 36.2523C294.307 34.9363 294.296 33.7763 294.073 32.7723C293.86 31.7803 293.358 30.9683 292.579 30.3393C291.788 29.7203 290.593 29.4093 288.972 29.4093C287.409 29.4093 285.819 29.5773 284.196 29.9013L276.339 62.8603H264.268L274.073 22.2053Z" fill="white"/>
</g>
<defs>
<clipPath id="clip0_233_289">
<rect width="306.5" height="64.001" fill="white"/>
</clipPath>
</defs>
</svg>
