<svg width="512" height="512" viewBox="0 0 512 512" fill="none" xmlns="http://www.w3.org/2000/svg">
<g clip-path="url(#clip0_233_160)">
<path d="M256 512C397.385 512 512 397.385 512 256C512 114.615 397.385 0 256 0C114.615 0 0 114.615 0 256C0 397.385 114.615 512 256 512Z" fill="#988430"/>
<path d="M256 503.8C392.856 503.8 503.8 392.856 503.8 256C503.8 119.144 392.856 8.2002 256 8.2002C119.144 8.2002 8.2002 119.144 8.2002 256C8.2002 392.856 119.144 503.8 256 503.8Z" fill="#7A6A2A"/>
<path d="M256 498.579C389.972 498.579 498.578 389.973 498.578 256C498.578 122.027 389.972 13.4213 256 13.4213C122.027 13.4213 13.4209 122.027 13.4209 256C13.4209 389.973 122.027 498.579 256 498.579Z" fill="#BA9F33"/>
<path fill-rule="evenodd" clip-rule="evenodd" d="M111.927 228.661C110.477 227.336 108.945 226.009 107.536 224.685C106.127 223.36 104.68 222.033 103.23 220.709L98.9207 216.613C98.2161 215.908 97.4707 215.288 96.7662 214.581C96.0616 213.961 95.2343 213.257 94.5297 212.634C88.8117 207.208 83.0609 201.783 77.4221 196.354C83.263 201.698 88.981 207.004 94.8219 212.427L96.8508 214.458C97.5553 215.16 98.3008 215.783 99.0053 216.487L103.312 220.463C104.762 221.787 106.171 223.115 107.621 224.559C109.071 226.004 110.48 227.333 111.93 228.655L111.927 228.661ZM36.0389 227.841C36.0389 227.841 56.8329 229.993 66.9828 231.443C76.3845 232.77 105.796 237.284 105.796 237.284L36.0389 227.841ZM36.0389 227.841C41.8798 228.338 47.7207 228.958 53.5615 229.581C56.5434 229.87 59.4024 230.201 62.2615 230.49L66.6496 230.99C68.0996 231.195 69.5086 231.402 70.9586 231.61L88.3584 234.384L97.0556 235.834C99.9146 236.331 102.774 236.872 105.756 237.369C102.897 237.079 99.9146 236.664 97.0556 236.249L88.3584 235.007L70.9586 232.44C69.5086 232.232 68.0996 231.94 66.6496 231.735L62.2587 231.23C59.3997 230.941 56.4178 230.526 53.5588 230.192C47.7179 229.491 41.877 228.742 36.0361 227.833L36.0389 227.841ZM103.727 242.702C103.727 242.702 81.5236 248.338 74.0252 250.492C66.6524 252.521 44.3237 259.315 44.3237 259.315L103.724 242.704L103.727 242.702Z" fill="#CFB66C"/>
<path fill-rule="evenodd" clip-rule="evenodd" d="M103.725 242.702C98.796 244.152 93.8944 245.561 88.8946 246.888L74.0643 250.864C69.1355 252.314 64.2339 253.723 59.3187 255.173L51.9459 257.202C49.502 257.906 47.0171 258.526 44.4912 259.233C46.9324 258.414 49.4201 257.576 51.864 256.871L59.2368 254.512C64.1657 252.977 69.0672 251.527 73.9824 249.995C78.9932 248.753 83.9248 247.426 88.9355 246.224C93.6978 245.023 98.7113 243.824 103.725 242.704V242.702ZM47.4321 272.985C49.8734 272.073 78.0429 258.944 84.5883 255.877C87.8651 254.342 97.3897 250.962 97.3897 250.962L47.4321 272.985Z" fill="#CFB66C"/>
<path fill-rule="evenodd" clip-rule="evenodd" d="M47.4314 272.985C49.5832 272.166 51.6148 271.163 53.6847 270.21L59.815 267.351L72.1194 261.429C76.2154 259.482 80.1967 257.333 84.4211 255.503C86.5755 254.594 88.73 253.848 90.8818 253.144L94.1586 252.109C95.2755 251.819 96.3131 251.486 97.4354 251.197C93.3394 253.144 89.0277 254.801 84.9262 256.705C80.8302 258.736 76.6414 260.394 72.4143 262.215L59.9051 267.723C55.7054 269.424 51.6094 271.245 47.4287 272.985H47.4314ZM50.1621 284.454C50.1621 284.454 75.6775 269.5 84.4593 264.694C89.0577 262.128 103.929 254.752 103.929 254.752L50.1621 284.454Z" fill="#CFB66C"/>
<path fill-rule="evenodd" clip-rule="evenodd" d="M50.165 284.459C54.4713 281.808 58.8622 279.115 63.2531 276.382L69.8067 272.403C72.0431 271.079 74.1976 269.836 76.4777 268.512C78.7142 267.185 80.8687 265.86 83.146 264.618C84.2302 263.949 85.3661 263.367 86.543 262.879L90.0219 261.139C94.6203 258.903 99.2187 256.623 104.066 254.676C99.6748 257.453 95.1582 259.815 90.6444 262.256C88.408 263.498 86.1279 264.618 83.8915 265.86C81.6551 267.103 79.5006 268.43 77.2205 269.632C74.9841 270.956 72.8296 272.198 70.5522 273.4L63.7993 277.086L50.1705 284.459H50.165ZM103.724 258.029C103.724 258.029 87.8592 270.208 82.7228 274.102C77.5864 277.996 62.4667 288.932 62.4667 288.932L103.724 258.029Z" fill="#CFB66C"/>
<path fill-rule="evenodd" clip-rule="evenodd" d="M194.775 356.246L186.657 340.877L191.379 321.656L225.056 308.65L210.723 279.241L217.806 249.539L231.104 222.943L272.198 216.482L302.394 187.692L367.597 192.621L380.395 262.338L355.748 350.115L341.707 395.559L284.789 397.713L258.362 379.404L227.418 366.477L194.775 356.246Z" fill="#E2CC85"/>
<path fill-rule="evenodd" clip-rule="evenodd" d="M294.609 355.749C294.609 355.749 286.737 359.353 273.31 358.523C269.424 353.305 242.21 350.861 242.21 350.861C242.21 350.861 238.813 349.826 232.806 352.311C226.76 354.768 221.042 354.465 215.698 355.789C210.354 357.114 205.049 350.156 200.953 348.706C196.857 347.174 191.425 343.488 191.425 343.488L179.957 342.368L156.926 332.633L120.338 296.182L110.396 311.747L107.329 331.009L118.391 353.834L148.174 380.966L206.25 395.712L240.673 385.57L283.796 367.343L294.609 355.746V355.749Z" fill="#F1D789"/>
<path fill-rule="evenodd" clip-rule="evenodd" d="M88.274 226.921L95.6468 204.595L104.431 190.177L132.721 187.815L124.229 212.588L100.578 254.676L110.395 292.247L92.998 300.944L87.6514 292.744L83.3451 273.938L83.0557 252.811L88.274 226.921Z" fill="#F4ECB4"/>
<path fill-rule="evenodd" clip-rule="evenodd" d="M120.005 354.217L114.579 346.636C114.579 346.636 113.129 343.032 113.959 339.883C114.778 336.694 114.661 336.486 114.249 335.285C113.836 334.083 110.355 329.941 110.562 326.377C110.767 322.773 110.273 321.571 112.922 318.715C115.696 315.941 114.869 311.135 114.869 311.135L118.473 313.371L119.292 312.129C119.292 312.129 120.617 313.164 120.617 314.78C120.906 312.544 119.705 302.186 122.438 299.827C125.171 297.468 130.018 310.886 130.018 310.886L127.036 291.417L119.371 271.453L105.743 253.226L104.924 233.133V231.394C104.924 231.394 98.6676 241.006 96.9281 248.597C95.6857 253.815 98.6676 260.153 98.0477 267.652C97.548 275.109 96.9281 274.528 98.7495 277.482C100.571 280.437 105.005 286.512 103.266 290.903C101.734 294.674 96.5131 292.023 96.5131 292.023C96.5131 292.023 95.4781 295.087 94.0691 296.206C93.5721 294.385 93.0342 293.224 92.0402 292.11C91.9556 292.815 91.7508 293.768 91.7508 293.768C91.7508 293.768 90.8387 290.909 89.9267 287.304C88.687 282.501 87.3599 276.163 86.1584 272.766C85.6614 274.713 84.4189 280.636 84.4189 280.636L85.1235 289.751L88.5204 302.26L91.7972 310.452L94.9866 320.476L97.7583 327.21L99.9947 332.347L101.942 343.906L111.343 353.845L116.357 356.084L120 354.219L120.005 354.217Z" fill="#F3E19D"/>
<path fill-rule="evenodd" clip-rule="evenodd" d="M93.2035 208.694C93.2035 208.694 86.4506 220.163 84.5064 231.724C82.5621 243.286 80.82 255.503 82.0488 271.243C83.2912 287.111 85.6532 296.843 87.5592 303.803C90.836 315.362 99.323 331.435 99.323 331.435L99.6124 330.812C98.1859 328.108 97.0473 325.262 96.2155 322.32C95.0959 317.929 94.6808 312.711 93.6459 310.348C92.7339 307.989 91.202 305.958 90.4565 303.058C89.752 300.283 89.6373 295.892 87.4746 292.621C86.5626 291.294 85.443 287.815 85.1126 284.336C84.6975 279.115 85.3201 273.274 84.8231 268.471C83.9111 260.476 83.2912 255.05 84.1186 250.864C84.946 246.678 89.2577 234.794 91.9092 225.348C93.6486 219.3 92.611 214.204 95.8004 208.942C98.9898 203.724 100.94 199.126 101.641 195.936C102.46 193.036 93.1926 208.694 93.1926 208.694H93.2035Z" fill="#F2E8B0"/>
<path fill-rule="evenodd" clip-rule="evenodd" d="M125.226 204.095C125.226 204.095 121.747 205.133 120.089 206.954C118.432 208.694 117.727 210.144 115.491 213.085C113.254 216.026 113.129 218.429 111.305 222.115C109.483 225.72 105.464 231.145 104.967 233.092C104.47 235.039 103.642 244.152 102.607 248.461C101.695 252.77 103.642 258.073 103.642 258.073L106.002 257.573C106.002 257.573 106.002 260.639 108.364 262.712C110.723 264.741 111.138 255.833 111.138 255.833L119.961 226.05L133.256 217.02L134.706 209.729L125.22 204.095H125.226Z" fill="#F5EEC0"/>
<path fill-rule="evenodd" clip-rule="evenodd" d="M131.687 217.601C131.687 217.601 125.431 218.014 122.367 220.253C121.125 221.162 120.628 221.908 119.303 223.027C116.859 225.056 114.372 226.921 113.173 229.581C111.846 232.23 110.396 236.249 109.402 243.829C108.987 247.019 108.987 249.96 108.697 252.529C108.282 256.008 107.662 258.783 107.993 260.721C108.408 264.697 112.509 266.77 112.908 271.283L121.4 266.977L129.396 235.452L146.381 224.802L136.769 214.032L131.676 217.582L131.687 217.601Z" fill="#E6DB9D"/>
<path fill-rule="evenodd" clip-rule="evenodd" d="M86.8846 429.886C86.9201 429.575 86.9556 429.263 86.9911 428.944C88.2308 418.294 88.441 410.223 89.3504 405.168C90.6747 398.003 91.5868 395.338 91.3792 392.656C91.0898 388.35 90.7594 385.201 91.1744 381.886C91.7943 377.496 96.1033 372.277 95.9804 368.673C95.8958 365.814 94.4458 363.951 93.2033 362.212C91.9609 360.473 90.9669 359.023 90.9669 359.023C90.9669 359.023 99.4593 353.182 99.3774 329.651C99.5508 329.7 99.7177 329.77 99.8743 329.859L104.058 341.746L106.917 345.224L117.894 365.688L132.02 379.402L152.896 393.443L165.987 407.688L167.311 445.675L150.203 467.878L147.402 472.951C125.143 461.777 104.732 447.252 86.8818 429.883L86.8846 429.886Z" fill="#E5CB7A"/>
<path fill-rule="evenodd" clip-rule="evenodd" d="M139.144 466.226C139.144 466.226 139.433 461.504 143.327 458.438C143.95 459.473 144.362 460.47 144.239 461.212C144.943 459.973 149.872 452.018 161.016 449.946C172.16 447.917 174.852 439.798 174.852 439.798L198.503 418.3L225.553 393.404L258.444 381.845L273.815 378.074C273.815 378.074 274.104 379.194 273.525 381.679C276.381 381.474 282.719 380.024 289.306 377.703C291.957 376.668 294.445 376.253 295.769 377.621C297.716 379.443 298.006 383.751 298.128 386.318C301.318 385.614 305.004 382.55 307.959 382.839C312.683 383.336 316.866 388.888 321.672 388.888C328.01 388.888 330.866 384.994 335.301 381.927C337.952 380.106 341.762 377.831 343.916 376.294C349.053 372.523 403.401 355.912 403.401 355.912L422.456 357.155L425.522 377.618L423.884 431.112C423.682 431.306 423.48 431.508 423.275 431.702L336.636 476.952L216.542 495.362C189.64 490.967 163.679 482.037 139.766 468.954L139.152 466.223L139.144 466.226Z" fill="#D8C173"/>
<path fill-rule="evenodd" clip-rule="evenodd" d="M94.167 436.691C95.8737 433.122 97.4083 430.137 97.6786 429.07C97.8916 431.221 98.2821 435.943 99.0685 440.962C97.4174 439.558 95.7835 438.134 94.167 436.688V436.691Z" fill="#F1D789"/>
<path fill-rule="evenodd" clip-rule="evenodd" d="M181.895 487.034L197.427 482.714L198.751 483.129C198.751 483.129 199.456 483.544 199.456 484.95C201.403 483.833 203.061 484.038 204.262 483.295C204.882 484.62 205.502 489.011 208.238 489.549C211.094 490.171 214.161 488.306 217.268 485.947C220.332 483.503 223.822 480.436 226.462 479.194C227.431 480.975 228.289 482.815 229.032 484.702C232.511 481.927 238.559 470.66 247.174 470.865C249.665 464.981 253.825 459.955 259.14 456.409C267.136 450.983 272.146 450.568 278.402 451.065C280.887 447.838 283.949 445.099 287.433 442.988C288.468 443.403 291.327 445.142 294.89 443.485C298.495 441.83 302.552 435.408 307.896 434.58C310.776 434.184 313.704 434.799 316.181 436.32C316.181 436.32 331.746 420.867 342.486 415.73C342.071 414.488 341.243 409.808 353.834 399.45C354.539 400.073 354.042 401.812 354.539 401.908C354.744 401.908 357.816 400.583 361.704 397.599C366.51 393.997 372.266 390.226 375.745 389.191C382.299 387.244 389.251 391.22 389.251 391.22C389.842 390.805 390.501 390.497 391.198 390.308C392.853 390.018 394.054 389.811 394.966 389.489C394.884 391.643 396.086 395.33 394.966 398.519C396.263 399.248 397.637 399.832 399.062 400.258C398.361 401.79 396.826 405.684 394.259 407.549C396.411 408.584 396.7 409.786 399.767 410.826C398.524 412.566 396.49 415.55 395.583 417.38C394.671 419.327 391.397 427.404 389.947 430.468C388.415 433.534 386.346 439.168 385.349 440.298C384.352 441.429 380.75 446.221 377.976 448.58C380.434 447.668 390.488 444.604 394.753 443.444C393.484 445.306 387.047 454.855 380.86 464.039C351.233 481.796 318.162 493.035 283.851 497.007C249.54 500.979 214.776 497.593 181.876 487.075L181.895 487.034Z" fill="#E0CD81"/>
<path fill-rule="evenodd" clip-rule="evenodd" d="M132.711 216.482C132.711 216.482 129.109 216.482 128.404 216.979C127.7 217.476 132.009 218.513 133.333 219.01C134.658 219.507 137.517 221.785 138.262 223.609C138.967 225.348 164.152 235.495 164.152 235.495L181.964 234.583L188.105 226.099L176.423 215.867L184.615 191.717L173.764 193.457L147.667 209.022L134.576 214.035L132.711 216.482Z" fill="#DFC57C"/>
<path fill-rule="evenodd" clip-rule="evenodd" d="M171.827 224.477C172.085 224.894 172.447 225.236 172.879 225.468C173.31 225.701 173.795 225.816 174.285 225.802C177.971 225.802 181.365 226.714 182.774 228.576C185.136 231.56 191.682 241.088 191.682 241.088L207.339 246.721L208.35 228.284L191.242 216.397L171.772 223.562V224.474H171.816L171.827 224.477Z" fill="#E5CC7C"/>
<path fill-rule="evenodd" clip-rule="evenodd" d="M168.755 231.312C168.755 231.312 171.612 231.52 175.216 230.192C178.821 228.865 184.743 226.009 187.313 227.129C190.915 228.661 190.169 233.467 194.066 237.778C196.425 240.43 200.734 240.348 203.178 243.207C205.622 246.066 214.03 244.739 214.03 244.739L217.219 261.942L204.421 278.348L200.235 298.727H182.928L167.117 292.454L159.329 273.613L163.223 254.558L168.755 231.312Z" fill="#D2C281"/>
<path fill-rule="evenodd" clip-rule="evenodd" d="M202.234 232.139C202.663 232.272 203.109 232.342 203.558 232.347C203.061 232.762 202.023 233.671 202.438 236.033C202.853 238.395 204.178 241.377 203.061 243.199C203.953 244.173 204.617 245.334 205.008 246.596C205.712 248.627 205.92 250.489 210.516 250.782C209.852 251.19 209.241 251.677 208.694 252.232C208.694 252.232 211.884 255.006 213.5 257.573C215.155 257.502 219.546 256.137 219.546 256.137L220.458 256.759L222.405 255.94C222.405 255.94 220.584 255.235 221.908 250.804C223.15 246.91 224.27 247.117 224.366 246.828C224.461 246.538 225.278 242.437 225.278 240.779C225.898 238.627 226.395 232.082 226.395 232.082L225.07 217.626L217.615 213.109L211.553 207.258L205.835 218.027L202.07 221.782L201.78 231.102L202.234 232.139Z" fill="#E2C270"/>
<path fill-rule="evenodd" clip-rule="evenodd" d="M220.168 220.045C220.168 220.045 221.492 223.814 221.992 226.714C222.168 226.15 222.266 225.565 222.282 224.974C222.282 224.974 223.316 230.692 223.521 233.054C223.936 232.97 224.34 232.847 224.433 233.259C224.526 233.671 225.471 238.273 225.252 240.839C226.977 237.994 229.364 235.607 232.21 233.882C233.868 232.844 235.815 231.727 237.846 231.642C241.036 231.561 243.354 233.674 247.166 233.674C256.36 233.674 264.689 226.921 270.819 224.851C275.333 223.317 279.227 222.2 281.96 219.712C283.287 218.595 285.649 216.11 287.801 212.421C290.66 207.506 293.642 203.227 296.627 202.689C295.276 202.937 293.902 203.034 292.531 202.979C292.531 202.979 293.443 202.067 294.988 200.824C296.534 199.582 298.385 198.05 301.034 198.05C305.758 198.05 308.117 198.752 310.769 198.752C313.42 198.67 314.952 198.05 314.952 198.05C314.952 198.05 317.729 199.997 323.982 199.997C330.238 200.079 334.422 200.617 337.696 200.909C340.97 201.201 351.944 199.997 355.093 200.09C357.146 200.169 359.161 200.662 361.018 201.54L350.869 172.048L314.409 140.182L292.703 155.55L259.312 188.938L227.003 200.909L220.25 208.489V220.045H220.168Z" fill="#CCB360"/>
<path fill-rule="evenodd" clip-rule="evenodd" d="M292.662 203.142C292.662 203.142 293.574 202.233 295.103 200.991C296.632 199.748 298.502 198.214 301.151 198.214C305.872 198.214 308.235 198.918 310.886 198.918C313.537 198.836 315.069 198.214 315.069 198.214C315.069 198.214 317.849 200.158 324.1 200.158C330.356 200.24 334.539 200.778 337.813 201.067C341.087 201.357 352.062 200.158 355.21 200.248C357.262 200.325 359.277 200.819 361.133 201.698L356.535 188.4L351.193 178.252L335.948 161.557C335.948 161.557 317.653 150.787 317.513 150.705C317.431 150.624 311.175 148.966 311.175 148.966L294.606 158.99L279.571 197.889L279.281 206.081L289.013 210.679C291.457 206.583 294.152 203.306 296.678 202.891C294.398 203.14 292.659 203.14 292.659 203.14L292.662 203.142Z" fill="#D5B457"/>
<path fill-rule="evenodd" clip-rule="evenodd" d="M292.454 205.92C291.004 206.002 289.805 205.712 289.472 204.677C288.23 201.198 287.236 200.701 286.195 200.701C285.155 200.701 283.751 202.938 282.918 203.143C282.086 203.347 281.097 200.576 281.097 200.576L280.185 200.161C280.185 200.161 274.841 203.64 271.073 207.741C267.304 211.842 261.13 218.803 258.356 220.043C255.582 221.282 246.052 221.7 242.791 222.405C239.531 223.109 235.915 225.471 235.418 226.009C234.922 226.547 236.871 227.126 237.161 227.664C237.45 228.161 233.969 227.953 233.679 228.483C233.474 228.898 234.498 231.257 235.006 232.459C235.895 232.017 236.87 231.777 237.862 231.754C241.052 231.673 243.373 233.786 247.182 233.786C256.379 233.786 264.705 227.033 270.835 224.961C275.352 223.429 279.246 222.309 281.979 219.824C283.303 218.707 285.665 216.22 287.82 212.533C289.393 210.007 290.927 207.645 292.462 205.906L292.454 205.92Z" fill="#D2B257"/>
<path fill-rule="evenodd" clip-rule="evenodd" d="M160.563 410.927C160.563 410.927 159.744 407.861 152.153 399.95C149.998 397.713 148.674 395.854 147.224 394.524C143.619 391.124 141.506 390.215 138.939 388.268C133.306 384.085 127.175 384.085 122.454 378.948C117.733 373.812 112.23 363.998 108.408 353.968C104.639 343.944 103.602 340.754 103.602 340.465C103.602 340.176 104.639 338.229 105.964 338.518C107.288 338.807 107.288 341.374 107.621 341.997C108.281 343.013 109.029 343.969 109.858 344.853C111.804 347.092 114.579 349.768 115.988 353.761C115.698 350.364 114.538 346.595 114.538 346.595C114.538 346.595 121.829 351.194 128.041 355.997C134.297 360.803 136.864 362.461 138.691 365.524C140.517 368.588 144.821 376.668 146.883 379.03C148.944 381.392 177.193 390.297 177.193 390.297L190.631 400.316L197.302 414.938L192.081 423.13L182.056 425.285L165.776 417.994L160.563 410.924V410.927Z" fill="#D2B159"/>
<path fill-rule="evenodd" clip-rule="evenodd" d="M124.396 360.554C124.396 360.554 127.792 365.98 136.077 371.117C143.535 375.633 155.339 379.735 165.863 382.179C171.909 383.629 177.958 384.745 183.383 384.83C198.006 385.035 208.071 380.854 220.542 379.486C227.295 378.782 235.58 378.244 244.195 376.209C255.255 373.558 261.8 370.573 270.707 366.379C277.168 363.397 283.094 361.161 287.897 358.302C294.65 354.326 299.579 349.894 305.297 348.57C304.592 350.517 303.847 353.995 298.213 357.6C301.195 357.515 305.297 357.31 305.297 357.31C305.297 357.31 301.321 359.67 294.319 364.973C290.01 368.249 284.295 373.795 278.454 377.482C274.683 379.844 270.582 381.578 267.889 382.992C261.336 386.597 258.692 388.418 254.386 392.823C255.918 392.741 256.044 392.823 256.044 392.823C256.044 392.823 250.615 393.527 246.724 395.597C245.905 395.597 244.485 395.308 242 396.012C240.053 396.632 237.483 398.044 234.835 398.787C231.064 399.906 229.824 399.409 229.824 399.409L230.444 400.652C230.444 400.652 225.528 400.567 223.89 400.734C224.18 400.815 224.098 400.941 224.098 400.941C223.81 400.989 223.533 401.087 223.278 401.23C222.49 401.741 221.623 402.119 220.712 402.347C220.215 402.429 219.8 402.429 219.177 402.555C219.384 403.052 221.001 405.832 221.747 407.47C221.127 407.885 211.804 414.928 211.804 414.928C212.093 415.383 212.33 415.869 212.509 416.377C212.798 417.287 212.924 418.614 213.213 419.234C213.915 420.476 214.33 420.684 214.33 420.684C214.33 420.684 213.213 420.891 211.263 421.388C209.609 421.803 207.577 422.505 204.71 422.92C203.83 423.035 202.945 423.104 202.058 423.128C202.473 424.04 204.295 427.519 200.939 431.535C197.583 435.552 196.548 436.137 195.513 438.703C194.992 438.309 194.437 437.962 193.855 437.666C192.739 437.169 191.204 436.426 190.666 435.429C190.352 436.757 189.937 438.059 189.424 439.323C188.389 442.098 186.857 444.834 186.567 446.904C185.448 445.661 183.378 443.217 180.519 443.714C177.66 444.211 175.383 448.105 174.886 449.225C174.886 448.52 174.389 447.982 174.266 448.81C174.181 449.722 172.608 459.246 163.826 466.952C163.744 465.005 163.744 460.696 163.537 459.29C162.718 460.109 161.716 461.319 155.749 463.888C149.908 466.455 150.834 469.025 150.834 469.025C150.834 469.025 150.337 464.929 153.485 460.614C156.675 456.308 158.622 454.276 158.622 453.946C158.57 453.61 158.427 453.294 158.207 453.034C157.792 452.619 156.964 452.122 156.964 451.792C157.461 451.587 162.39 449.225 162.101 444.334C161.811 439.946 159.949 437.666 158.622 436.052C158.417 435.844 160.571 434.313 160.279 433.816C160.072 433.526 157.423 431.576 157.09 430.539C157.168 429.919 157.307 429.309 157.505 428.717C157.794 427.805 158.002 427.183 157.92 426.563C157.712 425.528 156.593 422.669 156.262 422.38C156.552 422.461 158.622 422.38 158.622 422.38C158.622 422.38 156.967 419.728 156.675 418.486C156.383 417.243 155.763 413.969 155.432 413.349C156.137 413.431 157.876 413.554 157.876 413.349C157.961 412.727 156.344 411.692 157.057 410.892C157.554 410.974 158.507 411.389 159.416 412.549C158.919 411.222 158.092 408.655 156.35 407.62C157.169 407.331 159.954 406.583 162.398 408.033C164.842 409.483 165.675 411.511 165.675 411.511C165.675 411.511 167.125 412.631 169.364 414.289C171.931 416.317 175.202 419.204 180.423 421.246C181.543 421.869 184.399 421.869 186.472 421.454C187.374 421.239 188.239 420.89 189.039 420.419C189.327 420.249 189.633 420.11 189.951 420.004C189.505 419.11 188.993 418.251 188.419 417.434C189.123 417.434 189.951 417.519 189.951 417.519C189.951 417.519 190.448 416.399 188.211 414.242C188.708 413.745 189.331 413.423 189.331 412.585C188.626 412.503 187.384 411.468 187.094 411.053C187.507 410.763 188.129 409.81 188.834 409.521C188.211 409.024 186.679 406.951 185.975 406.746C186.648 406.497 187.299 406.192 187.922 405.834C187.922 405.834 184.443 404.922 183.323 404.177C182.204 403.358 180.549 401.94 179.555 401.525C178.517 401.11 176.696 400.906 175.95 400.075C176.652 400.283 177.772 400.075 178.602 400.075C179.222 400.075 179.514 400.157 179.719 400.157C179.637 399.868 179.637 399.245 181.253 399.04C182.031 398.923 182.786 398.686 183.49 398.336C183.49 398.336 181.955 398.254 180.213 396.597C178.471 394.939 177.024 393.615 176.03 393.407C174.995 393.2 173.048 394.112 171.846 394.027C170.189 393.822 169.484 392.992 169.484 392.992C169.484 392.992 163.977 393.489 151.757 386.034C141.192 379.571 136.593 373.856 136.593 373.856C135.605 373.497 134.649 373.053 133.737 372.528C129.761 370.459 124.251 366.15 124.417 360.514L124.396 360.554Z" fill="#C2A44D"/>
<path fill-rule="evenodd" clip-rule="evenodd" d="M276.794 111.927C277.752 112.239 278.604 112.813 279.251 113.585C281.198 115.821 282.441 120.046 278.009 124.562C279.748 125.182 280.467 125.381 281.985 125.182C280.453 127.006 276.974 130.9 276.766 134.297C276.559 137.071 278.298 137.901 278.298 137.901C278.298 137.901 275.647 140.965 275.524 146.093C276.776 144.681 278.146 143.379 279.62 142.2C282.687 139.756 286.911 136.981 289.77 135.242C289.731 135.971 289.829 136.701 290.059 137.394C290.059 137.394 295.401 133.003 299.89 134.952C301.919 135.864 301.007 138.721 301.007 138.721C301.007 138.721 303.784 137.686 305.731 139.633C307.678 141.58 310.43 146.601 311.842 148.548C312.462 149.46 314.078 151.2 315.733 153.892C317.994 157.662 319.881 161.643 321.369 165.779C321.451 163.624 321.989 160.271 328.122 162.382C334.252 164.536 341.21 169.053 347.051 177.947C352.892 186.84 354.339 196.881 357.28 200.704C360.262 204.39 363.329 210.521 363.536 213.09C363.744 215.66 362.624 223.942 368.754 246.353C370.494 239.395 373.145 223.942 373.145 223.942L374.595 210.313L376.253 168.144L332.218 131.561L297.795 106.581L275.385 108.735L276.791 111.925L276.794 111.927Z" fill="#CAA13E"/>
<path fill-rule="evenodd" clip-rule="evenodd" d="M358.608 174.683C358.608 174.683 357.985 170.587 347.63 163.624C337.273 156.748 329.196 156.748 321.741 150.908C316.023 146.309 310.059 135.744 306.176 132.265C302.405 128.827 301.785 118.885 301.785 118.885L314.502 108.235L333.414 80.8987L349.403 63.2941L357.065 73.9437L367.714 86.4529L373.637 111.556L375.792 148.3L358.588 174.686L358.608 174.683Z" fill="#B59544"/>
<path fill-rule="evenodd" clip-rule="evenodd" d="M371.408 218.726C371.722 213.154 371.034 207.571 369.377 202.241C366.646 193.749 360.68 178.67 357.908 173.023C356.788 166.767 357.619 166.27 358.82 165.566C360.022 164.861 364.538 162.289 367.012 153.264C369.486 144.239 377.162 143.944 377.162 143.944L381.883 140.465L389.051 158.4L395.305 174.599L397.251 186.985L398.701 197.547L395.305 219.876L378.53 235.037L371.406 218.726H371.408Z" fill="#C89D3A"/>
<path fill-rule="evenodd" clip-rule="evenodd" d="M137.322 467.597V467.138C137.671 466.92 137.979 466.643 138.232 466.319C138.521 465.904 138.731 465.407 138.936 465.284C139.351 465.076 141.298 464.465 142.333 464.661C143.368 464.858 146.104 465.986 147.554 465.904C150.536 465.822 154.015 463.542 159.525 464.579C167.81 466.111 169.757 471.745 174.563 474.934C177.84 477.173 181.231 476.176 181.728 476.176H182.845C183.053 476.176 184.585 474.437 185.415 474.522C187.072 474.604 187.236 475.972 188.271 476.054C190.715 476.343 195.439 474.811 197.801 475.434C198.501 475.653 199.138 476.039 199.658 476.557C200.177 477.076 200.563 477.713 200.783 478.413C201.28 479.945 200.865 481.892 199.663 483.011C197.097 485.371 194.653 487.61 194.156 489.565C194.788 490.047 195.395 490.561 195.974 491.105C175.478 485.883 155.759 477.987 137.322 467.621V467.597Z" fill="#CEB052"/>
<path fill-rule="evenodd" clip-rule="evenodd" d="M357.903 384.83C357.903 384.83 364.364 376.215 366.603 371.947C368.84 367.548 359.52 311.842 359.52 311.842L378.244 250.495L377.744 230.528C377.744 230.528 378.656 212.094 380.811 204.098C383.38 208.697 391.376 214.248 393.115 217.189C393.934 211.553 396.717 199.666 396.305 186.991C397.837 189.35 401.523 213.088 401.523 213.088L405.209 229.076L410.015 246.06L415.359 263.998L418.549 276.384L420.37 279.366L421.905 284.585L423.355 290.221L427.538 303.434L429.996 314.286L431.943 333.963C432.366 335.47 432.671 337.007 432.855 338.562C432.937 340.716 432.565 341.959 432.565 342.333C432.565 342.707 433.27 347.054 432.98 350.328C432.565 353.605 432.565 356.169 429.996 358.52C427.426 360.871 425.812 374.923 425.812 374.923L421.214 371.859C421.214 371.859 422.126 367.673 419.971 363.864C417.817 360.055 413.633 359.266 411.271 359.888C408.912 360.385 404.191 361.128 402.656 362.455C401.206 363.779 397.645 367.881 394.371 369.746C390.275 372.204 383.602 372.397 380.041 373.225C376.436 374.044 372.46 376.502 368.274 379.355C364.992 381.48 361.527 383.308 357.92 384.816L357.903 384.83Z" fill="#CCA847"/>
<path fill-rule="evenodd" clip-rule="evenodd" d="M357.903 475.341C357.903 475.341 358.176 475.518 358.703 475.808C388.133 462.019 414.503 442.475 436.254 418.327C436.017 409.944 435.708 401.351 435.37 398.167C434.668 391.414 435.165 384.538 434.957 380.562C434.75 376.586 432.513 360.388 431.478 356.205C430.359 352.021 428.202 349.949 427.874 349.949C427.584 350.033 425.842 357.821 425.842 359.779C425.842 361.737 425.427 366.45 425.427 367.652C425.138 367.567 425.015 366.832 425.015 366.532C424.6 367.567 424.103 369.391 423.895 369.598C423.688 369.806 424.185 367.859 423.895 367.444C423.606 367.029 423.076 367.236 423.191 366.202C423.24 365.588 423.337 364.979 423.48 364.38C423.48 364.38 422.238 366.202 421.328 370.841C420.416 375.439 420.416 375.565 420.086 375.977C419.797 376.477 418.139 378.132 418.054 378.754C417.973 379.871 419.589 380.991 419.712 381.611C419.794 382.648 418.262 387.452 417.765 389.803C417.268 392.154 417.476 396.76 416.946 399.122C416.531 401.277 416.127 402.519 414.709 403.429C415.744 403.636 416.738 403.926 416.738 403.926C416.738 403.926 418.188 410.056 414.502 415.277C413.177 417.098 412.847 417.929 411.438 419.586C408.661 422.65 406.506 426.14 406.299 428.409C406.156 427.739 406.059 427.06 406.009 426.377C406.009 426.377 401.703 431.391 399.879 434.25C397.52 437.936 394.246 437.729 393.326 438.641C392.405 439.553 392.206 441.207 392.506 442.535C391.687 442.739 390.147 443.032 389.109 446.221C388.612 447.876 387.37 449.498 385.423 450.612C383.476 451.726 381.114 452.062 379.912 452.351C380.947 452.641 381.362 452.641 381.859 452.971C381.24 454.006 378.381 455.623 375.191 457.695C372.002 459.642 370.467 462.498 369.681 464.364C368.861 466.103 367.652 467.223 365.705 467.43C366.524 467.927 367.736 469.085 368.356 469.459C367.444 469.666 365.899 469.666 363.138 472.029C360.238 474.431 359.244 475.136 357.917 475.344L357.903 475.341Z" fill="#C39D3C"/>
<path fill-rule="evenodd" clip-rule="evenodd" d="M300.264 494.537C301.85 493.426 303.568 492.515 305.378 491.826C311.839 489.259 318.674 488.762 321.366 487.935C323.936 487.115 325.965 485.985 329.154 485.365C329.069 486.091 328.998 486.774 328.922 487.419C319.519 490.375 309.944 492.752 300.25 494.537H300.264Z" fill="#D2BA6B"/>
<path fill-rule="evenodd" clip-rule="evenodd" d="M419.431 324.6C419.431 324.6 418.106 331.765 415.744 336.282C413.382 340.798 410.829 347.051 410.829 347.051C410.845 345.642 411.011 344.239 411.326 342.865C408.344 344.605 401.094 348.791 399.038 350.653C397.091 352.393 393.817 355.459 392.99 356.909C394.937 351.194 396.966 346.057 397.299 343.695C394.317 345.85 380.396 357.324 373.149 364.904L350.571 383.173C347.966 384.578 345.283 385.834 342.535 386.936C338.644 388.59 334.046 389.999 330.649 391.326C331.561 388.882 333.008 386.725 335.039 384.655C337.194 382.627 343.655 375.625 344.649 372.367C345.561 368.97 345.768 366.942 344.567 364.083C343.447 364.372 340.88 364.498 339.141 364.995C337.401 365.492 335.536 367.354 335.536 367.354C335.536 367.354 336.861 359.774 339.72 352.608C337.565 352.69 333.879 353.31 333.879 353.31C333.879 353.31 339.015 344.695 347.805 338.69C345.113 339.263 342.479 340.08 339.936 341.131C334.799 343.286 329.166 346.475 324.982 348.215C327.342 344.938 343.911 321.29 353.772 299.251C363.602 277.256 367.275 271.622 369.429 259.818C370.546 253.977 370.249 245.345 370.546 237.614C370.836 229.949 371.789 223.074 371.169 218.475C373.736 221.665 383.348 230.654 383.678 250.746C383.968 270.836 374.484 297.97 364.416 312.59C366.874 313.295 373.242 314.125 379.784 302.76C386.327 291.395 386.248 288.222 388.61 283.498C388.899 285.86 388.814 286.687 388.814 286.687C388.814 286.687 398.345 275.131 402.858 260.59C403.77 266.846 406.463 272.357 402.236 283.831C398.467 294.186 393.539 296.714 393.539 296.714C393.539 296.714 395.982 296.299 399.584 294.145C400.207 295.677 400.084 297.422 401.119 298.039C402.154 298.656 403.563 299.696 403.77 300.69C404.887 299.033 406.627 296.919 407.167 295.346C406.752 298.623 406.463 312.951 407.986 320.242C411.179 319.952 414.45 319.745 416.686 313.986C415.154 319.622 415.155 323.016 416.189 327.822C417.888 326.664 419.42 324.592 419.42 324.592L419.431 324.6Z" fill="#C0993A"/>
<path fill-rule="evenodd" clip-rule="evenodd" d="M311.798 96.2697C311.798 96.2697 308.609 97.5941 303.183 97.5941C298.462 97.5941 299.786 95.7727 292.413 95.7727C281.064 95.7727 241.421 102.326 234.46 102.233C229.944 102.152 249.703 104.18 249.703 104.18L300.201 104.885L310.348 104.066L314.119 96.3926L311.798 96.2697Z" fill="#A88F33"/>
<path fill-rule="evenodd" clip-rule="evenodd" d="M180.858 194.983C180.858 194.983 174.394 199.912 171.661 203.683C168.928 207.454 167.478 209.936 164.37 213.003C165.1 213.031 165.828 212.933 166.525 212.713C166.525 212.713 166.525 213.533 166.028 213.748C166.457 213.7 166.892 213.749 167.3 213.891C167.708 214.032 168.08 214.264 168.387 214.568C167.475 215.065 164.99 217.552 166.937 220.493C168.387 222.73 171.453 222.934 171.453 222.934C171.453 222.934 170.749 224.966 173.69 224.758C180.028 224.469 187.111 221.692 190.382 222.396C193.659 223.216 195.522 223.516 197.84 227.535C200.298 231.511 202.438 232.134 202.438 232.134C202.438 232.134 203.888 228.445 203.558 222.937C204.747 219.968 205.406 216.814 205.505 213.617L203.35 197.752L193.949 185.863L181.77 192.616L180.858 194.975V194.983Z" fill="#E3C571"/>
<path fill-rule="evenodd" clip-rule="evenodd" d="M192.414 192.621C192.414 192.621 193.326 194.776 197.138 194.981C196.723 195.893 196.723 196.018 196.849 196.72C196.931 197.425 197.053 198.459 197.053 198.459C197.473 198.256 197.852 197.979 198.173 197.64C198.381 198.552 197.965 200 198.173 201.037C198.301 201.668 198.509 202.28 198.793 202.859C198.853 202.717 198.923 202.579 199 202.446C199.082 202.239 199.82 204.683 201.859 206.542C201.858 206.256 201.928 205.974 202.064 205.723C202.096 206.242 202.267 206.744 202.561 207.173C202.409 207.1 202.269 207.002 202.149 206.884C202.149 206.884 202.354 213.437 203.473 216.826C203.66 216.607 203.827 216.371 203.97 216.121C203.97 215.917 203.888 217.945 203.681 219.398C203.391 220.848 203.599 222.877 203.599 222.877C204.346 222.289 205.166 221.802 206.04 221.427C207.283 220.927 209.317 219.395 210.557 215.999C211.276 214.075 211.83 212.093 212.214 210.076C212.615 210.847 212.891 211.676 213.033 212.533C213.118 213.568 215.065 213.03 215.065 213.03L215.48 208.514L217.938 198.282L220.174 191.944L230.944 175.17L250.402 160.184L267.387 164.078L281.718 144.608L257.03 129.778L233.666 132.222L212.463 161.59L195.481 188.228L192.414 192.619V192.621Z" fill="#D8B65B"/>
<path fill-rule="evenodd" clip-rule="evenodd" d="M314.781 150.121C314.781 150.121 313.331 150.411 309.147 152.579C304.964 154.747 302.064 155.435 300.447 158.624C298.831 161.814 298.708 164.342 298.708 164.342C298.708 164.342 301.567 163.1 303.224 162.685C304.964 162.273 306.911 162.395 306.703 163.1C306.504 163.583 306.227 164.03 305.884 164.424C305.884 164.424 309.161 164.342 309.073 165.959C308.986 167.576 308.454 169.356 307.834 170.142C307.211 170.962 304.644 172.174 304.355 173.127C303.65 175.074 304.644 175.156 304.27 176.729C303.981 178.263 302.615 181.245 298.14 186.464C293.541 191.685 291.586 195.371 291.586 195.371C291.586 195.371 289.35 191.188 288.189 187.583C287.37 187.995 282.971 190.439 282.971 190.439L272.78 154.941L272.985 152.579C272.985 152.579 273.897 151.462 274.105 149.389C272.573 148.892 272.365 148.477 270.333 146.533C268.302 144.589 266.647 142.224 263.253 140.607C262.756 139.695 262.133 138.456 259.648 137.956C257.163 137.456 255.673 137.047 255.673 137.047C255.673 137.047 256.997 136.547 257.62 135.512C256.085 135.72 254.845 136.217 251.489 136.135C248.092 136.05 247.718 135.927 245.856 136.217C243.993 136.506 241.76 137.336 240.927 134.477C240.015 133.773 238.068 134.395 236.41 136.836C234.753 139.278 234.174 141.227 230.985 142.18C230.76 143.586 230.268 144.936 229.535 146.156C228.623 147.691 227.173 149.223 225.226 151.5C222.159 155.105 222.656 161.027 217.768 165.544C212.839 170.058 218.587 153.032 218.587 153.032L226.457 134.19L248.868 112.277L283.665 109.917L287.062 127.94L304.046 133.781L314.775 150.143L314.781 150.121Z" fill="#D3AE4D"/>
<path fill-rule="evenodd" clip-rule="evenodd" d="M320.29 154.097L305.668 133.013L295.436 125.141C295.436 125.141 288.145 111.722 287.648 111.307C287.233 111.018 280.357 110.272 275.966 109.983L276.785 112.012C277.744 112.323 278.595 112.898 279.243 113.669C281.19 115.906 282.432 120.13 278.001 124.647C279.74 125.267 280.458 125.466 281.976 125.267C280.444 127.091 276.966 130.985 276.758 134.382C276.551 137.156 278.29 137.983 278.29 137.983C278.29 137.983 275.639 141.05 275.516 146.175C276.768 144.763 278.138 143.461 279.612 142.281C282.678 139.824 286.903 137.06 289.762 135.321C289.723 136.051 289.821 136.782 290.051 137.475C290.051 137.475 295.392 133.084 299.881 135.031C301.91 135.943 300.998 138.802 300.998 138.802C300.998 138.802 303.775 137.768 305.722 139.715C307.669 141.661 310.444 146.672 311.853 148.622C312.472 149.534 314.089 151.273 315.744 153.963C318.005 157.733 319.893 161.715 321.38 165.852C321.462 164.195 321.795 161.877 324.657 161.877L320.307 154.089L320.29 154.097Z" fill="#CAA13E"/>
<path fill-rule="evenodd" clip-rule="evenodd" d="M101.075 213.997C101.075 213.997 100.04 211.427 101.075 206.417C102.11 201.406 103.727 199.044 104.265 191.671C104.803 184.298 109.609 175.101 109.609 175.101L122.904 169.056L132.309 171.622L135.083 184.216L123.194 190.77C123.194 190.77 122.574 193.544 119.218 195.781C115.862 198.017 111.222 199.756 110.106 202.037C109.438 203.433 108.951 204.908 108.656 206.427C108.656 206.427 105.259 205.723 103.23 207.959C101.075 210.239 101.157 212.268 101.075 214.008V213.997Z" fill="#F4EFC8"/>
<path fill-rule="evenodd" clip-rule="evenodd" d="M127.918 210.641C127.918 210.641 126.799 211.345 125.972 213.098C125.152 211.774 123.194 203.902 123.112 196.818C123.031 189.735 122.607 187.979 124.246 185.538C125.884 183.097 132.309 180.524 131.397 176.128C130.485 171.945 126.673 170.205 121.993 171.407C118.716 172.226 116.278 179.195 112.881 182.673C110.311 185.325 107.247 184.91 106.42 186.36C105.3 188.307 106.335 190.254 106.005 191.496C105.92 191.911 104.885 194.148 103.02 196.84C99.2519 202.266 92.8731 209.931 92.043 216.807C92.3324 212.913 92.1276 212.831 93.1625 208.522L92.54 207.487L96.636 194.066L99.2874 183.007L105.213 164.487L115.65 145.558L125.799 134.207L136.362 134.911L137.604 150.776L143.653 180.563L156.369 196.22L135.988 209.936L127.91 210.641H127.918Z" fill="#EBCC73"/>
<path fill-rule="evenodd" clip-rule="evenodd" d="M134.256 216.269C134.256 216.269 132.516 216.684 131.894 216.353C131.271 216.023 130.654 215.649 130.859 215.234C131.063 214.819 132.183 214.117 132.183 213.784C132.206 213.483 132.111 213.185 131.918 212.953C131.724 212.721 131.448 212.573 131.148 212.541C130.195 212.419 129.906 213.038 129.906 213.038C129.906 213.038 128.994 212.337 128.251 212.219C128.69 212.165 129.132 212.137 129.575 212.135C128.43 211.616 127.216 211.267 125.971 211.1C127.006 210.48 129.037 208.656 130.362 208.656C131.686 208.656 132.516 208.451 132.309 207.746C132.101 207.042 131.066 206.007 129.949 205.592C130.362 205.095 130.654 204.349 129.66 202.315C128.622 200.286 129.037 198.918 129.37 198.424C129.66 197.801 130.695 196.684 131.192 195.98C131.689 195.275 132.104 194.322 132.931 193.825C133.346 193.536 134.671 193.006 135.998 192.501C137.448 192.004 138.649 191.381 139.477 192.004C140.389 192.624 139.974 193.454 139.974 193.454C139.974 193.454 142.833 192.416 145.399 193.743C147.969 194.983 154.225 195.772 154.225 195.772L156.467 200.289L141.637 213.006L135.506 216.072L134.264 216.277L134.256 216.269Z" fill="#E5C66B"/>
<path fill-rule="evenodd" clip-rule="evenodd" d="M154.843 195.48C154.843 195.48 150.244 198.547 149.209 199.664C149.829 199.748 150.864 200.163 150.449 200.783C149.952 201.403 146.97 203.557 145.313 205.589C143.573 207.618 141.916 210.188 141.337 211.43C140.717 212.547 135.993 215.821 134.379 216.233C137.776 216.233 144.611 212.05 147.178 212.05C147.096 213.292 147.882 214.701 149.332 214.824C150.782 214.947 154.965 215.736 160.599 212.257C166.232 208.86 164.37 206.332 166.729 204.677C171.246 201.692 173.067 199.041 175.552 197.386C178.037 195.731 179.323 195.355 179.323 195.355C179.323 195.355 179.405 194.112 180.142 194.238C180.344 194.261 180.536 194.339 180.696 194.463C180.857 194.587 180.981 194.753 181.054 194.942C181.054 194.942 185.363 191.876 190.885 191.048C190.756 190.991 190.653 190.888 190.595 190.759C190.595 190.759 191.007 190.551 191.092 190.344C191.092 190.344 191.382 189.929 191.589 190.136C191.797 190.344 192.086 191.876 192.501 192.498C193.413 192.083 195.153 188.189 195.153 188.189L199.339 176.218V165.282L196.062 165.904L171.486 176.341L156.571 191.794L154.832 195.48H154.843Z" fill="#E6BD62"/>
<path fill-rule="evenodd" clip-rule="evenodd" d="M225.594 141.836C226.923 141.514 228.198 140.997 229.376 140.302C228.879 141.629 228.879 143.079 226.724 146.227C224.57 149.376 224.488 149.832 222.749 153.103C221.009 156.5 220.802 161.388 219.144 163.54C219.887 163.179 220.684 162.942 221.503 162.838C221.503 162.838 219.849 164.288 219.144 165.82C218.44 167.352 217.197 170.541 214.133 172.491C211.069 174.44 207.173 175.68 202.989 180.279C198.803 184.792 194.497 190.51 192.34 192.567C193.459 190.62 194.991 186.726 195.406 184.159C195.821 181.592 195.322 178.523 196.026 175.129C196.731 171.734 196.731 169.288 200.122 163.362C203.514 157.437 209.319 136.85 209.319 136.85L221.828 132.874L225.599 141.823L225.594 141.836Z" fill="#B6933F"/>
<path fill-rule="evenodd" clip-rule="evenodd" d="M216.564 134.256C216.564 134.256 212.796 139.682 211.761 144.488C210.726 149.294 211.676 148.879 211.056 151.241C210.686 152.681 210.686 154.192 211.056 155.632C212.361 153.529 214.148 151.768 216.269 150.493C219.833 148.341 222.733 146.806 224.461 144.985C226.201 143.038 227.651 139.848 231.419 137.404C229.887 137.197 227.733 136.492 227.323 136.585C228.858 134.846 233.453 132.194 238.093 129.005C242.691 125.728 242.402 124.406 249.859 121.135C247.415 121.55 246.255 120.928 244.223 121.135C245.042 119.396 247.909 118.566 250.777 115.709C253.644 112.853 248.955 108.626 248.955 108.626L227.11 121.84L216.548 134.267L216.564 134.256Z" fill="#C49937"/>
<path fill-rule="evenodd" clip-rule="evenodd" d="M157.286 124.396L157.783 120.42L164.039 110.395L170.584 92.7908V68.7227L170.087 54.8045L171.122 45.6895L171.909 42.7923L172.739 41.6727L178.08 44.4471L185.456 54.4714L186.16 73.8181L178.992 104.347L158.529 126.676L157.286 124.396Z" fill="#DFC068"/>
<path fill-rule="evenodd" clip-rule="evenodd" d="M173.566 40.5531C173.566 40.5531 170.29 40.6378 169.59 54.2665C168.891 67.8953 168.553 75.0605 168.056 81.8135C167.559 88.5664 166.401 92.6652 165.819 96.6437C165.238 100.622 164.907 106.045 163.045 109.36C162.226 110.892 160.476 115.698 156.374 119.303C151.776 123.279 144.905 126.056 143.865 126.263C142.041 126.676 132.803 127.588 129.035 129.66C127.71 130.365 125.43 131.192 122.904 133.554C117.891 138.068 111.222 146.145 106.416 155.88C99.0437 170.421 91.6709 211.471 91.6709 211.471L93.3284 208.697C93.3284 208.697 93.5359 205.01 97.2223 198.547C100.827 192.086 99.7919 184.836 104.803 172.45C106.75 167.728 109.194 161.598 112.175 156.377C116.9 147.885 122.615 140.594 128.374 136.618C137.775 130.157 148.133 128.748 148.133 128.748L159.277 121.375C159.277 121.375 161.224 117.607 163.793 113.298C167.395 107.252 171.985 100.499 172.987 90.6827C174.522 76.1419 170.833 66.6146 171.04 57.9993C171.248 49.3841 171.33 43.0462 173.072 41.5116C174.814 39.9769 173.569 40.5586 173.569 40.5586L173.566 40.5531Z" fill="#A88F33"/>
<path fill-rule="evenodd" clip-rule="evenodd" d="M173.567 105.589C173.567 105.589 178.482 93.4926 180.732 82.7638C181.147 80.6093 181.975 78.4575 182.182 76.7181C183.217 66.5682 183.507 62.3848 182.182 56.8334C181.147 52.7374 177.171 49.0455 175.099 46.1838C173.07 43.1992 172.117 42.0878 172.532 41.4597C172.947 40.8317 174.561 39.8049 176.134 39.9278C177.806 39.9765 179.45 40.3647 180.967 41.0688C182.485 41.773 183.843 42.7784 184.959 44.0238C188.149 47.7102 190.675 60.2221 190.675 60.2221L193.331 76.7318L200.084 97.5258L173.572 105.606L173.567 105.589Z" fill="#C99E3D"/>
<path fill-rule="evenodd" clip-rule="evenodd" d="M219.753 92.9983C219.753 92.9983 218.841 93.4106 217.187 92.9983C217.257 93.6745 217.14 94.3571 216.847 94.9709C216.555 95.5847 216.099 96.1059 215.529 96.4771C213.79 95.7726 197.507 97.1816 197.507 97.1816C197.507 97.1816 189.926 95.8545 187.564 85.8303C185.91 79.1592 188.807 69.9651 187.854 63.9167C186.404 55.0092 184.375 53.2671 184.167 50.4954C183.96 47.7238 183.752 47.0166 183.752 45.2771C182.84 45.0696 182.302 44.7802 181.393 44.7802C181.185 43.961 181.598 43.2455 180.688 41.7955C181.185 42.0031 184.582 42.4181 188.558 46.1864C191.835 49.253 191.835 50.3698 192.329 50.9924C192.949 51.6123 197.963 55.9076 200.117 60.1893C202.272 64.471 206.455 78.1243 207.408 80.3607C207.697 81.2728 208.32 82.1848 209.866 84.2547C212.269 87.2393 215.788 92.1736 219.764 92.9928L219.753 92.9983Z" fill="#B58634"/>
<path fill-rule="evenodd" clip-rule="evenodd" d="M192.913 51.2C195.422 55.2536 197.677 59.4597 199.663 63.7938C202.107 69.3015 203.557 73.8181 206.624 77.5045C204.966 72.7012 202.025 63.2558 200.286 59.8999C198.339 56.35 194.363 52.5271 192.913 51.2027V51.2Z" fill="#A88F33"/>
<path fill-rule="evenodd" clip-rule="evenodd" d="M164.744 119.303C164.744 119.303 160.56 120.338 152.772 124.439C150.203 125.764 147.762 126.88 145.4 127.918C139.264 130.692 132.683 133.256 127.462 134.671C127.877 135.168 128.082 135.373 128.082 135.373C128.082 135.373 128.082 137.404 129.201 138.562C128.581 139.185 120.294 144.818 122.741 163.665C124.395 163.045 126.342 162.215 126.632 162.215C127.131 162.3 127.254 163.665 127.874 163.665C128.494 163.665 130.526 162.846 132.68 160.061C132.598 161.18 131.356 172.447 138.024 180.027C139.267 178.577 142.415 173.771 142.415 173.771L142.497 172.239C142.497 172.239 142.786 166.896 144.529 162.008C146.271 157.12 149.665 153.515 149.665 153.515L167.39 128.205L164.738 119.3L164.744 119.303Z" fill="#E6C367"/>
<path fill-rule="evenodd" clip-rule="evenodd" d="M148.174 156.467C147.363 157.041 146.469 157.487 145.523 157.792C145.234 156.757 144.819 153.193 147.262 149.714C150.121 145.528 156.375 140.102 158.114 135.788C159.234 133.011 158.737 126.053 168.679 117.146C178.621 108.238 182.513 105.174 182.513 105.174L198.585 97.097L218.344 104.885L208.528 143.36L200.906 161.382L170.596 155.667L148.172 156.467H148.174Z" fill="#DCBA5A"/>
<path fill-rule="evenodd" clip-rule="evenodd" d="M159.744 146.02L163.515 141.298V137.942C163.515 137.942 167.699 136.823 172.212 132.224C176.726 127.626 182.982 118.803 188.493 119.341C194.003 119.964 194.541 131.312 194.749 134.504C194.956 137.697 195.661 144.941 196.777 148.838C198.02 152.732 183.356 167.477 183.356 167.477L173.397 175.058L159.744 146.02Z" fill="#E9CE77"/>
<path fill-rule="evenodd" clip-rule="evenodd" d="M171.412 185.33C171.412 185.33 174.479 180.524 172.231 179.489C173.556 176.508 176 173.359 176 173.359C176 173.359 177.739 169.053 183.372 163.75C189.006 158.447 192.487 154.924 193.399 151.364C193.962 149.043 194.268 146.668 194.311 144.28C194.921 144.778 195.572 145.221 196.258 145.605C197.17 146.02 201.477 149.581 200.857 156.749C200.237 163.917 197.58 166.898 197.58 166.898C197.58 166.898 195.013 169.465 193.192 170.792C191.242 172.117 190.54 173.649 187.266 173.774C187.603 173.507 187.981 173.296 188.386 173.152C188.386 173.152 184.989 172.739 183.165 174.394C181.341 176.049 177.463 181.147 175.516 182.682C173.569 183.924 171.42 185.333 171.42 185.333L171.412 185.33Z" fill="#CDAE50"/>
<path fill-rule="evenodd" clip-rule="evenodd" d="M309.147 104.759C304.253 102.976 299.109 101.97 293.904 101.777C285.204 101.488 272.487 101.985 260.019 102.067C246.598 102.149 234.419 97.4684 217.519 96.641C214.745 94.9835 207.689 87.7336 185.663 103.102C186.987 103.02 201.654 99.7049 206.747 106.086C211.883 112.424 210.433 123.194 209.731 125.761C208.404 131.479 204.095 139.805 202.358 145.646C200.622 151.486 201.031 154.556 199.789 158.652C198.546 162.748 195.813 164.782 197.427 169.503C199.581 168.179 200.704 168.179 204.303 160.102C207.902 152.024 207.162 146.265 213.128 139.431C218.969 132.555 228.693 123.15 232.39 120.788C236.088 118.426 265.445 103.184 296.184 117.725C303.598 116.938 309.149 104.757 309.149 104.757L309.147 104.759Z" fill="#D2A83E"/>
<path fill-rule="evenodd" clip-rule="evenodd" d="M198.047 99.1232C198.017 98.8119 197.948 98.5056 197.842 98.2111C197.555 97.6053 197.178 97.0465 196.723 96.5536C196.723 96.5536 189.432 95.2293 185.746 95.6416C179.282 96.3461 173.441 104.341 170.708 108.443C167.974 112.544 164.578 118.88 160.891 122.154C160.931 121.835 160.858 121.512 160.684 121.242C160.684 121.242 160.891 121.531 160.479 121.946C160.066 122.361 160.064 122.566 160.271 122.765L160.894 123.385C161.099 123.385 166.817 120.816 174.605 113.555C182.889 105.974 189.227 102.086 192.542 100.753C194.31 100.002 196.158 99.4552 198.05 99.1232H198.047Z" fill="#C29637"/>
<path fill-rule="evenodd" clip-rule="evenodd" d="M339.471 67.9772C339.471 67.9772 338.144 69.632 336.486 71.456C332.8 75.35 327.994 79.7382 323.892 84.2547C320.001 88.5637 315.61 91.9197 310.678 97.553C305.747 103.186 300.029 109.44 298.582 111.264C297.257 113.088 296.222 116.07 296.222 117.602C295.518 117.105 294.69 116.567 294.69 116.567C295.039 117.217 295.455 117.828 295.933 118.391C296.968 119.841 298.582 121.668 299.412 122.782C300.43 124.2 301.161 125.804 301.564 127.503C302.061 127.585 305.25 128.207 309.229 121.662C313.207 115.117 318.423 107.951 318.423 107.951L326.707 95.647L331.929 85.2104L338.482 73.5286L339.479 67.9772H339.471Z" fill="#AC8132"/>
<path fill-rule="evenodd" clip-rule="evenodd" d="M347.963 59.6105C347.963 59.6105 342.95 63.7065 341.003 66.1641C339.056 68.6217 334.449 75.0715 334.449 75.0715L336.107 74.864L344.517 67.4093L347.794 61.5684L347.961 59.6214L347.963 59.6105Z" fill="#A88F33"/>
<path fill-rule="evenodd" clip-rule="evenodd" d="M346.429 388.806C346.429 388.806 346.347 385.409 348.253 383.38C350.2 381.348 355.129 378.367 359.935 367.182C364.741 355.997 365.276 353.471 365.276 353.471C365.276 353.471 356.661 360.844 351.35 362.583C352.592 360.014 353.297 358.192 353.919 356.865C353.215 356.245 350.233 355.541 349.943 355.211C351.598 353.553 352.51 349.493 355.866 346.8C360.175 343.523 368.045 337.893 374.162 332.874C380.278 327.855 392.304 316.181 393.839 312.784C394.751 314.109 394.956 314.936 394.956 314.936C394.956 314.936 388.91 322.808 385.762 327.819C382.985 332.128 383.192 334.572 383.192 334.572L388.91 332.115C388.91 332.115 390.565 338.245 383.069 347.567C386.346 346.325 387.668 347.07 389.53 346.033C386.463 347.982 382.239 350.634 378.263 357.922C374.369 365.213 369.066 373.705 360.121 379.006C351.421 384.598 346.407 388.781 346.407 388.781L346.429 388.806Z" fill="#A67A2E"/>
<path fill-rule="evenodd" clip-rule="evenodd" d="M323.977 109.071C323.977 109.071 320.581 116.152 320.084 121.662C320.002 122.989 319.669 124.024 319.669 125.556C319.587 130.485 319.958 135.995 318.849 138.562C318.434 137.527 318.227 136.823 317.812 136.41C317.192 138.15 316.072 143.576 315.16 145.605C314.748 144.28 313.836 139.682 313.92 134.256C314.005 128.83 314.125 127.792 314.125 126.676C313.92 128.33 312.801 130.57 312.386 131.894C311.766 130.777 311.061 129.327 310.231 128.126C309.734 128.945 309.114 130.155 308.577 130.777C308.492 130.28 308.287 128.953 308.161 127.091C308.08 124.936 307.954 122.162 308.08 121.58C308.284 120.463 310.027 116.072 313.713 112.053C318.104 107.247 322.62 98.0118 323.945 95.1528C325.269 92.2938 330.902 80.4072 330.902 80.4072H335.211L328.956 94.6559C328.956 94.6559 325.187 102.444 323.24 105.305C321.293 108.167 317.192 116.367 315.368 119.557C316.692 117.817 317.812 116.905 319.139 115.248C320.422 114.087 323.983 109.077 323.983 109.077L323.977 109.071Z" fill="#8C6228"/>
<path fill-rule="evenodd" clip-rule="evenodd" d="M348.045 59.0698C347.341 61.2361 346.229 63.2476 344.768 64.9954C342.199 68.0619 336.688 72.1606 333.999 75.432C331.541 78.6214 326.626 87.3213 328.859 97.635C329.679 95.3986 331.221 90.9667 335.323 85.9532C339.424 80.9397 343.815 75.1835 345.973 70.7107C348.124 66.1941 348.414 62.6333 348.414 62.6333L349.233 61.5984L348.736 59.2364L348.031 59.0698H348.045Z" fill="#CBA94C"/>
<path fill-rule="evenodd" clip-rule="evenodd" d="M431.929 333.835C431.929 333.835 430.271 329.321 429.774 325.22C429.277 321.118 430.594 320.305 429.07 315.611C428.158 312.752 426.503 313.153 426.088 312.751C425.673 312.35 425.384 308.03 425.465 305.668C425.547 303.306 425.384 300.242 424.968 298.915C424.349 298.418 423.934 298.003 423.021 294.939C421.987 291.873 421.49 290.341 420.993 289.432C420.496 288.522 419.043 287.692 419.043 286.78C419.043 284.956 420.7 284.006 420.7 283.503C420.619 282.468 419.376 283.299 419.043 283.006C418.631 282.509 420.081 279.527 419.543 279.112C419.335 278.908 417.885 280.647 417.511 280.15C417.096 279.65 416.599 274.721 415.853 271.45C415.152 268.261 414.404 265.942 414.322 264.989C414.24 264.077 408.604 248.005 407.238 244.111C406.138 240.82 405.212 237.474 404.464 234.086C404.049 232.139 403.759 228.161 403.552 228.576C403.344 228.991 403.47 231.02 403.137 230.938C402.847 230.853 401.812 223.773 401.482 222.653C401.193 221.534 399.45 217.738 399.024 214.991C398.609 212.214 397.7 204.964 397.077 200.035C396.455 195.106 396.165 193.077 396.165 191.843C396.267 188.824 396.101 185.802 395.668 182.813C394.849 177.592 393.211 171.254 391.774 167.57C389 160.61 381.625 142.798 380.306 138.366C380.306 137.246 381.756 137.869 381.756 137.869C381.756 137.869 385.357 146.899 388.009 153.857C390.578 160.817 393.022 166.948 393.645 167.57C394.142 168.19 398.036 175.025 399.775 186.21C401.515 197.394 402.135 207.708 403.172 214.584C403.669 217.861 404.084 221.337 405.119 224.816C406.236 228.587 407.976 232.481 410.256 238.445C412.203 243.458 413.653 247.641 414.439 251.246C415.351 255.844 415.351 259.323 415.889 261.603C416.389 263.55 417.131 267.442 418.874 273.072C420.616 278.703 423.18 285.955 424.919 290.469C428.319 299.5 429.834 307.039 430.348 311.058C430.801 315.201 432.336 329.534 431.921 333.84L431.929 333.835Z" fill="#A88F33"/>
<path fill-rule="evenodd" clip-rule="evenodd" d="M348.253 58.5728L348.045 59.0698C348.045 59.0698 348.665 59.2773 348.542 60.1074C348.551 61.2432 348.482 62.3782 348.335 63.5044C348.13 64.9544 347.715 66.0712 347.633 66.9833C347.633 68.9302 347.922 71.1666 345.175 76.7181C344.356 78.25 343.851 79.5744 343.436 80.4864C342.401 82.7228 342.193 83.056 341.281 84.0909C342.731 83.2717 347.952 79.9949 350.601 80.4864C348.78 81.5213 346.003 83.5529 344.263 86.2044C344.678 86.2863 346.418 86.6195 349.178 86.2044C353.777 85.4999 358.913 83.8424 363.427 84.1728C368.359 84.4623 366.412 78.25 366.412 78.25L360.721 65.7408L349.951 58.1632L348.253 58.5755V58.5728Z" fill="#BE9C44"/>
<path fill-rule="evenodd" clip-rule="evenodd" d="M376.338 152.276C376.338 152.276 371.532 147.47 369.585 130.976C367.638 114.407 368.053 90.0164 368.053 90.0164L364.159 80.4891C364.159 80.4891 363.34 74.1513 361.3 71.792C359.26 69.4327 355.254 65.4541 353.43 63.5071C351.606 61.5602 349.536 58.9087 348.294 58.4936C348.914 57.4587 351.691 51.6178 362.335 51.5359C372.979 51.454 376.261 57.3768 377.373 59.5313C378.484 61.6858 383.503 71.0001 385.365 88.7494C387.105 106.477 387.19 107.804 386.9 113.934C386.693 117.331 385.573 125.201 383.623 133.609C381.843 140.736 379.896 148.69 376.332 152.292L376.338 152.276Z" fill="#A17C34"/>
<path fill-rule="evenodd" clip-rule="evenodd" d="M361.268 166.401C362.869 166.517 364.469 166.156 365.866 165.364C367.398 165.282 372.949 165.986 377.215 160.56C377.504 161.8 378.252 165.159 376.303 168.141C377.34 167.103 378.872 166.691 379.08 166.401C379.162 167.933 380.612 172.655 374.481 184.129C376.136 182.307 378.083 182.389 379.822 182.182C379.907 184.336 381.065 191.584 378.001 195.48C375.972 198.132 372.657 197.302 372.657 197.302C372.706 196.723 372.706 196.141 372.657 195.562C372.575 194.443 372.16 193.326 372.452 192.58C370.851 191.849 369.392 190.838 368.143 189.596C364.539 186.199 359.859 180.401 359.528 176.092C359.113 171.286 363.422 170.252 363.422 170.252C363.061 169.929 362.753 169.551 362.51 169.132C362.303 168.43 362.095 167.311 361.268 166.401Z" fill="#8C6228"/>
<path fill-rule="evenodd" clip-rule="evenodd" d="M329.319 114.289C329.319 114.289 329.111 114 327.994 115.324C328.202 114 328.409 112.755 328.491 111.553C329.02 110.441 329.704 109.409 330.523 108.489C329.9 109.729 329.485 110.849 329.485 110.849C329.485 110.849 331.02 107.99 333.256 106.25C334.788 105.008 336.735 104.429 337.562 103.268C338.474 102.026 338.267 101.818 338.474 101.611C338.474 101.611 340.506 100.286 343.614 96.3898C344.026 95.8928 344.648 95.3549 345.064 94.8579C345.765 94.5685 347.423 93.823 349.37 92.8263C351.401 91.7094 353.679 90.1775 355.088 89.5495C357.862 88.307 360.806 88.4326 362.171 86.4829C363.206 86.1935 364.323 83.086 364.118 80.4373C365.65 81.0571 373.52 85.945 376.215 96.6328C378.162 104.213 374.68 115.895 373.23 121.531C371.78 127.167 371.576 131.348 369.544 133.915C366.974 137.314 358.692 142.107 356.661 144.48C354.921 146.427 349.703 151.355 349.908 154.916C350.115 157.568 353.387 159.012 354.094 159.515C354.801 160.017 354.796 160.634 356.123 160.334C357.45 160.033 357.944 159.422 358.485 159.422C359.105 159.504 359.105 159.629 359.394 159.629C359.604 159.623 359.813 159.595 360.017 159.545C360.017 159.545 359.809 163.316 350.986 164.46C350.364 164.545 349.744 164.749 348.955 164.875C349.992 164.378 350.612 164.378 351.732 162.846C350.489 162.639 346.926 162.431 346.014 162.142C346.303 161.645 347.256 160.317 348.043 159.698C348.747 159.078 347.961 158.878 347.341 159.201C346.274 159.927 345.25 160.714 344.274 161.56C343.239 162.472 342.327 163.714 340.67 164.837C340.173 163.179 340.255 160.031 342.205 157.753C341.705 157.835 340.752 159.285 339.843 158.996C339.678 157.485 339.776 155.957 340.132 154.479C340.629 152.614 343.321 149.343 343.321 149.343L356.328 126.102L359.102 108.498L329.319 114.284V114.289Z" fill="#92723A"/>
<path fill-rule="evenodd" clip-rule="evenodd" d="M328.617 115.283C328.617 115.283 327.912 115.78 329.321 116.733C329.114 117.023 328.617 118.058 327.994 118.762C327.292 119.581 326.544 120.089 326.255 120.794C325.635 122.244 325.138 123.238 325.138 123.86C325.138 124.483 324.93 128.459 323.191 131.026C322.568 131.938 321.864 133.47 321.367 134.504C320.332 136.326 319.42 137.781 319.212 138.6C318.8 140.05 318.51 144.026 318.51 144.026C318.51 144.026 319.422 142.907 319.753 142.494C319.253 143.529 318.715 144.646 317.929 145.476C318.426 145.061 319.876 144.026 322.32 141.872C325.717 139.015 331.02 134.21 337.483 130.403C335.533 131.107 333.879 131.107 332.554 131.315C333.589 130.28 342.909 119.344 347.797 118.309C348.094 117.933 348.241 117.46 348.212 116.982L344.026 116.569L335.533 118.391L334.294 111.837L328.617 115.275V115.283Z" fill="#B18E3E"/>
<path fill-rule="evenodd" clip-rule="evenodd" d="M342.122 152.565C342.122 152.565 341.003 153.682 339.968 156.459C339.171 155.627 338.488 154.693 337.936 153.682C336.404 151.115 334.045 147.841 328.534 149.706C328.452 147.967 328.327 147.055 328.534 145.812C329.446 145.607 332.221 143.371 334.995 140.097C336.945 137.86 338.766 135.291 340.009 132.02C340.828 131.397 342.245 130.362 344.105 129.161C346.756 127.339 349.945 124.852 350.442 122.077C349.2 122.574 346.549 123.817 342.57 123.612C344.105 122.907 346.464 122.162 346.174 119.095C346.797 118.68 347.294 118.391 347.294 118.391C346.827 118.235 346.336 118.165 345.844 118.183C345.759 117.894 345.637 117.482 344.932 117.686C344.227 117.891 344.113 117.894 344.02 118.183C343.73 118.268 342.777 118.183 342.073 118.683C341.368 119.183 339.422 120.835 338.676 121.124C338.965 120.627 339.378 119.884 339.378 119.884C339.378 119.884 337.349 120.089 335.899 120.704C333.247 121.616 330.184 123.273 327.076 124.887C327.366 124.39 327.491 124.068 327.696 123.975C327.901 123.882 328.401 123.77 328.401 123.686C328.401 123.601 328.196 122.866 328.319 122.569C329.248 120.601 330.344 118.716 331.595 116.935C333.045 114.986 333.335 112.211 333.335 112.211L339.673 109.022L357.485 104.926L369.044 105.63L367.594 113.626L360.767 127.585L354.926 140.302L348.255 148.092L342.125 152.565H342.122Z" fill="#543E26"/>
<path fill-rule="evenodd" clip-rule="evenodd" d="M370.994 117.965C370.994 117.965 364.033 126.58 362.086 127.907C363.329 125.256 370.994 109.472 373.768 105.082C373.148 104.585 372.318 104.585 374.265 96.8895C372.61 100.781 372.029 102.812 370.663 103.847C369.298 104.882 369.129 104.552 368.206 104.552C368.38 104.237 368.452 103.875 368.411 103.517C368.411 103.517 362.57 102.812 358.58 102.812C354.591 102.812 346.694 104.967 342.3 106.706C338.821 108.156 336.874 108.156 335.632 109.066C334.389 110.1 333.685 111.22 333.062 111.51C332.565 111.799 330.206 112.544 329.665 113.331C329.168 114.15 328.341 115.07 328.341 115.278C328.341 115.485 328.133 115.778 328.756 115.567C328.961 115.485 330.495 114.655 332.235 113.62C334.594 112.296 337.453 110.764 339.526 109.852C345.448 107.49 347.313 107.905 349.962 107.408C352.737 106.911 356.715 105.751 359.364 105.751C362.015 105.669 367.029 105.751 368.189 105.958C367.692 106.373 367.277 106.87 367.485 108.61C367.485 109.107 367.07 109.644 366.666 110.846C365.426 114.243 363.064 119.876 361.751 122.735C359.929 126.626 357.859 129.901 356.835 131.929C355.811 133.958 353.559 139.302 351.328 142.161C349.097 145.02 347.931 146.76 347.232 147.382C346.533 148.005 341.514 151.689 341.888 153.016C342.8 152.726 348.559 150.558 352.739 145.85C356.92 141.143 357.753 138.27 361.024 135.7C364.296 133.131 366.865 128.825 368.397 125.264C369.68 121.949 369.391 120.914 371.005 117.973L370.994 117.965Z" fill="#806031"/>
<path fill-rule="evenodd" clip-rule="evenodd" d="M220.998 182.267C220.998 182.267 220.086 186.035 218.013 187.9C215.984 189.724 212.38 191.297 211.968 194.363C211.471 197.427 215.572 198.962 215.572 198.962C215.572 198.962 213.333 202.648 213.333 205.423C213.333 208.282 213.251 208.82 213.54 211.553C213.212 211.764 212.933 212.044 212.721 212.372C212.721 212.372 212.926 215.024 214.958 216.678C216.989 218.333 218.726 219.33 219.761 218.915C219.919 219.252 220.057 219.599 220.176 219.952C220.176 219.952 221.711 216.059 222.745 212.662C223.78 209.183 224.692 209.677 225.105 204.997C225.517 200.316 230.02 192.28 230.02 192.28L233.092 185.412L228.081 181.518L220.998 182.264V182.267Z" fill="#B6903C"/>
<path fill-rule="evenodd" clip-rule="evenodd" d="M230.318 189.017C229.284 190.077 228.331 191.213 227.464 192.414C226.14 194.238 225.105 195.893 223.158 196.6C221.211 197.307 219.968 197.302 220.091 199.251C220.214 201.201 222.038 202.026 223.073 203.02C224.193 204.054 225.105 205.794 224.608 207.744C225.228 207.454 226.347 207.121 227.382 204.885C228.417 202.648 235.656 189.019 235.656 189.019H230.318V189.017Z" fill="#685026"/>
<path fill-rule="evenodd" clip-rule="evenodd" d="M258.868 157.576C258.868 157.576 259.488 155.921 258.868 154.72C258.245 153.477 254.477 153.062 252.612 151.653C250.665 150.203 248.303 149.195 246.356 149.832C246.645 149.127 247.806 147.593 246.853 147.262C245.941 146.973 242.546 148.505 241.634 149.209C240.722 149.914 238.65 150.741 238.237 151.241C237.825 151.74 237.118 152.691 236.703 152.276C236.288 151.986 236.083 151.241 235.378 151.653C234.674 152.065 231.282 154.842 230.657 156.459C230.032 158.076 228.626 161.68 224.401 165.779C220.177 169.878 218.353 172.532 219.595 174.064C220.838 175.596 221.419 174.479 221.627 175.803C221.786 177.103 221.716 178.421 221.419 179.697C220.922 181.852 220.095 183.88 221.212 184.295C224.071 185.207 226.848 183.476 227.468 184.006C228.71 185.123 226.763 189.142 229.704 189.929C232.689 190.748 235.63 189.224 235.63 189.224L246.481 183.383L256.921 177.876L262.262 167.311L259.397 158.488L258.851 157.576H258.868Z" fill="#D4B968"/>
<path fill-rule="evenodd" clip-rule="evenodd" d="M248.627 182.805C248.627 182.805 246.803 180.03 249.042 177.584C251.281 175.137 254.468 174.105 255.711 172.573C255.474 172.281 255.157 172.065 254.798 171.953C255.623 170.477 256.881 169.29 258.403 168.553C257.783 167.933 256.953 167.436 256.044 167.436C254.012 167.436 252.767 168.679 250.905 168.679C249.083 168.679 248.876 167.767 248.876 167.767C248.876 167.767 251.942 167.477 251.65 166.109C251.361 164.659 250.831 164.659 250.831 164.659C250.831 164.659 256.754 162.202 257.789 160.891C258.823 159.58 258.701 158.032 258.908 157.412C259.61 157.412 263.711 155.258 265.369 156.17C267.026 157.082 265.866 159.567 265.866 159.567C265.866 159.567 270.882 155.796 273.438 152.098C275.674 152.306 276.715 150.566 278.353 150.566C280.385 150.566 283.574 153.341 284.194 159.263C284.609 162.66 285.229 164.607 284.609 170.615C284.32 174.012 284.402 181.264 285.428 184.863C286.13 187.722 287.788 187.433 287.788 187.433C287.533 188.304 287.029 189.082 286.338 189.669C285.218 190.704 285.095 193.44 285.218 194.475C285.383 195.232 285.591 195.979 285.841 196.712C285.841 196.712 284.516 198.244 284.183 199.281C283.894 200.316 282.528 201.021 281.532 201.021C280.535 201.021 281.035 200.936 279.71 201.021C278.386 201.105 277.971 201.31 277.141 201.021C276.311 200.731 275.691 200.398 276.024 197.744C276.313 195.093 265.792 188.921 265.792 188.921L248.589 182.791L248.627 182.805Z" fill="#CCA849"/>
<path fill-rule="evenodd" clip-rule="evenodd" d="M228.868 208.983C228.868 208.983 232.636 213.997 248.13 213.997C255.503 213.997 258.073 213.292 259.599 212.877C261.257 212.462 267.469 210.021 273.725 202.645C279.358 195.977 278.116 193.244 278.116 193.244L274.839 192.747L264.189 194.197L232.677 207.618L228.854 208.983H228.868Z" fill="#585136"/>
<path fill-rule="evenodd" clip-rule="evenodd" d="M240.424 210.226C240.424 210.226 227.003 213.211 227.003 204.718C227.003 196.433 235.288 187.733 237.36 186.201C239.515 184.667 244.651 182.925 244.651 182.925H257.038L259.397 189.181L258.362 202.684L240.424 210.223V210.226Z" fill="#252211"/>
<path fill-rule="evenodd" clip-rule="evenodd" d="M252.811 185.456C252.811 185.456 250.244 183.094 244.403 186.275C238.562 189.456 233.838 196.106 233.549 202.143C233.259 207.484 237.94 211.463 245.231 211.67C250.656 211.875 253.931 211.255 255.588 210.851C255.173 210.354 253.018 207.662 253.018 207.662L252.814 185.459L252.811 185.456Z" fill="#C3B378"/>
<path fill-rule="evenodd" clip-rule="evenodd" d="M250.284 186.778C250.284 186.778 249.665 186.281 247.827 187.275C246.295 188.094 244.058 190.259 242.319 191.791C241.199 192.703 240.495 193.115 239.861 193.82C237.292 196.886 235.137 201.9 236.383 204.385C237.628 206.87 241.726 209.729 252.166 207.782L250.254 186.78L250.284 186.778Z" fill="#E6D89C"/>
<path fill-rule="evenodd" clip-rule="evenodd" d="M246.887 191.917C246.887 191.917 245.23 194.486 245.23 198.588C245.23 202.771 247.592 209.439 256.292 209.936C262.96 210.351 267.433 200.327 272.28 196.433C275.966 193.451 278.203 193.367 278.203 193.367C278.203 193.367 274.434 189.271 264.369 183.965C254.427 178.621 243.283 177.917 237.234 186.119C240.093 185.912 249.331 183.55 249.331 183.55L253.848 185L246.887 191.919V191.917Z" fill="#252211"/>
<path fill-rule="evenodd" clip-rule="evenodd" d="M259.894 197.343C259.605 196.723 259.397 195.893 260.599 195.688C261.8 195.483 262.338 195.603 262.753 196.507C263.168 197.411 263.572 198.164 262.958 198.539C262.338 198.869 260.722 198.539 259.892 197.337L259.894 197.343ZM257.947 191.502C257.947 191.502 257.532 191.791 257.74 191.212C257.822 190.51 258.362 189.265 259.687 189.557C261.011 189.85 260.724 191.297 260.506 191.712C260.287 192.127 259.182 192.829 258.351 192.531C258.246 192.504 258.149 192.453 258.067 192.381C257.985 192.31 257.922 192.22 257.881 192.119C257.841 192.018 257.825 191.909 257.834 191.801C257.844 191.693 257.879 191.588 257.936 191.496L257.947 191.502Z" fill="#6F674D"/>
<path fill-rule="evenodd" clip-rule="evenodd" d="M145.817 194.15C145.817 194.15 149.094 196.608 152.901 196.512C156.669 196.428 161.516 192.537 163.752 190.049C165.077 188.599 166.21 187.067 167.439 185.866C168.476 184.831 169.178 184.334 169.675 183.629C170.38 182.81 171.125 181.27 171.499 180.77C170.587 181.475 169.263 182.72 167.895 183.547C166.57 184.366 163.711 185.907 162.551 186.322C161.434 186.737 149.834 192.875 149.834 192.875L145.817 194.15Z" fill="#AC924C"/>
<path fill-rule="evenodd" clip-rule="evenodd" d="M150.825 163.542C150.825 163.542 152.647 162.3 156.169 161.511C159.566 160.692 166.401 160.061 166.401 160.061L172.034 162.518L174.271 171.011L170.175 179.836L164.956 183.113L159.031 173.586L150.839 163.559L150.825 163.542Z" fill="#9F8E57"/>
<path fill-rule="evenodd" clip-rule="evenodd" d="M143.453 171.123L141.503 172.578C141.503 172.578 142.003 171.666 142.415 168.892C142.827 166.117 144.985 159.364 148.133 155.471C151.281 151.577 151.2 151.784 151.2 151.784C150.91 151.731 150.612 151.741 150.326 151.812C150.041 151.883 149.773 152.014 149.542 152.196C149.957 151.279 152.609 148.002 155.26 146.364C157.912 144.725 158.946 144.209 161.721 145.545C164.495 146.88 165.2 147.573 167.231 147.492C169.263 147.41 171 145.255 171 145.255C171 145.255 171.415 146.579 169.883 149.646C168.351 152.713 162.302 158.966 162.302 158.966L149.709 167.581L143.453 171.131V171.123Z" fill="#EAC970"/>
<path fill-rule="evenodd" clip-rule="evenodd" d="M152.77 162.507C152.77 162.507 161.885 163.75 164.659 161.183C164.741 161.473 165.074 161.473 165.074 161.68C165.052 161.836 164.979 161.981 164.867 162.092C165.168 162.044 165.473 162.017 165.779 162.01C166.143 162.119 166.519 162.189 166.898 162.218C167.204 162.211 167.509 162.183 167.81 162.133C167.781 162.339 167.711 162.537 167.605 162.716C167.498 162.894 167.356 163.049 167.188 163.171C167.603 163.171 168.007 163.253 168.007 163.583C168.007 163.914 168.089 164.91 167.592 165.118C167.18 165.232 166.742 165.202 166.349 165.033C166.382 165.818 166.595 166.584 166.972 167.272C167.791 168.804 169.539 170.549 171.887 170.047C171.887 170.047 173.127 173.029 167.909 179.656C167.207 180.568 166.459 181.811 165.549 182.845C165.19 183.629 164.915 184.448 164.73 185.289C164.73 185.289 173.556 181.892 176.081 174.146C178.651 166.358 179.148 158.695 178.651 151.53C178.566 149.499 178.236 148.051 177.739 147.014C176.496 144.444 173.015 144.859 171.609 146.309C169.577 148.341 166.18 153.392 161.459 156.871C156.653 160.35 156.448 160.967 152.759 162.507H152.77Z" fill="#D7BC6B"/>
<path fill-rule="evenodd" clip-rule="evenodd" d="M141.836 173.692C141.836 173.692 140.097 174.727 139.185 178.607C138.273 182.583 140.004 187.43 141.006 188.962C142.008 190.494 144.283 194.68 149.002 194.888C150.169 194.882 151.324 194.642 152.398 194.183C154.046 193.428 155.591 192.467 156.997 191.324C159.029 189.792 160.683 188.468 160.476 188.342C159.979 188.135 147.967 178.192 147.967 178.192L143.45 173.152L141.834 173.698L141.836 173.692Z" fill="#585136"/>
<path fill-rule="evenodd" clip-rule="evenodd" d="M153.19 190.177C153.19 190.177 155.634 189.972 157.084 189.06C158.534 188.148 148.592 178.291 148.592 178.291L149.296 188.94L153.19 190.177Z" fill="#453A25"/>
<path fill-rule="evenodd" clip-rule="evenodd" d="M142.622 172.944C142.622 172.944 141.38 175.306 141.38 175.929C141.172 177.958 141.795 184.336 142.292 186.365C142.789 188.52 145.481 191.791 148.963 191.791C151.115 191.791 154.099 190.467 154.099 190.136C154.099 189.721 151.033 189.317 150.205 187.774C149.708 186.955 149.501 184.918 149.386 182.859C149.304 181.535 149.304 180.085 149.801 179.582C150.921 178.34 151.126 174.776 151.126 174.776L155.101 167.39H149.872L143.616 171.284L142.622 172.944Z" fill="#84754B"/>
<path fill-rule="evenodd" clip-rule="evenodd" d="M141.091 175.224C141.091 175.224 145.187 169.798 148.879 168.553C152.571 167.308 154.223 168.056 154.223 168.056L152.068 173.567L149.002 176.964L149.209 178.703C149.209 178.703 148.709 183.301 151.776 186.491C154.842 189.68 157.12 189.557 158.447 189.557C159.774 189.557 163.583 188.438 165.53 183.839C167.27 179.533 168.72 174.009 165.241 168.471C161.841 162.961 155.836 162.748 154.676 162.748C153.515 162.748 144.403 163.204 141.091 175.216V175.224Z" fill="#252211"/>
<path fill-rule="evenodd" clip-rule="evenodd" d="M246.265 193.656C244.733 192.952 246.183 188.645 247.715 187.318C249.247 185.991 251.194 184.462 254.594 184.252C255.833 184.17 257.035 184.956 256.83 185.786C256.541 187.318 254.386 189.473 252.439 191.005C249.747 193.118 248.005 194.443 246.265 193.656Z" fill="#F7F7E7"/>
<path fill-rule="evenodd" clip-rule="evenodd" d="M163.417 170.17C164.537 170.088 165.987 170.989 166.276 172.201C166.566 173.526 165.572 176.177 163.417 176.177C161.678 176.177 160.766 174.023 160.766 173.403C160.785 172.893 160.928 172.396 161.181 171.953C161.263 171.827 161.47 170.377 163.417 170.17Z" fill="#F8F6DE"/>
<path fill-rule="evenodd" clip-rule="evenodd" d="M147.262 171.123C147.262 171.123 144.403 172.447 143.079 175.219C142.132 177.265 141.846 179.556 142.259 181.772C142.467 182.807 143.502 185.374 144.206 186.286C144.911 187.198 145.864 187.821 146.568 187.736C147.273 187.651 148.72 185.789 148.72 184.672C148.72 183.555 148.805 178.831 150.17 176.262C151.372 173.695 147.27 171.125 147.27 171.125L147.262 171.123Z" fill="#D4C38B"/>
<path fill-rule="evenodd" clip-rule="evenodd" d="M147.677 170.915C147.18 171.205 146.353 171.62 146.557 172.158C146.765 172.655 148.504 172.977 149.127 174.189C149.831 175.432 149.831 176.756 149.624 177.379C150.165 177.122 150.656 176.77 151.074 176.341C151.986 175.306 153.103 173.9 154.056 173.9C154.678 173.9 155.298 174.189 155.88 174.189C156.792 174.189 157.701 173.9 157.827 172.947C158.032 171.704 156.087 170.585 154.968 170.792C155.175 169.973 155.465 168.763 154.553 167.933C153.641 167.103 150.784 168.556 150.162 168.971C149.539 169.386 147.677 170.918 147.677 170.918V170.915Z" fill="#E2D59D"/>
<path fill-rule="evenodd" clip-rule="evenodd" d="M213.5 257.947L219.63 256.136L221.37 257.379C221.37 257.379 222.61 260.03 224.559 260.361C223.937 261.685 222.32 262.818 222.405 263.758C222.489 264.697 223.317 265.415 223.317 265.415C223.317 265.415 217.806 274.528 228.661 283.711C226.091 284.746 222.82 286.168 221.08 286.988C222.32 287.277 224.972 287.807 226.091 288.812C227.211 289.817 227.211 290.136 228.246 290.759C229.281 291.381 229.9 292.209 229.696 292.58C228.991 292.165 226.629 290.925 226.217 292.083C225.804 293.241 215.985 292.787 215.985 292.787L199.415 295.977C199.415 295.977 200.035 294.319 198.296 292.787C196.267 290.966 193.782 292.869 191.13 290.841C187.652 288.189 187.526 285.123 186.409 283.965C187.526 283.26 189.806 282.225 195.232 281.507C195.024 281.092 194.32 279.85 194.735 278.733C195.232 277.283 197.302 276.371 196.682 274.637C197.594 274.429 198.006 274.429 200.286 271.57C202.441 268.711 203.765 268.091 205.423 267.884C207.08 267.676 208.074 267.884 211.141 265.025C213.293 262.996 212.591 261.256 212.591 261.256C212.591 261.256 213.997 260.8 213.503 257.941L213.5 257.947Z" fill="#CBAC5A"/>
<path fill-rule="evenodd" clip-rule="evenodd" d="M195.398 258.867C195.48 258.452 195.813 258.245 198.05 258.452C200.286 258.66 214.453 257.128 218.306 256.92C222.2 256.631 235.91 256.836 242.581 258.245C249.252 259.654 256.003 261.311 259.274 262.139C262.551 263.051 263.583 263.378 263.457 263.793C263.375 264.208 262.638 264.613 262.215 264.498C261.803 264.416 250.948 261.101 247.595 260.402C244.242 259.703 232.639 257.832 226.296 257.944C220.373 258.029 218.011 257.862 213 258.441C207.987 259.064 199.702 259.891 197.217 259.561C194.759 259.271 195.267 259.271 195.393 258.856L195.398 258.867Z" fill="#D6BC6F"/>
<path fill-rule="evenodd" clip-rule="evenodd" d="M228.742 291.335C228.742 291.335 237.235 295.933 240.301 301.567C242.538 305.75 238.977 307.823 238.977 307.823C238.977 307.823 243.783 307.823 243.16 310.474C242.871 312.129 234.875 316.602 229.531 318.964C224.106 321.326 224.313 321.203 221.662 321.615C219.092 322.03 212.05 320.796 210.6 322.858C209.15 324.919 209.781 327.044 210.185 327.374C210.6 327.664 213.956 328.079 213.956 328.079C213.956 328.079 213.251 330.026 206.293 330.233C199.336 330.441 197.594 330.935 197.178 331.683C196.763 332.385 198.503 331.973 201.695 332.502C204.884 332.999 209.357 333.322 209.357 333.322C209.357 333.322 207.907 334.564 204.139 335.558C199.83 336.675 193.077 337.713 191.048 338.955C192.083 339.659 193.618 340.694 194.325 340.776C192.586 341.191 190.139 342.103 189.726 342.434C190.346 342.849 191.176 343.346 191.176 343.346C191.176 343.346 187.695 347.529 185.666 348.567C183.637 349.605 171.955 355.028 167.936 353.993C157.911 351.341 156.669 340.364 154.225 339.537C150.539 338.294 148.799 340.776 145.525 339.037C146.975 338.002 147.764 337.382 149.296 336.678C147.639 335.858 139.064 330.422 139.064 330.422C138.168 328.467 137.173 326.56 136.083 324.706C134.425 321.847 131.987 318.035 130.157 314.679C126.181 307.307 125.974 303.91 122.369 299.726C122.992 298.907 125.143 299.022 125.143 299.022L155.345 308.964L208.896 310.515L222.822 290.633L228.745 291.338L228.742 291.335Z" fill="#DFC677"/>
<path fill-rule="evenodd" clip-rule="evenodd" d="M149.417 321.656C149.74 322.016 150.117 322.323 150.534 322.568C151.571 323.273 153.103 324.103 154.138 325.343C154.553 324.723 155.588 323.603 157.415 325.343C159.242 327.082 161.511 325.842 162.923 326.255C164.373 326.754 164.455 326.959 164.455 326.959C164.455 326.959 165.274 326.255 167.106 325.509C168.226 325.094 169.55 324.805 171 324.392C172.325 324.103 173.775 323.688 174.771 323.688C175.683 324.308 178.955 327.784 192.086 322.653C204.473 317.847 207.329 317.309 209.402 318.052C209.609 317.555 209.817 316.602 213.006 316.727C213.006 315.403 210.355 310.886 210.355 310.886L195.732 305.876H187.734L163.75 310.267L150.46 317.85L149.425 321.673L149.417 321.656Z" fill="#C4A859"/>
<path fill-rule="evenodd" clip-rule="evenodd" d="M141.421 313.248C141.421 313.248 141.71 315.485 145.025 317.847C148.302 320.206 149.332 321.615 149.332 321.615C149.332 321.615 149.954 320.796 150.451 319.96C150.948 319.048 151.363 318.013 152.191 317.724C153.848 317.02 157.616 318.344 158.447 318.136C159.151 317.932 158.944 316.482 159.689 316.482C161.428 316.397 162.545 317.598 163.168 317.598C163.791 317.598 165.32 317.516 165.527 317.186C165.735 316.856 165.817 313.415 168.179 311.758C170.748 309.936 173.897 310.723 174.732 311.138C174.732 311.758 174.814 313.292 176.472 313.374C178.129 313.456 178.293 313.167 179.749 313.664C181.204 314.161 182.938 313.582 183.724 316.023C184.429 315.818 186.086 315.611 185.671 313.248C186.491 312.629 187.206 312.214 188.948 309.77C189.363 309.15 190.065 308.445 190.606 307.533C192.056 307.533 193.795 307.244 196.113 309.273C195.409 309.77 194.994 310.092 194.789 310.597C195.395 311.197 195.949 311.849 196.444 312.544C197.066 313.363 197.481 314.368 198.268 314.576C200.007 315.073 202.866 314.368 206.056 314.576C209.122 314.783 211.689 315.9 212.809 316.604C213.224 316.4 213.224 316.315 214.259 316.523C215.294 316.73 216.08 316.812 214.963 315.488C215.583 315.777 216.288 316.4 216.91 315.777C217.533 315.154 218.027 314.245 219.766 314.038C221.506 313.83 222.128 314.12 222.833 312.298C223.745 310.062 220.597 310.062 220.597 310.062C220.597 310.062 222.047 308.735 223.663 306.995C225.61 305.174 227.846 302.812 228.384 299.912C229.296 294.568 224.078 293.866 224.078 293.866L198.768 301.654L167.824 300.119L141.437 313.251L141.421 313.248Z" fill="#927D49"/>
<path fill-rule="evenodd" clip-rule="evenodd" d="M118.68 240.135C118.68 240.135 117.861 241.17 117.356 243.614C116.85 246.058 117.066 245.768 116.651 247.508C116.236 249.247 111.138 266.562 113.049 272.403C114.961 278.244 118.27 280.399 120.34 285.12C120.755 286.155 121.159 286.777 121.375 287.689C122.08 290.753 121.46 293.115 122.287 296.182C122.577 297.217 123.325 298.418 124.442 299.661C126.899 302.228 130.905 304.671 132.634 306.411C135.075 308.98 138.556 314.201 142.988 314.696C145.35 314.985 148.706 313.991 151.481 312.336C153.938 310.802 155.457 308.65 158.034 307.421C159.856 306.509 161.803 306.179 163.542 305.764C167.147 305.059 170.421 304.945 172.368 305.349C175.349 305.971 182.392 308.126 186.294 308.126C189.343 308.077 192.375 307.659 195.324 306.883C201.247 305.144 208.412 302.159 213.136 300.835C215.911 300.016 218.147 299.8 220.427 299.303C224.321 298.391 227.593 297.148 229.458 294.786C228.215 293.336 226.683 291.1 218.396 291.182C208.994 291.389 198.14 296.608 192.796 297.438C187.452 298.268 185.133 298.97 179.167 296.815C173.318 294.639 173.124 293.2 173.124 293.2C173.124 293.2 166.983 288.905 164.413 277.955C161.844 267.005 164.413 259.026 171.084 251.443C172.824 249.496 172.409 247.756 172.409 247.756C172.409 247.756 176.799 241.833 175.598 236.287C174.274 230.777 165.781 231.896 165.781 231.896L118.683 240.135H118.68Z" fill="#6E6342"/>
<path fill-rule="evenodd" clip-rule="evenodd" d="M125.763 258.57C125.398 259.256 125.226 260.029 125.266 260.806C125.348 261.923 125.681 263.373 129.035 266.647C131.894 269.503 131.271 272.693 131.271 272.693C131.271 272.693 132.71 272.982 136.615 271.155C139.682 269.705 140.711 272.275 140.711 272.275C141.604 271.807 142.571 271.498 143.57 271.363C144.475 271.279 145.351 271 146.137 270.544C146.137 270.544 149.741 274.23 152.89 275.969C155.749 277.504 157.406 278.539 158.815 277.504C160.14 276.592 160.14 274.727 160.055 273.9C159.727 273.136 159.311 272.413 158.815 271.745C157.903 270.421 156.453 268.886 156.358 267.649C156.15 264.793 158.512 261.393 158.013 260.566C157.513 259.738 155.653 259.531 151.055 261.188C146.293 262.761 125.744 258.578 125.744 258.578L125.763 258.57Z" fill="#39331F"/>
<path fill-rule="evenodd" clip-rule="evenodd" d="M136.615 277.086C136.615 277.086 134.256 274.85 135.083 263.995C136.085 263.981 137.085 264.078 138.065 264.285C138.065 264.285 139.351 272.695 136.615 277.086Z" fill="#292311"/>
<path fill-rule="evenodd" clip-rule="evenodd" d="M119.8 231.85C120.129 231.606 120.435 231.332 120.712 231.031C119.893 232.563 116.111 238.693 119.178 248.346C122.244 257.955 129.947 265.12 139.434 265.454C148.92 265.787 153.906 261.145 159.608 254.187C161.844 251.412 164.414 247.931 166.691 245.572C170.088 241.882 172.74 240.847 172.74 237.287C172.74 229.996 165.282 226.722 154.305 223.45C143.328 220.179 133.426 220.583 128.29 222.822C123.279 225.264 121.125 227.833 119.797 231.853L119.8 231.85Z" fill="#252211"/>
<path fill-rule="evenodd" clip-rule="evenodd" d="M155.05 280.358L155.869 279.942C155.869 279.942 156.074 276.666 157.401 276.753C158.726 276.961 159.348 278.703 159.223 279.323C159.141 279.942 158.81 280.98 157.483 280.855C155.744 280.895 155.042 280.358 155.042 280.358H155.05Z" fill="#3F3824"/>
<path fill-rule="evenodd" clip-rule="evenodd" d="M151.363 266.439C151.363 266.439 152.182 266.15 153.185 267.144C154.004 267.144 157.576 266.729 158.695 267.433C159.815 268.138 160.145 268.758 160.145 268.758C160.145 268.758 155.962 269.67 153.682 268.758C151.363 267.971 151.363 266.439 151.363 266.439Z" fill="#2D2815"/>
<path fill-rule="evenodd" clip-rule="evenodd" d="M169.798 267.059C169.798 266.852 167.561 265.32 165.199 264.82C164.784 264.738 164.7 265.028 164.38 265.028C164.173 264.946 164.091 264.323 164.091 264.323L162.747 265.03C162.747 265.03 162.54 265.32 163.244 265.849C163.864 266.346 164.902 266.761 165.191 267.589C165.481 268.416 165.481 268.706 165.606 268.831C165.688 268.913 167.138 268.831 167.843 268.416C168.547 268.001 169.874 267.324 169.79 267.051L169.798 267.059Z" fill="#82764F"/>
<path fill-rule="evenodd" clip-rule="evenodd" d="M148.879 275.47C148.879 275.47 149.291 272.613 152.068 272.488C154.925 272.28 155.465 275.055 155.465 275.055L153.808 276.712C153.808 276.671 152.565 274.932 148.893 275.47H148.879Z" fill="#2D2816"/>
<path fill-rule="evenodd" clip-rule="evenodd" d="M166.899 263.165C166.899 263.165 165.364 264.823 161.97 265.32C161.68 264.905 161.058 264.077 161.97 262.753C162.882 261.429 163.917 261.013 164.952 261.426C165.408 261.5 165.834 261.703 166.179 262.011C166.524 262.319 166.774 262.72 166.899 263.165Z" fill="#574F35"/>
<path fill-rule="evenodd" clip-rule="evenodd" d="M173.152 265.197C173.237 264.782 172.947 264.7 173.152 264.492C173.357 264.285 174.479 263.872 174.687 264.077C174.769 264.162 174.687 264.492 174.687 264.896C174.687 265.301 174.687 265.716 174.479 266.013C174.19 266.428 173.362 266.636 172.947 266.513C172.532 266.39 172.45 265.809 172.45 265.694C172.655 265.612 173.152 265.404 173.152 265.197ZM180.224 260.724C180.224 260.516 180.929 260.101 181.344 260.101C181.964 260.101 181.964 260.598 182.048 260.724C182.253 260.806 182.253 260.639 182.461 261.013C182.668 261.388 182.961 262.048 182.75 262.463C182.54 262.879 181.715 263.165 181.511 263.083C181.221 262.876 180.309 261.013 180.224 260.724Z" fill="#82764F"/>
<path fill-rule="evenodd" clip-rule="evenodd" d="M165.986 266.15C165.986 266.15 166.898 266.355 168.141 267.392C167.726 267.682 167.103 268.012 167.103 268.012C167.103 268.012 167.021 267.059 165.986 266.147V266.15Z" fill="#6E6342"/>
<path fill-rule="evenodd" clip-rule="evenodd" d="M163.958 257.035C163.75 256.83 164.577 256.333 165.074 256.415C165.571 256.497 165.779 256.83 166.317 256.912C166.855 256.994 166.939 256.705 167.136 256.497C167.333 256.289 168.048 256.415 168.171 256.497C168.247 256.588 168.317 256.685 168.379 256.786C168.387 256.629 168.428 256.475 168.499 256.334C168.57 256.193 168.669 256.068 168.791 255.967C168.95 255.85 169.133 255.771 169.327 255.735C169.521 255.699 169.72 255.708 169.91 255.76C169.992 256.049 170.407 257.084 170.325 257.292C170.244 257.499 169.001 257.791 168.791 257.581C168.998 258.081 169.91 259.116 170.033 259.32C170.156 259.525 169.121 260.025 168.709 259.943C168.13 259.902 164.566 257.83 163.947 257.043L163.958 257.035ZM169.383 250.159C169.307 249.95 169.16 249.775 168.968 249.662C168.679 249.58 167.726 249.662 167.726 250.159C167.726 250.656 168.545 253.436 169.465 254.883C170.503 256.333 171.205 257.532 171.909 257.865C172.13 257.966 172.382 257.979 172.612 257.902C172.843 257.825 173.035 257.663 173.152 257.45C173.234 257.242 173.441 255.711 173.359 252.106C173.277 248.502 173.152 245.023 172.944 244.815C172.737 244.608 171.909 244.61 171.62 245.023C171.33 245.435 169.465 249.539 169.381 250.159H169.383Z" fill="#585136"/>
<path fill-rule="evenodd" clip-rule="evenodd" d="M165.697 271.368C165.697 271.368 164.247 270.456 162.838 271.079C161.514 271.701 161.596 274.145 161.596 274.145C161.894 274.262 162.216 274.304 162.534 274.268C162.851 274.232 163.156 274.118 163.42 273.938C164.332 273.318 165.49 272.283 165.697 271.371V271.368Z" fill="#574F35"/>
<path fill-rule="evenodd" clip-rule="evenodd" d="M168.431 274.642C168.349 273.823 167.611 273.823 167.611 273.4C167.662 273.198 167.779 273.018 167.944 272.89C168.109 272.763 168.312 272.694 168.521 272.695C168.936 272.695 169.34 273.192 169.848 273.515C170.345 273.804 171.09 274.334 171.172 274.964C171.254 275.595 170.353 277.324 169.351 277.324C168.349 277.324 168.646 275.459 168.439 274.631L168.431 274.642ZM176.426 273.523C176.426 273.523 174.768 274.02 174.891 273.523C175.014 273.026 175.391 272.903 175.929 272.903C176.202 272.617 176.57 272.439 176.964 272.403C177.189 272.392 177.41 272.466 177.584 272.611C177.584 272.611 178.703 272.114 179.034 272.403C179.364 272.693 179.118 272.693 179.323 273.026C179.584 273.395 179.755 273.821 179.823 274.268C179.823 274.599 178.58 275.303 177.584 275.18C176.426 274.932 176.631 273.73 176.426 273.523ZM186.076 271.658C186.076 271.658 186.573 271.947 186.161 272.28C185.871 272.57 184.421 273.099 183.176 273.192C181.934 273.192 180.817 273.397 180.817 272.985C180.817 272.572 181.852 271.742 182.472 271.535C182.596 271.379 182.754 271.254 182.934 271.167C183.113 271.081 183.31 271.037 183.509 271.038C184.006 271.038 185.95 270.83 186.491 270.748C186.988 270.664 187.403 270.953 187.111 271.368C186.988 271.658 186.076 271.658 186.076 271.658ZM188.935 258.867C188.935 258.867 188.313 260.192 187.611 260.192C186.906 260.11 186.906 259.902 186.906 259.695C186.906 259.405 187.611 258.66 187.526 258.452C187.321 258.452 186.822 258.452 186.906 257.955C186.906 257.54 187.611 257.043 188.231 257.136C188.699 256.751 189.282 256.533 189.888 256.516C190.593 256.516 191.212 256.721 191.212 257.136C191.212 257.551 190.393 258.46 190.093 258.671C189.763 259.001 189.347 259.217 188.935 258.875V258.867ZM179.49 283.348C179.49 283.348 178.671 283.432 178.671 283.845C178.671 284.052 178.875 284.052 179.168 283.929C179.336 283.92 179.503 283.891 179.664 283.845C179.746 283.929 179.746 284.342 180.369 284.342C180.88 284.273 181.373 284.104 181.819 283.845C182.316 283.64 182.731 283.43 182.731 283.025C182.523 282.321 182.108 281.988 181.489 281.988C181.171 281.968 180.854 282.04 180.577 282.195C180.577 282.195 180.369 281.78 179.664 282.195C178.96 282.61 179.042 282.61 179.249 282.818C179.621 283.148 179.498 283.364 179.498 283.364L179.49 283.348ZM174.809 287.657C174.809 287.449 175.844 287.034 176.134 287.16C176.423 287.242 177.251 288.814 177.251 288.981C177.251 289.189 176.216 289.686 175.801 289.686C175.386 289.686 174.684 288.981 174.684 288.866C174.684 288.784 175.181 288.662 175.181 288.577C175.304 288.372 174.809 287.872 174.809 287.665V287.657ZM171.533 281.608C171.74 281.526 171.74 281.319 172.03 281.111C172.12 281.051 172.223 281.012 172.331 280.998C172.439 280.984 172.549 280.995 172.652 281.029C172.725 280.899 172.826 280.787 172.948 280.7C173.07 280.614 173.21 280.555 173.357 280.53C173.854 280.448 174.269 280.53 174.176 280.737C174.176 281.36 174.591 281.772 174.591 282.269C174.591 282.766 174.301 283.389 173.267 283.804C172.232 284.093 170.823 284.093 170.615 284.011C170.408 283.929 170.2 283.099 170.408 282.684C170.615 282.269 171.194 281.816 171.527 281.608H171.533Z" fill="#82764F"/>
<path fill-rule="evenodd" clip-rule="evenodd" d="M172.851 281.889C172.851 281.889 172.147 282.304 172.147 282.512C172.084 282.712 172.057 282.922 172.065 283.132C172.065 283.255 172.977 283.05 173.1 282.924C173.141 282.842 172.851 282.105 172.851 281.889Z" fill="#6E6342"/>
<path fill-rule="evenodd" clip-rule="evenodd" d="M166.691 279.942C167.103 280.027 167.808 279.942 168.346 280.15C168.761 280.357 169.05 280.773 168.635 281.27C168.22 281.766 167.816 282.512 166.896 282.386C165.861 282.304 164.867 281.766 164.867 281.351C164.849 281.089 164.884 280.825 164.97 280.577C165.055 280.328 165.189 280.098 165.364 279.901C165.779 279.571 165.983 279.779 166.688 279.942H166.691Z" fill="#585136"/>
<path fill-rule="evenodd" clip-rule="evenodd" d="M166.193 280.358C166.193 280.358 164.869 281.392 164.536 281.892C164.121 282.389 162.092 284.956 161.472 285.494C161.678 285.131 161.913 284.785 162.174 284.459C161.355 284.983 160.74 285.772 160.434 286.695C159.937 288.23 163.211 289.057 165.363 289.68C167.515 290.303 168.348 290.499 168.348 290.499C167.556 289.309 166.876 288.047 166.316 286.731C165.497 284.784 165.074 284.576 165.612 283.664C166.027 282.752 166.649 282.132 166.649 281.428C166.401 280.773 166.193 280.358 166.193 280.358Z" fill="#574F35"/>
<path fill-rule="evenodd" clip-rule="evenodd" d="M118.969 283.632C119.271 283.687 119.58 283.687 119.881 283.632C120.501 283.547 126.965 281.174 133.718 281.6C138.773 281.905 143.784 282.729 148.671 284.058C157.163 286.294 167.725 290.726 174.56 293.254C176.382 293.956 178.165 295.201 179.475 295.696C184.696 297.727 184.901 297.727 187.968 298.265C191.572 298.762 195.259 297.561 199.112 296.733C203.833 295.696 211.91 295.199 218.994 294.164C221.284 293.846 223.543 293.334 225.747 292.632C225.747 292.632 220.113 298.265 206.607 300.294C201.148 301.123 195.601 301.193 190.122 300.502C185.813 300.087 182.957 299.464 180.803 298.844C178.359 298.14 173.345 296.275 167.174 294.748C162.865 293.629 158.059 292.801 152.551 291.766C138.963 289.279 124.218 286.422 118.964 283.648L118.969 283.632Z" fill="#252211"/>
<path fill-rule="evenodd" clip-rule="evenodd" d="M103.725 258.032C100.448 260.806 96.9719 263.457 93.5777 266.024L83.3459 273.886C79.867 276.453 76.4701 279.104 72.9885 281.674C69.5069 284.243 66.0307 286.685 62.3389 289.047C65.6157 286.272 69.0918 283.703 72.5707 281.177C76.0495 278.651 79.6568 276.174 83.0127 273.613L93.2446 265.74C96.7644 263.173 100.161 260.522 103.725 258.037V258.032ZM85.6233 287.029C85.6233 287.029 89.3097 283.962 93.9081 279.656C99.6234 274.315 106.625 267.477 108.861 266.237L85.6205 287.031L85.6233 287.029Z" fill="#CFB66C"/>
<path fill-rule="evenodd" clip-rule="evenodd" d="M85.623 287.026C87.4471 285.205 89.3941 283.424 91.3411 281.682L94.323 279.115C95.235 278.296 96.2727 277.376 97.182 276.464C99.0033 274.642 100.786 272.693 102.608 270.83C103.511 269.894 104.465 269.009 105.467 268.179C105.968 267.736 106.524 267.359 107.122 267.059C107.621 266.77 108.159 266.24 108.861 266.147C108.449 266.77 107.952 267.059 107.537 267.597C107.04 268.012 106.625 268.509 106.212 268.922C105.3 269.834 104.265 270.661 103.353 271.491C101.406 273.149 99.3774 274.768 97.4304 276.502C95.4835 278.236 93.6621 280.106 91.7124 281.846C89.6016 283.629 87.6547 285.368 85.623 287.034V287.026ZM110.396 270.456C110.396 270.456 96.8925 283.673 94.1154 285.824L110.396 270.456Z" fill="#CFB66C"/>
<path fill-rule="evenodd" clip-rule="evenodd" d="M110.395 270.456C109.181 271.862 107.878 273.19 106.496 274.432L102.4 278.326C101.076 279.65 99.8305 280.977 98.4242 282.302C96.9742 283.544 95.6499 284.759 94.1152 285.906L98.0911 282.012C99.4182 280.688 100.868 279.571 102.277 278.244L106.253 274.35C107.618 272.985 108.945 271.658 110.395 270.456ZM111.015 277.621C109.771 281.095 108.304 284.486 106.624 287.771C103.146 294.732 97.9272 303.429 95.6471 307.864L111.015 277.621Z" fill="#CFB66C"/>
<path fill-rule="evenodd" clip-rule="evenodd" d="M111.016 277.624C111.016 279.156 110.601 280.483 110.104 281.808C109.619 283.133 109.067 284.433 108.449 285.701C107.826 286.944 107.122 288.271 106.417 289.472C105.713 290.674 104.885 291.914 104.263 293.159L100.079 300.532C98.6294 302.989 97.2204 305.461 95.6885 307.823C96.7234 305.171 98.1324 302.686 99.4595 300.242C100.91 297.785 102.234 295.327 103.556 292.785C104.201 291.518 104.781 290.219 105.295 288.894C105.915 287.566 106.535 286.324 107.034 285.123C107.654 283.798 108.151 282.553 108.774 281.354C109.476 280.068 110.057 278.826 111.01 277.624H111.016Z" fill="#CFB66C"/>
<path fill-rule="evenodd" clip-rule="evenodd" d="M125.764 311.591C125.764 311.591 121.668 317.017 122.078 323.893C123.194 320.291 124.603 314.78 125.764 311.591ZM129.658 317.03C129.658 317.03 128.208 331.776 127.006 339.026C128.705 330.646 129.035 331.35 129.658 317.03ZM156.79 339.897C156.79 339.897 150.66 357.919 150.534 362.927C151.861 357.777 154.428 347.256 156.79 339.883V339.897Z" fill="#DEC270"/>
<path fill-rule="evenodd" clip-rule="evenodd" d="M171.123 310.477C171.123 310.477 181.065 326.88 188.523 340.88C186.505 333.835 181.863 320.913 171.123 310.477Z" fill="#CBAF59"/>
<path fill-rule="evenodd" clip-rule="evenodd" d="M197.842 334.624C203.301 344.273 208.223 354.216 212.587 364.408C211.76 357.365 209.521 345.312 197.842 334.624Z" fill="#E3C677"/>
<path fill-rule="evenodd" clip-rule="evenodd" d="M276.381 358.81C278.036 357.775 281.31 352.139 284.169 350.732C287.026 349.282 289.18 348.993 291.75 346.134C294.316 343.149 295.026 341.328 300.654 338.969C308.527 335.569 303.112 331.178 303.112 331.178C303.979 330.326 304.906 329.538 305.886 328.819C307.918 327.287 310.277 325.422 310.072 322.148C309.783 316.64 308.748 308.645 304.232 304.005C308.622 303.093 317.03 302.473 322.254 301.149C328.3 299.614 331.077 297.46 331.077 297.46C331.077 297.46 327.598 291.537 333.231 285.573C338.865 279.609 343.463 276.046 346.86 269.375C342.966 268.878 337.03 266.808 321.88 272.564C322.698 272.949 323.487 273.392 324.242 273.889C324.242 273.889 314.922 276.458 311.525 279.317C305.6 284.328 304.854 288.429 298.434 291.496C292.015 294.563 285.551 293.732 280.21 296.217C274.869 298.702 274.08 300.816 272.13 301.728C272.545 302.225 272.048 303.052 272.834 303.757C272.337 304.461 269.437 309.183 266.496 309.183C266.786 310.302 269.271 311.129 269.271 311.129C269.271 311.129 267.449 312.457 262.81 312.787C265.169 315.245 267.408 317.923 273.58 321.817C273.083 322.852 271.01 324.387 271.84 326.334C272.752 328.281 275.117 330.932 284.557 333.087C279.751 333.292 274.12 334.411 266.535 333.376C258.954 332.464 257.712 331.926 253.032 333.087C253.529 333.584 254.853 333.584 256.013 334.908C254.771 334.99 246.983 333.996 244.332 337.478C241.557 341.079 240.356 347.005 240.563 350.981C239.113 351.685 237.704 352.928 238.409 355.497C239.113 358.067 242.8 358.894 245.162 360.508C247.521 362.248 247.729 362.867 249.968 362.455C252.327 361.958 255.806 359.599 257.838 359.599C259.869 359.599 261.316 361.131 261.316 361.131C261.316 361.131 266.827 358.479 267.365 358.976C267.862 359.473 267.447 362.663 267.985 363.16C268.531 363.534 274.738 359.847 276.395 358.81H276.381Z" fill="#ECD592"/>
<path fill-rule="evenodd" clip-rule="evenodd" d="M396.801 193.036C370.912 126.179 306.91 113.792 306.91 113.792H124.313L125.018 181.892H161.382V333.961H124.311V401.938H301.856C344.645 401.938 378.945 358.938 378.945 358.938C433.873 280.98 396.798 193.036 396.798 193.036H396.801ZM302.809 313.123C302.809 313.123 288.882 333.215 273.73 333.215H243.419L242.701 182.059H281.6C281.6 182.059 299.622 185.827 312.213 221.493C312.213 221.493 328.906 272.556 302.809 313.123Z" fill="white" fill-opacity="0.8"/>
</g>
<defs>
<clipPath id="clip0_233_160">
<rect width="512" height="512" fill="white"/>
</clipPath>
</defs>
</svg>
