<svg width="80" height="75" viewBox="0 0 80 75" fill="none" xmlns="http://www.w3.org/2000/svg">
<path fill-rule="evenodd" clip-rule="evenodd" d="M18 1.94598C7.934 2.59998 4.764 3.70498 2.886 7.21198C1.293 10.19 0.072 22.299 0.727 28.64L1.266 33.87L4.694 29.768C9.024 24.585 11 20.779 11 17.621C11 11.968 13.544 11.26 35.922 10.69L51.345 10.298L54.172 7.13298C55.728 5.39298 57 3.58998 57 3.12698C57 1.16698 38.586 0.609978 18 1.94598ZM68.027 2.28098C65.826 3.39398 43.511 33.826 39.268 41.5C37.945 43.892 37.598 47.441 37.554 59L37.5 73.5L42.224 73.804L46.947 74.107L47.224 58.845L47.5 43.583L53.937 53.041C63.207 66.663 66.865 71.338 69.327 72.715C71.527 73.944 80 74.496 80 73.41C80 73.086 74.6 64.728 68 54.836C61.4 44.945 56 36.271 56 35.561C56 34.851 56.843 33.197 57.872 31.885C60.912 28.013 79 1.96798 79 1.46298C79 0.458978 70.355 1.10298 68.027 2.28098ZM8.033 35.845C1.742 42.458 0.787 45.628 0.635 60.394L0.5 73.5L5.725 73.801L10.95 74.103L11.225 57.801L11.5 41.5L19.5 41L27.5 40.5L27.824 37.105C28.245 32.698 27.04 32.034 18.595 32.015C11.879 32 11.59 32.105 8.033 35.845Z" fill="url(#paint0_linear_228_40)"/>
<defs>
<linearGradient id="paint0_linear_228_40" x1="40.25" y1="0.966553" x2="40.25" y2="74.107" gradientUnits="userSpaceOnUse">
<stop stop-color="#254CBD"/>
<stop offset="1" stop-color="#7211C1"/>
</linearGradient>
</defs>
</svg>
