<svg width="128" height="128" viewBox="0 0 45 34" fill="none" xmlns="http://www.w3.org/2000/svg">
<g clip-path="url(#clip0_29_1273)">
<path d="M28.5811 28.01H16.4111V5.995H28.5811V28.01Z" fill="#FF5F00"/>
<path d="M17.193 17C17.193 12.534 19.27 8.55701 22.506 5.99301C20.0616 4.05127 17.0308 2.99612 13.909 3.00001C6.227 3.00001 0 9.26801 0 17C0 24.732 6.227 31 13.91 31C17.154 31 20.14 29.881 22.506 28.007C20.8463 26.693 19.506 25.0199 18.5858 23.1135C17.6656 21.2071 17.1894 19.1169 17.193 17Z" fill="#EB001B"/>
<path d="M45.0001 17C45.0001 24.732 38.7741 31 31.0911 31C27.8471 31 24.8611 29.881 22.4941 28.007C24.1541 26.6932 25.4947 25.0202 26.4151 23.1137C27.3355 21.2073 27.8118 19.117 27.8081 17C27.8081 12.534 25.7301 8.55701 22.4941 5.99301C24.939 4.05141 27.9701 2.99629 31.0921 3.00001C38.7731 3.00001 45.0001 9.26801 45.0001 17Z" fill="#F79E1B"/>
</g>
<defs>
<clipPath id="clip0_29_1273">
<rect width="45" height="34" fill="white"/>
</clipPath>
</defs>
</svg>
