<svg width="134" height="40" viewBox="0 0 134 40" fill="none" xmlns="http://www.w3.org/2000/svg">
<g clip-path="url(#clip0_107_574)">
<path fill-rule="evenodd" clip-rule="evenodd" d="M12.332 0.00679374C13.5234 -0.00100678 17.0642 -0.350026 18.564 5.18985C19.5743 8.92158 21.1836 15.0343 23.392 23.5281H24.2914C26.6596 14.5734 28.2865 8.46062 29.172 5.18985C30.6875 -0.407733 34.476 0.00690343 35.9915 0.00690343L47.6834 0.00691939V39.8119H35.7667V16.3542H34.9676L28.3246 39.8119H19.3588L12.7158 16.3368H11.9167V39.8119H0V0.00691939L12.332 0.00679374ZM64.7955 0.00691939V23.4821H65.7462L73.8267 4.17863C75.3953 0.337179 78.7385 0.00691939 78.7385 0.00691939H90.2703V39.812H78.1047V16.3368H77.154L69.2319 35.6403C67.6633 39.4643 64.1617 39.812 64.1617 39.812H52.6299V0.00691939H64.7955ZM132.32 18.9225C130.623 24.1855 125.294 27.9547 119.394 27.9547H106.636V39.812H95.0669V18.9225H132.32Z" fill="#0F754E"/>
<path fill-rule="evenodd" clip-rule="evenodd" d="M119.952 0.0078125H94.4604C95.0671 8.86977 102.04 16.4562 109.259 16.4562H133.124C134.501 9.09085 129.76 0.0078125 119.952 0.0078125Z" fill="url(#paint0_linear_107_574)"/>
</g>
<defs>
<linearGradient id="paint0_linear_107_574" x1="133.358" y1="10.3545" x2="94.4604" y2="10.3545" gradientUnits="userSpaceOnUse">
<stop stop-color="#1F5CD7"/>
<stop offset="1" stop-color="#02AEFF"/>
</linearGradient>
<clipPath id="clip0_107_574">
<rect width="134" height="40" fill="white"/>
</clipPath>
</defs>
</svg>
