<svg width="60" height="63" viewBox="0 0 60 63" fill="none" xmlns="http://www.w3.org/2000/svg">
<g clip-path="url(#clip0_1001_5)">
<mask id="mask0_1001_5" style="mask-type:luminance" maskUnits="userSpaceOnUse" x="0" y="0" width="137" height="63">
<path d="M137 0H0V63H137V0Z" fill="white"/>
</mask>
<g mask="url(#mask0_1001_5)">
<path fill-rule="evenodd" clip-rule="evenodd" d="M41.852 51.1286C47.5776 52.4169 53.3217 53.9399 59.5304 61.9424C60.0819 62.6526 59.2397 63.3642 58.607 62.7905C52.2886 57.0784 46.5801 55.237 41.319 55.237C35.4623 55.237 31.4723 56.0352 27.451 56.0352C12.2905 56.0352 0 43.49 0 28.0161C0 12.5452 12.2905 0 27.451 0C42.6129 0 54.902 12.5437 54.902 28.0161C54.9093 33.086 53.5651 38.0607 51.0161 42.3983C50.9348 42.5348 50.7311 42.4864 50.7111 42.3294C49.7692 35.4449 45.6467 31.6506 39.6489 30.5442C39.1288 30.4474 39.0319 30.1202 39.7202 30.06C41.5499 29.8986 44.1576 29.9265 45.4828 30.1701C45.5626 29.4643 45.5968 28.7439 45.5968 28.0161C45.5968 17.7892 37.473 9.49619 27.451 9.49619C17.4291 9.49619 9.30518 17.7878 9.30518 28.0161C9.30518 38.246 17.4291 46.5375 27.451 46.5375C27.736 46.5375 28.021 46.5404 28.3031 46.5272C28.025 44.8742 27.9109 43.1963 27.9626 41.5194C28.0068 40.3896 28.2319 40.2341 28.7321 41.113C31.2415 45.5295 34.8453 49.5542 41.8505 51.1286H41.852ZM41.386 44.2544C42.0557 44.2544 42.7582 44.542 43.3624 45.0644C44.5837 46.1179 44.9556 47.3709 44.3086 48.2557C43.9495 48.7399 43.3681 49.0069 42.6699 49.0069C41.9859 49.0069 41.2877 48.7472 40.8032 48.3173C39.6917 47.3254 39.3653 45.7202 40.0907 44.8076C40.3742 44.4511 40.8345 44.2544 41.386 44.2544ZM47.4721 39.6707C48.491 40.0639 48.8914 41.6544 48.9969 42.3881C49.1764 43.6162 48.7974 44.1238 48.4155 44.1238C47.9994 44.1238 47.475 43.6264 46.8594 42.6448C46.2509 41.6764 46.0286 40.5613 46.3293 40.0008C46.5288 39.6296 46.9463 39.4667 47.4721 39.6707ZM82.2134 21.6863C82.4357 21.0187 82.5596 20.3041 82.5596 19.5617C82.5596 16.1635 80.0802 13.2348 76.6801 13.2348C73.2801 13.2348 70.8021 16.1635 70.8021 19.5617C70.8021 22.9599 73.2801 25.8475 76.6801 25.8475C77.7104 25.8475 78.6552 25.579 79.4731 25.1139L77.2644 22.4023C77.2124 22.3386 77.1792 22.2608 77.1688 22.1782C77.1584 22.0956 77.1711 22.0116 77.2056 21.9363C77.2401 21.8609 77.2948 21.7973 77.3633 21.753C77.4318 21.7087 77.5112 21.6856 77.5921 21.6863H82.2148H82.2134ZM86.0466 25.6978L89.4694 29.6991C89.7102 29.9691 89.5122 30.4063 89.1516 30.4063H84.1072C84.0058 30.4064 83.9057 30.3836 83.8139 30.3395C83.722 30.2953 83.6407 30.231 83.5757 30.151L82.7207 29.1019C80.9194 30.2956 78.8222 30.9293 76.6801 30.9272C70.5399 30.9272 65.5453 25.8284 65.5453 19.5617C65.5453 13.295 70.5399 8.19619 76.6801 8.19619C82.8218 8.19619 87.8164 13.295 87.8164 19.5617C87.8164 21.8213 87.1638 23.9254 86.0466 25.6978ZM136.068 8.71854C136.372 8.71854 136.617 8.96944 136.617 9.27904V29.8443C136.617 30.1525 136.372 30.4034 136.068 30.4034H131.954C131.81 30.4042 131.671 30.3459 131.568 30.2414C131.465 30.1369 131.407 29.9946 131.405 29.8458V9.27757C131.405 8.96798 131.651 8.71707 131.954 8.71707H136.069L136.068 8.71854ZM96.516 8.71854C96.8195 8.71854 97.0632 8.96944 97.0632 9.27904V29.8443C97.0632 30.1525 96.8195 30.4034 96.516 30.4034H92.4006C92.2561 30.4042 92.1172 30.3459 92.0144 30.2414C91.9115 30.1369 91.8531 29.9946 91.852 29.8458V9.27757C91.852 8.96798 92.0971 8.71707 92.4006 8.71707H96.516V8.71854ZM129.141 8.71854C129.316 8.71854 129.483 8.80511 129.586 8.9489C129.636 9.01965 129.67 9.10195 129.683 9.18881C129.696 9.27566 129.689 9.3645 129.661 9.44777L122.895 30.0263C122.858 30.1374 122.788 30.2338 122.695 30.302C122.602 30.3701 122.491 30.4066 122.377 30.4063H118.72C118.606 30.407 118.494 30.3709 118.401 30.303C118.308 30.2351 118.238 30.1389 118.2 30.0278L114.234 18.0049L110.267 30.0278C110.23 30.1386 110.16 30.2347 110.067 30.3026C109.974 30.3704 109.862 30.4067 109.748 30.4063H106.09C105.976 30.4066 105.865 30.3701 105.772 30.302C105.679 30.2338 105.609 30.1374 105.572 30.0263L98.8074 9.44924C98.7801 9.36595 98.7728 9.27714 98.7859 9.1903C98.7991 9.10347 98.8323 9.02117 98.8829 8.95037C98.9341 8.8785 99.0011 8.82007 99.0783 8.77979C99.1556 8.73952 99.2409 8.71853 99.3275 8.71854H103.933C104.175 8.71854 104.386 8.87994 104.457 9.11177L108.101 21.2667L112.107 9.0971C112.144 8.98572 112.214 8.88916 112.308 8.82099C112.401 8.75283 112.513 8.71648 112.627 8.71707H115.842C116.077 8.71707 116.286 8.86967 116.36 9.0971L120.366 21.2652L124.011 9.1103C124.046 8.99562 124.116 8.89553 124.21 8.82476C124.305 8.75398 124.419 8.71623 124.536 8.71707H129.141V8.71854Z" fill="#FF8C00"/>
</g>
</g>
<defs>
<clipPath id="clip0_1001_5">
<rect width="60" height="63" fill="white"/>
</clipPath>
</defs>
</svg>
