<svg width="819" height="203" viewBox="0 0 819 203" fill="none" xmlns="http://www.w3.org/2000/svg">
<path d="M478.604 85.9656C474.558 89.1156 469.392 90.6836 463.043 90.6836C458.465 90.6836 454.461 90.1026 451.038 88.9196C447.636 87.7506 444.528 85.7836 441.742 82.9976L449.127 75.6336C450.863 77.3766 452.921 78.6366 455.308 79.3996C457.688 80.1766 460.32 80.5616 463.218 80.5616C470.092 80.5616 473.543 78.1326 473.543 73.3166C473.543 71.2796 473.018 69.6975 471.982 68.5705C470.946 67.4505 469.14 66.7085 466.564 66.3165L463.281 65.8125L459.508 65.3365C454.524 64.6155 450.737 63.0125 448.168 60.4995C445.375 57.7205 443.982 53.8915 443.982 49.0405C443.982 43.7485 445.816 39.4673 449.47 36.2333C453.138 32.9783 458.08 31.3613 464.331 31.3613C468.405 31.3613 471.961 31.8793 474.964 32.9573C477.981 34.0283 480.711 35.7643 483.154 38.1653L475.951 45.2885C474.299 43.7135 472.493 42.6495 470.505 42.1035C468.51 41.5603 466.354 41.2803 463.988 41.2803C461.09 41.2803 458.864 41.9663 457.31 43.3635C455.749 44.7565 454.972 46.5065 454.972 48.6345C454.972 50.1605 455.574 51.5465 456.771 52.7505C457.982 53.9755 459.753 54.7595 462.105 55.0885L465.619 55.5715L468.993 56.0685C471.611 56.4535 473.802 57.0065 475.58 57.7135C477.358 58.4065 478.877 59.3795 480.13 60.5835C483.14 63.4185 484.638 67.5485 484.638 72.9736C484.638 78.4966 482.615 82.8156 478.604 85.9656ZM527.52 41.9187V90.1516H516.11V41.9187H500.864V31.7897H542.766V41.9187H527.52ZM566.769 90.1446V31.7862H605.241V41.9152H578.207V55.6835H601.23V65.8125H578.207V80.0156H605.241V90.1446H566.769ZM664.286 90.1446L660.856 79.8056H640.115L636.587 90.1446H624.708L645.939 31.7862H654.864L676.2 90.1446H664.286ZM650.692 48.9985L643.314 70.1946H657.818L650.692 48.9985ZM737.87 90.1446V56.1455L726.81 78.2796H719.11L707.91 56.1455V90.1446H696.5V31.7862H707.77L722.96 63.3345L738.08 31.7862H749.35V90.1446H737.87ZM774.06 29.9893C778.26 29.9893 781.62 33.3913 781.62 37.6473C781.62 41.9663 778.26 45.3235 774.06 45.3235C769.86 45.3235 766.5 41.9663 766.5 37.6473C766.5 33.3913 769.86 29.9893 774.06 29.9893ZM774.06 31.1933C770.7 31.1933 767.97 34.0703 767.97 37.6473C767.97 41.2873 770.7 44.1405 774.06 44.1405C777.49 44.1755 780.22 41.2873 780.22 37.6823C780.22 34.0703 777.49 31.1933 774.06 31.1933ZM772.66 42.1035H771.26V33.5663C771.96 33.4683 772.66 33.3633 773.71 33.3633C774.97 33.3633 775.81 33.6363 776.37 34.0073C776.86 34.3853 777.14 34.9593 777.14 35.7783C777.14 36.9053 776.37 37.5703 775.46 37.8503V37.9133C776.23 38.0463 776.72 38.7323 776.86 39.9853C777.07 41.3153 777.28 41.8333 777.42 42.1035H776.02C775.81 41.8333 775.6 41.0493 775.39 39.9293C775.18 38.8373 774.69 38.4383 773.57 38.4383H772.66V42.1035ZM772.66 37.3673H773.64C774.76 37.3673 775.67 36.9683 775.67 35.9113C775.67 35.1623 775.11 34.4203 773.64 34.4203C773.15 34.4203 772.87 34.4483 772.66 34.4903V37.3673Z" fill="url(#paint0_linear_233_306)"/>
<path d="M360.794 7C330.197 7 305.312 31.885 305.312 62.475C305.312 62.72 305.312 62.965 305.326 63.196L269.584 115.024C263.795 114.772 257.985 115.78 252.476 118.048C250.047 119.035 247.772 120.253 245.637 121.653L84.5605 55.069C81.8515 42.532 73.2765 31.465 60.5645 26.159C39.9495 17.577 16.1915 27.363 7.59547 47.985C-0.99356 68.593 8.79947 92.351 29.4145 100.94C39.3965 105.098 50.4005 105.119 60.4105 101.01C62.7135 100.058 64.8834 98.882 66.9554 97.573L228.389 164.311C231.175 176.729 239.715 187.635 252.315 192.878C272.93 201.481 296.695 191.681 305.277 171.087C307.503 165.711 308.546 160.062 308.392 154.427L359.534 117.943C359.954 117.957 360.374 117.964 360.794 117.964C391.391 117.964 416.269 93.065 416.269 62.475C416.269 31.885 391.391 7 360.794 7ZM32.9775 92.393C20.9935 87.402 13.7485 75.761 13.7485 63.511C13.7485 59.507 14.5185 55.454 16.1565 51.548C22.7715 35.637 41.1045 28.084 57.0015 34.706C64.5055 37.828 70.0985 43.554 73.2765 50.393L54.7895 42.749C43.0715 37.87 29.6035 43.414 24.7105 55.139C19.8315 66.871 25.3825 80.353 37.1005 85.232L55.6435 92.89C48.2585 95.585 40.2645 95.445 32.9775 92.393ZM296.744 167.51C290.101 183.414 271.789 190.967 255.871 184.345C248.528 181.286 242.984 175.693 239.785 169.022L257.845 176.498C269.584 181.384 283.052 175.826 287.931 164.108C292.824 152.383 287.273 138.915 275.541 134.029L256.872 126.308C264.075 123.578 272.265 123.48 279.916 126.658C287.63 129.864 293.615 135.891 296.786 143.605C299.964 151.319 299.95 159.824 296.744 167.51ZM360.794 99.449C340.417 99.449 323.834 82.859 323.834 62.475C323.834 42.105 340.417 25.515 360.794 25.515C381.171 25.515 397.762 42.105 397.762 62.475C397.762 82.859 381.171 99.449 360.794 99.449ZM360.85 90.181C345.527 90.181 333.095 77.756 333.095 62.419C333.095 47.082 345.527 34.643 360.85 34.643C376.187 34.643 388.626 47.082 388.626 62.419C388.626 77.756 376.187 90.181 360.85 90.181Z" fill="url(#paint1_linear_233_306)"/>
<defs>
<linearGradient id="paint0_linear_233_306" x1="17435.7" y1="29.9893" x2="17435.7" y2="6099.41" gradientUnits="userSpaceOnUse">
<stop stop-color="#F6F6F6"/>
<stop offset="1" stop-color="#989693"/>
</linearGradient>
<linearGradient id="paint1_linear_233_306" x1="20593.9" y1="7" x2="20593.9" y2="18906.9" gradientUnits="userSpaceOnUse">
<stop stop-color="#EFEFEE"/>
<stop offset="1" stop-color="#84827E"/>
</linearGradient>
</defs>
</svg>
