<svg width="202" height="56" viewBox="0 0 202 56" fill="none" xmlns="http://www.w3.org/2000/svg">
<g clip-path="url(#clip0_107_589)">
<path d="M53.9996 25.9451L54.7224 23.3681L52.3714 23.4526C51.2702 23.4065 50.2095 22.9847 49.3178 22.2408H49.6353C51.0676 22.2332 52.3782 21.3051 53.0132 19.848L54.0468 17.3402C53.2361 17.3478 52.4254 17.2941 51.6215 17.179C50.8513 16.972 50.1623 16.4966 49.642 15.8216C48.9394 14.9704 47.9666 14.4872 46.9397 14.4795C46.5411 14.4795 46.1425 14.5562 45.7574 14.6942C45.8115 14.4872 45.8588 14.2802 45.8925 14.0654C46.0547 12.5699 45.6831 11.059 44.8656 9.87031L43.082 7.3778L41.9876 10.2921C41.812 10.7062 41.5485 11.0668 41.2107 11.3274C41.0215 10.2844 40.5757 9.33346 39.9136 8.58187C38.8057 7.29344 37.2855 6.57254 35.6979 6.58788C35.421 6.58788 35.144 6.61089 34.8738 6.6569L32.7388 7.13239C32.9213 6.31945 33.2117 5.54486 33.6036 4.83162L34.7792 2.75325L31.8201 3.0677L30.8743 0.766928L29.0502 1.89431L27.3613 0L25.6722 1.89431L23.8481 0.820612L22.9023 3.0677L19.9433 2.68423L21.1188 4.77027C21.5107 5.48351 21.8011 6.25809 21.9836 7.07104L19.9568 6.61856H19.8893C19.6055 6.57254 19.3218 6.54954 19.038 6.54954C17.4503 6.5342 15.9303 7.2551 14.8223 8.54353C14.1535 9.30279 13.6942 10.2692 13.5117 11.3274C13.1875 11.0744 12.924 10.7293 12.7483 10.3228L11.6471 7.38547L9.85009 9.88564C9.04613 11.0744 8.68803 12.5775 8.84346 14.0654C8.87724 14.2802 8.92448 14.4872 8.97857 14.6942C8.59342 14.5562 8.19481 14.4795 7.79631 14.4795C6.76936 14.4872 5.79651 14.9704 5.09388 15.8216C4.58047 16.4888 3.89815 16.9644 3.13471 17.179C2.32401 17.3171 1.49985 17.3708 0.675579 17.3402L1.68221 19.8863C2.31728 21.3434 3.62792 22.2715 5.0601 22.2792H5.37769C4.49944 23.0077 3.4523 23.4295 2.36452 23.4832L0 23.3681L0.722824 25.9451C1.2634 27.9621 2.79692 29.4422 4.64129 29.7106C4.45208 31.0681 3.69548 32.2415 2.61456 32.8551L0.803961 33.6909L1.77682 35.616C2.58078 37.0348 3.96571 37.8784 5.44525 37.8631C5.83029 37.8631 6.21543 37.817 6.59373 37.725C6.68834 38.1928 6.80988 38.6606 6.94499 39.1131C7.28278 40.1255 7.30309 41.2299 7.01255 42.2576L6.1343 44.3512L8.10032 44.9418C8.53945 45.0721 8.99877 45.1335 9.45148 45.1335C9.77569 45.1335 10.0933 45.0951 10.4108 45.0108C10.6405 44.9494 10.8702 44.8727 11.0863 44.773C11.3364 45.2869 11.6538 45.7623 12.0119 46.1841C13.2685 47.649 15.052 48.3929 17.3152 48.3929H18.9299L15.5992 49.9651L18.1259 51.3839C19.1461 51.9514 20.1866 52.4653 21.2472 52.9177L20.9432 53.9148L21.8147 54.3672C23.2604 55.0114 24.7939 55.3719 26.3479 55.4332H28.4219C29.969 55.3719 31.4958 55.0038 32.9348 54.3595L33.7793 53.9148L33.482 52.9177C34.5562 52.4499 35.6102 51.9207 36.637 51.3302L39.1164 49.9651L35.7925 48.4312H37.4139C39.6771 48.4312 41.4675 47.6643 42.7173 46.2225C43.082 45.8007 43.3929 45.3252 43.6428 44.8113C43.8591 44.9111 44.0887 44.9878 44.3184 45.0492C44.636 45.1335 44.9535 45.1718 45.2778 45.1718C45.7304 45.1718 46.1898 45.1028 46.6289 44.9801L48.6016 44.3895L47.7436 42.3343C47.4193 41.2911 47.4329 40.1484 47.7774 39.1131C47.9193 38.6453 48.0342 38.1698 48.1287 37.6943C48.5071 37.7864 48.8989 37.8324 49.284 37.8324C50.777 37.8477 52.1687 36.9734 52.9592 35.5316L53.9184 33.6296L52.1349 32.8013C51.054 32.1878 50.2974 31.0143 50.1082 29.657C51.9525 29.3809 53.4862 27.9083 54.0266 25.8837L53.9996 25.9451Z" fill="white"/>
<path d="M35.4819 34.0898H19.2678V40.992C19.2678 43.8297 21.0716 45.5936 23.7402 45.5936C25.9696 45.5936 26.5574 45.6933 27.3816 46.629C27.9018 45.9924 28.6381 45.632 29.4083 45.6473V45.5399L29.9218 43.7453L29.0503 42.6639C28.6989 42.7866 28.3341 42.8327 27.9694 42.8097C27.4221 42.802 26.8816 42.7406 26.3479 42.618H26.179C26.1047 42.618 26.1047 42.618 26.0845 42.6639L25.8007 43.2008L25.4494 43.1088L23.8888 42.6946L23.6726 43.0934V43.1395L23.8618 43.3772L23.7807 43.684C23.6388 44.0598 23.4362 44.3972 23.1794 44.6886L22.7876 45.1642L22.4295 44.6579L22.166 44.2821C21.8823 43.8603 21.8148 43.3082 21.9769 42.8097L21.5378 43.0167L21.3419 42.526L21.2338 42.1807C20.9567 41.4522 21.1661 40.6086 21.7269 40.1484L22.9835 39.3815L24.1793 39.6499C24.1793 39.5196 24.2536 39.0518 24.2874 38.9368H24.2198L23.5442 39.2281L22.8687 38.7067C22.7335 38.5533 22.7268 38.3002 22.8687 38.1391L23.5105 37.0348L21.8823 34.734L24.3212 35.823L24.8278 35.1328L25.213 35.5469C25.3143 35.662 25.3819 35.8001 25.4157 35.9611C26.0912 36.2678 27.3411 37.1651 27.4424 38.6222L27.0573 38.7987C27.1046 38.8754 27.1654 38.9368 27.2397 38.9751L29.0233 39.1745L29.1854 39.1207C29.4894 38.9904 29.8137 38.9213 30.138 38.9137C30.4623 38.9137 30.7798 38.998 31.0703 39.1591C31.1986 39.1054 31.3405 39.0747 31.4757 39.0671H31.5634C32.5161 39.0671 32.9957 39.88 33.374 40.5242L33.57 40.8464C33.901 41.3833 34.3401 42.1655 34.3603 42.1962L34.5563 42.5413L34.3131 42.8633C34.0901 43.2008 33.7389 43.3925 33.3673 43.3925C33.2592 43.4002 33.151 43.4002 33.043 43.3925C32.9484 43.3696 32.8539 43.3389 32.7593 43.2929C32.7593 43.4002 32.7593 43.5306 32.7052 43.638L32.4282 45.4479C34.2659 45.0261 35.5629 43.1548 35.4886 41.0227L35.4819 34.0898ZM19.2476 33.5299H31.8743C31.3608 32.9163 31.1851 32.0344 31.4148 31.2291C31.2459 31.1372 31.0838 31.0143 30.9419 30.8764C30.4487 31.2905 28.9152 32.5329 28.5504 32.8473L28.4693 32.9087L23.5105 31.9117H23.4091C23.247 31.9194 23.0849 31.9194 22.9228 31.9117C22.8754 32.1647 22.6796 32.3412 22.4566 32.3412H22.3756C22.1121 32.2875 21.9296 32.0037 21.9702 31.7046V31.5819C21.3283 31.0605 21.0243 30.1555 21.1932 29.2811V29.1814L21.2676 29.1201C21.2676 29.1201 21.3621 29.0434 21.4905 28.9591L21.1325 28.8977C20.9974 28.867 20.9095 28.729 20.9298 28.5756C20.95 28.4222 21.0716 28.3225 21.2068 28.3456H21.2135L22.0715 28.4989L22.1526 25.0708L23.4294 23.5369L24.2267 25.4388L23.3889 28.7367L24.1455 28.8746C24.2806 28.9053 24.3685 29.0434 24.3482 29.1968C24.328 29.3348 24.2267 29.4269 24.105 29.4269H24.0645L23.4496 29.3118V29.3655C23.5172 29.5036 23.6186 29.611 23.7469 29.6799L27.5234 29.7489L28.4895 28.6676C27.7531 28.3761 27.2263 27.6399 27.1384 26.758C26.6655 26.5509 26.2804 26.1521 26.0642 25.6383C25.8818 25.1551 25.8481 24.6106 25.9764 24.1045C25.3819 23.836 24.8414 23.4295 24.4023 22.908H18.7949C19.0651 23.6596 19.2205 24.4572 19.2476 25.2625V33.5299Z" fill="#FCE527"/>
<path d="M45.365 17.4859C46.1216 17.9768 46.777 18.6441 47.2904 19.4417C47.6755 20.1165 48.2227 20.6533 48.8713 20.9755C49.1145 21.0675 49.378 21.1135 49.6347 21.1135C50.6683 21.1135 51.6142 20.4463 52.0871 19.4033L52.4789 18.4063L51.5263 18.3449C50.4994 18.1301 49.5739 17.532 48.8916 16.6347C48.3849 16.0135 47.6755 15.653 46.9256 15.6453C46.3446 15.653 45.7838 15.8525 45.2974 16.2052L44.4192 16.9031L45.365 17.4859ZM46.9459 16.3893L46.9256 16.3969C47.4998 16.3969 48.0403 16.6806 48.4254 17.1639C49.2158 18.1915 50.2967 18.8741 51.4858 19.0966C51.121 19.8711 50.4116 20.3542 49.6347 20.362C49.4455 20.362 49.2564 20.3236 49.0739 20.2546C47.9795 19.8328 47.5944 17.9538 45.696 16.8187C46.0676 16.5427 46.5 16.3969 46.9459 16.3893ZM45.8109 27.3716L45.7974 27.3563C45.2435 22.2945 42.0073 18.6364 38.4065 16.42C38.0755 16.2129 37.7646 16.0442 37.4675 15.8832C38.9537 16.2283 40.5008 15.8141 41.6966 14.7557C41.6966 14.7557 39.609 16.4967 35.3393 14.9167C36.5216 15.791 38.8186 17.0181 40.9196 19.0121C46.1622 24.2425 42.4128 29.3503 42.4128 29.3503C43.9801 27.6631 44.5273 25.0861 43.8246 22.7701C44.9326 24.8637 45.4663 27.2873 45.3515 29.7261C45.2028 33.7448 43.2369 37.2573 41.2102 40.0565C40.6022 40.9385 40.1832 41.9738 40.0076 43.0782C40.3521 41.9815 40.8724 40.9692 41.548 40.0949C43.7436 37.173 45.6014 34.1435 45.8649 29.7797C46.0947 30.5467 47.027 32.7785 48.5133 33.6143C48.5133 33.6143 46.6486 32.3413 45.8109 27.3716ZM17.8417 46.077C17.5174 45.2946 17.3417 44.4357 17.335 43.5691C17.3147 41.9815 16.7404 40.4707 15.7405 39.3663C15.9432 39.2589 16.1324 39.121 16.3013 38.9522C16.9431 38.331 17.3147 37.426 17.308 36.4673L17.2674 35.7847H16.6593C15.2676 35.8614 13.9165 35.2096 13.0045 34.0056C12.8085 33.7448 12.6329 33.4609 12.4775 33.1619C13.0787 33.369 13.7003 33.4687 14.3286 33.4687H14.9434C15.6797 33.3842 16.3756 33.0469 16.9364 32.5023L17.5646 31.8504L16.8485 31.329C15.2406 30.1632 13.599 27.9544 14.8623 24.0739C15.6797 21.5507 17.5646 19.2729 20.6386 17.0795C21.6722 16.3126 22.2397 15.4614 22.2397 14.6254C22.2397 13.3369 21.2871 12.8231 20.5912 12.4626C20.2738 12.3245 19.9832 12.1251 19.7266 11.8721C19.1861 11.1589 19.6387 9.8014 20.1454 9.06515L20.821 8.10649L19.7806 7.87642C19.5441 7.8304 19.3009 7.81506 19.0577 7.81506C17.7403 7.76905 16.4702 8.34425 15.5379 9.39492C14.7745 10.2462 14.3759 11.4426 14.4502 12.6543H14.0449C12.5248 12.6543 11.8086 10.829 11.7817 10.7523L11.356 9.60967L10.6804 10.5684C10.0521 11.504 9.76168 12.6774 9.87648 13.8507C10.1062 15.1468 10.8156 16.2666 11.8289 16.9185C11.9235 16.9874 12.0181 17.0641 12.0992 17.1486C9.96435 17.9155 8.76851 19.6641 7.51196 21.4816L7.32949 21.7424C6.12702 23.4833 4.30296 24.5264 2.35725 24.6031H1.43164L1.71545 25.6077C1.71545 25.7304 2.56666 28.5757 5.03252 28.5757H5.15417C5.38389 28.568 5.60676 28.5374 5.82975 28.4836C5.72841 30.0175 5.22846 32.9012 2.95854 33.9672L2.28296 34.2893L2.65453 35.0562C3.26255 36.1222 4.30969 36.7512 5.43113 36.7357C6.11344 36.7434 6.78229 36.5671 7.39031 36.2143C7.48491 37.1039 7.66054 37.9782 7.91057 38.8218C8.33612 40.1179 8.33612 41.552 7.91057 42.8481L7.57278 43.661L8.34285 43.8911C8.69422 43.9832 9.05905 44.0369 9.42389 44.0369C9.66707 44.0369 9.91026 44.0062 10.1467 43.9449C10.6467 43.8144 11.1061 43.5538 11.4979 43.178C11.7343 44.0369 12.1397 44.8268 12.687 45.4787C13.7476 46.7134 15.2676 47.327 17.2471 47.3346H18.4497L17.8417 46.077ZM17.2606 46.5064C11.7951 46.5064 11.9303 41.184 11.9303 41.184C11.6397 42.1732 10.9236 42.9248 10.0251 43.1703C9.8427 43.224 9.64676 43.247 9.45767 43.247C9.14681 43.247 8.8428 43.2009 8.54564 43.1166C9.03874 41.6364 9.03874 39.9951 8.54564 38.5151C8.16049 37.288 7.97813 35.9842 7.99833 34.6804C7.37684 35.547 6.4243 36.0226 5.43786 35.9535H5.40409C4.52583 35.9688 3.70167 35.4703 3.22192 34.642C6.86342 32.9241 6.50532 27.3792 6.50532 27.3792C6.0864 27.6707 5.60003 27.8241 5.10681 27.8165H5.03252C3.00578 27.8165 2.3302 25.3776 2.3302 25.3776H2.37072C4.51237 25.3009 6.51879 24.1506 7.84301 22.2409C9.23468 20.2393 10.3697 18.4753 12.6194 17.785L12.8423 17.739L12.8897 17.486C12.9504 17.0948 12.7139 16.719 12.214 16.3355C9.11303 14.0348 11.2209 11.0898 11.2209 11.0898C11.2209 11.0898 12.0992 13.4443 14.0921 13.4443H14.1867C14.4164 13.4367 14.6393 13.4136 14.8623 13.3676L15.2271 13.2833C14.9164 12.0868 15.2271 10.7907 16.0244 9.93178C16.808 9.01146 17.8957 8.49763 19.0239 8.51297C19.2199 8.51297 19.4226 8.52831 19.6184 8.56665C18.9428 9.58666 18.4429 11.2739 19.2334 12.3092C19.9089 13.2066 21.5844 13.2449 21.5844 14.61C21.5844 15.1775 21.1182 15.837 20.2872 16.4276C17.7741 18.2222 15.2812 20.6073 14.2475 23.7978C12.9572 27.7781 14.4164 30.424 16.4973 31.9349C16.0446 32.3643 15.4839 32.6327 14.8961 32.7018H14.3353C13.2476 32.7554 12.1734 32.3796 11.3019 31.6358C11.4777 32.6864 11.8897 33.6681 12.5045 34.4733C13.5382 35.8307 15.0717 36.5824 16.6526 36.5057C16.6391 37.2342 16.3553 37.9245 15.8622 38.3924C15.3217 38.8064 14.7069 39.0672 14.0583 39.1593C14.0583 39.1593 16.4161 39.7038 16.6729 43.6534C16.6662 44.658 16.8823 45.6474 17.2944 46.5371L17.2606 46.5064Z" fill="#222220"/>
<path d="M5.08021 21.1054H5.08705C5.34371 21.1054 5.6072 21.0594 5.85039 20.9674C6.49903 20.6452 7.04623 20.1084 7.43127 19.4335C7.93795 18.636 8.59333 17.9687 9.34993 17.4778L10.2957 16.9026L9.41749 16.2048C8.93112 15.852 8.37034 15.6525 7.7961 15.6449C7.04623 15.6525 6.33687 16.013 5.83019 16.6419C5.15461 17.5316 4.22227 18.1375 3.20217 18.3521L2.24951 18.4059L2.63466 19.4029C3.10756 20.4459 4.04664 21.0977 5.08021 21.1054ZM6.29636 17.1634C6.67466 16.6802 7.21512 16.3965 7.78937 16.3965C8.22849 16.4041 8.66088 16.5575 9.03245 16.826C7.12052 17.984 6.72191 19.84 5.65456 20.2618C5.47882 20.3308 5.28973 20.3692 5.10052 20.3692C4.31687 20.3692 3.60078 19.8783 3.23595 19.0961C4.42494 18.8737 5.50587 18.1911 6.29636 17.1634ZM9.38382 29.7564C9.26902 27.3175 9.79601 24.894 10.9107 22.8004C10.2081 25.1164 10.7553 27.6934 12.3227 29.3806C12.3227 29.3806 8.56639 24.2728 13.8157 19.0424C15.9167 17.0484 18.2071 15.8213 19.3893 14.947C15.1196 16.5268 13.0321 14.786 13.0321 14.786C14.2278 15.8444 15.7681 16.2584 17.2544 15.9133C16.9571 16.0745 16.6464 16.2508 16.3153 16.4501C12.7145 18.6743 9.45823 22.3325 8.9245 27.3942V27.3559C8.08676 32.3256 6.22218 33.5986 6.22218 33.5986C7.70161 32.7703 8.64068 30.5309 8.86367 29.764C9.11359 34.1354 10.9917 37.1648 13.1874 40.0792C13.8562 40.9534 14.3832 41.9658 14.7277 43.0625C14.5454 41.9658 14.1264 40.9304 13.5117 40.0561C11.485 37.2569 9.52578 33.7443 9.38382 29.7564ZM26.1247 20.5226C26.3611 20.2618 26.6922 20.1391 27.0233 20.1851V21.6346C27.0165 21.995 26.9354 22.3401 26.7801 22.6546H28.0569C27.9015 22.3401 27.8205 21.995 27.8138 21.6346V20.1851C28.138 20.1391 28.469 20.2618 28.7055 20.5226V19.5179H26.1247V20.5226ZM25.5911 13.5666H25.5776C25.7736 13.7583 26.0033 13.9117 26.2532 14.0037L26.4154 14.0881V13.1371L24.9155 12.4238C24.9898 12.8993 25.2331 13.3134 25.5911 13.5666ZM29.1516 13.5589L29.1448 13.5666C29.5028 13.3134 29.746 12.8993 29.8204 12.4238L28.3205 13.1371V14.0803L28.476 13.996C28.7259 13.904 28.9556 13.7506 29.1516 13.5589Z" fill="#222220"/>
<path d="M31.8406 9.71673C31.8406 8.28257 29.7126 6.99414 27.3682 6.99414C25.0239 6.99414 22.8958 8.28257 22.8958 9.71673L22.9432 10.0695L23.8822 16.2049L22.9432 16.8261L20.4908 18.406C20.4908 18.406 19.9435 18.7281 19.6868 18.9198C18.7612 19.6867 18.5654 20.7144 19.099 21.1593C19.2341 20.1162 20.0381 19.3493 20.9704 19.38C21.7473 19.403 22.4703 19.8478 22.9094 20.5763C23.0445 20.7604 23.1661 20.9598 23.2741 21.1593C23.4161 21.4199 23.5579 21.65 23.6998 21.8725H17.4438C17.9708 22.9001 18.2749 24.0582 18.3424 25.247V41.0226C18.3424 44.8573 20.9299 46.6595 23.747 46.6595C25.909 46.6595 26.1994 46.5445 27.3885 47.8942C28.5775 46.5445 28.8681 46.6595 31.0299 46.6595C33.8268 46.6595 36.4346 44.8419 36.4346 41.0226V25.2623C36.5021 24.0736 36.8061 22.9156 37.3331 21.8879H31.0096C31.1515 21.6654 31.2934 21.4354 31.4353 21.1746C31.5501 20.9752 31.6717 20.7758 31.8001 20.5918C32.246 19.8632 32.9688 19.4183 33.7457 19.3953C34.6781 19.3647 35.482 20.1316 35.6171 21.1746C36.1576 20.7375 35.9617 19.6407 35.0294 18.9351C34.7794 18.7357 34.2322 18.4213 34.2322 18.4213L31.8001 16.7954L30.861 16.1742L31.8001 10.0388L31.8406 9.71673ZM23.8011 10.4223L27.098 11.6877V17.5624L24.6726 16.1052L23.8011 10.4223ZM18.795 22.9078H24.4767C24.9158 23.4293 25.4563 23.8435 26.0509 24.1043C25.9225 24.6104 25.9562 25.1549 26.1386 25.6381C26.3549 26.1519 26.7399 26.5508 27.2128 26.7578C27.3007 27.6397 27.8277 28.376 28.564 28.6674C28.1586 29.1352 27.7601 29.5724 27.5979 29.7488L23.8214 29.6798C23.6931 29.6108 23.5917 29.5034 23.5242 29.3653V29.3117L24.1389 29.4267H24.1794C24.3011 29.4267 24.4024 29.3347 24.4227 29.1966C24.4429 29.0432 24.3551 28.9052 24.2199 28.8745L23.4633 28.7365L24.3011 25.4387L23.5039 23.5367L22.227 25.0706L22.146 28.4988L21.2879 28.3454C21.1528 28.3147 21.0313 28.4143 21.0042 28.5677V28.5755C20.9839 28.7288 21.0718 28.8668 21.2069 28.8975L21.565 28.9589C21.4366 29.0432 21.3487 29.1045 21.342 29.1199L21.2677 29.1812V29.281C21.0988 30.1553 21.4096 31.0603 22.0446 31.5817V31.7045C22.0041 32.0035 22.1865 32.2874 22.45 32.341H22.531C22.754 32.341 22.9499 32.1647 22.9972 31.9115C23.1593 31.9192 23.3148 31.9192 23.4768 31.9115H23.5781L28.5302 32.9316L28.6113 32.8702C29.0032 32.5558 30.5097 31.3364 31.0029 30.8991C31.1447 31.0372 31.3069 31.1599 31.4758 31.252C31.2461 32.0573 31.4217 32.9392 31.9352 33.5528H19.2477V25.2623C19.2207 24.457 19.0652 23.6594 18.795 22.9078ZM30.5772 30.4927C30.0638 30.9222 28.8005 31.9652 28.3411 32.3333L23.8484 31.4437V31.3057C23.9228 30.9605 23.9633 30.6078 23.97 30.255L27.7533 30.3239L27.8277 30.2396C27.8884 30.1706 29.0842 28.8592 29.6922 28.0999C29.8544 28.33 30.0435 28.5217 30.2598 28.6751C30.1517 29.304 30.2665 29.9559 30.5772 30.4927ZM23.0715 29.5724V29.5954C23.1728 29.8102 23.3215 29.9943 23.5039 30.1169C23.4971 30.4313 23.4701 30.7381 23.4228 31.0449C23.4228 31.1139 23.4228 31.183 23.3755 31.252V31.3593C23.0647 31.3593 22.7607 31.3056 22.4634 31.1983C21.923 30.8686 21.619 30.1936 21.7068 29.5034C21.95 29.3117 22.227 29.189 22.5175 29.1429C22.7674 29.1352 22.9904 29.304 23.0715 29.5724ZM22.6054 28.5524L22.6797 25.3083L23.3553 24.5414L23.7674 25.5154L22.9634 28.6751L22.6054 28.5524ZM30.5434 45.6395H29.8949L30.4016 43.7605C30.4826 43.4998 30.0638 43.1623 29.8882 42.8632C30.3003 43.147 30.7259 43.4 31.165 43.6301C31.165 43.6915 30.5434 45.6395 30.5434 45.6395ZM32.2798 43.5381L32.2257 43.4845L31.8744 45.5551C31.6514 45.5551 31.415 45.6088 31.1988 45.6242L31.5704 43.6301C31.6785 43.0396 30.28 42.8632 29.5909 41.6899C29.1383 42.1193 28.5572 42.3187 27.9762 42.2496C27.4628 42.242 26.9561 42.1807 26.4562 42.0657C26.3683 42.0579 26.2806 42.0579 26.1927 42.0657C25.9833 42.0503 25.7806 42.1729 25.6726 42.3801L25.5712 42.5718L23.6457 42.0426L23.1864 42.9476C23.1121 43.0703 23.1256 43.239 23.2202 43.3464L23.3485 43.5074C23.2202 43.7912 23.058 44.052 22.8621 44.2743L22.5784 43.8756C22.3621 43.4767 22.3824 42.9629 22.6256 42.5871L23.3823 41.1376L24.997 41.4138L24.7469 40.7618C24.4091 39.9029 24.9226 38.8061 24.9767 38.1773C24.9767 38.3691 24.801 38.4074 24.6254 38.4074H24.1592C24.1255 38.3998 24.0848 38.3998 24.051 38.4074L23.6119 38.7065L23.2674 38.346C23.2134 38.231 23.2336 38.093 23.3148 38.0085L24.1119 36.9886L23.1661 35.7385L24.5172 36.5054L24.9226 35.9533C25.0308 36.0759 24.9834 36.398 24.9834 36.398C25.963 36.6742 26.6454 37.6865 26.6184 38.8368V39.0593C26.7535 39.3046 26.9696 39.4734 27.2128 39.5425L29.0437 39.7495C29.4085 39.6192 29.7801 39.5347 30.1584 39.4811C30.4826 39.4811 30.8069 39.5961 31.0772 39.7955C31.2056 39.6959 31.361 39.6345 31.5163 39.6268H31.5771C32.3946 39.6268 32.7391 40.4704 33.1783 41.1607C33.5093 41.6899 33.9552 42.4875 33.9552 42.4875C33.8268 42.7021 33.6174 42.8326 33.3877 42.8326C33.3066 42.8402 33.2323 42.8402 33.1513 42.8326C32.273 42.6485 32.1446 40.5931 31.6447 40.4321H31.5637C31.4691 40.4321 31.3812 40.4934 31.3339 40.5931C31.5637 41.291 31.4285 41.5748 31.6785 42.1269C31.8608 42.4568 32.0905 42.7559 32.354 43.0089C32.354 43.0089 32.3203 43.3157 32.2798 43.5381ZM22.4365 41.5288H22.4229L22.5041 41.7665C22.45 41.9736 21.8284 42.2727 21.8284 42.2727L21.6933 41.9352C21.5176 41.4521 21.646 40.8999 22.0176 40.5855L23.0377 39.8798L24.1255 40.1406C24.1186 40.3861 24.1862 40.6238 24.3145 40.8232L23.1728 40.5778L22.4972 41.1147C22.3891 41.2221 22.3688 41.3907 22.4365 41.5288ZM35.5023 41.0302C35.5766 43.1623 34.2727 45.0336 32.4283 45.4477L32.7391 43.5919C32.7391 43.4845 32.7729 43.354 32.7864 43.2466C32.881 43.2927 32.9756 43.3233 33.0701 43.3464C33.1783 43.354 33.2864 43.354 33.3945 43.3464C33.766 43.3464 34.1173 43.1546 34.3403 42.8172L34.5835 42.4951L34.3808 42.1807C34.3808 42.1807 33.9282 41.3677 33.5904 40.8308L33.4012 40.5088C33.0229 39.8645 32.5432 39.0516 31.5906 39.0516H31.5028C31.3677 39.0593 31.2259 39.09 31.0975 39.1436C30.8069 38.9826 30.4895 38.8983 30.1651 38.8983C29.8408 38.9059 29.5166 38.9749 29.2126 39.1053L29.0504 39.159L27.2669 38.9595C27.1926 38.9212 27.1318 38.8599 27.0845 38.7832L27.4696 38.6068C27.3615 37.142 26.1184 36.2446 25.4428 35.9455C25.4091 35.7845 25.3415 35.6465 25.2402 35.5315L24.855 35.1173L24.5172 35.5775L24.3483 35.8075L21.8487 34.6417L23.4768 36.9426L22.835 38.0469C22.6999 38.2003 22.6932 38.4534 22.835 38.6144L23.5106 39.136L24.1862 38.8445H24.2537C24.2537 38.9595 24.1794 39.4275 24.1457 39.5578L22.9701 39.3277L21.7136 40.0946C21.1326 40.5701 20.9299 41.4444 21.2339 42.1807L21.3758 42.5258L21.5717 43.0165L22.0108 42.8095C21.8487 43.308 21.9162 43.8603 22.1999 44.2821L22.4634 44.6655L22.8148 45.1717L23.2066 44.6961C23.4633 44.4048 23.666 44.0673 23.8079 43.6915L23.889 43.3847L23.6998 43.147V43.101L23.9159 42.7021L25.4766 43.1163L25.8279 43.2083L26.0171 42.8555L26.1184 42.6638C26.1184 42.6254 26.1184 42.6178 26.213 42.6178H26.3819C26.9156 42.7405 27.4561 42.8019 27.9966 42.8095C28.3613 42.8326 28.7261 42.7865 29.0775 42.6638L29.9422 43.7836L29.4287 45.5781V45.6855C28.6586 45.6702 27.9222 46.0306 27.402 46.6672C26.571 45.7315 25.9833 45.6318 23.7606 45.6318C21.0921 45.6318 19.2882 43.8603 19.2882 41.0302V34.128H35.5023V41.0302ZM35.9415 22.9078C35.6644 23.6518 35.5158 24.4494 35.4888 25.2623V30.4313C34.901 30.2856 34.4619 29.7182 34.4213 29.0356V28.7978H34.2186C33.8674 28.7672 33.543 28.5831 33.2999 28.2993C33.0026 27.9082 32.8404 27.4173 32.8337 26.9035C32.5432 27.4404 32.5702 28.1306 32.9081 28.6367C33.1715 29.0125 33.5566 29.2657 33.9754 29.327C34.0971 30.2167 34.7253 30.9069 35.5091 31.0219V33.5528H32.6715C31.9284 33.1233 31.6176 32.1186 31.9487 31.252L32.0568 30.9758L31.8068 30.8686C30.9962 30.5464 30.5502 29.557 30.8069 28.6214L30.861 28.3914L30.6718 28.2916C29.9625 27.8238 29.5706 26.9112 29.6855 25.9909C29.3139 26.4203 29.2193 27.0722 29.4558 27.609C29.3207 27.7855 29.145 27.9925 28.9491 28.2226C28.2397 28.0539 27.7263 27.356 27.6993 26.5354V26.3436L27.5439 26.2746C27.1318 26.1366 26.794 25.8144 26.598 25.385C26.4697 25.0322 26.4426 24.6335 26.5305 24.2653C26.6656 24.296 26.8007 24.3189 26.9358 24.3344C27.071 24.342 27.2128 24.342 27.3479 24.3344C28.4424 24.3344 29.4828 23.7975 30.2124 22.8772L35.9415 22.9078ZM31.5637 17.6775L32.6715 18.4444L32.9486 18.6283C32.3744 18.8048 31.8541 19.1575 31.442 19.6484L31.3948 19.6944C31.3002 19.8094 31.2123 19.9245 31.1245 20.0473L31.0704 20.124C30.9826 20.2466 30.9015 20.377 30.8273 20.5151L30.7867 20.5841C30.6921 20.7375 30.6043 20.9062 30.5164 21.0748C29.9016 22.4631 28.7059 23.391 27.3479 23.5444C25.99 23.391 24.7943 22.4631 24.1794 21.0748C24.0917 20.9062 24.0038 20.7451 23.9159 20.5841L23.862 20.4996L23.6457 20.1009L23.585 20.0166C23.4971 19.8939 23.4092 19.7787 23.3215 19.6714L23.2741 19.6177C22.8621 19.1268 22.3419 18.7741 21.7677 18.5978L22.0514 18.4137L23.1661 17.6468L24.3078 16.8798L27.3548 18.7588L30.4016 16.9411L31.5637 17.6775ZM30.0638 16.1435L27.6385 17.593V11.6954L30.9286 10.43L30.0638 16.1435ZM27.3615 11.0742L23.7539 9.43296C24.0579 8.60469 25.4766 7.89912 27.3615 7.89912C29.2464 7.89912 30.6651 8.60469 30.9691 9.43296L27.3615 11.0742Z" fill="#222220"/>
<path d="M24.4296 37.1034C24.3485 37.1034 24.2742 37.1724 24.2674 37.2644V37.272C24.2607 37.3718 24.3283 37.4638 24.416 37.4714H24.4228C24.5174 37.4714 24.5849 37.3871 24.5849 37.2875C24.5849 37.1801 24.5174 37.1034 24.4296 37.1034ZM24.4229 37.0956C24.4296 37.0956 24.4296 37.1034 24.4296 37.1034C24.4363 37.1034 24.4363 37.0956 24.4431 37.0956H24.4229ZM35.4618 49.6733L34.5295 49.2668L34.7863 48.17L35.07 46.9737C33.7931 47.7175 32.4555 48.3158 31.0773 48.7606C30.4017 48.9753 29.9153 49.075 29.9153 49.075V49.8496C29.0844 50.003 28.2466 50.0873 27.4021 50.0951H27.3277C26.4833 50.0873 25.6455 50.003 24.8146 49.8496V49.0827C24.8146 49.0827 24.3214 48.9753 23.6458 48.7606C22.2676 48.3158 20.9299 47.7175 19.6531 46.9737L19.9302 48.17L20.1935 49.2668L19.2546 49.6733L18.2412 50.1104C19.6329 50.9309 21.0854 51.6135 22.5852 52.1503L22.2271 53.2547C23.8552 53.9604 25.5983 54.3055 27.3413 54.2595H27.3818C29.1249 54.3055 30.8679 53.9604 32.496 53.2547L32.1447 52.1503C33.6378 51.6135 35.0903 50.9309 36.4819 50.1104L35.4618 49.6733ZM19.3694 50.1794L20.8827 49.6042L20.4301 47.917C21.4232 48.4768 22.4501 48.9447 23.5107 49.3127L22.7676 51.6135C21.5988 51.2607 20.457 50.7777 19.3694 50.1794ZM27.4021 53.7149L27.3684 53.6843C25.882 53.6765 24.4024 53.4464 22.9703 53.0017L23.8823 50.1947C25.0173 50.5169 26.186 50.6932 27.3615 50.7008H27.4359C28.6114 50.6856 29.7801 50.5169 30.9151 50.1947L31.8272 53.0017C30.3882 53.4619 28.8951 53.6996 27.4021 53.7149ZM32.0095 51.6596V51.6366L31.2664 49.3358C32.3271 48.9676 33.354 48.4998 34.3471 47.9399L33.8944 49.6272L35.4281 50.2101C34.3336 50.816 33.1851 51.3067 32.0095 51.6596ZM27.3615 5.8972C28.8883 5.85119 30.3882 6.37269 31.6311 7.37736C31.8271 6.24231 32.1986 5.15328 32.7324 4.16395L31.1988 4.36334L30.4016 2.42303L28.8545 3.32801L27.3615 1.64844L25.8684 3.32801L24.3213 2.42303L23.5242 4.36334L21.9906 4.16395C22.5243 5.15328 22.8959 6.24231 23.0918 7.37736C24.3349 6.37269 25.8346 5.85119 27.3615 5.8972ZM23.4566 5.03824L23.8822 5.09193L24.0647 4.65479L24.5984 3.35102L25.5914 3.93387L25.9766 4.15628L26.2873 3.83417L27.3615 2.59943L28.4357 3.83417L28.7465 4.17929L29.1315 3.95688L30.1179 3.37402L30.6584 4.67779L30.8407 5.11493L31.2664 5.06125L31.6718 5.00757C31.5096 5.42937 31.3677 5.86653 31.2528 6.31134C28.814 4.89253 25.9158 4.89253 23.4768 6.31134C23.362 5.86653 23.2202 5.42937 23.058 5.00757L23.4566 5.03824ZM47.3995 21.7265L47.217 21.4735C45.9605 19.6558 44.7646 17.9302 42.6298 17.1403C42.7177 17.0559 42.8054 16.9792 42.9 16.9102C43.9134 16.2583 44.6295 15.1386 44.8592 13.8425C44.9741 12.6691 44.6836 11.4958 44.0485 10.5601L43.373 9.60144L42.9473 10.7441C42.9473 10.8132 42.1974 12.6461 40.6841 12.6461H40.2382C40.3193 11.442 39.9342 10.2533 39.1844 9.39438C38.2723 8.33602 37.0157 7.74549 35.7119 7.75316C35.4686 7.75316 35.2254 7.77617 34.9889 7.81452L33.9553 8.04459L34.5971 9.00325C35.097 9.77016 35.5497 11.0969 35.016 11.8102C34.7592 12.0633 34.4688 12.2627 34.1512 12.4007C33.4756 12.7612 32.5028 13.275 32.5028 14.5634C32.5028 15.3994 33.077 16.2737 34.1107 17.0176C37.1575 19.2111 39.0424 21.4735 39.8599 24.0196C41.1232 27.9003 39.4748 30.109 37.8737 31.2747L37.1575 31.7962L37.7859 32.4481C38.3466 32.9926 39.0357 33.3301 39.7721 33.4144H40.3868C41.0152 33.4144 41.6368 33.3148 42.2379 33.1076C42.0894 33.4068 41.907 33.6905 41.7111 33.9513C40.799 35.1554 39.4477 35.8149 38.0493 35.7306H37.4481L37.4008 36.4132C37.3941 37.3718 37.7656 38.2767 38.4074 38.898C38.5763 39.0667 38.7654 39.2047 38.9681 39.312C37.9683 40.4164 37.4008 41.9273 37.3805 43.5148C37.3805 44.3814 37.2049 45.2404 36.8738 46.0227L36.1982 47.173H37.4008C39.387 47.173 40.9071 46.5519 41.961 45.3171C42.5082 44.6653 42.9135 43.8753 43.15 43.0163C43.5418 43.3921 44.0013 43.6529 44.5012 43.7832C44.7377 43.8446 44.9809 43.8753 45.2241 43.8753C45.5889 43.8753 45.9537 43.8215 46.305 43.7295L47.0752 43.4995L46.7374 42.6866C46.3117 41.3905 46.3117 39.9563 46.7374 38.6601C46.9873 37.8165 47.163 36.9422 47.2575 36.0526C47.8655 36.4054 48.5412 36.5818 49.2236 36.5742C50.345 36.5895 51.3921 35.9606 52.0002 34.8946L52.3717 34.1277L51.6961 33.8055C49.433 32.7396 48.933 29.8713 48.8317 28.3221C49.0547 28.3757 49.2775 28.4064 49.5072 28.414L49.6965 28.5598C52.1556 28.5598 52.9797 25.7145 53.0135 25.5919L53.2906 24.5871H52.365C50.4193 24.5104 48.602 23.4674 47.3995 21.7265ZM49.7032 27.7852H49.6086C49.1155 27.7929 48.629 27.6395 48.2102 27.3481C48.2102 27.3481 47.8521 32.893 51.4935 34.6109V34.6338C51.0138 35.4621 50.1897 35.953 49.3182 35.9376C48.3317 36.0066 47.3792 35.5312 46.7577 34.6645C46.7779 35.9683 46.5888 37.272 46.2036 38.4991C45.7104 39.9793 45.7104 41.6205 46.2036 43.1007C45.8996 43.1851 45.5956 43.2311 45.2849 43.2311C45.0957 43.2311 44.8997 43.208 44.7174 43.1544C43.8188 42.909 43.1027 42.1574 42.8122 41.168C42.8122 41.168 42.9541 46.4904 37.4886 46.4904H37.4481C37.8601 45.6008 38.0764 44.6115 38.0697 43.6069C38.3061 39.6725 40.6571 39.1126 40.6571 39.1126C40.0085 39.0207 39.3938 38.7599 38.8533 38.3457C38.3601 37.8779 38.0764 37.1877 38.0628 36.4591C39.6437 36.5358 41.1706 35.7918 42.2042 34.4268C42.8258 33.6216 43.2378 32.6398 43.4135 31.5891C42.5419 32.3331 41.4678 32.7089 40.3801 32.6551H39.8262C39.2383 32.5862 38.6777 32.3254 38.225 31.8882C40.3058 30.3544 41.765 27.7316 40.4747 23.7511C39.4343 20.5608 36.9414 18.1757 34.435 16.3811C33.604 15.7981 33.104 15.1386 33.104 14.5711C33.104 13.2366 34.7728 13.1983 35.4618 12.2703C36.2523 11.2274 35.7591 9.54009 35.07 8.52775C35.2659 8.4894 35.4686 8.47406 35.6645 8.47406C36.7928 8.45873 37.8805 8.97257 38.6641 9.89287C39.4613 10.7518 39.7653 12.0479 39.4613 13.2444L39.8262 13.3287C40.049 13.3747 40.272 13.3978 40.5017 13.4054H40.6503C42.6298 13.4054 43.5215 11.0509 43.5215 11.0509C43.5215 11.0509 45.6294 13.9959 42.5285 16.2966C41.9947 16.6879 41.7583 17.0636 41.8529 17.447L41.9001 17.7002L42.1231 17.7461C44.3729 18.4364 45.501 20.2004 46.8995 22.202C48.2237 24.1117 50.2235 25.262 52.365 25.3464H52.4055C52.4055 25.3464 51.7299 27.7852 49.7032 27.7852Z" fill="#222220"/>
<path d="M62.8291 27.6088H68.3959V38.3458H72.4494V27.6088H78.0163V23.7129H62.8291V27.6088ZM83.3669 32.2105V23.7743H79.4485V38.3458H82.9076L89.6634 29.8176V38.3458H93.5818V23.7129H90.1228L83.3669 32.2105ZM106.628 29.1427H100.331V23.7743H96.4124V38.3458H100.331V32.8853H106.628V38.3458H110.545V23.7743H106.628V29.1427ZM124.213 28.0077C123.287 27.6855 122.314 27.5552 121.348 27.6088H117.295V23.7743H113.377V38.3458L121.321 38.2845C122.153 38.2998 122.976 38.1924 123.781 37.9471C125.821 37.3795 127.226 35.2705 127.159 32.8853C127.24 30.6996 126.043 28.7056 124.213 28.0077ZM122.213 34.6032C121.719 34.7949 121.193 34.8716 120.672 34.818H117.295V31.1061H120.672C121.18 31.0677 121.693 31.1368 122.186 31.2902C122.808 31.4972 123.227 32.1491 123.213 32.8853C123.22 33.6369 122.828 34.3195 122.213 34.6032ZM143.575 23.7743H138.657L133.928 29.2655H132.847V23.7743H128.929V38.3458H132.847V32.824H133.928L138.603 38.3458H143.818L137.306 30.6766L143.575 23.7743Z" fill="#FEFEFE"/>
<path d="M152.007 23.3142C146.71 23.3142 143.548 26.6886 143.548 31.0448C143.548 35.4009 146.737 38.7754 151.979 38.7754C157.222 38.7754 160.383 35.4009 160.383 31.0448C160.383 26.6886 157.303 23.3142 152.007 23.3142ZM151.979 35.2168C149.359 35.2168 147.683 33.4376 147.683 31.0448C147.683 28.6521 149.386 26.9034 151.979 26.9034C154.574 26.9034 156.276 28.6521 156.276 31.0448C156.276 33.4376 154.601 35.2168 151.979 35.2168ZM173.295 24.3572V22.8848H169.376V24.3572C164.457 24.4799 161.512 26.842 161.512 31.0141C161.512 35.1863 164.457 37.3643 169.376 37.487V38.9594H173.295V37.487C178.239 37.3643 181.185 35.1863 181.185 31.0141C181.185 26.842 178.246 24.4799 173.295 24.3572ZM169.376 34.3579C166.673 34.2353 165.484 32.9775 165.484 31.0141C165.484 29.0508 166.673 27.6396 169.376 27.517V34.3579ZM173.295 34.3579V27.517C176.024 27.6396 177.185 29.0508 177.185 31.0141H177.192C177.192 32.9775 176.031 34.2353 173.295 34.3579ZM194.108 24.3572V22.8848H190.191V24.3572C185.272 24.4799 182.326 26.842 182.326 31.0141C182.326 35.1863 185.272 37.3643 190.191 37.487V38.9594H194.108V37.487C199.054 37.3643 202 35.1863 202 31.0141C202 26.842 199.054 24.4799 194.108 24.3572ZM190.191 34.3579C187.488 34.2353 186.299 32.9775 186.299 31.0141C186.299 29.0508 187.488 27.6396 190.191 27.517V34.3579ZM197.994 31.0141C197.994 32.9775 196.839 34.2353 194.108 34.3579V27.517C196.839 27.6396 198 29.0508 198 31.0141H197.994Z" fill="#FEFEFE"/>
</g>
<defs>
<clipPath id="clip0_107_589">
<rect width="202" height="56" fill="white"/>
</clipPath>
</defs>
</svg>
