<svg width="133" height="38" viewBox="0 0 133 38" fill="none" xmlns="http://www.w3.org/2000/svg">
<g clip-path="url(#clip0_107_569)">
<path d="M57.2478 36.8152H46.5459L53.2396 0.65625H63.9409L57.2478 36.8152Z" fill="#3D42A2"/>
<path d="M96.0422 1.53943C93.9313 0.807805 90.5833 0 86.4434 0C75.875 0 68.4328 4.92352 68.3871 11.9627C68.2993 17.1561 73.7155 20.0407 77.7664 21.7724C81.9068 23.5419 83.3143 24.6968 83.3143 26.2741C83.2721 28.6965 79.9686 29.8131 76.8874 29.8131C72.6147 29.8131 70.3254 29.2374 66.8462 27.8897L65.437 27.312L63.9395 35.4289C66.4495 36.4279 71.0739 37.3144 75.875 37.3533C87.1042 37.3533 94.4147 32.506 94.5013 25.0046C94.544 20.8884 91.6841 17.7344 85.5182 15.1571C81.7752 13.5026 79.4829 12.387 79.4829 10.6942C79.5267 9.15529 81.4217 7.57905 85.647 7.57905C89.1261 7.50185 91.6823 8.23245 93.6188 8.96356L94.5868 9.34753L96.0422 1.53943Z" fill="#3D42A2"/>
<path fill-rule="evenodd" clip-rule="evenodd" d="M115.199 0.654297H123.477L132.11 36.8127H122.202C122.202 36.8127 121.232 32.6582 120.925 31.3887H107.184C106.787 32.3499 104.938 36.8127 104.938 36.8127H93.709L109.605 3.65442C110.707 1.3077 112.646 0.654297 115.199 0.654297ZM114.539 13.8866C114.539 13.8866 111.148 21.9263 110.267 24.0036H119.162C118.722 22.1957 116.695 13.5405 116.695 13.5405L115.947 10.4248C115.632 11.2271 115.177 12.3301 114.87 13.0741C114.661 13.5785 114.521 13.9178 114.539 13.8866Z" fill="#3D42A2"/>
<path fill-rule="evenodd" clip-rule="evenodd" d="M27.1269 25.3112L37.6076 0.654297H48.9239L32.1024 36.7749H20.7855L11.2469 5.35612C7.95576 3.6751 4.19961 2.32312 0 1.3849L0.176151 0.654302H17.3945C19.7283 0.730481 21.6221 1.38439 22.2383 3.69379L25.9798 20.3051L25.9816 20.3105L27.1269 25.3112Z" fill="#3D42A2"/>
</g>
<defs>
<clipPath id="clip0_107_569">
<rect width="133" height="38" fill="white"/>
</clipPath>
</defs>
</svg>
