<svg width="198" height="54" viewBox="0 0 198 54" fill="none" xmlns="http://www.w3.org/2000/svg">
<path d="M27.7626 0.353518C31.863 0.351716 35.9112 1.27378 39.6063 3.05122L41.3023 3.93455L38.829 6.12522L35.1243 2.30922L28.7396 7.90955L24.9801 3.88685L13.2388 14.3226L20.756 22.5199L17.8233 25.0639L25.2398 33.2612L22.3071 35.8052L32.916 47.4652L39.1947 41.7642L44.6714 47.8769C43.5884 48.6895 42.4047 49.5075 41.138 50.2195C37.079 52.4914 32.5043 53.6825 27.8527 53.6786C12.935 53.6468 0.833303 41.6865 0.833303 26.9772C0.780303 12.3669 12.882 0.353518 27.7626 0.353518ZM22.8159 25.3483L29.2537 19.6473L35.0218 26.0108L28.5841 31.7119L22.8159 25.3483ZM27.4004 36.3441L33.7852 30.5918L39.6046 36.9518L33.1668 42.6528L27.4004 36.3441ZM18.235 14.5098L24.6692 8.80878L30.4356 15.1723L23.9978 20.8734L18.235 14.5098ZM30.0239 11.4535L34.7939 7.17815L39.1223 11.9128L34.3523 16.2412L30.0239 11.4535ZM38.5746 31.0511L43.3446 26.7758L47.6729 31.5599L42.9012 35.8335L38.5746 31.0511ZM42.8146 40.6724L47.5846 36.3971L51.9076 41.1317L47.1376 45.4565L42.8146 40.6724ZM44.7738 18.6968L47.9662 15.8454L50.8494 19.0025L47.657 21.8521L44.7738 18.6968ZM40.654 9.28048L43.8463 6.37962L46.7313 9.58612L43.5372 12.4375L40.654 9.28048ZM48.8407 28.1167L52.0331 25.2653L54.9657 28.4223L51.7221 31.272L48.8407 28.1167ZM34.4742 21.0412L39.2442 16.7659L43.569 21.5005L38.799 25.7759L34.4742 21.0412ZM67.7688 13.9145H70.3552L74.3938 29.3622H74.5969L77.5614 13.9145H80.9605L76.27 34.5968H73.1324L69.1821 20.0254H68.9772L65.14 34.5968H62.0041L57.2783 13.895H60.5325L63.7867 29.3428H63.9899L67.7688 13.9145ZM85.0892 25.8041H91.7407C91.5958 22.739 90.1153 21.5147 88.5607 21.5147C86.7887 21.5147 85.4213 22.8874 85.1033 25.8041M94.078 31.2949V33.5139C92.7706 34.2735 91.0287 34.8565 88.9546 34.8565C84.0751 34.8565 82.0699 31.8179 82.0699 27.2069C82.0699 22.7672 84.3065 19.5572 88.6649 19.5572C92.2954 19.5572 94.5338 21.9245 94.5338 26.6822V27.7634H85.0644C85.0644 31.2667 86.4866 32.816 89.4811 32.816C91.0499 32.816 92.4844 32.2595 94.0992 31.2967M101.295 32.5334C102.224 32.9397 103.242 33.0033 103.97 33.0033C106.12 33.0033 107.745 31.6606 107.745 26.9295C107.745 23.2195 106.409 22.0235 104.462 22.0235C103.3 22.0235 102.457 22.345 101.295 22.9863V32.5334ZM101.325 20.8257C102.194 20.3593 103.674 19.7445 105.247 19.7445C108.851 19.7445 110.798 22.2531 110.798 26.9277C110.798 32.4044 108.183 35.0456 103.971 35.0456C102 34.9911 100.065 34.5025 98.3038 33.6146V13.199L101.307 12.4693V20.7727L101.325 20.8257ZM124.511 34.6057H122.652L116.723 19.9476H116.463V34.6057H113.849V13.9003H117.382L123.889 30.2243H124.034L130.252 13.9003H133.856V34.6057H130.683V19.5802H130.422L124.511 34.6057ZM146.659 27.2069C146.659 23.2672 145.062 21.6012 143.087 21.6012C141.17 21.6012 139.513 23.2654 139.513 27.2069C139.513 31.2084 141.025 32.8125 143.087 32.8125C145.149 32.8125 146.659 31.2084 146.659 27.2069ZM136.462 27.2069C136.462 22.0959 139.253 19.5572 143.087 19.5572C146.921 19.5572 149.712 22.0959 149.712 27.2069C149.712 32.1995 147.069 34.8565 143.087 34.8565C139.105 34.8565 136.462 32.1977 136.462 27.2069ZM151.972 21.7002C153.279 20.9105 156.04 19.5378 159.381 19.5378C162.867 19.5378 164.172 20.9105 164.172 23.9191V34.4908H161.169V24.5922C161.169 22.2867 160.038 21.8768 158.554 21.8768C157.394 21.8768 155.91 22.4033 155.01 22.928V34.4908H152.007L151.972 21.7002ZM170.568 25.7847H177.221C177.08 22.7195 175.596 21.4952 174.041 21.4952C172.269 21.4952 170.905 22.8679 170.583 25.7847M179.558 31.2755V33.4944C178.251 34.2541 176.509 34.8371 174.435 34.8371C169.559 34.8371 167.55 31.7984 167.55 27.1874C167.55 22.7478 169.787 19.5378 174.145 19.5378C177.777 19.5378 180.016 21.9051 180.016 26.6627V27.7439H170.543C170.543 31.2472 171.967 32.7966 174.959 32.7966C176.527 32.7966 177.963 32.2401 179.578 31.2773M192.086 19.5378H195.167L189.907 34.1357C188.453 38.1637 186.681 40.2661 183.342 40.2661V37.874C185.321 37.874 186.522 36.2963 187.236 34.1339L181.657 19.536H184.837L188.556 30.2809H188.732L192.086 19.5378Z" fill="#106DB3"/>
</svg>
