<svg width="60" height="40" viewBox="0 0 60 40" fill="none" xmlns="http://www.w3.org/2000/svg">
<g clip-path="url(#clip0_1001_12)">
<mask id="mask0_1001_12" style="mask-type:luminance" maskUnits="userSpaceOnUse" x="0" y="0" width="201" height="40">
<path d="M201 0H0V40H201V0Z" fill="white"/>
</mask>
<g mask="url(#mask0_1001_12)">
<path d="M38.6988 0.0292969C26.836 0.0292969 17.3048 9.01636 17.3048 19.9999C17.3048 31.074 26.9302 39.9705 38.6963 39.9705C50.4623 39.9705 60.0965 30.9834 60.0965 19.9999C60.0965 9.01636 50.4648 0.0292969 38.6988 0.0292969ZM38.6988 27.4434C34.3233 27.4434 30.7266 24.0846 30.7266 19.9999C30.7266 15.9152 34.3233 12.5564 38.6988 12.5564C43.0743 12.5564 46.6722 15.9152 46.6722 19.9999C46.5742 24.0846 43.0743 27.4434 38.6988 27.4434ZM17.3048 5.83165V34.8799H9.72463L0 5.83165H17.3048Z" fill="#8B3FFD"/>
</g>
</g>
<defs>
<clipPath id="clip0_1001_12">
<rect width="60" height="40" fill="white"/>
</clipPath>
</defs>
</svg>
