<svg width="141" height="41" viewBox="0 0 141 41" fill="none" xmlns="http://www.w3.org/2000/svg">
<path d="M3.53805 28.1686C3.33937 28.1457 3.16856 28.0556 3.02563 27.8982C2.8827 27.7408 2.82497 27.5429 2.85244 27.3044L5.07709 7.99216C5.10227 7.7736 5.20234 7.60394 5.37731 7.48317C5.55457 7.34253 5.74254 7.28365 5.94123 7.30654L10.7991 7.86614C11.0177 7.89131 11.1873 7.99139 11.3081 8.16636C11.451 8.32375 11.5099 8.51172 11.4847 8.73027L10.7088 15.4657L11.8711 15.5996L16.6578 9.17519C16.7754 9.02768 16.9305 8.90462 17.1231 8.80601C17.3378 8.68982 17.5942 8.64889 17.8922 8.68322L23.3461 9.31148C23.5249 9.33207 23.666 9.41878 23.7691 9.57159C23.8746 9.70454 23.9171 9.86042 23.8965 10.0392C23.885 10.1386 23.8426 10.2444 23.7693 10.3568L17.2751 18.7588L22.1292 29.3136C22.162 29.3778 22.1693 29.4894 22.151 29.6483C22.1304 29.8271 22.0425 29.9781 21.8874 30.1011C21.7545 30.2066 21.5986 30.249 21.4198 30.2284L15.8169 29.583C15.4592 29.5418 15.2001 29.4315 15.0396 29.2519C14.9013 29.0548 14.8069 28.913 14.7564 28.8267L11.4275 21.2862L10.0565 21.1283L9.26006 28.0426C9.23489 28.2611 9.13367 28.4407 8.95641 28.5814C8.80131 28.7044 8.61448 28.7534 8.39593 28.7282L3.53805 28.1686Z" fill="white"/>
<path d="M33.5188 31.4758C31.903 31.3595 30.4334 31.0231 29.1099 30.4667C27.8064 29.9116 26.7573 29.1644 25.9627 28.2249C25.1681 27.2854 24.7384 26.1516 24.6736 24.8236C24.6666 24.6426 24.7372 24.4973 24.8855 24.3876C25.0352 24.2581 25.1998 24.1997 25.3793 24.2127L30.2567 24.5638C30.4961 24.581 30.6727 24.6338 30.7867 24.7222C30.9206 24.8121 31.0509 24.9518 31.1776 25.1414C31.3527 25.4948 31.6425 25.7864 32.047 26.016C32.4516 26.2457 33.0229 26.3871 33.761 26.4402C34.7185 26.5091 35.4845 26.3136 36.0591 25.8537C36.635 25.3738 36.9589 24.6351 37.0307 23.6377L37.0565 23.2787L31.85 22.9039C31.6306 22.8881 31.4468 22.7946 31.2987 22.6236C31.172 22.434 31.1165 22.2295 31.1323 22.01L31.3477 19.0178C31.3635 18.7983 31.447 18.6139 31.5981 18.4643C31.7706 18.2963 31.9666 18.2201 32.186 18.2359L37.3925 18.6107L37.4205 18.2217C37.4952 17.1844 37.2805 16.407 36.7763 15.8895C36.2722 15.3719 35.5414 15.0787 34.5838 15.0098C33.8457 14.9566 33.2593 15.0247 32.8246 15.214C32.3899 15.4033 32.1027 15.6332 31.9629 15.9039C31.8288 16.0948 31.6991 16.2258 31.5736 16.297C31.4496 16.3482 31.268 16.3652 31.0286 16.348L26.0913 15.9926C25.9118 15.9796 25.7565 15.9083 25.6255 15.7786C25.4945 15.6488 25.4454 15.4949 25.4783 15.3168C25.7583 13.9333 26.3489 12.8329 27.2499 12.0155C28.1723 11.1796 29.3069 10.5995 30.6536 10.2754C32.0217 9.93272 33.4938 9.81812 35.0697 9.93156C36.9448 10.0665 38.5584 10.4935 39.9102 11.2124C41.2835 11.9128 42.3353 12.9009 43.0655 14.1766C43.7958 15.4523 44.1327 17.0406 44.076 18.9415C44.0486 19.6012 44.0169 20.1804 43.981 20.6791C43.9665 21.1593 43.932 21.6381 43.8776 22.1154C43.8432 22.5942 43.7916 23.172 43.7228 23.8488C43.5051 25.7581 42.9528 27.3024 42.0659 28.4818C41.1803 29.6412 40.0079 30.4691 38.5484 30.9656C37.1104 31.4436 35.4339 31.6137 33.5188 31.4758Z" fill="white"/>
<path d="M46.4218 32.1386C46.2218 32.1344 46.0433 32.0607 45.8863 31.9173C45.7297 31.754 45.6536 31.5624 45.6582 31.3425L46.0636 11.9067C46.0686 11.6667 46.1525 11.4785 46.3154 11.3418C46.4783 11.2052 46.6597 11.139 46.8597 11.1431L51.7486 11.2451C51.9686 11.2497 52.1469 11.3334 52.2835 11.4963C52.4405 11.6396 52.5168 11.8212 52.5122 12.0412L52.2094 26.558L55.6887 26.6306L55.9914 12.1137C55.996 11.8938 56.0697 11.7153 56.2126 11.5782C56.3759 11.4216 56.5676 11.3456 56.7875 11.3502L61.6765 11.4521C61.8964 11.4567 62.0747 11.5405 62.2113 11.7034C62.3684 11.8467 62.4446 12.0283 62.44 12.2482L62.1373 26.7651L65.5865 26.837L65.8893 12.3202C65.8939 12.1002 65.9676 11.9217 66.1105 11.7847C66.2738 11.628 66.4654 11.552 66.6854 11.5566L71.5743 11.6586C71.7943 11.6632 71.9725 11.7469 72.1092 11.9098C72.2662 12.0531 72.3425 12.2347 72.3379 12.4547L71.9325 31.8904C71.9279 32.1104 71.844 32.2987 71.6807 32.4553C71.5378 32.5924 71.3564 32.6586 71.1364 32.654L46.4218 32.1386Z" fill="white"/>
<path d="M76.8424 32.5524C76.6425 32.5586 76.4605 32.4941 76.2963 32.359C76.1315 32.204 76.0457 32.0165 76.039 31.7966L75.445 12.3657C75.4383 12.1458 75.5127 11.9635 75.6684 11.8186C75.8234 11.6538 76.0009 11.5684 76.2008 11.5622L91.1638 11.1048C91.3837 11.0981 91.5761 11.1723 91.7409 11.3273C91.9051 11.4624 91.9905 11.6398 91.9973 11.8597L92.1128 15.638C92.1195 15.8579 92.0453 16.0502 91.8903 16.215C91.7346 16.3599 91.5469 16.4356 91.327 16.4423L82.0313 16.7265L82.1074 19.2153L85.5558 19.1099C88.0746 19.0329 90.0814 19.5519 91.5762 20.6667C93.0709 21.7816 93.8492 23.3485 93.9109 25.3676C93.9408 26.3471 93.7884 27.2522 93.4536 28.0828C93.1189 28.9134 92.6108 29.6393 91.9295 30.2604C91.2675 30.8609 90.4316 31.3367 89.4219 31.6877C88.4321 32.0381 87.2776 32.2335 85.9582 32.2738L76.8424 32.5524ZM82.3714 27.8513L85.28 27.7624C85.7198 27.749 86.0866 27.6377 86.3803 27.4286C86.6735 27.1996 86.8851 26.923 87.0153 26.5988C87.1654 26.2741 87.235 25.9318 87.224 25.572C87.2069 25.0122 87.012 24.528 86.6393 24.1192C86.2867 23.7097 85.7905 23.5148 85.1508 23.5344L82.2421 23.6233L82.3714 27.8513Z" fill="white"/>
<path d="M106.277 31.5126C104.661 31.633 103.158 31.5143 101.768 31.1566C100.397 30.7974 99.2505 30.211 98.3275 29.3973C97.4045 28.5836 96.8142 27.5245 96.5566 26.22C96.5233 26.042 96.572 25.888 96.7027 25.7579C96.8319 25.6079 96.9862 25.5262 97.1657 25.5128L102.042 25.1496C102.282 25.1318 102.464 25.1583 102.59 25.2291C102.735 25.2985 102.884 25.4178 103.037 25.5869C103.262 25.9111 103.591 26.1573 104.025 26.3255C104.459 26.4938 105.045 26.5504 105.783 26.4955C106.74 26.4241 107.469 26.1191 107.971 25.5804C108.47 25.0217 108.683 24.2438 108.609 23.2465L108.582 22.8875L103.377 23.2753C103.157 23.2916 102.962 23.226 102.79 23.0783C102.637 22.9092 102.553 22.7149 102.536 22.4955L102.314 19.5038C102.297 19.2844 102.353 19.0898 102.481 18.9198C102.627 18.7284 102.81 18.6246 103.029 18.6082L108.235 18.2204L108.206 17.8315C108.128 16.7944 107.803 16.0566 107.228 15.618C106.654 15.1794 105.889 14.9958 104.931 15.0671C104.193 15.1221 103.623 15.2749 103.221 15.5255C102.818 15.7761 102.567 16.0454 102.469 16.3336C102.364 16.5419 102.254 16.6905 102.141 16.7791C102.025 16.8479 101.848 16.8912 101.609 16.909L96.6725 17.2767C96.493 17.2901 96.329 17.2421 96.1805 17.1329C96.032 17.0236 95.961 16.8785 95.9676 16.6975C96.0431 15.288 96.467 14.1133 97.2393 13.1733C98.0301 12.2119 99.068 11.4727 100.353 10.9558C101.657 10.4175 103.096 10.0897 104.672 9.9723C106.547 9.83265 108.205 10.02 109.648 10.5343C111.108 11.0271 112.293 11.8514 113.201 13.0071C114.109 14.1628 114.674 15.6851 114.895 17.5739C114.964 18.2306 115.017 18.8082 115.054 19.3069C115.11 19.7841 115.145 20.2627 115.161 20.7429C115.197 21.2216 115.23 21.8007 115.26 22.4803C115.323 24.4009 115.002 26.0093 114.296 27.3053C113.589 28.5813 112.55 29.5713 111.178 30.2751C109.825 30.9575 108.191 31.37 106.277 31.5126Z" fill="white"/>
<path d="M120.435 30.0652C120.236 30.0885 120.05 30.04 119.874 29.9196C119.699 29.7992 119.597 29.6198 119.57 29.3814L117.304 10.0739C117.279 9.85535 117.337 9.66725 117.48 9.50956C117.62 9.33201 117.789 9.23158 117.988 9.20827L122.845 8.63845C123.063 8.61281 123.251 8.67129 123.409 8.81389C123.584 8.93429 123.685 9.10374 123.71 9.32224L124.5 16.0561L125.662 15.9197L128.847 8.56848C128.928 8.39792 129.051 8.24256 129.216 8.1024C129.398 7.94005 129.638 7.84139 129.936 7.80643L135.389 7.16669C135.567 7.14572 135.725 7.19776 135.86 7.32283C135.993 7.42802 136.07 7.57001 136.091 7.74878C136.103 7.8481 136.086 7.96085 136.04 8.08702L131.647 17.7548L138.793 26.9145C138.84 26.9695 138.872 27.0764 138.891 27.2353C138.912 27.4141 138.861 27.5811 138.738 27.7365C138.633 27.8696 138.491 27.9467 138.312 27.9677L132.711 28.6249C132.353 28.6669 132.076 28.6189 131.878 28.4809C131.699 28.3208 131.574 28.2045 131.505 28.1321L126.535 21.5564L125.165 21.7172L125.976 28.6298C126.001 28.8483 125.944 29.0463 125.804 29.2239C125.681 29.3793 125.51 29.4697 125.292 29.4954L120.435 30.0652Z" fill="white"/>
</svg>
