<svg width="44" height="44" viewBox="0 0 44 44" fill="none" xmlns="http://www.w3.org/2000/svg">
<path d="M35.7517 13.7509V22.0017H30.2517V13.7509C30.2517 11.4727 29.3279 9.41016 27.8352 7.91656C26.3416 6.42383 24.2791 5.5 22.0009 5.5C17.4445 5.5 13.75 9.19445 13.75 13.7509V22.0017H8.25V13.7509C8.25 6.15656 14.4066 0 22.0009 0C29.5952 0 35.7517 6.15656 35.7517 13.7509Z" fill="#535983"/>
<path d="M35.7509 13.7509V22.0017H30.2509V13.7509C30.2509 11.4727 29.327 9.41016 27.8343 7.91656C26.3407 6.42383 24.2782 5.5 22 5.5V0C29.5943 0 35.7509 6.15656 35.7509 13.7509Z" fill="#7B82B1"/>
<path d="M38.5017 22.9298V40.3236C33.2827 42.7771 27.6409 44.0008 22.0009 44C16.3573 43.9991 10.7155 42.7711 5.5 40.3219V22.9273C10.719 20.4737 16.3608 19.25 22.0009 19.2517C27.6444 19.2526 33.2862 20.4798 38.5017 22.9298Z" fill="#7B82B1"/>
<path d="M38.5009 22.9298V40.3236C33.2819 42.7771 27.6401 44.0008 22 44V19.2517C27.6435 19.2526 33.2853 20.4798 38.5009 22.9298Z" fill="#535983"/>
<path d="M24.75 29.3193C24.75 30.3712 24.1596 31.2847 23.2916 31.7471V36.6825H20.7135V31.7505C19.843 31.2882 19.25 30.3738 19.25 29.3193C19.25 27.8 20.4815 26.5693 22 26.5693C23.5185 26.5693 24.75 27.8 24.75 29.3193Z" fill="#131521"/>
<path d="M24.75 29.3193C24.75 30.3712 24.1596 31.2847 23.2916 31.7471V36.6825H22V26.5693C23.5185 26.5693 24.75 27.8 24.75 29.3193Z" fill="#2C2F44"/>
</svg>
