<svg width="112" height="32" viewBox="0 0 112 32" fill="none" xmlns="http://www.w3.org/2000/svg">
<path d="M24.3159 9.93642C14.2279 5.90444 7.59751 8.96109 1.41913 25.1172L1.41703 25.1227C1.37848 25.2215 -2.0603 34.0181 1.91735 15.6216C5.65399 -1.66011 23.3531 -0.180034 28.1131 2.94283C28.6548 3.29819 28.7557 3.9988 28.5005 4.59425L26.6017 9.02481C26.2262 9.90108 25.2012 10.2902 24.3159 9.93642Z" fill="#0083E1"/>
<path d="M23.4862 23.3066C17.6838 25.5726 11.279 22.1619 12.6591 15.1713C12.9428 13.7338 11.7165 12.3787 10.521 13.2259C6.99321 15.7259 5.01346 20.2562 6.861 24.4951C6.89755 24.579 6.94389 24.6618 6.99517 24.7375C12.5373 32.9245 21.4244 32.7016 27.4587 29.492C28.2877 29.0511 28.4952 27.9885 27.9744 27.2073L25.7976 23.9421C25.3019 23.1987 24.3185 22.9816 23.4862 23.3066Z" fill="#0083E1"/>
<path d="M49.6055 13.333H45.4014V9.17285C45.4014 8.83105 45.1914 8.66016 44.7715 8.66016C44.332 8.66016 44.1123 8.83105 44.1123 9.17285V23.748C44.1123 24.0898 44.332 24.2607 44.7715 24.2607C45.1914 24.2607 45.4014 24.0898 45.4014 23.748V18.5625H49.6055V23.8945C49.6055 24.8906 49.1172 25.6914 48.1406 26.2969C47.1641 26.8926 46.0605 27.1904 44.8301 27.1904C41.2754 27.1904 39.498 25.9307 39.498 23.4111V9.89062C39.498 7.16602 41.2754 5.80371 44.8301 5.80371C48.0137 5.80371 49.6055 7.04395 49.6055 9.52441V13.333ZM64.582 27H60.0117L59.2354 21.3604H57.1699L56.3936 27H51.8232L55.2803 5.99414H61.125L64.582 27ZM58.8545 18.4453L58.1953 12.1758L57.5654 18.4453H58.8545ZM66.8145 18.5918H71.0186V23.4111C71.0186 23.8896 71.3066 24.1289 71.8828 24.1289C72.4395 24.1289 72.7178 23.8896 72.7178 23.4111V20.9209C72.7178 20.1592 72.21 19.2656 71.1943 18.2402C69.2314 16.3359 68.0107 15.0566 67.5322 14.4023C67.0537 13.748 66.8145 13.0303 66.8145 12.249V9.89062C66.8145 7.16602 68.5918 5.80371 72.1465 5.80371C75.3301 5.80371 76.9219 7.04395 76.9219 9.52441V13.1572H72.7178V9.29004C72.7178 8.87012 72.4883 8.66016 72.0293 8.66016C71.4922 8.66016 71.2236 9.06543 71.2236 9.87598L71.3115 11.2383C71.3115 12.0195 71.8291 12.9277 72.8643 13.9629C74.7881 15.8086 76.0088 17.0977 76.5264 17.8301C77.0537 18.5625 77.3174 19.3926 77.3174 20.3203V23.001C77.3174 25.7939 75.5352 27.1904 71.9707 27.1904C68.5332 27.1904 66.8145 25.9209 66.8145 23.3818V18.5918ZM84.3398 27H79.7256V5.99414H84.3398V27ZM98.5254 27H93.7793L90.6445 15.8086V27H86.792V5.99414H92.0361L94.6729 15.5742V5.99414H98.5254V27ZM100.992 23.4111V9.89062C100.992 7.16602 102.76 5.80371 106.295 5.80371C109.781 5.80371 111.524 7.15625 111.524 9.86133V23.3818C111.524 24.6025 111.036 25.5449 110.06 26.209C109.093 26.8633 107.828 27.1904 106.266 27.1904C102.75 27.1904 100.992 25.9307 100.992 23.4111ZM107.013 23.6309V9.31934C107.013 8.89941 106.764 8.68945 106.266 8.68945C105.748 8.68945 105.489 8.89941 105.489 9.31934V23.6309C105.489 24.0508 105.748 24.2607 106.266 24.2607C106.764 24.2607 107.013 24.0508 107.013 23.6309Z" fill="white"/>
</svg>
