<svg width="108" height="32" viewBox="0 0 108 32" fill="none" xmlns="http://www.w3.org/2000/svg">
<path d="M24.3159 9.93642C14.2279 5.90444 7.59751 8.96109 1.41913 25.1172L1.41703 25.1227C1.37848 25.2215 -2.0603 34.0181 1.91735 15.6216C5.65399 -1.66011 23.3531 -0.180034 28.1131 2.94283C28.6548 3.29819 28.7557 3.9988 28.5005 4.59425L26.6017 9.02481C26.2262 9.90108 25.2012 10.2902 24.3159 9.93642Z" fill="#0083E1"/>
<path d="M23.4862 23.3066C17.6838 25.5726 11.279 22.1619 12.6591 15.1713C12.9428 13.7338 11.7165 12.3787 10.521 13.2259C6.99321 15.7259 5.01346 20.2562 6.861 24.4951C6.89755 24.579 6.94389 24.6618 6.99517 24.7375C12.5373 32.9245 21.4244 32.7016 27.4587 29.492C28.2877 29.0511 28.4952 27.9885 27.9744 27.2073L25.7976 23.9421C25.3019 23.1987 24.3185 22.9816 23.4862 23.3066Z" fill="#0083E1"/>
<path d="M49.6055 13.333H45.4014V9.17285C45.4014 8.83105 45.1914 8.66016 44.7715 8.66016C44.332 8.66016 44.1123 8.83105 44.1123 9.17285V23.748C44.1123 24.0898 44.332 24.2607 44.7715 24.2607C45.1914 24.2607 45.4014 24.0898 45.4014 23.748V18.5625H49.6055V23.8945C49.6055 24.8906 49.1172 25.6914 48.1406 26.2969C47.1641 26.8926 46.0605 27.1904 44.8301 27.1904C41.2754 27.1904 39.498 25.9307 39.498 23.4111V9.89062C39.498 7.16602 41.2754 5.80371 44.8301 5.80371C48.0137 5.80371 49.6055 7.04395 49.6055 9.52441V13.333ZM52.0723 23.4111V9.89062C52.0723 7.16602 53.8398 5.80371 57.375 5.80371C60.8613 5.80371 62.6045 7.15625 62.6045 9.86133V23.3818C62.6045 24.6025 62.1162 25.5449 61.1396 26.209C60.1729 26.8633 58.9082 27.1904 57.3457 27.1904C53.8301 27.1904 52.0723 25.9307 52.0723 23.4111ZM58.0928 23.6309V9.31934C58.0928 8.89941 57.8438 8.68945 57.3457 8.68945C56.8281 8.68945 56.5693 8.89941 56.5693 9.31934V23.6309C56.5693 24.0508 56.8281 24.2607 57.3457 24.2607C57.8438 24.2607 58.0928 24.0508 58.0928 23.6309ZM65.0566 18.5918H69.2607V23.4111C69.2607 23.8896 69.5488 24.1289 70.125 24.1289C70.6816 24.1289 70.96 23.8896 70.96 23.4111V20.9209C70.96 20.1592 70.4521 19.2656 69.4365 18.2402C67.4736 16.3359 66.2529 15.0566 65.7744 14.4023C65.2959 13.748 65.0566 13.0303 65.0566 12.249V9.89062C65.0566 7.16602 66.834 5.80371 70.3887 5.80371C73.5723 5.80371 75.1641 7.04395 75.1641 9.52441V13.1572H70.96V9.29004C70.96 8.87012 70.7305 8.66016 70.2715 8.66016C69.7344 8.66016 69.4658 9.06543 69.4658 9.87598L69.5537 11.2383C69.5537 12.0195 70.0713 12.9277 71.1064 13.9629C73.0303 15.8086 74.251 17.0977 74.7686 17.8301C75.2959 18.5625 75.5596 19.3926 75.5596 20.3203V23.001C75.5596 25.7939 73.7773 27.1904 70.2129 27.1904C66.7754 27.1904 65.0566 25.9209 65.0566 23.3818V18.5918ZM94.125 27H90.0088V15.208L87.6064 27H84.4277L81.6738 15.208V27H78.0703V5.99414H84.0029L86.1123 16.8926L87.9434 5.99414H94.125V27ZM96.6211 23.4111V9.89062C96.6211 7.16602 98.3887 5.80371 101.924 5.80371C105.41 5.80371 107.153 7.15625 107.153 9.86133V23.3818C107.153 24.6025 106.665 25.5449 105.688 26.209C104.722 26.8633 103.457 27.1904 101.895 27.1904C98.3789 27.1904 96.6211 25.9307 96.6211 23.4111ZM102.642 23.6309V9.31934C102.642 8.89941 102.393 8.68945 101.895 8.68945C101.377 8.68945 101.118 8.89941 101.118 9.31934V23.6309C101.118 24.0508 101.377 24.2607 101.895 24.2607C102.393 24.2607 102.642 24.0508 102.642 23.6309Z" fill="white"/>
</svg>
