<svg width="2052" height="2054" viewBox="0 0 2052 2054" fill="none" xmlns="http://www.w3.org/2000/svg">
<g clip-path="url(#clip0_923_2)">
<path d="M2052 1035.57C2051.6 1083.66 2047.82 1131.66 2040.69 1179.22L1026 1027.02L2052 1035.57Z" fill="white" fill-opacity="0.06"/>
<path d="M2038.02 1196.12C2030.11 1243.55 2018.89 1290.37 2004.42 1336.23L1026 1027.02L2038.02 1196.12Z" fill="white" fill-opacity="0.06"/>
<path d="M1999.14 1352.51C1983.92 1398.12 1965.5 1442.6 1944.06 1485.62L1026 1027.02L1999.14 1352.51Z" fill="white" fill-opacity="0.06"/>
<path d="M1936.29 1500.88C1914.11 1543.54 1888.99 1584.59 1861.07 1623.73L1026 1027.02L1936.29 1500.88Z" fill="white" fill-opacity="0.06"/>
<path d="M1851.01 1637.58C1822.46 1676.24 1791.21 1712.85 1757.52 1747.14L1026 1027.02L1851.01 1637.58Z" fill="white" fill-opacity="0.06"/>
<path d="M1745.43 1759.24C1711.18 1792.96 1674.61 1824.23 1635.98 1852.82L1026 1027.02L1745.43 1759.24Z" fill="white" fill-opacity="0.06"/>
<path d="M1622.15 1862.88C1583.05 1890.82 1542.03 1915.98 1499.41 1938.16L1026 1027.02L1622.15 1862.88Z" fill="white" fill-opacity="0.06"/>
<path d="M1484.17 1945.93C1441.19 1967.41 1396.75 1985.83 1351.18 2001.07L1026 1027.02L1484.17 1945.93Z" fill="white" fill-opacity="0.06"/>
<path d="M1334.92 2006.36C1289.1 2020.84 1242.33 2032.08 1194.95 2040L1026 1027.02L1334.92 2006.36Z" fill="white" fill-opacity="0.06"/>
<path d="M1178.06 2042.68C1130.54 2049.8 1082.59 2053.58 1034.55 2053.98L1026 1027.02L1178.06 2042.68Z" fill="white" fill-opacity="0.06"/>
<path d="M1017.45 2053.98C969.409 2053.58 921.456 2049.8 873.944 2042.68L1026 1027.02L1017.45 2053.98Z" fill="white" fill-opacity="0.06"/>
<path d="M857.053 2040C809.668 2032.08 762.895 2020.84 717.082 2006.36L1026 1027.02L857.053 2040Z" fill="white" fill-opacity="0.06"/>
<path d="M700.818 2001.07C655.252 1985.83 610.813 1967.41 567.826 1945.93L1026 1027.02L700.818 2001.07Z" fill="white" fill-opacity="0.06"/>
<path d="M552.59 1938.16C509.967 1915.98 468.955 1890.82 429.853 1862.88L1026 1027.02L552.59 1938.16Z" fill="white" fill-opacity="0.06"/>
<path d="M416.019 1852.82C377.388 1824.23 340.812 1792.96 306.558 1759.24L1026 1027.02L416.019 1852.82Z" fill="white" fill-opacity="0.06"/>
<path d="M294.467 1747.14C260.78 1712.85 229.541 1676.24 200.98 1637.58L1026 1027.02L294.467 1747.14Z" fill="white" fill-opacity="0.06"/>
<path d="M190.928 1623.73C163.013 1584.59 137.881 1543.54 115.714 1500.88L1026 1027.02L190.928 1623.73Z" fill="white" fill-opacity="0.06"/>
<path d="M107.951 1485.62C86.4977 1442.6 68.09 1398.12 52.8639 1352.51L1026 1027.02L107.951 1485.62Z" fill="white" fill-opacity="0.06"/>
<path d="M47.5795 1336.23C33.1149 1290.37 21.8858 1243.55 13.9753 1196.12L1026 1027.02L47.5795 1336.23Z" fill="white" fill-opacity="0.06"/>
<path d="M11.3001 1179.22C4.18028 1131.66 0.406352 1083.66 0.00601196 1035.57L1026 1027.02L11.3001 1179.22Z" fill="white" fill-opacity="0.06"/>
<path d="M0.00595093 1018.46C0.406308 970.373 4.18039 922.374 11.3001 874.817L1026 1027.02L0.00595093 1018.46Z" fill="white" fill-opacity="0.06"/>
<path d="M13.9751 857.911C21.8858 810.48 33.1149 763.663 47.5795 717.807L1026 1027.02L13.9751 857.911Z" fill="white" fill-opacity="0.06"/>
<path d="M52.8639 701.527C68.09 655.919 86.4977 611.437 107.951 568.41L1026 1027.02L52.8639 701.527Z" fill="white" fill-opacity="0.06"/>
<path d="M115.714 553.159C137.881 510.496 163.013 469.444 190.928 430.305L1026 1027.02L115.714 553.159Z" fill="white" fill-opacity="0.06"/>
<path d="M200.98 416.458C229.541 377.791 260.78 341.18 294.467 306.894L1026 1027.02L200.98 416.458Z" fill="white" fill-opacity="0.06"/>
<path d="M306.558 294.79C340.812 261.072 377.388 229.803 416.019 201.215L1026 1027.02L306.558 294.79Z" fill="white" fill-opacity="0.06"/>
<path d="M429.853 191.154C468.955 163.213 509.967 138.056 552.59 115.87L1026 1027.02L429.853 191.154Z" fill="white" fill-opacity="0.06"/>
<path d="M567.826 108.099C610.813 86.6241 655.252 68.1997 700.818 52.959L1026 1027.02L567.826 108.099Z" fill="white" fill-opacity="0.06"/>
<path d="M717.082 47.6697C762.895 33.1907 809.668 21.9519 857.053 14.0337L1026 1027.02L717.082 47.6697Z" fill="white" fill-opacity="0.06"/>
<path d="M873.944 11.3551C921.456 4.22946 969.409 0.4518 1017.45 0.0512695L1026 1027.02L873.944 11.3551Z" fill="white" fill-opacity="0.06"/>
<path d="M1034.55 0.0512695C1082.59 0.4518 1130.54 4.22946 1178.06 11.3551L1026 1027.02L1034.55 0.0512695Z" fill="white" fill-opacity="0.06"/>
<path d="M1194.95 14.0337C1242.33 21.9519 1289.1 33.1907 1334.92 47.6697L1026 1027.02L1194.95 14.0337Z" fill="white" fill-opacity="0.06"/>
<path d="M1351.18 52.959C1396.75 68.1997 1441.19 86.6241 1484.17 108.099L1026 1027.02L1351.18 52.959Z" fill="white" fill-opacity="0.06"/>
<path d="M1499.41 115.87C1542.03 138.056 1583.05 163.213 1622.15 191.154L1026 1027.02L1499.41 115.87Z" fill="white" fill-opacity="0.06"/>
<path d="M1635.98 201.215C1674.61 229.803 1711.18 261.072 1745.43 294.79L1026 1027.02L1635.98 201.215Z" fill="white" fill-opacity="0.06"/>
<path d="M1757.52 306.894C1791.21 341.18 1822.46 377.791 1851.01 416.458L1026 1027.02L1757.52 306.894Z" fill="white" fill-opacity="0.06"/>
<path d="M1861.07 430.305C1888.99 469.444 1914.11 510.496 1936.29 553.159L1026 1027.02L1861.07 430.305Z" fill="white" fill-opacity="0.06"/>
<path d="M1944.06 568.41C1965.5 611.437 1983.92 655.919 1999.14 701.528L1026 1027.02L1944.06 568.41Z" fill="white" fill-opacity="0.06"/>
<path d="M2004.42 717.807C2018.89 763.663 2030.11 810.48 2038.02 857.911L1026 1027.02L2004.42 717.807Z" fill="white" fill-opacity="0.06"/>
<path d="M2040.69 874.817C2047.82 922.374 2051.6 970.373 2052 1018.46L1026 1027.02L2040.69 874.817Z" fill="white" fill-opacity="0.06"/>
</g>
<defs>
<clipPath id="clip0_923_2">
<rect width="2052" height="2054" fill="white"/>
</clipPath>
</defs>
</svg>
