<svg width="61" height="61" viewBox="0 0 61 61" fill="none" xmlns="http://www.w3.org/2000/svg">
<g clip-path="url(#clip0_1022_20)">
<path d="M30.5 49.5148C29.513 49.5148 28.7129 48.7146 28.7129 47.7277V38.1567C28.7129 37.1698 29.513 36.3696 30.5 36.3696C31.487 36.3696 32.2871 37.1698 32.2871 38.1567V47.7277C32.2871 48.7146 31.487 49.5148 30.5 49.5148Z" fill="#FFB454"/>
<path d="M20.929 34.2015C15.7216 34.2015 11.4851 29.9649 11.4851 24.7575V20.9292C11.4851 19.9422 12.2853 19.1421 13.2722 19.1421H20.929C21.916 19.1421 22.7161 19.9422 22.7161 20.9292C22.7161 21.9162 21.916 22.7163 20.929 22.7163H15.0593V24.7575C15.0593 27.9941 17.6925 30.6272 20.929 30.6272C21.916 30.6272 22.7161 31.4274 22.7161 32.4144C22.7161 33.4013 21.916 34.2015 20.929 34.2015Z" fill="#FFCB00"/>
<path d="M40.0708 34.2015C39.0838 34.2015 38.2837 33.4013 38.2837 32.4144C38.2837 31.4274 39.0838 30.6272 40.0708 30.6272C43.3074 30.6272 45.9405 27.9941 45.9405 24.7575V22.7163H40.0708C39.0838 22.7163 38.2837 21.9162 38.2837 20.9292C38.2837 19.9422 39.0838 19.1421 40.0708 19.1421H47.7276C48.7146 19.1421 49.5147 19.9422 49.5147 20.9292V24.7575C49.5147 29.9649 45.2782 34.2015 40.0708 34.2015Z" fill="#FFB454"/>
<path d="M50.2559 8.21656L47.4526 11.0199C46.7547 11.7179 46.7547 12.8493 47.4526 13.5473C48.1505 14.2451 49.282 14.2452 49.98 13.5473L52.7832 10.7439C53.4812 10.046 53.4812 8.91449 52.7832 8.21656C52.0854 7.51863 50.9538 7.51863 50.2559 8.21656Z" fill="#FFCB00"/>
<path d="M11.0198 47.4528L8.21656 50.2562C7.51863 50.9541 7.51863 52.0856 8.21656 52.7835C8.91437 53.4813 10.046 53.4814 10.7439 52.7835L13.5471 49.9801C14.2451 49.2822 14.2451 48.1506 13.5471 47.4528C12.8493 46.7549 11.7177 46.7549 11.0198 47.4528ZM10.7439 8.21656C10.0461 7.51863 8.91449 7.51863 8.21656 8.21656C7.51863 8.91449 7.51863 10.046 8.21656 10.7439L11.0198 13.5473C11.7176 14.2452 12.8492 14.2452 13.5471 13.5473C14.2451 12.8493 14.2451 11.7177 13.5471 11.0199L10.7439 8.21656Z" fill="#FFE705"/>
<path d="M49.9801 47.4527C49.2823 46.7548 48.1507 46.7548 47.4528 47.4527C46.7549 48.1507 46.7549 49.2821 47.4528 49.9801L50.256 52.7834C50.9539 53.4814 52.0854 53.4814 52.7834 52.7834C53.4813 52.0855 53.4813 50.954 52.7834 50.2561L49.9801 47.4527ZM38.6563 0.0613373C37.703 -0.1941 36.723 0.371579 36.4675 1.32506L35.4415 5.15448C35.1859 6.10784 35.7517 7.08777 36.7052 7.34321C37.6585 7.59865 38.6385 7.03285 38.894 6.07949L39.92 2.25007C40.1754 1.29671 39.6096 0.316775 38.6563 0.0613373Z" fill="#FFCB00"/>
<path d="M24.2948 53.6567C23.3416 53.4012 22.3615 53.967 22.1061 54.9204L21.08 58.7498C20.8245 59.7032 21.3903 60.6831 22.3438 60.9385C23.297 61.194 24.2771 60.6282 24.5325 59.6748L25.5585 55.8454C25.814 54.892 25.2483 53.9121 24.2948 53.6567ZM6.07953 22.1061L2.25011 21.0799C1.29675 20.8244 0.316816 21.3903 0.061378 22.3435C-0.194179 23.2969 0.37162 24.2768 1.3251 24.5323L5.15452 25.5584C6.10788 25.814 7.08782 25.2481 7.34325 24.2948C7.59869 23.3415 7.03289 22.3614 6.07953 22.1061Z" fill="#FFE705"/>
<path d="M59.675 36.4677L55.8456 35.4415C54.8922 35.1859 53.9123 35.7519 53.6568 36.7051C53.4013 37.6585 53.9671 38.6384 54.9206 38.8938L58.75 39.92C59.7033 40.1755 60.6833 39.6096 60.9387 38.6564C61.1943 37.703 60.6285 36.7231 59.675 36.4677Z" fill="#FFCB00"/>
<path d="M24.5326 1.32505C24.2773 0.371691 23.2972 -0.194108 22.3439 0.0613294C21.3905 0.316767 20.8247 1.2967 21.0801 2.25006L22.1062 6.07948C22.3615 7.03284 23.3415 7.59864 24.2949 7.3432C25.2483 7.08777 25.8141 6.10784 25.5586 5.15447L24.5326 1.32505Z" fill="#FFE705"/>
<path d="M38.8939 54.9204C38.6386 53.967 37.6585 53.4012 36.7052 53.6567C35.7518 53.9121 35.186 54.892 35.4415 55.8454L36.4675 59.6748C36.7228 60.6282 37.7029 61.194 38.6562 60.9385C39.6096 60.6831 40.1754 59.7032 39.92 58.7498L38.8939 54.9204ZM55.8456 25.5584L59.675 24.5323C60.6284 24.2768 61.1942 23.2969 60.9387 22.3435C60.6833 21.3903 59.7034 20.8244 58.75 21.0799L54.9206 22.1061C53.9672 22.3615 53.4014 23.3415 53.6569 24.2948C53.9123 25.2481 54.8922 25.814 55.8456 25.5584Z" fill="#FFCB00"/>
<path d="M5.15452 35.4415L1.3251 36.4676C0.37162 36.723 -0.194179 37.703 0.061378 38.6563C0.316816 39.6096 1.29675 40.1755 2.25011 39.9199L6.07953 38.8938C7.03289 38.6384 7.59869 37.6584 7.34325 36.7051C7.08782 35.7518 6.10788 35.1859 5.15452 35.4415ZM30.5 39.9439C24.2373 39.9439 19.142 34.8486 19.142 28.5857V17.1006C19.142 16.1136 19.9421 15.3135 20.9291 15.3135H40.0709C41.0579 15.3135 41.8581 16.1136 41.8581 17.1006V28.5857C41.8581 34.8486 36.7628 39.9439 30.5 39.9439ZM36.2426 49.5148H24.7574C23.7705 49.5148 22.9703 48.7147 22.9703 47.7277C22.9703 46.7407 23.7705 45.9406 24.7574 45.9406H36.2426C37.2296 45.9406 38.0297 46.7407 38.0297 47.7277C38.0297 48.7147 37.2296 49.5148 36.2426 49.5148Z" fill="#FFE705"/>
<path d="M41.858 28.5857V17.1006C41.858 16.1136 41.0579 15.3135 40.0709 15.3135H30.5V39.9438C36.7627 39.9439 41.858 34.8486 41.858 28.5857ZM38.0297 47.7277C38.0297 46.7407 37.2295 45.9406 36.2426 45.9406H30.5V49.5148H36.2426C37.2295 49.5148 38.0297 48.7147 38.0297 47.7277Z" fill="#FFCB00"/>
</g>
<defs>
<clipPath id="clip0_1022_20">
<rect width="61" height="61" fill="white"/>
</clipPath>
</defs>
</svg>
