<svg width="717" height="625" viewBox="0 0 717 625" fill="none" xmlns="http://www.w3.org/2000/svg">
<g clip-path="url(#clip0_756_55)">
<ellipse cx="359" cy="98.5" rx="119" ry="68.5" fill="url(#paint0_linear_756_55)"/>
<mask id="mask0_756_55" style="mask-type:alpha" maskUnits="userSpaceOnUse" x="240" y="30" width="238" height="137">
<ellipse cx="359" cy="98.5" rx="119" ry="68.5" fill="url(#paint1_linear_756_55)"/>
</mask>
<g mask="url(#mask0_756_55)">
<ellipse cx="317.368" cy="42.756" rx="63.884" ry="15.6351" transform="rotate(-7.42153 317.368 42.756)" fill="white" fill-opacity="0.1"/>
<ellipse cx="319.659" cy="45.894" rx="16.9276" ry="6.7641" transform="rotate(-7.42153 319.659 45.894)" fill="white" fill-opacity="0.3"/>
</g>
<path d="M717 135.057C715.18 180.56 556.494 200.56 358.5 200.56C130 203.56 0 172.06 0 135.057C0 98.054 134.005 70.577 358.5 72.0571C586.5 73.5602 718.5 97.5599 717 135.057Z" fill="#36417A"/>
<mask id="mask1_756_55" style="mask-type:alpha" maskUnits="userSpaceOnUse" x="0" y="72" width="718" height="129">
<path d="M717 135.057C715.18 180.56 556.494 200.56 358.5 200.56C130 203.56 0 172.06 0 135.057C0 98.054 134.005 70.577 358.5 72.0571C586.5 73.5602 718.5 97.5599 717 135.057Z" fill="#FF0000"/>
</mask>
<g mask="url(#mask1_756_55)">
<path d="M716.987 147.122C710.813 190.312 556.484 209.873 358.494 209.873C129.998 212.747 -1 182.037 -1 146.589C-1 111.14 112 86.769 358.494 86.769C606.5 86.769 722.5 108.56 716.987 147.122Z" fill="url(#paint2_linear_756_55)"/>
<mask id="mask2_756_55" style="mask-type:alpha" maskUnits="userSpaceOnUse" x="-1" y="86" width="719" height="125">
<path d="M716.987 147.122C710.813 190.312 556.484 209.873 358.494 209.873C129.998 212.747 -1 182.037 -1 146.589C-1 111.14 112 86.769 358.494 86.769C606.5 86.769 722.5 108.56 716.987 147.122Z" fill="url(#paint3_linear_756_55)"/>
</mask>
<g mask="url(#mask2_756_55)">
<path d="M716.813 180.917C710.64 233.814 556.349 257.771 358.406 257.771C129.966 261.291 -1 223.679 -1 180.264C-1 136.848 111.973 107 358.406 107C606.352 107 722.324 133.688 716.813 180.917Z" fill="url(#paint4_radial_756_55)"/>
</g>
</g>
<path d="M78.9995 130.708C81.8043 140.558 75.0994 148.559 61.8639 152.328C48.6284 156.097 30.8398 150.164 28.035 140.314C25.2301 130.464 36.075 122.706 49.3105 118.937C62.5461 115.168 76.1946 120.858 78.9995 130.708Z" fill="#22294C"/>
<path d="M75.015 121L78.9123 128.5C83.2772 139.7 73.4561 148.333 68 150C74.2753 140.539 75.015 134.5 68 122L75.015 121Z" fill="#1A2040"/>
<path d="M648.41 141.629C645.605 131.779 652.31 123.778 665.545 120.009C678.781 116.24 696.569 122.173 699.374 132.023C702.179 141.873 691.334 149.631 678.099 153.4C664.863 157.169 651.215 151.479 648.41 141.629Z" fill="#22294C"/>
<path d="M658 152C643.5 146 649 131.5 649 131.5C649 131.5 649.5 129.501 659.409 122.338C653.134 131.799 652.394 137.838 659.409 150.338C659.409 150.338 659.3 152.538 658 152Z" fill="#1A2040"/>
<path fill-rule="evenodd" clip-rule="evenodd" d="M252.071 181.5C261.607 193.585 266.499 200.5 269.499 219.5C276.499 204.5 309.998 200.5 357.998 200.5L357.997 156C321.497 156 301.571 156 271.571 166C264.571 168 250.871 173.9 252.071 181.5ZM450.27 212.801C449.587 215.143 448.842 217.693 448 220.5C441 205.5 406 200.5 358 200.5V156C394.5 156 415.074 156 445.074 166C452.074 168 465.774 173.9 464.574 181.5C456.377 191.889 454.459 198.457 450.27 212.801Z" fill="url(#paint5_linear_756_55)"/>
<path d="M448.788 216.008C441.288 193.008 284.287 191.008 269.288 216.008C264.488 235.608 320.883 238.508 355.788 238.508C393.287 238.508 453.788 231.341 448.788 216.008Z" fill="url(#paint6_linear_756_55)"/>
<ellipse cx="360" cy="220" rx="73" ry="14" fill="#121732"/>
<mask id="mask3_756_55" style="mask-type:alpha" maskUnits="userSpaceOnUse" x="287" y="206" width="146" height="28">
<ellipse cx="360" cy="220" rx="73" ry="14" fill="#222A53"/>
</mask>
<g mask="url(#mask3_756_55)">
<ellipse cx="360" cy="209" rx="73" ry="14" fill="#93B1FA"/>
</g>
<path fill-rule="evenodd" clip-rule="evenodd" d="M360 19.8836C363.979 19.2585 367 16.1905 367 12.5C367 8.35786 363.194 5 358.5 5C353.806 5 350 8.35786 350 12.5C350 16.494 353.538 19.7589 358 19.9872V30H360V19.8836Z" fill="#54B1FD"/>
<mask id="path-20-inside-1_756_55" fill="white">
<path fill-rule="evenodd" clip-rule="evenodd" d="M355.515 131.554C365.462 131.192 373.413 127.788 373.273 123.95C373.134 120.111 364.957 117.293 355.01 117.654C345.064 118.015 337.113 121.42 337.252 125.258C337.392 129.096 345.568 131.915 355.515 131.554ZM242.273 128.95C242.412 132.788 234.462 136.192 224.515 136.554C214.568 136.915 206.392 134.096 206.252 130.258C206.113 126.42 214.063 123.015 224.01 122.654C233.957 122.293 242.134 125.111 242.273 128.95ZM127.194 139.497C127.307 143.638 119.119 147.22 108.906 147.5C98.6921 147.779 90.3208 144.648 90.2076 140.508C90.0945 136.367 98.2824 132.784 108.496 132.505C118.709 132.226 127.081 135.356 127.194 139.497ZM107.55 166.751C107.685 170.479 100.34 173.772 91.1427 174.107C81.9459 174.441 74.3807 171.689 74.2452 167.961C74.1098 164.232 81.4555 160.939 90.6523 160.605C99.8491 160.271 107.414 163.022 107.55 166.751ZM179.157 184.504C188.354 184.17 195.696 180.788 195.557 176.95C195.418 173.111 187.849 170.271 178.652 170.605C169.455 170.939 162.113 174.321 162.252 178.159C162.392 181.998 169.96 184.838 179.157 184.504ZM507.502 131.707C507.215 135.537 498.704 138.021 488.491 137.256C478.279 136.49 470.232 132.765 470.519 128.935C470.806 125.105 479.318 122.62 489.531 123.386C499.743 124.151 507.789 127.877 507.502 131.707ZM530.539 185.309C540.778 185.532 549.146 182.6 549.229 178.761C549.313 174.921 541.081 171.627 530.842 171.404C520.603 171.181 512.235 174.113 512.151 177.953C512.068 181.792 520.3 185.086 530.539 185.309ZM621.933 140.776C621.85 144.616 613.324 147.544 602.891 147.317C592.458 147.09 584.068 143.792 584.151 139.953C584.235 136.113 592.761 133.184 603.194 133.412C613.627 133.639 622.017 136.936 621.933 140.776ZM639.891 171.317C650.324 171.544 658.85 168.616 658.933 164.776C659.017 160.936 650.627 157.639 640.194 157.412C629.761 157.184 621.235 160.113 621.151 163.953C621.068 167.792 629.457 171.09 639.891 171.317Z"/>
</mask>
<path fill-rule="evenodd" clip-rule="evenodd" d="M355.515 131.554C365.462 131.192 373.413 127.788 373.273 123.95C373.134 120.111 364.957 117.293 355.01 117.654C345.064 118.015 337.113 121.42 337.252 125.258C337.392 129.096 345.568 131.915 355.515 131.554ZM242.273 128.95C242.412 132.788 234.462 136.192 224.515 136.554C214.568 136.915 206.392 134.096 206.252 130.258C206.113 126.42 214.063 123.015 224.01 122.654C233.957 122.293 242.134 125.111 242.273 128.95ZM127.194 139.497C127.307 143.638 119.119 147.22 108.906 147.5C98.6921 147.779 90.3208 144.648 90.2076 140.508C90.0945 136.367 98.2824 132.784 108.496 132.505C118.709 132.226 127.081 135.356 127.194 139.497ZM107.55 166.751C107.685 170.479 100.34 173.772 91.1427 174.107C81.9459 174.441 74.3807 171.689 74.2452 167.961C74.1098 164.232 81.4555 160.939 90.6523 160.605C99.8491 160.271 107.414 163.022 107.55 166.751ZM179.157 184.504C188.354 184.17 195.696 180.788 195.557 176.95C195.418 173.111 187.849 170.271 178.652 170.605C169.455 170.939 162.113 174.321 162.252 178.159C162.392 181.998 169.96 184.838 179.157 184.504ZM507.502 131.707C507.215 135.537 498.704 138.021 488.491 137.256C478.279 136.49 470.232 132.765 470.519 128.935C470.806 125.105 479.318 122.62 489.531 123.386C499.743 124.151 507.789 127.877 507.502 131.707ZM530.539 185.309C540.778 185.532 549.146 182.6 549.229 178.761C549.313 174.921 541.081 171.627 530.842 171.404C520.603 171.181 512.235 174.113 512.151 177.953C512.068 181.792 520.3 185.086 530.539 185.309ZM621.933 140.776C621.85 144.616 613.324 147.544 602.891 147.317C592.458 147.09 584.068 143.792 584.151 139.953C584.235 136.113 592.761 133.184 603.194 133.412C613.627 133.639 622.017 136.936 621.933 140.776ZM639.891 171.317C650.324 171.544 658.85 168.616 658.933 164.776C659.017 160.936 650.627 157.639 640.194 157.412C629.761 157.184 621.235 160.113 621.151 163.953C621.068 167.792 629.457 171.09 639.891 171.317Z" fill="#97AEE4"/>
<path d="M373.273 123.95L375.272 123.877L375.272 123.877L373.273 123.95ZM355.515 131.554L355.588 133.552L355.588 133.552L355.515 131.554ZM355.01 117.654L354.938 115.655L354.938 115.655L355.01 117.654ZM337.252 125.258L335.254 125.331L335.254 125.331L337.252 125.258ZM224.515 136.554L224.443 134.555L224.443 134.555L224.515 136.554ZM206.252 130.258L208.251 130.185L208.251 130.185L206.252 130.258ZM127.194 139.497L125.195 139.552L125.195 139.552L127.194 139.497ZM90.2076 140.508L92.2069 140.453L92.2069 140.453L90.2076 140.508ZM108.496 132.505L108.441 130.506L108.496 132.505ZM91.1427 174.107L91.0701 172.108L91.0701 172.108L91.1427 174.107ZM74.2452 167.961L72.2465 168.033L72.2465 168.033L74.2452 167.961ZM90.6523 160.605L90.7249 162.603L90.7249 162.603L90.6523 160.605ZM178.652 170.605L178.725 172.603L178.725 172.603L178.652 170.605ZM470.519 128.935L468.525 128.785L470.519 128.935ZM489.531 123.386L489.68 121.391L489.68 121.391L489.531 123.386ZM549.229 178.761L551.229 178.804L551.229 178.804L549.229 178.761ZM530.842 171.404L530.798 173.403L530.798 173.403L530.842 171.404ZM512.151 177.953L514.151 177.996L514.151 177.996L512.151 177.953ZM621.933 140.776L619.934 140.732L619.934 140.732L621.933 140.776ZM584.151 139.953L586.151 139.996L586.151 139.996L584.151 139.953ZM603.194 133.412L603.237 131.412L603.237 131.412L603.194 133.412ZM658.933 164.776L660.933 164.819L658.933 164.776ZM639.891 171.317L639.934 169.317L639.934 169.317L639.891 171.317ZM640.194 157.412L640.237 155.412L640.237 155.412L640.194 157.412ZM621.151 163.953L623.151 163.996L621.151 163.953ZM371.274 124.022C371.282 124.227 371.197 124.649 370.555 125.279C369.913 125.909 368.863 126.586 367.389 127.217C364.454 128.474 360.234 129.381 355.443 129.555L355.588 133.552C360.743 133.365 365.472 132.389 368.964 130.894C370.703 130.149 372.237 129.232 373.357 128.134C374.477 127.034 375.334 125.591 375.272 123.877L371.274 124.022ZM355.083 119.653C359.875 119.479 364.149 120.077 367.168 121.118C368.683 121.64 369.779 122.239 370.466 122.821C371.152 123.403 371.267 123.817 371.274 124.022L375.272 123.877C375.21 122.163 374.25 120.786 373.053 119.77C371.856 118.756 370.26 117.953 368.471 117.336C364.88 116.098 360.093 115.468 354.938 115.655L355.083 119.653ZM339.251 125.185C339.244 124.98 339.329 124.559 339.97 123.929C340.613 123.299 341.662 122.622 343.136 121.991C346.071 120.734 350.291 119.827 355.083 119.653L354.938 115.655C349.782 115.843 345.054 116.818 341.562 118.314C339.822 119.059 338.289 119.975 337.169 121.074C336.048 122.173 335.192 123.617 335.254 125.331L339.251 125.185ZM355.443 129.555C350.651 129.729 346.376 129.13 343.358 128.09C341.842 127.567 340.746 126.968 340.059 126.386C339.374 125.805 339.259 125.391 339.251 125.185L335.254 125.331C335.316 127.044 336.275 128.422 337.473 129.437C338.669 130.452 340.265 131.255 342.054 131.871C345.646 133.11 350.433 133.74 355.588 133.552L355.443 129.555ZM224.588 138.552C229.743 138.365 234.472 137.389 237.964 135.894C239.703 135.149 241.237 134.232 242.357 133.134C243.477 132.034 244.334 130.591 244.272 128.877L240.274 129.022C240.282 129.227 240.197 129.649 239.555 130.279C238.913 130.909 237.863 131.586 236.389 132.217C233.454 133.474 229.234 134.381 224.443 134.555L224.588 138.552ZM204.254 130.331C204.316 132.044 205.275 133.422 206.473 134.437C207.669 135.452 209.265 136.255 211.054 136.871C214.646 138.11 219.433 138.74 224.588 138.552L224.443 134.555C219.651 134.729 215.376 134.13 212.358 133.09C210.842 132.567 209.746 131.968 209.059 131.386C208.374 130.805 208.259 130.391 208.251 130.185L204.254 130.331ZM223.938 120.655C218.782 120.843 214.054 121.818 210.562 123.314C208.822 124.059 207.289 124.975 206.169 126.074C205.048 127.173 204.192 128.617 204.254 130.331L208.251 130.185C208.244 129.98 208.329 129.559 208.97 128.929C209.613 128.299 210.662 127.622 212.136 126.991C215.071 125.734 219.291 124.827 224.083 124.653L223.938 120.655ZM244.272 128.877C244.21 127.163 243.25 125.786 242.053 124.77C240.856 123.756 239.26 122.953 237.471 122.336C233.88 121.098 229.093 120.468 223.938 120.655L224.083 124.653C228.874 124.479 233.149 125.077 236.168 126.118C237.683 126.64 238.779 127.239 239.466 127.821C240.152 128.403 240.267 128.817 240.274 129.022L244.272 128.877ZM108.96 149.499C114.259 149.354 119.125 148.353 122.724 146.779C124.518 145.993 126.094 145.024 127.243 143.861C128.397 142.692 129.241 141.194 129.193 139.442L125.195 139.552C125.203 139.87 125.066 140.373 124.397 141.049C123.724 141.732 122.636 142.451 121.12 143.114C118.1 144.436 113.766 145.366 108.851 145.5L108.96 149.499ZM88.2084 140.562C88.2562 142.314 89.1806 143.764 90.3967 144.867C91.6073 145.966 93.234 146.848 95.0685 147.534C98.7479 148.91 103.661 149.644 108.96 149.499L108.851 145.5C103.936 145.635 99.5574 144.942 96.4695 143.788C94.9203 143.208 93.7946 142.549 93.0846 141.905C92.38 141.266 92.2156 140.771 92.2069 140.453L88.2084 140.562ZM108.441 130.506C103.142 130.651 98.2764 131.651 94.6775 133.226C92.8832 134.011 91.3072 134.981 90.1583 136.144C89.0044 137.312 88.1605 138.81 88.2084 140.562L92.2069 140.453C92.1982 140.135 92.3354 139.632 93.004 138.955C93.6778 138.273 94.7658 137.554 96.281 136.891C99.3013 135.569 103.636 134.639 108.551 134.504L108.441 130.506ZM129.193 139.442C129.145 137.691 128.221 136.241 127.005 135.137C125.794 134.039 124.167 133.156 122.333 132.47C118.654 131.095 113.74 130.361 108.441 130.506L108.551 134.504C113.465 134.37 117.844 135.062 120.932 136.217C122.481 136.796 123.607 137.455 124.317 138.1C125.021 138.739 125.186 139.233 125.195 139.552L129.193 139.442ZM91.2153 176.105C96.0057 175.931 100.407 174.987 103.664 173.526C105.288 172.799 106.723 171.9 107.772 170.819C108.826 169.733 109.608 168.327 109.548 166.678L105.551 166.823C105.559 167.039 105.474 167.443 104.901 168.033C104.323 168.629 103.373 169.273 102.028 169.877C99.3467 171.078 95.4765 171.948 91.0701 172.108L91.2153 176.105ZM72.2465 168.033C72.3064 169.682 73.1889 171.027 74.3187 172.034C75.4431 173.036 76.9403 173.828 78.6123 174.437C81.9669 175.657 86.4249 176.279 91.2153 176.105L91.0701 172.108C86.6637 172.268 82.7407 171.682 79.9796 170.677C78.5938 170.173 77.5995 169.6 76.9799 169.048C76.3657 168.5 76.2517 168.103 76.2439 167.888L72.2465 168.033ZM90.5797 158.606C85.7893 158.78 81.3882 159.724 78.131 161.185C76.5074 161.913 75.0717 162.812 74.023 163.893C72.9692 164.979 72.1867 166.384 72.2465 168.033L76.2439 167.888C76.2361 167.672 76.321 167.268 76.8938 166.678C77.4717 166.082 78.4218 165.438 79.7674 164.835C82.4483 163.633 86.3185 162.763 90.7249 162.603L90.5797 158.606ZM109.548 166.678C109.489 165.029 108.606 163.684 107.476 162.677C106.352 161.675 104.855 160.883 103.183 160.275C99.828 159.055 95.3701 158.432 90.5797 158.606L90.7249 162.603C95.1313 162.443 99.0543 163.03 101.815 164.034C103.201 164.538 104.195 165.111 104.815 165.664C105.429 166.211 105.543 166.608 105.551 166.823L109.548 166.678ZM193.558 177.022C193.568 177.287 193.464 177.723 192.891 178.331C192.312 178.945 191.363 179.607 190.021 180.224C187.347 181.456 183.485 182.346 179.085 182.506L179.23 186.503C184.026 186.329 188.434 185.36 191.695 183.858C193.321 183.108 194.757 182.183 195.802 181.074C196.855 179.957 197.616 178.532 197.556 176.877L193.558 177.022ZM178.725 172.603C183.125 172.444 187.042 173.05 189.798 174.085C191.181 174.604 192.176 175.195 192.798 175.766C193.413 176.33 193.549 176.758 193.558 177.022L197.556 176.877C197.496 175.222 196.633 173.856 195.502 172.818C194.379 171.788 192.88 170.969 191.204 170.34C187.842 169.078 183.376 168.432 178.58 168.606L178.725 172.603ZM164.251 178.087C164.242 177.822 164.346 177.386 164.918 176.778C165.498 176.164 166.447 175.502 167.788 174.885C170.462 173.653 174.325 172.763 178.725 172.603L178.58 168.606C173.783 168.78 169.376 169.749 166.114 171.251C164.488 172.001 163.053 172.926 162.007 174.035C160.955 175.152 160.194 176.577 160.254 178.232L164.251 178.087ZM179.085 182.506C174.684 182.665 170.768 182.059 168.011 181.024C166.628 180.505 165.634 179.914 165.011 179.343C164.396 178.779 164.261 178.351 164.251 178.087L160.254 178.232C160.314 179.887 161.177 181.253 162.307 182.291C163.43 183.321 164.929 184.14 166.606 184.769C169.967 186.031 174.433 186.677 179.23 186.503L179.085 182.506ZM488.342 139.25C493.624 139.646 498.555 139.211 502.279 138.124C504.134 137.583 505.796 136.849 507.058 135.888C508.318 134.93 509.367 133.589 509.497 131.856L505.508 131.557C505.494 131.739 505.372 132.145 504.636 132.706C503.902 133.264 502.744 133.822 501.158 134.284C498.002 135.206 493.571 135.631 488.641 135.261L488.342 139.25ZM468.525 128.785C468.395 130.518 469.233 132.001 470.335 133.136C471.44 134.274 472.974 135.248 474.728 136.059C478.248 137.69 483.059 138.854 488.342 139.25L488.641 135.261C483.71 134.892 479.392 133.811 476.408 132.43C474.909 131.736 473.848 131.012 473.205 130.35C472.561 129.686 472.5 129.267 472.514 129.084L468.525 128.785ZM489.68 121.391C484.398 120.995 479.467 121.43 475.742 122.517C473.888 123.058 472.225 123.792 470.963 124.753C469.704 125.712 468.655 127.053 468.525 128.785L472.514 129.084C472.527 128.902 472.65 128.496 473.386 127.936C474.12 127.377 475.278 126.82 476.863 126.357C480.019 125.436 484.451 125.011 489.381 125.38L489.68 121.391ZM509.497 131.856C509.627 130.123 508.789 128.641 507.687 127.505C506.582 126.367 505.047 125.394 503.294 124.582C499.773 122.952 494.962 121.787 489.68 121.391L489.381 125.38C494.312 125.75 498.63 126.83 501.614 128.212C503.113 128.906 504.174 129.63 504.817 130.291C505.461 130.955 505.522 131.375 505.508 131.557L509.497 131.856ZM547.23 178.717C547.226 178.9 547.125 179.311 546.419 179.91C545.716 180.507 544.59 181.125 543.031 181.671C539.928 182.758 535.525 183.417 530.582 183.31L530.495 187.309C535.791 187.424 540.692 186.729 544.353 185.446C546.177 184.807 547.798 183.986 549.007 182.96C550.214 181.936 551.191 180.541 551.229 178.804L547.23 178.717ZM530.798 173.403C535.741 173.511 540.111 174.361 543.163 175.583C544.697 176.196 545.796 176.863 546.472 177.49C547.151 178.119 547.234 178.534 547.23 178.717L551.229 178.804C551.267 177.067 550.352 175.631 549.19 174.555C548.027 173.478 546.443 172.587 544.649 171.869C541.047 170.428 536.181 169.52 530.885 169.404L530.798 173.403ZM514.151 177.996C514.155 177.813 514.255 177.402 514.961 176.803C515.664 176.206 516.791 175.588 518.35 175.042C521.453 173.955 525.855 173.296 530.798 173.403L530.885 169.404C525.59 169.289 520.689 169.984 517.027 171.267C515.204 171.906 513.582 172.727 512.373 173.753C511.166 174.777 510.19 176.172 510.152 177.909L514.151 177.996ZM530.582 183.31C525.639 183.202 521.27 182.352 518.217 181.13C516.683 180.517 515.585 179.85 514.908 179.223C514.229 178.595 514.147 178.179 514.151 177.996L510.152 177.909C510.114 179.646 511.029 181.082 512.19 182.158C513.353 183.236 514.937 184.126 516.731 184.844C520.333 186.285 525.199 187.193 530.495 187.309L530.582 183.31ZM602.847 149.316C608.237 149.434 613.221 148.742 616.943 147.463C618.796 146.827 620.442 146.009 621.669 144.987C622.892 143.969 623.895 142.572 623.933 140.819L619.934 140.732C619.93 140.9 619.835 141.309 619.11 141.913C618.39 142.513 617.237 143.133 615.643 143.68C612.473 144.769 607.978 145.427 602.934 145.317L602.847 149.316ZM582.152 139.909C582.114 141.661 583.054 143.101 584.231 144.171C585.413 145.246 587.022 146.134 588.846 146.851C592.508 148.29 597.458 149.199 602.847 149.316L602.934 145.317C597.89 145.208 593.429 144.354 590.309 143.128C588.741 142.512 587.616 141.842 586.922 141.211C586.224 140.577 586.147 140.164 586.151 139.996L582.152 139.909ZM603.237 131.412C597.848 131.295 592.863 131.987 589.142 133.265C587.289 133.902 585.643 134.72 584.415 135.742C583.192 136.76 582.19 138.157 582.152 139.909L586.151 139.996C586.154 139.828 586.249 139.42 586.974 138.816C587.695 138.216 588.848 137.596 590.441 137.048C593.612 135.959 598.106 135.301 603.15 135.411L603.237 131.412ZM623.933 140.819C623.971 139.067 623.03 137.628 621.853 136.557C620.671 135.483 619.062 134.594 617.239 133.878C613.576 132.438 608.627 131.529 603.237 131.412L603.15 135.411C608.194 135.521 612.656 136.374 615.776 137.6C617.344 138.217 618.469 138.886 619.162 139.517C619.861 140.152 619.937 140.565 619.934 140.732L623.933 140.819ZM656.934 164.732C656.93 164.9 656.835 165.309 656.11 165.913C655.39 166.513 654.237 167.133 652.643 167.68C649.473 168.769 644.978 169.427 639.934 169.317L639.847 173.316C645.236 173.434 650.221 172.742 653.943 171.463C655.796 170.827 657.442 170.009 658.669 168.987C659.892 167.969 660.895 166.572 660.933 164.819L656.934 164.732ZM640.15 159.411C645.194 159.521 649.656 160.374 652.776 161.6C654.344 162.217 655.469 162.886 656.162 163.517C656.861 164.152 656.937 164.565 656.934 164.732L660.933 164.819C660.971 163.067 660.03 161.628 658.853 160.557C657.671 159.483 656.062 158.594 654.239 157.878C650.576 156.438 645.627 155.529 640.237 155.412L640.15 159.411ZM623.151 163.996C623.154 163.828 623.249 163.42 623.974 162.816C624.695 162.216 625.848 161.596 627.441 161.048C630.612 159.959 635.106 159.301 640.15 159.411L640.237 155.412C634.848 155.295 629.863 155.987 626.142 157.265C624.289 157.902 622.643 158.72 621.415 159.742C620.192 160.76 619.19 162.157 619.152 163.909L623.151 163.996ZM639.934 169.317C634.89 169.208 630.429 168.354 627.309 167.128C625.741 166.512 624.616 165.842 623.922 165.211C623.224 164.577 623.147 164.164 623.151 163.996L619.152 163.909C619.114 165.661 620.054 167.101 621.231 168.171C622.413 169.246 624.022 170.134 625.846 170.851C629.508 172.29 634.458 173.199 639.847 173.316L639.934 169.317Z" fill="#291B7B" mask="url(#path-20-inside-1_756_55)"/>
</g>
<defs>
<linearGradient id="paint0_linear_756_55" x1="283.5" y1="37.5" x2="418" y2="92" gradientUnits="userSpaceOnUse">
<stop stop-color="#2291E1"/>
<stop offset="0.29" stop-color="#1689DC"/>
<stop offset="0.69" stop-color="#0C82D8"/>
<stop offset="1" stop-color="#0754C8"/>
</linearGradient>
<linearGradient id="paint1_linear_756_55" x1="283.5" y1="37.5" x2="418" y2="92" gradientUnits="userSpaceOnUse">
<stop stop-color="#0777C8"/>
<stop offset="0.29" stop-color="#7487E8"/>
<stop offset="0.69" stop-color="#6587EB"/>
<stop offset="1" stop-color="#527FE8"/>
</linearGradient>
<linearGradient id="paint2_linear_756_55" x1="5.5" y1="148" x2="717" y2="148" gradientUnits="userSpaceOnUse">
<stop offset="0.115" stop-color="#22294B"/>
<stop offset="0.475" stop-color="#191F3F"/>
<stop offset="1" stop-color="#22294C"/>
</linearGradient>
<linearGradient id="paint3_linear_756_55" x1="10.5" y1="136" x2="723.5" y2="75.9999" gradientUnits="userSpaceOnUse">
<stop offset="0.075" stop-color="#36417A"/>
<stop offset="0.565" stop-color="#5845BE"/>
<stop offset="1" stop-color="#523DBA"/>
</linearGradient>
<radialGradient id="paint4_radial_756_55" cx="0" cy="0" r="1" gradientUnits="userSpaceOnUse" gradientTransform="translate(344 165) rotate(88.4198) scale(72.5276 344.866)">
<stop offset="0.3" stop-color="#435195"/>
<stop offset="0.635" stop-color="#2D345F"/>
</radialGradient>
<linearGradient id="paint5_linear_756_55" x1="358.323" y1="156" x2="357.967" y2="211.061" gradientUnits="userSpaceOnUse">
<stop offset="0.19" stop-color="#293570"/>
<stop offset="0.595" stop-color="#212953"/>
</linearGradient>
<linearGradient id="paint6_linear_756_55" x1="359.039" y1="198" x2="359.039" y2="238.508" gradientUnits="userSpaceOnUse">
<stop stop-color="#343E73"/>
<stop offset="1" stop-color="#273165"/>
</linearGradient>
<clipPath id="clip0_756_55">
<rect width="717" height="625" fill="white"/>
</clipPath>
</defs>
</svg>
