<?xml version="1.0" encoding="utf-8"?>
<!-- Generator: Adobe Illustrator 16.2.0, SVG Export Plug-In . SVG Version: 6.00 Build 0)  -->
<!DOCTYPE svg PUBLIC "-//W3C//DTD SVG 1.1//EN" "http://www.w3.org/Graphics/SVG/1.1/DTD/svg11.dtd">
<svg version="1.1" id="Слой_1" xmlns="http://www.w3.org/2000/svg" xmlns:xlink="http://www.w3.org/1999/xlink" x="0px" y="0px"
	 width="494px" height="176px" viewBox="-438.317 -190 494 176" enable-background="new -438.317 -190 494 176"
	 xml:space="preserve">
<g>
	<g>
		<path fill="#EC1C24" d="M-397.673-38.787c12.381-1.734,22.689-4.852,30.915-9.336c10.618-5.81,19.415-14.567,26.378-26.265
			c4.427-7.433,6.18-13.249,5.25-17.444c-0.787-3.539-3.47-5.619-8.06-6.226c6.142-3.013,11.507-6.48,16.111-10.365
			c5.859-4.979,10.651-10.602,14.377-16.849c6.374-10.706,6.472-17.658,0.313-20.87c-4.372-2.376-12.046-2.785-23.01-1.248
			l-20.618,24.837l14.254-23.945l-30.668,4.313l-28.51,35.42l8.101-1.142l-44.477,74.69L-397.673-38.787z M-360.557-114.938
			l3.991-0.563c3.24-0.444,5.295-0.444,6.163,0.017c1.706,0.592,1.801,2.155,0.289,4.688c-1.674,2.812-3.787,4.728-6.331,5.75
			c-2.556,1.032-5.455,1.771-8.695,2.221l-2.869,0.403L-360.557-114.938z M-382.101-78.752l2.616-0.365
			c0.416-0.057,0.853-0.114,1.308-0.178c0.462-0.069,1.009-0.189,1.644-0.359c3.401-0.479,5.82-0.444,7.245,0.105
			c1.48,0.451,1.494,1.912,0.032,4.356c-1.725,2.906-3.885,4.832-6.462,5.764c-2.581,0.95-5.282,1.628-8.112,2.015l-2.735,0.396
			c-0.423,0.058-0.854,0.12-1.312,0.176c-0.455,0.07-0.91,0.092-1.354,0.07L-382.101-78.752z"/>
	</g>
	<g>
		<polygon fill="#EC1C24" points="-306.962,-120.72 -351.595,-45.752 -292.014,-54.129 -265.531,-86.911 -302.309,-81.741 
			-297.444,-89.899 -269.148,-93.877 -247.375,-121.615 -281.406,-116.83 -276.548,-124.992 -248.245,-128.973 -217.574,-167.438 
			-246.37,-163.391 -248.15,-160.41 -286.55,-155.004 -314.813,-119.612 		"/>
	</g>
	<g>
		<polygon fill="#EC1C24" points="-216.545,-133.675 -261.021,-58.995 -230.234,-63.318 -185.756,-138 -163.447,-141.139 
			-132.486,-179.521 -160.775,-175.543 -164.716,-172.368 -212.843,-165.61 -241.103,-130.227 		"/>
	</g>
	<g>
		<polygon fill="#EC1C24" points="-102.64,-188.69 -116.163,-186.79 -124.251,-173.21 -113.696,-174.689 		"/>
	</g>
	<g>
		<polygon fill="#EC1C24" points="-148.111,-133.675 -135.519,-135.674 -123.983,-150.199 -127.41,-149.831 -114.394,-171.666 
			-126.5,-169.969 -138.015,-155.387 -134.926,-155.829 		"/>
	</g>
	<g>
		<path fill="#EC1C24" d="M-115.832-158.85l-13.333,22.395l12.396-1.856l13.89-23.339c2.151-1.181,3.666-1.832,4.541-1.953
			c2.017-0.288,1.566,2.053-1.396,7.018l-10.393,17.458l12.093-1.701l10.893-13.53l-3.095,0.43l3.956-6.645
			c4.131-6.941,5.725-11.521,4.787-13.763c-0.832-1.946-3.991-2.563-9.469-1.83l-8.482,8.42l4.209-7.068l-12.17,1.814
			l-11.803,14.626L-115.832-158.85z"/>
	</g>
	<g>
		<polygon fill="#EC1C24" points="-69.705,-38.504 -42.644,-42.321 5.304,-122.855 10.916,-123.635 -37.291,-43.061 
			-11.394,-44.703 -6.803,-52.626 57.169,-160.068 31.363,-156.436 9.386,-129.692 24.764,-155.504 -1.042,-151.873 
			-28.851,-118.053 -21.491,-119.09 		"/>
	</g>
	<g>
		<path fill="#EC1C24" d="M-188.373-21.588l29.882-4.196l25.898-31.772c-3.088,8.124-2.693,14.581,1.255,19.354
			c4.985,5.705,13.622,7.686,25.918,5.958c6.487-0.908,12.82-2.715,18.996-5.414l23.557-28.612
			c-1.171,0.415-2.715,0.902-4.646,1.458c-1.932,0.566-3.977,1.129-6.142,1.679c-2.158,0.549-4.294,1.058-6.388,1.517
			c-2.108,0.473-3.906,0.796-5.395,1.016c-4.074,0.57-7.551,0.642-10.414,0.203c-2.863-0.423-4.35-1.833-4.442-4.23l44.626-6.268
			l4.223-6.705c3.977-6.291,6.41-11.875,7.333-16.732c0.924-4.877,0.536-9.01-1.163-12.439c-2.891-6.4-9.441-8.89-19.666-7.451
			c-11.133,1.562-22.978,7.26-35.522,17.084c-11.874,9.322-21.054,19.412-27.527,30.298c-1.777,2.948-3.152,5.712-4.224,8.327
			l-7.411,1.036l46.184-77.545l-30.418,4.274l-22.042,37.002l-21.441,3.018l22.042-37.005l-30.418,4.275l-28.437,35.654l7.855-1.105
			l-44.474,74.69l31.408-3.738l22.098-39.309l21.442-3.01C-165.823-60.278-187.501-21.372-188.373-21.588z M-77.08-91.324
			c2.982-0.425,4.999-0.12,6.028,0.896c1.03,1.023,1.05,2.885,0.029,5.605l-21.943,3.082C-87.776-87.375-82.495-90.57-77.08-91.324z
			"/>
	</g>
</g>
</svg>
