<svg width="70" height="60" viewBox="0 0 70 60" fill="none" xmlns="http://www.w3.org/2000/svg">
<g clip-path="url(#clip0_1239_15341)">
<path d="M4.0086 17.0391C4.51754 8.31448 11.7411 1.5 20.4806 1.5H47.3447C55.7695 1.5 62.8413 7.84704 63.7487 16.2229L66.3487 40.2229C67.4059 49.9819 59.7608 58.5 49.9447 58.5H19.0806C9.59014 58.5 2.05593 50.5135 2.6086 41.0391L4.0086 17.0391Z" fill="url(#paint0_linear_1239_15341)" stroke="#61FF67" stroke-width="3"/>
<g clip-path="url(#clip1_1239_15341)">
<mask id="mask0_1239_15341" style="mask-type:luminance" maskUnits="userSpaceOnUse" x="10" y="-17" width="50" height="115">
<path d="M59.3809 80.3438L59.3809 0.65625C59.3809 -8.73259 48.4651 -16.3437 34.9999 -16.3437C21.5347 -16.3437 10.619 -8.73259 10.619 0.656251L10.619 80.3438C10.619 89.7326 21.5347 97.3438 34.9999 97.3438C48.4651 97.3438 59.3809 89.7326 59.3809 80.3438Z" fill="white"/>
</mask>
<g mask="url(#mask0_1239_15341)">
<mask id="mask1_1239_15341" style="mask-type:luminance" maskUnits="userSpaceOnUse" x="-2" y="-17" width="47" height="34">
<path d="M44.9044 -4.82035L14.8647 -16.3438L-1.6618 4.6019L28.3779 16.1253L44.9044 -4.82035Z" fill="white"/>
</mask>
<g mask="url(#mask1_1239_15341)">
<g opacity="0.3">
<path d="M38.3772 -1.67832C38.0521 -1.90315 37.4427 -2.25239 36.5131 -2.74954C35.2692 -3.41248 34.7959 -3.5878 34.5485 -3.66345C34.5367 -3.66679 34.525 -3.67035 34.5134 -3.67402C34.2283 -3.7545 33.6904 -3.85401 32.026 -3.89475C30.8058 -3.92386 28.8803 -3.80779 26.1412 -3.54073C24.9884 -3.42815 23.8397 -3.2955 22.6964 -3.14303C21.4231 -4.7941 20.0507 -6.40709 18.5831 -7.97778C18.5651 -7.99542 18.5466 -8.01279 18.5275 -8.0299C18.2704 -8.23682 15.9844 -10.0609 14.7033 -10.4484C13.9908 -10.6634 13.5027 -10.4734 13.2839 -10.2233C12.3498 -9.16183 12.0592 -8.51004 12.3059 -8.04674C12.4109 -7.84136 12.7258 -7.38841 14.2028 -5.91324C15.377 -4.74943 16.4735 -3.54843 17.4889 -2.31412C14.9235 -1.83765 12.3877 -1.28695 9.88805 -0.663423C9.85887 -0.655348 9.83053 -0.647433 9.80211 -0.637658C7.81681 0.0806984 5.41696 1.09103 5.25293 1.82989C5.20584 2.04526 5.3036 2.25553 5.52218 2.40725C6.326 2.96491 6.96996 3.31394 7.49285 3.47268C7.79815 3.56426 8.07289 3.59747 8.33316 3.57558C8.6466 3.55093 9.35297 3.44218 11.7475 2.78598C14.3137 2.07235 17.0611 1.45435 19.9265 0.948442C20.3301 1.53739 20.6649 2.04654 20.9624 2.53029C22.8068 5.51953 23.9931 8.06629 24.4828 10.0998C24.601 10.663 24.6636 10.8382 24.7063 10.9268C24.8296 11.1878 25.0548 11.3275 25.2237 11.3986C25.2663 11.4163 25.3076 11.4313 25.3492 11.4433C25.7047 11.5509 26.2502 11.5262 26.6186 11.103C26.8516 10.8357 27.1997 10.3412 27.6765 9.59523C28.3296 8.5723 28.4602 8.20898 28.5024 8.02347C28.5503 7.8123 28.5623 7.42369 28.2315 6.28564C27.9872 5.45456 27.3628 4.1394 26.3726 2.37538C25.9539 1.632 25.5082 0.896167 25.036 0.168567L25.0998 0.161236C29.7003 -0.395196 33.5287 -0.607271 36.4743 -0.467765C37.2861 -0.41719 37.5425 -0.418465 37.674 -0.425796C37.9945 -0.446249 38.2592 -0.529018 38.457 -0.666824C38.7962 -0.902487 38.9053 -1.30926 38.3772 -1.67832Z" fill="black"/>
</g>
</g>
<mask id="mask2_1239_15341" style="mask-type:luminance" maskUnits="userSpaceOnUse" x="43" y="12" width="26" height="19">
<path d="M43.0408 18.6498L59.4797 12.3438L68.5237 23.806L52.0848 30.1121L43.0408 18.6498Z" fill="white"/>
</mask>
<g mask="url(#mask2_1239_15341)">
<g opacity="0.2">
<path d="M46.6129 20.3693C46.7908 20.2462 47.1243 20.0551 47.6329 19.7831C48.3137 19.4203 48.5726 19.3244 48.708 19.283C48.7145 19.2811 48.7209 19.2792 48.7273 19.2772C48.8833 19.2331 49.1777 19.1787 50.0885 19.1564C50.7562 19.1404 51.81 19.204 53.3089 19.3501C53.9398 19.4117 54.5683 19.4843 55.194 19.5678C55.8908 18.6642 56.6418 17.7815 57.445 16.922C57.4548 16.9123 57.465 16.9028 57.4754 16.8935C57.6161 16.7803 58.8671 15.782 59.5682 15.57C59.958 15.4523 60.2252 15.5563 60.3449 15.6932C60.8561 16.274 61.0151 16.6307 60.8801 16.8843C60.8226 16.9966 60.6503 17.2445 59.8421 18.0518C59.1995 18.6887 58.5994 19.3459 58.0438 20.0214C59.4476 20.2821 60.8353 20.5835 62.2033 20.9247C62.2192 20.9291 62.2347 20.9334 62.2503 20.9388C63.3367 21.3319 64.65 21.8848 64.7398 22.2892C64.7655 22.407 64.712 22.5221 64.5924 22.6051C64.1525 22.9102 63.8001 23.1013 63.514 23.1881C63.3469 23.2382 63.1966 23.2564 63.0541 23.2444C62.8826 23.231 62.4961 23.1714 61.1857 22.8123C59.7814 22.4218 58.2779 22.0836 56.7098 21.8068C56.4889 22.1291 56.3057 22.4077 56.1429 22.6724C55.1336 24.3082 54.4844 25.7019 54.2164 26.8148C54.1518 27.1229 54.1175 27.2188 54.0941 27.2673C54.0267 27.4101 53.9034 27.4866 53.811 27.5255C53.7877 27.5352 53.765 27.5434 53.7423 27.55C53.5477 27.6088 53.2493 27.5953 53.0476 27.3637C52.9201 27.2175 52.7297 26.9468 52.4687 26.5386C52.1113 25.9788 52.0398 25.78 52.0167 25.6785C51.9905 25.5629 51.984 25.3503 52.165 24.7275C52.2987 24.2727 52.6404 23.5529 53.1823 22.5876C53.4114 22.1808 53.6553 21.7781 53.9137 21.38L53.8788 21.376C51.3612 21.0715 49.2662 20.9554 47.6542 21.0317C47.2099 21.0594 47.0696 21.0587 46.9977 21.0547C46.8223 21.0435 46.6774 20.9982 46.5691 20.9228C46.3835 20.7938 46.3239 20.5713 46.6129 20.3693Z" fill="black"/>
</g>
</g>
<mask id="mask3_1239_15341" style="mask-type:luminance" maskUnits="userSpaceOnUse" x="-1" y="34" width="34" height="24">
<path d="M32.7142 42.887L11.2581 34.6562L-0.546194 49.6169L20.91 57.8476L32.7142 42.887Z" fill="white"/>
</mask>
<g mask="url(#mask3_1239_15341)">
<g opacity="0.4">
<path d="M28.0518 45.131C27.8196 44.9705 27.3844 44.7214 26.7205 44.366C25.8319 43.8926 25.494 43.7672 25.3172 43.7136C25.3087 43.7109 25.3004 43.7083 25.2921 43.7056C25.0885 43.6482 24.7043 43.577 23.5155 43.5484C22.6439 43.5271 21.2686 43.61 19.3122 43.8007C18.4888 43.8814 17.6684 43.976 16.8517 44.0849C15.9422 42.9055 14.962 41.7538 13.9137 40.6318C13.9008 40.619 13.8876 40.6068 13.874 40.5946C13.6904 40.4469 12.0575 39.1438 11.1425 38.867C10.6336 38.7135 10.285 38.8494 10.1287 39.0279C9.46151 39.786 9.25389 40.2514 9.43012 40.5824C9.50516 40.729 9.73008 41.0525 10.785 42.1065C11.6237 42.9374 12.4069 43.7954 13.1321 44.6773C11.2998 45.0173 9.48856 45.4109 7.70319 45.8561C7.68231 45.862 7.66212 45.8673 7.64178 45.8747C6.22379 46.3879 4.50967 47.1093 4.39248 47.6369C4.35888 47.7909 4.42867 47.9413 4.58479 48.0496C5.15896 48.4475 5.61892 48.6972 5.99241 48.8104C6.21047 48.8757 6.40665 48.8996 6.59256 48.8837C6.81648 48.8662 7.32101 48.7886 9.03134 48.32C10.8642 47.81 12.8266 47.3686 14.8732 47.0073C15.1615 47.4281 15.4007 47.792 15.6132 48.1373C16.9305 50.2724 17.7779 52.0914 18.1276 53.5438C18.2121 53.946 18.2568 54.0714 18.2873 54.1346C18.3753 54.321 18.5362 54.4209 18.6569 54.4714C18.6873 54.4841 18.7168 54.4948 18.7465 54.5033C19.0004 54.5803 19.39 54.5628 19.6531 54.2605C19.8195 54.0698 20.0682 53.7165 20.4087 53.1836C20.8753 52.4526 20.9686 52.1934 20.9987 52.0611C21.0329 51.9102 21.0414 51.6324 20.8052 50.8196C20.6307 50.2262 20.1847 49.2864 19.4774 48.0268C19.1784 47.4955 18.8601 46.9701 18.5228 46.4506L18.5683 46.4453C21.8543 46.0479 24.5887 45.8965 26.6927 45.9958C27.2726 46.032 27.4557 46.0309 27.5496 46.0256C27.7785 46.0112 27.9676 45.9523 28.1089 45.8535C28.3512 45.6856 28.4291 45.395 28.0518 45.131Z" fill="black"/>
</g>
</g>
</g>
</g>
<g filter="url(#filter0_d_1239_15341)">
<path d="M5.591 41C5.399 41 5.22833 40.936 5.079 40.808C4.951 40.6587 4.887 40.488 4.887 40.296C4.887 40.232 4.89767 40.1573 4.919 40.072C4.94033 39.9653 4.983 39.8693 5.047 39.784L10.391 32.456L5.527 25.576C5.463 25.4907 5.40967 25.4053 5.367 25.32C5.34567 25.2347 5.335 25.1493 5.335 25.064C5.335 24.872 5.40967 24.712 5.559 24.584C5.70833 24.4347 5.879 24.36 6.071 24.36H9.975C10.2523 24.36 10.455 24.424 10.583 24.552C10.7323 24.68 10.839 24.7973 10.903 24.904L13.879 29.032L16.823 24.936C16.9083 24.8293 17.015 24.712 17.143 24.584C17.2923 24.4347 17.5057 24.36 17.783 24.36L21.527 24.36C21.719 24.36 21.879 24.4347 22.007 24.584C22.1563 24.712 22.231 24.872 22.231 25.064C22.231 25.1493 22.2203 25.2347 22.199 25.32C22.1777 25.4053 22.135 25.4907 22.071 25.576L17.079 32.456L22.487 39.784C22.5723 39.8693 22.6257 39.9547 22.647 40.04C22.6683 40.1253 22.679 40.2107 22.679 40.296C22.679 40.488 22.6043 40.6587 22.455 40.808C22.327 40.936 22.1563 41 21.943 41H17.879C17.623 41 17.431 40.9467 17.303 40.84C17.175 40.712 17.0683 40.5947 16.983 40.488L13.751 36.104L10.487 40.488C10.4017 40.5733 10.295 40.68 10.167 40.808C10.039 40.936 9.83633 41 9.559 41H5.591ZM33.4275 41.352C31.4222 41.352 29.7475 41.0427 28.4035 40.424C27.0595 39.784 26.0355 38.9627 25.3315 37.96C24.6488 36.936 24.2862 35.8373 24.2435 34.664C24.2435 34.472 24.3075 34.312 24.4355 34.184C24.5635 34.056 24.7235 33.992 24.9155 33.992H29.2035C29.4808 33.992 29.6942 34.056 29.8435 34.184C30.0142 34.2907 30.1422 34.4293 30.2275 34.6C30.4195 35.0907 30.6648 35.496 30.9635 35.816C31.2835 36.136 31.6462 36.3707 32.0515 36.52C32.4782 36.6693 32.9475 36.744 33.4595 36.744C34.0568 36.744 34.6115 36.616 35.1235 36.36C35.6355 36.104 36.0408 35.7307 36.3395 35.24C36.6595 34.728 36.8195 34.12 36.8195 33.416C36.8195 32.776 36.6702 32.2213 36.3715 31.752C36.0942 31.2827 35.6995 30.9093 35.1875 30.632C34.6755 30.3547 34.0995 30.216 33.4595 30.216C32.9475 30.216 32.5315 30.28 32.2115 30.408C31.8915 30.5147 31.6248 30.6533 31.4115 30.824C31.1982 30.9947 31.0062 31.144 30.8355 31.272C30.6648 31.3787 30.4728 31.432 30.2595 31.432H26.0675C25.8755 31.432 25.7048 31.368 25.5555 31.24C25.4275 31.0907 25.3635 30.92 25.3635 30.728L26.5155 19.56C26.5582 19.24 26.6755 19.0053 26.8675 18.856C27.0595 18.6853 27.2942 18.6 27.5715 18.6H40.4035C40.6382 18.6 40.8302 18.6747 40.9795 18.824C41.1288 18.9733 41.2035 19.1653 41.2035 19.4V22.408C41.2035 22.6427 41.1288 22.8347 40.9795 22.984C40.8302 23.1333 40.6382 23.208 40.4035 23.208H31.1235L30.7075 27.368C31.1768 27.048 31.7208 26.792 32.3395 26.6C32.9795 26.3867 33.8435 26.28 34.9315 26.28C35.9555 26.28 36.9262 26.4507 37.8435 26.792C38.7822 27.1333 39.6142 27.624 40.3395 28.264C41.0862 28.904 41.6622 29.672 42.0675 30.568C42.4942 31.4427 42.7075 32.4347 42.7075 33.544C42.7075 35.0587 42.3342 36.4027 41.5875 37.576C40.8622 38.7493 39.8062 39.6773 38.4195 40.36C37.0328 41.0213 35.3688 41.352 33.4275 41.352ZM54.723 41.32C53.187 41.32 51.8537 41.1067 50.723 40.68C49.5923 40.232 48.6537 39.624 47.907 38.856C47.1817 38.088 46.627 37.192 46.243 36.168C45.859 35.144 45.635 34.0453 45.571 32.872C45.5497 32.296 45.5283 31.6453 45.507 30.92C45.507 30.1733 45.507 29.4267 45.507 28.68C45.5283 27.912 45.5497 27.2293 45.571 26.632C45.635 25.4587 45.859 24.3707 46.243 23.368C46.6483 22.344 47.2243 21.4587 47.971 20.712C48.739 19.944 49.6777 19.3467 50.787 18.92C51.9177 18.4933 53.2297 18.28 54.723 18.28C56.2377 18.28 57.5497 18.4933 58.659 18.92C59.7683 19.3467 60.6963 19.944 61.443 20.712C62.211 21.4587 62.7977 22.344 63.203 23.368C63.6083 24.3707 63.8323 25.4587 63.875 26.632C63.9177 27.2293 63.939 27.912 63.939 28.68C63.9603 29.4267 63.9603 30.1733 63.939 30.92C63.939 31.6453 63.9177 32.296 63.875 32.872C63.8323 34.0453 63.6083 35.144 63.203 36.168C62.819 37.192 62.2537 38.088 61.507 38.856C60.7817 39.624 59.8537 40.232 58.723 40.68C57.6137 41.1067 56.2803 41.32 54.723 41.32ZM54.723 36.68C55.8323 36.68 56.6323 36.328 57.123 35.624C57.635 34.8987 57.9017 33.928 57.923 32.712C57.9657 32.0933 57.987 31.4427 57.987 30.76C58.0083 30.0773 58.0083 29.3947 57.987 28.712C57.987 28.0293 57.9657 27.4 57.923 26.824C57.9017 25.6507 57.635 24.7013 57.123 23.976C56.6323 23.2507 55.8323 22.8773 54.723 22.856C53.6137 22.8773 52.8137 23.2507 52.323 23.976C51.8323 24.7013 51.5657 25.6507 51.523 26.824C51.5017 27.4 51.4803 28.0293 51.459 28.712C51.459 29.3947 51.459 30.0773 51.459 30.76C51.4803 31.4427 51.5017 32.0933 51.523 32.712C51.5657 33.928 51.843 34.8987 52.355 35.624C52.867 36.328 53.6563 36.68 54.723 36.68Z" fill="white"/>
</g>
</g>
<defs>
<filter id="filter0_d_1239_15341" x="4.88696" y="18.28" width="59.084" height="28.072" filterUnits="userSpaceOnUse" color-interpolation-filters="sRGB">
<feFlood flood-opacity="0" result="BackgroundImageFix"/>
<feColorMatrix in="SourceAlpha" type="matrix" values="0 0 0 0 0 0 0 0 0 0 0 0 0 0 0 0 0 0 127 0" result="hardAlpha"/>
<feOffset dy="5"/>
<feComposite in2="hardAlpha" operator="out"/>
<feColorMatrix type="matrix" values="0 0 0 0 0.0659722 0 0 0 0 0.395833 0 0 0 0 0.277083 0 0 0 1 0"/>
<feBlend mode="normal" in2="BackgroundImageFix" result="effect1_dropShadow_1239_15341"/>
<feBlend mode="normal" in="SourceGraphic" in2="effect1_dropShadow_1239_15341" result="shape"/>
</filter>
<linearGradient id="paint0_linear_1239_15341" x1="70" y1="30" x2="0" y2="30" gradientUnits="userSpaceOnUse">
<stop stop-color="#47D14C"/>
<stop offset="1" stop-color="#94D147"/>
</linearGradient>
<clipPath id="clip0_1239_15341">
<rect width="70" height="60" rx="18" fill="white"/>
</clipPath>
<clipPath id="clip1_1239_15341">
<rect width="64" height="85" fill="white" transform="matrix(-1 0 0 -1 67 83)"/>
</clipPath>
</defs>
</svg>
