<svg width="35" height="35" viewBox="0 0 35 35" fill="none" xmlns="http://www.w3.org/2000/svg">
<g clip-path="url(#clip0_695_1994)">
<path d="M35 17.5C35 27.1646 27.1646 35 17.5 35C15.7151 35 13.9938 34.7327 12.3717 34.2357H12.371C12.2896 34.2104 11.0307 30.2635 11.0307 30.2635C11.0307 30.2635 8.47588 32.5083 7.96729 32.1781C3.17119 29.0568 0 23.6482 0 17.5C0 15.5989 0.303516 13.7683 0.864063 12.0545C1.01855 11.5814 1.19287 11.118 1.38564 10.6641C1.94319 9.35283 2.65874 8.11456 3.51641 6.97676C3.51709 6.97607 3.51777 6.97471 3.51846 6.97402C6.71221 2.73848 11.7865 0 17.5 0C27.1646 0 35 7.83535 35 17.5Z" fill="#524798"/>
<path d="M27.2433 28.9863L12.371 34.2356C10.7974 33.7544 9.31808 33.0564 7.9673 32.178L0.864081 12.0544L0.68703 11.5533C0.0670103 9.79511 0.989178 7.86669 2.7467 7.24667L3.51848 6.97392L17.7058 1.96591C19.464 1.34589 21.3917 2.26738 22.0124 4.02558L29.3029 24.679C29.9237 26.4372 29.0015 28.3656 27.2433 28.9863Z" fill="#F6F9F9"/>
<path d="M8.82658 31.9075C8.98155 32.3478 9.22646 32.751 9.54572 33.0915C9.00226 32.814 8.4759 32.5084 7.9673 32.1782L0.864081 12.0546L0.68703 11.5535C0.0670103 9.79531 0.989178 7.86689 2.7467 7.24619L3.51848 6.97412L3.59572 6.94678C3.56906 6.95635 3.5424 6.96592 3.51642 6.97686C2.00295 7.55312 1.13547 9.11104 1.38566 10.6642C1.41711 10.8617 1.46701 11.0593 1.53605 11.2541L8.82658 31.9075Z" fill="#DDDAEC"/>
<path d="M5.28244 9.12985C4.3896 8.70288 3.3197 9.08057 2.8928 9.97341C2.46583 10.8662 2.84351 11.9361 3.73635 12.363L6.96955 13.9092L8.5157 10.676C8.94267 9.78316 8.56499 8.71327 7.67214 8.28637C6.7793 7.85939 5.70941 8.23701 5.28244 9.12985ZM24.7081 27.1031C25.601 27.5301 26.6709 27.1524 27.0978 26.2596C27.5247 25.3667 27.147 24.2969 26.2542 23.8699L23.021 22.3238L21.4749 25.557C21.0479 26.4498 21.4256 27.5197 22.3184 27.9466C23.2113 28.3736 24.2811 27.9959 24.7081 27.1031ZM14.1069 15.5996C12.7362 14.9442 11.0937 15.5239 10.4383 16.8946C9.78288 18.2653 10.3626 19.9077 11.7333 20.5632L16.6969 22.9368L19.0706 17.9732C19.726 16.6026 19.1463 14.9601 17.7756 14.3046C16.4048 13.6492 14.7623 14.2289 14.1069 15.5996Z" fill="#DD5CA2"/>
<path d="M29.8043 3.27539H13.9409C12.0765 3.27539 10.5652 4.78675 10.5652 6.65111V28.5537C10.5652 30.418 12.0765 31.9294 13.9409 31.9294H29.8043C31.6687 31.9294 33.18 30.418 33.18 28.5537V6.65111C33.18 4.78675 31.6687 3.27539 29.8043 3.27539Z" fill="#F6F9F9"/>
<path d="M14.8413 31.9292H13.941C12.0767 31.9292 10.5652 30.4177 10.5652 28.5534V6.65101C10.5652 4.78664 12.0767 3.27515 13.941 3.27515H14.8413C12.977 3.27515 11.4655 4.78657 11.4655 6.65101V28.5534C11.4655 30.4178 12.977 31.9292 14.8413 31.9292Z" fill="#DDDAEC"/>
<path d="M18.2392 6.86137L15.705 4.32715L13.1708 6.86137C12.471 7.56116 12.471 8.69572 13.1708 9.39552C13.682 9.90664 14.4248 10.044 15.061 9.80848V10.5338H14.4844C14.3136 10.5338 14.1498 10.6016 14.029 10.7224C13.9082 10.8432 13.8404 11.007 13.8404 11.1778C13.8404 11.3486 13.9082 11.5124 14.029 11.6332C14.1498 11.7539 14.3136 11.8218 14.4844 11.8218H16.9257C17.0965 11.8218 17.2603 11.7539 17.3811 11.6332C17.5018 11.5124 17.5697 11.3486 17.5697 11.1778C17.5697 11.007 17.5018 10.8432 17.3811 10.7224C17.2603 10.6016 17.0965 10.5338 16.9257 10.5338H16.3491V9.80848C16.9852 10.044 17.7282 9.90664 18.2392 9.39552C18.939 8.69572 18.939 7.56116 18.2392 6.86137ZM25.5803 15.8277L21.8727 12.1201L18.1652 15.8277C17.1414 16.8515 17.1414 18.5114 18.1652 19.5352C18.913 20.283 19.9998 20.4839 20.9306 20.1394V21.2005H20.0868C19.5665 21.2005 19.1446 21.6223 19.1446 22.1427C19.1446 22.663 19.5665 23.0849 20.0868 23.0849H23.6585C24.1788 23.0849 24.6007 22.663 24.6007 22.1427C24.6007 21.6223 24.1789 21.2005 23.6585 21.2005H22.8149V20.1394C23.7456 20.4839 24.8325 20.2829 25.5803 19.5352C26.6041 18.5114 26.6041 16.8515 25.5803 15.8277ZM25.5062 28.1889L28.0404 30.7231L30.5746 28.1889C31.2744 27.4891 31.2744 26.3545 30.5746 25.6547C30.0635 25.1436 29.3206 25.0063 28.6844 25.2418V24.5165H29.2611C29.4319 24.5165 29.5957 24.4486 29.7165 24.3278C29.8372 24.2071 29.9051 24.0433 29.9051 23.8725C29.9051 23.7017 29.8372 23.5379 29.7165 23.4171C29.5957 23.2963 29.4319 23.2284 29.2611 23.2284H26.8197C26.6489 23.2284 26.4851 23.2963 26.3644 23.4171C26.2436 23.5379 26.1757 23.7017 26.1757 23.8725C26.1757 24.0433 26.2436 24.2071 26.3644 24.3278C26.4851 24.4486 26.6489 24.5165 26.8197 24.5165H27.3964V25.2418C26.7602 25.0063 26.0173 25.1436 25.5062 25.6547C24.8064 26.3545 24.8064 27.489 25.5062 28.1889Z" fill="#707DD3"/>
</g>
<defs>
<clipPath id="clip0_695_1994">
<rect width="35" height="35" fill="white"/>
</clipPath>
</defs>
</svg>
