<svg width="33" height="40" viewBox="0 0 33 40" fill="none" xmlns="http://www.w3.org/2000/svg">
<g clip-path="url(#clip0_695_1817)">
<mask id="mask0_695_1817" style="mask-type:luminance" maskUnits="userSpaceOnUse" x="0" y="0" width="33" height="40">
<path d="M33 0H0V40H33V0Z" fill="white"/>
</mask>
<g mask="url(#mask0_695_1817)">
<path d="M28.2324 15.6407C26.8439 15.9572 26.0485 16.5048 25.697 17.3947C25.6223 17.5915 25.6003 17.7326 25.6003 18.0321C25.6003 18.5198 25.7014 18.8107 25.9563 19.0588C26.2639 19.3583 26.5011 19.4182 27.6085 19.4866C28.6543 19.5508 28.8916 19.6107 28.9926 19.8332C29.1728 20.2139 28.8916 20.6332 28.3379 20.8129C27.9688 20.9326 27.6392 20.8043 27.5074 20.4877C27.4679 20.4022 27.4239 20.3637 27.38 20.3765C27.3404 20.385 26.9757 20.4877 26.5714 20.6032L25.8288 20.8086L25.8596 20.9797C25.9475 21.5401 26.4133 21.9637 27.0636 22.0834C27.5645 22.1733 28.4214 22.0449 28.9882 21.7968C30.0516 21.3219 30.6448 20.5348 30.6404 19.585C30.6404 19.2556 30.6272 19.1829 30.5042 18.9391C30.3504 18.6353 30.1878 18.5027 29.7967 18.353C29.6166 18.2845 29.3617 18.2503 28.6718 18.2032C28.1797 18.169 27.7227 18.1305 27.6524 18.1134C27.3404 18.0407 27.1734 17.784 27.2394 17.4845C27.3228 17.1337 27.6304 16.9241 28.0655 16.9198C28.3071 16.9198 28.3511 16.9326 28.4741 17.0481C28.5488 17.1166 28.6191 17.215 28.6323 17.2663L28.6543 17.3562L29.0146 17.2492C29.2123 17.1936 29.5902 17.0866 29.8495 17.0139L30.3284 16.8813L30.3021 16.753C30.2625 16.5604 30.0868 16.2096 29.9505 16.0556C29.8846 15.9786 29.7001 15.8546 29.5375 15.7776C29.2695 15.6492 29.2079 15.6364 28.7817 15.6278C28.5268 15.6235 28.2808 15.6278 28.2324 15.6407Z" fill="white"/>
<path d="M22.867 17.2621C22.6957 17.292 22.4891 17.3391 22.4056 17.3605C21.9706 17.4888 21.1269 17.7241 20.5645 17.8824C20.2174 17.9808 19.9186 18.0663 19.9054 18.0749C19.879 18.092 19.9581 19.0161 20.1207 20.7059C20.1734 21.2364 20.2437 21.9679 20.2789 22.3316C20.314 22.6952 20.3624 23.2599 20.3931 23.5808C20.4283 23.9359 20.4678 24.1712 20.4942 24.1712C20.5206 24.1712 20.8106 24.0899 21.1357 23.9958C21.4609 23.9016 21.7729 23.8118 21.83 23.799C21.8871 23.7861 21.9443 23.7519 21.9574 23.7177C21.975 23.6663 21.9487 23.2942 21.8344 22.1262C21.7993 21.7925 21.7949 21.5872 21.8212 21.5615C21.8476 21.5359 22.1024 21.4546 22.3881 21.3733C22.6781 21.292 23.0252 21.1893 23.1614 21.138C23.8206 20.8942 24.4006 20.3979 24.7038 19.8161L24.8927 19.4524V18.8706C24.8927 18.3316 24.8839 18.2717 24.7785 18.0535C24.5544 17.5915 24.2644 17.3733 23.7283 17.2621C23.3636 17.1893 23.2889 17.1893 22.867 17.2621ZM23.1131 18.6097C23.2581 18.7123 23.3767 18.9776 23.3767 19.2129C23.3767 19.5294 23.1658 19.8589 22.8758 20.0086C22.6561 20.1198 21.7246 20.3936 21.685 20.3551C21.6586 20.3294 21.5576 19.3155 21.5532 19.0417V18.8107L22.0365 18.6696C22.6122 18.507 22.9373 18.4856 23.1131 18.6097Z" fill="white"/>
<path d="M15.9772 19.1059C14.6326 19.3882 13.4462 20.3508 12.954 21.5615C12.7343 22.1005 12.686 22.3957 12.7123 23.046C12.7387 23.7647 12.8266 24.0727 13.1386 24.5262C13.7318 25.3861 14.7908 25.7497 15.9772 25.5016C17.7436 25.1251 19.0443 23.7562 19.242 22.062C19.4134 20.5904 18.6576 19.4011 17.3569 19.1059C17.001 19.0246 16.377 19.0246 15.9772 19.1059ZM16.9527 20.5604C17.3833 20.7658 17.6513 21.2535 17.6953 21.9037C17.7392 22.554 17.5283 23.1144 17.0757 23.5551C16.689 23.9316 16.254 24.1283 15.7531 24.1583C15.5553 24.1711 15.3225 24.1583 15.217 24.1326C14.9797 24.0684 14.6897 23.8545 14.5315 23.6278C14.3865 23.4096 14.2371 22.8749 14.2371 22.554C14.2371 22.2631 14.347 21.8225 14.4832 21.5572C14.9402 20.6674 16.1486 20.1797 16.9527 20.5604Z" fill="white"/>
<path d="M9.60555 21.0053C9.39024 21.048 9.18371 21.0994 9.14417 21.1122C9.10462 21.1293 8.84097 21.2063 8.55975 21.2876C8.01048 21.4416 7.05695 21.7111 6.82845 21.7796C6.69663 21.8181 6.69224 21.8309 6.70542 22.0021C6.71421 22.1005 6.74497 22.4042 6.76694 22.6737C6.7933 22.9432 6.85482 23.5678 6.89876 24.0641C6.9471 24.5561 6.99983 25.0951 7.01301 25.2619C7.02619 25.4245 7.05695 25.724 7.07453 25.925C7.0965 26.1261 7.14923 26.6523 7.18877 27.1015C7.22832 27.5464 7.26347 27.9186 7.26787 27.9229C7.27226 27.9272 7.43045 27.8844 7.62379 27.8288C7.81714 27.7732 8.15109 27.6791 8.3708 27.6149C8.58611 27.555 8.77066 27.4951 8.77945 27.4865C8.80142 27.4652 8.63884 25.6256 8.5905 25.3133C8.57293 25.2149 8.5905 25.1892 8.69157 25.1507C8.9684 25.048 8.95522 25.0395 9.75495 26.032C10.1724 26.5496 10.5151 26.9775 10.5239 26.986C10.5371 26.9988 12.2157 26.5283 12.2508 26.4983C12.2596 26.494 11.8949 26.0534 11.4379 25.5186C10.9853 24.9839 10.6118 24.5304 10.6118 24.5133C10.6118 24.4962 10.7348 24.3935 10.8842 24.2823C11.3237 23.9657 11.6488 23.5037 11.7807 22.9988C11.8597 22.6951 11.8114 22.0192 11.6928 21.7625C11.4994 21.3518 11.1874 21.1079 10.6953 20.9882C10.3482 20.9026 10.0933 20.9069 9.60555 21.0053ZM9.95269 22.3186C10.2735 22.4684 10.3745 22.9475 10.168 23.3454C10.023 23.6363 9.78132 23.7817 9.16174 23.9571C8.42792 24.1668 8.48944 24.1668 8.46307 23.9529C8.41034 23.5251 8.34443 22.6181 8.3708 22.5967C8.41913 22.5496 9.51327 22.2545 9.65389 22.2502C9.73298 22.2459 9.86481 22.2801 9.95269 22.3186Z" fill="white"/>
<path d="M2.98799 22.9091C2.64524 22.9647 2.6013 22.9733 1.18639 23.3797C0.716215 23.5123 0.25483 23.6449 0.162553 23.6706C0.00436424 23.7091 -0.00881819 23.7219 0.0175467 23.8417C0.0439115 23.9658 0.149371 25.031 0.285589 26.5027C0.619544 30.1177 0.584391 29.8396 0.694244 29.7968C0.777733 29.7669 1.14684 29.6599 2.35084 29.3219C3.33073 29.0439 3.63832 28.9284 4.09092 28.6802C5.35643 27.9701 6.06388 26.8193 6.06388 25.4503C6.06388 24.5776 5.80024 23.9102 5.26855 23.4225C5.03566 23.2129 4.53912 22.9647 4.24032 22.9091C3.94151 22.8578 3.33512 22.8578 2.98799 22.9091ZM3.71302 24.3166C4.13925 24.5091 4.40729 24.9198 4.48639 25.5059C4.61382 26.4086 4.16562 27.2514 3.33952 27.6792C2.95283 27.876 2.10476 28.1198 2.03885 28.0514C2.01249 28.0214 1.96855 27.7219 1.93779 27.3797C1.88066 26.6781 1.73566 25.1252 1.68732 24.7658L1.66096 24.5262L1.89384 24.462C2.02567 24.4235 2.24977 24.3594 2.39478 24.3209C2.53978 24.2781 2.6804 24.2396 2.70237 24.2353C2.72873 24.2268 2.91329 24.2182 3.11981 24.2182C3.42301 24.2139 3.53286 24.2353 3.71302 24.3166Z" fill="white"/>
<path d="M30.605 23.2129C30.3238 23.2557 29.8009 23.4182 29.5065 23.5466C28.408 24.0428 27.7972 24.954 27.951 25.8824C28.096 26.7851 28.6101 27.0631 30.1568 27.0803C30.8248 27.0845 31.1543 27.1701 31.3169 27.3754C31.3477 27.4139 31.374 27.5466 31.374 27.6706C31.374 27.8845 31.3608 27.9102 31.1675 28.0984C30.6929 28.5519 30.0514 28.5434 29.8536 28.077C29.7789 27.9102 29.8449 27.9059 29.0012 28.1498C28.698 28.2396 28.386 28.3252 28.3025 28.3423C28.1619 28.3722 28.1575 28.3765 28.1839 28.5434C28.2586 28.984 28.6189 29.4032 29.0627 29.5701C29.2956 29.6557 29.401 29.6685 29.902 29.6642C30.3809 29.6599 30.5303 29.6428 30.8248 29.5487C31.5366 29.3305 31.9321 29.0995 32.3539 28.6674C32.8461 28.154 33.0658 27.5337 32.9691 26.9134C32.8812 26.3744 32.5912 26.0535 32.0551 25.9038C31.7959 25.8311 31.0532 25.754 30.627 25.754C30.0074 25.754 29.6559 25.6214 29.5812 25.3562C29.5109 25.1166 29.568 24.9455 29.7702 24.7444C30.1349 24.3893 30.7193 24.3851 30.9126 24.7359C30.961 24.8257 31.0225 24.8984 31.0489 24.8984C31.0708 24.8984 31.3389 24.83 31.6421 24.7444C31.9409 24.6589 32.2836 24.5647 32.4022 24.5348C32.5165 24.5006 32.622 24.4663 32.6351 24.4535C32.6835 24.4107 32.5473 24 32.4286 23.8161C32.1694 23.4139 31.7607 23.2214 31.1543 23.2043C30.9258 23.2 30.6797 23.2043 30.605 23.2129Z" fill="white"/>
<path d="M25.9606 24.5947C25.5827 24.7016 25.2663 24.8 25.2531 24.8129C25.2267 24.8428 25.3542 26.2674 25.5563 28.2439C25.5739 28.4278 25.5695 28.5348 25.5431 28.5348C25.4948 28.5348 25.0422 28.0856 23.5789 26.5797C22.5771 25.5487 22.5771 25.5487 22.4365 25.5915C22.0849 25.6941 21.2369 25.938 21.149 25.9551C21.0259 25.985 21.0259 26.015 21.1138 26.9348C21.1534 27.307 21.2105 27.923 21.2457 28.2995C21.2808 28.676 21.3511 29.3989 21.3994 29.9038C21.4434 30.4086 21.5093 31.0931 21.5357 31.4225C21.5664 31.7519 21.6016 32.0385 21.6192 32.0556C21.6499 32.0941 23.0736 31.7048 23.1132 31.6492C23.1263 31.6321 23.1132 31.354 23.0824 31.0289C23.0516 30.7038 22.9857 30.0064 22.9374 29.476C22.8891 28.9455 22.8363 28.3808 22.8188 28.2182C22.8012 28.0214 22.8056 27.9316 22.8363 27.9401C22.8627 27.9487 23.3373 28.4193 23.8865 28.984C24.4402 29.5487 25.0905 30.2118 25.3366 30.4556L25.7848 30.9048L25.9781 30.8578C26.3956 30.7551 27.2612 30.5027 27.2964 30.4685C27.3359 30.43 27.2656 29.5957 26.8262 25.0909C26.7911 24.7145 26.7603 24.4022 26.7603 24.3936C26.7603 24.3679 26.6021 24.4064 25.9606 24.5947Z" fill="white"/>
<path d="M19.2683 26.4899C18.9564 26.5798 18.6136 26.6739 18.5126 26.7039C18.2972 26.7637 18.306 26.7295 18.3675 27.337C18.3939 27.5595 18.451 28.167 18.4994 28.6846C18.5477 29.2022 18.6268 30.0407 18.6751 30.5456C18.7279 31.0504 18.7938 31.7691 18.8245 32.1413C18.8597 32.5135 18.8948 32.8258 18.908 32.8386C18.9168 32.8514 19.0618 32.8215 19.2288 32.7744C20.1779 32.5135 20.3713 32.4579 20.3976 32.4322C20.424 32.4108 20.3537 31.5295 20.1472 29.3905C20.1076 29.0012 20.0505 28.3766 20.0153 28.0001C19.9406 27.183 19.8616 26.383 19.8484 26.353C19.844 26.3402 19.5847 26.4001 19.2683 26.4899Z" fill="white"/>
<path d="M17.1372 27.0889C16.5835 27.2514 16.2803 27.3413 16.0694 27.3926C15.9551 27.4183 15.8541 27.4739 15.8409 27.5081C15.8321 27.5423 15.7926 27.8589 15.753 28.214C15.6607 29.0696 15.5245 30.3359 15.4674 30.8664C15.3619 31.8889 15.3224 32.1327 15.2828 32.0942C15.2565 32.0685 15.173 31.8718 15.0939 31.6536C14.883 31.0675 14.6061 30.3188 14.1667 29.121C13.8152 28.1669 13.7669 28.06 13.6878 28.0771C13.6394 28.0899 13.3538 28.1712 13.0506 28.2568C12.7474 28.3423 12.4135 28.4365 12.308 28.4664C12.2025 28.4921 12.0971 28.5434 12.0795 28.5776C12.0619 28.6119 12.0136 28.8728 11.974 29.1552C11.9345 29.4375 11.8642 29.8996 11.8202 30.1819C11.7763 30.4643 11.6972 30.9819 11.6445 31.337C11.5961 31.6878 11.5258 32.1413 11.4907 32.3423C11.4555 32.5434 11.416 32.8258 11.3984 32.9712C11.3457 33.4589 11.3369 33.4418 10.6778 31.337C10.6338 31.1958 10.4844 30.7338 10.3482 30.3103C10.212 29.8867 10.0758 29.4546 10.045 29.3477C10.0011 29.2022 9.97031 29.1552 9.9044 29.1595C9.70667 29.1766 8.34888 29.5873 8.34888 29.63C8.34888 29.66 8.43676 29.9081 8.54661 30.1905C8.65647 30.4685 8.84541 30.9434 8.96406 31.2514C9.0827 31.5552 9.29801 32.1156 9.44741 32.4921C9.59681 32.8685 9.78576 33.3477 9.86486 33.5616C10.2999 34.6782 10.4844 35.1488 10.5108 35.1915C10.5328 35.2258 10.8316 35.1573 11.4555 34.9819C11.9565 34.8407 12.3783 34.7167 12.3871 34.7124C12.3959 34.7038 12.431 34.5284 12.4618 34.3231C12.5189 33.9509 12.6112 33.3691 12.787 32.2568C12.9715 31.0718 13.0111 30.8193 13.0374 30.6397C13.0506 30.5413 13.0814 30.4643 13.1077 30.4728C13.1297 30.4771 13.4549 31.2942 13.8284 32.2782C14.1975 33.2621 14.5095 34.0792 14.5183 34.0835C14.527 34.0921 14.8171 34.0193 15.1642 33.9252C15.5113 33.8268 15.9068 33.7156 16.0386 33.6814C16.4121 33.583 16.4209 33.5744 16.4517 33.275C16.4692 33.1252 16.5088 32.8514 16.544 32.6632C16.5791 32.475 16.6494 32.0685 16.6977 31.7648C16.8515 30.8108 17.0053 29.891 17.0493 29.6472C17.0756 29.5188 17.1416 29.1038 17.2031 28.7274C17.2646 28.3509 17.3437 27.8675 17.3788 27.6578C17.4184 27.4439 17.4579 27.2087 17.4711 27.1316C17.4843 27.0589 17.4755 26.999 17.4579 26.999C17.4404 27.0033 17.2953 27.0418 17.1372 27.0889Z" fill="white"/>
<path d="M4.32382 30.6311C3.64273 30.7337 2.89573 31.1102 2.5398 31.538C1.97296 32.2139 1.92902 33.0696 2.43434 33.6171C2.52222 33.7113 2.59253 33.7925 2.59253 33.8054C2.59253 33.8182 2.43874 33.9808 2.24979 34.169C1.52475 34.892 1.29626 35.8246 1.66976 36.5605C1.82356 36.8642 1.98175 37.0139 2.32888 37.1722C2.54859 37.2749 2.6189 37.2835 3.11983 37.2835C3.71304 37.2835 3.95032 37.2364 4.55671 37.0097C5.02688 36.83 5.37842 36.6204 5.82662 36.2482L6.20012 35.9316L6.50771 36.107C6.70984 36.2311 6.84167 36.2824 6.91197 36.2653C6.9647 36.2524 7.25471 36.1712 7.55791 36.0856C7.86111 36 8.22582 35.8974 8.36643 35.8589C8.57735 35.8075 8.6125 35.7861 8.55538 35.7476C8.51583 35.722 8.14673 35.4995 7.73368 35.2556C6.88121 34.7508 6.93394 34.8364 7.15804 34.3102C7.36017 33.8268 7.77322 32.7958 7.76443 32.7872C7.76004 32.7829 7.47003 32.8642 7.1185 32.9626C6.76696 33.061 6.42862 33.1551 6.3671 33.1679C6.27482 33.1893 6.22209 33.2663 6.09466 33.5487C6.01117 33.7455 5.92329 33.9466 5.91011 33.9979C5.89692 34.0535 5.85738 34.0963 5.82662 34.0963C5.80025 34.0963 5.57615 33.9765 5.33887 33.8353C5.09719 33.6899 4.7149 33.4631 4.48641 33.3305C3.93714 33.0097 3.61637 32.7273 3.55924 32.5048C3.48894 32.261 3.62515 31.9958 3.88441 31.876C4.20518 31.722 4.44246 31.7861 4.53914 32.0514C4.55671 32.0942 4.59186 32.1284 4.62262 32.1284C4.65338 32.1241 4.97855 32.0428 5.33887 31.9401L5.99799 31.7519L5.98041 31.5893C5.96284 31.384 5.80465 31.076 5.63767 30.922C5.36963 30.6738 4.82915 30.554 4.32382 30.6311ZM4.36337 34.845C4.84673 35.1273 5.0928 35.2942 5.08401 35.3369C5.06643 35.4353 4.56111 35.7904 4.27549 35.8974C3.92396 36.03 3.4406 36.0385 3.26923 35.9102C2.95724 35.6877 2.88694 35.3712 3.0627 34.9947C3.16816 34.7722 3.50212 34.3872 3.57682 34.4043C3.60758 34.4129 3.95911 34.6097 4.36337 34.845Z" fill="white"/>
<path d="M8.41037 0.564706C8.35764 1.33904 8.36203 1.85668 8.42794 3.03743C8.48507 4.01711 8.50704 4.26524 8.63447 5.3262C8.73993 6.17326 8.99039 7.82888 9.03433 7.97005C9.04752 8.01283 9.08706 8.19679 9.12222 8.37647C9.15298 8.56043 9.2101 8.85134 9.24525 9.02674C9.33753 9.47594 9.33314 9.49305 9.17495 9.27914C8.6872 8.61176 8.1599 8.06417 7.58866 7.62353C7.30304 7.40107 6.33194 6.80214 6.26163 6.80214C6.25284 6.80214 6.13859 6.75508 6.01116 6.70374C5.5366 6.4984 5.04885 6.35294 4.52155 6.2631C4.13486 6.19893 3.5065 6.12193 3.48013 6.13904C3.42741 6.17326 3.57241 6.3016 3.87121 6.47273C4.68853 6.95187 5.83979 7.97861 6.52088 8.82567C7.39971 9.92513 8.18626 11.3283 8.57295 12.4706C8.66962 12.7572 8.70477 12.7743 8.93327 12.6246C9.13979 12.4834 10.2955 11.9016 10.5239 11.816C10.5986 11.7904 10.7744 11.7176 10.9194 11.662C11.0644 11.6021 11.2006 11.5508 11.2182 11.5508C11.2402 11.5508 11.3193 11.5251 11.394 11.4909C11.4731 11.4567 11.7148 11.3797 11.9301 11.3155C12.1498 11.2513 12.3739 11.1829 12.4354 11.1615C12.598 11.1059 13.0945 10.9989 13.6218 10.9091C13.8767 10.8663 14.1315 10.8193 14.1931 10.8064C14.2546 10.7936 14.5841 10.7636 14.9269 10.738C15.2696 10.7123 15.5816 10.6824 15.6212 10.6695C15.7046 10.6353 15.7046 10.6396 15.5552 10.0321C15.2916 8.94973 15.1861 7.89733 15.2213 6.6738C15.2564 5.43743 15.4542 4.35936 15.8409 3.29412C15.9112 3.09305 15.9156 3.08021 16.1001 2.68663C16.2144 2.44278 16.2451 2.31016 16.1792 2.31016C16.1616 2.31016 15.9639 2.46417 15.7442 2.65241C14.9137 3.36257 14.2678 4.24385 13.8635 5.21925C13.802 5.37326 13.7317 5.53583 13.7097 5.58289C13.6174 5.7754 13.4548 6.45562 13.3582 7.03743C13.3362 7.17861 13.3142 7.53369 13.3142 7.82888L13.3098 8.36364L13.2 8.10695C13.1385 7.96578 13.0594 7.79037 13.0242 7.71337C12.9891 7.64064 12.9627 7.57219 12.9627 7.55936C12.9627 7.54652 12.8836 7.36685 12.7869 7.15722C12.6859 6.95187 12.5892 6.74225 12.5672 6.69519C12.3036 6.11337 11.6313 4.77861 11.2402 4.06417C10.8667 3.3754 10.6646 3.0246 10.6338 2.99465C10.6206 2.98182 10.5855 2.9262 10.5547 2.87059C10.3833 2.57968 10.3262 2.48128 10.19 2.26738C9.89998 1.8139 9.60118 1.36043 9.43859 1.14225C8.82342 0.303744 8.58174 0.00427808 8.52022 0C8.4587 0 8.44112 0.0898398 8.41037 0.564706Z" fill="#EC9615"/>
<path d="M15.9068 12.0684C15.0455 12.1069 13.613 12.2994 13.4021 12.4064C13.3626 12.4235 13.2439 12.4534 13.1385 12.4705C13.0286 12.4877 12.8616 12.5262 12.765 12.5561C12.6683 12.586 12.4134 12.6631 12.1937 12.7315C11.9784 12.7957 11.7499 12.877 11.6884 12.9069C11.6269 12.9369 11.5566 12.9625 11.5302 12.9625C11.4467 12.9625 10.8535 13.2192 10.2208 13.5272C9.61875 13.8181 8.74871 14.3229 8.37082 14.5967C7.07455 15.5465 6.17375 16.3935 5.34765 17.4374C4.60943 18.3743 4.38094 18.7208 3.87122 19.7005C3.32634 20.7443 3.22089 21.0267 3.41862 20.9197C3.48453 20.8855 3.62954 20.8427 4.19638 20.7016C4.29306 20.6759 4.40291 20.6417 4.44246 20.6203C4.47761 20.6032 4.62701 20.5647 4.76762 20.5347C4.90824 20.5048 5.05764 20.4663 5.09279 20.4491C5.13234 20.4278 5.19385 20.4021 5.2334 20.3893C5.27295 20.3807 5.39159 20.2181 5.49705 20.0342C5.78706 19.5165 6.3583 18.678 6.70104 18.2716C7.74685 17.0267 8.92009 16.0427 10.2647 15.2855C10.9941 14.8748 11.6049 14.5967 12.1937 14.4C12.3871 14.3315 12.5848 14.2631 12.6331 14.2459C13.0989 14.062 14.2194 13.8181 14.984 13.7326C15.1905 13.7112 15.5157 13.6727 15.7134 13.647C15.9068 13.6256 16.311 13.6042 16.6098 13.6042C16.9086 13.6042 17.3129 13.6256 17.5062 13.647C17.704 13.6727 18.0291 13.7112 18.2357 13.7326C19.3825 13.8609 20.5118 14.1604 21.7026 14.6609C22.1377 14.8449 22.3266 14.9347 22.8539 15.2213L23.0912 15.354L23.3548 15.2898C23.4998 15.2556 23.658 15.2085 23.7064 15.1871C23.7855 15.1529 23.9349 15.1101 24.4973 14.9689C24.594 14.9433 24.7126 14.9048 24.761 14.8877C24.8093 14.8663 24.8884 14.8449 24.9323 14.8363C24.9807 14.8278 25.0246 14.8021 25.0334 14.7764C25.0642 14.6866 23.6712 13.8352 22.8935 13.4673C22.3178 13.1978 21.7598 12.9625 21.6895 12.9625C21.6631 12.9625 21.5928 12.9369 21.5313 12.9069C21.4698 12.877 21.2457 12.7957 21.0259 12.7315C20.8106 12.6631 20.547 12.586 20.4415 12.5518C20.3405 12.5176 20.2262 12.4919 20.1955 12.4919C20.1603 12.4919 20.0373 12.462 19.923 12.4278C19.633 12.3465 18.8508 12.2053 18.4993 12.1711C18.3411 12.1582 18.0863 12.1283 17.9281 12.1069C17.5502 12.0513 16.645 12.0342 15.9068 12.0684Z" fill="#EC9615"/>
<path d="M29.6605 31.4481C29.1859 31.585 28.3993 31.8075 28.1533 31.8716C27.9907 31.9144 27.8281 31.9743 27.793 32C27.7578 32.0299 27.6567 32.1797 27.5689 32.3337C26.8482 33.6 25.7321 34.8278 24.2732 35.97C23.6185 36.4834 21.9839 37.3732 21.2677 37.6085C21.1842 37.6385 21.0963 37.6727 21.0699 37.6898C21.0479 37.7069 20.8502 37.7711 20.6305 37.8396C20.4152 37.9037 20.1955 37.9765 20.1472 37.9936C20.0593 38.0321 19.6989 38.1134 19.1365 38.2289C18.3895 38.3829 16.8471 38.524 16.3418 38.4898C15.6256 38.4385 14.8698 38.37 14.6325 38.3273C14.0525 38.2331 13.1956 38.0449 13.0726 37.9936C13.0242 37.9722 12.8089 37.9037 12.5892 37.8396C12.3739 37.7754 12.1762 37.7069 12.1498 37.6898C12.1278 37.6727 12.0356 37.6385 11.9521 37.6085C11.7148 37.5315 11.5874 37.4759 10.9502 37.1722C10.4932 36.954 10.335 36.8941 10.2647 36.9198C10.212 36.9412 10.0274 36.9968 9.85607 37.0438C9.68031 37.0952 9.40347 37.1722 9.24089 37.215C9.07391 37.262 8.81905 37.3347 8.66965 37.3775C8.51586 37.416 8.39282 37.4674 8.39282 37.4845C8.39282 37.5529 9.42984 38.1775 10.0362 38.4813C10.5811 38.7508 10.7876 38.8449 11.3589 39.0759C11.4336 39.1059 11.6181 39.1743 11.7763 39.2299C11.9345 39.2813 12.1015 39.3412 12.1498 39.3625C12.1981 39.3797 12.3256 39.4182 12.4354 39.4438C12.5453 39.4695 12.6727 39.508 12.7211 39.5251C12.9012 39.6021 13.6526 39.7604 14.5007 39.9059C15.1159 40.0085 18.1083 40.0085 18.741 39.9016C19.5144 39.7775 20.3141 39.6064 20.4987 39.5251C20.547 39.508 20.6744 39.4695 20.7843 39.4438C20.8942 39.4182 21.0216 39.3797 21.0699 39.3583C21.1183 39.3412 21.316 39.2684 21.5093 39.2043C21.7027 39.1358 21.9092 39.0588 21.9707 39.0289C22.0322 38.9989 22.0938 38.9732 22.1113 38.9732C22.1465 38.9732 22.8495 38.6652 23.0253 38.5711C23.0868 38.5412 23.2934 38.4299 23.4867 38.3315C23.9744 38.0791 24.9807 37.4246 25.53 36.9925C26.1452 36.5176 26.8043 35.9016 27.3491 35.2898C27.894 34.6823 27.9116 34.6567 28.4037 33.9893C28.8388 33.3904 29.8187 31.6064 29.7835 31.4695C29.7747 31.431 29.7352 31.4267 29.6605 31.4481Z" fill="#EC9615"/>
</g>
</g>
<defs>
<clipPath id="clip0_695_1817">
<rect width="33" height="40" fill="white"/>
</clipPath>
</defs>
</svg>
