<svg width="31" height="35" viewBox="0 0 31 35" fill="none" xmlns="http://www.w3.org/2000/svg">
<g clip-path="url(#clip0_695_1911)">
<path d="M27.0018 13.6676H18.4822L25.1637 1.51956C25.5394 0.836172 25.045 0 24.2651 0H11.9613C11.7498 2.04559e-06 11.5435 0.0653967 11.3706 0.187224C11.1977 0.309052 11.0668 0.481352 10.9956 0.680517L4.1612 19.8168C3.92269 20.4846 4.41775 21.1871 5.12684 21.1871H14.816L12.3241 33.7711C12.1093 34.8558 13.5267 35.4654 14.1663 34.5634L27.8382 15.2861C28.3198 14.6071 27.8342 13.6676 27.0018 13.6676Z" fill="#FBFF3E"/>
<path d="M9.35647 32.7926C9.91183 32.9037 10.452 32.5435 10.5631 31.9882L12.0669 24.4686C12.1779 23.9133 11.8178 23.3731 11.2625 23.2621C10.7072 23.1511 10.1669 23.5112 10.0559 24.0665L8.55209 31.5861C8.44101 32.1413 8.80112 32.6815 9.35647 32.7926ZM0.680783 20.4209C1.21412 20.6114 1.80085 20.3335 1.9913 19.8002L6.38578 7.49547C6.57623 6.96213 6.29835 6.3754 5.76501 6.18495C5.23167 5.9945 4.64494 6.27238 4.45449 6.80572L0.0600118 19.1104C-0.130437 19.6437 0.147443 20.2305 0.680783 20.4209ZM28.05 0.531425L24.2902 7.36736C24.0173 7.86358 24.1983 8.48702 24.6945 8.75998C25.1907 9.03287 25.8142 8.85192 26.0871 8.3557L29.8469 1.51976C30.1198 1.02354 29.9388 0.400107 29.4426 0.127148C28.9464 -0.145811 28.3229 0.0352043 28.05 0.531425ZM17.7822 34.8144C18.2461 35.1393 18.8855 35.0266 19.2103 34.5627L24.0932 27.59C24.4181 27.1261 24.3054 26.4867 23.8415 26.1619L23.8415 26.1618C23.3776 25.837 22.7382 25.9497 22.4134 26.4135L17.5305 33.3862C17.2056 33.8502 17.3183 34.4896 17.7822 34.8144ZM28.9018 17.3297L26.4604 20.7477C26.1312 21.2086 26.238 21.8489 26.6988 22.1781H26.6988C27.1596 22.5072 27.8 22.4005 28.1292 21.9397L30.5706 18.5217C30.8998 18.0609 30.7931 17.4205 30.3323 17.0913C29.8715 16.7621 29.231 16.8688 28.9018 17.3297Z" fill="#3994FF"/>
</g>
<defs>
<clipPath id="clip0_695_1911">
<rect width="30.7617" height="35" fill="white"/>
</clipPath>
</defs>
</svg>
