<svg width="44" height="36" viewBox="0 0 44 36" fill="none" xmlns="http://www.w3.org/2000/svg">
<g clip-path="url(#clip0_695_1920)">
<path d="M9.72997 13.7606C9.65864 13.7605 9.58841 13.743 9.52541 13.7095C9.46242 13.6761 9.40858 13.6277 9.3686 13.5686L6.75945 9.7127C6.71605 9.64857 6.69047 9.57407 6.6853 9.49681C6.68013 9.41954 6.69558 9.3423 6.73005 9.27296C6.76449 9.20363 6.81675 9.14472 6.88148 9.10227C6.94621 9.05982 7.02106 9.03536 7.09837 9.0314L11.2253 8.81873L10.3002 4.78723C10.2855 4.72324 10.2855 4.65677 10.3 4.59275C10.3145 4.52873 10.3433 4.46881 10.3842 4.41744C10.425 4.36607 10.477 4.32456 10.5361 4.29601C10.5952 4.26746 10.66 4.25258 10.7256 4.2525C10.7714 4.2525 10.8174 4.2597 10.8621 4.27445L14.7869 5.56851L15.3793 1.47449C15.3943 1.37062 15.4462 1.27562 15.5255 1.20689C15.6048 1.13817 15.7062 1.1003 15.8111 1.10024C15.9106 1.10024 16.009 1.1343 16.0883 1.19954L19.2809 3.82572L21.3105 0.22236C21.3484 0.154899 21.4036 0.098748 21.4705 0.0596715C21.5373 0.020595 21.6133 0 21.6907 0C21.7681 0 21.8441 0.020595 21.9109 0.0596715C21.9777 0.098748 22.0329 0.154899 22.0709 0.22236L24.1003 3.82572L27.2932 1.19954C27.353 1.15038 27.4247 1.118 27.5011 1.10573C27.5775 1.09346 27.6557 1.10175 27.7279 1.12972C27.8 1.15773 27.8635 1.20441 27.9117 1.26499C27.9599 1.32557 27.9911 1.39787 28.0021 1.47449L28.5943 5.56851L32.5191 4.27445C32.5925 4.25017 32.6711 4.24591 32.7468 4.26209C32.8225 4.27828 32.8925 4.31434 32.9496 4.36655C33.0068 4.41874 33.0491 4.48519 33.0722 4.55911C33.0953 4.63303 33.0983 4.71175 33.081 4.78723L32.1559 8.81881L36.2827 9.03148C36.36 9.03547 36.4348 9.05994 36.4996 9.10239C36.5643 9.14484 36.6165 9.20374 36.651 9.27304C36.6854 9.34237 36.7009 9.41962 36.6957 9.49688C36.6906 9.57414 36.665 9.64865 36.6216 9.71279L34.0124 13.5687C33.9724 13.6278 33.9186 13.6762 33.8556 13.7096C33.7926 13.7431 33.7224 13.7606 33.651 13.7606L9.72997 13.7606Z" fill="#F7931E"/>
<path d="M8.49685 12.2804H11.1257L9.12325 9.32122C9.0849 9.2644 9.06044 9.19936 9.05186 9.13134C9.04328 9.06333 9.05082 8.99425 9.07385 8.92969L7.09839 9.03153C7.02109 9.03551 6.94624 9.05998 6.88152 9.10243C6.8168 9.14488 6.76453 9.20378 6.73008 9.2731C6.69559 9.34243 6.68013 9.41968 6.6853 9.49694C6.69047 9.57421 6.71607 9.64871 6.75948 9.71284L8.49685 12.2804Z" fill="black"/>
<path d="M21.6907 36C21.6133 36 21.5373 35.9794 21.4705 35.9403C21.4037 35.9013 21.3485 35.8451 21.3105 35.7777L19.2809 32.1742L16.0882 34.8005C16.0284 34.8497 15.9566 34.882 15.8802 34.8943C15.8038 34.9065 15.7254 34.8983 15.6533 34.8703C15.5811 34.8423 15.5177 34.7956 15.4695 34.735C15.4214 34.6745 15.3902 34.6022 15.3791 34.5256L14.7868 30.4315L10.8621 31.7256C10.7886 31.7498 10.71 31.7541 10.6343 31.7379C10.5587 31.7217 10.4887 31.6857 10.4316 31.6335C10.3744 31.5813 10.3321 31.5148 10.309 31.4409C10.2859 31.367 10.2829 31.2883 10.3002 31.2128L11.2252 27.1812L7.09839 26.9686C7.02109 26.9646 6.94624 26.9401 6.88152 26.8977C6.8168 26.8552 6.76453 26.7963 6.73008 26.727C6.69559 26.6577 6.68013 26.5804 6.6853 26.5032C6.69047 26.4259 6.71607 26.3514 6.75948 26.2873L9.36871 22.4314C9.40867 22.3723 9.46251 22.3239 9.52551 22.2905C9.58851 22.257 9.65875 22.2395 9.73008 22.2395H33.6512C33.7959 22.2395 33.9313 22.3114 34.0126 22.4314L36.6218 26.2873C36.6652 26.3514 36.6908 26.4259 36.6959 26.5032C36.7011 26.5804 36.6856 26.6577 36.6512 26.727C36.6167 26.7963 36.5645 26.8552 36.4998 26.8977C36.435 26.9401 36.3602 26.9646 36.2829 26.9686L32.1561 27.1812L33.0813 31.2128C33.0959 31.2768 33.096 31.3433 33.0815 31.4073C33.0669 31.4713 33.0382 31.5312 32.9973 31.5826C32.9564 31.634 32.9045 31.6755 32.8454 31.704C32.7863 31.7326 32.7215 31.7475 32.6558 31.7476C32.6101 31.7476 32.5641 31.7403 32.5193 31.7256L28.5944 30.4315L28.0023 34.5257C27.9872 34.6295 27.9353 34.7244 27.856 34.7932C27.7768 34.8619 27.6754 34.8998 27.5705 34.8999C27.4694 34.8999 27.3714 34.8648 27.2933 34.8006L24.1004 32.1743L22.0709 35.7778C22.0329 35.8452 21.9777 35.9013 21.9109 35.9404C21.8441 35.9794 21.7681 36 21.6907 36Z" fill="#F7931E"/>
<path d="M10.6893 23.7197H8.49682L6.75945 26.2873C6.71605 26.3514 6.69047 26.4259 6.6853 26.5032C6.68013 26.5804 6.69558 26.6577 6.73005 26.727C6.7645 26.7963 6.81677 26.8552 6.88149 26.8977C6.94622 26.9401 7.02107 26.9646 7.09837 26.9686L8.63044 27.0475C8.61203 26.9858 8.60755 26.9207 8.6173 26.8569C8.62706 26.7932 8.65082 26.7324 8.68687 26.679L10.6893 23.7197Z" fill="black"/>
<path d="M43.3813 17.9999C43.3813 21.1589 40.8233 23.7196 37.6676 23.7196H5.71371C2.55806 23.7196 0 21.1589 0 17.9999C0 14.841 2.55806 12.2803 5.71371 12.2803H37.6677C40.8233 12.2803 43.3813 14.841 43.3813 17.9999Z" fill="#FECF05"/>
<path d="M5.7138 21.9721C3.52592 21.9721 1.74585 20.1902 1.74585 17.9999C1.74585 15.8097 3.52592 14.0278 5.7138 14.0278H37.6678C39.8557 14.0278 41.6357 15.8097 41.6357 17.9999C41.6357 20.1902 39.8557 21.9721 37.6678 21.9721H5.7138Z" fill="white"/>
<path d="M3.18608 17.9999C3.18608 15.8097 4.96615 14.0278 7.15403 14.0278H5.7138C3.52592 14.0278 1.74585 15.8097 1.74585 17.9999C1.74585 20.1902 3.52592 21.9721 5.7138 21.9721H7.15403C4.96606 21.9721 3.18608 20.1902 3.18608 17.9999Z" fill="black"/>
<path d="M10.6059 15.2676C10.4374 15.2676 10.2758 15.3345 10.1566 15.4537C10.0374 15.5729 9.97047 15.7345 9.97047 15.903V18.7924C9.97047 19.1615 9.67087 19.4618 9.30255 19.4618C8.93415 19.4618 8.63446 19.1615 8.63446 18.7924C8.63446 18.6239 8.56751 18.4622 8.44834 18.3431C8.32916 18.2239 8.16753 18.1569 7.99899 18.1569C7.83046 18.1569 7.66882 18.2239 7.54965 18.3431C7.43048 18.4622 7.36353 18.6239 7.36353 18.7924C7.36353 19.8623 8.23335 20.7327 9.30255 20.7327C10.3717 20.7327 11.2414 19.8623 11.2414 18.7924V15.903C11.2414 15.7345 11.1745 15.5729 11.0553 15.4537C10.9361 15.3345 10.7745 15.2676 10.6059 15.2676ZM13.5852 15.2676C12.5161 15.2676 11.6462 16.138 11.6462 17.208V20.0972C11.6462 20.2658 11.7132 20.4274 11.8324 20.5466C11.9515 20.6657 12.1132 20.7327 12.2817 20.7327C12.4502 20.7327 12.6119 20.6657 12.7311 20.5466C12.8502 20.4274 12.9172 20.2658 12.9172 20.0972V19.055H14.2531V20.0972C14.2531 20.2658 14.3201 20.4274 14.4392 20.5466C14.5584 20.6657 14.72 20.7327 14.8886 20.7327C15.0571 20.7327 15.2187 20.6657 15.3379 20.5466C15.4571 20.4274 15.524 20.2658 15.524 20.0972V17.208C15.5241 16.138 14.6543 15.2676 13.5852 15.2676ZM12.9173 17.7839V17.2079C12.9173 16.8388 13.217 16.5384 13.5853 16.5384C13.9536 16.5384 14.2532 16.8388 14.2532 17.2079V17.7839H12.9173ZM17.868 16.5385C18.1983 16.5385 18.4825 16.7847 18.5291 17.1113C18.5529 17.2781 18.6421 17.4287 18.7769 17.5298C18.9117 17.631 19.0812 17.6744 19.2481 17.6506C19.4149 17.6268 19.5655 17.5376 19.6666 17.4028C19.7677 17.268 19.8112 17.0985 19.7874 16.9317C19.6519 15.983 18.8268 15.2676 17.868 15.2676C16.7989 15.2676 15.9291 16.138 15.9291 17.208V18.7924C15.9291 19.8623 16.799 20.7327 17.868 20.7327C18.7195 20.7327 19.4839 20.1626 19.7266 19.3464C19.7504 19.2664 19.7582 19.1826 19.7496 19.0995C19.7409 19.0165 19.716 18.9361 19.6763 18.8627C19.6366 18.7893 19.5827 18.7244 19.518 18.6719C19.4532 18.6193 19.3786 18.58 19.2986 18.5562C19.2186 18.5324 19.1348 18.5246 19.0518 18.5332C18.9687 18.5418 18.8883 18.5667 18.8149 18.6065C18.7415 18.6462 18.6767 18.7 18.6241 18.7648C18.5715 18.8296 18.5322 18.9041 18.5084 18.9841C18.4247 19.2654 18.1614 19.4618 17.868 19.4618C17.4997 19.4618 17.2001 19.1616 17.2001 18.7925V17.208C17.2 16.8388 17.4997 16.5385 17.868 16.5385ZM30.53 15.2676C29.4609 15.2676 28.5911 16.138 28.5911 17.208V18.7924C28.5911 19.8623 29.4609 20.7327 30.53 20.7327C31.599 20.7327 32.4688 19.8623 32.4688 18.7924V17.208C32.4688 16.138 31.599 15.2676 30.53 15.2676ZM31.1979 18.7923C31.1979 19.1614 30.8983 19.4617 30.53 19.4617C30.1617 19.4617 29.862 19.1614 29.862 18.7923V17.2079C29.862 16.8388 30.1617 16.5384 30.53 16.5384C30.8983 16.5384 31.1979 16.8388 31.1979 17.2079V18.7923ZM26.4335 15.2676H25.13C24.9615 15.2676 24.7999 15.3345 24.6807 15.4537C24.5615 15.5729 24.4946 15.7345 24.4946 15.903V20.0972C24.4946 20.4482 24.779 20.7327 25.13 20.7327C25.4811 20.7327 25.7655 20.4482 25.7655 20.0972V19.1483H26.4335C27.5027 19.1483 28.3725 18.2778 28.3725 17.208C28.3724 16.138 27.5027 15.2676 26.4335 15.2676ZM26.4335 17.8772H25.7655V16.5384H26.4335C26.8019 16.5384 27.1016 16.8388 27.1016 17.2079C27.1016 17.577 26.8018 17.8772 26.4335 17.8772ZM22.3345 18.0001L23.9821 16.4538C24.043 16.3967 24.092 16.3282 24.1264 16.2521C24.1607 16.1761 24.1798 16.094 24.1824 16.0106C24.1851 15.9272 24.1712 15.8441 24.1418 15.766C24.1123 15.6879 24.0677 15.6164 24.0106 15.5556C23.9535 15.4947 23.8849 15.4457 23.8089 15.4113C23.7328 15.377 23.6508 15.3579 23.5673 15.3553C23.4839 15.3526 23.4008 15.3664 23.3227 15.3959C23.2447 15.4254 23.1731 15.47 23.1123 15.5271L21.4827 17.0566V15.9031C21.4827 15.7346 21.4157 15.573 21.2966 15.4538C21.1774 15.3346 21.0158 15.2677 20.8472 15.2677C20.6787 15.2677 20.5171 15.3346 20.3979 15.4538C20.2787 15.573 20.2118 15.7346 20.2118 15.9031V20.0972C20.2118 20.2658 20.2787 20.4274 20.3979 20.5466C20.5171 20.6657 20.6787 20.7327 20.8472 20.7327C21.0158 20.7327 21.1774 20.6657 21.2966 20.5466C21.4157 20.4274 21.4827 20.2658 21.4827 20.0972V18.9438L23.2054 20.5606C23.3231 20.6713 23.4786 20.7329 23.6402 20.7327C23.7676 20.7327 23.8921 20.6945 23.9975 20.6229C24.1029 20.5513 24.1843 20.4496 24.2312 20.3312C24.2781 20.2127 24.2883 20.0828 24.2605 19.9585C24.2327 19.8342 24.1682 19.721 24.0752 19.6338L22.3345 18.0001ZM35.7438 15.2676H33.1369C32.7859 15.2676 32.5015 15.5521 32.5015 15.903C32.5015 16.254 32.7859 16.5385 33.1369 16.5385H33.8048V20.0971C33.8048 20.4481 34.0892 20.7326 34.4402 20.7326C34.7913 20.7326 35.0757 20.4481 35.0757 20.0971V16.5385H35.7438C35.9123 16.5385 36.074 16.4716 36.1931 16.3524C36.3123 16.2332 36.3793 16.0716 36.3793 15.903C36.3793 15.552 36.0948 15.2676 35.7438 15.2676Z" fill="#EE3835"/>
<path d="M5.52014 19.005C6.07452 19.005 6.52393 18.5551 6.52393 18.0002C6.52393 17.4452 6.07452 16.9954 5.52014 16.9954C4.96577 16.9954 4.51636 17.4452 4.51636 18.0002C4.51636 18.5551 4.96577 19.005 5.52014 19.005Z" fill="#EE3835"/>
<path d="M37.8612 19.005C38.4156 19.005 38.865 18.5551 38.865 18.0002C38.865 17.4452 38.4156 16.9954 37.8612 16.9954C37.3068 16.9954 36.8574 17.4452 36.8574 18.0002C36.8574 18.5551 37.3068 19.005 37.8612 19.005Z" fill="#EE3835"/>
<path d="M23.1204 10.3107C23.0679 10.3107 23.016 10.3013 22.9669 10.2829L21.6905 9.80305L20.414 10.2829C20.3464 10.3083 20.2736 10.3166 20.202 10.3069C20.1305 10.2972 20.0625 10.2698 20.0041 10.2273C19.9457 10.1848 19.8987 10.1284 19.8674 10.0633C19.8361 9.99824 19.8214 9.92639 19.8246 9.85422L19.8859 8.49059L19.0356 7.42343C18.9906 7.36689 18.9603 7.30009 18.9474 7.22899C18.9346 7.15789 18.9395 7.0847 18.9618 7.01597C18.984 6.94726 19.023 6.88515 19.0752 6.83521C19.1274 6.78528 19.1912 6.74907 19.2608 6.72984L20.5751 6.36686L21.3261 5.22759C21.3659 5.16732 21.42 5.11786 21.4835 5.08363C21.5471 5.04941 21.6181 5.03149 21.6903 5.03149C21.7625 5.03149 21.8336 5.04941 21.8972 5.08363C21.9607 5.11786 22.0148 5.16732 22.0545 5.22759L22.8057 6.36686L24.1201 6.72984C24.1897 6.74908 24.2534 6.7853 24.3056 6.83523C24.3578 6.88517 24.3968 6.94727 24.4191 7.01597C24.4414 7.0847 24.4463 7.15788 24.4334 7.22898C24.4206 7.30008 24.3903 7.36689 24.3453 7.42343L23.4953 8.49051L23.5565 9.85422C23.5597 9.9264 23.545 9.99824 23.5137 10.0633C23.4824 10.1284 23.4354 10.1848 23.377 10.2273C23.3024 10.2815 23.2126 10.3107 23.1204 10.3107Z" fill="#FECF05"/>
<path d="M27.9537 9.43653C28.5081 9.43653 28.9575 8.98663 28.9575 8.43165C28.9575 7.87666 28.5081 7.42676 27.9537 7.42676C27.3994 7.42676 26.95 7.87666 26.95 8.43165C26.95 8.98663 27.3994 9.43653 27.9537 9.43653Z" fill="white"/>
<path d="M15.4274 9.43653C15.9817 9.43653 16.4312 8.98663 16.4312 8.43165C16.4312 7.87666 15.9817 7.42676 15.4274 7.42676C14.873 7.42676 14.4236 7.87666 14.4236 8.43165C14.4236 8.98663 14.873 9.43653 15.4274 9.43653Z" fill="white"/>
<path d="M23.1206 30.6701C23.0689 30.6701 23.017 30.6609 22.9672 30.6422L21.6907 30.1624L20.4143 30.6422C20.3466 30.6675 20.2738 30.6757 20.2023 30.6659C20.1307 30.6562 20.0627 30.6288 20.0043 30.5864C19.9459 30.5439 19.899 30.4876 19.8677 30.4226C19.8364 30.3575 19.8217 30.2857 19.8249 30.2136L19.8861 28.8499L19.0359 27.7828C18.9909 27.7262 18.9606 27.6594 18.9477 27.5883C18.9348 27.5172 18.9397 27.4441 18.962 27.3753C18.9843 27.3066 19.0233 27.2445 19.0754 27.1946C19.1276 27.1447 19.1914 27.1085 19.261 27.0893L20.5753 26.7263L21.3264 25.587C21.3661 25.5267 21.4202 25.4773 21.4838 25.443C21.5473 25.4088 21.6184 25.3909 21.6906 25.3909C21.7628 25.3909 21.8339 25.4088 21.8975 25.443C21.9611 25.4773 22.0151 25.5267 22.0549 25.587L22.806 26.7263L24.1203 27.0894C24.1899 27.1087 24.2536 27.1449 24.3058 27.1949C24.358 27.2448 24.3969 27.3069 24.4192 27.3756C24.4415 27.4443 24.4465 27.5174 24.4336 27.5885C24.4208 27.6596 24.3905 27.7264 24.3455 27.7829L23.4954 28.8499L23.5567 30.2136C23.5599 30.2858 23.5452 30.3576 23.5139 30.4227C23.4826 30.4878 23.4356 30.5441 23.3772 30.5866C23.3026 30.6409 23.2128 30.6701 23.1206 30.6701Z" fill="#FECF05"/>
<path d="M27.9537 28.5725C28.5081 28.5725 28.9575 28.1226 28.9575 27.5676C28.9575 27.0126 28.5081 26.5627 27.9537 26.5627C27.3994 26.5627 26.95 27.0126 26.95 27.5676C26.95 28.1226 27.3994 28.5725 27.9537 28.5725Z" fill="white"/>
<path d="M15.4274 28.5725C15.9817 28.5725 16.4312 28.1226 16.4312 27.5676C16.4312 27.0126 15.9817 26.5627 15.4274 26.5627C14.873 26.5627 14.4236 27.0126 14.4236 27.5676C14.4236 28.1226 14.873 28.5725 15.4274 28.5725Z" fill="white"/>
</g>
<defs>
<clipPath id="clip0_695_1920">
<rect width="43.3813" height="36" fill="white"/>
</clipPath>
</defs>
</svg>
