<svg width="35" height="35" viewBox="0 0 35 35" fill="none" xmlns="http://www.w3.org/2000/svg">
<g clip-path="url(#clip0_695_1839)">
<path d="M11.022 9.81669L8.16523 6.49389C8.11712 6.43794 8.05847 6.39202 7.99261 6.35874C7.92676 6.32546 7.855 6.30547 7.78142 6.29993C7.70784 6.29438 7.63389 6.30339 7.5638 6.32642C7.4937 6.34946 7.42883 6.38608 7.37288 6.43418L5.59484 7.96284C5.48192 8.06004 5.4122 8.19809 5.401 8.34666C5.38981 8.49523 5.43805 8.64217 5.53514 8.75519L8.39191 12.078C8.44463 12.1394 8.51003 12.1887 8.58361 12.2225C8.65719 12.2562 8.73721 12.2736 8.81816 12.2735C8.95252 12.2736 9.08244 12.2254 9.18418 12.1377L10.9622 10.609C11.0752 10.5119 11.1449 10.3738 11.1561 10.2252C11.1673 10.0767 11.1191 9.92972 11.022 9.81669Z" fill="#FEDF30"/>
<path d="M9.35068 5.47487L8.14437 4.07177C8.09626 4.01582 8.03761 3.9699 7.97176 3.93662C7.9059 3.90334 7.83414 3.88335 7.76056 3.87781C7.68699 3.87226 7.61304 3.88127 7.54294 3.9043C7.47284 3.92734 7.40797 3.96396 7.35202 4.01207L3.20324 7.57893C3.09032 7.67613 3.0206 7.81418 3.0094 7.96275C2.99821 8.11132 3.04645 8.25826 3.14354 8.37128L4.34984 9.77438C4.40256 9.83582 4.46796 9.88511 4.54154 9.91886C4.61512 9.95262 4.69514 9.97003 4.7761 9.9699C4.91045 9.97004 5.04037 9.92183 5.14212 9.83409L9.2909 6.26722C9.40383 6.17003 9.47357 6.03199 9.48478 5.88342C9.49599 5.73485 9.44775 5.5879 9.35068 5.47487Z" fill="#D7AA02"/>
<path d="M29.6097 8.34662C29.5985 8.19803 29.5287 8.05999 29.4157 7.96284L27.6377 6.43418C27.5817 6.38608 27.5169 6.34946 27.4468 6.32642C27.3767 6.30339 27.3027 6.29438 27.2291 6.29993C27.1556 6.30547 27.0838 6.32546 27.018 6.35874C26.9521 6.39202 26.8934 6.43794 26.8453 6.49389L23.9886 9.81669C23.8914 9.9297 23.8432 10.0767 23.8544 10.2252C23.8656 10.3738 23.9354 10.5119 24.0483 10.609L25.8264 12.1377C25.9282 12.2254 26.0581 12.2737 26.1925 12.2735C26.2734 12.2736 26.3535 12.2562 26.427 12.2225C26.5006 12.1887 26.566 12.1394 26.6187 12.078L29.4755 8.75519C29.5726 8.64215 29.6208 8.4952 29.6097 8.34662Z" fill="#FEDF30"/>
<path d="M31.8075 7.57874L27.6586 4.01188C27.6027 3.96366 27.5379 3.92697 27.4677 3.90393C27.3976 3.88089 27.3236 3.87196 27.25 3.87763C27.1014 3.88884 26.9634 3.9586 26.8663 4.07158L25.6599 5.47469C25.5628 5.58768 25.5146 5.73462 25.5258 5.8832C25.537 6.03178 25.6067 6.16982 25.7197 6.26696L29.8686 9.83382C29.9245 9.88193 29.9894 9.91854 30.0595 9.94157C30.1296 9.9646 30.2036 9.9736 30.2771 9.96804C30.3507 9.96249 30.4225 9.9425 30.4883 9.90922C30.5542 9.87593 30.6128 9.83 30.6609 9.77404L31.8672 8.37094C31.9153 8.31501 31.9519 8.25015 31.9749 8.18006C31.998 8.10998 32.007 8.03604 32.0014 7.96247C31.9959 7.88891 31.9759 7.81716 31.9426 7.75132C31.9093 7.68548 31.8634 7.62684 31.8075 7.57874Z" fill="#D7AA02"/>
<path d="M15.8604 3.15088H19.3081V8.07485H15.8604V3.15088Z" fill="#0055A3"/>
<path d="M19.6981 0H13.3634C12.7691 0 12.2874 0.48176 12.2874 1.07604V2.38325C12.2874 2.97753 12.7691 3.45929 13.3634 3.45929H19.6642L21.1941 3.0469V0.438536L19.6981 0Z" fill="#0473CE"/>
<path d="M21.8047 0H19.5574C20.1517 0 20.6334 0.48176 20.6334 1.07604V2.38325C20.6334 2.97753 20.1517 3.45929 19.5574 3.45929H21.8047C22.399 3.45929 22.8808 2.97753 22.8808 2.38325V1.07604C22.8808 0.48176 22.399 0 21.8047 0Z" fill="#0055A3"/>
<path d="M13.8783 34.5166C6.16666 32.4699 1.57432 24.5592 3.621 16.8476C5.27124 10.6296 10.7339 6.43964 16.8306 6.12261C18.2952 6.0465 31.1133 8.39754 31.1133 20.1118C31.1133 28.6954 23.2833 35.4989 16.4603 34.9587C15.5881 34.8894 14.7239 34.7414 13.8783 34.5166Z" fill="#26A6FE"/>
<path d="M17.5841 6.10693C17.206 6.10693 16.8313 6.12162 16.4604 6.15016C23.9139 6.72361 29.7833 12.953 29.7833 20.5535C29.7833 28.154 23.9138 34.3834 16.4604 34.9569C16.8313 34.9854 17.206 35.0001 17.5841 35.0001C25.5627 35.0001 32.0306 28.5322 32.0306 20.5535C32.0306 12.5748 25.5628 6.10693 17.5841 6.10693Z" fill="#0593FC"/>
<path d="M17.584 31.8038C23.7974 31.8038 28.8343 26.7669 28.8343 20.5535C28.8343 14.3402 23.7974 9.30322 17.584 9.30322C11.3707 9.30322 6.33374 14.3402 6.33374 20.5535C6.33374 26.7669 11.3707 31.8038 17.584 31.8038Z" fill="#FFF3EF"/>
<path d="M19.0378 9.39735C18.1787 9.28492 17.3094 9.27187 16.4473 9.35847C16.5615 9.36986 16.6758 9.38244 16.7904 9.39735C22.9517 10.2002 27.2956 15.8458 26.4927 22.0071C25.8042 27.2902 21.5552 31.2366 16.4735 31.7483C22.4999 32.3495 27.9521 28.0538 28.74 22.0071C29.543 15.8458 25.1991 10.2002 19.0378 9.39735Z" fill="#F1F0F0"/>
<path d="M17.5866 12.5185C17.4479 12.5185 17.3149 12.4634 17.2168 12.3653C17.1188 12.2672 17.0637 12.1342 17.0637 11.9956V10.551C17.0637 10.4123 17.1188 10.2793 17.2168 10.1812C17.3149 10.0832 17.4479 10.0281 17.5866 10.0281C17.7253 10.0281 17.8583 10.0832 17.9563 10.1812C18.0544 10.2793 18.1095 10.4123 18.1095 10.551V11.9956C18.1095 12.0642 18.0959 12.1322 18.0697 12.1957C18.0434 12.2591 18.0049 12.3168 17.9563 12.3653C17.9078 12.4139 17.8501 12.4524 17.7867 12.4787C17.7232 12.5049 17.6552 12.5185 17.5866 12.5185ZM23.6819 15.0162C23.5785 15.0162 23.4774 14.9855 23.3914 14.9281C23.3054 14.8706 23.2383 14.789 23.1988 14.6934C23.1592 14.5979 23.1488 14.4927 23.169 14.3913C23.1892 14.2899 23.239 14.1967 23.3122 14.1236L24.3337 13.1021C24.3822 13.0535 24.4399 13.015 24.5033 12.9887C24.5668 12.9624 24.6348 12.9489 24.7034 12.9489C24.7721 12.9489 24.8401 12.9624 24.9035 12.9887C24.967 13.015 25.0246 13.0535 25.0731 13.1021C25.1217 13.1506 25.1602 13.2083 25.1865 13.2717C25.2128 13.3352 25.2263 13.4032 25.2263 13.4718C25.2263 13.5405 25.2127 13.6085 25.1865 13.6719C25.1602 13.7354 25.1216 13.793 25.0731 13.8416L24.0516 14.8631C24.0031 14.9117 23.9454 14.9502 23.882 14.9765C23.8186 15.0028 23.7505 15.0162 23.6819 15.0162ZM27.6703 21.0924H26.2257C26.157 21.0924 26.089 21.0788 26.0256 21.0526C25.9621 21.0263 25.9045 20.9878 25.8559 20.9392C25.8074 20.8907 25.7689 20.833 25.7426 20.7696C25.7163 20.7062 25.7028 20.6382 25.7028 20.5695C25.7028 20.5008 25.7163 20.4328 25.7426 20.3694C25.7689 20.3059 25.8074 20.2483 25.8559 20.1998C25.9045 20.1512 25.9621 20.1127 26.0256 20.0864C26.089 20.0601 26.157 20.0466 26.2257 20.0466H27.6703C27.7389 20.0466 27.8069 20.0601 27.8704 20.0864C27.9338 20.1127 27.9915 20.1512 28.04 20.1998C28.0886 20.2483 28.1271 20.3059 28.1534 20.3694C28.1796 20.4328 28.1932 20.5008 28.1932 20.5695C28.1932 20.6382 28.1796 20.7062 28.1534 20.7696C28.1271 20.833 28.0886 20.8907 28.04 20.9392C27.9915 20.9878 27.9338 21.0263 27.8704 21.0526C27.8069 21.0788 27.7389 21.0924 27.6703 21.0924ZM24.7495 28.2091C24.6808 28.2092 24.6128 28.1957 24.5493 28.1694C24.4858 28.1431 24.4282 28.1046 24.3797 28.056L23.3582 27.0345C23.3096 26.9859 23.2711 26.9283 23.2448 26.8648C23.2186 26.8014 23.205 26.7334 23.205 26.6647C23.2051 26.526 23.2602 26.393 23.3582 26.295C23.4563 26.1969 23.5893 26.1418 23.728 26.1418C23.8667 26.1419 23.9997 26.197 24.0977 26.295L25.1192 27.3165C25.1923 27.3897 25.2421 27.4828 25.2623 27.5842C25.2824 27.6857 25.2721 27.7908 25.2325 27.8863C25.1929 27.9819 25.1259 28.0635 25.0399 28.121C24.9539 28.1784 24.8529 28.2091 24.7495 28.2091ZM17.6518 31.1761C17.5831 31.1761 17.5151 31.1626 17.4516 31.1363C17.3882 31.1101 17.3306 31.0716 17.282 31.023C17.2335 30.9744 17.1949 30.9168 17.1687 30.8534C17.1424 30.7899 17.1289 30.7219 17.1289 30.6533V29.2086C17.1289 29.1399 17.1424 29.0719 17.1687 29.0085C17.1949 28.945 17.2335 28.8874 17.282 28.8388C17.3306 28.7903 17.3882 28.7518 17.4516 28.7255C17.5151 28.6992 17.5831 28.6857 17.6518 28.6857C17.7204 28.6857 17.7884 28.6992 17.8519 28.7255C17.9153 28.7518 17.9729 28.7903 18.0215 28.8388C18.07 28.8874 18.1086 28.945 18.1348 29.0085C18.1611 29.0719 18.1746 29.1399 18.1746 29.2086V30.6533C18.1746 30.7219 18.1611 30.7899 18.1348 30.8534C18.1086 30.9168 18.07 30.9744 18.0215 31.023C17.9729 31.0716 17.9153 31.1101 17.8519 31.1363C17.7884 31.1626 17.7204 31.1761 17.6518 31.1761ZM10.5349 28.2552C10.4663 28.2554 10.3982 28.2419 10.3348 28.2156C10.2714 28.1893 10.2137 28.1507 10.1653 28.1021C10.0672 28.004 10.0121 27.871 10.0121 27.7323C10.0121 27.5937 10.0672 27.4607 10.1653 27.3626L11.1868 26.3411C11.2352 26.292 11.2929 26.253 11.3564 26.2263C11.42 26.1996 11.4882 26.1857 11.5572 26.1855C11.6261 26.1853 11.6945 26.1987 11.7582 26.225C11.822 26.2513 11.8799 26.2899 11.9286 26.3387C11.9774 26.3874 12.016 26.4453 12.0423 26.5091C12.0686 26.5728 12.082 26.6412 12.0818 26.7101C12.0816 26.7791 12.0677 26.8473 12.041 26.9109C12.0143 26.9744 11.9753 27.0321 11.9262 27.0806L10.9047 28.1021C10.8562 28.1507 10.7986 28.1893 10.7351 28.2155C10.6717 28.2418 10.6036 28.2553 10.5349 28.2552ZM9.01266 21.1575H7.56805C7.42937 21.1575 7.29638 21.1025 7.19832 21.0044C7.10026 20.9063 7.04517 20.7733 7.04517 20.6347C7.04517 20.496 7.10026 20.363 7.19832 20.2649C7.29638 20.1669 7.42937 20.1118 7.56805 20.1118H9.01266C9.15134 20.1118 9.28433 20.1669 9.38239 20.2649C9.48046 20.363 9.53554 20.496 9.53554 20.6347C9.53554 20.7733 9.48046 20.9063 9.38239 21.0044C9.28433 21.1025 9.15134 21.1575 9.01266 21.1575ZM11.5104 15.0622C11.4417 15.0623 11.3737 15.0489 11.3102 15.0226C11.2468 14.9963 11.1892 14.9578 11.1407 14.9091L10.1192 13.8876C9.91497 13.6834 9.91497 13.3524 10.1192 13.1482C10.3234 12.944 10.6544 12.9439 10.8586 13.1482L11.8801 14.1697C11.9533 14.2428 12.003 14.336 12.0232 14.4374C12.0434 14.5388 12.033 14.6439 11.9934 14.7395C11.9539 14.835 11.8868 14.9167 11.8009 14.9741C11.7149 15.0316 11.6138 15.0622 11.5104 15.0622Z" fill="#B6C4CF"/>
<path d="M17.5843 20.3013C17.4353 20.3013 17.2924 20.2421 17.187 20.1368C17.0817 20.0314 17.0225 19.8885 17.0225 19.7395V15.9615C17.0225 15.6512 17.2739 15.3997 17.5843 15.3997C17.8947 15.3997 18.1461 15.6512 18.1461 15.9615V19.7395C18.1461 19.8885 18.087 20.0314 17.9816 20.1368C17.8762 20.2421 17.7333 20.3013 17.5843 20.3013ZM22.3114 25.7115C22.2376 25.7116 22.1645 25.6972 22.0963 25.6689C22.0281 25.6407 21.9662 25.5992 21.9141 25.547L17.8238 21.4567C17.7184 21.3513 17.6593 21.2084 17.6593 21.0594C17.6593 20.9104 17.7184 20.7675 17.8238 20.6622C17.9292 20.5568 18.0721 20.4976 18.2211 20.4976C18.3702 20.4976 18.5131 20.5568 18.6185 20.6622L22.7087 24.7524C22.7872 24.831 22.8407 24.9311 22.8624 25.0401C22.8841 25.1491 22.873 25.262 22.8304 25.3647C22.7879 25.4674 22.7159 25.5551 22.6235 25.6168C22.5311 25.6786 22.4225 25.7115 22.3114 25.7115Z" fill="#678D98"/>
<path d="M17.6593 21.6264C17.0368 21.6264 16.5303 21.1199 16.5303 20.4974C16.5303 19.8749 17.0368 19.3684 17.6593 19.3684C18.2819 19.3684 18.7883 19.8749 18.7883 20.4974C18.7883 21.1199 18.2819 21.6264 17.6593 21.6264Z" fill="#3E5959"/>
</g>
<defs>
<clipPath id="clip0_695_1839">
<rect width="35" height="35" fill="white"/>
</clipPath>
</defs>
</svg>
