<svg width="34" height="35" viewBox="0 0 34 35" fill="none" xmlns="http://www.w3.org/2000/svg">
<g clip-path="url(#clip0_695_1943)">
<path d="M16.7507 1.50439C7.49951 1.50439 0 9.00391 0 18.2551C0 24.9471 3.92475 30.7217 9.5976 33.4049C9.77762 33.214 10.0319 33.0939 10.3149 33.0939H23.1865C23.4695 33.0939 23.7238 33.214 23.9038 33.4049C29.5767 30.7217 33.5014 24.9471 33.5014 18.2551C33.5014 9.00391 26.0018 1.50439 16.7507 1.50439Z" fill="#7255CE"/>
<path d="M22.6747 33.1718L21.7472 29.7101C20.1887 30.2789 18.506 30.5895 16.7506 30.5895C14.9951 30.5895 13.3123 30.2789 11.7538 29.71L10.8262 33.1718H22.6747Z" fill="#2D3C6B"/>
<path d="M16.4672 32.7726C15.6588 31.9033 16.7507 31.2713 16.7507 31.2713L16.9992 30.5868C16.9164 30.5883 16.8337 30.5896 16.7506 30.5896C14.9951 30.5896 13.3123 30.279 11.7538 29.71L10.8262 33.1718H16.5511C16.575 33.104 16.5798 33.0309 16.565 32.9605C16.5502 32.8901 16.5164 32.8251 16.4672 32.7726Z" fill="#222D5B"/>
<path d="M16.7506 30.7358C24.7979 30.7358 31.3215 24.2122 31.3215 16.1649C31.3215 8.1176 24.7979 1.59399 16.7506 1.59399C8.7033 1.59399 2.17969 8.1176 2.17969 16.1649C2.17969 24.2122 8.7033 30.7358 16.7506 30.7358Z" fill="#DAE2FE"/>
<path d="M26.8718 26.6457C26.7992 26.5545 26.7582 26.444 26.7352 26.3424C26.7171 26.2622 26.6736 26.1901 26.611 26.1367C26.5485 26.0834 26.4703 26.0517 26.3883 26.0465C25.729 26.0045 25.5187 25.5988 25.4571 25.2726C25.4163 25.0562 25.203 24.9182 24.9895 24.9723C21.8813 25.7606 15.8323 27.1202 10.8137 22.1017C6.2258 17.5137 7.53462 9.84286 7.9538 7.92076C8.00022 7.70805 7.85945 7.49781 7.64435 7.46452C7.0392 7.37071 6.87258 6.91523 6.83238 6.58883C6.81112 6.41605 6.68142 6.27213 6.50865 6.25073C6.36739 6.23323 6.26395 6.1879 6.18765 6.12842C3.70401 8.74155 2.17969 12.2751 2.17969 16.1648C2.17969 24.2121 8.70328 30.7356 16.7506 30.7356C20.6828 30.7356 24.2506 29.1775 26.8718 26.6457Z" fill="#ACBBEF"/>
<path d="M16.7507 31.2712C8.42098 31.2712 1.64429 24.4944 1.64429 16.1647C1.64429 7.83505 8.42092 1.05835 16.7507 1.05835C25.0804 1.05835 31.857 7.83505 31.857 16.1647C31.857 24.4944 25.0803 31.2712 16.7507 31.2712ZM16.7507 2.12931C9.01157 2.12931 2.71525 8.42557 2.71525 16.1647C2.71525 23.9039 9.0115 30.2002 16.7507 30.2002C24.4898 30.2002 30.7861 23.9039 30.7861 16.1647C30.786 8.42557 24.4897 2.12931 16.7507 2.12931Z" fill="#E9EFFF"/>
<path d="M26.7352 26.3425C26.7173 26.2638 26.6749 26.1928 26.614 26.1399C24.0771 28.6487 20.5919 30.2003 16.7507 30.2003C9.01157 30.2003 2.71525 23.904 2.71525 16.1649C2.71525 12.3517 4.24449 8.88948 6.72102 6.35744C6.66502 6.30055 6.59207 6.26117 6.50866 6.25085C6.10718 6.20121 6.00675 5.92896 5.98719 5.73561C5.98261 5.69314 5.97036 5.65186 5.95103 5.61377C3.28826 8.33862 1.64429 12.0631 1.64429 16.1649C1.64429 24.4945 8.42098 31.2713 16.7507 31.2713C20.9201 31.2713 24.7003 29.5733 27.4364 26.8325C26.9582 26.8959 26.7916 26.5925 26.7352 26.3425Z" fill="#BEC8F7"/>
<path d="M4.87695 12.9822L4.87839 12.9836L16.7507 16.1648L8.05947 7.47363C6.47642 9.05676 5.41578 10.9643 4.87695 12.9822Z" fill="#FFDD40"/>
<path d="M4.87839 12.9838L7.48598 13.6825C7.34719 11.089 7.75269 8.84313 7.95384 7.92095C7.97525 7.82284 7.95704 7.72024 7.90318 7.6355C6.40723 9.18621 5.39766 11.0323 4.87695 12.9824L4.87839 12.9838Z" fill="#FFC839"/>
<path d="M19.9314 4.29064C17.8471 3.7351 15.6536 3.73515 13.5693 4.29078L13.5694 4.29249L16.7506 16.1648L19.9317 4.29249L19.9314 4.29064Z" fill="#FF7186"/>
<path d="M4.87695 19.3474C5.41578 21.3653 6.47642 23.2729 8.05954 24.8559L16.7507 16.1648L4.87839 19.346L4.87695 19.3474Z" fill="#FF9100"/>
<path d="M10.8138 22.1016C9.71397 21.0017 8.95369 19.7246 8.43811 18.3921L4.87839 19.3459L4.87695 19.3473C5.41578 21.3653 6.47642 23.2728 8.05954 24.8559L10.8138 22.1016Z" fill="#FF6D00"/>
<path d="M28.6244 12.9829C28.0857 10.9648 27.025 9.05689 25.4417 7.47363L16.7505 16.1648L28.6228 12.9836L28.6244 12.9829Z" fill="#8EEF5B"/>
<path d="M13.5697 28.0389C15.6544 28.5946 17.8483 28.5944 19.9329 28.0385L19.9317 28.0371L16.7505 16.1648L13.5693 28.0371L13.5697 28.0389Z" fill="#5C45BF"/>
<path d="M19.9331 28.0386L19.9319 28.0371L19.3189 25.7492C17.7736 25.7111 16.1176 25.4225 14.471 24.6731L13.5696 28.0371L13.57 28.039C15.6547 28.5946 17.8485 28.5945 19.9331 28.0386Z" fill="#352A9B"/>
<path d="M28.6245 19.3471L28.623 19.3459L16.7507 16.1648L25.4419 24.8559C27.025 23.2728 28.0856 21.3651 28.6245 19.3471Z" fill="#2E8BE6"/>
<path d="M4.87631 19.3455L4.87823 19.3461L16.7505 16.1649L4.87823 12.9836C4.29879 15.1462 4.33406 17.3285 4.87631 19.3455Z" fill="#FFC839"/>
<path d="M4.8783 19.346L8.43795 18.3922C7.83471 16.8331 7.56704 15.1985 7.48582 13.6824L4.87823 12.9836C4.29879 15.1462 4.33406 17.3285 4.87631 19.3455L4.8783 19.346Z" fill="#FFB332"/>
<path d="M13.5683 4.29102C11.4855 4.85208 9.58587 5.94885 8.05859 7.47217L8.05955 7.47367L16.7507 16.1648L13.5695 4.29245L13.5683 4.29102Z" fill="#FF4155"/>
<path d="M8.05908 24.8579C9.53466 26.336 11.407 27.4577 13.5696 28.0372L16.7507 16.1648L8.05956 24.8559L8.05908 24.8579Z" fill="#FFB332"/>
<path d="M14.471 24.6731C13.2293 24.108 11.9931 23.2811 10.8138 22.1018L8.05956 24.8561L8.05908 24.858C9.53466 26.3361 11.407 27.4578 13.5696 28.0373L14.471 24.6731Z" fill="#FF9100"/>
<path d="M25.4428 7.47233C23.9671 5.99395 22.0947 4.87199 19.9319 4.29248L16.7507 16.1648L25.4419 7.4737L25.4428 7.47233Z" fill="#49D88B"/>
<path d="M19.9332 28.0385C22.0164 27.4774 23.9163 26.3803 25.4437 24.8566L25.4419 24.8559L16.7507 16.1648L19.9319 28.0371L19.9332 28.0385Z" fill="#7255CE"/>
<path d="M19.9319 28.0372L19.9332 28.0386C21.9403 27.4986 23.7823 26.4551 25.2789 25.0158C25.236 24.9896 25.1883 24.9723 25.1386 24.9649C25.0889 24.9574 25.0382 24.96 24.9895 24.9724C23.5804 25.3297 21.5668 25.8045 19.3188 25.7492L19.9319 28.0372Z" fill="#5C45BF"/>
<path d="M28.6249 12.9839L28.623 12.9836L16.7507 16.1649L28.623 19.3461C29.2025 17.1834 29.1672 15.001 28.6249 12.9839Z" fill="#4FABF7"/>
<path d="M16.7506 18.1345C17.8385 18.1345 18.7204 17.2526 18.7204 16.1647C18.7204 15.0767 17.8385 14.1948 16.7506 14.1948C15.6627 14.1948 14.7808 15.0767 14.7808 16.1647C14.7808 17.2526 15.6627 18.1345 16.7506 18.1345Z" fill="#E9EFFF"/>
<path d="M16.7511 16.9146C17.1653 16.9146 17.501 16.5788 17.501 16.1647C17.501 15.7505 17.1653 15.4148 16.7511 15.4148C16.337 15.4148 16.0012 15.7505 16.0012 16.1647C16.0012 16.5788 16.337 16.9146 16.7511 16.9146Z" fill="#3C5082"/>
<path d="M20.7794 12.136L20.0225 12.893C20.5973 13.467 21.0109 14.1822 21.2219 14.9667L22.2563 14.6896C21.9935 13.7099 21.4766 12.8331 20.7794 12.136Z" fill="#6FD832"/>
<path d="M21.3801 16.1648C21.3801 16.5791 21.3245 16.9806 21.2219 17.363L22.2563 17.6402C22.516 16.6738 22.516 15.6561 22.2564 14.6897L21.222 14.9669C21.3269 15.3575 21.3801 15.7603 21.3801 16.1648Z" fill="#2E8BE6"/>
<path d="M21.222 17.363C21.0109 18.1475 20.5973 18.8627 20.0225 19.4367L20.7794 20.1937C21.4766 19.4966 21.9935 18.6199 22.2564 17.6402L21.222 17.363Z" fill="#157DD1"/>
<path d="M20.0223 19.4365C19.4561 20.0026 18.744 20.4223 17.9485 20.6355L18.2257 21.67C19.2053 21.4073 20.0821 20.8905 20.7792 20.1935L20.0223 19.4365Z" fill="#5C45BF"/>
<path d="M18.2258 21.6701L17.9487 20.6357C17.1639 20.8463 16.3375 20.8461 15.5528 20.6353L15.2756 21.6697C16.2419 21.9294 17.2595 21.9295 18.2258 21.6701Z" fill="#352A9B"/>
<path d="M15.2758 21.6697L15.5529 20.6353C14.7686 20.4243 14.0536 20.0107 13.4796 19.436L12.7227 20.193C13.4196 20.8901 14.2963 21.4069 15.2758 21.6697Z" fill="#FF9100"/>
<path d="M12.7226 20.1929L13.4796 19.436C12.905 18.8619 12.4914 18.1469 12.2805 17.3625L11.2461 17.6397C11.5088 18.6192 12.0257 19.4959 12.7226 20.1929Z" fill="#FF6D00"/>
<path d="M12.1225 16.1648C12.1225 15.7506 12.178 15.3494 12.2805 14.9671L11.2461 14.6899C10.9866 15.6561 10.9867 16.6737 11.2462 17.6399L12.2806 17.3627C12.1756 16.972 12.1224 16.5693 12.1225 16.1648Z" fill="#FFB332"/>
<path d="M11.2461 14.69L12.2805 14.9671C12.4914 14.1828 12.9048 13.4677 13.4794 12.8937L12.7225 12.1367C12.0255 12.8338 11.5088 13.7105 11.2461 14.69Z" fill="#FFC839"/>
<path d="M12.7224 12.1368L13.4793 12.8937C14.0454 12.3276 14.7573 11.9077 15.5528 11.6943L15.2756 10.6599C14.296 10.9227 13.4194 11.4396 12.7224 12.1368Z" fill="#E80054"/>
<path d="M15.2754 10.6597L15.5526 11.694C16.3373 11.4831 17.1637 11.483 17.9485 11.6938L18.2257 10.6593C17.2593 10.3999 16.2417 10.4 15.2754 10.6597Z" fill="#FF4155"/>
<path d="M17.9487 11.6939C18.7332 11.9047 19.4484 12.3183 20.0226 12.893L20.7796 12.136C20.0824 11.4389 19.2056 10.9221 18.2259 10.6594L17.9487 11.6939Z" fill="#38C674"/>
<path d="M18.4588 4.09419L17.2742 6.75955C17.0726 7.21333 16.4286 7.21333 16.2269 6.75955L15.0424 4.09419C14.4886 2.84807 14.7594 1.38958 15.7237 0.425351C16.2908 -0.141784 17.2104 -0.141784 17.7775 0.425351C18.7417 1.38958 19.0126 2.84813 18.4588 4.09419Z" fill="#2D3C6B"/>
<path d="M16.3094 35.0001H17.1918C19.6057 34.9377 21.8921 34.3641 23.9478 33.3844C23.8552 33.2721 23.739 33.1817 23.6073 33.1196C23.4757 33.0576 23.3319 33.0255 23.1864 33.0256H10.3148C10.1693 33.0255 10.0256 33.0576 9.89392 33.1197C9.76227 33.1817 9.646 33.2721 9.55347 33.3844C11.6091 34.3641 13.8956 34.9377 16.3094 35.0001Z" fill="#3C5082"/>
<path d="M16.5736 33.0256H10.3148C10.1693 33.0255 10.0256 33.0576 9.89393 33.1196C9.76229 33.1817 9.64602 33.2721 9.55347 33.3844C11.6091 34.3641 13.8956 34.9376 16.3094 35H16.7506C15.982 34.2314 16.2348 33.6125 16.491 33.2837C16.5484 33.2103 16.5777 33.1188 16.5736 33.0256Z" fill="#2D3C6B"/>
<path d="M15.0424 4.09438L16.2269 6.75974C16.4286 7.21352 17.0726 7.21352 17.2742 6.75974L18.306 4.43801C16.9007 4.35528 17.1902 3.10375 17.1902 3.10375L16.4554 1.8927C15.41 1.55509 15.7237 0.425537 15.7237 0.425537C14.7594 1.38977 14.4886 2.84825 15.0424 4.09438Z" fill="#222D5B"/>
<path d="M16.7511 3.25635C16.3545 3.25635 16.0364 2.93268 16.0364 2.54235C16.0364 2.09384 16.4505 1.75342 16.8903 1.84196C17.0523 1.87423 17.198 1.96168 17.3027 2.08941C17.4074 2.21713 17.4645 2.37721 17.4644 2.54235C17.4643 2.94574 17.1348 3.25635 16.7511 3.25635Z" fill="#3C5082"/>
</g>
<defs>
<clipPath id="clip0_695_1943">
<rect width="33.5014" height="35" fill="white"/>
</clipPath>
</defs>
</svg>
