<svg width="232" height="105" viewBox="0 0 232 105" fill="none" xmlns="http://www.w3.org/2000/svg">
<mask id="mask0_1386_10" style="mask-type:luminance" maskUnits="userSpaceOnUse" x="-13" y="-8" width="74" height="75">
<path d="M13.6293 66.1308L-12.4 18.7244L34.9125 -7.35659L60.9418 40.0498L13.6293 66.1308Z" fill="white"/>
</mask>
<g mask="url(#mask0_1386_10)">
<g opacity="0.3">
<path d="M20.7265 55.8299C20.2186 55.3168 19.4298 54.3551 18.3068 52.8881C16.8093 50.9251 16.4133 50.1782 16.2424 49.7878C16.2349 49.7691 16.2268 49.7506 16.2186 49.7323C16.0368 49.2824 15.812 48.4335 15.72 45.8068C15.6542 43.8813 15.9164 40.8425 16.5196 36.5199C16.7739 34.7007 17.0736 32.8879 17.418 31.0836C13.6885 29.0741 10.045 26.9084 6.49712 24.5922C6.45728 24.5639 6.41804 24.5346 6.3794 24.5046C5.912 24.0989 1.7918 20.4913 0.916522 18.4695C0.430762 17.3451 0.860002 16.5748 1.42496 16.2296C3.82256 14.7554 5.29484 14.2967 6.34136 14.6861C6.80528 14.8519 7.8284 15.3488 11.1606 17.6796C13.7894 19.5326 16.5022 21.2631 19.2903 22.8655C20.3666 18.817 21.6105 14.8152 23.019 10.8704C23.0372 10.8244 23.0551 10.7796 23.0772 10.7348C24.6998 7.60176 26.982 3.81449 28.6509 3.55562C29.1374 3.48131 29.6124 3.63558 29.9551 3.98054C31.2147 5.24906 32.0031 6.26531 32.3617 7.09051C32.5686 7.5723 32.6436 8.00587 32.5941 8.41661C32.5384 8.91127 32.2928 10.026 30.8106 13.8048C29.1986 17.8546 27.8026 22.1904 26.6599 26.7124C27.9902 27.3493 29.1403 27.8776 30.233 28.3472C36.9852 31.2578 42.7378 33.13 47.3312 33.9028C48.6034 34.0892 48.9991 34.1881 49.1991 34.2554C49.7887 34.4501 50.1044 34.8054 50.265 35.072C50.305 35.1392 50.3388 35.2045 50.366 35.27C50.6089 35.8311 50.5532 36.6919 49.5972 37.2733C48.9936 37.641 47.8765 38.1903 46.1914 38.9428C43.8808 39.9735 43.0602 40.1797 42.6411 40.2462C42.1641 40.3218 41.2863 40.3407 38.7157 39.8187C36.8384 39.4331 33.8677 38.4478 29.8831 36.8851C28.2039 36.2243 26.5418 35.5209 24.8983 34.7758L24.8817 34.8764C23.6248 42.1367 23.1458 48.1783 23.4609 52.8268C23.5752 54.108 23.5723 54.5126 23.5557 54.7201C23.5095 55.2259 23.3226 55.6437 23.0113 55.9559C22.479 56.4912 21.5601 56.6632 20.7265 55.8299Z" fill="black"/>
</g>
</g>
<mask id="mask1_1386_10" style="mask-type:luminance" maskUnits="userSpaceOnUse" x="171" y="40" width="74" height="75">
<path d="M218.512 114.226L244.542 66.8196L197.229 40.7386L171.2 88.145L218.512 114.226Z" fill="white"/>
</mask>
<g mask="url(#mask1_1386_10)">
<g opacity="0.5">
<path d="M211.416 103.925C211.923 103.412 212.712 102.45 213.835 100.983C215.332 99.0203 215.728 98.2734 215.899 97.8829C215.907 97.8643 215.914 97.8458 215.923 97.8275C216.105 97.3776 216.33 96.5288 216.422 93.902C216.488 91.9765 216.225 88.9377 215.622 84.6151C215.368 82.7959 215.068 80.9832 214.724 79.1789C218.454 77.1693 222.097 75.0036 225.645 72.6875C225.685 72.6591 225.723 72.6299 225.763 72.5998C226.23 72.1941 230.35 68.5865 231.225 66.5647C231.711 65.4403 231.282 64.67 230.716 64.3248C228.319 62.8507 226.846 62.3919 225.8 62.7813C225.337 62.9471 224.313 63.444 220.981 65.7748C218.353 67.6278 215.64 69.3583 212.852 70.9607C211.776 66.9122 210.531 62.9104 209.122 58.9656C209.104 58.9196 209.086 58.8749 209.065 58.83C207.442 55.697 205.16 51.9097 203.491 51.6508C203.005 51.5765 202.53 51.7308 202.186 52.0758C200.928 53.3443 200.139 54.3605 199.78 55.1857C199.573 55.6675 199.498 56.1011 199.548 56.5118C199.603 57.0065 199.849 58.1212 201.331 61.9C202.944 65.9498 204.339 70.2856 205.482 74.8076C204.152 75.4445 203.001 75.9728 201.909 76.4424C195.157 79.3529 189.404 81.2252 184.81 81.998C183.538 82.1845 183.142 82.2833 182.943 82.3506C182.353 82.5453 182.037 82.9006 181.876 83.1672C181.837 83.2344 181.803 83.2997 181.776 83.3653C181.533 83.9263 181.588 84.7871 182.545 85.3685C183.148 85.7362 184.266 86.2855 185.95 87.0379C188.26 88.0687 189.081 88.2749 189.501 88.3414C189.978 88.417 190.856 88.4358 193.426 87.9139C195.303 87.5283 198.274 86.5429 202.258 84.9803C203.938 84.3195 205.6 83.6162 207.243 82.871L207.26 82.9716C208.516 90.2318 208.996 96.2735 208.681 100.922C208.567 102.203 208.569 102.608 208.586 102.815C208.633 103.321 208.819 103.739 209.131 104.051C209.662 104.586 210.582 104.758 211.416 103.925Z" fill="black"/>
</g>
</g>
<mask id="mask2_1386_10" style="mask-type:luminance" maskUnits="userSpaceOnUse" x="52" y="63" width="41" height="41">
<path d="M66.6443 63.1896L52.4 89.1323L78.2913 103.405L92.5356 77.4622L66.6443 63.1896Z" fill="white"/>
</mask>
<g mask="url(#mask2_1386_10)">
<g opacity="0.2">
<path d="M70.5282 68.8266C70.2502 69.1074 69.8186 69.6337 69.2041 70.4364C68.3846 71.5107 68.1679 71.9194 68.0744 72.1331C68.0702 72.1433 68.0659 72.1534 68.0613 72.1635C67.9618 72.4096 67.8388 72.8742 67.7884 74.3116C67.7524 75.3653 67.896 77.0283 68.2261 79.3938C68.3653 80.3894 68.5292 81.3813 68.7177 82.3687C66.6768 83.4684 64.6828 84.6536 62.7414 85.9211C62.7195 85.9366 62.698 85.9526 62.6769 85.969C62.4212 86.1911 60.1664 88.1653 59.6874 89.2717C59.4216 89.8869 59.6565 90.3085 59.9656 90.4974C61.2777 91.3042 62.0834 91.5552 62.6562 91.3421C62.91 91.2514 63.4699 90.9794 65.2934 89.7039C66.732 88.6899 68.2166 87.7429 69.7423 86.866C70.3312 89.0815 71.012 91.2715 71.7828 93.4302C71.7927 93.4554 71.8024 93.4798 71.8146 93.5044C72.7026 95.2189 73.9514 97.2915 74.8648 97.4331C75.131 97.4738 75.3909 97.3893 75.5785 97.2006C76.2678 96.5064 76.6993 95.9503 76.8955 95.4987C77.0086 95.235 77.0497 94.9978 77.0226 94.773C76.9922 94.5023 76.8577 93.8923 76.0466 91.8243C75.1645 89.6082 74.4006 87.2354 73.7752 84.7609C74.5033 84.4123 75.1326 84.1231 75.7305 83.8662C79.4256 82.2734 82.5736 81.2489 85.0874 80.826C85.7835 80.7239 86.0001 80.6698 86.1096 80.633C86.4321 80.5265 86.6049 80.332 86.6928 80.1861C86.7147 80.1494 86.7332 80.1136 86.7481 80.0778C86.881 79.7707 86.8506 79.2997 86.3274 78.9815C85.997 78.7803 85.3857 78.4797 84.4636 78.0679C83.1992 77.5038 82.75 77.391 82.5208 77.3546C82.2597 77.3132 81.7794 77.3029 80.3726 77.5885C79.3453 77.7996 77.7195 78.3388 75.539 79.1939C74.6202 79.5556 73.7106 79.9404 72.8112 80.3482L72.8022 80.2932C72.1143 76.3201 71.8521 73.0139 72.0246 70.47C72.0871 69.7688 72.0855 69.5475 72.0765 69.434C72.0512 69.1572 71.9488 68.9285 71.7786 68.7576C71.4872 68.4647 70.9844 68.3706 70.5282 68.8266Z" fill="black"/>
</g>
</g>
<mask id="mask3_1386_10" style="mask-type:luminance" maskUnits="userSpaceOnUse" x="102" y="-6" width="54" height="53">
<path d="M121.392 46.8925L102.8 13.032L136.593 -5.5966L155.185 28.2639L121.392 46.8925Z" fill="white"/>
</mask>
<g mask="url(#mask3_1386_10)">
<g opacity="0.4">
<path d="M126.46 39.535C126.098 39.1685 125.535 38.4817 124.732 37.434C123.663 36.0318 123.38 35.4984 123.259 35.2194C123.253 35.2061 123.247 35.1929 123.241 35.1798C123.111 34.8585 122.95 34.2521 122.886 32.376C122.838 31.0006 123.025 28.8302 123.456 25.7428C123.638 24.4433 123.852 23.1486 124.098 21.8598C121.434 20.4245 118.832 18.8776 116.298 17.2233C116.269 17.203 116.241 17.1822 116.214 17.1606C115.88 16.8709 112.936 14.294 112.311 12.85C111.964 12.0469 112.272 11.4967 112.675 11.2501C114.387 10.1972 115.438 9.86952 116.186 10.1476C116.517 10.2661 117.248 10.621 119.629 12.2858C121.506 13.6094 123.444 14.8453 125.436 15.9899C126.204 13.0983 127.093 10.2399 128.098 7.42232C128.112 7.38938 128.124 7.35751 128.14 7.3254C129.3 5.08765 130.929 2.38254 132.121 2.19762C132.469 2.14459 132.808 2.25473 133.053 2.50109C133.952 3.40721 134.516 4.13309 134.772 4.7225C134.919 5.06662 134.973 5.37623 134.937 5.66961C134.898 6.02299 134.722 6.8192 133.664 9.51831C132.512 12.4108 131.515 15.5077 130.699 18.7376C131.649 19.1925 132.471 19.57 133.251 19.9053C138.074 21.9841 142.183 23.3214 145.464 23.8734C146.372 24.0066 146.655 24.0772 146.798 24.1253C147.219 24.2643 147.445 24.5181 147.559 24.7086C147.588 24.7566 147.612 24.8032 147.631 24.85C147.805 25.2507 147.765 25.8655 147.082 26.2808C146.652 26.5434 145.854 26.9359 144.65 27.4732C142.999 28.2096 142.413 28.3567 142.114 28.4042C141.774 28.4583 141.146 28.4717 139.31 28.0989C137.97 27.8235 135.847 27.1197 133.002 26.0036C131.802 25.5316 130.615 25.0293 129.441 24.497L129.429 24.5689C128.532 29.7545 128.19 34.0698 128.414 37.3901C128.496 38.3052 128.493 38.5943 128.481 38.7424C128.449 39.1037 128.316 39.4022 128.092 39.6251C127.713 40.0074 127.057 40.1303 126.46 39.535Z" fill="black"/>
</g>
</g>
</svg>
