<svg width="70" height="60" viewBox="0 0 70 60" fill="none" xmlns="http://www.w3.org/2000/svg">
<g clip-path="url(#clip0_1239_15285)">
<path d="M4.0086 17.0391C4.51754 8.31448 11.7411 1.5 20.4806 1.5H47.3447C55.7695 1.5 62.8413 7.84704 63.7487 16.2229L66.3487 40.2229C67.4059 49.9819 59.7608 58.5 49.9447 58.5H19.0806C9.59014 58.5 2.05593 50.5135 2.6086 41.0391L4.0086 17.0391Z" fill="url(#paint0_linear_1239_15285)" stroke="#71CCFF" stroke-width="3"/>
<g clip-path="url(#clip1_1239_15285)">
<mask id="mask0_1239_15285" style="mask-type:luminance" maskUnits="userSpaceOnUse" x="10" y="-17" width="50" height="115">
<path d="M59.3809 80.3438L59.3809 0.65625C59.3809 -8.73259 48.4651 -16.3437 34.9999 -16.3437C21.5347 -16.3437 10.619 -8.73259 10.619 0.656251L10.619 80.3438C10.619 89.7326 21.5347 97.3438 34.9999 97.3438C48.4651 97.3438 59.3809 89.7326 59.3809 80.3438Z" fill="white"/>
</mask>
<g mask="url(#mask0_1239_15285)">
<mask id="mask1_1239_15285" style="mask-type:luminance" maskUnits="userSpaceOnUse" x="-2" y="-17" width="47" height="34">
<path d="M44.9044 -4.82035L14.8647 -16.3438L-1.6618 4.6019L28.3779 16.1253L44.9044 -4.82035Z" fill="white"/>
</mask>
<g mask="url(#mask1_1239_15285)">
<g opacity="0.3">
<path d="M38.3772 -1.67832C38.0521 -1.90315 37.4427 -2.25239 36.5131 -2.74954C35.2692 -3.41248 34.7959 -3.5878 34.5485 -3.66345C34.5367 -3.66679 34.525 -3.67035 34.5134 -3.67402C34.2283 -3.7545 33.6904 -3.85401 32.026 -3.89475C30.8058 -3.92386 28.8803 -3.80779 26.1412 -3.54073C24.9884 -3.42815 23.8397 -3.2955 22.6964 -3.14303C21.4231 -4.7941 20.0507 -6.40709 18.5831 -7.97778C18.5651 -7.99542 18.5466 -8.01279 18.5275 -8.0299C18.2704 -8.23682 15.9844 -10.0609 14.7033 -10.4484C13.9908 -10.6634 13.5027 -10.4734 13.2839 -10.2233C12.3498 -9.16183 12.0592 -8.51004 12.3059 -8.04674C12.4109 -7.84136 12.7258 -7.38841 14.2028 -5.91324C15.377 -4.74943 16.4735 -3.54843 17.4889 -2.31412C14.9235 -1.83765 12.3877 -1.28695 9.88805 -0.663423C9.85887 -0.655348 9.83053 -0.647433 9.80211 -0.637658C7.81681 0.0806984 5.41696 1.09103 5.25293 1.82989C5.20584 2.04526 5.3036 2.25553 5.52218 2.40725C6.326 2.96491 6.96996 3.31394 7.49285 3.47268C7.79815 3.56426 8.07289 3.59747 8.33316 3.57558C8.6466 3.55093 9.35297 3.44218 11.7475 2.78598C14.3137 2.07235 17.0611 1.45435 19.9265 0.948442C20.3301 1.53739 20.6649 2.04654 20.9624 2.53029C22.8068 5.51953 23.9931 8.06629 24.4828 10.0998C24.601 10.663 24.6636 10.8382 24.7063 10.9268C24.8296 11.1878 25.0548 11.3275 25.2237 11.3986C25.2663 11.4163 25.3076 11.4313 25.3492 11.4433C25.7047 11.5509 26.2502 11.5262 26.6186 11.103C26.8516 10.8357 27.1997 10.3412 27.6765 9.59523C28.3296 8.5723 28.4602 8.20898 28.5024 8.02347C28.5503 7.8123 28.5623 7.42369 28.2315 6.28564C27.9872 5.45456 27.3628 4.1394 26.3726 2.37538C25.9539 1.632 25.5082 0.896167 25.036 0.168567L25.0998 0.161236C29.7003 -0.395196 33.5287 -0.607271 36.4743 -0.467765C37.2861 -0.41719 37.5425 -0.418465 37.674 -0.425796C37.9945 -0.446249 38.2592 -0.529018 38.457 -0.666824C38.7962 -0.902487 38.9053 -1.30926 38.3772 -1.67832Z" fill="black"/>
</g>
</g>
<mask id="mask2_1239_15285" style="mask-type:luminance" maskUnits="userSpaceOnUse" x="43" y="12" width="26" height="19">
<path d="M43.0408 18.6498L59.4797 12.3438L68.5237 23.806L52.0848 30.1121L43.0408 18.6498Z" fill="white"/>
</mask>
<g mask="url(#mask2_1239_15285)">
<g opacity="0.2">
<path d="M46.6129 20.3693C46.7908 20.2462 47.1243 20.0551 47.6329 19.7831C48.3137 19.4203 48.5726 19.3244 48.708 19.283C48.7145 19.2811 48.7209 19.2792 48.7273 19.2772C48.8833 19.2331 49.1777 19.1787 50.0885 19.1564C50.7562 19.1404 51.81 19.204 53.3089 19.3501C53.9398 19.4117 54.5683 19.4843 55.194 19.5678C55.8908 18.6642 56.6418 17.7815 57.445 16.922C57.4548 16.9123 57.465 16.9028 57.4754 16.8935C57.6161 16.7803 58.8671 15.782 59.5682 15.57C59.958 15.4523 60.2252 15.5563 60.3449 15.6932C60.8561 16.274 61.0151 16.6307 60.8801 16.8843C60.8226 16.9966 60.6503 17.2445 59.8421 18.0518C59.1995 18.6887 58.5994 19.3459 58.0438 20.0214C59.4476 20.2821 60.8353 20.5835 62.2033 20.9247C62.2192 20.9291 62.2347 20.9334 62.2503 20.9388C63.3367 21.3319 64.65 21.8848 64.7398 22.2892C64.7655 22.407 64.712 22.5221 64.5924 22.6051C64.1525 22.9102 63.8001 23.1013 63.514 23.1881C63.3469 23.2382 63.1966 23.2564 63.0541 23.2444C62.8826 23.231 62.4961 23.1714 61.1857 22.8123C59.7814 22.4218 58.2779 22.0836 56.7098 21.8068C56.4889 22.1291 56.3057 22.4077 56.1429 22.6724C55.1336 24.3082 54.4844 25.7019 54.2164 26.8148C54.1518 27.1229 54.1175 27.2188 54.0941 27.2673C54.0267 27.4101 53.9034 27.4866 53.811 27.5255C53.7877 27.5352 53.765 27.5434 53.7423 27.55C53.5477 27.6088 53.2493 27.5953 53.0476 27.3637C52.9201 27.2175 52.7297 26.9468 52.4687 26.5386C52.1113 25.9788 52.0398 25.78 52.0167 25.6785C51.9905 25.5629 51.984 25.3503 52.165 24.7275C52.2987 24.2727 52.6404 23.5529 53.1823 22.5876C53.4114 22.1808 53.6553 21.7781 53.9137 21.38L53.8788 21.376C51.3612 21.0715 49.2662 20.9554 47.6542 21.0317C47.2099 21.0594 47.0696 21.0587 46.9977 21.0547C46.8223 21.0435 46.6774 20.9982 46.5691 20.9228C46.3835 20.7938 46.3239 20.5713 46.6129 20.3693Z" fill="black"/>
</g>
</g>
<mask id="mask3_1239_15285" style="mask-type:luminance" maskUnits="userSpaceOnUse" x="-1" y="34" width="34" height="24">
<path d="M32.7142 42.887L11.2581 34.6562L-0.546194 49.6169L20.91 57.8476L32.7142 42.887Z" fill="white"/>
</mask>
<g mask="url(#mask3_1239_15285)">
<g opacity="0.4">
<path d="M28.0518 45.131C27.8196 44.9705 27.3844 44.7214 26.7205 44.366C25.8319 43.8926 25.494 43.7672 25.3172 43.7136C25.3087 43.7109 25.3004 43.7083 25.2921 43.7056C25.0885 43.6482 24.7043 43.577 23.5155 43.5484C22.6439 43.5271 21.2686 43.61 19.3122 43.8007C18.4888 43.8814 17.6684 43.976 16.8517 44.0849C15.9422 42.9055 14.962 41.7538 13.9137 40.6318C13.9008 40.619 13.8876 40.6068 13.874 40.5946C13.6904 40.4469 12.0575 39.1438 11.1425 38.867C10.6336 38.7135 10.285 38.8494 10.1287 39.0279C9.46151 39.786 9.25389 40.2514 9.43012 40.5824C9.50516 40.729 9.73008 41.0525 10.785 42.1065C11.6237 42.9374 12.4069 43.7954 13.1321 44.6773C11.2998 45.0173 9.48856 45.4109 7.70319 45.8561C7.68231 45.862 7.66212 45.8673 7.64178 45.8747C6.22379 46.3879 4.50967 47.1093 4.39248 47.6369C4.35888 47.7909 4.42867 47.9413 4.58479 48.0496C5.15896 48.4475 5.61892 48.6972 5.99241 48.8104C6.21047 48.8757 6.40665 48.8996 6.59256 48.8837C6.81648 48.8662 7.32101 48.7886 9.03134 48.32C10.8642 47.81 12.8266 47.3686 14.8732 47.0073C15.1615 47.4281 15.4007 47.792 15.6132 48.1373C16.9305 50.2724 17.7779 52.0914 18.1276 53.5438C18.2121 53.946 18.2568 54.0714 18.2873 54.1346C18.3753 54.321 18.5362 54.4209 18.6569 54.4714C18.6873 54.4841 18.7168 54.4948 18.7465 54.5033C19.0004 54.5803 19.39 54.5628 19.6531 54.2605C19.8195 54.0698 20.0682 53.7165 20.4087 53.1836C20.8753 52.4526 20.9686 52.1934 20.9987 52.0611C21.0329 51.9102 21.0414 51.6324 20.8052 50.8196C20.6307 50.2262 20.1847 49.2864 19.4774 48.0268C19.1784 47.4955 18.8601 46.9701 18.5228 46.4506L18.5683 46.4453C21.8543 46.0479 24.5887 45.8965 26.6927 45.9958C27.2726 46.032 27.4557 46.0309 27.5496 46.0256C27.7785 46.0112 27.9676 45.9523 28.1089 45.8535C28.3512 45.6856 28.4291 45.395 28.0518 45.131Z" fill="black"/>
</g>
</g>
</g>
</g>
<g filter="url(#filter0_d_1239_15285)">
<path d="M16.2629 41C16.0709 41 15.9002 40.936 15.7509 40.808C15.6229 40.6587 15.5589 40.488 15.5589 40.296C15.5589 40.232 15.5695 40.1573 15.5909 40.072C15.6122 39.9653 15.6549 39.8693 15.7189 39.784L21.0629 32.456L16.1989 25.576C16.1349 25.4907 16.0815 25.4053 16.0389 25.32C16.0175 25.2347 16.0069 25.1493 16.0069 25.064C16.0069 24.872 16.0815 24.712 16.2309 24.584C16.3802 24.4347 16.5509 24.36 16.7429 24.36H20.6469C20.9242 24.36 21.1269 24.424 21.2549 24.552C21.4042 24.68 21.5109 24.7973 21.5749 24.904L24.5509 29.032L27.4949 24.936C27.5802 24.8293 27.6869 24.712 27.8149 24.584C27.9642 24.4347 28.1775 24.36 28.4549 24.36H32.1989C32.3909 24.36 32.5509 24.4347 32.6789 24.584C32.8282 24.712 32.9029 24.872 32.9029 25.064C32.9029 25.1493 32.8922 25.2347 32.8709 25.32C32.8495 25.4053 32.8069 25.4907 32.7429 25.576L27.7509 32.456L33.1589 39.784C33.2442 39.8693 33.2975 39.9547 33.3189 40.04C33.3402 40.1253 33.3509 40.2107 33.3509 40.296C33.3509 40.488 33.2762 40.6587 33.1269 40.808C32.9989 40.936 32.8282 41 32.6149 41H28.5509C28.2949 41 28.1029 40.9467 27.9749 40.84C27.8469 40.712 27.7402 40.5947 27.6549 40.488L24.4229 36.104L21.1589 40.488C21.0735 40.5733 20.9669 40.68 20.8389 40.808C20.7109 40.936 20.5082 41 20.2309 41H16.2629ZM44.2594 41.32C42.5954 41.32 41.1767 41.128 40.0034 40.744C38.83 40.3387 37.87 39.8267 37.1234 39.208C36.3767 38.568 35.822 37.896 35.4594 37.192C35.0967 36.4667 34.9047 35.7733 34.8834 35.112C34.8834 34.92 34.9474 34.76 35.0754 34.632C35.2247 34.504 35.3954 34.44 35.5874 34.44H39.7474C40.0034 34.44 40.206 34.4933 40.3554 34.6C40.5047 34.6853 40.6434 34.8347 40.7714 35.048C40.942 35.4533 41.1874 35.784 41.5074 36.04C41.8487 36.296 42.254 36.4773 42.7234 36.584C43.1927 36.6693 43.7047 36.712 44.2594 36.712C45.3474 36.712 46.19 36.4667 46.7874 35.976C47.406 35.464 47.7154 34.7707 47.7154 33.896C47.7154 32.9787 47.4274 32.328 46.8514 31.944C46.2754 31.5387 45.454 31.336 44.3874 31.336H40.8354C40.6007 31.336 40.4087 31.2613 40.2594 31.112C40.11 30.9627 40.0354 30.7707 40.0354 30.536V28.744C40.0354 28.488 40.0887 28.264 40.1954 28.072C40.302 27.88 40.4194 27.7413 40.5474 27.656L45.7954 23.208H36.8994C36.686 23.208 36.494 23.1333 36.3234 22.984C36.174 22.8347 36.0994 22.6427 36.0994 22.408V19.4C36.0994 19.1653 36.174 18.9733 36.3234 18.824C36.494 18.6747 36.686 18.6 36.8994 18.6H51.6194C51.854 18.6 52.046 18.6747 52.1954 18.824C52.366 18.9733 52.4514 19.1653 52.4514 19.4V22.12C52.4514 22.3547 52.398 22.568 52.2914 22.76C52.1847 22.9307 52.0674 23.0693 51.9394 23.176L47.0754 27.688L47.2994 27.752C48.5154 27.9013 49.6034 28.232 50.5634 28.744C51.5234 29.2347 52.2807 29.928 52.8354 30.824C53.39 31.72 53.6674 32.8613 53.6674 34.248C53.6674 35.6987 53.2514 36.9573 52.4194 38.024C51.6087 39.0693 50.4994 39.88 49.0914 40.456C47.6834 41.032 46.0727 41.32 44.2594 41.32Z" fill="white"/>
</g>
</g>
<defs>
<filter id="filter0_d_1239_15285" x="15.5588" y="18.6" width="38.1086" height="27.72" filterUnits="userSpaceOnUse" color-interpolation-filters="sRGB">
<feFlood flood-opacity="0" result="BackgroundImageFix"/>
<feColorMatrix in="SourceAlpha" type="matrix" values="0 0 0 0 0 0 0 0 0 0 0 0 0 0 0 0 0 0 127 0" result="hardAlpha"/>
<feOffset dy="5"/>
<feComposite in2="hardAlpha" operator="out"/>
<feColorMatrix type="matrix" values="0 0 0 0 0.107431 0 0 0 0 0.239021 0 0 0 0 0.495833 0 0 0 1 0"/>
<feBlend mode="normal" in2="BackgroundImageFix" result="effect1_dropShadow_1239_15285"/>
<feBlend mode="normal" in="SourceGraphic" in2="effect1_dropShadow_1239_15285" result="shape"/>
</filter>
<linearGradient id="paint0_linear_1239_15285" x1="70" y1="30" x2="2.83739" y2="28.7159" gradientUnits="userSpaceOnUse">
<stop stop-color="#4743FF"/>
<stop offset="1" stop-color="#67A4FF"/>
</linearGradient>
<clipPath id="clip0_1239_15285">
<rect width="70" height="60" rx="18" fill="white"/>
</clipPath>
<clipPath id="clip1_1239_15285">
<rect width="64" height="85" fill="white" transform="matrix(-1 0 0 -1 67 83)"/>
</clipPath>
</defs>
</svg>
